<svg xmlns="http://www.w3.org/2000/svg" viewBox="0 0 24 24"><path d="M19.059 4v1.764h-1.764v1.178h1.764v1.763h1.176V6.943H22V5.764h-1.765V4zm-5.734 3.53a4.41 4.41 0 0 0-4.237 3.172 2.354 2.354 0 0 0-4 1.682v.486A3.68 3.68 0 0 0 2 16.5a3.675 3.675 0 0 0 3.676 3.676h11.471a3.677 3.677 0 0 0 .588-7.306v-.928a4.41 4.41 0 0 0-4.41-4.412m-1.766 3.675h.883c.162 0 .293.133.293.295v1.764h.844c.249 0 .386.29.226.483l-1.578 1.894a.295.295 0 0 1-.453 0l-1.578-1.894a.294.294 0 0 1 .226-.483h.844V11.5c0-.162.13-.294.293-.294zm-2.5 4.118h1.877l.5.6a.734.734 0 0 0 1.129 0l.5-.6h1.877a.59.59 0 0 1 .588.59v1.175a.59.59 0 0 1-.588.588H9.059a.59.59 0 0 1-.588-.588v-1.175a.59.59 0 0 1 .588-.59m4.559 1.177a.294.294 0 1 0 .002.588.294.294 0 0 0-.002-.588m1.029 0a.294.294 0 1 0 .002.588.294.294 0 0 0-.002-.588"/></svg>