<svg xmlns="http://www.w3.org/2000/svg" width="192" height="192" viewBox="0 0 192 192"><path d="M152.47 31.296v14.112h-14.112v9.424h14.112v14.104h9.408V54.84h14.12v-9.432h-14.12V31.296zm-45.872 28.24a35.28 35.28 0 0 0-33.896 25.376 18.832 18.832 0 0 0-32 13.456v3.888a29.44 29.44 0 0 0-24.704 29.04 29.4 29.4 0 0 0 29.408 29.408h91.768a29.416 29.416 0 0 0 4.704-58.448v-7.424a35.28 35.28 0 0 0-35.28-35.296m-14.128 29.4h7.064a2.356 2.356 0 0 1 2.344 2.36v14.112h6.752c1.992 0 3.088 2.32 1.808 3.864l-12.624 15.152a2.36 2.36 0 0 1-3.624 0l-12.624-15.152a2.352 2.352 0 0 1 1.808-3.864h6.752V91.296a2.344 2.344 0 0 1 2.344-2.352zm-20 32.944h15.016l4 4.8a5.872 5.872 0 0 0 9.032 0l4-4.8h15.016a4.72 4.72 0 0 1 4.704 4.72v9.4a4.72 4.72 0 0 1-4.704 4.704H72.47A4.72 4.72 0 0 1 67.766 136v-9.4a4.72 4.72 0 0 1 4.704-4.72m36.472 9.416a2.352 2.352 0 1 0 .016 4.704 2.352 2.352 0 0 0-.016-4.704m8.232 0a2.352 2.352 0 1 0 .016 4.704 2.352 2.352 0 0 0-.016-4.704"/></svg>