<svg xmlns="http://www.w3.org/2000/svg" width="192" height="192" viewBox="0 0 192 192"><path d="M47.169 149.75h97.513a31.251 31.251 0 0 0 5-62.11v-7.889A37.508 37.508 0 0 0 76.18 69.214a20.002 20.002 0 0 0-34.003 14.281v4.16a31.259 31.259 0 0 0 5 62.103zm47.509-73.759a2.5 2.5 0 0 1 2.496-2.496h7.505a2.5 2.5 0 0 1 2.496 2.496v15.001h7.16c2.129 0 3.281 2.48 1.921 4.104l-13.401 16.098a2.504 2.504 0 0 1-3.84 0L85.598 95.096a2.496 2.496 0 0 1 1.92-4.104h7.168zm-18.754 32.507h15.954l4.24 5.096a6.24 6.24 0 0 0 9.61 0l4.248-5.096h15.954c2.76 0 5 2.24 5 5V123.5c0 2.76-2.24 5.001-5 5.001H75.925a5 5 0 0 1-5-5v-10.002c0-2.76 2.24-5 5-5m50.005 12.497a2.5 2.5 0 1 1-5 0 2.5 2.5 0 0 1 5 0m-11.25 2.504a2.5 2.5 0 1 0 0-5 2.5 2.5 0 0 0 0 5"/></svg>