<svg version="1.1" viewBox="0 0 192 192" xmlns="http://www.w3.org/2000/svg"><path d="m95.996 19a77 77 0 1 0 0.0086 154 77 77 0 0 0-0.0086-154m0.04278 4.346q6.0998 0.0086 11.951 0.98383c7.0408 3.4819 13.372 10.044 18.496 18.864 1.9677 3.3964 3.73 7.1349 5.3042 11.139h-35.623zm-1.3089 0.01711 0.12833 30.969h-34.024a76.996 76.996 0 0 1 5.3041-11.139c5.1758-8.9486 11.635-15.57 18.796-19.001q4.808-0.74429 9.7956-0.82984m-13.774 1.5399c-6.0741 3.8669-11.507 9.9496-15.947 17.641a82.129 82.129 0 0 0-5.5694 11.789h-16.229a1.2833 1.2833 0 0 0-1.3004 1.3004v9.479a68.441 68.441 0 0 1-9.633-4.0466 72.718 72.718 0 0 1 48.678-36.171zm31.012 0.19677a72.718 72.718 0 0 1 47.352 35.264 68.441 68.441 0 0 1-8.5722 3.7471l-0.0428 0.01711v-8.4952a1.3089 1.3089 0 0 0-1.3089-1.3004h-16.212a82.129 82.129 0 0 0-5.5779-11.789c-4.3631-7.5456-9.6844-13.568-15.639-17.444m47.994 36.402a72.718 72.718 0 0 1 8.6834 33.75h-17.94v-29.746l0.48764-0.1711a72.718 72.718 0 0 0 8.769-3.8327m-128.3 0.71863q4.5085 2.327 10.206 4.2775l0.04277 0.0086v59.184l-1.172 0.41919a76.996 76.996 0 0 0-8.9229 3.961 72.29 72.29 0 0 1-8.4695-33.331h18.547v-1.4886h-18.53a72.205 72.205 0 0 1 8.3155-33.031zm20.241 11.387h35.392c0.36787 0 0.65019 0.29943 0.65019 0.65874v0.31654a0.64163 0.64163 0 0 1-0.65019 0.64163h-35.384a0.65019 0.65019 0 0 1-0.65874-0.64163v-0.31654c0-0.35931 0.29943-0.65874 0.65874-0.65874zm50.92 0h35.384c0.37642 0 0.65874 0.29943 0.65874 0.65874v0.31654a0.64163 0.64163 0 0 1-0.65874 0.64163h-35.367a0.65019 0.65019 0 0 1-0.65874-0.64163v-0.31654c0-0.35931 0.29942-0.65874 0.65874-0.65874m-50.928 10.754h35.392c0.36787 0 0.65019 0.28232 0.65019 0.65874v0.30798a0.64163 0.64163 0 0 1-0.65019 0.64163h-35.392a0.65019 0.65019 0 0 1-0.65874-0.64163v-0.30798c0-0.37642 0.29943-0.65874 0.65874-0.65874m50.92 0h35.384c0.37643 0 0.65874 0.28232 0.65874 0.65874v0.30798a0.64163 0.64163 0 0 1-0.65874 0.64163h-35.375a0.65019 0.65019 0 0 1-0.65874-0.64163v-0.30798c0-0.37642 0.29942-0.65874 0.65874-0.65874m-50.92 10.754h35.392c0.36787 0 0.65019 0.28232 0.65019 0.65019v0.29943a0.64163 0.64163 0 0 1-0.65019 0.65874h-35.401a0.65019 0.65019 0 0 1-0.65874-0.65874v-0.29943c0-0.36787 0.29943-0.65019 0.65874-0.65019m50.92 0h35.384c0.37643 0 0.65874 0.28232 0.65874 0.65019v0.29943a0.64163 0.64163 0 0 1-0.65874 0.65874h-35.375a0.65019 0.65019 0 0 1-0.65874-0.65874v-0.29943c0-0.36787 0.29942-0.65019 0.65874-0.65019m47.874 1.6255h17.94a72.29 72.29 0 0 1-8.1102 32.646 68.441 68.441 0 0 0-9.8298-4.2262zm-98.803 9.1197h35.392c0.36787 0 0.65019 0.29087 0.65019 0.65874v0.29943a0.64163 0.64163 0 0 1-0.65019 0.65874h-35.392a0.65874 0.65874 0 0 1-0.65874-0.65874v-0.29943c0-0.36787 0.30798-0.65874 0.65874-0.65874m50.92 0h35.384c0.37643 0 0.65874 0.29087 0.65874 0.65874v0.29943a0.65019 0.65019 0 0 1-0.65874 0.65874h-35.375a0.65019 0.65019 0 0 1-0.65874-0.65874v-0.29943c0-0.36787 0.29942-0.65874 0.65874-0.65874m-50.928 10.754h35.392c0.36787 0 0.65019 0.28231 0.65019 0.65874v0.29942a0.64163 0.64163 0 0 1-0.65019 0.65019h-35.392a0.65019 0.65019 0 0 1-0.65874-0.65019v-0.29942c0-0.37643 0.30798-0.65874 0.65874-0.65874m50.92 0h35.384c0.37643 0 0.65874 0.28231 0.65874 0.65874v0.29942a0.64163 0.64163 0 0 1-0.65874 0.65019h-35.375a0.65019 0.65019 0 0 1-0.65874-0.65019v-0.29942c0-0.37643 0.29942-0.65874 0.65874-0.65874m47.874 9.9239c3.4306 1.2319 6.5275 2.5665 9.2138 4.0038a72.718 72.718 0 0 1-47.951 36.351c5.9629-3.884 11.284-9.8982 15.647-17.444a82.129 82.129 0 0 0 5.5694-11.789h16.212a1.3089 1.3089 0 0 0 1.3175-1.3004zm-108.79 0.54752v9.2737c0 0.71863 0.5903 1.3004 1.3004 1.3004h16.22c1.634 4.2433 3.5076 8.2043 5.5779 11.789 4.4401 7.691 9.8726 13.774 15.947 17.641a72.718 72.718 0 0 1-48.507-35.88 68.441 68.441 0 0 1 8.7518-3.8754zm18.907 10.574h34.391l0.11977 30.978a68.441 68.441 0 0 1-10.403-0.8384c-7.1606-3.4391-13.62-10.052-18.796-19.009a81.273 81.273 0 0 1-5.3041-11.13zm35.683 0h35.273a76.996 76.996 0 0 1-5.3042 11.13c-5.1159 8.8288-11.447 15.391-18.488 18.873a72.718 72.718 0 0 1-11.353 0.97528z"/></svg>
