<svg xmlns="http://www.w3.org/2000/svg" viewBox="0 0 24 24"><path d="M12 3a9 9 0 1 0 .001 18.001A9 9 0 0 0 12 3m.005.508q.713.001 1.397.115c.823.407 1.563 1.174 2.162 2.205.23.397.436.834.62 1.302H12.02zm-.153.002.015 3.62H7.89a9 9 0 0 1 .62-1.302c.605-1.046 1.36-1.82 2.197-2.221q.562-.087 1.145-.097m-1.61.18c-.71.452-1.345 1.163-1.864 2.062a9.6 9.6 0 0 0-.651 1.378H5.83a.15.15 0 0 0-.152.152V8.39a8 8 0 0 1-1.126-.473 8.5 8.5 0 0 1 5.69-4.228zm3.625.023a8.5 8.5 0 0 1 5.535 4.122 8 8 0 0 1-1.002.438l-.005.002v-.993a.153.153 0 0 0-.153-.152h-1.895a9.6 9.6 0 0 0-.652-1.378c-.51-.882-1.132-1.586-1.828-2.039m5.61 4.255a8.5 8.5 0 0 1 1.015 3.945h-2.097V8.436l.057-.02a8.5 8.5 0 0 0 1.025-.448M4.48 8.052q.527.272 1.193.5l.005.001v6.918l-.137.049a9 9 0 0 0-1.043.463 8.45 8.45 0 0 1-.99-3.896h2.168v-.174H3.51a8.44 8.44 0 0 1 .972-3.861zm2.366 1.331h4.137c.043 0 .076.035.076.077v.037a.075.075 0 0 1-.076.075H6.847a.076.076 0 0 1-.077-.075V9.46c0-.042.035-.077.077-.077zm5.952 0h4.136c.044 0 .077.035.077.077v.037a.075.075 0 0 1-.077.075H12.8a.076.076 0 0 1-.077-.075V9.46c0-.042.035-.077.077-.077M6.847 10.64h4.137c.043 0 .076.033.076.077v.036a.075.075 0 0 1-.076.075H6.847a.076.076 0 0 1-.077-.075v-.036c0-.044.035-.077.077-.077m5.952 0h4.136c.044 0 .077.033.077.077v.036a.075.075 0 0 1-.077.075H12.8a.076.076 0 0 1-.077-.075v-.036c0-.044.035-.077.077-.077m-5.952 1.257h4.137c.043 0 .076.033.076.076v.035a.075.075 0 0 1-.076.077H6.847a.076.076 0 0 1-.077-.077v-.035c0-.043.035-.076.077-.076m5.952 0h4.136c.044 0 .077.033.077.076v.035a.075.075 0 0 1-.077.077H12.8a.076.076 0 0 1-.077-.077v-.035c0-.043.035-.076.077-.076m5.596.19h2.097a8.45 8.45 0 0 1-.948 3.816 8 8 0 0 0-1.149-.494zM6.847 13.153h4.137c.043 0 .076.034.076.077v.035a.075.075 0 0 1-.076.077H6.847a.077.077 0 0 1-.077-.077v-.035c0-.043.036-.077.077-.077m5.952 0h4.136c.044 0 .077.034.077.077v.035a.076.076 0 0 1-.077.077H12.8a.076.076 0 0 1-.077-.077v-.035c0-.043.035-.077.077-.077M6.847 14.41h4.137c.043 0 .076.033.076.077v.035a.075.075 0 0 1-.076.076H6.847a.076.076 0 0 1-.077-.076v-.035c0-.044.036-.077.077-.077m5.952 0h4.136c.044 0 .077.033.077.077v.035a.075.075 0 0 1-.077.076H12.8a.076.076 0 0 1-.077-.076v-.035c0-.044.035-.077.077-.077m5.596 1.16c.401.144.763.3 1.077.468a8.5 8.5 0 0 1-5.605 4.249c.697-.454 1.319-1.157 1.829-2.039a9.6 9.6 0 0 0 .651-1.378h1.895a.153.153 0 0 0 .154-.152zm-12.716.064v1.084c0 .084.069.152.152.152h1.896c.191.496.41.959.652 1.378.519.899 1.154 1.61 1.864 2.062a8.5 8.5 0 0 1-5.67-4.194 8.4 8.4 0 0 1 1.023-.453zm2.21 1.236h4.02l.014 3.621a8 8 0 0 1-1.216-.098c-.837-.402-1.592-1.175-2.197-2.222a9.5 9.5 0 0 1-.62-1.301zm4.171 0h4.123a9 9 0 0 1-.62 1.301c-.598 1.032-1.338 1.799-2.161 2.206a8.5 8.5 0 0 1-1.327.114z"/></svg>