<svg version="1.1" viewBox="0 0 192 192" xmlns="http://www.w3.org/2000/svg"><path d="m87.553 49.639c-0.21764 0-0.39286 0.17522-0.39286 0.39286v9.1931h-9.4287c-2.1764 0-3.9286 1.7522-3.9286 3.9286v77.394c0 2.1764 1.7522 3.9286 3.9286 3.9286h38.5c2.1764 0 3.9286-1.7522 3.9286-3.9286v-77.394c0-2.1764-1.7522-3.9286-3.9286-3.9286h-9.4287v-9.1931c0-0.21764-0.17521-0.39286-0.39286-0.39286zm-5.2614 49.697h29.38c0.13241 0 0.23863 0.10622 0.23863 0.23863v11.309c0 0.13241-0.10622 0.23864-0.23863 0.23864h-29.38c-0.13241 0-0.23863-0.10623-0.23863-0.23864v-11.309c0-0.13241 0.10622-0.23863 0.23863-0.23863zm0 12.768h29.38c0.13241 0 0.23863 0.10622 0.23863 0.23863v11.309c0 0.13241-0.10622 0.23863-0.23863 0.23863h-29.38c-0.13241 0-0.23863-0.10622-0.23863-0.23863v-11.309c0-0.13241 0.10622-0.23863 0.23863-0.23863zm0 12.768h29.38c0.13241 0 0.23863 0.10622 0.23863 0.23863v11.309c0 0.13241-0.10622 0.23863-0.23863 0.23863h-29.38c-0.13241 0-0.23863-0.10622-0.23863-0.23863v-11.309c0-0.13241 0.10622-0.23863 0.23863-0.23863z"/><path d="m82.291 99.336c-0.13241 0-0.23863 0.10622-0.23863 0.23863v11.309c0 0.13241 0.10622 0.23864 0.23863 0.23864h29.38c0.13241 0 0.23863-0.10623 0.23863-0.23864v-11.309c0-0.13241-0.10622-0.23863-0.23863-0.23863z" opacity=".8"/><path d="m82.291 112.1c-0.13241 0-0.23863 0.10622-0.23863 0.23863v11.309c0 0.13241 0.10622 0.23863 0.23863 0.23863h29.38c0.13241 0 0.23863-0.10622 0.23863-0.23863v-11.309c0-0.13241-0.10622-0.23863-0.23863-0.23863z" opacity=".7"/><path d="m96.334 19.001c-19.804 0.07394-39.332 7.7761-54.029 22.385-23.515 23.374-29.425 59.22-14.659 88.906 14.767 29.686 46.921 46.598 79.749 41.945 32.827-4.6528 59.015-29.834 64.951-62.453a3.9286 3.9286 0 0 0-3.1621-4.5685 3.9286 3.9286 0 0 0-4.5686 3.1621c-5.3352 29.319-28.817 51.898-58.323 56.08-29.506 4.182-58.338-10.982-71.611-37.664-13.273-26.682-7.9733-58.825 13.162-79.834 21.136-21.009 53.31-26.115 79.911-12.682a3.9286 3.9286 0 0 0 5.2783-1.7364 3.9286 3.9286 0 0 0-1.7364-5.2775c-11.099-5.6044-23.08-8.306-34.963-8.2616zm-14.043 105.87c-0.13241 0-0.23863 0.10622-0.23863 0.23863v11.309c0 0.13241 0.10622 0.23863 0.23863 0.23863h29.38c0.13241 0 0.23863-0.10622 0.23863-0.23863v-11.309c0-0.13241-0.10622-0.23863-0.23863-0.23863z" opacity=".6"/></svg>
