<svg xmlns="http://www.w3.org/2000/svg" viewBox="0 0 24 24"><path d="M14.313 4.25a.657.657 0 0 0-.653.63v14.185a.665.665 0 0 0 .661.673h3.837l.005.013A3.81 3.81 0 0 0 22 15.986V14.66a3.8 3.8 0 0 0-1.241-2.783 3.7 3.7 0 0 0 .993-2.558V7.992a3.765 3.765 0 0 0-3.837-3.743zm-9.265.004a.674.674 0 0 0-.665.478L2.021 13.56 2 13.693v5.372a.67.67 0 0 0 .686.674h.904a.66.66 0 0 0 .66-.674v-4.2h4.507v4.2a.665.665 0 0 0 .661.674h.908a.665.665 0 0 0 .661-.674v-5.504L8.625 4.73a.67.67 0 0 0-.66-.477zM15.92 6.445h1.996a1.55 1.55 0 0 1 1.568 1.548l.014 1.326a1.565 1.565 0 0 1-1.57 1.565H15.92zm-9.695.005h.546l1.632 6.22H4.605zm9.695 6.655h2.239a1.55 1.55 0 0 1 1.568 1.543l.013 1.326a1.55 1.55 0 0 1-1.569 1.548h-2.25z"/></svg>