<svg version="1.1" viewBox="0 0 192 192" xmlns="http://www.w3.org/2000/svg"><path d="m75.435 117.82v-10.911q0-9.0875 5.9997-15.447c5.9997-6.3597 8.8555-6.3677 14.567-6.3677h6.8556v-14.543l20.575 21.815-20.575 21.815v-14.543h-6.8556a6.3997 6.3997 0 0 0-4.8797 2.0879 7.1996 7.1996 0 0 0-1.9759 5.1837v10.911zm-13.719 43.638h68.572v-130.91h-68.572v130.9zm0 14.543q-5.6557 0-9.6795-4.2718a14.399 14.399 0 0 1-4.0318-10.279v-130.9q0-5.9997 4.0318-10.271a12.799 12.799 0 0 1 9.6795-4.2718h68.572q5.6557 0 9.6795 4.2718 4.0318 4.2798 4.0318 10.271v130.9q0 5.9997-4.0238 10.279-4.0318 4.2718-9.6875 4.2718z"/></svg>
