<svg xmlns="http://www.w3.org/2000/svg" viewBox="0 0 24 24"><path d="M9.429 14.727v-1.364c0-.757.25-1.401.75-1.931s1.107-.796 1.821-.796h.857V8.818l2.572 2.727-2.572 2.727v-1.818H12a.805.805 0 0 0-.61.261.908.908 0 0 0-.247.648v1.364zm-1.715 5.455h8.572V3.817H7.714V20.18zm0 1.818c-.471 0-.875-.178-1.21-.534A1.806 1.806 0 0 1 6 20.181V3.817c0-.5.168-.928.504-1.284a1.604 1.604 0 0 1 1.21-.534h8.572c.471 0 .875.178 1.21.534.336.356.504.785.504 1.284v16.364c0 .5-.168.929-.503 1.285-.336.356-.74.534-1.211.534z"/></svg>