<svg version="1.1" viewBox="0 0 192 192" xmlns="http://www.w3.org/2000/svg"><path d="m108.13 172.55a68.443 68.443 0 0 1-7.3148-2.3271c-6.023-2.2843-8.1704-2.2928-15.186-0.0941-10.977 3.4393-14.886 2.1645-22.381-7.2892-1.771-2.2244-4.0895-4.5686-5.1503-5.1846-1.0609-0.62454-4.6712-1.7881-8.0249-2.5837-6.8443-1.6255-9.0002-2.5666-11.182-4.8851-2.4041-2.5581-3.4649-5.253-4.5087-11.481-0.53899-3.2083-1.3004-6.6047-1.6854-7.5458-0.41066-1.0095-2.8404-3.7986-5.8946-6.7502-6.793-6.562-7.9137-8.658-7.5801-14.091 0.17111-2.9858 0.68443-5.022 2.2073-9.0088 2.4811-6.485 2.5495-8.7693 0.47054-15.143a36.788 36.788 0 0 1-1.7367-8.2987c-0.21388-3.3195-0.10266-3.9697 1.0523-6.331q1.2833-2.6351 4.4231-5.3899c6.5876-5.8091 8.4099-7.5886 9.0687-8.8462 0.35933-0.71865 1.309-4.0125 2.0961-7.3148 1.6854-7.101 2.5495-8.966 5.3899-11.575 2.4212-2.2415 4.9963-3.1997 11.208-4.1921 8.0763-1.2833 7.9308-1.2063 14.082-7.5031 6.5021-6.6561 8.4356-7.7683 13.346-7.7169 3.0029 0.03422 4.0552 0.3251 12.576 3.4136 3.8499 1.4031 6.4764 1.2491 12.807-0.72721 3.9012-1.2149 6.4336-1.7282 8.6837-1.7453 5.3043-0.04278 7.1865 1.2833 15.656 11.071 1.4031 1.6255 3.1484 3.251 3.8841 3.636 0.72721 0.37644 3.7472 1.232 6.6988 1.8993 12.089 2.7292 14.356 5.0391 16.512 16.82 0.62454 3.405 1.3689 6.8015 1.6683 7.5458 0.29088 0.75287 2.9944 3.7644 6.0059 6.7074 6.4593 6.2796 7.5629 8.2388 7.5116 13.269-0.0257 2.5837-0.42777 4.2777-2.002 8.4185-2.8318 7.4346-2.9088 9.1799-0.69298 16.726 3.5505 12.08 2.866 13.894-9.043 24.28-1.7538 1.5314-3.5248 3.4221-3.9269 4.1921-0.4021 0.78709-1.2576 3.8242-1.9078 6.7587-2.5837 11.661-5.176 14.236-16.349 16.195-8.5554 1.4972-8.3329 1.386-14.741 7.8709-7.1608 7.2635-9.9413 8.5126-16.041 7.2207m-38.396-67.716c3.5163-1.8052 5.3642-4.8766 5.3642-8.8976 0-4.0809-1.848-7.101-5.4583-8.9575-2.7206-1.3945-7.5715-1.078-10.215 0.67587-2.3527 1.5571-4.4317 5.4412-4.4231 8.2474 0.01711 3.6788 2.6265 7.6827 5.9802 9.1628 2.1645 0.96676 6.6561 0.83842 8.7521-0.231m31.261-0.20532c3.1398-1.6597 4.8937-4.4402 5.1161-8.1105 0.231-3.8927-1.1379-6.6304-4.406-8.8462-2.0276-1.3689-2.6778-1.5571-5.4754-1.5485-3.9012 0.0086-6.3139 1.2149-8.427 4.2263-1.3004 1.848-1.4544 2.4468-1.4544 5.5781 0 3.1227 0.154 3.7301 1.4373 5.5439 1.9506 2.7719 4.8937 4.2777 8.3843 4.2777 1.9164 0 3.3366-0.33366 4.8252-1.1208m30.252 0.47054a11.978 11.978 0 0 0 3.0799-2.2415 9.8472 9.8472 0 0 0-7.1865-16.811c-5.7834 0-9.9157 4.1066-9.9157 9.8814 0 4.0467 1.8565 7.1009 5.5011 9.0173 1.7881 0.94109 6.4422 1.0266 8.5126 0.14545z"/></svg>
