<svg xmlns="http://www.w3.org/2000/svg" viewBox="0 0 24 24"><path d="M13.418 20.948a8 8 0 0 1-.855-.272c-.704-.267-.955-.268-1.775-.011-1.283.402-1.74.253-2.616-.852-.207-.26-.478-.534-.602-.606-.124-.073-.546-.209-.938-.302-.8-.19-1.052-.3-1.307-.571-.281-.299-.405-.614-.527-1.342-.063-.375-.152-.772-.197-.882-.048-.118-.332-.444-.689-.789-.794-.767-.925-1.012-.886-1.647.02-.349.08-.587.258-1.053.29-.758.298-1.025.055-1.77a4.3 4.3 0 0 1-.203-.97c-.025-.388-.012-.464.123-.74q.15-.308.517-.63c.77-.679.983-.887 1.06-1.034.042-.084.153-.469.245-.855.197-.83.298-1.048.63-1.353.283-.262.584-.374 1.31-.49.944-.15.927-.141 1.646-.877.76-.778.986-.908 1.56-.902.351.004.474.038 1.47.399.45.164.757.146 1.497-.085.456-.142.752-.202 1.015-.204.62-.005.84.15 1.83 1.294.164.19.368.38.454.425.085.044.438.144.783.222 1.413.319 1.678.589 1.93 1.966.073.398.16.795.195.882.034.088.35.44.702.784.755.734.884.963.878 1.551-.003.302-.05.5-.234.984-.331.869-.34 1.073-.081 1.955.415 1.412.335 1.624-1.057 2.838-.205.179-.412.4-.459.49-.047.092-.147.447-.223.79-.302 1.363-.605 1.664-1.911 1.893-1 .175-.974.162-1.723.92-.837.849-1.162.995-1.875.844M8.93 13.033c.411-.211.627-.57.627-1.04 0-.477-.216-.83-.638-1.047-.318-.163-.885-.126-1.194.079-.275.182-.518.636-.517.964.002.43.307.898.699 1.071.253.113.778.098 1.023-.027m3.654-.024c.367-.194.572-.519.598-.948.027-.455-.133-.775-.515-1.034-.237-.16-.313-.182-.64-.181-.456.001-.738.142-.985.494-.152.216-.17.286-.17.652 0 .365.018.436.168.648.228.324.572.5.98.5.224 0 .39-.039.564-.131m3.536.055a1.4 1.4 0 0 0 .36-.262 1.151 1.151 0 0 0-.84-1.965c-.676 0-1.159.48-1.159 1.155 0 .473.217.83.643 1.054.209.11.753.12.995.017z"/></svg>