<svg xmlns="http://www.w3.org/2000/svg" viewBox="0 0 24 24"><path d="M3.473 3.28c-1.186-.302-1.75-.445-1.34.017l.028.011c.683 1.306 1.214 1.457 2.26 1.753.472.134 1.05.298 1.794.611 1.72.25-2.552 1.019-2.88.643.292 1.259 1.455 1.301 2.408 1.336.237.008.462.017.657.043.854.168.512.38.04.67-.631.389-1.494.92-.02 1.683.047.146.076.32.107.51.15.906.358 2.16 2.894 2.27.695.03 1.42-.055 2.057-.13 1.063-.127 1.886-.224 1.94.29.044.418-.56.761-1.817 1.474a55 55 0 0 0-3.326 2.012c-.962.737-.214 1.037.418 1.29.343.138.651.262.636.434.53.827.96.633 1.342.46.306-.138.581-.262.854.16.319.467.98 1.17 1.559 1.157l.976.026c0-1.257.417-2.633 1.158-3.29.648-.667 1.3-1.127 1.898-1.55 1.548-1.092 2.74-1.933 2.603-5.456.019-1.749 1.333-3.806 2.281-3.854-.263-.113-.515-.344-.79-.596l-.037-.034c-.265-.244-1.32-1.09-2.042-.992-.54.11-1.04.74-1.495 1.313-.335.423-.646.815-.929.941-1.43.64-1.824.281-2.765-.577q-.2-.183-.442-.397c-.576-.56-1.35-1.114-3.402-1.23-2.722-.008-5.153-.625-6.625-.999zm16.42 2.512c0 .186-.163.336-.363.336s-.362-.15-.362-.336.162-.337.362-.337.362.15.362.337z"/></svg>