<svg version="1.1" viewBox="0 0 192 192" xmlns="http://www.w3.org/2000/svg"><path d="m83.959 168.17c-5.0721-0.79201-12.8-2.816-17.08-4.4801-8.9281-3.464-19.64-10.48-26.976-17.664-14.264-13.984-22.664-32.24-23.744-51.593-1.248-22.44 4.8801-41.017 19.168-58.121 3.528-4.2241 10.816-10.624 13.696-12.032 3.016-1.464 7.3601-1.368 10.64 0.24 2.648 1.304 5.0401 3.712 6.3281 6.3921 1.2 2.48 1.064 7.2001-0.296 9.9041-1.032 2.064-1.752 2.848-7.6161 8.2161-5.1921 4.7601-10.544 12.528-12.992 18.88-4.8401 12.512-5.2801 25.552-1.28 38.056 3.736 11.672 11.64 21.88 22.472 29.016 14.736 9.7121 33.864 11.44 50.961 4.6001 8.3121-3.336 18.016-11.112 23.576-18.912 10.856-15.224 13.12-34.704 6.1441-52.761-2.72-7.0481-7.8641-14.208-14.728-20.504-4.8801-4.4801-6.1921-6.3041-6.8481-9.5761-1.672-8.3201 6.4641-16.184 14.912-14.408 5.7841 1.208 15.072 9.9201 22.496 21.08 9.2401 13.888 13.224 27.208 13.208 44.209 0 15.68-3.368 28.312-10.824 40.681-7.8001 12.944-18.16 22.92-31.208 30.032-8.6081 4.6961-16.432 7.3041-26.416 8.7921-5.5921 0.83201-18.112 0.816-23.592-0.04zm7.8881-52.281c-6.1281-1.28-10.016-3.352-14.336-7.6481a26.16 26.16 0 0 1-8.0001-19.296c0-3.144 0.264-4.5041 1.64-8.5601 1.784-5.2721 6.5841-14.544 12.248-23.672 4.1441-6.6641 6.0241-8.8881 8.4481-10 3.52-1.6 8.2801-0.68001 10.816 2.096 2.832 3.088 10.224 15 14.496 23.328 4.9201 9.6001 6.1601 14.784 5.0401 21.136-1.904 10.84-10.64 20.016-21.2 22.248-2.824 0.60001-7.1921 0.77601-9.1521 0.36801"/></svg>
