<svg xmlns="http://www.w3.org/2000/svg" viewBox="0 0 24 24"><path d="M10.495 21.022c-.634-.099-1.6-.352-2.135-.56-1.116-.433-2.455-1.31-3.372-2.208-1.783-1.748-2.833-4.03-2.968-6.449C1.864 9 2.63 6.678 4.416 4.54c.441-.528 1.352-1.328 1.712-1.504.377-.183.92-.171 1.33.03.331.163.63.464.791.799.15.31.133.9-.037 1.238-.129.258-.219.356-.952 1.027-.649.595-1.318 1.566-1.624 2.36-.605 1.564-.66 3.194-.16 4.757.467 1.459 1.455 2.735 2.809 3.627 1.842 1.214 4.233 1.43 6.37.575 1.039-.417 2.252-1.389 2.947-2.364 1.357-1.903 1.64-4.338.768-6.595-.34-.881-.983-1.776-1.841-2.563-.61-.56-.774-.788-.856-1.197-.209-1.04.808-2.023 1.864-1.801.723.151 1.884 1.24 2.812 2.635C21.504 7.3 22.002 8.965 22 11.09c0 1.96-.421 3.539-1.353 5.085-.975 1.618-2.27 2.865-3.901 3.754-1.076.587-2.054.913-3.302 1.099-.699.104-2.264.102-2.949-.005zm.986-6.535c-.766-.16-1.252-.419-1.792-.956a3.27 3.27 0 0 1-1-2.412c0-.393.033-.563.205-1.07.223-.659.823-1.818 1.531-2.959.518-.833.753-1.111 1.056-1.25.44-.2 1.035-.085 1.352.262.354.386 1.278 1.875 1.812 2.916.615 1.2.77 1.848.63 2.642-.238 1.355-1.33 2.502-2.65 2.781-.353.075-.899.097-1.144.046"/></svg>