<svg xmlns="http://www.w3.org/2000/svg" viewBox="0 0 24 24"><path d="M19.258 21v-3H21v.39h-1.318v.914h1.193v.388h-1.193V21zm-1.878 0h-.91v-3h.939c.275 0 .511.06.709.18.197.12.349.29.454.514.106.223.159.49.159.802 0 .312-.054.58-.16.805-.107.225-.26.398-.461.519-.202.12-.445.18-.73.18zm-.486-.396h.463c.213 0 .391-.042.533-.128a.795.795 0 0 0 .318-.377c.07-.165.106-.366.106-.603 0-.236-.035-.435-.106-.6a.782.782 0 0 0-.311-.373.966.966 0 0 0-.514-.127h-.489zM14 21v-3H15c.219 0 .4.043.543.127a.806.806 0 0 1 .323.35c.071.146.107.31.107.494 0 .185-.037.35-.109.498a.814.814 0 0 1-.323.349 1.05 1.05 0 0 1-.542.127h-.689v-.383h.65c.138 0 .25-.026.336-.077a.466.466 0 0 0 .19-.21c.04-.09.06-.19.06-.304s-.02-.214-.06-.302a.45.45 0 0 0-.19-.206.675.675 0 0 0-.341-.075h-.532V21zM11.187 6.788a10.039 10.039 0 0 1-.262-1.499c-.162-1.466-.118-3.15.488-3.219l.059-.01a.875.875 0 0 0-.336-.05l-.31-.01h-.006c-.592 0-1.079.31-1.202.769-.386 1.455.012 3.622.733 6.43l-.188.461c-.515 1.282-1.16 2.575-1.728 3.713l-.076.15A62.799 62.799 0 0 1 6.724 16.6l-.01.005.012.006c-1.75 3.094-2.957 4.205-3.462 4.405l-.055.026.003-.008a26.172 26.172 0 0 0-.126.028c-.599.124-.98.203-1.086-.104.003.242.088.491.317.63l.492.25c.213.108.441.162.67.162 1.215 0 2.623-1.516 4.547-4.92l-.001.001.668-1.326c.281-.502.568-1.035.861-1.604a30.374 30.374 0 0 0 1.506-3.365c.674 1.251 1.511 2.311 2.49 3.161.099.087.202.17.311.255h.002l.195.147c.43.327.882.62 1.353.88l.178.099h-.003c1.675.91 3.647 1.53 4.918 1.53.24 0 .446-.025.616-.073.257-.066.474-.215.609-.425.231-.36.302-.84.26-1.347-.015.21-.433.48-.689.625l-.005.004c-.123.078-.474.125-.697.125-.726 0-1.617-.34-2.877-.892h.005c-.078-.009-.432-.2-.882-.444-.295-.16-.631-.342-.958-.51l-.016.002c-.516-.305-1.049-.634-1.47-1.035-1.125-1.078-2.063-2.569-2.649-4.21v-.002a25.934 25.934 0 0 1-.564-1.888zm10.108 8.854c-.123.078-.475.125-.697.125-.727 0-1.617-.34-2.877-.892.486-.036.926-.054 1.324-.054.727 0 .938 0 1.652.186.71.18.715.557.598.635zm-12.602.113c.281-.503.568-1.035.861-1.604a30.345 30.345 0 0 0 1.506-3.365c.674 1.251 1.512 2.311 2.49 3.161.123.108.252.21.393.318-1.998.407-3.727.898-5.25 1.49zM11.025 2.65c.398 0 .627 1.022.644 1.986.018.958-.199 1.628-.474 2.131-.229-.742-.334-1.904-.334-2.664 0 0-.018-1.453.164-1.453zM3.209 21.042c.229-.628 1.12-1.874 2.437-2.981.083-.066.288-.264.475-.443-1.377 2.25-2.302 3.143-2.912 3.424zm18.467-6.723c-.398-.402-1.289-.611-2.636-.629-.914-.012-2.01.072-3.17.234-.516-.306-1.049-.635-1.47-1.036-1.125-1.078-2.063-2.569-2.649-4.21.035-.155.07-.287.1-.425 0 0 .633-3.682.463-4.927a1.353 1.353 0 0 0-.082-.353l-.053-.15c-.17-.405-.51-.836-1.043-.813l-.31-.01h-.006c-.592 0-1.078.31-1.201.77-.387 1.454.012 3.621.732 6.43l-.187.46c-.516 1.282-1.16 2.575-1.729 3.713l-.076.15A62.79 62.79 0 0 1 6.725 16.6l-.51.275c-.035.024-.908.491-1.113.617-1.735 1.06-2.888 2.263-3.079 3.221-.06.3-.015.689.294.874l.492.252c.213.107.441.161.67.161 1.236 0 2.671-1.568 4.646-5.095 2.285-.76 4.886-1.395 7.165-1.742 1.734 1 3.867 1.694 5.214 1.694.24 0 .446-.024.616-.072.257-.066.474-.215.609-.425.258-.4.316-.952.24-1.52-.017-.168-.152-.378-.293-.521z"/></svg>