<svg xmlns="http://www.w3.org/2000/svg" viewBox="0 0 24 24"><path d="M22 18.04v2.912h-.337l-1.237-2.136h-.023v2.136h-.367V18.04h.34l1.238 2.138h.022V18.04zm-4.101 2.912h-.39l.876-2.912h.424l.876 2.912h-.39l-.688-2.383h-.019zm.065-1.14h1.264v.37h-1.264zm-.694-.825h-.37q-.022-.142-.08-.25c-.058-.108-.086-.133-.142-.184a.6.6 0 0 0-.19-.114.63.63 0 0 0-.596.089.84.84 0 0 0-.261.37 1.7 1.7 0 0 0-.095.598q0 .355.095.6.096.244.262.37c.166.126.236.125.375.125a.6.6 0 0 0 .407-.15.7.7 0 0 0 .143-.18.8.8 0 0 0 .082-.247h.37a1.4 1.4 0 0 1-.115.396q-.085.18-.217.31a.95.95 0 0 1-.673.272.94.94 0 0 1-.563-.18 1.2 1.2 0 0 1-.39-.516 2.1 2.1 0 0 1-.141-.8q0-.467.143-.8a1.2 1.2 0 0 1 .39-.515.93.93 0 0 1 .561-.18.97.97 0 0 1 .664.26q.135.126.223.31.087.181.118.416m-2.847-.182a.43.43 0 0 0-.156-.313.53.53 0 0 0-.347-.112.56.56 0 0 0-.26.057.4.4 0 0 0-.17.153.4.4 0 0 0-.059.22q0 .105.04.18.042.075.109.126a.8.8 0 0 0 .145.084q.076.033.148.054l.238.074a1.6 1.6 0 0 1 .239.093q.122.058.227.153a.56.56 0 0 1 .168.236.8.8 0 0 1 .066.337.9.9 0 0 1-.107.44.76.76 0 0 1-.308.302 1 1 0 0 1-.486.111q-.273 0-.473-.104a.77.77 0 0 1-.312-.294 1 1 0 0 1-.125-.455h.368a.5.5 0 0 0 .086.263q.075.104.194.155a.7.7 0 0 0 .26.05.6.6 0 0 0 .277-.058.44.44 0 0 0 .262-.414.34.34 0 0 0-.062-.212.5.5 0 0 0-.165-.136 1.4 1.4 0 0 0-.234-.096l-.287-.094a1.07 1.07 0 0 1-.464-.28.7.7 0 0 1-.17-.489q0-.252.114-.44c.114-.188.18-.221.31-.29a.9.9 0 0 1 .439-.106q.247 0 .436.104a.78.78 0 0 1 .413.701zM11.187 6.788a10 10 0 0 1-.262-1.499c-.162-1.466-.117-3.15.489-3.219l.058-.01a.9.9 0 0 0-.336-.05l-.31-.01h-.006c-.592 0-1.078.31-1.201.769-.387 1.455.011 3.622.732 6.43l-.187.461c-.516 1.282-1.16 2.575-1.729 3.712l-.076.15A63 63 0 0 1 6.724 16.6l-.01.005.012.006c-1.749 3.094-2.957 4.205-3.462 4.405l-.055.026.003-.008-.126.028c-.598.123-.98.203-1.086-.104.004.242.088.491.317.63l.492.25c.213.108.441.162.67.162 1.215 0 2.623-1.516 4.547-4.92h-.001l.668-1.325q.422-.752.861-1.604a30 30 0 0 0 1.506-3.365c.674 1.251 1.512 2.311 2.49 3.161q.148.129.311.255h.002l.195.147q.646.49 1.353.88l.178.098-.003.001c1.675.91 3.647 1.53 4.918 1.53q.36 0 .616-.073c.257-.066.474-.215.609-.425.231-.36.302-.84.26-1.347-.015.21-.433.48-.689.625l-.005.004c-.123.077-.474.125-.697.125-.726 0-1.617-.34-2.876-.892h.004c-.078-.009-.432-.2-.882-.444-.295-.16-.631-.342-.958-.51l-.016.002c-.515-.305-1.049-.634-1.47-1.036-1.125-1.077-2.063-2.568-2.649-4.209v-.002a26 26 0 0 1-.564-1.888m10.108 8.854c-.123.077-.474.125-.697.125-.726 0-1.617-.341-2.877-.892q.729-.054 1.324-.054c.727 0 .938 0 1.653.186.709.18.714.557.597.635m-12.602.113a53 53 0 0 0 .861-1.604 30 30 0 0 0 1.506-3.365c.674 1.251 1.512 2.311 2.49 3.161.123.108.252.21.393.318-1.998.407-3.726.898-5.25 1.49M11.025 2.65c.398 0 .627 1.022.644 1.986.018.958-.199 1.628-.474 2.131-.229-.742-.334-1.904-.334-2.664 0 0-.018-1.453.164-1.453M3.209 21.042c.229-.628 1.12-1.874 2.438-2.981.082-.066.287-.264.474-.443-1.377 2.25-2.302 3.143-2.912 3.424m18.467-6.723c-.398-.402-1.289-.611-2.636-.63-.914-.011-2.01.073-3.17.234-.515-.305-1.048-.634-1.47-1.035-1.125-1.078-2.063-2.569-2.648-4.21.035-.155.07-.287.1-.425 0 0 .632-3.682.462-4.927a1.4 1.4 0 0 0-.082-.353l-.053-.15c-.17-.405-.51-.836-1.043-.813l-.31-.01h-.006c-.592 0-1.078.31-1.201.769-.387 1.455.012 3.622.732 6.43l-.187.461c-.516 1.282-1.16 2.575-1.729 3.712l-.076.15A63 63 0 0 1 6.725 16.6l-.51.275c-.035.024-.908.491-1.113.617-1.734 1.06-2.887 2.263-3.078 3.22-.061.3-.016.69.293.875l.492.251c.213.108.441.162.67.162 1.236 0 2.672-1.569 4.646-5.095 2.285-.76 4.886-1.395 7.165-1.742 1.734 1 3.867 1.694 5.215 1.694q.36 0 .615-.072a1 1 0 0 0 .609-.425c.258-.401.316-.952.24-1.52-.017-.168-.152-.378-.293-.522z"/></svg>