<svg version="1.1" viewBox="0 0 192 192" xmlns="http://www.w3.org/2000/svg"><path d="m151.88 165.3v-23.1h13.413v3.0029h-10.148v7.0376h9.1859v2.9875h-9.1859v10.071zm-14.46 0h-7.0068v-23.1h7.2301q3.1724 0 5.4592 1.386 2.2792 1.3783 3.4957 3.9577 1.2243 2.5718 1.2243 6.1753 0 3.6035-1.232 6.1984-1.232 2.6026-3.5496 3.9962-2.333 1.386-5.6209 1.386m-3.7421-3.0492h3.565q2.464 0 4.104-0.98558a6.1599 6.1599 0 0 0 2.4485-2.9028q0.8085-1.9019 0.8162-4.643 0-2.718-0.8162-4.6199a6.1599 6.1599 0 0 0-2.3946-2.872 7.4688 7.4688 0 0 0-3.9577-0.97788h-3.7652zm-22.283 3.0492v-23.1h7.6998q2.5332 0 4.181 0.97789a6.1599 6.1599 0 0 1 2.487 2.6949q0.8239 1.6786 0.8239 3.8037 0 2.1328-0.8393 3.8345a6.1599 6.1599 0 0 1-2.487 2.6872 8.0848 8.0848 0 0 1-4.1733 0.97788h-5.3052v-2.949h5.0049q1.5939 0 2.5872-0.59287a3.6189 3.6189 0 0 0 1.463-1.617q0.46199-1.0318 0.46199-2.3408c0-1.309-0.154-1.6478-0.46199-2.3254a3.4649 3.4649 0 0 0-1.463-1.5862 5.3899 5.3899 0 0 0-2.6256-0.5775h-4.0963v20.112zm-21.66-109.43a76.998 76.998 0 0 1-2.0174-11.542c-1.2474-11.288-0.90858-24.254 3.7575-24.786l0.45429-0.077a6.9299 6.9299 0 0 0-2.5871-0.38499l-2.387-0.077h-0.0462c-4.5583 0-8.3081 2.387-9.2552 5.9212-2.9721 11.203 0.0924 27.889 5.644 49.51l-1.4476 3.5496c-3.9654 9.8712-8.9318 19.827-13.305 28.589l-0.58519 1.155a485.09 485.09 0 0 1-12.589 23.692l-0.077 0.0385 0.0924 0.0462c-13.475 23.823-22.768 32.378-26.657 33.918l-0.42349 0.20018 0.0231-0.0616-0.97018 0.21561c-4.6122 0.95478-7.5458 1.5631-8.362-0.80078 0.0231 1.8634 0.67758 3.7806 2.4408 4.8509l3.7883 1.925c1.6401 0.8316 3.3956 1.2474 5.1589 1.2474 9.3553 0 20.197-11.673 35.011-37.883l-0.0077 8e-3 5.1435-10.21q3.2493-5.7903 6.6296-12.351a231 231 0 0 0 11.596-25.91c5.1897 9.6325 11.634 17.794 19.173 24.339q1.1396 0.99328 2.3946 1.9635h0.0154l1.5015 1.1319q4.9741 3.7729 10.418 6.7759l1.3706 0.76228h-0.0231c12.897 7.0068 28.081 11.781 37.868 11.781q2.7719 0 4.7431-0.56209c1.9789-0.50817 3.6497-1.6554 4.6892-3.2724 1.7786-2.7719 2.3254-6.4678 2.002-10.372-0.1155 1.617-3.334 3.6959-5.3052 4.8124l-0.0385 0.0308c-0.94708 0.60059-3.6497 0.96248-5.3668 0.96248-5.5901 0-12.451-2.6179-22.152-6.8682h0.0385c-0.6006-0.0693-3.3263-1.54-6.7912-3.4187-2.2715-1.232-4.8586-2.6333-7.3764-3.9269l-0.12321 0.0154c-3.9731-2.3484-8.0771-4.8817-11.319-7.9693-8.6623-8.3004-15.885-19.781-20.397-32.416v-0.0154a200.2 200.2 0 0 1-4.3427-14.537m77.83 68.174c-0.94708 0.60059-3.6574 0.96248-5.3668 0.96248-5.5978 0-12.451-2.6179-22.152-6.8682q5.6055-0.41581 10.195-0.41581c5.5978 0 7.2224 0 12.72 1.4322 5.4669 1.386 5.5054 4.2888 4.6045 4.8894m-97.033 0.87008q3.2493-5.7903 6.6296-12.351a231 231 0 0 0 11.596-25.91c5.1897 9.6325 11.642 17.794 19.173 24.339 0.94708 0.83158 1.9404 1.617 3.026 2.4486-15.384 3.1338-28.697 6.9145-40.424 11.473m17.956-100.91c3.0645 0 4.8278 7.8692 4.9587 15.292 0.1386 7.3764-1.5323 12.535-3.6497 16.408-1.7633-5.7133-2.5717-14.66-2.5717-20.512 0 0-0.1386-11.188 1.2628-11.188m-60.182 141.62c1.7633-4.8355 8.6238-14.429 18.765-22.953 0.63909-0.50819 2.2176-2.0328 3.6574-3.411-10.603 17.325-17.725 24.201-22.422 26.364m142.19-51.766c-3.0646-3.0953-9.9251-4.7046-20.297-4.8432-7.0376-0.0924-15.477 0.55439-24.408 1.8018-3.9731-2.3562-8.0771-4.8894-11.319-7.977-8.6623-8.3004-15.885-19.781-20.397-32.416 0.26949-1.1935 0.53899-2.2099 0.76998-3.2724 0 0 4.874-28.351 3.565-37.937a10.78 10.78 0 0 0-0.63139-2.718l-0.40809-1.155c-1.309-3.1184-3.9269-6.4371-8.0309-6.26l-2.387-0.077h-0.0462c-4.5583 0-8.3004 2.387-9.2475 5.9289-2.9798 11.196 0.0924 27.881 5.6363 49.51l-1.4399 3.5419c-3.9731 9.8712-8.9318 19.827-13.313 28.589l-0.58519 1.155a485.09 485.09 0 0 1-12.582 23.692l-3.9269 2.1175c-0.26949 0.1848-6.9915 3.7806-8.5699 4.7508-13.359 8.1618-22.237 17.425-23.708 24.801-0.46199 2.31-0.1155 5.3052 2.2638 6.7296l3.7883 1.9404c1.6401 0.8239 3.3956 1.2397 5.1589 1.2397 9.517 0 20.566-12.073 35.773-39.231 17.594-5.8519 37.621-10.741 55.169-13.413 13.352 7.6998 29.775 13.044 40.147 13.044q2.7719 0 4.7431-0.55439c1.9789-0.50817 3.6497-1.6554 4.6892-3.2724 1.9866-3.0799 2.4332-7.3302 1.848-11.704-0.1309-1.2936-1.1704-2.9105-2.256-4.0116"/></svg>
