<svg xmlns="http://www.w3.org/2000/svg" viewBox="0 0 24 24"><path d="M5.207 5.377c-.324 0-.639.003-.943.01l-.953.02c-.332.006-.729.016-1.192.03-.08 0-.119.059-.119.178v12.583c0 .12.053.179.159.179h2.363c.106 0 .159-.06.159-.179v-4.58h1.47a.396.396 0 0 1 .248.07c.087.079.164.169.228.268.298.534 1.494 2.666 2.621 4.302a.255.255 0 0 0 .1.09.415.415 0 0 0 .178.029h2.88a.081.081 0 0 0 .09-.08.217.217 0 0 0-.05-.158c-.104-.184-2.763-4.341-3.495-5.295.474-.19.911-.462 1.29-.805a3.73 3.73 0 0 0 .874-1.18c.216-.468.324-.977.318-1.49 0-.861-.202-1.586-.606-2.175a3.792 3.792 0 0 0-1.737-1.35c-.755-.311-1.688-.467-2.8-.467zM6.21 7.78c.741 0 1.337.136 1.787.407.45.272.676.712.676 1.32a1.61 1.61 0 0 1-.298.993 1.72 1.72 0 0 1-.844.586c-.42.135-.86.198-1.301.189H4.68V7.82c.16-.013.375-.023.646-.03.272-.007.566-.01.884-.01m7.294.86c-.106 0-.16.098-.16.204v5.991c0 .689.038 1.23.204 1.712.142.444.379.85.695 1.192a2.6 2.6 0 0 0 1.052.675c.433.144.886.214 1.34.209a5.375 5.375 0 0 0 1.371-.189c.515-.146.99-.408 1.39-.764a1.778 1.778 0 0 0 .1.568c.04.093.137.15.238.139h2.125c.106 0 .152-.053.139-.159-.013-.132-.03-.247-.05-.44-.02-.191.013-.416.006-.674-.006-.258-.01-.553-.01-.884V8.779a.123.123 0 0 0-.139-.14h-2.488c-.12 0-.179.047-.179.14v6.885c-.21.17-.444.308-.695.407a2.262 2.262 0 0 1-.834.149c-.556 0-.953-.156-1.191-.467a2.066 2.066 0 0 1-.405-1.28V8.798a.14.14 0 0 0-.159-.159z"/></svg>