<svg version="1.1" viewBox="0 0 192 192" xmlns="http://www.w3.org/2000/svg"><path d="m35.757 172.52c-7.614-1.6084-14.107-7.9048-16.075-15.596-0.79562-3.1226-0.81273-7.7851-0.03422-10.694 0.30798-1.1635 8.555-21.122 18.316-44.341 29.558-70.271 27.119-64.659 29.823-68.594a40.209 40.209 0 0 1 8.4695-8.3326 38.498 38.498 0 0 1 13.346-5.5779c2.3783-0.5133 10.18-0.50475 12.542 0 10.899 2.3441 19.514 8.8117 24.279 18.256 0.6844 1.3431 5.4581 12.43 10.608 24.63l12.379 29.215c2.9772 6.9723 15.827 37.428 20.284 48.036 2.7376 6.5189 3.4391 9.4362 3.1825 13.295q-0.5133 8.0588-6.4933 13.979c-2.0618 2.0532-3.0285 2.7462-5.3897 3.884-9.9837 4.825-21.499 1.8736-27.402-7.0237-1.2405-1.8821-1.3004-1.9933-19.711-45.094-10.976-25.699-14.244-33.074-14.946-33.715a4.3631 4.3631 0 0 0-6.3307 0.13688c-0.70151 0.73573-2.9857 5.8602-8.8459 19.813-6.8269 16.255-7.9048 19.026-7.9134 20.395-0.01711 1.711 0.53897 2.7376 2.0874 3.9096 0.77851 0.57319 1.4116 0.64163 8.0931 0.81273 6.4077 0.16254 7.4771 0.25665 9.2394 0.86405a21.986 21.986 0 0 1 14.064 14.09c1.0352 3.0798 1.1977 8.2727 0.35076 11.635-1.0437 4.1834-2.5152 6.7585-5.6976 9.9752-2.3441 2.3697-3.191 2.9943-5.6634 4.2091-4.8935 2.3954-3.7642 2.327-33.809 2.3099-22.26-0.0257-26.965-0.10266-28.753-0.47908"/></svg>
