<svg xmlns="http://www.w3.org/2000/svg" viewBox="0 0 24 24"><path d="M22 18.04v2.912h-.337l-1.237-2.136h-.023v2.136h-.367V18.04h.34l1.238 2.138h.022V18.04zm-4.101 2.912h-.39l.876-2.912h.424l.876 2.912h-.39l-.688-2.383h-.019zm.065-1.14h1.264v.37h-1.264zm-.694-.825h-.37c-.015-.095-.041-.178-.08-.25s-.086-.133-.142-.184a.582.582 0 0 0-.19-.114.626.626 0 0 0-.596.089.84.84 0 0 0-.261.37 1.653 1.653 0 0 0-.095.598c0 .237.031.437.095.6.064.163.152.286.262.37s.236.125.375.125a.596.596 0 0 0 .407-.15.652.652 0 0 0 .143-.18.762.762 0 0 0 .082-.247h.37a1.35 1.35 0 0 1-.115.396c-.056.12-.129.223-.217.31a.95.95 0 0 1-.673.272.935.935 0 0 1-.563-.18 1.202 1.202 0 0 1-.39-.516 2.054 2.054 0 0 1-.141-.8c0-.311.048-.578.143-.8a1.18 1.18 0 0 1 .39-.515.928.928 0 0 1 .561-.18.966.966 0 0 1 .664.26c.09.084.164.187.223.31.058.12.098.26.118.416zm-2.847-.182a.434.434 0 0 0-.156-.313.531.531 0 0 0-.347-.112.56.56 0 0 0-.26.057.416.416 0 0 0-.17.153.413.413 0 0 0-.059.22c0 .07.014.13.04.18.028.05.064.092.109.126a.766.766 0 0 0 .145.084c.051.022.1.04.148.054l.238.074a1.6 1.6 0 0 1 .239.093c.081.038.157.09.227.153s.126.142.168.236a.794.794 0 0 1 .066.337.889.889 0 0 1-.107.44.76.76 0 0 1-.308.302.992.992 0 0 1-.486.111c-.182 0-.34-.034-.473-.104a.767.767 0 0 1-.312-.294.97.97 0 0 1-.125-.455h.368a.503.503 0 0 0 .086.263c.05.07.115.121.194.155a.67.67 0 0 0 .26.05.63.63 0 0 0 .277-.058.442.442 0 0 0 .262-.414.344.344 0 0 0-.062-.212.464.464 0 0 0-.165-.136 1.433 1.433 0 0 0-.234-.096l-.287-.094a1.067 1.067 0 0 1-.464-.28.695.695 0 0 1-.17-.489c0-.168.038-.314.114-.44s.18-.221.31-.29a.91.91 0 0 1 .439-.106c.165 0 .31.035.436.104a.779.779 0 0 1 .413.701zM11.187 6.788a10.039 10.039 0 0 1-.262-1.499c-.162-1.466-.117-3.15.489-3.219l.058-.01a.875.875 0 0 0-.336-.05l-.31-.01h-.006c-.592 0-1.078.31-1.201.769-.387 1.455.011 3.622.732 6.43l-.187.461c-.516 1.282-1.16 2.575-1.729 3.712l-.076.15A62.799 62.799 0 0 1 6.724 16.6l-.01.005.012.006c-1.749 3.094-2.957 4.205-3.462 4.405l-.055.026.003-.008a26.172 26.172 0 0 0-.126.028c-.598.123-.98.203-1.086-.104.004.242.088.491.317.63l.492.25c.213.108.441.162.67.162 1.215 0 2.623-1.516 4.547-4.92h-.001l.668-1.325c.281-.503.568-1.035.861-1.604a30.374 30.374 0 0 0 1.506-3.365c.674 1.251 1.512 2.311 2.49 3.161.099.087.202.17.311.255h.002l.195.147c.43.326.882.62 1.353.88l.178.098-.003.001c1.675.91 3.647 1.53 4.918 1.53.24 0 .446-.025.616-.073.257-.066.474-.215.609-.425.231-.36.302-.84.26-1.347-.015.21-.433.48-.689.625l-.005.004c-.123.077-.474.125-.697.125-.726 0-1.617-.34-2.876-.892h.004c-.078-.009-.432-.2-.882-.444-.295-.16-.631-.342-.958-.51l-.016.002c-.515-.305-1.049-.634-1.47-1.036-1.125-1.077-2.063-2.568-2.649-4.209v-.002a25.934 25.934 0 0 1-.564-1.888zm10.108 8.854c-.123.077-.474.125-.697.125-.726 0-1.617-.341-2.877-.892.487-.036.926-.054 1.324-.054.727 0 .938 0 1.653.186.709.18.714.557.597.635zm-12.602.113a52.45 52.45 0 0 0 .861-1.604 30.345 30.345 0 0 0 1.506-3.365c.674 1.251 1.512 2.311 2.49 3.161.123.108.252.21.393.318-1.998.407-3.726.898-5.25 1.49zM11.025 2.65c.398 0 .627 1.022.644 1.986.018.958-.199 1.628-.474 2.131-.229-.742-.334-1.904-.334-2.664 0 0-.018-1.453.164-1.453zM3.209 21.042c.229-.628 1.12-1.874 2.438-2.981.082-.066.287-.264.474-.443-1.377 2.25-2.302 3.143-2.912 3.424zm18.467-6.723c-.398-.402-1.289-.611-2.636-.63-.914-.011-2.01.073-3.17.234-.515-.305-1.048-.634-1.47-1.035-1.125-1.078-2.063-2.569-2.648-4.21.035-.155.07-.287.1-.425 0 0 .632-3.682.462-4.927a1.353 1.353 0 0 0-.082-.353l-.053-.15c-.17-.405-.51-.836-1.043-.813l-.31-.01h-.006c-.592 0-1.078.31-1.201.769-.387 1.455.012 3.622.732 6.43l-.187.461c-.516 1.282-1.16 2.575-1.729 3.712l-.076.15A62.79 62.79 0 0 1 6.725 16.6l-.51.275c-.035.024-.908.491-1.113.617-1.734 1.06-2.887 2.263-3.078 3.22-.061.3-.016.69.293.875l.492.251c.213.108.441.162.67.162 1.236 0 2.672-1.569 4.646-5.095 2.285-.76 4.886-1.395 7.165-1.742 1.734 1 3.867 1.694 5.215 1.694.24 0 .445-.024.615-.072a1.01 1.01 0 0 0 .609-.425c.258-.401.316-.952.24-1.52-.017-.168-.152-.378-.293-.522z"/></svg>