<svg xmlns="http://www.w3.org/2000/svg" viewBox="0 0 24 24"><path d="M4.958 20.944c-.89-.188-1.649-.924-1.879-1.823-.093-.365-.095-.91-.004-1.25.036-.136 1-2.469 2.141-5.183C8.671 4.474 8.386 5.13 8.702 4.67a4.67 4.67 0 0 1 .99-.974 4.544 4.544 0 0 1 1.56-.652c.278-.06 1.19-.059 1.466 0 1.274.274 2.281 1.03 2.838 2.134.08.157.638 1.453 1.24 2.879a2074.65 2074.65 0 0 0 1.447 3.415c.348.815 1.85 4.375 2.371 5.615.32.762.402 1.103.372 1.554-.04.628-.294 1.172-.759 1.634-.241.24-.354.321-.63.454-1.167.564-2.513.219-3.203-.821-.145-.22-.152-.233-2.304-5.271-1.283-3.004-1.665-3.866-1.747-3.941a.512.512 0 0 0-.74.016c-.082.086-.349.685-1.034 2.316-.798 1.9-.924 2.224-.925 2.384-.002.2.063.32.244.457.091.067.165.075.946.095.749.019.874.03 1.08.101a2.567 2.567 0 0 1 1.644 1.647c.121.36.14.967.041 1.36-.122.489-.294.79-.666 1.166-.274.277-.373.35-.662.492-.572.28-.44.272-3.952.27-2.602-.003-3.152-.012-3.361-.056z"/></svg>