<svg version="1.1" viewBox="0 0 192 192" xmlns="http://www.w3.org/2000/svg"><path d="m41.656 43.016q-3.896 0-7.5439 0.08l-7.6239 0.16q-3.984 0.072-9.5359 0.24-0.95999 0-0.95199 1.424v100.66q0 1.44 1.272 1.432h18.904q1.272 0 1.272-1.432v-36.64h11.76a3.2 3.2 0 0 1 1.984 0.56q1.048 0.95199 1.824 2.144c2.384 4.272 11.952 21.328 20.968 34.416a2.08 2.08 0 0 0 0.79999 0.71999 3.2 3.2 0 0 0 1.424 0.232h23.04a0.63999 0.63999 0 0 0 0.71999-0.64 1.76 1.76 0 0 0-0.4-1.264c-0.83199-1.472-22.104-34.728-27.96-42.359 3.792-1.52 7.2879-3.696 10.32-6.4399a29.6 29.6 0 0 0 6.9919-9.4399c1.728-3.744 2.592-7.8159 2.544-11.92q0-10.328-4.8479-17.4a30.4 30.4 0 0 0-13.896-10.8q-9.0559-3.736-22.4-3.736zm8.0239 19.224q8.8959 0 14.296 3.256 5.3999 3.264 5.4079 10.56a12.8 12.8 0 0 1-2.384 7.9439 13.6 13.6 0 0 1-6.7519 4.6879c-3.36 1.08-6.8799 1.584-10.408 1.512h-12.4v-27.64q1.92-0.16 5.1679-0.24 3.248-0.08 7.0719-0.08m58.351 6.8799c-0.84799 0-1.28 0.78399-1.28 1.632v47.927c0 5.5119 0.30399 9.8399 1.632 13.696 1.136 3.552 3.032 6.7999 5.5599 9.5359a20.8 20.8 0 0 0 8.4159 5.3999c3.464 1.152 7.0879 1.712 10.72 1.672a43.199 43.199 0 0 0 10.968-1.512c4.12-1.168 7.9199-3.264 11.12-6.1119a14.4 14.4 0 0 0 0.79999 4.5439c0.31999 0.74399 1.096 1.2 1.904 1.112h17q1.272 0 1.112-1.272c-0.10399-1.056-0.23999-1.976-0.39999-3.52-0.16-1.528 0.104-3.328 0.048-5.3919q-0.08-3.096-0.08-7.0719v-59.527a0.98399 0.98399 0 0 0-1.112-1.12h-19.904q-1.44 0-1.432 1.12v55.079q-2.536 2.056-5.5599 3.256a18.4 18.4 0 0 1-6.6719 1.192q-6.6719 0-9.5279-3.736a16.56 16.56 0 0 1-3.24-10.24v-45.399a1.12 1.12 0 0 0-1.272-1.272z"/></svg>
