<svg xmlns="http://www.w3.org/2000/svg" viewBox="0 0 24 24"><path d="M5.207 5.377q-.487 0-.943.01l-.953.02q-.498.009-1.192.03-.12 0-.119.178v12.583q0 .18.159.179h2.363q.159 0 .159-.179v-4.58h1.47a.4.4 0 0 1 .248.07q.131.119.228.268c.298.534 1.494 2.666 2.621 4.302a.26.26 0 0 0 .1.09.4.4 0 0 0 .178.029h2.88a.08.08 0 0 0 .09-.08.22.22 0 0 0-.05-.158c-.104-.184-2.763-4.341-3.495-5.295.474-.19.911-.462 1.29-.805a3.7 3.7 0 0 0 .874-1.18c.216-.468.324-.977.318-1.49q0-1.291-.606-2.175a3.8 3.8 0 0 0-1.737-1.35q-1.132-.467-2.8-.467zM6.21 7.78q1.112 0 1.787.407.675.408.676 1.32a1.6 1.6 0 0 1-.298.993 1.7 1.7 0 0 1-.844.586c-.42.135-.86.198-1.301.189H4.68V7.82q.24-.02.646-.03t.884-.01m7.294.86c-.106 0-.16.098-.16.204v5.991c0 .689.038 1.23.204 1.712.142.444.379.85.695 1.192a2.6 2.6 0 0 0 1.052.675c.433.144.886.214 1.34.209a5.4 5.4 0 0 0 1.371-.189c.515-.146.99-.408 1.39-.764a1.8 1.8 0 0 0 .1.568c.04.093.137.15.238.139h2.125q.159 0 .139-.159c-.013-.132-.03-.247-.05-.44-.02-.191.013-.416.006-.674q-.01-.387-.01-.884V8.779a.123.123 0 0 0-.139-.14h-2.488q-.18 0-.179.14v6.885q-.317.257-.695.407a2.3 2.3 0 0 1-.834.149q-.834 0-1.191-.467a2.07 2.07 0 0 1-.405-1.28V8.798a.14.14 0 0 0-.159-.159z"/></svg>