<svg version="1.1" viewBox="0 0 192 192" xmlns="http://www.w3.org/2000/svg"><path d="m173 142.51v22.422h-2.5948l-9.5247-16.447h-0.17709v16.447h-2.8258v-22.422h2.6179l9.5324 16.462h0.1694v-16.462zm-31.577 22.422h-3.0029l6.745-22.422h3.2647l6.745 22.422h-3.0029l-5.2975-18.349h-0.1463zm0.50049-8.7778h9.7326v2.8489h-9.7326zm-5.3437-6.3524h-2.8489q-0.1694-1.0934-0.61599-1.925c-0.44659-0.83159-0.66219-1.0241-1.0934-1.4168a4.6199 4.6199 0 0 0-1.463-0.87779 4.8509 4.8509 0 0 0-4.5891 0.68529 6.4679 6.4679 0 0 0-2.0097 2.8489 13.09 13.09 0 0 0-0.73148 4.6045q0 2.7334 0.73148 4.6199 0.73919 1.8788 2.0174 2.8489c1.2782 0.97019 1.8172 0.96249 2.8874 0.96249a4.6199 4.6199 0 0 0 3.1338-1.155 5.3899 5.3899 0 0 0 1.1011-1.386 6.1599 6.1599 0 0 0 0.63139-1.9019h2.8489a10.78 10.78 0 0 1-0.88549 3.0491q-0.65448 1.386-1.6709 2.3869a7.3148 7.3148 0 0 1-5.182 2.0944 7.2378 7.2378 0 0 1-4.335-1.386 9.2398 9.2398 0 0 1-3.0029-3.9731 16.17 16.17 0 0 1-1.0857-6.1599q0-3.5958 1.1011-6.1599a9.2398 9.2398 0 0 1 3.0029-3.9654 7.1608 7.1608 0 0 1 4.3196-1.386 7.4688 7.4688 0 0 1 5.1127 2.002q1.0395 0.97017 1.7171 2.387 0.66988 1.3937 0.90858 3.2031m-21.921-1.4014a3.3109 3.3109 0 0 0-1.2012-2.4101 4.0809 4.0809 0 0 0-2.6718-0.86237 4.3119 4.3119 0 0 0-2.002 0.43888 3.0799 3.0799 0 0 0-1.309 1.1781 3.0799 3.0799 0 0 0-0.45429 1.694q0 0.80847 0.30799 1.386 0.3234 0.57748 0.83929 0.97018a7.6998 7.6998 0 0 0 1.1165 0.64678q0.58519 0.2541 1.1396 0.41579l1.8326 0.56979a12.32 12.32 0 0 1 1.8403 0.71609q0.93938 0.44659 1.7479 1.1781a4.3119 4.3119 0 0 1 1.2936 1.8172 6.1599 6.1599 0 0 1 0.50819 2.5948 6.9299 6.9299 0 0 1-0.82389 3.3879 5.8519 5.8519 0 0 1-2.3716 2.3253 7.6998 7.6998 0 0 1-3.7421 0.85469q-2.102 0-3.642-0.80079a5.9289 5.9289 0 0 1-2.4024-2.2638 7.6998 7.6998 0 0 1-0.96248-3.5034h2.8335a3.8499 3.8499 0 0 0 0.66219 2.0251q0.57748 0.80079 1.4938 1.1935a5.3899 5.3899 0 0 0 2.002 0.38499 4.6199 4.6199 0 0 0 2.1329-0.44659 3.3879 3.3879 0 0 0 2.0174-3.1877 2.6179 2.6179 0 0 0-0.47739-1.6324 3.8499 3.8499 0 0 0-1.2705-1.0472 10.78 10.78 0 0 0-1.8018-0.7392l-2.2098-0.72378a8.4698 8.4698 0 0 1-3.5727-2.156 5.3899 5.3899 0 0 1-1.309-3.7652q0-1.9404 0.87778-3.3879c0.87778-1.4476 1.386-1.7017 2.387-2.233a6.9299 6.9299 0 0 1 3.3802-0.81618q1.9019 0 3.3571 0.80078a6.0059 6.0059 0 0 1 3.18 5.3976zm-24.917-92.529a76.998 76.998 0 0 1-2.0174-11.542c-1.2474-11.288-0.90088-24.254 3.7652-24.786l0.44659-0.077a6.9299 6.9299 0 0 0-2.5871-0.38499l-2.387-0.077h-0.0462c-4.5583 0-8.3004 2.387-9.2475 5.9212-2.9798 11.203 0.0847 27.889 5.6363 49.51l-1.4399 3.5496c-3.9731 9.8712-8.9318 19.827-13.313 28.582l-0.58519 1.155a485.09 485.09 0 0 1-12.589 23.7l-0.077 0.0385 0.0924 0.0462c-13.467 23.823-22.768 32.378-26.657 33.918l-0.42349 0.20019 0.0231-0.0616-0.97018 0.2156c-4.6045 0.94708-7.5458 1.5631-8.362-0.80078 0.0308 1.8634 0.67759 3.7806 2.4408 4.8509l3.7883 1.925c1.6401 0.83159 3.3956 1.2474 5.1589 1.2474 9.3553 0 20.197-11.673 35.011-37.883h-0.0077l5.1435-10.202q3.2493-5.7903 6.6296-12.351a231 231 0 0 0 11.596-25.91c5.1897 9.6325 11.642 17.794 19.173 24.339q1.1396 0.99328 2.3946 1.9635h0.0154l1.5015 1.1319q4.9741 3.7729 10.418 6.7759l1.3706 0.75458-0.0231 8e-3c12.897 7.0068 28.081 11.781 37.868 11.781q2.7719 0 4.7431-0.56209c1.9789-0.50818 3.6497-1.6555 4.6892-3.2724 1.7787-2.7719 2.3254-6.4679 2.002-10.372-0.1155 1.617-3.334 3.6959-5.3052 4.8124l-0.0385 0.0308c-0.94708 0.59289-3.6497 0.96248-5.3668 0.96248-5.5901 0-12.451-2.6179-22.145-6.8682h0.0308c-0.60059-0.0693-3.3263-1.54-6.7912-3.4187-2.2715-1.232-4.8586-2.6333-7.3764-3.9269l-0.1232 0.0154c-3.9654-2.3488-8.0771-4.882-11.319-7.9773-8.6623-8.2927-15.885-19.773-20.397-32.409v-0.0154a200.2 200.2 0 0 1-4.3427-14.537m77.83 68.174c-0.94708 0.59288-3.6497 0.96248-5.3668 0.96248-5.5901 0-12.451-2.6256-22.152-6.8683q5.6132-0.4158 10.195-0.4158c5.5978 0 7.2224 0 12.728 1.4322 5.4592 1.386 5.4977 4.2888 4.5968 4.8894m-97.033 0.87008a408.09 408.09 0 0 0 6.6296-12.351 231 231 0 0 0 11.596-25.91c5.1897 9.6325 11.642 17.794 19.173 24.339 0.94708 0.83158 1.9404 1.617 3.026 2.4486-15.384 3.1338-28.69 6.9144-40.424 11.473m17.956-100.91c3.0645 0 4.8278 7.8692 4.9587 15.292 0.1386 7.3764-1.5323 12.535-3.6497 16.408-1.7633-5.7133-2.5717-14.66-2.5717-20.512 0 0-0.1386-11.188 1.2628-11.188m-60.182 141.62c1.7633-4.8355 8.6238-14.429 18.772-22.953 0.63139-0.50819 2.2099-2.0328 3.6497-3.411-10.603 17.325-17.725 24.201-22.422 26.364m142.19-51.766c-3.0645-3.0953-9.9251-4.7046-20.297-4.8509-7.0376-0.0847-15.477 0.56209-24.408 1.8018-3.9654-2.3484-8.0694-4.8817-11.319-7.9693-8.6623-8.3004-15.885-19.781-20.389-32.416 0.26949-1.1935 0.53899-2.2099 0.76998-3.2724 0 0 4.8663-28.351 3.5573-37.937a10.78 10.78 0 0 0-0.63139-2.718l-0.40809-1.155c-1.309-3.1184-3.9269-6.4371-8.0309-6.26l-2.387-0.077h-0.0462c-4.5583 0-8.3004 2.387-9.2475 5.9212-2.9798 11.203 0.0924 27.889 5.6363 49.51l-1.4399 3.5496c-3.9731 9.8712-8.9318 19.827-13.313 28.582l-0.58519 1.155a485.09 485.09 0 0 1-12.582 23.7l-3.9269 2.1175c-0.26949 0.1848-6.9915 3.7806-8.5699 4.7508-13.352 8.1618-22.229 17.425-23.7 24.793-0.46969 2.31-0.1232 5.3129 2.2561 6.7374l3.7883 1.9327c1.6401 0.83159 3.3956 1.2474 5.1589 1.2474 9.517 0 20.574-12.081 35.773-39.231 17.594-5.8519 37.621-10.741 55.169-13.413 13.352 7.6998 29.775 13.044 40.155 13.044q2.7719 0 4.7354-0.55439a7.6998 7.6998 0 0 0 4.6892-3.2724c1.9866-3.0876 2.4332-7.3302 1.848-11.704-0.1309-1.2936-1.1704-2.9105-2.256-4.0193z"/></svg>
