<svg xmlns="http://www.w3.org/2000/svg" viewBox="0 0 24 24"><path d="M12 3c-.847 0-1.073.649-1.3 1 0 0-5.63 9.956-8.493 14.998-.332.522-.27 1.272.227 1.705.563.489 1.567.367 1.943-.31l6.58-11.63c.33-.571.734-.613 1.043-.613s.713.042 1.043.614c0 0 6.582 11.63 6.58 11.629.376.677 1.38.799 1.944.31.497-.433.558-1.183.226-1.705C18.93 13.956 13.301 4 13.301 4c-.227-.351-.454-1-1.3-1zm-.248 10c-.207.005-.415.06-.607.17a1.25 1.25 0 0 0-.471 1.725l3.215 5.47a1.295 1.295 0 0 0 1.756.463c.616-.35.824-1.117.468-1.723l-3.215-5.472A1.29 1.29 0 0 0 11.752 13m-2.877 5a1.34 1.34 0 0 0-.643.186c-.6.35-.833 1.069-.521 1.615l.375.658c.312.546 1.047.704 1.646.353.6-.35.832-1.069.52-1.615l-.375-.658c-.205-.358-.591-.549-1.002-.539"/></svg>