<svg xmlns="http://www.w3.org/2000/svg" viewBox="0 0 24 24"><path d="M13.532 8.82c-.057-.111-.158-.207-.235-.304q-.25-.308-.5-.617c-.081-.102-.189-.3-.304-.362-.072-.038-.142.065-.185.107-.123.123-.25.24-.373.363-.038.038-.122.096-.122.157 0 .08.148.182.2.235.205.204.414.403.618.607l.43.43c.103.103.209.214.353.25.29.075.48-.12.666-.308.355-.354.714-.704 1.068-1.058l.666-.666c.062-.062.227-.174.239-.264.009-.064-.082-.118-.121-.157-.136-.135-.271-.272-.412-.402-.041-.04-.109-.143-.176-.12-.09.029-.178.187-.238.258q-.303.355-.604.715-.325.388-.654.773c-.1.117-.194.27-.316.363M10.77 7.629c-.47.062-.951.028-1.42.09-.155.02-.37-.03-.472.121-.09.134-.038.403-.038.559v8.305c0 .17-.058.445.118.545.09.052.213.033.313.033h1.48c.112 0 .253.02.339-.07s.062-.226.062-.341V12.64c0-.104-.018-.233.045-.324.073-.103.202-.124.317-.149.252-.054.525-.115.784-.083.327.04.496.262.54.575.066.474.018.981.018 1.46v2.81c0 .098-.01.197.06.274.122.132.386.08.547.08h1.048c.172 0 .36.02.53-.004.093-.013.174-.07.2-.163.064-.225.015-.521.015-.754v-2.958c0-.95.074-2.112-.823-2.717a2 2 0 0 0-.46-.228 3.7 3.7 0 0 0-.921-.16c-.42-.028-.87.026-1.283.106-.163.03-.397.14-.537.008-.134-.127-.08-.408-.08-.575V8.291c0-.188.084-.617-.176-.663a.7.7 0 0 0-.206.001m8.188 1.43c-.21.028-.425.021-.636.048a8.3 8.3 0 0 0-1.313.277c-.189.055-.57.113-.604.347-.024.157.068.366.106.519l.142.578c.026.104.052.207.16.255.09.04.185.01.274-.014a5.4 5.4 0 0 1 .823-.156c.355-.046.765-.081 1.117 0 .177.04.35.116.46.267a.8.8 0 0 1 .127.333c.027.135.03.285.02.421-.028.37-.54.184-.764.166-.848-.068-1.75 0-2.449.544-.434.338-.616.846-.667 1.377-.072.74.146 1.501.795 1.929.62.408 1.4.502 2.125.52.379.009.759.004 1.136-.032a8.4 8.4 0 0 0 1.567-.297c.16-.047.445-.098.554-.23.112-.138.054-.44.054-.607V12.62c0-1.036.087-2.23-.784-2.976a2 2 0 0 0-.46-.297 3 3 0 0 0-.794-.237c-.313-.05-.672-.092-.989-.05m-13.693.019c-.222.029-.452.022-.676.046a8 8 0 0 0-1.312.271c-.18.052-.585.114-.624.335-.028.163.068.37.106.529.045.19.096.378.14.568.023.105.044.214.153.265.097.046.207.004.303-.023q.213-.059.431-.095.18-.03.363-.052c.576-.07 1.552-.18 1.69.58.026.143.033.296.023.441-.008.105-.088.207-.195.224-.179.027-.397-.055-.578-.068-.85-.062-1.73.007-2.43.548-.432.336-.632.889-.656 1.422-.032.722.147 1.408.774 1.84.615.425 1.393.499 2.116.53.344.015.695.011 1.038-.021.568-.054 1.14-.133 1.685-.312.15-.05.432-.093.53-.226.105-.14.048-.44.048-.607v-2.732c0-1.02.062-2.121-.764-2.87a2 2 0 0 0-.46-.301 2.8 2.8 0 0 0-.765-.234c-.297-.05-.64-.098-.94-.058m-.108 4.259c.185-.022.582-.001.68.183.037.072.026.158.026.235v.882c0 .101.003.198-.08.272-.064.058-.16.067-.244.078-.355.045-.825.058-1.106-.205-.3-.28-.255-.906.03-1.182.194-.188.438-.233.694-.263m13.732.01c.188-.022.578-.015.7.154.067.093.045.224.045.333v.705c0 .1.022.232-.03.323-.064.114-.186.129-.303.144-.349.046-.824.058-1.097-.203-.307-.293-.271-.914.03-1.2.183-.173.414-.228.655-.256"/></svg>