<svg version="1.1" viewBox="0 0 192 192" xmlns="http://www.w3.org/2000/svg"><path d="m108.26 70.558c-0.45599-0.88798-1.264-1.656-1.88-2.4319l-3.9999-4.9359c-0.64798-0.81598-1.512-2.3999-2.4319-2.8959-0.57598-0.30399-1.136 0.51999-1.48 0.85598-0.98397 0.98397-1.9999 1.9199-2.9839 2.9039-0.30399 0.30399-0.97597 0.76798-0.97597 1.256 0 0.63998 1.184 1.456 1.6 1.8799 1.64 1.632 3.3119 3.2239 4.9439 4.8559l3.4399 3.4399c0.82398 0.82398 1.672 1.712 2.8239 1.9999 2.3199 0.59998 3.8399-0.95997 5.3279-2.4639 2.8399-2.8319 5.7118-5.6318 8.5438-8.4638l5.3279-5.3279c0.49598-0.49599 1.816-1.392 1.9119-2.1119 0.072-0.51199-0.65598-0.94397-0.96797-1.256-1.088-1.08-2.1679-2.1759-3.2959-3.2159-0.32799-0.31999-0.87197-1.144-1.408-0.95997-0.71998 0.23199-1.424 1.496-1.904 2.0639q-2.4239 2.8399-4.8319 5.7198-2.5999 3.1039-5.2318 6.1838c-0.79998 0.93597-1.552 2.1599-2.5279 2.9039m-22.095-9.5277c-3.7599 0.49599-7.6078 0.22399-11.36 0.71998-1.24 0.16-2.9599-0.23999-3.7759 0.96797-0.71998 1.072-0.30399 3.2239-0.30399 4.4719v66.438c0 1.36-0.46399 3.5599 0.94397 4.3599 0.71998 0.41599 1.704 0.26399 2.5039 0.26399h11.84c0.89598 0 2.0239 0.16 2.7119-0.55998s0.49599-1.808 0.49599-2.7279v-33.847c0-0.83197-0.144-1.8639 0.35999-2.5919 0.58398-0.82398 1.616-0.99197 2.5359-1.192 2.0159-0.43199 4.1999-0.91997 6.2718-0.66398 2.6159 0.31999 3.9679 2.0959 4.3199 4.5999 0.52799 3.7919 0.144 7.8478 0.144 11.68v22.479c0 0.78398-0.08 1.576 0.47998 2.1919 0.97598 1.056 3.0879 0.63998 4.3759 0.63998h8.3838c1.376 0 2.8799 0.16 4.2399-0.032 0.74398-0.104 1.392-0.55998 1.6-1.304 0.51199-1.8 0.12-4.1679 0.12-6.0318v-23.663c0-7.5998 0.59198-16.896-6.5838-21.735a16 16 0 0 0-3.6799-1.8239 29.599 29.599 0 0 0-7.3678-1.28c-3.3599-0.22399-6.9598 0.208-10.264 0.84798-1.304 0.23999-3.1759 1.12-4.2959 0.064-1.072-1.016-0.63998-3.2639-0.63998-4.5999v-12.376c0-1.504 0.67198-4.9359-1.408-5.3039a5.5998 5.5998 0 0 0-1.648 8e-3m65.502 11.44c-1.68 0.22399-3.3999 0.168-5.0879 0.38399a66.398 66.398 0 0 0-10.504 2.2159c-1.512 0.43999-4.5599 0.90398-4.8319 2.7759-0.192 1.256 0.54398 2.9279 0.84797 4.1519l1.136 4.6239c0.20799 0.83198 0.41599 1.656 1.28 2.0399 0.71998 0.31999 1.48 0.08 2.1919-0.112a43.199 43.199 0 0 1 6.5838-1.248c2.8399-0.36799 6.1198-0.64798 8.9358 0 1.416 0.31999 2.7999 0.92797 3.6799 2.1359a6.3998 6.3998 0 0 1 1.016 2.6639c0.216 1.08 0.24 2.2799 0.16 3.3679-0.224 2.9599-4.3199 1.472-6.1118 1.328-6.7838-0.54398-14 0-19.591 4.3519-3.4719 2.7039-4.9279 6.7678-5.3358 11.016-0.57598 5.9198 1.168 12.008 6.3598 15.432 4.9599 3.2639 11.2 4.0159 17 4.1599 3.0319 0.072 6.0718 0.032 9.0878-0.25599a67.198 67.198 0 0 0 12.536-2.3759c1.28-0.37599 3.5599-0.78398 4.4319-1.84 0.89597-1.104 0.43198-3.5199 0.43198-4.8559v-21.471c0-8.2878 0.69599-17.84-6.2718-23.807a16 16 0 0 0-3.6799-2.3759 23.999 23.999 0 0 0-6.3518-1.8959c-2.5039-0.39999-5.3758-0.73598-7.9118-0.39999m-109.54 0.152c-1.776 0.23199-3.6159 0.176-5.4078 0.36799a63.998 63.998 0 0 0-10.496 2.1679c-1.44 0.41599-4.6799 0.91198-4.9919 2.6799-0.22399 1.304 0.54398 2.9599 0.84798 4.2319 0.35999 1.52 0.76798 3.0239 1.12 4.5439 0.184 0.83998 0.35199 1.712 1.224 2.1199 0.77598 0.36799 1.656 0.032 2.4239-0.184q1.704-0.47199 3.4479-0.75998 1.44-0.23999 2.9039-0.41599c4.6079-0.55998 12.416-1.44 13.52 4.6399 0.208 1.144 0.26399 2.3679 0.184 3.5279-0.064 0.83998-0.70398 1.656-1.56 1.792-1.432 0.21599-3.1759-0.43999-4.6239-0.54398-6.7998-0.49599-13.84 0.056-19.439 4.3839-3.4559 2.6879-5.0559 7.1118-5.2479 11.376-0.25599 5.7758 1.176 11.264 6.1918 14.72 4.9199 3.3999 11.144 3.9919 16.928 4.2399 2.7519 0.12 5.5598 0.088 8.3038-0.168 4.5439-0.43198 9.1197-1.064 13.48-2.4959 1.2-0.39999 3.4559-0.74398 4.2399-1.808 0.83998-1.12 0.38399-3.5199 0.38399-4.8559v-21.855c0-8.1598 0.49599-16.968-6.1118-22.959a16 16 0 0 0-3.6799-2.4079 22.399 22.399 0 0 0-6.1198-1.8719c-2.3759-0.39999-5.1199-0.78398-7.5198-0.46399m-0.86398 34.071c1.48-0.176 4.6559-8e-3 5.4398 1.464 0.29599 0.57598 0.20799 1.264 0.20799 1.88v7.0558c0 0.80798 0.024 1.584-0.63998 2.1759-0.51199 0.46399-1.28 0.53598-1.9519 0.62398-2.8399 0.35999-6.5998 0.46399-8.8478-1.64-2.3999-2.2399-2.0399-7.2478 0.23999-9.4557 1.552-1.504 3.5039-1.864 5.5518-2.1039m109.85 0.08c1.504-0.176 4.6239-0.12 5.5998 1.232 0.53598 0.74398 0.35999 1.792 0.35999 2.6639v5.6398c0 0.79998 0.17599 1.856-0.24 2.5839-0.51198 0.91198-1.488 1.032-2.4239 1.152-2.7919 0.36799-6.5918 0.46399-8.7758-1.624-2.4559-2.3439-2.1679-7.3118 0.23999-9.5997 1.464-1.384 3.3119-1.824 5.2398-2.0479"/></svg>
