<svg xmlns="http://www.w3.org/2000/svg" viewBox="0 0 24 24"><path d="M21.141 8.985c-2.939-1.183-6.527-1.489-6.527-1.489s-.076-.916.191-2.71c-.343.725-.954 2.328-1.069 3.512 2.634.19 4.428.801 4.428.801s-2.672.992-4.16 2.176c.267.649.877 2.557 1.221 4.046-.572-.535-2.29-1.947-3.55-2.71-1.679.648-6.26 5.19-8.816 9.389 1.107-1.145 4.389-4.847 8.816-7.52.916.535 5.115 3.283 5.115 3.283s-.916-4.885-1.26-6.03c1.298-.878 3.512-2.1 5.611-2.748M5.95 16.618c.763-1.87 2.252-4.427 3.168-5.649-1.26-1.03-3.626-2.137-3.626-2.137s1.87-.802 5.61-.992c0 0 1.565-3.016 5.573-5.84-2.443.763-4.733 2.863-7.061 5.114-2.977.153-6.221 1.336-6.565 1.527 3.435 1.794 4.275 2.596 4.275 2.596s-1.145 3.282-1.374 5.381z"/></svg>