<svg xmlns="http://www.w3.org/2000/svg" viewBox="0 0 24 24"><path d="M12.165 3.16c1.307.169 2.34.593 2.998 1.23l.479.463.13-.659.13-.66 2.848-.04 2.847-.041-.092.645c-.052.354-.365 2.445-.696 4.646-.332 2.2-.843 5.598-1.135 7.55-.293 1.951-.568 3.7-.612 3.888-.079.337-.1.34-2.87.34-2.134 0-2.79-.045-2.787-.19.002-.103.063-.445.136-.758l.133-.57-.602.543c-2.078 1.878-6.016 1.86-8.125-.035-1.607-1.445-2.394-3.228-2.527-5.728-.231-4.318 1.87-8.365 5.163-9.95 1.558-.749 2.708-.918 4.582-.675zm-1.898 5.635c-1.34.486-2.141 1.666-2.147 3.163-.004 1.075.25 1.712.958 2.399 1.664 1.616 4.656.886 5.381-1.313.302-.912.13-2.232-.389-2.98-.823-1.188-2.492-1.745-3.803-1.27z"/></svg>