<svg version="1.1" viewBox="0 0 192 192" xmlns="http://www.w3.org/2000/svg"><path d="m97.377 22.312c10.895 1.4088 19.506 4.9431 24.991 10.253l3.9928 3.8595 1.0836-5.4933 1.0837-5.5016 23.74-0.33343 23.732-0.34177-0.7669 5.3766c-0.43346 2.9509-3.0426 20.381-5.8017 38.728-2.7675 18.339-7.0271 46.664-9.4611 62.935-2.434 16.271-4.7347 30.842-5.1015 32.41-0.65853 2.8092-0.83358 2.8342-23.924 2.8342-17.789 0-23.257-0.37511-23.232-1.5838a50.015 50.015 0 0 1 1.1337-6.3185l1.1087-4.7514-5.0182 4.5264c-17.322 15.655-50.148 15.505-67.728-0.29176-13.396-12.045-19.956-26.908-21.065-47.748-1.9256-35.994 15.588-69.729 43.038-82.941 12.987-6.2435 22.573-7.6523 38.195-5.6267zm-15.821 46.972c-11.17 4.0512-17.847 13.887-17.897 26.366-0.03334 8.961 2.084 14.271 7.9857 19.998 13.871 13.471 38.812 7.3855 44.855-10.945 2.5174-7.6023 1.0836-18.606-3.2426-24.841-6.8604-9.9029-20.773-14.546-31.701-10.586z"/></svg>
