<svg version="1.1" viewBox="0 0 192 192" xmlns="http://www.w3.org/2000/svg"><path d="m32.401 103.73h13.633l-6.8163-13.633zm17.513 7.7204h-21.353l-3.9442 7.7444h-8.6164l23.217-46.434 23.217 46.434h-8.6164zm113.74-4.4642q-4.5602 4.4642-10.905 4.4642a15.281 15.281 0 0 1-15.433-15.441q0-6.3203 4.4642-10.897 4.6322-4.5522 10.969-4.5362 6.3363 0 10.905 4.5362 4.5202 4.5602 4.5282 10.897a15.201 15.201 0 0 1-4.5282 10.977m5.4643-27.377a22.241 22.241 0 0 0-16.369-6.8163q-9.7125 8e-3 -16.361 6.8163c-4.5362 4.5682-6.8163 10-6.8163 16.401 0 6.4003 2.2801 11.873 6.8163 16.369 4.4962 4.5682 9.9605 6.8163 16.361 6.8163s11.873-2.2801 16.369-6.8163q6.8883-6.7043 6.8803-16.369c0-6.4003-2.2801-11.833-6.8803-16.401m-60.627-6.8163h7.6804v46.402h-7.6804zm-36.85 36.37q2.2801 2.2801 5.4003 2.2801a7.3604 7.3604 0 0 0 5.4323-2.2081 7.4404 7.4404 0 0 0 2.2801-5.5043v-30.938h7.8244v30.97c0 4.2562-1.5201 7.8884-4.5362 10.969a15.441 15.441 0 0 1-10.969 4.5042c-4.2882 0-7.9204-1.4881-10.969-4.5042z"/></svg>
