<svg xmlns="http://www.w3.org/2000/svg" viewBox="0 0 24 24"><path d="M4.05 12.967h1.704l-.852-1.704zm2.189.965H3.57l-.493.968H2l2.902-5.804L7.804 14.9H6.727zm14.217-.558c-.38.372-.835.558-1.363.558a1.908 1.908 0 0 1-1.929-1.93c0-.527.186-.981.558-1.362.385-.38.844-.567 1.371-.567.528 0 .982.19 1.363.567.376.38.566.835.566 1.362a1.9 1.9 0 0 1-.566 1.372m.683-3.422a2.78 2.78 0 0 0-2.046-.852c-.808 0-1.492.286-2.045.852-.567.571-.852 1.25-.852 2.05s.285 1.484.852 2.046c.562.571 1.245.852 2.045.852s1.484-.285 2.046-.852c.575-.558.86-1.241.86-2.046 0-.8-.285-1.479-.86-2.05M13.561 9.1h.96v5.8h-.96zm-4.606 4.546c.19.19.415.285.675.285a.92.92 0 0 0 .679-.276.93.93 0 0 0 .285-.688V9.1h.978v3.871c0 .532-.19.986-.567 1.371a1.93 1.93 0 0 1-1.371.563c-.536 0-.99-.186-1.371-.563z"/></svg>