<svg xmlns="http://www.w3.org/2000/svg" viewBox="0 0 24 24"><path d="M13.318 3.045c1.124.088 2.175.313 3.044.653.842.33 1.444.707 1.987 1.25.653.65.987 1.265 1.195 2.197.061.273.061.302.077 6.212.015 5.43.02 5.947.064 6.055.22.542.508.769 1.04.815l.275.025-.334.16a5.923 5.923 0 0 1-3.768.468c-.99-.197-1.793-.61-2.434-1.253a4.76 4.76 0 0 1-1.06-1.602l-.162-.39c-.024-.06-.034-.064-.068-.029a4.298 4.298 0 0 0-.232.478c-.333.756-.683 1.305-1.13 1.768-.504.521-1.086.807-1.97.967-.309.056-.452.063-1.206.063-.972 0-1.247-.03-1.985-.216-1.712-.432-2.944-1.45-3.43-2.835-.184-.523-.223-.782-.221-1.484.001-.541.01-.68.065-.928.315-1.454 1.185-2.396 2.798-3.028.602-.236 1.179-.387 2.377-.62.862-.169 1.773-.394 2.249-.557 1.638-.56 2.465-1.605 2.717-3.433.061-.441.069-1.63.014-2.066-.078-.621-.207-1.083-.4-1.426-.134-.242-.435-.542-.662-.66-.824-.431-2.385-.303-3.594.294-.52.258-.81.522-.81.74 0 .06.008.118.019.129.01.01.232.022.492.025.422.006.5.015.734.086a2.852 2.852 0 0 1 1.958 1.996c.08.29.11.928.057 1.254-.225 1.395-1.389 2.555-2.789 2.778a4.267 4.267 0 0 1-1.359-.067c-1.254-.329-2.132-1.192-2.452-2.41-.1-.386-.127-1.056-.055-1.439.14-.745.457-1.34 1.03-1.932 1.179-1.217 3.193-1.934 5.813-2.068a20.576 20.576 0 0 1 2.116.03zm-.623 7.168a8.205 8.205 0 0 1-1.116.921c-1.015.686-1.52 1.697-1.745 3.494-.045.362-.052.649-.052 2.109 0 2.008.04 2.54.219 2.943.125.283.26.362.621.364.244 0 .274-.006.45-.1.264-.14.66-.543.924-.937a7.32 7.32 0 0 0 1.054-2.614c.065-.334.065-.346.065-3.424 0-2.034-.01-3.092-.029-3.097-.016-.005-.192.149-.391.342z"/></svg>