<svg version="1.1" viewBox="0 0 192 192" xmlns="http://www.w3.org/2000/svg"><path d="m107.28 19.375c9.6163 0.75288 18.608 2.6779 26.043 5.5867 7.2037 2.8233 12.354 6.0487 17 10.694 5.5867 5.561 8.4442 10.823 10.224 18.796 0.52188 2.3356 0.52188 2.5837 0.65877 53.147 0.12833 46.456 0.17111 50.879 0.54755 51.803 1.8822 4.6371 4.3462 6.5792 8.8977 6.9727l2.3528 0.21389-2.8575 1.3689a50.648 50.648 0 0 1-32.237 4.004c-8.4699-1.6854-15.34-5.2188-20.824-10.72a41.066 41.066 0 0 1-9.0688-13.706l-1.386-3.3366c-0.20533-0.51332-0.29088-0.54755-0.58177-0.24811a34.222 34.222 0 0 0-1.9849 4.0895c-2.849 6.4679-5.8434 11.165-9.6677 15.126-4.312 4.4574-9.2912 6.9043-16.854 8.2731-2.6436 0.47911-3.8671 0.539-10.318 0.539-8.3159 0-10.669-0.25667-16.983-1.848-14.647-3.696-25.187-12.405-29.345-24.255-1.5742-4.4745-1.9079-6.6904-1.8908-12.696 0.0086-4.6285 0.08555-5.8177 0.5561-7.9395 2.695-12.44 10.138-20.499 23.938-25.906 5.1504-2.0191 10.087-3.311 20.336-5.3044 7.3748-1.4459 15.169-3.3708 19.241-4.7654 14.014-4.7911 21.089-13.732 23.245-29.371 0.52188-3.773 0.59032-13.945 0.11977-17.676-0.66732-5.3129-1.771-9.2656-3.4222-12.2-1.1464-2.0704-3.7216-4.6371-5.6637-5.6466-7.0497-3.6874-20.405-2.5923-30.748 2.5153-4.4488 2.2073-6.9299 4.4659-6.9299 6.331 0 0.51333 0.06844 1.0095 0.16255 1.1037 0.08555 0.08555 1.9849 0.18822 4.2093 0.21389 3.6104 0.05133 4.2777 0.12833 6.2797 0.73577a24.383 24.383 0 0 1 16.752 17.077c0.68444 2.4811 0.9411 7.9395 0.48766 10.729-1.925 11.935-11.884 21.859-23.861 23.767a36.788 36.788 0 0 1-11.627-0.57322c-10.729-2.8147-18.24-10.198-20.978-20.619-0.85555-3.3024-1.0865-9.0346-0.47055-12.311 1.1978-6.3738 3.9098-11.464 8.8121-16.529 10.087-10.412 27.318-16.546 49.733-17.693a179.66 179.66 0 0 1 18.103 0.25666m-5.33 61.326a68.444 68.444 0 0 1-9.5479 7.8796c-8.6838 5.869-13.004 14.519-14.929 29.893-0.385 3.0971-0.44488 5.5525-0.44488 18.043 0 17.179 0.34222 21.731 1.8736 25.179 1.0694 2.4212 2.2244 3.0971 5.3129 3.1142 2.0875 0 2.3442-0.0513 3.85-0.85554 2.2586-1.1978 5.6466-4.6456 7.9052-8.0165a62.455 62.455 0 0 0 9.0175-22.364c0.5561-2.8575 0.5561-2.9602 0.5561-29.294 0-17.402-0.0856-26.453-0.24811-26.496-0.13688-0.04278-1.6426 1.2748-3.3452 2.926z"/></svg>
