<svg xmlns="http://www.w3.org/2000/svg" viewBox="0 0 24 24"><path d="M3.78 2.277c-.886 0-1.757.67-1.778 1.692q-.003.11-.002.219c0 5.564 4.468 10.091 10 10.091S22 9.751 22 4.187q0-.11-.002-.217c-.021-1.022-.892-1.693-1.777-1.693-1.083 0-1.857.908-1.854 1.885v.025c0 3.567-2.86 6.441-6.367 6.441S5.633 7.754 5.633 4.187v-.025c.003-.977-.77-1.885-1.853-1.885M6.611 17.22a.545.545 0 0 1-.525.526v.036a.544.544 0 0 1 .525.523h.053a.544.544 0 0 1 .526-.523v-.036a.545.545 0 0 1-.526-.526H6.64zm-2.891.374-1.157 2.98h.382l.266-.71h1.443l.267.71h.365l-1.148-2.98zm1.806 0v2.98h.372v-2.98zm1.868 0v2.971h1.86v-.372H7.76v-.934h1.254v-.375H7.76v-.917h1.398v-.373zm-3.48.428.589 1.477h-1.13zm17.469.123v.045h.08v.233h.054v-.233h.081v-.045zm.259 0v.278h.043v-.214l.081.214h.017l.082-.214v.214h.062v-.278h-.072l-.072.189-.071-.19zm-2.986.213c-.374.015-.734.209-.734.615 0 .25.143.418.365.516.196.09.41.116.605.187.151.063.284.161.267.339-.036.32-.453.338-.685.276a.46.46 0 0 1-.206-.108 1 1 0 0 1-.151-.151l-.267.24s.045.046.062.046c.24.24.534.346.872.329.285-.01.606-.125.713-.418.098-.267.035-.616-.223-.776-.187-.115-.418-.15-.632-.204-.16-.044-.4-.125-.348-.338.036-.152.232-.214.375-.214.285 0 .41.08.543.24l.266-.214c.01 0-.196-.186-.213-.204a1 1 0 0 0-.61-.16zm1.877 0c-.373.015-.733.209-.733.615 0 .25.142.418.365.516.196.09.41.116.605.187.151.063.284.161.266.339-.035.32-.455.338-.686.276a.45.45 0 0 1-.204-.108 1 1 0 0 1-.151-.151l-.267.24s.044.046.062.046c.24.24.534.346.872.329.285-.01.606-.125.713-.418.098-.267.035-.616-.223-.776-.187-.115-.418-.15-.632-.204-.16-.044-.401-.125-.348-.338.036-.152.232-.214.375-.214.284 0 .409.08.542.24l.267-.214c.009 0-.196-.186-.214-.204a1 1 0 0 0-.609-.16zm-7.683.01c-.667 0-1.095.597-1.095 1.157v2.198h.365v-1.468c.143.276.525.4.81.4.587 0 1.102-.471 1.102-1.156 0-.703-.506-1.131-1.182-1.131m3.763 0c-.614 0-1.059.508-1.059 1.13 0 .677.463 1.157 1.112 1.166.347 0 .633-.142.855-.356l-.24-.25a.8.8 0 0 1-.596.26c-.338.009-.703-.206-.73-.615h1.708v-.178c0-.65-.284-1.157-1.05-1.157m-1.212.01c-.273.008-.525.084-.692.276v-.233h-.365v2.163h.365v-1.308c.267-.57.702-.516.747-.507v-.392zm-5.978.043.872 1.095-.828 1.059h.427l.605-.793.606.793h.427l-.783-1.06.828-1.094h-.472l-.606.819-.595-.82zm-2.963.045v2.109h.375v-2.109zm10.127.267c.463 0 .694.311.694.632h-1.325c.017-.33.284-.632.631-.632m-3.699.025c.489.01.762.29.762.74 0 .544-.32.793-.756.793-.507 0-.738-.418-.747-.64-.036-.686.374-.883.641-.892z"/></svg>