<svg version="1.1" viewBox="0 0 192 192" xmlns="http://www.w3.org/2000/svg"><path d="m30.242 18.217c-7.0879 0-14.056 5.3599-14.224 13.536q-0.02396 0.87999-0.016 1.752c0 44.511 35.744 80.727 79.999 80.727 44.255 0 79.999-36.224 79.999-80.735q0-0.87999-0.0161-1.736c-0.1679-8.1759-7.1358-13.544-14.216-13.544-8.6639 0-14.856 7.2639-14.832 15.08v0.2c0 28.536-22.88 51.527-50.935 51.527-28.056 0-50.935-22.992-50.935-51.527v-0.2c0.023999-7.8159-6.1599-15.08-14.824-15.08m22.648 119.54a4.3599 4.3599 0 0 1-4.1999 4.2079v0.28801a4.3519 4.3519 0 0 1 4.1999 4.1839h0.42399a4.3519 4.3519 0 0 1 4.208-4.1839v-0.28801a4.3599 4.3599 0 0 1-4.2079-4.2079h-0.192zm-23.128 2.9919-9.2559 23.84h3.056l2.128-5.6799h11.544l2.136 5.6799h2.92l-9.1839-23.84zm14.448 0v23.84h2.976v-23.84zm14.944 0v23.768h14.88v-2.976h-11.952v-7.4719h10.032v-3h-10.032v-7.3359h11.184v-2.984zm-27.84 3.424 4.7119 11.816h-9.0399zm139.75 0.984v0.35996h0.64v1.864h0.432v-1.864h0.64796v-0.35996zm2.072 0v2.224h0.34396v-1.712l0.64797 1.712h0.13603l0.656-1.712v1.712h0.496v-2.224h-0.576l-0.576 1.512-0.56796-1.52zm-23.888 1.704c-2.992 0.12004-5.8719 1.672-5.8719 4.9199 0 2 1.144 3.344 2.92 4.128 1.568 0.72 3.28 0.92798 4.8399 1.496 1.208 0.50396 2.272 1.288 2.136 2.712-0.288 2.56-3.624 2.704-5.4799 2.208a3.68 3.68 0 0 1-1.648-0.86398 7.9999 7.9999 0 0 1-1.208-1.208l-2.136 1.92s0.35996 0.368 0.496 0.368c1.92 1.92 4.272 2.768 6.9759 2.632 2.28-0.0796 4.8479-0.99999 5.7039-3.344 0.784-2.136 0.27996-4.928-1.784-6.2079-1.496-0.92-3.344-1.2-5.0559-1.632-1.28-0.35201-3.2-0.99999-2.784-2.704 0.288-1.216 1.856-1.712 3-1.712 2.28 0 3.28 0.64 4.344 1.92l2.128-1.712c0.0796 0-1.568-1.488-1.704-1.632a7.9999 7.9999 0 0 0-4.88-1.28zm15.016 0c-2.984 0.12004-5.8639 1.672-5.8639 4.9199 0 2 1.136 3.344 2.92 4.128 1.568 0.72 3.28 0.92798 4.8399 1.496 1.208 0.50396 2.272 1.288 2.128 2.712-0.27996 2.56-3.64 2.704-5.4879 2.208a3.6 3.6 0 0 1-1.632-0.86398 7.9999 7.9999 0 0 1-1.208-1.208l-2.136 1.92s0.352 0.368 0.496 0.368c1.92 1.92 4.272 2.768 6.9759 2.632 2.28-0.0796 4.8479-0.99999 5.7039-3.344 0.784-2.136 0.27996-4.928-1.784-6.2079-1.496-0.92-3.344-1.2-5.0559-1.632-1.28-0.35201-3.208-0.99999-2.784-2.704 0.288-1.216 1.856-1.712 3-1.712 2.272 0 3.272 0.64 4.3359 1.92l2.136-1.712c0.0723 0-1.568-1.488-1.712-1.632a7.9999 7.9999 0 0 0-4.872-1.28zm-61.463 0.0796c-5.3359 0-8.7599 4.7759-8.7599 9.2559v17.584h2.92v-11.744c1.144 2.208 4.1999 3.2 6.4799 3.2 4.696 0 8.8159-3.768 8.8159-9.2479 0-5.6239-4.048-9.0479-9.4559-9.0479m30.104 0c-4.9119 0-8.4719 4.0639-8.4719 9.0399 0 5.4159 3.7039 9.2559 8.8959 9.3279 2.776 0 5.0639-1.136 6.8399-2.848l-1.92-2a6.3999 6.3999 0 0 1-4.768 2.08c-2.704 0.0724-5.6239-1.648-5.8399-4.9199h13.664v-1.424c0-5.1999-2.272-9.2559-8.3999-9.2559m-9.6959 0.0796c-2.184 0.0643-4.1999 0.672-5.5359 2.208v-1.864h-2.92v17.304h2.92v-10.464c2.136-4.56 5.6159-4.128 5.9759-4.056v-3.1352zm-47.823 0.34396 6.9759 8.7599-6.6239 8.4719h3.416l4.8399-6.3439 4.8479 6.3439h3.416l-6.2639-8.4799 6.6239-8.7519h-3.776l-4.8479 6.5519-4.7599-6.5599zm-23.704 0.36004v16.872h3v-16.872zm81.015 2.136c3.704 0 5.5519 2.488 5.5519 5.0559h-10.6c0.13605-2.64 2.272-5.0559 5.0479-5.0559m-29.592 0.20004c3.912 0.0796 6.0959 2.32 6.0959 5.9199 0 4.3519-2.56 6.3439-6.0479 6.3439-4.0559 0-5.9039-3.344-5.9759-5.1199-0.288-5.4879 2.992-7.0639 5.1279-7.1359z"/></svg>
