<svg version="1.1" viewBox="0 0 192 192" xmlns="http://www.w3.org/2000/svg"><path d="m96 115.23a40 38.462 0 0 1-40 38.462 40 38.462 0 0 1-40-38.462 40 38.462 0 0 1 40-38.462 40 38.462 0 0 1 40 38.462z" opacity=".8"/><path d="m176 115.23a40 38.462 0 0 1-40 38.462 40 38.462 0 0 1-40-38.462 40 38.462 0 0 1 40-38.462 40 38.462 0 0 1 40 38.462z" opacity=".6"/><path d="m136 76.769a40 38.462 0 0 1-40 38.462 40 38.462 0 0 1-40-38.462 40 38.462 0 0 1 40-38.462 40 38.462 0 0 1 40 38.462z" opacity=".4"/></svg>
