<svg xmlns="http://www.w3.org/2000/svg" width="192" height="192" viewBox="0 0 192 192"><path d="M96 115.23a40 38.462 0 0 1-40 38.462 40 38.462 0 0 1-40-38.462 40 38.462 0 0 1 40-38.462 40 38.462 0 0 1 40 38.462" opacity=".8"/><path d="M176 115.23a40 38.462 0 0 1-40 38.462 40 38.462 0 0 1-40-38.462 40 38.462 0 0 1 40-38.462 40 38.462 0 0 1 40 38.462" opacity=".6"/><path d="M136 76.769a40 38.462 0 0 1-40 38.462 40 38.462 0 0 1-40-38.462 40 38.462 0 0 1 40-38.462 40 38.462 0 0 1 40 38.462" opacity=".4"/></svg>