<svg xmlns="http://www.w3.org/2000/svg" viewBox="0 0 24 24"><path d="M11.855 10.983c-.878.085-1.563.412-2.136 1.012-.39.412-.68.878-.954 1.532-.399.958-.493 1.092-1.505 2.131-.873.9-1.24 1.384-1.563 2.034-.506 1.02-.546 1.836-.143 2.687.542 1.124 1.509 1.697 2.736 1.612.524-.036.932-.117 2.1-.408 2.007-.506 2.2-.497 4.47.18.914.273 1.567.309 2.118.116.52-.175.9-.542 1.192-1.138.277-.564.335-.841.335-1.594 0-.555-.013-.698-.107-.985-.291-.927-.569-1.335-1.644-2.396-.506-.502-.931-.963-1.034-1.129-.099-.147-.296-.582-.439-.963-.555-1.473-.9-1.925-1.805-2.382-.416-.21-1.169-.354-1.621-.31zM18.3 9.42c-.954.318-1.716 1.258-2.038 2.517-.372 1.433.009 2.687.945 3.117.694.318 1.59.063 2.31-.654.534-.533.86-1.11 1.075-1.908.148-.537.14-1.352-.013-1.818-.202-.613-.497-.976-.972-1.191-.331-.153-.945-.184-1.308-.063zM4.475 9.344C3.762 9.626 3.3 10.566 3.3 11.73c0 1.594.645 2.951 1.635 3.435.3.148.331.152.828.152.493 0 .529-.004.815-.148.48-.237.78-.645.968-1.316.107-.399.107-1.541-.005-1.998-.192-.801-.461-1.29-.994-1.827-.488-.488-.958-.734-1.482-.761-.287-.014-.399 0-.592.076zM19.469 7.31c0 .25-.13.752-.292 1.115a5 5 0 0 0-.112.264c0 .009.086.027.193.04.287.045.631.22.842.44l.188.192-.036-.224c-.08-.547-.578-1.917-.734-2.011-.036-.022-.05.036-.05.184zm-15.397.147a7 7 0 0 0-.296.74c-.108.34-.296 1.074-.296 1.16 0 .022.081-.05.175-.157.202-.233.564-.43.86-.47l.21-.028-.103-.232a4.2 4.2 0 0 1-.309-1.048l-.053-.345zm10.38-3.108c-.828.3-1.424 1.174-1.777 2.616-.153.604-.175 1.634-.045 2.105.192.69.595 1.258 1.048 1.482.179.09.282.108.645.108.403 0 .443-.01.783-.175.52-.255.972-.726 1.245-1.29a6 6 0 0 0 .327-.869c.112-.407.121-.51.121-1.294 0-.73-.013-.9-.098-1.196-.202-.734-.533-1.186-1.026-1.41-.331-.153-.909-.188-1.222-.076zM8.362 4.3c-1.084.305-1.666 1.545-1.483 3.144.175 1.496.905 2.817 1.783 3.229.224.103.318.12.685.12.39 0 .448-.013.663-.133.466-.256.815-.775.994-1.47.143-.564.197-1.347.139-1.988-.143-1.487-.636-2.44-1.465-2.821-.326-.152-.927-.188-1.316-.08zm7.076-2.23c0 .045-.108.394-.238.78l-.237.702.233.023c.242.027.524.143.77.331.08.063.161.103.175.09.063-.063-.358-1.407-.569-1.823-.098-.197-.134-.22-.134-.103m-7.273.188a8.4 8.4 0 0 0-.43 1.267c-.13.502-.126.515.12.345.26-.179.596-.309.802-.309q.167.001.14-.058L8.563 2.8c-.116-.358-.228-.685-.242-.735-.026-.067-.058-.022-.156.193"/></svg>