<svg version="1.1" viewBox="0 0 192 192" xmlns="http://www.w3.org/2000/svg"><path d="m94.846 87.867c-7.0235 0.67995-12.503 3.2958-17.087 8.0954-3.1198 3.2958-5.4396 7.0235-7.6315 12.255-3.1918 7.6634-3.9437 8.7354-12.039 17.047-6.9835 7.1995-9.9193 11.071-12.503 16.271-4.0477 8.1594-4.3677 14.687-1.1439 21.494 4.3357 8.9914 12.071 13.575 21.886 12.895 4.1917-0.28798 7.4555-0.93593 16.799-3.2638 16.055-4.0477 17.599-3.9757 35.757 1.4399 7.3115 2.1838 12.535 2.4718 16.943 0.92794 4.1597-1.3999 7.1995-4.3357 9.5353-9.1034 2.2158-4.5117 2.6798-6.7275 2.6798-12.751 0-4.4397-0.10399-5.5836-0.85594-7.8794-2.3278-7.4155-4.5517-10.679-13.151-19.167-4.0477-4.0157-7.4475-7.7034-8.2714-9.0314-0.79194-1.1759-2.3678-4.6557-3.5118-7.7034-4.4397-11.783-7.1995-15.399-14.439-19.055-3.3278-1.6799-9.3513-2.8318-12.967-2.4798zm51.556-12.503c-7.6315 2.5438-13.727 10.063-16.303 20.135-2.9758 11.463 0.072 21.494 7.5595 24.934 5.5516 2.5438 12.719 0.50397 18.479-5.2316 4.2717-4.2637 6.8795-8.8794 8.5994-15.263 1.1839-4.2957 1.1199-10.815-0.10399-14.543-1.6159-4.9036-3.9757-7.8074-7.7754-9.5273-2.6478-1.2239-7.5595-1.4719-10.463-0.50396zm-110.59-0.60796c-5.7036 2.2558-9.3993 9.7753-9.3993 19.087 0 12.751 5.1596 23.606 13.079 27.478 2.3998 1.1839 2.6478 1.2159 6.6235 1.2159 3.9437 0 4.2317-0.032 6.5195-1.1839 3.8397-1.8959 6.2396-5.1596 7.7434-10.527 0.85594-3.1918 0.85594-12.327-0.04-15.983-1.5359-6.4075-3.6877-10.319-7.9514-14.615-3.9037-3.9037-7.6635-5.8716-11.855-6.0876-2.2958-0.11199-3.1918 0-4.7357 0.60796zm119.94-16.271c0 1.9999-1.0399 6.0156-2.3358 8.9194a39.997 39.997 0 0 0-0.89594 2.1118c0 0.072 0.68795 0.21598 1.5439 0.31998 2.2958 0.35998 5.0476 1.7599 6.7355 3.5197l1.5039 1.5359-0.28798-1.7919c-0.63995-4.3757-4.6237-15.335-5.8716-16.087-0.28798-0.17599-0.39997 0.28798-0.39997 1.4719zm-123.17 1.1759a55.996 55.996 0 0 0-2.3678 5.9196c-0.86394 2.7198-2.3678 8.5914-2.3678 9.2793 0 0.17599 0.64795-0.39997 1.3999-1.2559 1.6159-1.8639 4.5117-3.4398 6.8795-3.7597l1.6799-0.22398-0.82394-1.8559a33.598 33.598 0 0 1-2.4718-8.3834l-0.42397-2.7598zm83.034-24.862c-6.6235 2.3998-11.391 9.3913-14.215 20.927-1.2239 4.8317-1.3999 13.071-0.35998 16.839 1.5359 5.5196 4.7597 10.063 8.3834 11.855 1.4319 0.71995 2.2558 0.86394 5.1596 0.86394 3.2238 0 3.5438-0.07999 6.2636-1.3999 4.1597-2.0399 7.7754-5.8076 9.9593-10.319a47.997 47.997 0 0 0 2.6158-6.9515c0.89594-3.2558 0.96793-4.0797 0.96793-10.351 0-5.8396-0.10399-7.1995-0.78394-9.5673-1.6159-5.8716-4.2637-9.4873-8.2074-11.279-2.6478-1.2239-7.2715-1.5039-9.7753-0.60796zm-48.717-0.39197c-8.6714 2.4398-13.327 12.359-11.863 25.15 1.3999 11.967 7.2395 22.534 14.263 25.83 1.7919 0.82394 2.5438 0.95993 5.4796 0.95993 3.1198 0 3.5837-0.10399 5.3036-1.0639 3.7277-2.0479 6.5195-6.1996 7.9514-11.759 1.1439-4.5117 1.5759-10.775 1.1119-15.903-1.1439-11.895-5.0876-19.519-11.719-22.566-2.6078-1.2159-7.4155-1.5039-10.527-0.63996zm56.604-17.839c0 0.35997-0.86394 3.1518-1.9039 6.2396l-1.8959 5.6156 1.8639 0.18399c1.9359 0.21598 4.1917 1.1439 6.1596 2.6478 0.63995 0.50396 1.2879 0.82394 1.3999 0.71995 0.50396-0.50396-2.8638-11.255-4.5517-14.583-0.78394-1.5759-1.0719-1.7599-1.0719-0.82394m-58.18 1.5039a67.195 67.195 0 0 0-3.4398 10.135c-1.0399 4.0157-1.0079 4.1197 0.95993 2.7598 2.0799-1.4319 4.7677-2.4718 6.4155-2.4718q1.3359 8e-3 1.1199-0.46397l-1.8719-5.6236c-0.92793-2.8638-1.8239-5.4796-1.9359-5.8796-0.20798-0.53596-0.46397-0.17599-1.2479 1.5439" stroke-width="7.9994"/></svg>
