<svg xmlns="http://www.w3.org/2000/svg" data-name="Layer 1" viewBox="0 0 24 24"><path d="M4.98 3A1.98 1.98 0 0 0 3 4.98v14.04A1.98 1.98 0 0 0 4.98 21h14.04A1.98 1.98 0 0 0 21 19.02V4.98A1.98 1.98 0 0 0 19.02 3h-3.27v2.31l-3.44 3.44H9.5c-.681 0-1.25-.569-1.25-1.25V3Zm13.645 7.959c.233 0 .465.028.691.082.064.017.126.04.186.068a.24.24 0 0 1 .144.196c.015.1.02.203.012.304a3.91 3.91 0 0 1-.547 1.713 2.371 2.371 0 0 1-.412.508.29.29 0 0 1-.113.07.082.082 0 0 1-.113-.084.394.394 0 0 1 .025-.107c.124-.334.244-.664.34-1.008a3.53 3.53 0 0 0 .121-.574c.008-.07.01-.142.004-.213a.278.278 0 0 0-.2-.26 1.368 1.368 0 0 0-.34-.062 5.607 5.607 0 0 0-.976.04l-.43.055a.106.106 0 0 1-.113-.042.118.118 0 0 1 .01-.127.36.36 0 0 1 .108-.1c.262-.181.557-.31.869-.377.242-.049.487-.076.734-.082m-14.309.39a.14.14 0 0 1 .04.01.814.814 0 0 1 .097.043 15.16 15.16 0 0 0 4.318 1.645 15.454 15.454 0 0 0 3.803.35 15.658 15.658 0 0 0 3.967-.67 13.7 13.7 0 0 0 1.383-.502.333.333 0 0 1 .222-.028c.12.023.194.14.167.258a.226.226 0 0 1-.018.045.384.384 0 0 1-.123.129 8.404 8.404 0 0 1-1.375.807c-.926.43-1.904.735-2.91.908-.583.096-1.172.153-1.762.174a6.004 6.004 0 0 1-.447 0c-.205-.01-.41-.018-.614-.032a11.49 11.49 0 0 1-1.609-.226 11.239 11.239 0 0 1-4.824-2.315c-.13-.106-.253-.216-.379-.326a.25.25 0 0 1-.07-.092.121.121 0 0 1 .025-.138.14.14 0 0 1 .11-.04z"/><path d="M9 3v4.5a.5.5 0 0 0 .5.5h2.125V5.75a1.13 1.13 0 0 1 1.125-1.125H15V3zm3.75 2.375a.37.37 0 0 0-.375.375v1.875l2.25-2.25z" style="fill:#000;fill-opacity:1;fill-rule:evenodd;stroke:none;stroke-width:1.5;stroke-miterlimit:4;stroke-dasharray:none;stroke-opacity:1"/></svg>