<svg xmlns="http://www.w3.org/2000/svg" data-name="Layer 1" viewBox="0 0 24 24"><path d="M19.175 18.06a.354.354 0 0 0-.257.035 14.871 14.871 0 0 1-1.592.633 16.647 16.647 0 0 1-3.177.732 13.585 13.585 0 0 1-1.391.117 16.228 16.228 0 0 1-2.595-.117 17.939 17.939 0 0 1-1.785-.325 16.545 16.545 0 0 1-4.975-2.08.896.896 0 0 0-.11-.057.15.15 0 0 0-.172.04.161.161 0 0 0-.03.173.319.319 0 0 0 .081.117c.146.138.287.277.437.411a12.503 12.503 0 0 0 5.557 2.93 12.127 12.127 0 0 0 1.854.287c.235.017.47.026.706.039.16.008.333.006.514 0a14.527 14.527 0 0 0 2.03-.221 12.442 12.442 0 0 0 3.351-1.149 9.515 9.515 0 0 0 1.584-1.019.473.473 0 0 0 .142-.164.303.303 0 0 0 .021-.057.27.27 0 0 0-.193-.325z"/><path d="M20.673 16.95a1.403 1.403 0 0 0-.226-.082 3.693 3.693 0 0 0-.845-.1 5.17 5.17 0 0 0-.897.1 2.976 2.976 0 0 0-1.062.46.435.435 0 0 0-.13.121.146.146 0 0 0-.013.156.13.13 0 0 0 .138.052l.525-.065a6.843 6.843 0 0 1 1.192-.052 1.681 1.681 0 0 1 .416.078.338.338 0 0 1 .243.316 1.305 1.305 0 0 1-.005.26 4.302 4.302 0 0 1-.147.703c-.117.42-.264.823-.416 1.23a.472.472 0 0 0-.03.13.101.101 0 0 0 .138.105.358.358 0 0 0 .139-.087 2.891 2.891 0 0 0 .503-.62 4.78 4.78 0 0 0 .667-2.093 1.78 1.78 0 0 0-.013-.373.292.292 0 0 0-.177-.238zM11.96 8.182h.609c.168 0 .204-.036.204-.204v-2.42a.073.073 0 0 1 .05-.087 1.599 1.599 0 0 1 .795-.154.343.343 0 0 1 .317.272 1.041 1.041 0 0 1 .023.236v2.148c0 .168.036.209.204.209h.482c.073 0 .14 0 .209-.004a.109.109 0 0 0 .113-.11.643.643 0 0 0 .01-.131V5.548a.075.075 0 0 1 .054-.081 1.603 1.603 0 0 1 .78-.15.34.34 0 0 1 .31.25.768.768 0 0 1 .027.25v2.102a.83.83 0 0 0 .009.15.125.125 0 0 0 .109.104.874.874 0 0 0 .109.004h.554c.204 0 .231-.027.231-.231V5.594c0-.055 0-.105-.004-.155a.907.907 0 0 0-.93-.908 2.03 2.03 0 0 0-1.032.227c-.122.064-.24.136-.354.205-.004-.01-.009-.01-.004-.014a.198.198 0 0 1-.028-.032.851.851 0 0 0-.526-.354 1.72 1.72 0 0 0-.682 0 2.358 2.358 0 0 0-.808.34c-.032.019-.059.05-.104.05-.023-.068-.037-.127-.06-.19a.164.164 0 0 0-.158-.127H11.9a.132.132 0 0 0-.127.086.448.448 0 0 0-.014.109v3.151c0 .155.041.2.2.2m-4.676-.009a.735.735 0 0 0 .1.004h.59a.735.735 0 0 0 .1-.004.11.11 0 0 0 .11-.104 1.024 1.024 0 0 0 .004-.119V5.77c0-.05 0-.095.063-.117a2.176 2.176 0 0 1 .886-.127 1.274 1.274 0 0 0 .186.004.13.13 0 0 0 .132-.122.854.854 0 0 0 .009-.187c0-.154.004-.313-.005-.467-.009-.114-.05-.15-.168-.155a1.208 1.208 0 0 0-.826.25 3.139 3.139 0 0 0-.26.232.135.135 0 0 1-.076.054 6.572 6.572 0 0 0-.087-.35.18.18 0 0 0-.204-.154h-.436c-.209 0-.231.023-.231.232V7.95a.874.874 0 0 0 .004.11.122.122 0 0 0 .11.113m3.477-3.542q-.354-.007-.708 0c-.109.005-.15.045-.154.154v1.612c0 .518 0 1.036-.005 1.54a.874.874 0 0 0 .005.109.131.131 0 0 0 .122.118.3.3 0 0 0 .064.004h.631a.441.441 0 0 0 .077-.004.113.113 0 0 0 .11-.105c.004-.05.008-.1.008-.15V4.886a1.026 1.026 0 0 0-.004-.118c-.01-.104-.041-.136-.146-.136m-.508-.559a.856.856 0 0 0 .304 0 .507.507 0 0 0 .431-.464.515.515 0 0 0-.35-.572.567.567 0 0 0-.213-.032.529.529 0 0 0-.604.5.508.508 0 0 0 .432.568m-6.979 5.53c.163-.004.327 0 .49 0 .286 0 .286 0 .286-.281V8.028c0-.032-.014-.068.018-.096a1.525 1.525 0 0 0 .79.314 1.332 1.332 0 0 0 1.067-.332 1.68 1.68 0 0 0 .473-.758 2.807 2.807 0 0 0 .1-1.13 2.068 2.068 0 0 0-.178-.682 1.314 1.314 0 0 0-.908-.777 1.605 1.605 0 0 0-1.357.305.364.364 0 0 1-.096.068c-.009-.005-.018-.01-.018-.014-.014-.045-.023-.09-.036-.136a.18.18 0 0 0-.205-.154c-.136 0-.277.004-.413 0a.316.316 0 0 0-.272.09c0 1.59 0 3.184.004 4.768a.253.253 0 0 0 .255.11m.772-2.388v-.822c0-.273.004-.545 0-.817a.138.138 0 0 1 .09-.141 1.228 1.228 0 0 1 .781-.118.555.555 0 0 1 .432.327 1.269 1.269 0 0 1 .118.463 2.27 2.27 0 0 1-.055.858.7.7 0 0 1-.209.363.647.647 0 0 1-.417.16 1.246 1.246 0 0 1-.663-.146.129.129 0 0 1-.077-.127m14.957 1.02A2.927 2.927 0 0 0 20.58 8.1a.208.208 0 0 0 .154-.222c-.004-.11 0-.223 0-.336 0-.136-.054-.177-.186-.146-.132.032-.259.06-.39.087a2.25 2.25 0 0 1-.854.009.76.76 0 0 1-.613-.818 1.223 1.223 0 0 1 .127.019 3.023 3.023 0 0 0 1.03.013 1.663 1.663 0 0 0 .568-.181.845.845 0 0 0 .418-.509 1.083 1.083 0 0 0-.681-1.362 2.032 2.032 0 0 0-.904-.087A1.549 1.549 0 0 0 17.85 5.73a2.507 2.507 0 0 0-.01 1.417 1.42 1.42 0 0 0 1.163 1.09m-.3-2.238a1.233 1.233 0 0 1 .087-.313.677.677 0 0 1 .713-.427.74.74 0 0 1 .24.054.346.346 0 0 1 .21.286.52.52 0 0 1-.015.236.405.405 0 0 1-.345.264.918.918 0 0 1-.295.022 3.548 3.548 0 0 1-.536-.04c-.068-.01-.068-.01-.059-.082ZM4.319 15.108a.273.273 0 0 0 .29.198q.319-.007.638 0a.235.235 0 0 0 .241-.16c.01-.029.024-.058.034-.087l.972-2.528.29-.768c.063-.174.024-.227-.16-.227H5.89a.197.197 0 0 0-.193.14l-.029.087L5 14.006l-.087.285c-.01 0-.014 0-.01-.005-.198-.672-.391-1.349-.59-2.02-.057-.184-.11-.373-.164-.556-.029-.102-.082-.18-.198-.18-.27 0-.546-.004-.822 0-.096 0-.13.05-.116.146a.864.864 0 0 0 .063.188c.29.764.585 1.523.875 2.282l.368.962zm3.127-3.572c-.15 0-.189.043-.193.193v3.345a.585.585 0 0 0 .004.092.135.135 0 0 0 .15.14c.261.005.517.005.778 0a.138.138 0 0 0 .15-.145v-3.432c0-.15-.043-.193-.193-.193zm.967-1.238a.508.508 0 0 0-.33-.45A.584.584 0 0 0 7.8 9.8a.358.358 0 0 0-.102.005.573.573 0 0 0-.092 1.126.899.899 0 0 0 .16.02.57.57 0 0 0 .648-.653m12.571 2.823v.02a.07.07 0 0 1-.02-.073v-.039a.005.005 0 0 1 .005-.005h-.004v-.048h.01c0-.005-.006-.005-.006-.01a1.675 1.675 0 0 0-.053-.27 1.626 1.626 0 0 0-1.232-1.223 2.375 2.375 0 0 0-.924-.034 1.586 1.586 0 0 0-1.348 1.063 2.586 2.586 0 0 0 .005 1.827 1.54 1.54 0 0 0 1.136 1.015 2.394 2.394 0 0 0 .908.049 1.66 1.66 0 0 0 1.504-1.557h-.005v-.067c-.005-.03-.01-.054.02-.073v.01a.037.037 0 0 1 .009-.02v-.555c0-.005-.005-.005-.005-.01zm-1.16.918a.886.886 0 0 1-.135.28.626.626 0 0 1-.46.262.88.88 0 0 1-.275-.01.621.621 0 0 1-.455-.362 1.383 1.383 0 0 1-.13-.479 2.646 2.646 0 0 1 .039-.85 1.083 1.083 0 0 1 .13-.32.63.63 0 0 1 .493-.3.88.88 0 0 1 .276.01.623.623 0 0 1 .44.343 1.427 1.427 0 0 1 .14.547 2.35 2.35 0 0 1 .005.26 1.767 1.767 0 0 1-.068.62zm-10.799-.497a2.302 2.302 0 0 0 .242 1.03 1.39 1.39 0 0 0 .836.739 1.565 1.565 0 0 0 1.47-.252c.034-.019.053-.053.097-.063a.689.689 0 0 1 .053.17.171.171 0 0 0 .169.13h.116c.174 0 .343.005.512 0 .136 0 .174-.043.179-.184v-5.094c-.005-.15-.043-.184-.188-.184h-.672c-.184 0-.218.034-.218.218v1.566c0 .034.015.067-.01.101-.043-.005-.067-.034-.101-.053a1.607 1.607 0 0 0-1.561-.101 1.52 1.52 0 0 0-.754.86 2.745 2.745 0 0 0-.17 1.117m1.17-.745a1.11 1.11 0 0 1 .097-.237.624.624 0 0 1 .507-.324 1.46 1.46 0 0 1 .745.13.133.133 0 0 1 .087.141c-.01.3-.005.59-.005.885v.88a.127.127 0 0 1-.077.135 1.192 1.192 0 0 1-.76.145.662.662 0 0 1-.517-.358 1.34 1.34 0 0 1-.135-.488 2.498 2.498 0 0 1 .058-.909zm5.235.977a1.981 1.981 0 0 0 .812-.208.899.899 0 0 0 .488-.643 1.313 1.313 0 0 0-.005-.532 1.12 1.12 0 0 0-.792-.846 2.14 2.14 0 0 0-.72-.092 1.683 1.683 0 0 0-1.683 1.243 2.684 2.684 0 0 0 .02 1.619 1.485 1.485 0 0 0 1.107 1.034 2.622 2.622 0 0 0 .725.073 3.073 3.073 0 0 0 1.039-.198.215.215 0 0 0 .174-.252v-.348c-.005-.14-.063-.188-.203-.154a7.44 7.44 0 0 1-.314.077 2.445 2.445 0 0 1-.991.034.757.757 0 0 1-.638-.58 1.98 1.98 0 0 1-.053-.295.154.154 0 0 1 .067.01 3.813 3.813 0 0 0 .967.058zM14.421 13a1.199 1.199 0 0 1 .193-.527.726.726 0 0 1 .706-.275c.024 0 .043.01.068.01a.432.432 0 0 1 .357.584.426.426 0 0 1-.386.3 1.235 1.235 0 0 1-.3.024 4.692 4.692 0 0 1-.585-.048c-.043-.005-.063-.024-.053-.068"/></svg>