<svg xmlns="http://www.w3.org/2000/svg" data-name="Layer 1" viewBox="0 0 24 24"><path d="M19.175 18.06a.35.35 0 0 0-.257.035 15 15 0 0 1-1.592.633 16.7 16.7 0 0 1-3.177.732 14 14 0 0 1-1.391.117 16 16 0 0 1-2.595-.117 18 18 0 0 1-1.785-.325 16.6 16.6 0 0 1-4.975-2.08 1 1 0 0 0-.11-.057.15.15 0 0 0-.172.04.16.16 0 0 0-.03.173.3.3 0 0 0 .081.117c.146.138.287.277.437.411a12.5 12.5 0 0 0 5.557 2.93 12 12 0 0 0 1.854.287c.235.017.47.026.706.039q.241.01.514 0a14.5 14.5 0 0 0 2.03-.221 12.4 12.4 0 0 0 3.351-1.149 9.5 9.5 0 0 0 1.584-1.019.5.5 0 0 0 .142-.164.3.3 0 0 0 .021-.057.27.27 0 0 0-.193-.325"/><path d="M20.673 16.95a1.4 1.4 0 0 0-.226-.082 3.7 3.7 0 0 0-.845-.1 5 5 0 0 0-.897.1 3 3 0 0 0-1.062.46.4.4 0 0 0-.13.121.15.15 0 0 0-.013.156.13.13 0 0 0 .138.052l.525-.065a7 7 0 0 1 1.192-.052 1.7 1.7 0 0 1 .416.078.34.34 0 0 1 .243.316 1.3 1.3 0 0 1-.005.26 4.3 4.3 0 0 1-.147.703c-.117.42-.264.823-.416 1.23a.5.5 0 0 0-.03.13.1.1 0 0 0 .138.105.36.36 0 0 0 .139-.087 2.9 2.9 0 0 0 .503-.62 4.8 4.8 0 0 0 .667-2.093 1.8 1.8 0 0 0-.013-.373.29.29 0 0 0-.177-.238zM11.96 8.182h.609c.168 0 .204-.036.204-.204v-2.42a.073.073 0 0 1 .05-.087 1.6 1.6 0 0 1 .795-.154.34.34 0 0 1 .317.272 1 1 0 0 1 .023.236v2.148c0 .168.036.209.204.209h.482c.073 0 .14 0 .209-.004a.11.11 0 0 0 .113-.11.6.6 0 0 0 .01-.131V5.548a.075.075 0 0 1 .054-.081 1.6 1.6 0 0 1 .78-.15.34.34 0 0 1 .31.25.8.8 0 0 1 .027.25v2.102a1 1 0 0 0 .009.15.125.125 0 0 0 .109.104 1 1 0 0 0 .109.004h.554c.204 0 .231-.027.231-.231V5.594q.001-.081-.004-.155a.907.907 0 0 0-.93-.908 2.03 2.03 0 0 0-1.032.227c-.122.064-.24.136-.354.205-.004-.01-.009-.01-.004-.014a.2.2 0 0 1-.028-.032.85.85 0 0 0-.526-.354 1.7 1.7 0 0 0-.682 0 2.4 2.4 0 0 0-.808.34c-.032.019-.059.05-.104.05-.023-.068-.037-.127-.06-.19a.164.164 0 0 0-.158-.127H11.9a.13.13 0 0 0-.127.086.5.5 0 0 0-.014.109v3.151c0 .155.041.2.2.2m-4.676-.009a1 1 0 0 0 .1.004h.59a1 1 0 0 0 .1-.004.11.11 0 0 0 .11-.104 1 1 0 0 0 .004-.119V5.77c0-.05 0-.095.063-.117a2.2 2.2 0 0 1 .886-.127 1 1 0 0 0 .186.004.13.13 0 0 0 .132-.122 1 1 0 0 0 .009-.187c0-.154.004-.313-.005-.467-.009-.114-.05-.15-.168-.155a1.2 1.2 0 0 0-.826.25 3 3 0 0 0-.26.232.14.14 0 0 1-.076.054 7 7 0 0 0-.087-.35.18.18 0 0 0-.204-.154h-.436c-.209 0-.231.023-.231.232V7.95a1 1 0 0 0 .004.11.12.12 0 0 0 .11.113m3.477-3.542q-.354-.007-.708 0c-.109.005-.15.045-.154.154v1.612c0 .518 0 1.036-.005 1.54a1 1 0 0 0 .005.109.13.13 0 0 0 .122.118.3.3 0 0 0 .064.004h.631a.4.4 0 0 0 .077-.004.113.113 0 0 0 .11-.105q.007-.075.008-.15V4.886a1 1 0 0 0-.004-.118c-.01-.104-.041-.136-.146-.136m-.508-.559a.9.9 0 0 0 .304 0 .51.51 0 0 0 .431-.464.515.515 0 0 0-.35-.572.6.6 0 0 0-.213-.032.53.53 0 0 0-.604.5.51.51 0 0 0 .432.568m-6.979 5.53c.163-.004.327 0 .49 0 .286 0 .286 0 .286-.281V8.028c0-.032-.014-.068.018-.096a1.53 1.53 0 0 0 .79.314 1.33 1.33 0 0 0 1.067-.332 1.7 1.7 0 0 0 .473-.758 2.8 2.8 0 0 0 .1-1.13 2.1 2.1 0 0 0-.178-.682 1.31 1.31 0 0 0-.908-.777 1.6 1.6 0 0 0-1.357.305.4.4 0 0 1-.096.068c-.009-.005-.018-.01-.018-.014-.014-.045-.023-.09-.036-.136a.18.18 0 0 0-.205-.154c-.136 0-.277.004-.413 0a.32.32 0 0 0-.272.09c0 1.59 0 3.184.004 4.768a.25.25 0 0 0 .255.11m.772-2.388v-.822c0-.273.004-.545 0-.817a.14.14 0 0 1 .09-.141 1.23 1.23 0 0 1 .781-.118.56.56 0 0 1 .432.327 1.3 1.3 0 0 1 .118.463 2.3 2.3 0 0 1-.055.858.7.7 0 0 1-.209.363.65.65 0 0 1-.417.16 1.25 1.25 0 0 1-.663-.146.13.13 0 0 1-.077-.127m14.957 1.02A2.93 2.93 0 0 0 20.58 8.1a.21.21 0 0 0 .154-.222c-.004-.11 0-.223 0-.336 0-.136-.054-.177-.186-.146-.132.032-.259.06-.39.087a2.3 2.3 0 0 1-.854.009.76.76 0 0 1-.613-.818 1 1 0 0 1 .127.019 3 3 0 0 0 1.03.013 1.7 1.7 0 0 0 .568-.181.85.85 0 0 0 .418-.509 1.083 1.083 0 0 0-.681-1.362 2 2 0 0 0-.904-.087A1.55 1.55 0 0 0 17.85 5.73a2.5 2.5 0 0 0-.01 1.417 1.42 1.42 0 0 0 1.163 1.09m-.3-2.238a1.2 1.2 0 0 1 .087-.313.68.68 0 0 1 .713-.427.7.7 0 0 1 .24.054.35.35 0 0 1 .21.286.5.5 0 0 1-.015.236.4.4 0 0 1-.345.264 1 1 0 0 1-.295.022 3.6 3.6 0 0 1-.536-.04c-.068-.01-.068-.01-.059-.082M4.319 15.108a.27.27 0 0 0 .29.198q.319-.007.638 0a.235.235 0 0 0 .241-.16q.017-.044.034-.087l.972-2.528.29-.768c.063-.174.024-.227-.16-.227H5.89a.2.2 0 0 0-.193.14l-.029.087L5 14.006l-.087.285q-.016.001-.01-.005c-.198-.672-.391-1.349-.59-2.02-.057-.184-.11-.373-.164-.556-.029-.102-.082-.18-.198-.18-.27 0-.546-.004-.822 0-.096 0-.13.05-.116.146a1 1 0 0 0 .063.188c.29.764.585 1.523.875 2.282zm3.127-3.572c-.15 0-.189.043-.193.193v3.345a1 1 0 0 0 .004.092.135.135 0 0 0 .15.14c.261.005.517.005.778 0a.138.138 0 0 0 .15-.145v-3.432c0-.15-.043-.193-.193-.193zm.967-1.238a.51.51 0 0 0-.33-.45A.6.6 0 0 0 7.8 9.8a.4.4 0 0 0-.102.005.573.573 0 0 0-.092 1.126 1 1 0 0 0 .16.02.57.57 0 0 0 .648-.653m12.571 2.823v.02a.07.07 0 0 1-.02-.073v-.039a.01.01 0 0 1 .005-.005h-.004v-.048h.01c0-.005-.006-.005-.006-.01a2 2 0 0 0-.053-.27 1.63 1.63 0 0 0-1.232-1.223 2.4 2.4 0 0 0-.924-.034 1.59 1.59 0 0 0-1.348 1.063 2.6 2.6 0 0 0 .005 1.827 1.54 1.54 0 0 0 1.136 1.015 2.4 2.4 0 0 0 .908.049 1.66 1.66 0 0 0 1.504-1.557h-.005v-.067c-.005-.03-.01-.054.02-.073v.01a.04.04 0 0 1 .009-.02v-.555c0-.005-.005-.005-.005-.01m-1.16.918a.9.9 0 0 1-.135.28.63.63 0 0 1-.46.262.9.9 0 0 1-.275-.01.62.62 0 0 1-.455-.362 1.4 1.4 0 0 1-.13-.479 2.7 2.7 0 0 1 .039-.85 1.1 1.1 0 0 1 .13-.32.63.63 0 0 1 .493-.3.9.9 0 0 1 .276.01.62.62 0 0 1 .44.343 1.4 1.4 0 0 1 .14.547 2 2 0 0 1 .005.26 1.8 1.8 0 0 1-.068.62zm-10.799-.497a2.3 2.3 0 0 0 .242 1.03 1.4 1.4 0 0 0 .836.739 1.57 1.57 0 0 0 1.47-.252c.034-.019.053-.053.097-.063a.7.7 0 0 1 .053.17.17.17 0 0 0 .169.13h.116c.174 0 .343.005.512 0 .136 0 .174-.043.179-.184v-5.094c-.005-.15-.043-.184-.188-.184h-.672c-.184 0-.218.034-.218.218v1.566c0 .034.015.067-.01.101-.043-.005-.067-.034-.101-.053a1.61 1.61 0 0 0-1.561-.101 1.52 1.52 0 0 0-.754.86 2.75 2.75 0 0 0-.17 1.117m1.17-.745a1 1 0 0 1 .097-.237.62.62 0 0 1 .507-.324 1.46 1.46 0 0 1 .745.13.13.13 0 0 1 .087.141c-.01.3-.005.59-.005.885v.88a.13.13 0 0 1-.077.135 1.2 1.2 0 0 1-.76.145.66.66 0 0 1-.517-.358 1.3 1.3 0 0 1-.135-.488 2.5 2.5 0 0 1 .058-.909m5.235.977a2 2 0 0 0 .812-.208.9.9 0 0 0 .488-.643 1.3 1.3 0 0 0-.005-.532 1.12 1.12 0 0 0-.792-.846 2.1 2.1 0 0 0-.72-.092 1.68 1.68 0 0 0-1.683 1.243 2.7 2.7 0 0 0 .02 1.619 1.49 1.49 0 0 0 1.107 1.034 2.6 2.6 0 0 0 .725.073 3.1 3.1 0 0 0 1.039-.198.215.215 0 0 0 .174-.252v-.348c-.005-.14-.063-.188-.203-.154a7 7 0 0 1-.314.077 2.4 2.4 0 0 1-.991.034.76.76 0 0 1-.638-.58 2 2 0 0 1-.053-.295.2.2 0 0 1 .067.01 3.8 3.8 0 0 0 .967.058M14.421 13a1.2 1.2 0 0 1 .193-.527.73.73 0 0 1 .706-.275c.024 0 .043.01.068.01a.432.432 0 0 1 .357.584.43.43 0 0 1-.386.3 1.2 1.2 0 0 1-.3.024 5 5 0 0 1-.585-.048c-.043-.005-.063-.024-.053-.068"/></svg>