<svg xmlns="http://www.w3.org/2000/svg" width="24" height="24" fill="none" viewBox="0 0 24 24"><path fill="#000" d="M11.306 14.958a3.107 3.107 0 0 0 3.107-3.108 3.107 3.107 0 0 0 3.107 3.108 3.107 3.107 0 0 0-3.107 3.107 3.107 3.107 0 0 0-3.107-3.108"/><path fill="#000" d="M3.95 20C2.976 20 2 19.025 2 18.05V6.997c0-.975.975-1.95 1.95-1.95h15.777c.975 0 1.95.975 1.95 1.95V18.05c0 .976-.975 1.951-1.95 1.951h-9.47l1.726-1.725c.683.486 1.568.802 2.436.802 1.093 0 2.212-.5 2.922-1.21.71-.711 1.21-1.83 1.21-2.922s-.5-2.211-1.21-2.922c-.71-.71-1.83-1.21-2.922-1.21-.571 0-1.15.137-1.674.37a3.37 3.37 0 0 1-1.781-2.972 3.367 3.367 0 0 1-3.367 3.367 3.37 3.37 0 0 1 3 1.835 4.1 4.1 0 0 0-.31 1.532c0 .836.293 1.687.749 2.359L8.34 20zm4.154-3.75c0-.721.584-1.305 1.305-1.305-.72 0-1.305-.584-1.305-1.305 0 .72-.584 1.305-1.304 1.305.72 0 1.304.584 1.304 1.304"/><path fill="#000" d="M3.95 20C2.976 20 2 19.025 2 18.05V6.997c0-.975.975-1.95 1.95-1.95h15.777c.975 0 1.95.975 1.95 1.95V18.05c0 .976-.975 1.951-1.95 1.951h-9.47l1.726-1.725c.683.486 1.568.802 2.436.802 1.093 0 2.212-.5 2.922-1.21.71-.711 1.21-1.83 1.21-2.922s-.5-2.211-1.21-2.922c-.71-.71-1.83-1.21-2.922-1.21-.571 0-1.15.137-1.674.37a3.37 3.37 0 0 1-1.781-2.972 3.367 3.367 0 0 1-3.367 3.367 3.37 3.37 0 0 1 3 1.835 4.1 4.1 0 0 0-.31 1.532c0 .836.293 1.687.749 2.359L8.34 20zm4.154-3.75c0-.721.584-1.305 1.305-1.305-.72 0-1.305-.584-1.305-1.305 0 .72-.584 1.305-1.304 1.305.72 0 1.304.584 1.304 1.304M2 4.559C2 3.779 2.78 3 3.56 3H8.3l.98.93H3.404c-.516 0-1.032.273-1.404.675z"/></svg>