<svg xmlns="http://www.w3.org/2000/svg" viewBox="0 0 24 24"><path d="M15.307 11.223a.51.51 0 0 0 .203-.437.41.41 0 0 0-.124-.31q-.123-.117-.45-.237l-.678-.254q-.885-.326-.885-1.113 0-.516.402-.834.404-.318 1.057-.318.518 0 1.013.183a.3.3 0 0 1 .135.083q.04.053.04.155v.215q0 .143-.104.143a.7.7 0 0 1-.183-.04 3 3 0 0 0-.86-.127q-.766 0-.767.517 0 .206.128.325.127.12.502.263l.622.238q.471.183.678.433.207.251.207.646 0 .565-.422.9-.423.332-1.125.332-.669 0-1.203-.222a.3.3 0 0 1-.132-.088q-.036-.046-.036-.15v-.223q0-.144.096-.143a.8.8 0 0 1 .2.047q.525.168 1.091.167.391 0 .595-.15zm-3.53-3.225q0-.16.16-.16h.47q.16 0 .16.16v3.71q0 .16-.16.16h-.343a.2.2 0 0 1-.124-.033q-.044-.03-.06-.12l-.055-.277q-.742.548-1.523.548-.566 0-.87-.318-.301-.316-.302-.898V7.998q0-.16.16-.16h.47q.16 0 .16.16v2.52q0 .427.166.63.168.203.535.203.574 0 1.156-.382zm-4.276 3.87q-.16 0-.16-.16V9.135q0-.396-.152-.59-.15-.189-.478-.19-.583 0-1.172.358a1 1 0 0 1 .008.12v2.874q0 .16-.16.16h-.47q-.16 0-.16-.16V9.135q0-.396-.15-.59-.152-.189-.48-.19-.604 0-1.163.35v3.003q0 .16-.16.16h-.47q-.16 0-.16-.16v-3.71q0-.16.16-.16h.35q.08 0 .124.033.045.03.06.12l.048.254q.765-.525 1.49-.525.742.002 1.006.564.789-.563 1.578-.564.551 0 .846.31t.294.882v2.796q0 .16-.159.16zm12.26 2.985c.37-.156.68.243.317.51-2.19 1.61-5.364 2.467-8.098 2.467-3.83 0-7.28-1.41-9.892-3.76-.162-.147-.08-.336.084-.336q.064 0 .14.042c2.818 1.633 6.3 2.617 9.898 2.617a19.75 19.749 0 0 0 7.55-1.54zm-.083-6.12q-.295.337-.295 1.077v.103q0 .723.3 1.06.299.338.944.338.334 0 .717-.11a.6.6 0 0 1 .12-.025q.104 0 .103.158v.215q0 .105-.03.151a.3.3 0 0 1-.129.087q-.39.167-.909.167-.94 0-1.439-.536-.499-.535-.498-1.552 0-1.01.514-1.562.515-.552 1.455-.552.431 0 .845.15a.26.26 0 0 1 .124.08q.036.048.036.16v.214q0 .16-.104.16a.6.6 0 0 1-.128-.025 2.4 2.4 0 0 0-.66-.095q-.671 0-.966.337m1.008 8.21c-.18.15-.353.07-.273-.128.265-.658.857-2.13.576-2.488-.28-.358-1.85-.17-2.557-.085-.214.025-.247-.16-.054-.296.647-.453 1.508-.605 2.223-.605.668 0 1.207.133 1.322.275.241.296-.063 2.348-1.237 3.327M17.568 7.84q.16 0 .16.16v3.71q0 .159-.16.16h-.47q-.16-.001-.16-.16V8q0-.16.16-.16zm.132-1.538a.47.47 0 0 1 .131.346.47.47 0 0 1-.13.345.5.5 0 0 1-.364.13.5.5 0 0 1-.363-.13.47.47 0 0 1-.13-.345q0-.216.13-.346a.5.5 0 0 1 .363-.13q.231 0 .363.13"/></svg>