<svg xmlns="http://www.w3.org/2000/svg" viewBox="0 0 24 24"><path fill-rule="evenodd" d="M21.005 16.216q-.666 0-1.01-.36t-.344-1.047q0-.681.336-1.063.336-.38.94-.38.517 0 .795.283t.278.8a3 3 0 0 1-.027.376.15.15 0 0 1-.039.093.12.12 0 0 1-.077.023h-1.63q.017.402.225.591.21.19.643.188a2.4 2.4 0 0 0 .666-.098l.064-.016.037-.005q.08 0 .079.106v.19a.2.2 0 0 1-.024.113.23.23 0 0 1-.108.066 2.1 2.1 0 0 1-.804.14m.444-1.692v-.043a.75.75 0 0 0-.14-.492.5.5 0 0 0-.41-.17.6.6 0 0 0-.464.19.82.82 0 0 0-.206.514zm-3.44 1.613a.1.1 0 0 1-.117-.116v-2.463a.1.1 0 0 1 .116-.116h.28a.2.2 0 0 1 .099.02.12.12 0 0 1 .039.08l.064.302a1.5 1.5 0 0 1 .394-.328.86.86 0 0 1 .402-.099h.022a.4.4 0 0 1 .113.013.1.1 0 0 1 .064.045.25.25 0 0 1 .019.117v.285q0 .112-.099.112-.031 0-.088-.005c-.036 0-.076-.005-.119-.005a1.2 1.2 0 0 0-.69.197v1.834a.1.1 0 0 1-.116.116zm-1.862.079q-.613 0-.957-.378-.344-.379-.344-1.045 0-.671.344-1.048.344-.376.957-.375.614 0 .957.375.343.376.344 1.048 0 .671-.344 1.049t-.957.374m0-.493q.666 0 .666-.935 0-.936-.666-.93-.666 0-.666.93t.666.936zm-2.058.449q-.417 0-.618-.197t-.197-.597v-1.456h-.343a.1.1 0 0 1-.116-.117v-.152a.14.14 0 0 1 .026-.099.15.15 0 0 1 .085-.04l.365-.052.078-.64a.13.13 0 0 1 .038-.09.15.15 0 0 1 .098-.027h.275a.1.1 0 0 1 .116.116v.624h.65a.1.1 0 0 1 .117.116v.246a.1.1 0 0 1-.116.117h-.65v1.427a.33.33 0 0 0 .087.256.44.44 0 0 0 .296.077 1 1 0 0 0 .197-.016.6.6 0 0 1 .122-.015q.09 0 .09.098v.19a.2.2 0 0 1-.03.12.2.2 0 0 1-.109.055 1.8 1.8 0 0 1-.46.056zm-2.559.044a2.1 2.1 0 0 1-.772-.138.23.23 0 0 1-.109-.066.2.2 0 0 1-.023-.113v-.19q0-.106.074-.106a.7.7 0 0 1 .148.032 2.5 2.5 0 0 0 .676.105.7.7 0 0 0 .386-.082.28.28 0 0 0 .123-.25.25.25 0 0 0-.074-.188.8.8 0 0 0-.275-.146l-.439-.17q-.59-.226-.59-.739a.7.7 0 0 1 .274-.584 1.17 1.17 0 0 1 .735-.214 2.1 2.1 0 0 1 .661.111.2.2 0 0 1 .106.061.2.2 0 0 1 .026.12v.185a.14.14 0 0 1-.019.082.08.08 0 0 1-.066.023 1 1 0 0 1-.132-.026 2.5 2.5 0 0 0-.538-.08.7.7 0 0 0-.357.072.25.25 0 0 0-.113.224.24.24 0 0 0 .081.189 1.1 1.1 0 0 0 .296.155l.407.159a1.1 1.1 0 0 1 .457.295.65.65 0 0 1 .14.429.76.76 0 0 1-.286.626q-.288.224-.797.224m-3.607 1.01a.1.1 0 0 1-.117-.117v-3.546a.1.1 0 0 1 .117-.116h.295a.123.123 0 0 1 .138.105l.032.164a1.3 1.3 0 0 1 .41-.26 1.3 1.3 0 0 1 .467-.089.97.97 0 0 1 .801.375q.296.377.296 1.01a1.9 1.9 0 0 1-.146.766 1.15 1.15 0 0 1-.405.503 1.03 1.03 0 0 1-.591.174 1.2 1.2 0 0 1-.428-.077 1.1 1.1 0 0 1-.36-.213v1.205a.1.1 0 0 1-.116.117zm1.136-1.523a.57.57 0 0 0 .503-.23q.164-.23.163-.701 0-.471-.161-.69a.57.57 0 0 0-.5-.224 1.1 1.1 0 0 0-.634.197v1.438a1.1 1.1 0 0 0 .63.21zM4.92 17.226a.1.1 0 0 1-.116-.117v-3.546a.1.1 0 0 1 .116-.116h.296a.123.123 0 0 1 .138.105l.031.164a1.3 1.3 0 0 1 .41-.26 1.3 1.3 0 0 1 .468-.089.97.97 0 0 1 .8.375q.296.377.296 1.01a1.9 1.9 0 0 1-.146.766 1.15 1.15 0 0 1-.404.503 1.03 1.03 0 0 1-.592.174 1.2 1.2 0 0 1-.428-.077 1.1 1.1 0 0 1-.36-.213v1.205a.1.1 0 0 1-.116.117zm1.137-1.523a.57.57 0 0 0 .502-.23q.165-.23.164-.701t-.162-.69a.57.57 0 0 0-.5-.224 1.1 1.1 0 0 0-.634.197v1.438a1.1 1.1 0 0 0 .63.21m-3.227.513a.83.83 0 0 1-.6-.222.83.83 0 0 1 .053-1.2 1.16 1.16 0 0 1 .758-.232 2.7 2.7 0 0 1 .613.079v-.313q0-.268-.116-.375t-.407-.105a2.4 2.4 0 0 0-.386.034 2.6 2.6 0 0 0-.402.099.3.3 0 0 1-.09.015q-.068 0-.069-.098v-.197a.2.2 0 0 1 .021-.105.26.26 0 0 1 .111-.07 2.5 2.5 0 0 1 .915-.158q.518 0 .763.212t.246.66v1.783a.1.1 0 0 1-.116.116h-.28a.117.117 0 0 1-.133-.105l-.026-.153a1.5 1.5 0 0 1-.41.248 1.2 1.2 0 0 1-.445.087m.174-.444a.9.9 0 0 0 .322-.066 1.3 1.3 0 0 0 .328-.187v-.508a2.5 2.5 0 0 0-.492-.058q-.55 0-.55.429a.38.38 0 0 0 .103.287.4.4 0 0 0 .29.103zM5.31 8.389c0 .197 0 .361-.098.536a.41.41 0 0 1-.351.231c-.197 0-.308-.148-.308-.367 0-.432.387-.51.752-.51zm.51 1.234a.1.1 0 0 1-.119.012 1.2 1.2 0 0 1-.29-.338c-.278.283-.475.368-.835.368-.426 0-.757-.263-.757-.788a.86.86 0 0 1 .54-.827c.274-.12.658-.143.951-.176v-.066c0-.12.01-.263-.06-.367a.34.34 0 0 0-.285-.132.385.385 0 0 0-.406.304.11.11 0 0 1-.088.094l-.493-.053a.09.09 0 0 1-.075-.107c.112-.59.65-.775 1.131-.775.247 0 .569.066.763.252.246.23.223.537.223.872v.788c0 .237.098.342.19.469a.1.1 0 0 1 0 .135c-.103.087-.287.246-.387.336zm6.129-1.234c0 .197 0 .361-.099.536a.41.41 0 0 1-.35.231c-.197 0-.309-.148-.309-.367 0-.432.387-.51.754-.51zm.514 1.234a.1.1 0 0 1-.12.012 1.2 1.2 0 0 1-.29-.338c-.278.283-.475.368-.834.368-.427 0-.758-.263-.758-.788a.86.86 0 0 1 .54-.827c.275-.12.658-.143.953-.176v-.066c0-.12.01-.263-.062-.367a.34.34 0 0 0-.284-.132.385.385 0 0 0-.407.304.11.11 0 0 1-.088.094l-.492-.053a.09.09 0 0 1-.076-.107c.113-.59.65-.775 1.132-.775.246 0 .568.066.762.252.247.23.223.537.223.872v.788c0 .237.099.342.191.469a.1.1 0 0 1 0 .135c-.098.087-.287.246-.388.336zm6.232.007h-.505a.1.1 0 0 1-.09-.094v-2.6a.1.1 0 0 1 .098-.084h.471a.1.1 0 0 1 .09.073v.394h.01c.142-.356.34-.525.69-.525a.66.66 0 0 1 .59.306c.132.208.132.558.132.81v1.635a.1.1 0 0 1-.098.082h-.507a.1.1 0 0 1-.091-.082V8.137c0-.284.033-.7-.316-.7a.33.33 0 0 0-.296.208 1.2 1.2 0 0 0-.08.492v1.4a.1.1 0 0 1-.098.093m-2.133-2.832c.752 0 1.158.645 1.158 1.465 0 .788-.45 1.422-1.158 1.422-.737 0-1.139-.645-1.139-1.45 0-.803.406-1.438 1.139-1.438zm0 .53c-.373 0-.394.509-.394.826s0 .995.394.995.41-.547.41-.88a2.4 2.4 0 0 0-.075-.69.32.32 0 0 0-.33-.251zM7.205 9.63h-.507a.1.1 0 0 1-.09-.086V6.945a.1.1 0 0 1 .098-.093h.472a.1.1 0 0 1 .092.087v.34h.01c.123-.329.354-.482.665-.482s.516.152.657.481a.748.748 0 0 1 1.286-.197c.16.219.128.536.128.815v1.64a.1.1 0 0 1-.098.094h-.509a.1.1 0 0 1-.09-.094V8.157a3 3 0 0 0-.014-.487.264.264 0 0 0-.296-.224.34.34 0 0 0-.302.213 1.6 1.6 0 0 0-.047.497v1.38a.1.1 0 0 1-.099.093h-.505a.1.1 0 0 1-.09-.094V8.156c0-.29.046-.716-.313-.716-.36 0-.35.416-.35.716v1.38a.1.1 0 0 1-.098.094m6.07-2.32v-.37a.092.092 0 0 1 .098-.1h1.665a.093.093 0 0 1 .099.1v.318a.5.5 0 0 1-.126.233l-.873 1.23a1.85 1.85 0 0 1 .95.204.17.17 0 0 1 .088.145v.394c0 .054-.06.118-.123.085a1.92 1.92 0 0 0-1.759 0c-.058.03-.118-.032-.118-.086v-.376a.45.45 0 0 1 .062-.255l.998-1.428h-.87a.093.093 0 0 1-.091-.093zm1.088 2.866c-.12-.156-.804-.074-1.11-.038-.093.01-.107-.07-.024-.129.544-.382 1.436-.272 1.54-.144s-.027 1.023-.537 1.45c-.079.065-.152.03-.118-.057.114-.285.371-.926.25-1.082zm-.395.452c-.95.701-2.329 1.074-3.515 1.074a6.36 6.36 0 0 1-4.295-1.638c-.088-.08-.01-.19.099-.128a8.64 8.64 0 0 0 4.296 1.14 8.6 8.6 0 0 0 3.276-.673c.162-.066.296.108.14.225z"/></svg>