<svg xmlns="http://www.w3.org/2000/svg" viewBox="0 0 24 24"><path fill-rule="evenodd" d="M13.769 10.448c0 1.03.026 1.89-.495 2.806-.42.744-1.087 1.202-1.83 1.202-1.017 0-1.609-.774-1.609-1.917 0-2.255 2.021-2.664 3.934-2.664zm2.668 6.45a.55.55 0 0 1-.625.062c-.878-.729-1.035-1.068-1.518-1.763-1.452 1.48-2.479 1.924-4.362 1.924-2.225 0-3.96-1.374-3.96-4.124 0-2.147 1.166-3.61 2.821-4.324 1.437-.633 3.443-.744 4.976-.92v-.342c0-.629.048-1.373-.32-1.916-.324-.488-.942-.689-1.485-.689-1.008 0-1.909.518-2.129 1.59-.044.238-.22.472-.457.483L6.81 6.604c-.216-.049-.454-.223-.394-.555C7.007 2.94 9.816 2 12.332 2c1.288 0 2.97.343 3.986 1.318 1.288 1.202 1.165 2.806 1.165 4.551v4.123c0 1.24.513 1.783.997 2.453.171.238.209.525-.007.703-.54.45-1.5 1.288-2.028 1.757zm2.883 1.567c-8.255 3.929-13.378.642-16.657-1.354-.203-.126-.548.029-.249.373C3.507 18.807 7.087 22 11.761 22c4.676 0 7.459-2.551 7.807-2.997.345-.441.101-.684-.248-.539m2.318-1.28c-.222-.289-1.348-.342-2.057-.255-.71.084-1.775.518-1.683.779.048.097.145.053.633.01.489-.05 1.859-.222 2.144.151.287.376-.437 2.166-.569 2.454-.128.289.049.363.289.171.236-.192.665-.69.952-1.394.285-.708.46-1.696.291-1.916"/></svg>