<svg version="1.1" viewBox="0 0 192 192" xmlns="http://www.w3.org/2000/svg"><path d="m172.07 169.95h-37.659v-11.892c-12.051 10.371-25.915 14.942-40.671 14.942-21.694 0-42.186-9.7599-55.138-25.013-11.448-13.415-18.681-31.706-18.681-51.831 0-43.616 31.94-77.156 71.706-77.156 16.568 0 31.337 5.4881 42.784 14.937v-11.887h37.659zm-39.162-96.064c-8.1386-10.971-21.091-18.297-36.16-18.297-22.896 0-37.664 19.22-37.664 40.567 0 23.174 16.574 40.244 38.57 40.244 14.762 0 27.72-7.3156 35.255-18.292z"/></svg>
