<svg xmlns="http://www.w3.org/2000/svg" viewBox="0 0 24 24"><path d="M8.553 3.69C5.297 5.045 3 8.26 3 12c0 4.96 4.04 9 9 9s9-4.04 9-9c0-3.732-2.29-6.943-5.536-8.304-1.161-.487-3.843-1.286-6.911-.007zm-1.95 3.385a6.7 6.7 0 0 0 1.682 1.542l-.833 1.443a.673.673 0 1 0 1.165.673l.873-1.511a7.1 7.1 0 0 0 5.057 0l.873 1.511.003.01a.677.677 0 0 0 .924.228.67.67 0 0 0 .241-.9l-.839-1.454a6.7 6.7 0 0 0 1.667-1.52A7.28 7.28 0 0 1 19.302 12 7.29 7.29 0 0 1 12 19.302 7.29 7.29 0 0 1 4.698 12c0-1.9.72-3.627 1.905-4.924zM5.66 10.19v.451h.452v-.451zm3.624.903v.452h.452v-.452zm4.527 0V12h.907v-.907zM12 12v.452h.452V12zm5.434 0v.452h.452V12zm-11.775.907v.451h.452v-.451zm1.813.903v.907h.907v-.907zm7.245 0v.452h.451v-.452zm-4.528.907v.452h.452v-.452zm2.717 0v.907h.907v-.907zm3.62 0v.452h.453v-.452zm-8.15 1.81v.452h.452v-.452zm2.717 0v.452h.452v-.452zm1.813.907v.452h.452v-.452z"/></svg>