<svg xmlns="http://www.w3.org/2000/svg" width="24" height="24" fill="none" viewBox="0 0 24 24"><path d="M12 2.717c-.432 0-.865.213-1.111.642L3.172 16.803a1.28 1.28 0 0 0 1.111 1.918h.429L12 5.969l7.288 12.752h.429a1.28 1.28 0 0 0 1.111-1.918L13.111 3.359A1.27 1.27 0 0 0 12 2.717m0 8.256L7.572 18.72h1.013L12 17.388l3.415 1.333h1.01z" style="fill:#000;stroke-width:.99296"/><path fill="#000" d="M4.953 20.803 12 8.47l7.047 12.332-.48.48L12 18.721l-6.566 2.562Z" style="fill:#000;stroke-width:.99296"/></svg>