<svg xmlns="http://www.w3.org/2000/svg" width="192" height="192" viewBox="0 0 192 192"><path d="M96 19c-42.458 0-77 34.542-77 77s34.542 77 77 77 77-34.542 77-77-34.542-77-77-77m0 11.761c35.969 0 65.239 29.27 65.239 65.239 0 35.961-29.27 65.224-65.239 65.224-35.969 0-65.239-29.255-65.239-65.224 0-35.969 29.278-65.239 65.239-65.239zM78.718 65.236c-2.482.032-4.743 2.028-4.743 4.803v52.55a4.796 4.796 0 0 0 7.257 4.115l44.515-26.485c3.14-1.877 3.126-6.436-.03-8.275L81.202 65.908a4.779 4.779 0 0 0-2.484-.673z"/></svg>