<svg xmlns="http://www.w3.org/2000/svg" xml:space="preserve" width="24" height="24" viewBox="0 0 24 24"><path d="m13.702 6.423 3.849 3.861c-.085.1-.143.18-.212.248-1.662 1.667-3.327 3.332-4.99 4.998-2.078 2.08-4.158 4.158-6.233 6.24a.764.764 0 0 1-.594.254c-1.05-.013-2.1-.004-3.15-.005-.112 0-.224-.011-.37-.02-.015-.12-.038-.228-.039-.336-.003-1.084.006-2.168-.006-3.252-.003-.232.098-.38.245-.528 1.546-1.544 3.091-3.088 4.636-4.635l5.585-5.595c.35-.35.702-.7 1.054-1.048.056-.054.12-.098.225-.182m5.821 1.857-3.83-3.82c.053-.087.079-.152.124-.197.605-.604 1.204-1.214 1.822-1.805.595-.57 1.372-.681 2.092-.307.187.096.357.238.509.385.43.414.856.831 1.264 1.267.717.767.718 1.793-.004 2.555-.573.604-1.17 1.186-1.757 1.774-.046.047-.11.075-.22.149"/></svg>