<svg xmlns="http://www.w3.org/2000/svg" viewBox="0 0 24 24"><path d="M11.926 3.126a2.47 2.47 0 0 0-2.47 2.47 2.47 2.47 0 0 0 2.47 2.47 2.47 2.47 0 0 0 .293-.022l1.16 3.024a5.207 5.207 0 0 0-2.306 2.408l-3.138-1.08a2.47 2.47 0 0 0 .004-.061 2.47 2.47 0 0 0-2.47-2.47A2.47 2.47 0 0 0 3 12.335a2.47 2.47 0 0 0 2.47 2.47 2.47 2.47 0 0 0 2.11-1.195l3.113 1.072a5.207 5.207 0 0 0-.106.985 5.207 5.207 0 0 0 5.207 5.207A5.207 5.207 0 0 0 21 15.667a5.207 5.207 0 0 0-5.206-5.206 5.207 5.207 0 0 0-1.232.159l-1.17-3.045a2.47 2.47 0 0 0 1.003-1.98 2.47 2.47 0 0 0-2.47-2.468z"/></svg>