<svg xmlns="http://www.w3.org/2000/svg" viewBox="0 0 24 24"><path d="M19.971 6.756h2.03v1.149h-2.03v2.019h-1.149V7.905h-2.03V6.756h2.03v-2.04h1.149zm-9.342-3.335A2.387 2.387 0 0 0 8.242 5.81a2.387 2.387 0 0 0 2.387 2.387 2.387 2.387 0 0 0 .283-.02l1.123 2.923a5.034 5.034 0 0 0-2.23 2.327L6.77 12.382a2.387 2.387 0 0 0 .004-.059 2.387 2.387 0 0 0-2.387-2.387A2.387 2.387 0 0 0 2 12.323a2.387 2.387 0 0 0 2.387 2.388 2.387 2.387 0 0 0 2.04-1.155l3.01 1.037a5.034 5.034 0 0 0-.103.952 5.034 5.034 0 0 0 5.034 5.033 5.034 5.034 0 0 0 5.033-5.033 5.034 5.034 0 0 0-5.033-5.034 5.034 5.034 0 0 0-1.191.154l-1.13-2.944a2.387 2.387 0 0 0 .969-1.913 2.387 2.387 0 0 0-2.388-2.387z"/></svg>