<svg xmlns="http://www.w3.org/2000/svg" xml:space="preserve" width="24" height="24" fill="none" viewBox="0 0 24 24"><path fill="#000" d="M12 2A10 10 0 0 0 2 12a10 10 0 0 0 10 10 10 10 0 0 0 10-10A10 10 0 0 0 12 2m0 1.242a7.558 7.558 0 0 1 7.554 7.555 7.54 7.54 0 0 1-2.736 5.817.657.657 0 0 1-.839-1.011 6.229 6.229 0 0 0 2.261-4.806c0-3.445-2.796-6.24-6.24-6.24s-6.24 2.795-6.24 6.24c0 1.932.88 3.66 2.261 4.806a.657.657 0 0 1-.838 1.01 7.54 7.54 0 0 1-2.737-5.816A7.558 7.558 0 0 1 12 3.242m0 2.865a4.692 4.692 0 0 1 3.885 7.315.657.657 0 0 1-1.087-.737A3.378 3.378 0 0 0 12 7.42a3.378 3.378 0 0 0-3.376 3.377c0 .709.221 1.34.597 1.883a.657.657 0 0 1-1.08.747 4.558 4.558 0 0 1-.83-2.63A4.692 4.692 0 0 1 12 6.107m0 2.856a1.749 1.749 0 0 1 1.158 3.057l2.775 7.862a.657.657 0 0 1-1.239.437l-.837-2.37a7.556 7.556 0 0 1-3.715 0l-.836 2.37a.657.657 0 0 1-1.239-.437l2.775-7.862A1.749 1.749 0 0 1 12 8.963m0 3.722-1.418 4.019a6.25 6.25 0 0 0 2.836 0z"/></svg>