<svg xmlns="http://www.w3.org/2000/svg" viewBox="0 0 24 24"><path d="M11.366 3a9.012 9.012 0 0 0-2.106.418l-.148 1.744A7.422 7.422 0 0 0 7.36 6.195l-1.68-.582A9.012 9.012 0 0 0 4.42 7.19l.992 1.405a7.422 7.422 0 0 0-.726 2.178l-1.627.622a9.012 9.012 0 0 0-.02.591 9.012 9.012 0 0 0 .1 1.337l1.668.443a7.422 7.422 0 0 0 .931 2.203l-.837 1.505a9.012 9.012 0 0 0 1.333 1.397l1.588-.747a7.422 7.422 0 0 0 2.06.981l.329 1.704a9.012 9.012 0 0 0 1.84.191 9.012 9.012 0 0 0 .166-.002l.76-1.647a7.422 7.422 0 0 0 1.939-.527l1.373 1.116a9.012 9.012 0 0 0 1.757-1.225l-.488-1.797a7.422 7.422 0 0 0 .96-1.392l1.832-.029a9.012 9.012 0 0 0 .611-2.166l-1.557-1.085a7.422 7.422 0 0 0 .018-.246 7.422 7.422 0 0 0-.11-1.233l1.413-1.224a9.012 9.012 0 0 0-.898-2.111l-1.86.168a7.422 7.422 0 0 0-1-1.103l.296-1.862a9.012 9.012 0 0 0-1.986-1.063l-1.279 1.286a7.422 7.422 0 0 0-1.684-.273z"/></svg>