<svg xmlns="http://www.w3.org/2000/svg" width="24" height="24" fill="none" viewBox="0 0 24 24"><path fill="#000" d="M6.163 12.647v4.666c0 .36.234.73.594.73h1.49v2.707c0 .693.556 1.25 1.249 1.25.692 0 1.25-.557 1.25-1.25v-2.708h2.551v2.708c0 .39.178.74.459.969.203.177.474.281.765.281h.026c.693 0 1.25-.557 1.25-1.25v-2.708h1.438c.364 0 .593-.37.593-.724v-8.65H6.163v3.98Zm13.748-4.812c-.692 0-1.25.557-1.25 1.25v5c0 .692.558 1.25 1.25 1.25.693 0 1.25-.558 1.25-1.25v-5c0-.693-.557-1.25-1.25-1.25m-15.831 0c-.693 0-1.25.557-1.25 1.25v5c0 .692.557 1.25 1.25 1.25s1.25-.558 1.25-1.25v-5c0-.693-.557-1.25-1.25-1.25M14.87 3.31l.964-1.14c.02-.027-.01-.084-.068-.131-.057-.042-.125-.052-.14-.02l-1 1.187c-.709-.282-1.573-.459-2.635-.459-1.068-.005-1.938.167-2.646.443l-.99-1.167c-.02-.026-.083-.02-.14.021-.057.042-.089.094-.068.13L9.1 3.3C6.59 4.388 6.215 7.06 6.163 7.84h11.644c-.046-.786-.416-3.421-2.937-4.53M9.434 5.903a.701.701 0 0 1-.704-.693c0-.38.313-.692.704-.692.385 0 .703.312.703.692 0 .38-.313.693-.703.693m5.124 0a.701.701 0 0 1-.703-.693c0-.38.312-.692.703-.692.385 0 .703.312.703.692 0 .38-.318.693-.703.693"/></svg>