<svg xmlns="http://www.w3.org/2000/svg" viewBox="0 0 24 24"><path stroke="#000" stroke-width=".351" d="m10.886 8.061-.418 2.376H9.111l1.172-6.744 2.365.004c.726 0 1.301.203 1.715.607.418.403.6.933.548 1.586-.05.66-.323 1.186-.825 1.582s-1.144.593-1.923.593zm.19-1.126 1.13.01c.364 0 .666-.094.908-.284a1.13 1.13 0 0 0 .432-.765c.045-.32-.007-.575-.155-.768-.15-.193-.372-.295-.666-.305l-1.278-.004zm6.586.81-.888.825-.323 1.867h-1.357l1.172-6.744h1.357l-.519 2.972.688-.776 2.031-2.196h1.769L18.68 6.76l1.736 3.677H18.87zM6.837 9.048H4.483l-.695 1.39H2.293l3.604-6.744h1.256l1.284 6.744H7.051zM5.04 7.921h1.625l-.379-2.509zm8.765 12.386H8.633l1.042-5.916 3.467-3.042.484.4c.074.08.127.168.162.263a.676.676 0 0 1 .01.34v-.003l-.835 2.042h3.474c.267 0 .488.106.656.316.168.21.232.442.186.695l-.074.414c-.014.091-.045.2-.094.323a2.022 2.022 0 0 1-.134.295L15.1 19.528c-.123.218-.309.4-.554.551a1.372 1.372 0 0 1-.74.228zM9.01 14.39l-1.042 5.916H6.59l1.042-5.916z"/></svg>