<svg xmlns="http://www.w3.org/2000/svg" viewBox="0 0 24 24"><path stroke="#000" stroke-width=".351" d="m10.886 8.061-.418 2.376H9.111l1.172-6.744 2.365.004c.726 0 1.301.203 1.715.607q.627.605.548 1.586-.074.989-.825 1.582c-.751.593-1.144.593-1.923.593zm.19-1.126 1.13.01q.546 0 .908-.284a1.13 1.13 0 0 0 .432-.765q.067-.48-.155-.768-.225-.29-.666-.305l-1.278-.004zm6.586.81-.888.825-.323 1.867h-1.357l1.172-6.744h1.357l-.519 2.972.688-.776 2.031-2.196h1.769L18.68 6.76l1.736 3.677H18.87zM6.837 9.048H4.483l-.695 1.39H2.293l3.604-6.744h1.256l1.284 6.744H7.051zM5.04 7.921h1.625l-.379-2.509zm8.765 12.386H8.633l1.042-5.916 3.467-3.042.484.4q.11.12.162.263a.7.7 0 0 1 .01.34v-.003l-.835 2.042h3.474q.402 0 .656.316.253.315.186.695l-.074.414q-.02.137-.094.323a2 2 0 0 1-.134.295L15.1 19.528q-.185.326-.554.551a1.37 1.37 0 0 1-.74.228zM9.01 14.39l-1.042 5.916H6.59l1.042-5.916z"/></svg>