<svg xmlns="http://www.w3.org/2000/svg" viewBox="0 0 24 24"><path d="m12.865 13.301.9-1.206v1.685H12.52l.345-.479zm-1.21-8.303v-.292h.644v3.312h-.643v-3.02zm-.418 1.009v2.012h-.649V4.697h.649v1.31m-3.04-.06c.501-.487 1.296-.533 1.782-.117.47.403.55 1.28.164 1.805-.317.432-.984.587-1.536.357-.504-.21-.797-.773-.682-1.383.042-.224.17-.432.272-.661m1.292.214c-.35-.203-.687-.13-.832.195a1.13 1.13 0 0 0-.001.932c.088.207.255.302.48.304.223.001.406-.079.49-.288.157-.386.17-.769-.137-1.143zm3.045.336c.166-.588.534-.908 1.07-.947.588-.043 1.044.198 1.256.663.237.52.14 1.211-.24 1.556-.41.373-.898.41-1.396.223-.48-.18-.687-.573-.71-1.069-.007-.134.009-.27.02-.425m1.536.998c.29-.294.351-.878.125-1.213-.126-.187-.316-.284-.52-.219-.16.051-.35.169-.414.308-.085.187-.09.425-.077.638.03.493.387.696.886.486zM2.46 6.795l.784-2.099h.753l1.232 3.33h-.753c-.062-.184-.132-.371-.188-.563-.039-.131-.1-.188-.249-.183-.345.012-.69.004-1.044.004-.092.255-.18.5-.27.744H2c.155-.417.303-.816.46-1.233m.796-.05h.782l-.406-1.197-.05-.007c-.122.398-.244.795-.326 1.204M5.98 9.2v.642h-.64V5.629h.58l.055.214c.66-.612 1.623-.235 1.75.652.032.214.04.441.008.654-.143.926-1.098 1.235-1.753.618v1.434m.956-2.959c-.359-.334-.833-.222-.928.247a1.87 1.87 0 0 0 .028.745c.053.245.256.363.516.358.251-.006.419-.135.488-.367.096-.323.103-.648-.104-.983zm-.588 5.292c0-.524-.005-1.023 0-1.521.01-.876.56-1.42 1.434-1.42h12.776c.893 0 1.44.545 1.44 1.435.003 2.222.003 4.445 0 6.667 0 .897-.54 1.436-1.433 1.436-3.65.001-7.3.007-10.951-.004-.885-.003-1.684.207-2.393.745-.175.132-.36.252-.546.368-.204.126-.313.064-.327-.178-.004-.067 0-.135 0-.202v-7.326m2.838-.476c-.786.291-1.192.992-.988 1.736h.869c0-.136-.01-.255.002-.371a.642.642 0 0 1 .492-.576c.32-.076.646.034.787.268a.668.668 0 0 1-.088.798c-.125.133-.28.24-.435.342-.296.194-.613.358-.899.565-.59.428-.832 1.026-.815 1.752h3.316v-.84H9.333l-.028-.067c.124-.107.238-.227.374-.317.281-.185.581-.344.86-.534.186-.127.37-.27.518-.439a1.425 1.425 0 0 0-.612-2.296c-.402-.142-.81-.138-1.259-.021m5.84 2.73-.304-.014v-2.7c-.346 0-.658.01-.97-.004-.164-.008-.26.053-.355.18-.494.674-.97 1.364-1.505 2.003-.365.436-.207.895-.24 1.38h2.134v.942h.944v-.954h.713v-.833h-.418m3.122-.25a5.62 5.62 0 0 0-.518 2.048c.281 0 .541-.008.8.003.152.007.202-.048.22-.197.151-1.34.684-2.495 1.673-3.427a.315.315 0 0 0 .098-.19c.012-.224.005-.45.005-.687h-3.421v.812h2.184a161.26 161.26 0 0 0-1.041 1.639m-2.03-1.169v4.23l.285-.014v-6.467l-.285.014v2.238z"/></svg>