<svg xmlns="http://www.w3.org/2000/svg" width="192" height="192" viewBox="0 0 192 192"><path d="m102.92 106.41 7.2-9.648v13.48h-9.96zm-9.68-66.424V37.65h5.152v26.496h-5.144v-24.16zm-3.344 8.072v16.096h-5.192V37.578h5.192zm-24.32-.48c4.008-3.896 10.368-4.264 14.256-.936 3.76 3.224 4.4 10.24 1.312 14.44-2.536 3.456-7.872 4.696-12.288 2.856-4.032-1.68-6.376-6.184-5.456-11.064.336-1.792 1.36-3.456 2.176-5.288m10.336 1.712c-2.8-1.624-5.496-1.04-6.656 1.56a9.04 9.04 0 0 0-.008 7.456c.704 1.656 2.04 2.416 3.84 2.432 1.784.008 3.248-.632 3.92-2.304 1.256-3.088 1.36-6.152-1.096-9.144m24.36 2.688c1.328-4.704 4.272-7.264 8.56-7.576 4.704-.344 8.352 1.584 10.048 5.304 1.896 4.16 1.12 9.688-1.92 12.448-3.28 2.984-7.184 3.28-11.168 1.784-3.84-1.44-5.496-4.584-5.68-8.552-.056-1.072.072-2.16.16-3.4m12.288 7.984c2.32-2.352 2.808-7.024 1-9.704-1.008-1.496-2.528-2.272-4.16-1.752-1.28.408-2.8 1.352-3.312 2.464-.68 1.496-.72 3.4-.616 5.104.24 3.944 3.096 5.568 7.088 3.888m-92.88-5.616 6.272-16.792h6.024l9.856 26.64h-6.024c-.496-1.472-1.056-2.968-1.504-4.504-.312-1.048-.8-1.504-1.992-1.464-2.76.096-5.52.032-8.352.032-.736 2.04-1.44 4-2.16 5.952H16c1.24-3.336 2.424-6.528 3.68-9.864m6.368-.4h6.256l-3.248-9.576-.4-.056c-.976 3.184-1.952 6.36-2.608 9.632m21.792 19.64v5.136h-5.12V45.034h4.64l.44 1.712c5.28-4.896 12.984-1.88 14 5.216.256 1.712.32 3.528.064 5.232-1.144 7.408-8.784 9.88-14.024 4.944V73.61m7.648-23.672c-2.872-2.672-6.664-1.776-7.424 1.976a15.2 15.2 0 0 0 .224 5.96c.424 1.96 2.048 2.904 4.128 2.864 2.008-.048 3.352-1.08 3.904-2.936.768-2.584.824-5.184-.832-7.864m-4.704 42.336c0-4.192-.04-8.184 0-12.168.08-7.008 4.48-11.36 11.472-11.36h102.21c7.144 0 11.52 4.36 11.52 11.48q.032 26.672 0 53.336c0 7.176-4.32 11.488-11.464 11.488-29.2.008-58.4.056-87.608-.032-7.08-.024-13.472 1.656-19.144 5.96-1.4 1.056-2.88 2.016-4.368 2.944-1.632 1.008-2.504.512-2.616-1.424-.032-.536 0-1.08 0-1.616zm22.704-3.808c-6.288 2.328-9.536 7.936-7.904 13.888h6.952c0-1.088-.08-2.04.016-2.968a5.12 5.12 0 0 1 3.936-4.608c2.56-.608 5.168.272 6.296 2.144a5.36 5.36 0 0 1-.704 6.384c-1 1.064-2.24 1.92-3.48 2.736-2.368 1.552-4.904 2.864-7.192 4.52-4.72 3.424-6.656 8.208-6.52 14.016h26.528v-6.72H74.664l-.224-.536c.992-.856 1.904-1.816 2.992-2.536 2.248-1.48 4.648-2.752 6.88-4.272 1.488-1.016 2.96-2.16 4.144-3.512a11.4 11.4 0 0 0-4.896-18.368c-3.216-1.136-6.48-1.104-10.072-.168m46.72 21.84-2.432-.112v-21.6c-2.768 0-5.264.08-7.76-.032-1.312-.064-2.08.424-2.84 1.44-3.952 5.392-7.76 10.912-12.04 16.024-2.92 3.488-1.656 7.16-1.92 11.04h17.072v7.536h7.552v-7.632h5.704v-6.664zm24.976-2a44.8 44.8 0 0 0-4.144 16.384c2.248 0 4.328-.064 6.4.024 1.216.056 1.616-.384 1.76-1.576 1.208-10.72 5.472-19.96 13.384-27.416a2.4 2.4 0 0 0 .784-1.52c.096-1.792.04-3.6.04-5.496H136.04v6.496h17.472a1288 1288 0 0 0-8.328 13.112m-16.24-9.352v33.84l2.28-.112V80.954l-2.28.112V98.97z"/></svg>