<svg xmlns="http://www.w3.org/2000/svg" viewBox="0 0 24 24"><path d="M4 2a2 2 0 0 0-2 2v16a2 2 0 0 0 2 2h16a2 2 0 0 0 2-2V4a2 2 0 0 0-2-2zm10 18.002h-4l-.3-2.5q-.4-.151-.7-.326a3 3 0 0 1-.601-.475l-2.3 1-2.001-3.4 2-1.5a3.3 3.3 0 0 1 0-1.601l-2-1.5 2-3.402 2.301 1q.3-.3.6-.476.3-.174.7-.324l.3-2.5h4.002l.3 2.5q.4.15.7.324.3.177.6.477l2.3-1 2.001 3.4-2 1.5a3.3 3.3 0 0 1 0 1.601l2 1.5-2 3.402-2.301-1q-.3.3-.6.473-.3.176-.7.327l-.3 2.5M9.85 14.15Q10.7 15 12 15c1.3 0 1.584-.283 2.15-.85Q15 13.3 15 12c0-1.3-.283-1.584-.85-2.15Q13.302 8.999 12 9c-1.302.001-1.584.283-2.15.85Q8.999 10.698 9 12c.001 1.302.283 1.584.85 2.15"/></svg>