<svg xmlns="http://www.w3.org/2000/svg" viewBox="0 0 24 24"><path d="M4 2a2 2 0 0 0-2 2v16a2 2 0 0 0 2 2h16a2 2 0 0 0 2-2V4a2 2 0 0 0-2-2zm10 18.002h-4l-.3-2.5c-.267-.1-.5-.21-.7-.326a3.009 3.009 0 0 1-.601-.475l-2.3 1-2.001-3.4 2-1.5a3.288 3.288 0 0 1 0-1.601l-2-1.5 2-3.402 2.301 1c.2-.2.4-.358.6-.476.2-.116.434-.224.7-.324l.3-2.5h4.002l.3 2.5c.266.1.5.208.7.324.2.118.4.277.6.477l2.3-1 2.001 3.4-2 1.5a3.287 3.287 0 0 1 0 1.601l2 1.5-2 3.402-2.301-1c-.2.2-.4.357-.6.473-.2.118-.434.226-.7.327l-.3 2.5M9.85 14.15c.566.567 1.283.85 2.15.85s1.584-.283 2.15-.85c.567-.566.85-1.283.85-2.15s-.283-1.584-.85-2.15C13.585 9.282 12.868 9 12 9s-1.584.283-2.15.85C9.282 10.415 9 11.132 9 12s.283 1.584.85 2.15"/></svg>