<svg xmlns="http://www.w3.org/2000/svg" viewBox="0 0 24 24"><path d="M19.74 3.548a.547.547 0 0 1-.117.722c-4.596 3.64-10.65 3.64-15.246 0a.547.547 0 0 1-.116-.722.585.585 0 0 1 .85-.14c4.175 3.201 9.603 3.201 13.778 0a.585.585 0 0 1 .85.14M10.978 10c-.187.017-.693.137-.693.137-1.14.307-1.408 1.385-1.408 1.385a2.183 2.183 0 0 0-.089.543v.238c.015.368.094.643.094.643.38 1.76 2.252 4.65 2.654 5.258.028.03.051.019.051.019.043-.013.04-.056.04-.056.62-6.456-.65-8.167-.65-8.167m2.047 0s-1.276 1.712-.656 8.172h.001c.005.04.033.05.033.05.041.016.063-.026.063-.026.412-.622 2.273-3.498 2.652-5.25 0 0 .205-.849.007-1.424 0 0-.282-1.094-1.423-1.384 0 0-.328-.087-.678-.138m-5.882 1.938s-1.085 1.074-1.14 2.213h.001v.173l.003.04c.046.918.709 1.461.709 1.461 1.068 1.085 3.653 2.455 4.253 2.766.009.003.04.014.058-.01 0 0 .01-.008.014-.021v-.029l-.002-.005c-1.645-3.747-3.896-6.588-3.896-6.588m9.713 0s-2.244 2.832-3.888 6.572c0 0-.019.043.013.07 0 0 .01.008.022.011h.023a.043.043 0 0 0 .013-.006c.617-.319 3.182-1.68 4.244-2.76 0 0 .673-.563.708-1.468.078-1.256-1.135-2.419-1.135-2.419m2.02 3.72s-3.658 2.047-5.55 3.377l.001.001s-.034.023-.022.066c0 0 .018.033.044.033.677.002 3.24.005 3.305-.008 0 0 .331-.013.741-.177 0 0 .912-.303 1.386-1.382 0 0 .216-.452.219-1.086v-.027a2.677 2.677 0 0 0-.124-.797m-13.753.01a2.753 2.753 0 0 0 .116 1.941c.467 1.029 1.358 1.34 1.358 1.34.412.177.823.19.823.19.065.011 2.56 0 3.228-.003.029 0 .044-.03.044-.03a.04.04 0 0 0 .005-.01v-.026a.075.075 0 0 0-.02-.03v-.001c-1.89-1.33-5.554-3.371-5.554-3.371m5.449 3.798-4.303.158c.466.867 1.252 1.541 2.071 1.334.565-.147 1.845-1.078 2.267-1.392l-.001-.002c.033-.03.021-.055.021-.055-.01-.04-.055-.04-.055-.04v-.003m2.85.004v.001s-.038.005-.049.035c0 0-.009.04.016.06.412.309 1.66 1.22 2.263 1.396 0 0 .09.032.243.038h.092c.403-.015 1.106-.23 1.744-1.374l-4.31-.156"/></svg>