<svg xmlns="http://www.w3.org/2000/svg" data-name="Layer 1" viewBox="0 0 24 24"><path d="M5.094 17.562a7.224 7.224 0 0 1 1.357-.38c.351-.073.704-.142 1.053-.217a.852.852 0 0 0 .735-.874v-.184q0-5.439.003-10.882a1.949 1.949 0 0 1 .051-.453.85.85 0 0 1 .67-.634c.311-.081.63-.138.947-.202.898-.184 1.796-.363 2.695-.544l2.781-.564c.82-.164 1.641-.33 2.462-.493a7.436 7.436 0 0 1 .814-.13.604.604 0 0 1 .678.59 2.518 2.518 0 0 1 .015.273q.004 3.51 0 7.022l.001.004v6.998a3.3 3.3 0 0 1-.299 1.477 2.594 2.594 0 0 1-1.7 1.397 5.653 5.653 0 0 1-1.31.212 2.292 2.292 0 0 1-1.11-4.359 5.226 5.226 0 0 1 1.248-.397c.463-.1.928-.187 1.389-.294a.757.757 0 0 0 .624-.632 1.107 1.107 0 0 0 .025-.236q0-3.335-.002-6.668a.888.888 0 0 0-.032-.226.352.352 0 0 0-.373-.287 4.433 4.433 0 0 0-.582.08q-1.396.276-2.793.56l-4.532.916c-.02.003-.04.012-.059.016a.552.552 0 0 0-.477.6c-.003.051 0 .105 0 .159q-.004 4.781-.004 9.562a3.756 3.756 0 0 1-.264 1.503 2.609 2.609 0 0 1-1.756 1.51 5.442 5.442 0 0 1-1.317.211 2.254 2.254 0 0 1-2.352-1.89 2.286 2.286 0 0 1 1.414-2.544z" style="stroke-width:.99981"/></svg>