<svg xmlns="http://www.w3.org/2000/svg" viewBox="0 0 24 24"><path d="M6.748 21.935c-1.005-.268-1.825-1.115-2.028-2.094-.037-.179-.054-1.66-.054-4.653 0-4.83-.01-4.663.308-5.293.202-.4.761-.958 1.166-1.162.618-.312.489-.304 4.832-.304h3.956l-.001-.756c-.002-1.163-.17-1.793-.653-2.442-.514-.69-1.377-1.115-2.271-1.115-1.409 0-2.594 1.015-2.836 2.43l-.06.346H7.23l.029-.483c.113-1.932 1.452-3.74 3.431-4.21.429-.101.537-.18 1.314-.197.781-.016.895.078 1.314.198 1.638.47 2.78 1.653 3.28 3.29.126.413.135.501.154 1.685l.02 1.25.231.033c.847.123 1.63.693 2.021 1.47.33.654.322.503.305 5.431-.017 4.906.004 4.574-.334 5.206a2.84 2.84 0 0 1-1.435 1.268 5 5 0 0 1-.206.076l-.034.012a1.1 1.1 0 0 1-.382.068l-4.86.009c-4.306.008-5.097-.001-5.329-.063zm9.37-2.042c.544-.272.878-.656 1.042-1.195.098-.323.085-.43.087-3.604l.002-2.89c0-.217-.065-.556-.174-.742a2.37 2.37 0 0 0-.946-.911l-.083-.041a1.2 1.2 0 0 0-.526-.124l-3.412-.013c-4.07-.015-3.983-.02-4.48.295-.313.2-.517.441-.702.832l-.004.008a1.6 1.6 0 0 0-.15.668v6.209c0 .152.034.303.1.441l.057.123q.373.785 1.231 1.061c.155.05 1.004.062 3.918.054l3.448-.009c.178 0 .354-.042.513-.122zm-4.413-.971c0-.122.484-.71.628-.763.077-.029.243-.088.368-.133a2 2 0 0 0 1.192-1.157c.104-.263.114-.379.132-1.502.012-.747-.001-1.329-.035-1.507-.194-1.05-1.088-1.771-2.107-1.7-.511.036-.87.19-1.237.534s-.56.705-.645 1.206c-.042.252-.08.354-.132.354-.057 0-.07-.07-.065-.334.013-.562.357-1.18.864-1.552a2.215 2.215 0 0 1 2.852.185c.324.306.49.573.62.989.082.263.093.465.093 1.646-.001 1.289-.006 1.361-.12 1.68-.25.713-.76 1.19-1.545 1.446-.213.07-.286.13-.467.379-.202.278-.396.39-.396.229m.819.018c-.052-.084.009-.125.34-.226.776-.239 1.47-.952 1.73-1.78.104-.327.11-.441.11-1.787s-.006-1.46-.109-1.785a3.2 3.2 0 0 0-.281-.619c-.121-.191-.158-.29-.123-.332.028-.033.077-.05.11-.037.093.036.357.507.485.864.109.304.116.403.132 1.763.018 1.611-.012 1.857-.301 2.448-.244.497-.794 1.047-1.296 1.295-.44.218-.738.291-.797.196m-1.644-.174c-.045-.12.752-1.151.98-1.267a1 1 0 0 1 .256-.097c.198 0 .609-.174.785-.333.243-.22.344-.402.417-.757.036-.177.08-.273.126-.273.053 0 .07.068.066.278-.013.636-.513 1.142-1.272 1.286-.306.058-.388.13-.863.754-.202.265-.39.483-.417.483s-.062-.034-.077-.074zm-.712-.386c0-.035.18-.309.4-.608.619-.84.564-.619.592-2.378.027-1.647.027-1.648.299-1.877a.83.83 0 0 1 1.089 0c.302.245.252.38.298 1.63.018.51-.012 1.24-.151 1.373-.137.131-.175.148-.36.123a.49.49 0 0 1-.32-.159c-.111-.128-.113-.149-.1-1.23.012-.938-.028-1.043.036-1.043.019 0 .112-.028.124.019.027.107.012.366.027 1-.007.62-.032 1.097.074 1.123.116.108.268.112.37.01.096-.096.101-.158.101-1.193 0-1.223-.028-1.364-.306-1.534a.64.64 0 0 0-.676 0c-.288.176-.306.285-.31 1.844-.001 1.196-.014 1.433-.086 1.615-.122.311-.9 1.348-1.01 1.348-.05 0-.09-.028-.09-.063zm-.545-.566c0-.046.153-.286.34-.533s.372-.505.41-.573c.052-.094.074-.465.093-1.561.024-1.38.03-1.447.138-1.651.297-.555.805-.868 1.411-.868.642 0 1.245.44 1.451 1.06.091.273.132 1.444.056 1.775-.014.06-.092.034-.109.034-.062 0-.051-.14-.074-.821-.03-.92-.074-1.082-.384-1.407-.639-.667-1.672-.533-2.12.275l-.146.264-.025 1.438c-.028 1.64.012 1.478-.543 2.196-.336.434-.498.556-.498.372m-.387-.772c-.052-.063-.022-.129.188-.403.138-.18.273-.384.3-.454s.048-.35.048-.62c0-.466.006-.493.103-.493.1 0 .103.02.087.612-.018.673-.041.732-.487 1.234-.153.173-.185.19-.239.124m-.14-1.198c-.014-.04-.018-.57-.008-1.178.017-1 .03-1.137.132-1.428a3.02 3.02 0 0 1 1.82-1.843c.368-.134 1.198-.18 1.603-.09.318.07.778.264.907.38.064.058.074.098.036.143-.04.05-.128.028-.408-.1-1.106-.508-2.251-.306-3.09.542-.66.67-.81 1.159-.811 2.666 0 .846-.011.979-.077.979a.12.12 0 0 1-.103-.071z"/></svg>