<svg xmlns="http://www.w3.org/2000/svg" width="24" height="24" fill="none" viewBox="0 0 24 24"><path fill="#000" fill-rule="evenodd" d="M10.806 2.03c-.468.052-1.492.29-1.985.46-3.016 1.041-5.32 3.332-6.297 6.257-.397 1.191-.559 2.336-.518 3.674.09 2.95 1.336 5.587 3.424 7.249 1.448 1.151 3.057 1.867 5.011 2.23.731.135 2.77.133 3.39-.003 1.265-.277 2.126-.72 2.551-1.312.348-.484.328-.719-.117-1.38-.328-.488-.452-.81-.452-1.177 0-.737.436-1.058 2.156-1.589 1.291-.398 1.872-.65 2.468-1.073.693-.492 1.19-1.23 1.437-2.134.1-.367.114-.553.116-1.539.002-.978-.013-1.19-.117-1.662a10.308 10.308 0 0 0-2.668-4.98c-1.585-1.65-3.586-2.699-5.687-2.983-.503-.068-2.232-.093-2.712-.039m6.155 2.43c0 .037-.07.534-.157 1.105a36.21 36.21 0 0 0-.156 1.099c0 .034-.115.076-.258.095-.42.056-1.074.416-1.468.81-.643.643-.88 1.336-.881 2.585l-.001.73-.212-.363a5.805 5.805 0 0 0-1.649-1.783l-.322-.23.101-.376a6.36 6.36 0 0 1 .362-.909c.718-1.464 1.985-2.424 3.63-2.75.484-.097 1.01-.103 1.01-.014M9.842 8.401c2.09.43 3.75 2.148 4.118 4.257.065.372.08.986.08 3.318v2.862h-2.295v-2.751c-.002-3.06-.012-3.176-.339-3.864-.216-.455-.723-.992-1.182-1.252-.912-.517-2.173-.48-3.063.092-.336.215-.825.74-1.01 1.084-.613 1.133-.392 2.595.529 3.513.534.532 1.362.881 2.092.881.7 0 1.537-.342 2.037-.832l.31-.303v2.895l-.43.164c-.744.284-1.08.343-1.943.342-.63-.001-.866-.023-1.211-.113a5.32 5.32 0 0 1-2.545-1.48c-.66-.691-1.027-1.322-1.31-2.262-.13-.43-.142-.545-.145-1.356-.002-1.07.084-1.464.515-2.347a5.225 5.225 0 0 1 3.713-2.866c.535-.106 1.519-.098 2.08.018m9.92 2.75c.347.166.711.569.826.915.118.355.084.924-.074 1.232a1.86 1.86 0 0 1-.781.759c-.349.16-.984.155-1.32-.01a1.92 1.92 0 0 1-.788-.788c-.177-.36-.166-1.026.023-1.387.134-.255.442-.58.662-.697.43-.23.999-.24 1.452-.024m-3.808 1.65c-.014.064-.07.454-.122.866l-.095.748-.305.154c-.168.085-.41.25-.536.367l-.23.212v-2.352l.3-.032c.165-.018.347-.04.404-.05a4.04 4.04 0 0 1 .358-.023c.237-.006.251 0 .226.11" clip-rule="evenodd"/></svg>