<svg version="1.1" viewBox="0 0 192 192" xmlns="http://www.w3.org/2000/svg"><path d="m96.059 16c-17.554 10.412-23.193 29.571-20.645 44.378-11.48-9.5527-30.816-14.38-48.676-4.4466 0.24005 20.411 14.016 34.876 28.117 40.072-14.102 5.1846-27.873 19.614-28.157 39.997 17.853 9.979 37.21 5.1778 48.72-4.3669-2.5549 14.794 3.0531 33.931 20.562 44.367 17.568-10.471 23.089-29.636 20.578-44.376 11.536 9.6101 30.912 14.321 48.704 4.3762-0.28424-20.448-14.118-34.811-28.135-40.006 14.004-5.1652 27.847-19.496 28.174-39.925-17.794-9.9959-37.206-5.3008-48.755 4.3092 2.533-14.717-2.9542-33.877-20.487-44.378z" opacity=".6"/><path d="m124.66 96a28.665 28.665 0 0 1-28.665 28.665 28.665 28.665 0 0 1-28.665-28.665 28.665 28.665 0 0 1 28.665-28.665 28.665 28.665 0 0 1 28.665 28.665z"/></svg>
