<svg xmlns="http://www.w3.org/2000/svg" width="192" height="192" viewBox="0 0 192 192"><path d="M96.064 16C78.51 26.412 72.871 45.571 75.419 60.378c-11.48-9.553-30.816-14.38-48.676-4.447.24 20.411 14.016 34.876 28.117 40.072-14.102 5.185-27.873 19.614-28.157 39.997 17.853 9.98 37.21 5.178 48.72-4.366-2.555 14.794 3.053 33.93 20.562 44.367 17.568-10.471 23.089-29.636 20.578-44.376 11.536 9.61 30.912 14.32 48.704 4.376-.284-20.448-14.118-34.811-28.135-40.006 14.004-5.165 27.847-19.496 28.174-39.925-17.794-9.996-37.206-5.301-48.755 4.309 2.533-14.717-2.954-33.877-20.487-44.378z" opacity=".6"/><path d="M124.66 96a28.665 28.665 0 0 1-28.665 28.665A28.665 28.665 0 0 1 67.33 96a28.665 28.665 0 0 1 28.665-28.665A28.665 28.665 0 0 1 124.66 96"/></svg>