<svg xmlns="http://www.w3.org/2000/svg" viewBox="0 0 192 192"><path d="M140.63 91.787c0 25.263-21.389 42.947-44.632 42.947-23.242 0-44.632-17.684-44.632-42.947H37.05c0 28.716 22.905 52.463 50.526 56.589v27.621h16.842v-27.621c27.621-4.126 50.526-27.874 50.526-56.589M85.891 40.419c0-5.558 4.547-10.105 10.105-10.105 5.558 0 10.105 4.547 10.105 10.105l-.084 52.211c0 5.558-4.463 10.105-10.021 10.105-5.558 0-10.105-4.547-10.105-10.105m10.105 24.421a25.263 25.263 0 0 0 25.263-25.263V41.262a25.263 25.263 0 0 0-50.526 0v50.526a25.263 25.263 0 0 0 25.263 25.263"/></svg>