<svg xmlns="http://www.w3.org/2000/svg" viewBox="0 0 24 24"><path d="M15.395 2.599c-.31 0-.398.025-.588.17-.324.247-.45.486-.45.856 0 .458.192.763.623.987.344.179.802.09 1.148-.225.216-.197.305-.42.305-.762 0-.37-.125-.609-.45-.856-.19-.145-.277-.17-.588-.17m-3.162.243c-.427.008-.856.279-1.224.812l-.233.338.14.15c.076.08.159.148.182.148.024 0 .112-.116.195-.257.204-.35.58-.677.83-.724.289-.054.595.107.876.462.127.16.256.337.287.39.05.088.074.081.219-.062l.163-.16-.224-.326c-.36-.521-.784-.778-1.211-.77Zm4.715.261c-.075 0 .05.582.149.69.402.442.396 1.788-.015 3.414-.063.25-.13.494-.148.541-.02.054.04.133.163.211.108.07.213.126.232.127.046.001.254-.701.421-1.423.104-.45.131-.754.134-1.513.003-.87-.009-.974-.134-1.246-.152-.331-.376-.592-.617-.717a1 1 0 0 0-.185-.084m-9.085.06c-.57.036-1.004.403-1.202 1.064-.117.39-.128 1.43-.02 2.02.065.361.33 1.482.388 1.646.019.053.086.039.241-.053.18-.106.21-.153.186-.281a85 85 0 0 0-.187-.866A6.6 6.6 0 0 1 7.1 5.298c-.013-.796.074-1.173.329-1.428.152-.151.216-.173.51-.172.755.003 1.546.518 2.935 1.91l.997.999-.339.488c-1.817 2.618-2.654 4.041-3.516 5.977-1.675 3.76-2.035 6.427-.99 7.343.594.523 1.542.327 2.733-.563.519-.389 1.335-1.126 1.335-1.207 0-.028-.093-.095-.206-.149l-.205-.097-.433.39c-.62.561-1.084.9-1.562 1.139-.475.237-.974.316-1.211.19-.72-.383-.685-2.092.09-4.504.12-.371.223-.68.23-.688.006-.008.303.024.66.07 2.151.278 4.891.27 7.3-.02l.865-.104.06.152c.567 1.431.917 3.237.814 4.196-.114 1.063-.647 1.317-1.68.8-.556-.28-.993-.599-1.685-1.232l-.493-.452-.204.11c-.113.06-.204.128-.204.151 0 .067 1.031.994 1.486 1.337.531.399.855.588 1.252.731.427.154.95.152 1.272-.003 1.056-.511 1.069-2.542.033-5.498-.753-2.15-1.914-4.429-3.35-6.573-1.72-2.57-3.629-4.531-5.067-5.206a2.3 2.3 0 0 0-.741-.217 1.5 1.5 0 0 0-.252-.004zm6.11 1.247-.584.578c-.32.317-.633.646-.693.729-.11.15-.109.154.035.338l.146.186.703-.721.702-.721-.155-.195Zm-3.756 2.214q-.108-.001-.185.01A2.27 2.27 0 0 0 8.12 8.457c-.037.184-.049.43-.027.547l.04.212.279-.235c.334-.281.723-.462 1.209-.56l.358-.074.55-.768c.304-.422.533-.787.51-.812-.058-.064-.446-.13-.748-.141zm3.945.04c-.565 0-.96.14-.755.266.033.02.245.299.473.62l.413.583.373.065c.471.082 1.141.41 1.411.69l.208.215.018-.32c.058-1.073-1-2.12-2.141-2.12zm4.317.006c-.09.002-.15.011-.161.03a1.3 1.3 0 0 0-.073.245l-.041.193h.439c.511 0 .921.122 1.12.334.116.124.14.212.139.5s-.044.43-.245.822l-.242.475.155.057c.262.096.282.081.514-.393.297-.609.351-1.18.146-1.546-.157-.28-.382-.459-.729-.581-.223-.08-.752-.142-1.022-.136m-12.852.024a5 5 0 0 0-.445.033c-1.267.139-1.696.965-1.125 2.167.213.45.263.485.535.382l.151-.057-.175-.284c-.235-.381-.365-.899-.293-1.16.12-.438.618-.65 1.464-.626l.19.002c.177-.001.303-.013.307-.031a1 1 0 0 0-.028-.22c-.03-.152-.063-.178-.23-.181a2 2 0 0 1-.283-.022zm6.607 1.601.295.623c.333.703.938 2.119.938 2.195 0 .027-.18.066-.4.087s-.548.045-.727.056c-.349.022-1.28-.039-1.328-.086-.036-.037.567-1.502.939-2.282zm4.512.14.003.315c.001.174-.016.439-.04.588l-.043.272.225.074c.124.04.331.15.462.242.13.093.258.171.284.174.086.009-.024-.434-.197-.796a2.6 2.6 0 0 0-.432-.613zm-9.1.009c-.02 0-.162.134-.316.298-.295.316-.532.767-.6 1.146l-.042.229.25-.181a2.4 2.4 0 0 1 .541-.278c.275-.09.29-.106.248-.255a3 3 0 0 1-.045-.559c0-.22-.016-.4-.036-.4m6.981.133-.013.005c-.014.013.08.18.207.373a33 33 0 0 1 1.292 2.232c.092.188.187.341.211.341.075 0 .14-.423.132-.868-.005-.315-.045-.506-.158-.752-.168-.367-.556-.819-.877-1.022-.209-.132-.7-.32-.794-.31Zm-5.01.213c-.187.007-.821.366-1.085.64-.52.54-.714 1.153-.616 1.944.023.183.064.333.092.333s.235-.354.461-.786a30 30 0 0 1 .806-1.431c.217-.355.395-.655.395-.668q0-.03-.036-.032zm-3.558.672a9 9 0 0 0-.687.165c-1.272.339-2.214.781-2.777 1.302-.492.456-.626.757-.59 1.326a.5.5 0 0 0 .021.115.1.1 0 0 0 .017.034q.009.012.018.012c.031-.002.073-.025.119-.061a1 1 0 0 0 .071-.065 1.5 1.5 0 0 0 .256-.358 1 1 0 0 0 .033-.087c.184-.638 1.481-1.362 3.229-1.802a1 1 0 0 0 .201-.066.14.14 0 0 0 .06-.062.2.2 0 0 0 .015-.047 3 3 0 0 0 .034-.32.3.3 0 0 0-.003-.086zm12.101.041.034.227c.019.124.064.255.1.29.037.036.332.14.655.234 1.082.312 2.214.96 2.44 1.396a.86.86 0 0 1-.031.798c-.354.573-1.778 1.254-3.367 1.61-.527.118-.51.095-.367.475l.047.127.494-.115c.702-.163 1.802-.54 2.28-.78 2.076-1.047 2.073-2.449-.007-3.481-.44-.218-1.647-.646-2.088-.74Zm-10.547.552-.025.004c-.141.033-.564.338-.793.584-.776.828-.81 2.046-.082 2.875.298.34.371.284.745-.562l.327-.739-.14-.388c-.155-.434-.186-1.254-.058-1.569.038-.094.057-.183.042-.198a.02.02 0 0 0-.016-.006zm9.222.05c-.013 0-.012.233.002.519.02.441.002.587-.127.97l-.151.45.254.529c.14.29.302.656.362.814.098.26.122.282.262.25.195-.047.338-.215.533-.625.133-.283.154-.402.151-.89-.003-.665-.114-.967-.512-1.399-.213-.232-.698-.618-.775-.618zm-13.46 2.27q-.036 0-.07.002a1.06 1.06 0 0 0-.511.178c-.667.442-.6 1.449.122 1.816.52.264 1.153.04 1.414-.5.364-.75-.246-1.499-.956-1.497zm7.14.052.394.03c.216.016.99.035 1.722.04l1.329.01.112.327c.255.745.474 1.676.405 1.72-.038.022-.407.059-.821.08-.753.038-2.763.035-3.41-.006-.291-.018-.34-.037-.316-.122a34 34 0 0 1 .373-1.357zm-5.558 1.372h-.005c-.085.143-.152.418-.111.457.03.028.427.145.884.261.456.116.875.211.93.213.061 0 .124-.075.167-.204.077-.234.043-.328-.117-.328-.06 0-.477-.092-.927-.206a15 15 0 0 0-.82-.193Zm-.484.933c-.017 0-.114.179-.216.397-.54 1.155-.111 1.993 1.1 2.15.538.071.555.07.62-.01a.7.7 0 0 0 .095-.23l.037-.156-.46-.027c-1.141-.067-1.466-.608-.962-1.6.1-.198.175-.365.165-.37a3 3 0 0 0-.38-.154Zm15.121.01-.087.014a.7.7 0 0 0-.216.066c-.016.015.061.205.171.421.145.287.206.494.223.762.022.345.013.379-.157.548-.19.19-.56.316-.926.316-.227 0-.23.006-.173.295l.039.19.332-.04c.935-.115 1.449-.674 1.34-1.46-.021-.157-.13-.477-.242-.71-.15-.313-.192-.395-.28-.402zm-3.554.758-.13.006c-.132.009-.306.027-.533.053l-.848.094-.23.303c-.29.38-.755.691-1.284.86-.224.073-.419.14-.432.15-.093.072.727.54 1.075.614.14.03.4.042.58.029 1.034-.078 1.802-.782 2.04-1.868.038-.18.03-.245-.238-.24zm-7.74.05q-.119 0-.14.019a.2.2 0 0 0-.047.088.4.4 0 0 0-.009.13c.02.292.252.774.572 1.12.298.324.623.52 1.055.64.588.164 1.388-.002 1.852-.385.218-.179.269-.27.161-.29a.3.3 0 0 0-.056-.004c-.369 0-1.164-.485-1.473-.9a1 1 0 0 0-.214-.236.3.3 0 0 0-.094-.041.5.5 0 0 0-.116-.011 13 13 0 0 1-.892-.084 7 7 0 0 0-.51-.044zm3.95.162c-.93 0-1.69.018-1.69.04 0 .07.48.453.703.56.12.058.337.138.483.179.477.13.939.08 1.45-.16.254-.12.745-.502.746-.58 0-.021-.761-.04-1.691-.04m-.042 1.527-.375.284c-.207.157-.438.305-.513.33l-.038.014-.023.013q-.016.014.004.029c.026.02.104.048.246.094.41.131.955.139 1.359.019l.312-.093-.346-.207a3.5 3.5 0 0 1-.486-.345Zm-1.26 2.363-.166.159c-.192.184-.19.196.168.733.32.481.654.761 1.027.86.15.04.34.058.422.04.452-.096.892-.468 1.24-1.049l.2-.336-.137-.146c-.075-.08-.156-.147-.178-.147-.023 0-.145.178-.272.394-.392.671-.86.962-1.27.792-.236-.098-.649-.563-.863-.972z"/></svg>