<svg xmlns="http://www.w3.org/2000/svg" viewBox="0 0 24 24"><path d="M10.574 21.679c-.79-.37-1.721-1.322-2.145-2.195l-.294-.605-.788.072c-1.077.098-2.475-.332-3.257-1.001-1.475-1.263-1.644-3.157-.452-5.068l.517-.829-.313-.473c-.552-.836-.875-1.866-.875-2.793q0-2.126 1.765-3.017c.797-.403 2.101-.678 2.745-.58.483.075.503.059.971-.756 1.218-2.118 3.274-2.971 5.038-2.092.86.43 1.698 1.269 2.178 2.184l.36.686.975.01c1.806.018 3.07.7 3.736 2.013.305.603.345.832.303 1.745-.04.9-.124 1.2-.58 2.088l-.534 1.037.292.41c1.28 1.8 1.242 3.893-.098 5.233-.818.818-1.737 1.153-3.194 1.163l-1.052.007-.284.585C14.872 20.976 13.407 22 12.013 22a3.35 3.35 0 0 1-1.439-.32zm2.415-2.539c.292-.293.532-.588.532-.657 0-.068-.34-.24-.754-.38-.736-.251-.771-.251-1.508 0-.414.14-.754.312-.754.38 0 .069.24.364.533.657.398.399.643.532.975.532s.577-.133.976-.532m-5.706-3.134a27 27 0 0 0-.14-.798c-.031-.156-.363-.542-.736-.857l-.68-.572-.28.752c-.304.81-.254 1.187.211 1.598.292.257.61.352 1.256.375.447.016.45.01.369-.498m10.66.35c.905-.271 1.085-1.078.492-2.209l-.189-.36-.718.66c-.608.56-.717.734-.717 1.15 0 .269-.038.587-.084.706-.103.27.415.293 1.217.053zm-4.535-1.945 1.278-.739.039-1.59.038-1.59-.742-.476a17 17 0 0 0-1.383-.786l-.64-.31-.744.389c-.41.214-1.023.566-1.363.782l-.619.392v3.13l.651.41c1.02.642 1.87 1.106 2.046 1.116.088.006.736-.322 1.439-.728M6.415 9.718c.52-.434.615-.599.744-1.302l.148-.805h-.532c-.606 0-1.267.295-1.392.623-.15.39-.092 1.035.136 1.515.121.256.239.466.26.466s.309-.224.636-.497M18.64 9.46c.382-1.12-.178-1.848-1.422-1.848-.63 0-.593-.137-.328 1.236.05.26.216.483.446.602.201.105.482.318.624.475.327.361.42.297.68-.465m-5.835-3.417c.394-.147.716-.317.716-.377s-.223-.356-.496-.658c-.411-.455-.583-.549-1.012-.549-.428 0-.6.094-1.012.549-.272.302-.495.602-.495.668 0 .11 1.349.692 1.511.652.04-.01.395-.138.788-.285"/></svg>