<svg xmlns="http://www.w3.org/2000/svg" viewBox="0 0 24 24"><path d="M14.318 9.064h4.415V7.297h-4.415c-1.177 0-1.177-1.766 0-1.766h4.326A4.415 4.415 0 0 0 14.318 2H9.02a4.416 4.416 0 0 0-4.326 3.532H9.02c1.177 0 1.177 1.766 0 1.766H4.606v1.765H9.02c1.177 0 1.177 1.766 0 1.766H4.606v1.766H9.02c1.177.001 1.177 1.767 0 1.766H4.606v.883a4.415 4.415 0 0 0 3.629 4.344c.297.602 1.02 2.405 3.399 2.412 2.467-.007 3.18-1.791 3.47-2.412a4.415 4.415 0 0 0 3.629-4.344v-.883h-4.415c-1.177 0-1.177-1.766 0-1.766h4.415V10.83h-4.415c-1.176-.001-1.176-1.764 0-1.766m-4.415 9.712c0-1.574 1.903-2.361 3.014-1.248 1.113 1.112.325 3.014-1.248 3.014-.975 0-1.766-.79-1.766-1.766"/></svg>