<svg xmlns="http://www.w3.org/2000/svg" viewBox="0 0 192 192"><path d="M93.89 26.3a8 8 0 0 0-4.844 3.75L57.043 86.055a8 8 0 0 0 2.985 10.923 8 8 0 0 0 10.923-2.984l32.003-56.005a8 8 0 0 0-2.985-10.923 8 8 0 0 0-6.079-.766zm15.939 15.783-9.22 16.142 11.282 19.752h-83.68A12.225 12.225 0 0 0 16.43 93.416l17.455 64.85a10.47 10.47 0 0 0 10.11 7.72h104.01a10.481 10.481 0 0 0 10.11-7.72l17.455-64.85a12.225 12.225 0 0 0-11.798-15.439h-33.425zM95.468 95.025a7.04 7.04 0 0 1 6.11 3.407l24.002 40.004a7 7 0 0 1-12.001 7.188L89.577 105.62a7 7 0 0 1 5.891-10.595m-10.251 10.673c.24.677.549 1.334.922 1.969v.016l7.094 11.829-6.907 11.517h-14.75c-.56 0-1.108.045-1.641.14zm-13.642 29.331h30.956l7.61 12.657c.293.48.617.928.969 1.344H71.575a7 7 0 0 1 0-14.001"/></svg>