<svg xmlns="http://www.w3.org/2000/svg" data-name="Layer 1" viewBox="0 0 24 24"><path d="M3.527 9.494a1.528 1.528 0 0 0-1.473 1.93l2.182 8.105c.155.57.673.965 1.264.965h13a1.31 1.31 0 0 0 1.263-.965l2.183-8.105a1.528 1.528 0 0 0-1.475-1.93Zm8.406 2.131a.875.875 0 0 1 .764.426l3 5a.875.875 0 0 1-1.5.898l-3-5a.875.875 0 0 1 .736-1.324m-1.281 1.334c.03.084.068.167.115.246v.002l.887 1.479-.863 1.439H8.947c-.07 0-.138.007-.205.018zm-1.705 3.666h3.87l.95 1.582c.036.06.077.115.121.168H8.947a.875.875 0 0 1 0-1.75" style="fill:#000;stroke-width:.869414"/><path d="m8 11 4-7" style="fill:none;stroke:#000;stroke-width:2;stroke-linecap:round;stroke-linejoin:miter;stroke-miterlimit:4;stroke-dasharray:none;stroke-opacity:1"/><path d="m13.728 5.008-1.152 2.017 2.554 4.471a1 1 0 0 0 1.366.373 1 1 0 0 0 .373-1.365z" style="color:#000;fill:#000;stroke-linecap:round;-inkscape-stroke:none"/></svg>