<svg xmlns="http://www.w3.org/2000/svg" width="24" height="24" preserveAspectRatio="xMidYMid" viewBox="0 0 1.229 1.229"><path fill="#fff" d="m.554.467.17.167a.064.064 0 0 0 .09 0 .061.061 0 0 0 0-.088L.644.38A.326.326 0 0 0 .197.373L.192.38a.309.309 0 0 0 .003.438l.17.167a.064.064 0 0 0 .09 0 .061.061 0 0 0 0-.088L.285.73A.186.186 0 0 1 .284.465a.193.193 0 0 1 .27.002m.22-.222a.06.06 0 0 0 0 .087L.944.5a.186.186 0 0 1 .002.265.193.193 0 0 1-.27-.002L.505.595a.064.064 0 0 0-.09 0 .061.061 0 0 0 0 .088L.587.85c.122.119.32.121.444.006L1.037.85a.309.309 0 0 0-.003-.438L.863.245a.064.064 0 0 0-.09 0z" style="fill:#000;fill-opacity:1;stroke-width:.42956"/></svg>