<svg xmlns="http://www.w3.org/2000/svg" viewBox="0 0 24 24"><path d="M4.535 4.219a.184.184 0 0 0-.131.054l-2.35 2.35a.184.184 0 0 0 0 .26l7.68 7.68a4.852 4.852 0 0 0-.343 1.791 4.903 4.903 0 0 0 4.892 4.892c.625 0 1.222-.12 1.772-.334l-1.191-1.192a3.404 3.404 0 0 1-3.996-3.366c0-1.895 1.52-3.415 3.415-3.415s3.415 1.52 3.415 3.415c0 .285-.035.562-.1.826l1.155 1.155a4.85 4.85 0 0 0 .422-1.98 4.903 4.903 0 0 0-4.892-4.893 4.85 4.85 0 0 0-1.999.43l-7.619-7.62a.184.184 0 0 0-.13-.053z" opacity=".6"/><path d="M16.087 2.754a.086.086 0 0 0-.087.087v10.526a3.446 3.446 0 1 0-1.716 6.433 3.446 3.446 0 0 0 3.446-3.446V6.096h4.184A.087.087 0 0 0 22 6.009V2.84a.087.087 0 0 0-.087-.087z"/></svg>