<svg xmlns="http://www.w3.org/2000/svg" viewBox="0 0 24 24"><path d="M10.039 21.835c-2.713-.447-3.72-1.142-3.939-2.718-.036-.261-.146-.988-.244-1.616-.099-.628-.25-1.613-.334-2.189-.177-1.194-.471-3.12-.67-4.377a45.575 45.575 0 0 1-.18-1.236c-.024-.21-.109-.788-.188-1.285a230.687 230.687 0 0 1-.583-3.853c-.046-.353-.14-.559-.364-.794l-.301-.317.303-.256c.535-.45 1.795-.76 4.169-1.025 2.18-.243 6.79-.22 8.991.047 2.324.281 3.542.61 3.957 1.069.162.179.157.197-.126.493-.217.226-.311.432-.357.782-.068.525-.36 2.448-.583 3.854a46.48 46.48 0 0 0-.189 1.284c-.024.21-.105.766-.18 1.237a560.93 560.93 0 0 0-.668 4.377 308.5 308.5 0 0 1-.334 2.189 131.31 131.31 0 0 0-.245 1.616c-.221 1.595-1.206 2.265-3.986 2.716a11.789 11.789 0 0 1-3.949.002zm1.44-4.907c.176-.079.404-.197.507-.261.62-.39.923-.548.982-.511.038.023.571.094 1.186.157 1.339.138 2.287.017 2.464-.314.266-.497-.1-1.45-1.01-2.634l-.411-.534.37-.213c.205-.117.371-.246.371-.286 0-.04-.246-.216-.547-.393-1.223-.717-1.221-.715-1.585-1.655-.406-1.046-1.05-2.06-1.419-2.235-.559-.266-1.03.083-1.612 1.192-.187.356-.432.894-.545 1.195s-.234.545-.27.544a1.309 1.309 0 0 1-.302-.14c-.42-.24-.45-.194-.491.746l-.04.888-.566.75c-.973 1.283-1.302 2.042-1.15 2.647.108.43 1.019.562 2.795.407l.88-.076v.435c0 .24.016.435.036.435s.18-.064.356-.144zm-2.772-1.742c0-.146.45-.837.904-1.387.298-.361.568-.55 1.251-.871.48-.226.895-.45.925-.498.03-.048-.14-.226-.375-.395-.347-.249-.417-.347-.369-.514.145-.498.863-2.002.973-2.038.131-.043.616.931 1.02 2.05.185.514.238.846.238 1.483 0 .452.04.821.09.821s.244-.09.432-.202l.343-.202.353.408c.347.402.87 1.213.874 1.352.003.122-.893.08-1.677-.08-.554-.112-.952-.272-1.534-.618-.433-.257-.826-.467-.875-.467-.049 0-.102.203-.118.452l-.029.452-.476.118c-.718.178-1.95.264-1.95.136z"/></svg>