<svg xmlns="http://www.w3.org/2000/svg" width="24" height="24" viewBox="0 0 24 24"><path d="m2.187 4.147 12.09 12.09a.514.514 0 0 0 .727 0l2.253-2.253a1.443 1.443 0 0 0 0-2.04L8.591 3.278a1.76 1.76 0 0 0-1.241-.515H2.76a.81.81 0 0 0-.573 1.384m6.892 10.598v6.107a.543.543 0 0 0 .927.384l2.782-2.782a1.31 1.31 0 0 0 0-1.854l-2.398-2.398a.768.768 0 0 0-1.311.543m9.199-5.489V3.149a.543.543 0 0 0-.927-.385l-2.782 2.782a1.31 1.31 0 0 0 0 1.855l2.398 2.398a.768.768 0 0 0 1.311-.543m3.603-4.932-1.6-1.6a.407.407 0 0 0-.695.288v1.312a.984.984 0 0 0 .984.984h.904a.576.576 0 0 0 .407-.984"/></svg>