<svg xmlns="http://www.w3.org/2000/svg" viewBox="0 0 24 24"><path d="M19.715 2.635a.9.9 0 0 0-.498.05.9.9 0 0 0-.547.82v1.24a1.44 1.44 0 0 0 1.43 1.43h.855c.445 0 .818-.288.967-.646a1.06 1.06 0 0 0-.227-1.14l-1.512-1.513a.9.9 0 0 0-.469-.242zm-.041 1.153 1.312 1.311c.028.029.018.026.009.047-.008.02.001.026-.04.026h-.854a.42.42 0 0 1-.427-.428zM17.24 2.637a1 1 0 0 0-.537.278l-2.63 2.63a1.75 1.75 0 0 0 0 2.463l2.267 2.267c.372.371.917.44 1.338.266a1.24 1.24 0 0 0 .759-1.135V3.633c0-.431-.28-.794-.627-.938a1.03 1.03 0 0 0-.57-.059zm.185.986c.01.004.007-.016.007.01v5.773c0 .121-.055.172-.138.207s-.159.037-.244-.049l-2.267-2.266a.73.73 0 0 1 0-1.043l2.63-2.63c.019-.019.002-.006.012-.002m-7.242 9.765a1.24 1.24 0 0 0-.688.071 1.24 1.24 0 0 0-.758 1.135v5.773c0 .431.28.794.627.938a1.03 1.03 0 0 0 1.106-.22l2.63-2.63a1.75 1.75 0 0 0 0-2.463l-2.267-2.267a1.2 1.2 0 0 0-.65-.337m-.182.978a.22.22 0 0 1 .123.07l2.266 2.266a.73.73 0 0 1 0 1.043l-2.63 2.63c-.018.019-.002.007-.012.003s-.007.013-.007-.01v-5.774c0-.12.055-.172.139-.207a.23.23 0 0 1 .121-.02zm-6.735-11.6c-.543 0-.991.348-1.172.783s-.11.998.275 1.382L13.797 16.36a.996.996 0 0 0 1.398 0l2.13-2.13a1.874 1.874 0 0 0 0-2.639L9.133 3.4a2.16 2.16 0 0 0-1.529-.633zm0 1.005h4.339c.307 0 .601.121.818.339l8.192 8.192c.34.34.34.878 0 1.218l-2.118 2.119L3.08 4.222c-.099-.099-.098-.19-.058-.288s.105-.163.244-.163"/></svg>