<svg version="1.1" viewBox="0 0 192 192" xmlns="http://www.w3.org/2000/svg"><path d="m54.854 46.729c-1.3486 0.06573-2.7117 0.33324-4.0502 0.82042-4.5668 1.6622-7.6969 5.4722-8.6873 9.8685l-25.28 69.457c-2.5983 7.1387 1.0571 14.977 8.1959 17.576s14.977-1.0572 17.576-8.1959l12.945-35.565 12.944 35.565c2.1348 5.8652 7.8073 9.371 13.722 8.9969 5.9149 0.37372 11.587-3.1319 13.722-8.9969l12.945-35.565 12.944 35.565c2.1348 5.8652 7.8074 9.3709 13.722 8.9969 5.9149 0.37372 11.587-3.1319 13.722-8.9969l25.889-71.129c2.5983-7.1387-1.0564-14.977-8.1952-17.576-7.1387-2.5983-14.978 1.0571-17.576 8.1959l-13.839 38.024-13.23-36.348c-0.98953-4.3977-4.1206-8.2093-8.6887-9.8719-1.5706-0.57164-3.1732-0.82397-4.7483-0.81972-1.5753-0.0043-3.1782 0.24801-4.749 0.81972-4.5668 1.6622-7.6969 5.4722-8.6873 9.8685l-13.23 36.351-13.23-36.348c-0.98953-4.3977-4.1206-8.2093-8.6887-9.8719-1.5706-0.57164-3.1733-0.82397-4.7483-0.81972-0.23294-6.39e-4 -0.46475-0.0121-0.69877-6.91e-4z"/></svg>
