<svg xmlns="http://www.w3.org/2000/svg" viewBox="0 0 24 24"><path d="M11.397 20.08a.31.31 0 0 1-.557.188l-1.748-2.295a.31.31 0 0 1-.056-.253l1.748-8.092c.078-.363.613-.306.613.066zM10.203 3.757c.185-.294.64-.11.566.23l-2.813 13a.31.31 0 0 1-.303.245H2.31a.31.31 0 0 1-.262-.475zm2.4 16.323a.31.31 0 0 0 .556.188l1.748-2.295a.31.31 0 0 0 .057-.253l-1.749-8.092c-.078-.363-.613-.306-.613.066zm1.193-16.323c-.184-.294-.64-.11-.566.23l2.813 13a.31.31 0 0 0 .303.245h5.343a.31.31 0 0 0 .263-.475z"/></svg>