<svg xmlns="http://www.w3.org/2000/svg" viewBox="0 0 24 24"><path d="M3.004 12V3l6.5.03c6.364.03 6.516.034 7.31.214 2.882.651 4.182 2.031 4.182 4.437 0 1.3-.376 2.152-1.35 3.06a5 5 0 0 1-1.649 1.013c-.23.085-.22.093.51.459 1.226.614 2.02 1.514 2.358 2.674.081.278.13.766.13 1.283 0 1.41-.348 2.348-1.183 3.174-.612.607-1.389 1.012-2.455 1.28-1.202.302-2.151.376-4.823.376H10.09l.026-1.713c.03-1.937.091-2.178.634-2.515.286-.178.401-.19 2.368-.229 1.769-.035 2.098-.061 2.283-.183.137-.09.437-.572.821-1.32.333-.648.618-1.225.633-1.282.02-.081-.556-.103-2.683-.101-2.457.001-2.74.016-3.039.154-.427.197-.67.468-.869.967l-.16.404.02-2.146c.018-2.016.03-2.166.196-2.476.436-.814.615-.859 3.463-.863 2.876-.005 2.629.104 3.483-1.531.331-.635.623-1.263.648-1.32.037-.083-1.073-.038-5.513-.021l-5.559.021-.021 7.077L6.8 21H3.004z"/></svg>