<svg xmlns="http://www.w3.org/2000/svg" viewBox="0 0 24 24"><path d="M21.229 8.885c.09.947.046 1.74-.016 2.455-.104 1.199-.304 1.916-.593 2.684a13 13 0 0 1-1.054 2.195l-.023.039a8 8 0 0 1-.27.424l-.03-.032a8 8 0 0 0-.227-.232c-.16-.16-.608-.746-.734-.926a6.5 6.5 0 0 1-.488-.811l-.068-.145-.126.099a.61.61 0 0 0-.208.494c.003.18.044.387.153.767a7.2 7.2 0 0 0 .658 1.518c.167.3.232.438.153.496a.06.06 0 0 1-.037.01c-.1 0-.282-.094-.49-.253-.185-.14-.68-.56-1.279-1.396a12.6 12.6 0 0 1-1.163-1.991l-.052-.11s-.076.027-.146.07a.3.3 0 0 0-.12.118.77.77 0 0 0-.067.472c.055.445.316 1.125.527 1.616.356.828 1.01 1.76 1.497 2.397l.064.077c.026.03.069.08.09.114-.042.043-.142.124-.262.223l-.18.146a13.4 13.4 0 0 1-2.073 1.41c-.608.34-1.845.968-2.665 1.187-.82-.22-2.057-.847-2.665-1.187a13.3 13.3 0 0 1-2.074-1.41l-.184-.15a4 4 0 0 1-.26-.221l.156-.189c.486-.634 1.14-1.566 1.498-2.397.21-.49.472-1.168.528-1.616a.77.77 0 0 0-.068-.47.34.34 0 0 0-.154-.142l-.112-.046-.052.109a12.6 12.6 0 0 1-1.163 1.991c-.597.836-1.093 1.255-1.278 1.397-.205.156-.392.253-.49.253-.009 0-.024 0-.031-.007l-.018-.014c-.06-.064.008-.203.166-.487l.087-.158c.243-.449.45-.944.57-1.358.109-.381.15-.589.153-.768a.61.61 0 0 0-.21-.494l-.124-.098-.068.144a6.4 6.4 0 0 1-.488.812c-.128.18-.576.767-.734.925-.11.11-.18.183-.228.233l-.03.032a13 13 0 0 1-1.347-2.657c-.288-.77-.488-1.487-.592-2.685-.063-.72-.108-1.515-.016-2.457.092-.962.333-1.869.678-2.556.486-.97 1.093-1.546 1.853-1.76.19-.053.488-.116.823-.116.604 0 1.086.198 1.433.59a.94.94 0 0 1 .194.84c-.068.262-.252.434-.498.55-.064.03-.136.047-.136.047s.008.034.072.14c.243.39.716.596 1.365.596q.228 0 .47-.033c.923-.129 1.34-.712 1.491-1.836.06-.438.116-.807-.166-1.263-.198-.32-.764-.509-1.177-.507-.37.002-.565.098-.683.221-.006-.018-.032-.049-.038-.065a.66.66 0 0 1-.043-.416c.043-.24.234-.465.335-.544a1.9 1.9 0 0 1 .852-.42c.187-.04.384-.074.604-.074.047 0 .204-.001.274.004.03.002.035-.011.057-.038.135-.164.348-.253.735-.244.298.006.696.022 1.008.122.278.089.42.174.581.28a1.3 1.3 0 0 1 .467.618c.124.362.195.813.214 1.334.021 1.037.169 1.667.46 2.042.468.606.869.732 1.353.763h.052c.914 0 1.248-.289 1.396-.51 0 0 .081-.113.114-.177a1.3 1.3 0 0 1-.19-.049.75.75 0 0 1-.464-.524.95.95 0 0 1 .188-.854c.433-.503 1.078-.585 1.424-.59h.04c.27 0 .534.04.784.12.34.107.635.258.877.45.474.379.773.897.98 1.305.34.666.594 1.622.678 2.554"/></svg>