<svg xmlns="http://www.w3.org/2000/svg" width="192" height="192" viewBox="0 0 192 192"><path d="m63.52 66.832 5.32 5.328v19.904l-3.424 3.424 3.424 3.432v20.92l-5.32 5.328H43.464v-24.72H42.08v-9.84h1.384V66.832zm-5.544 9.488H52.88v14.368h5.104zm-5.104 39.376h5.104V100.24H52.88zM93.12 66.84l5.32 5.328v12.608h-10.2V76.32h-5.608v39.376h5.608v-14.512h-3.28v-9.48h13.488v28.144l-5.32 5.328h-15.32l-5.32-5.328V72.16l5.32-5.328zm31.936 0h10.352v58.336H125.2V91.488l-6.048 15.752h-.08l-6.048-15.68v33.616h-10.208V66.832h10.352l5.912 18.52zm24.864 0v58.336h-10.136V66.832zM24.78 49.216a3.096 3.096 0 0 0-3.08 3.088v13.72h-5.696V75.4H21.7v41.92h-5.696v8.656H21.7v13.72a3.088 3.088 0 0 0 3.08 3.088h142.38a3.096 3.096 0 0 0 3.088-3.088V125.44h5.76v-8.664h-5.76v-42.6h5.76v-8.24h-5.76V52.304a3.096 3.096 0 0 0-3.088-3.08H24.78zm6 8.704h130.38v76.2H30.78z"/></svg>