<svg xmlns="http://www.w3.org/2000/svg" xml:space="preserve" viewBox="0 0 24 24"><path d="M10.917 12.175c.36-.18.583-.57.583-1.047 0-.816-.636-1.37-1.533-1.37h-2.58c-.057 0-.1.044-.1.1v5.037c0 .057.043.1.1.1h2.467c1.233 0 1.883-.53 1.883-1.57.003-1.013-.82-1.25-.82-1.25zm-2.66-1.657h1.53c.563 0 .85.24.85.687 0 .447-.287.687-.85.687h-1.53a.098.098 0 0 1-.1-.1v-1.174c0-.056.043-.1.1-.1m1.547 3.717h-1.55a.1.1 0 0 1-.1-.1v-1.39a.1.1 0 0 1 .1-.1h1.55c.74 0 1.07.21 1.07.793 0 .59-.324.797-1.07.797m-4.177-2.06c.36-.18.583-.57.583-1.047 0-.816-.637-1.37-1.533-1.37H2.1c-.057 0-.1.044-.1.1v5.037c0 .057.043.1.1.1h2.467c1.233 0 1.883-.53 1.883-1.57 0-1.013-.823-1.25-.823-1.25zm-2.66-1.657h1.53c.563 0 .85.24.85.687 0 .447-.287.687-.85.687h-1.53a.1.1 0 0 1-.1-.1v-1.174c0-.056.043-.1.1-.1m1.55 3.717h-1.55a.098.098 0 0 1-.1-.1v-1.39a.1.1 0 0 1 .1-.1h1.55c.74 0 1.07.21 1.07.793-.003.59-.323.797-1.07.797m12.867-.05 1.72-3.273c.037-.07.143-.07.18 0l1.72 3.273c.017.033.05.053.087.053h.833c.057 0 .093-.06.067-.11l-2.71-5.073c-.037-.07-.137-.07-.177 0l-2.71 5.073c-.027.05.01.11.066.11h.834a.116.116 0 0 0 .09-.053zm-.977-4.37-1.72 3.273c-.037.07-.143.07-.18 0l-1.72-3.273a.096.096 0 0 0-.087-.053h-.833a.075.075 0 0 0-.067.11l2.71 5.073c.037.07.137.07.177 0l2.71-5.073a.075.075 0 0 0-.066-.11h-.834c-.04 0-.073.02-.09.053"/></svg>