<svg xmlns="http://www.w3.org/2000/svg" viewBox="0 0 24 24"><path d="M16.867 12.841a3.1 3.1 0 0 0-.575-1.283c-.575-.797-1.571-1.261-2.854-1.261-2.036 0-3.252 1.393-3.629 2.832-.31-1.018-1.238-1.726-2.146-1.992.708-.53 1.085-1.26 1.085-2.101 0-.775-.31-1.483-.863-1.947-.841-.708-1.947-.841-3.275-.841H2v11.283h2.234c.686 0 1.284 0 1.903-.022 1.903-.067 3.208-1.04 3.628-2.456.155.642.399 1.173.775 1.57.752.797 1.792 1.13 2.876 1.13 1.327 0 2.279-.377 2.92-.952l-.929-1.084c-.465.376-1.084.553-1.748.553-1.327 0-1.903-.84-1.969-1.66h5.2v2.943h1.946V6.27H16.89zM3.991 7.753h.531c.53 0 .93.066 1.239.176.575.222.863.708.863 1.262 0 .486-.177 1.26-1.24 1.482-.176.022-.42.066-.774.066h-.619zm2.19 8.119c-.243.022-.53.066-.796.066H3.99v-3.694h1.261c.398 0 .84.022 1.106.088.885.244 1.394.863 1.394 1.682 0 .907-.464 1.637-1.57 1.858m5.531-2.743c.177-.841.775-1.416 1.66-1.416s1.482.53 1.659 1.416zm8.385-6.859H22v11.217h-1.903z"/></svg>