<svg xmlns="http://www.w3.org/2000/svg" viewBox="0 0 24 24"><path d="m2 8.349 1.094 1.09.485-.486c2.377-2.377 5.834-3.68 9.189-3.463 3.082.2 6.083 1.686 8.14 3.993L22 8.387c-2.329-2.58-5.657-4.213-9.133-4.438C9.051 3.7 5.19 5.157 2.487 7.86zm3.001 2.393-.294.304 1.095 1.09.309-.319c1.634-1.688 4.063-2.625 6.407-2.473 2.162.14 4.272 1.208 5.689 2.85l1.092-1.096c-1.688-1.915-4.125-3.13-6.68-3.296A9.829 9.829 0 0 0 5 10.742zm2.963 3.06a5.531 5.531 0 0 0-.224.232l-.016.017 1.096 1.091.062-.068a4.24 4.24 0 0 1 3.347-1.337c1.113.08 2.211.66 2.92 1.528l1.094-1.099a5.726 5.726 0 0 0-3.905-1.97 5.725 5.725 0 0 0-4.374 1.606zm2.78 3.211a1.777 1.777 0 0 0-.542 1.165 1.793 1.793 0 0 0 1.666 1.897 1.793 1.793 0 0 0 1.896-1.666 1.793 1.793 0 0 0-1.666-1.897 1.782 1.782 0 0 0-1.354.501m.687.76a.75.75 0 0 1 .601-.233c.422.027.732.38.705.802a.748.748 0 0 1-.803.705.748.748 0 0 1-.704-.802.756.756 0 0 1 .2-.471"/></svg>