<svg xmlns="http://www.w3.org/2000/svg" width="24" height="24" fill="none" viewBox="0 0 24 24"><path fill="#000" fill-rule="evenodd" d="M19.814 11.96v2.221h.902l-.004-2.216-.004-2.216-.447-.004-.447-.005zM2 11.97v2.213l1.097-.007c1.17-.007 1.161-.006 1.422-.097.336-.117.61-.343.739-.61.09-.187.124-.35.124-.596 0-.23-.039-.408-.125-.57a1.6 1.6 0 0 0-.432-.453l-.11-.068.116-.12c.227-.232.311-.49.275-.841-.057-.559-.316-.848-.903-1.008l-.165-.045-1.019-.006L2 9.756zm7.528 0v2.211h.85V12.5h.792l.466.84.465.842h.45c.373 0 .449-.004.441-.023a74 74 0 0 0-.525-.923 39 39 0 0 1-.523-.928c-.005-.02.022-.045.094-.086.14-.079.416-.36.488-.498.109-.208.128-.287.137-.561.008-.217.004-.273-.027-.395-.095-.374-.285-.596-.67-.784-.42-.204-.571-.225-1.627-.225h-.81zm-5.707-1.474c.28.066.389.208.39.512 0 .132-.005.16-.051.25a.4.4 0 0 1-.136.16c-.163.11-.35.143-.84.143H2.85V10.47h.43c.323 0 .456.007.541.027m7.398 0c.26.054.438.187.512.382.044.118.055.365.02.486-.05.178-.203.315-.436.392-.1.033-.162.038-.525.045l-.412.007V10.47h.36c.25 0 .397.008.481.026m-4.074.46a1.57 1.57 0 0 0-.73.306c-.33.267-.535.693-.562 1.167-.039.663.141 1.127.574 1.478.332.27.907.408 1.397.336a2.1 2.1 0 0 0 .637-.184c.232-.115.222-.08.105-.376l-.125-.312-.023-.055-.108.049c-.4.18-.765.215-1.065.103a.8.8 0 0 1-.458-.478 1 1 0 0 1-.034-.113c0-.008.477-.014 1.06-.014h1.06l-.008-.317c-.008-.264-.016-.344-.053-.483-.155-.59-.474-.952-.944-1.075a2.6 2.6 0 0 0-.723-.032m7.354 0a1.57 1.57 0 0 0-.73.306c-.329.267-.534.693-.562 1.167-.038.663.142 1.127.574 1.478.333.27.907.408 1.398.336a2.1 2.1 0 0 0 .637-.184c.232-.115.222-.08.104-.376l-.124-.312-.023-.055-.108.049c-.4.18-.765.215-1.065.103a.8.8 0 0 1-.459-.478 1 1 0 0 1-.034-.113c0-.008.478-.014 1.06-.014h1.061l-.009-.317c-.007-.264-.016-.344-.052-.483-.155-.59-.474-.952-.944-1.075a2.6 2.6 0 0 0-.724-.032m3.213.034c-.18.028-.316.07-.477.148-.332.16-.545.444-.588.784l-.011.092.395-.005.396-.005.023-.071a.45.45 0 0 1 .251-.26c.097-.043.13-.049.283-.05.145 0 .188.007.26.04.188.085.254.195.266.44l.008.168-.059.009a10 10 0 0 1-.423.028c-.59.03-.793.068-1.045.193a.83.83 0 0 0-.49.778c0 .532.408.924.989.95.232.01.393-.023.59-.12a1.24 1.24 0 0 0 .411-.353l.038-.052v.239l.002.238h.832v-1.123c0-.92-.005-1.145-.026-1.245-.082-.394-.383-.675-.846-.79a3 3 0 0 0-.779-.033m-10.014.744a.7.7 0 0 1 .174.125.86.86 0 0 1 .175.358l.011.073h-.654c-.614 0-.653-.001-.644-.03l.02-.082a.66.66 0 0 1 .457-.49.73.73 0 0 1 .461.046m7.355 0c.06.03.138.086.173.125a.86.86 0 0 1 .175.358l.012.073h-.654c-.614 0-.653-.001-.645-.03.005-.017.015-.054.021-.082a.66.66 0 0 1 .457-.49.73.73 0 0 1 .46.046M4.07 12.28c.274.09.406.262.423.548.016.284-.075.447-.314.563-.169.082-.299.096-.863.096H2.85v-1.253l.568.01c.457.006.585.014.653.036Zm14.442.675c0 .08-.011.183-.025.23-.078.258-.379.44-.695.42-.226-.015-.378-.117-.423-.286-.06-.221.096-.407.382-.456.112-.02.452-.045.653-.05l.108-.002zm2.654.784v.442H22v-.885h-.833v.443" clip-rule="evenodd"/></svg>