<svg xmlns="http://www.w3.org/2000/svg" viewBox="0 0 24 24"><path d="M11.508 13.394c0 .632-.11 1.201-.327 1.686a3.3 3.3 0 0 1-.945 1.224 4.1 4.1 0 0 1-1.49.737c-.586.17-1.241.253-1.977.253a7.2 7.2 0 0 1-1.977-.253c-.586-.169-1.093-.41-1.5-.738a3.2 3.2 0 0 1-.954-1.223C2.109 14.595 2 14.026 2 13.394s.11-1.202.338-1.687a3.4 3.4 0 0 1 .954-1.223 4.2 4.2 0 0 1 1.5-.737 7.2 7.2 0 0 1 1.977-.253 7.2 7.2 0 0 1 1.977.253c.586.168 1.083.41 1.49.737a3.3 3.3 0 0 1 .945 1.224c.218.495.327 1.054.327 1.686m10.114 0c0 .632-.108 1.201-.327 1.686a3.3 3.3 0 0 1-.944 1.224 4.1 4.1 0 0 1-1.49.737c-.587.17-1.242.253-1.977.253a7.2 7.2 0 0 1-1.978-.253c-.586-.169-1.092-.41-1.5-.738a3.2 3.2 0 0 1-.954-1.223c-.228-.485-.338-1.054-.338-1.686 0-.633.11-1.202.338-1.687a3.4 3.4 0 0 1 .954-1.223 4.2 4.2 0 0 1 1.5-.738 7.2 7.2 0 0 1 1.978-.253c.725 0 1.39.084 1.976.253s1.084.411 1.49.738a3.3 3.3 0 0 1 .945 1.223c.218.495.327 1.054.327 1.687m-.576-3.585-.764-.759a3.09 3.09 0 0 0-2.504-.833l-1.382.18-.168-1.477 1.38-.179c1.313-.169 2.624.274 3.607 1.202l.01.01.775.77z"/></svg>