<svg xmlns="http://www.w3.org/2000/svg" width="192" height="192" viewBox="0 0 192 192"><path d="M92.064 107.15c0 5.056-.88 9.608-2.616 13.488a26.4 26.4 0 0 1-7.56 9.792 32.8 32.8 0 0 1-11.92 5.896c-4.688 1.36-9.928 2.024-15.816 2.024a57.6 57.6 0 0 1-15.816-2.024c-4.688-1.352-8.744-3.28-12-5.904a25.6 25.6 0 0 1-7.632-9.784C16.872 116.758 16 112.206 16 107.15s.88-9.616 2.704-13.496a27.2 27.2 0 0 1 7.632-9.784 33.6 33.6 0 0 1 12-5.896 57.6 57.6 0 0 1 15.816-2.024 57.6 57.6 0 0 1 15.816 2.024c4.688 1.344 8.664 3.28 11.92 5.896a26.4 26.4 0 0 1 7.56 9.792c1.744 3.96 2.616 8.432 2.616 13.488m80.912 0c0 5.056-.864 9.608-2.616 13.488a26.4 26.4 0 0 1-7.552 9.792 32.8 32.8 0 0 1-11.92 5.896c-4.696 1.36-9.936 2.024-15.816 2.024a57.6 57.6 0 0 1-15.824-2.024c-4.688-1.352-8.736-3.28-12-5.904a25.6 25.6 0 0 1-7.632-9.784c-1.824-3.88-2.704-8.432-2.704-13.488 0-5.064.88-9.616 2.704-13.496a27.2 27.2 0 0 1 7.632-9.784 33.6 33.6 0 0 1 12-5.904 57.6 57.6 0 0 1 15.824-2.024c5.8 0 11.12.672 15.808 2.024s8.672 3.288 11.92 5.904a26.4 26.4 0 0 1 7.56 9.784c1.744 3.96 2.616 8.432 2.616 13.496m-4.608-28.68-6.112-6.072a24.72 24.72 0 0 0-20.032-6.664l-11.056 1.44-1.344-11.816 11.04-1.432c10.504-1.352 20.992 2.192 28.856 9.616l.08.08 6.2 6.16z"/></svg>