<svg xmlns="http://www.w3.org/2000/svg" width="24" height="24"><path d="m7.94 8.354.665.666v2.488l-.428.428.428.429v2.615l-.665.666H5.433v-3.09H5.26v-1.23h.173V8.354zM7.247 9.54H6.61v1.796h.638zm-.638 4.922h.638v-1.932H6.61zm5.031-6.107.665.666v1.576H11.03V9.54h-.701v4.922h.701v-1.814h-.41v-1.185h1.686v3.518l-.665.666H9.726l-.665-.666V9.02l.665-.666zm3.992 0h1.294v7.292H15.65v-4.211l-.756 1.969h-.01l-.756-1.96v4.202h-1.276V8.354h1.294l.739 2.315zm3.108 0v7.292h-1.267V8.354ZM3.097 6.152a.387.387 0 0 0-.385.386v1.715H2v1.172h.712v5.24H2v1.082h.712v1.715c0 .213.173.386.385.386h17.797a.387.387 0 0 0 .386-.386V15.68H22v-1.083h-.72V9.272H22v-1.03h-.72V6.538a.387.387 0 0 0-.386-.385H3.097Zm.75 1.088h16.298v9.525H3.847Z"/></svg>