<svg xmlns="http://www.w3.org/2000/svg" data-name="Layer 1" viewBox="0 0 24 24"><path d="M16.51 13.51c-.083.38-.146.69-.174.908-.154 1.064-.436 4.182-.472 5.082 0 .582-.273 2.336-.446 3.5.71-1.01 1.91-2.727 3.046-4.545l.145-.228c.6-1.572.91-2.618.373-3.527-.41-.655-1-.964-2.473-1.19z"/><path d="M21 11.827c0-1.072-.527-1.663-1.818-2.036a5.1 5.1 0 0 0-1.355-.173A17.7 17.7 0 0 0 16.637 13c1.408.227 2.245.545 2.79 1.49a2.66 2.66 0 0 1 .318 1.72A11.5 11.5 0 0 0 21 11.826zM9.51 15.673a11 11 0 0 0-1.365.909l2.155 2.254c.436-.79 1.582-2.936 2.045-4.063l.137-.328.127-.3A15.6 15.6 0 0 0 9.945 15.4zm.58-4.128c-1.454.61-3.817 1.819-4.663 2.21l2.237 2.354c.272-.409.672-1.027.99-1.6a32 32 0 0 0 1.437-2.964m.673-.227a32 32 0 0 1-1.646 3.473c-.163.29-.345.59-.518.909l.645-.4.419-.245a16.4 16.4 0 0 1 3.2-1.464c.445-1.073.972-2.418 1.263-3.355-1.027.219-2.218.655-3.363 1.082m7.1-2.791a6 6 0 0 1 1.818-1.872 1.43 1.43 0 0 0-1.173-.791 4 4 0 0 0-1.736.6c-.428.209-.91.454-1.518.7a14 14 0 0 1-.391 2.3 15 15 0 0 1 2.663-.337 5 5 0 0 1 .337-.6m-.082-1.936.49-.273a1.3 1.3 0 0 1 0 .455.44.44 0 0 1-.336.182.72.72 0 0 1-.436-.255 1.2 1.2 0 0 0 .282-.109m-8.6-2.127A2.62 2.62 0 0 1 11 5.864a4.3 4.3 0 0 1 .436 1.954 33 33 0 0 0 3.319-1.045 7.5 7.5 0 0 0-.119-1.573 2.4 2.4 0 0 0-.709-1.527 2.27 2.27 0 0 0-1.5-.4h-.445a12.8 12.8 0 0 0-3.991 1.19 5 5 0 0 1 .6 0 3.6 3.6 0 0 1 .59 0z"/><path d="M10.573 6.082a2.07 2.07 0 0 0-1.518-1.127 2.6 2.6 0 0 0-.473 0 9.6 9.6 0 0 0-2.955.69C4.637 6.174 2.218 7.683 1 8.5h.973a52 52 0 0 0 8.972-.59 3.85 3.85 0 0 0-.372-1.828M11 10.655c1.118-.4 2.31-.81 3.3-1.073a16 16 0 0 0 .418-2.237c-.909.337-1.99.655-3.254.982A7.3 7.3 0 0 1 11 10.655m5.118 2.281a19 19 0 0 1 1.127-3.3 14.6 14.6 0 0 0-2.536.373c-.236.864-.745 2.182-1.2 3.318a8.8 8.8 0 0 1 2.336-.4z"/></svg>