<svg xmlns="http://www.w3.org/2000/svg" viewBox="0 0 192 192"><path d="M103.56 20.087a98.56 98.56 0 0 0-30.74 9.159 38.5 38.5 0 0 1 4.632 0 27.72 27.72 0 0 1 4.542 0v.015a20.174 20.174 0 0 1 14 10.768 33.11 33.11 0 0 1 3.355 15.054 254.1 254.1 0 0 0 25.566-8.046 57.75 57.75 0 0 0-.918-12.121 18.48 18.48 0 0 0-5.46-11.746 17.479 17.479 0 0 0-11.55-3.083zM77.377 33.036a73.92 73.92 0 0 0-22.754 5.309C47 42.418 28.374 54.04 18.995 60.332h7.49a400.4 400.4 0 0 0 69.089-4.542A29.645 29.645 0 0 0 92.7 41.713a15.939 15.939 0 0 0-11.685-8.677 20.02 20.02 0 0 0-3.64 0zm76.444 6.993a30.8 30.8 0 0 0-13.37 4.632c-3.296 1.61-7.004 3.49-11.685 5.384a107.8 107.8 0 0 1-3.023 17.716 115.5 115.5 0 0 1 20.513-2.602 38.5 38.5 0 0 1 2.587-4.617 46.2 46.2 0 0 1 14-14.422 11.011 11.011 0 0 0-9.022-6.09zm-1.835 3.504a10.01 10.01 0 0 1 0 3.504 3.388 3.388 0 0 1-2.586 1.399 5.544 5.544 0 0 1-3.354-1.97 9.24 9.24 0 0 0 2.165-.827zm-27.356 7.91c-7 2.596-15.322 5.033-25.055 7.55a56.21 56.21 0 0 1-3.58 17.927c8.61-3.08 17.794-6.23 25.417-8.256a123.2 123.2 0 0 0 3.218-17.22zm23.927 17.49a136.29 136.29 0 0 0-9.159 26.049c10.842 1.748 17.294 4.198 21.491 11.475a20.482 20.482 0 0 1 2.437 13.249 88.55 88.55 0 0 0 9.67-33.763c0-8.255-4.06-12.8-14.001-15.671a38.5 38.5 0 0 0-10.437-1.339zm-4.481.151a112.42 112.42 0 0 0-19.521 2.873c-1.818 6.652-5.73 16.789-9.234 25.536a67.76 67.76 0 0 1 17.987-3.068l2.09.06a146.3 146.3 0 0 1 8.678-25.401zm-24.002 4.617c-7.908 1.686-17.081 5.044-25.897 8.332a246.4 246.4 0 0 1-12.678 26.739c-1.255 2.233-2.654 4.537-3.986 6.993l4.963-3.068 3.234-1.895a126.28 126.28 0 0 1 24.634-11.264c3.426-8.262 7.49-18.622 9.73-25.837zM88.988 83.777c-11.196 4.697-29.384 14.014-35.898 17.024l17.22 18.122c2.094-3.15 5.176-7.905 7.624-12.317a246.4 246.4 0 0 0 11.07-22.829zm49.433 15.13c-.64 2.925-1.123 5.314-1.339 6.992-1.186 8.193-3.362 32.202-3.64 39.132 0 4.482-2.096 17.987-3.428 26.95 5.467-7.777 14.714-20.997 23.46-34.996l1.114-1.76c4.62-12.103 7.007-20.16 2.872-27.16-3.157-5.044-7.697-7.419-19.039-9.159zm-30.033 4.887a120.12 120.12 0 0 0-20.513 9.67l-3.354 2.105a84.7 84.7 0 0 0-10.512 6.994l16.603 17.355c3.357-6.083 12.18-22.603 15.746-31.281l1.053-2.527z"/></svg>