<svg xmlns="http://www.w3.org/2000/svg" viewBox="0 0 24 24"><path d="M12 3c-4.962 0-9 4.037-9 9s4.037 9 9 9 9-4.037 9-9-4.037-9-9-9m0 17.199c-4.52 0-8.199-3.678-8.199-8.199S7.48 3.802 12 3.802 20.199 7.48 20.199 12 16.52 20.2 12 20.2zm4.002-11.103c-.092-.938-.79-1.669-1.636-1.669-.846 0-1.544.731-1.636 1.669h-.498v.801h.49v3.47l-1.852-1.919a1.701 1.701 0 0 0-.824-3.186c-.937 0-1.7.762-1.7 1.7 0 .696.421 1.295 1.022 1.558l-2.15 2.15.566.567 2.373-2.373 1.133 1.174-2.353 2.208.549.585 2.36-2.216.875.906v1.651h.801V9.897h1.688v6.275h.801V9.897h.488v-.801zm-5.956-.033a.9.9 0 0 1 0 1.797.9.9 0 0 1 0-1.797m4.32-.834c.41 0 .752.373.83.867h-1.66c.077-.494.42-.867.83-.867M12 5.025c-3.847 0-6.976 3.129-6.976 6.975s3.13 6.976 6.976 6.976 6.975-3.13 6.975-6.976S15.847 5.025 12 5.025m0 13.15c-3.404 0-6.174-2.77-6.174-6.175S8.596 5.826 12 5.826s6.174 2.77 6.174 6.174-2.77 6.175-6.174 6.175"/></svg>