<svg xmlns="http://www.w3.org/2000/svg" viewBox="0 0 24 24"><path d="M6.722 2c-1.204.936-2.028 2.164-2.41 3.632l4.02.005s-.283.431-.376.966c-.094.535-.096 1.69.01 2.188.105.497.366.76.366.76H4.336c.3 1.09.844 2.086 1.572 2.933l-1.667-.002c-1.685-.002-2.252.761-1.257 1.696l7.585 7.133c.994.935 2.583.916 3.53-.041l6.96-7.028c.947-.957.343-1.744-1.343-1.744h-1.224a7.595 7.595 0 0 0 1.581-2.939c-1.215.007-2.35-.003-3.659-.004-.147-.026-.355-.107-.381-.398.001-.974-.004-2.182.002-3.156a.45.45 0 0 1 .402-.38c.393.002 2.907-.01 3.617-.012-.432-1.443-1.324-2.682-2.508-3.605C13.792 2.004 10.583 2 6.722 2zm3.969 3.178c1.324 0 2.638.012 4.052.002.185.009.488.154.49.435l-.01 3.952c0 .3-.279.451-.48.45h-4.052c-.817.007-1.482-.652-1.482-1.794V6.881c.038-.791.765-1.702 1.482-1.703zm.548 1.23c-.17 0-.39.158-.39.41.002.565.002.945 0 1.532 0 .316.213.474.39.474h2.572s.312.004.312-.296v-.505l-.881-.001h-.795c-.153.005-.374-.085-.373-.389-.001-.203.054-.35.196-.429.227-.06.47-.024.705-.036.369.003.976.005 1.148.006V6.72c0-.314-.224-.306-.39-.307-.826-.001-1.678-.006-2.494-.005zm6.32.683a.55.496 0 0 0-.549.496.55.496 0 0 0 .55.495.55.496 0 0 0 .549-.495.55.496 0 0 0-.55-.496zm1.886 0a.55.496 0 0 0-.549.496.55.496 0 0 0 .55.495.55.496 0 0 0 .548-.495.55.496 0 0 0-.549-.496z"/></svg>