<svg xmlns="http://www.w3.org/2000/svg" width="192" height="192" viewBox="0 0 192 192"><path d="M162.67 58.514 117.534 90.45q5.208 6.24 6.24 14.584c.704 4.856-.688 9.72-3.464 13.888l50 23.6a75.2 75.2 0 0 0 8.336-42.352c-2.08-14.584-6.96-29.168-15.976-41.656" opacity=".6"/><path d="M99.544 27.258c-44.44 0-79.848 36.096-80.544 80.544 0 17.36 5.544 34.024 15.968 47.92 4.16 6.24 10.08 9.152 17.36 9.024h93.744c7.12.08 12.504-2.08 15.976-6.944 1.384-2.08 3.472-5.56 3.472-5.56l-52.08-24.312c-2.08 1.392-4.176 2.784-6.256 3.472-13.2 4.168-27.088-2.08-31.248-15.264s2.784-27.08 15.28-31.936a23.2 23.2 0 0 1 18.056 1.384l47.216-33.344A77.28 77.28 0 0 0 99.544 27.25zm-.424 64.528a16 16 0 0 0-1.664.048c-9.032.696-15.28 8.336-14.584 17.36.696 9.032 8.336 15.28 17.36 14.584 9.032-.696 15.28-8.336 14.584-17.36-.648-8.464-7.416-14.48-15.696-14.64z"/></svg>