<svg xmlns="http://www.w3.org/2000/svg" viewBox="0 0 24 24"><path d="m19.959 7.313-5.642 3.992c.434.52.694 1.128.78 1.823.088.607-.086 1.215-.433 1.736l6.25 2.95a9.393 9.393 0 0 0 1.042-5.294c-.26-1.823-.87-3.646-1.997-5.207z" opacity=".6"/><path d="M12.068 3.406C6.513 3.406 2.087 7.918 2 13.474c0 2.17.693 4.253 1.996 5.99.52.78 1.26 1.144 2.17 1.128h11.718c.89.01 1.563-.26 1.997-.868.173-.26.434-.695.434-.695l-6.51-3.039c-.26.174-.522.348-.782.434-1.65.521-3.386-.26-3.906-1.908s.348-3.385 1.91-3.992a2.902 2.902 0 0 1 2.257.173l5.902-4.168a9.66 9.66 0 0 0-7.118-3.124zm-.053 8.066a2.218 2.218 0 0 0-.208.006c-1.129.087-1.91 1.042-1.823 2.17.087 1.129 1.042 1.91 2.17 1.823 1.129-.087 1.91-1.042 1.823-2.17-.081-1.058-.927-1.81-1.962-1.83z"/></svg>