<svg xmlns="http://www.w3.org/2000/svg" viewBox="0 0 24 24"><path d="M2.744 18.795a4.737 4.737 0 0 1-.564-.213c-.226-.11-.23-.115-.063-.085.375.065 1.164.037 1.469-.052.524-.154.816-.62 1.062-1.7.354-1.547.562-2.054 1.048-2.552.39-.398.692-.531 1.21-.531.364 0 .526.042 1.639.424 1.135.39 1.27.424 1.665.426.518.002.896-.144 1.174-.45.196-.218.238-.32.574-1.389.123-.392.35-.964.502-1.269.218-.434.27-.586.24-.698-.21-.784.002-1.98.495-2.797.5-.829 1.081-1.338 2.118-1.853 1.28-.638 2.504-.936 3.84-.936.906 0 1.323.075 1.879.335.394.184.765.562.878.895.343 1.007-.315 2.702-1.69 4.352-.974 1.169-2.15 1.988-3.242 2.257-.756.187-1.683.094-2.424-.241a3.32 3.32 0 0 0-.396-.163c-.084 0-.32.435-.459.84-.468 1.374-1.195 2.326-2.095 2.742-.265.122-.411.151-.857.168-.91.034-1.659-.21-2.652-.865-.912-.602-1.118-.665-1.54-.474-.42.19-.726.67-1.079 1.686-.382 1.1-.844 1.79-1.383 2.065-.362.184-.895.215-1.35.078z"/></svg>