<svg xmlns="http://www.w3.org/2000/svg" viewBox="0 0 24 24"><path d="M6.339 17.196c-1.595-.358-3.282-2.178-3.994-4.307-.296-.885-.372-1.445-.337-2.459.037-1.062.126-1.46.491-2.208.506-1.033 1.24-1.486 2.406-1.484.901.001 1.17.099 3.664 1.33.979.484 1.937.933 2.129.998.507.171 2.104.17 2.606-.002.192-.066 1.207-.542 2.256-1.06 2.464-1.214 2.518-1.233 3.527-1.234.744 0 .82.01 1.195.184.71.328 1.296 1.149 1.569 2.198.145.558.196 1.823.1 2.488-.376 2.626-2.465 5.252-4.44 5.581-.83.139-1.304-.05-2.627-1.047-2.411-1.818-3.407-1.805-5.883.078-1.215.924-1.81 1.135-2.662.944zm1.854-4.16c.336-.148 1.107-.646 1.107-.716 0-.023-.354-.254-.787-.514-1.002-.602-1.992-.953-2.709-.961-.42-.005-.524.019-.876.202-.264.137-.384.233-.354.284.596 1.019 1.126 1.509 1.914 1.77.482.16 1.258.13 1.705-.066zm9.651-.09c.558-.265 1.01-.689 1.382-1.3l.235-.383-.393-.213c-.354-.192-.442-.212-.87-.205-.492.008-1.45.27-2.002.548-.423.212-1.494.883-1.494.935 0 .086.88.642 1.16.733.443.144.504.152 1.009.135.404-.015.564-.056.973-.25z"/></svg>