<svg xmlns="http://www.w3.org/2000/svg" data-name="Layer 1" viewBox="0 0 24 24"><path d="M20.085 2.953a.8.8 0 0 0-.587-.247H4.502a.844.844 0 0 0-.834.834v10a6 6 0 0 0 .432 2.216 8.3 8.3 0 0 0 1.081 1.954 12 12 0 0 0 1.537 1.66 18 18 0 0 0 1.645 1.344c.502.355 1.027.695 1.575 1.011s.935.533 1.166.641c.232.116.417.2.556.263a.7.7 0 0 0 .34.077.7.7 0 0 0 .34-.077c.139-.062.324-.147.556-.263s.618-.324 1.166-.64 1.073-.657 1.575-1.012a18 18 0 0 0 1.645-1.344 12 12 0 0 0 1.537-1.66 8.3 8.3 0 0 0 1.08-1.954 5.9 5.9 0 0 0 .433-2.216v-10a.83.83 0 0 0-.247-.587m-1.93 10.68c0 3.621-6.147 6.733-6.147 6.733V4.845h6.147Z"/></svg>