<svg xmlns="http://www.w3.org/2000/svg" data-name="Layer 1" viewBox="0 0 24 24"><path d="M20.085 2.953a.812.812 0 0 0-.587-.247H4.502a.844.844 0 0 0-.834.834v10a6.05 6.05 0 0 0 .432 2.216 8.336 8.336 0 0 0 1.081 1.954 12.203 12.203 0 0 0 1.537 1.66 17.645 17.645 0 0 0 1.645 1.344c.502.355 1.027.695 1.575 1.011s.935.533 1.166.641c.232.116.417.2.556.263a.71.71 0 0 0 .34.077.732.732 0 0 0 .34-.077c.139-.062.324-.147.556-.263s.618-.324 1.166-.64 1.073-.657 1.575-1.012a17.645 17.645 0 0 0 1.645-1.344 12.202 12.202 0 0 0 1.537-1.66 8.336 8.336 0 0 0 1.08-1.954 5.924 5.924 0 0 0 .433-2.216v-10a.825.825 0 0 0-.247-.587m-1.93 10.68c0 3.621-6.147 6.733-6.147 6.733V4.845h6.147Z"/></svg>