<svg xmlns="http://www.w3.org/2000/svg" width="192" height="192" viewBox="0 0 192 192"><path d="M88.848 19.141v36.258L60.957 27.508l-10.121 10.13 45.173 45.173 45.165-45.173-10.13-10.13-27.883 27.891V19.132zM173 88.715h-36.258l27.891-27.891-10.121-10.121-45.173 45.165 45.173 45.173 10.121-10.13-27.883-27.883H173zm-154 0h36.276L27.385 60.824l10.121-10.121 45.156 45.156-45.173 45.173-10.121-10.13 27.891-27.883H19.001zm69.848 84.152v-36.258L60.957 164.5l-10.121-10.121 35.044-35.052 10.121-10.121 45.173 45.173-10.13 10.121-27.883-27.883v36.25z"/></svg>