<svg xmlns="http://www.w3.org/2000/svg" viewBox="0 0 24 24"><path d="M11.123 20.959a9.269 9.269 0 0 1-3.097-.889 8.575 8.575 0 0 1-2.277-1.608 8.753 8.753 0 0 1-1.85-2.56 8.961 8.961 0 0 1 0-7.812 8.683 8.683 0 0 1 1.85-2.557 8.446 8.446 0 0 1 2.347-1.637 8.963 8.963 0 0 1 7.81 0 8.446 8.446 0 0 1 2.347 1.637 9.007 9.007 0 0 1 2.556 4.618 9.058 9.058 0 0 1-1.702 7.377c-.296.388-1.016 1.123-1.417 1.447a9.086 9.086 0 0 1-6.567 1.984zm2.53-.831c3.478-.75 6.056-3.482 6.561-6.953.133-.913.073-2.257-.14-3.112-.702-2.83-2.78-5.078-5.504-5.954-1.002-.323-1.324-.369-2.57-.369-1.245 0-1.568.046-2.569.37-2.892.931-5.028 3.385-5.61 6.443-.113.597-.113 2.292 0 2.89.438 2.298 1.73 4.239 3.674 5.517.85.559 1.931.993 2.94 1.181.712.133.722.133 1.748.117.792-.012 1.014-.032 1.47-.13zm-2.502-2.735c-.223-.097-.3-.256-.325-.665l-.02-.36h2.378v.306c0 .38-.098.596-.319.706-.131.066-.281.08-.864.078-.497-.001-.749-.02-.85-.065m-.22-1.55a.91.91 0 0 1-.52-.552 2.7 2.7 0 0 1-.05-.54v-.364l-.232-.193c-.658-.55-1.01-1.316-1.01-2.196 0-.5.084-.872.292-1.285a2.84 2.84 0 0 1 1.338-1.308c.458-.22.762-.29 1.252-.29.494 0 .792.07 1.274.3.313.148.457.254.753.552.598.602.853 1.21.853 2.03 0 .266-.03.547-.078.729-.148.553-.544 1.174-.959 1.502l-.182.144-.026.463c-.035.646-.202.924-.616 1.028-.296.074-1.864.06-2.089-.02zm1.875-.758c.097-.092.105-.136.105-.588v-.488l.207-.121a2.212 2.212 0 0 0 .978-2.534 2.077 2.077 0 0 0-.886-1.184 2.215 2.215 0 0 0-2.419 0 2.599 2.599 0 0 0-.39.308c-.95 1.035-.713 2.71.483 3.41l.206.121v.482c0 .432.01.493.1.588.095.1.125.105.804.105.663 0 .713-.006.812-.1z"/></svg>