<svg xmlns="http://www.w3.org/2000/svg" viewBox="0 0 24 24"><path d="M17.835 9.369h1.258v.98h-1.258zm3.915 4.08.25.806a1.3 1.3 0 0 1-.431.264q-.258.1-.504.101-.355 0-.634-.155a1.1 1.1 0 0 1-.435-.44 1.26 1.26 0 0 1-.156-.633v-1.687h-.504v-1h.504V9.368h1.203v1.335h.794v1.001h-.794v1.456a.45.45 0 0 0 .098.3.31.31 0 0 0 .25.115q.109 0 .203-.032a.4.4 0 0 0 .156-.094m-3.905 1.08v-3.825h1.254v3.826zM8.062 9.37H9.32v.98H8.062zm8.159 3.02 1.424 2.152H16.22l-.834-1.354-.384.444v.91h-1.26V9.368h1.26v2.858l1.21-1.51h1.425zm-4.18-1.76q.402 0 .724.188.322.184.508.52.177.34.177.77v2.434h-1.203v-2.153a.8.8 0 0 0-.083-.372.6.6 0 0 0-.229-.256.63.63 0 0 0-.34-.09.67.67 0 0 0-.34.09.6.6 0 0 0-.244.238.63.63 0 0 0-.09.34l-.007 2.203H9.66v-3.825h1.254v.437q.177-.245.474-.383.297-.14.653-.14zm-3.978 3.912v-3.825h1.254v3.825zm-1.618 0V9.368h1.26v5.173zm-1.93-3.912q.507 0 .905.253.403.249.631.708.22.441.221 1.037 0 .578-.221 1.033-.22.455-.623.711a1.65 1.65 0 0 1-.913.26 1.63 1.63 0 0 1-1.254-.577v.487H2V9.368h1.26v1.835q.232-.274.559-.422a1.6 1.6 0 0 1 .696-.152zm-.377 2.959a.93.93 0 0 0 .478-.123.87.87 0 0 0 .33-.343q.12-.218.12-.495 0-.27-.12-.492a.87.87 0 0 0-.33-.343.93.93 0 0 0-.478-.123.85.85 0 0 0-.765.46 1.1 1.1 0 0 0-.112.498q0 .277.112.498a.85.85 0 0 0 .312.34.85.85 0 0 0 .453.123"/></svg>