<svg xmlns="http://www.w3.org/2000/svg" viewBox="0 0 24 24"><path d="M17.835 9.369h1.258v.98h-1.258zm3.915 4.08.25.806a1.29 1.29 0 0 1-.431.264c-.172.067-.34.101-.504.101-.237 0-.448-.052-.634-.155a1.123 1.123 0 0 1-.435-.44 1.258 1.258 0 0 1-.156-.633v-1.687h-.504v-1h.504V9.368h1.203v1.335h.794v1.001h-.794v1.456c0 .123.033.223.098.3a.313.313 0 0 0 .25.115c.073 0 .14-.01.203-.032a.402.402 0 0 0 .156-.094zm-3.905 1.08v-3.825h1.254v3.826zM8.062 9.37H9.32v.98H8.062zm8.159 3.02 1.424 2.152H16.22l-.834-1.354-.384.444v.91h-1.26V9.368h1.26v2.858l1.21-1.51h1.425zm-4.18-1.76c.268 0 .51.063.724.188.215.123.384.296.508.52.118.226.177.483.177.77v2.434h-1.203v-2.153a.804.804 0 0 0-.083-.372.591.591 0 0 0-.229-.256.631.631 0 0 0-.34-.09.667.667 0 0 0-.34.09.624.624 0 0 0-.244.238.626.626 0 0 0-.09.34l-.007 2.203H9.66v-3.825h1.254v.437c.118-.164.276-.291.474-.383.198-.094.416-.14.653-.14zm-3.978 3.912v-3.825h1.254v3.825zm-1.618 0V9.368h1.26v5.173zm-1.93-3.912c.338 0 .64.084.905.253.269.166.479.402.631.708.147.294.221.64.221 1.037 0 .385-.074.73-.221 1.033-.147.303-.355.54-.623.711-.27.174-.575.26-.913.26a1.63 1.63 0 0 1-1.254-.577v.487H2V9.368h1.26v1.835c.155-.183.341-.323.559-.422a1.63 1.63 0 0 1 .696-.152zm-.377 2.959a.93.93 0 0 0 .478-.123.869.869 0 0 0 .33-.343c.08-.145.12-.31.12-.495 0-.18-.04-.345-.12-.492a.869.869 0 0 0-.33-.343.93.93 0 0 0-.478-.123.846.846 0 0 0-.765.46 1.082 1.082 0 0 0-.112.498c0 .185.037.351.112.498a.848.848 0 0 0 .312.34.846.846 0 0 0 .453.123z"/></svg>