<svg xmlns="http://www.w3.org/2000/svg" viewBox="0 0 24 24"><path d="M10.85 21.958c-1.696-.112-3.63-.446-4.784-.825l-.323-.106V2l2.708.028.015 2.733c.016 2.764-.027 3.902-.173 4.667a6.886 6.886 0 0 0-.074.431c0 .024.169-.111.374-.3.475-.437 1.384-1.046 1.95-1.307a7.267 7.267 0 0 1 1.77-.557c.663-.115 2.008-.074 2.586.079 1.92.509 2.886 1.897 3.287 4.725.107.754.09 3.822-.027 4.547-.173 1.083-.467 1.988-.864 2.663-.297.506-1.039 1.234-1.545 1.518-1.152.645-2.703.877-4.9.731zm2.259-2.345c1.738-.356 2.403-1.735 2.4-4.974 0-2.755-.38-3.92-1.434-4.44-.666-.327-1.935-.397-2.735-.15-.682.211-1.523.709-2.549 1.508l-.314.245v3.737c0 2.055.02 3.748.042 3.762.082.05 1.128.24 1.712.31.854.103 2.38.104 2.878.002z"/></svg>