<svg xmlns="http://www.w3.org/2000/svg" width="192" height="192" viewBox="0 0 192 192"><path d="M86.799 175.66c-13.568-.896-29.04-3.568-38.272-6.6l-2.584-.848V15.992l21.664.224.12 21.864c.128 22.112-.216 31.216-1.384 37.336a56 56 0 0 0-.592 3.448c0 .192 1.352-.888 2.992-2.4 3.8-3.496 11.072-8.368 15.6-10.456a58.4 58.4 0 0 1 14.16-4.456c5.304-.92 16.064-.592 20.688.632 15.36 4.072 23.088 15.176 26.296 37.8.856 6.032.72 30.576-.216 36.376-1.384 8.664-3.736 15.904-6.912 21.304-2.376 4.048-8.312 9.872-12.36 12.144-9.216 5.16-21.624 7.016-39.2 5.848m18.072-18.76c13.904-2.848 19.224-13.88 19.2-39.792 0-22.04-3.04-31.36-11.472-35.52-5.328-2.616-15.48-3.176-21.88-1.2-5.456 1.688-12.184 5.672-20.392 12.064l-2.512 1.96v29.896c0 16.44.16 29.984.336 30.096.656.4 9.024 1.92 13.696 2.48 6.832.824 19.04.832 23.024.016"/></svg>