<svg xmlns="http://www.w3.org/2000/svg" width="24" height="24" fill="none" viewBox="0 0 24 24"><path fill="#000" fill-rule="evenodd" d="M9.245 2.853c-.714.279-1.42.502-2.1.614-1.596.263-3.303-1.192-4.138-1.492-.564 3.563-.749 5.405-.578 7.05.203 1.963.77 3.62 1.521 5.095s2.335 3.665 3.463 4.877a33 33 0 0 0 2.293 2.226c1.24 1.098 3.399 1.055 4.638-.045A27 27 0 0 0 17 18.494c1.078-1.257 2.629-3.47 3.33-4.97a13.9 13.9 0 0 0 1.223-4.184c.208-1.641-.026-4.338-.325-5.966-.142-.771-.66-1.066-1.117-.65-3.572.632-4.423.452-5.388.12-1.565-.539-3.936-.593-5.479.01zm5.538 2.203c.76.237 1.396.377 1.95.45 1.635.217 3.166 1.196 3.072 2.849-.08 1.394-1.557 1.69-2.888.705a323 323 0 0 1-3.679-2.762C11.921 5.293 11.37 4.24 11.99 3.966zm-7.878 1.88 8.13 5.304a.282.282 117.74 0 1-.26.497L6.981 9.53C5.45 8.899 4.166 7.037 4.38 5.395c.007-.054 1.138.636 2.526 1.541zm-.378 4.353c1.927 1.656 3.919 3.31 5.815 4.938 1.257 1.078 1.354 2.982.042 3.992-.245.188-1.446-.564-2.63-1.722-2.069-2.023-3.655-3.9-4.645-6.308-.63-1.53.162-1.98 1.418-.9"/></svg>