<svg xmlns="http://www.w3.org/2000/svg" viewBox="0 0 24 24"><path d="m21.754 7.787-3.61-3.61c-.53-.53-1.438-.16-1.438.589v5.2l-3.274-3.273a.839.839 0 1 0-1.186 1.186l4.115 4.115-4.115 4.114a.839.839 0 1 0 1.186 1.187l3.274-3.273v5.2c0 .748.908 1.127 1.438.597l3.61-3.618a.838.838 0 0 0 0-1.186l-3.02-3.021 3.02-3.012a.848.848 0 0 0 0-1.195m-3.366-.985 1.582 1.582-1.582 1.582zm1.582 8.802-1.582 1.581v-3.163zM11.754 7.79l-3.61-3.61c-.53-.53-1.438-.16-1.438.59v5.2L3.433 6.695a.839.839 0 1 0-1.187 1.186l4.115 4.115-4.115 4.115a.839.839 0 1 0 1.187 1.186l3.273-3.273v5.2c0 .749.908 1.127 1.438.597l3.61-3.618a.838.838 0 0 0 0-1.186l-3.02-3.02 3.02-3.013a.848.848 0 0 0 0-1.195m-3.366-.984L9.97 8.387 8.388 9.97zm1.582 8.8L8.388 17.19v-3.164z" opacity=".5"/><path d="m16.754 7.79-3.61-3.61c-.53-.53-1.438-.16-1.438.589v5.2L8.432 6.696a.839.839 0 1 0-1.186 1.186l4.115 4.115-4.115 4.115a.839.839 0 1 0 1.186 1.186l3.274-3.273v5.2c0 .749.908 1.127 1.438.597l3.61-3.618a.838.838 0 0 0 0-1.186l-3.02-3.021 3.02-3.012a.848.848 0 0 0 0-1.195m-3.366-.985 1.582 1.582-1.582 1.582zm1.582 8.802-1.582 1.582v-3.164z"/></svg>