<svg xmlns="http://www.w3.org/2000/svg" viewBox="0 0 24 24"><path d="M6.335 4.356c2.293 1.727 4.76 5.229 5.665 7.108v4.963c0-.106-.04.013-.128.27-.473 1.393-2.318 6.828-6.539 2.483-2.222-2.287-1.193-4.575 2.852-5.265-2.314.395-4.916-.258-5.63-2.818C2.35 10.361 2 5.827 2 5.214c0-3.068 2.681-2.104 4.335-.858m11.33 0c-2.293 1.727-4.76 5.229-5.665 7.108v4.963c0-.106.04.013.128.27.472 1.393 2.318 6.828 6.538 2.483 2.222-2.287 1.194-4.575-2.851-5.265 2.314.395 4.915-.258 5.629-2.818.206-.736.556-5.27.556-5.883 0-3.068-2.681-2.104-4.336-.858z"/></svg>