<svg xmlns="http://www.w3.org/2000/svg" xml:space="preserve" viewBox="0 0 24 24"><path d="m5.861 18.283-.15-3.228h.407c.021.933.087 2.477.064 2.789.118-.354.933-1.984 1.31-2.79h.395c.032.72.107 2.414.096 2.778.14-.375.836-1.8 1.286-2.777h.42L8.1 18.283h-.45c-.032-.708-.096-2.263-.087-2.68-.17.483-.91 1.951-1.265 2.68zm5.596-1.425c0 .621-.353 1.468-1.254 1.468-.57 0-.89-.364-.89-.954 0-.653.396-1.5 1.243-1.5.537.02.901.364.901.986m-1.737.514c0 .387.182.622.526.622.558 0 .804-.665.804-1.159 0-.396-.171-.633-.526-.633-.535.011-.804.676-.804 1.17m2.242-.751c.044-.237.096-.483.14-.697h.375c0 .064-.043.29-.086.494.17-.332.462-.535.826-.535l-.086.407c-.451.032-.784.365-.89.89l-.237 1.094h-.396zm1.125 1.662.72-3.4h.396l-.72 3.4zm3.613-3.4-.578 2.746c-.043.226-.096.44-.13.654h-.386c0-.064.032-.214.063-.364a.854.854 0 0 1-.771.418c-.504 0-.76-.375-.76-.91 0-.697.407-1.533 1.233-1.533.396 0 .6.214.653.365l.29-1.362zm-2.154 2.49c0 .418.183.61.494.61.483 0 .729-.44.836-.955.096-.493-.043-.803-.494-.803-.558.011-.836.642-.836 1.147zm.044-8.623c-.472-.471-1.136-.719-1.952-.719h-.02c-1.03 0-1.899.376-2.52 1.093-.56.646-.87 1.502-.87 2.415 0 .751.237 1.394.686 1.844.462.462 1.126.708 1.94.708h.01c1.094 0 1.995-.387 2.605-1.115.515-.61.816-1.46.816-2.327.001-.794-.235-1.437-.695-1.899zm-1.298 3.388c-.312.483-.772.74-1.318.74h-.012c-.375 0-.676-.13-.89-.375-.203-.237-.311-.59-.311-1.018 0-.57.17-1.136.45-1.555.226-.333.633-.72 1.275-.72h.012c.783 0 1.21.483 1.21 1.35.012.581-.15 1.161-.416 1.578zM6.697 8.065h-.012c-.922 0-1.436.332-1.78.676l-.353 1.619c.312-.676.847-1.04 1.533-1.04h.01c.388 0 .686.118.88.352.182.215.268.526.268.923 0 .569-.17 1.136-.45 1.555-.226.332-.645.728-1.319.728h-.011c-.419 0-.74-.13-.943-.375-.17-.203-.257-.494-.257-.836l-.376 1.683c.194.332.633.771 1.662.771h.012c1.008 0 1.844-.396 2.445-1.147.525-.665.826-1.576.826-2.552-.002-1.414-.858-2.357-2.135-2.357ZM5.303 5.663H2.954l-.278 1.298h.847L2 13.94l1.47.02Zm14.562 2.402c-.934 0-1.448.332-1.792.676l-.353 1.619c.312-.676.847-1.04 1.533-1.04h.01c.388 0 .686.118.88.352.182.215.268.526.268.923 0 .569-.17 1.136-.45 1.555-.226.332-.645.728-1.319.728h-.011c-.419 0-.74-.13-.943-.375-.17-.203-.257-.494-.257-.836l-.376 1.683c.194.332.633.771 1.662.771h.012c1.008 0 1.844-.396 2.445-1.147.526-.665.826-1.576.826-2.552-.002-1.414-.849-2.357-2.135-2.357Zm-1.396-2.402h-2.336l-.28 1.298h.838l-1.523 6.98 1.48.02z"/></svg>