<svg xmlns="http://www.w3.org/2000/svg" viewBox="0 0 192 192"><path d="M169 39.439a3.312 3.312 0 0 0-4.624.704l-6.64 9.04a13.759 13.759 0 0 0-16.014 4.695 13.759 13.759 0 0 0 .32 16.663l-53.439 72.845a3.312 3.312 0 0 0 .696 4.616l.488.36a3.32 3.32 0 0 0 4.624-.696l53.478-72.845a13.759 13.759 0 0 0 16.015-4.688 13.759 13.759 0 0 0-.32-16.679l6.624-9.031a3.312 3.312 0 0 0-.704-4.616zM84.548 68.622h16.879a2.288 2.288 0 0 1 2.304 2.288 2.288 2.288 0 0 1-2.304 2.304H84.548a2.288 2.288 0 0 1-2.304-2.304 2.288 2.288 0 0 1 2.304-2.288m0 22.535h16.879a2.288 2.288 0 0 1 2.304 2.296 2.288 2.288 0 0 1-2.304 2.288H84.548a2.288 2.288 0 0 1-2.304-2.288 2.288 2.288 0 0 1 2.304-2.296m0 22.543h16.879a2.288 2.288 0 0 1 2.304 2.28 2.288 2.288 0 0 1-2.304 2.304H84.548a2.288 2.288 0 0 1-2.304-2.304 2.288 2.288 0 0 1 2.304-2.28m4.536-56.341h7.807a2.288 2.288 0 0 1 2.304 2.288 2.288 2.288 0 0 1-2.304 2.304h-7.807a2.288 2.288 0 0 1-2.296-2.304 2.288 2.288 0 0 1 2.296-2.288m0 22.527h7.807a2.288 2.288 0 0 1 2.304 2.288 2.288 2.288 0 0 1-2.304 2.304h-7.807a2.288 2.288 0 0 1-2.296-2.304 2.288 2.288 0 0 1 2.296-2.288m0 22.535h7.807a2.288 2.288 0 0 1 2.304 2.296 2.288 2.288 0 0 1-2.304 2.288h-7.807a2.288 2.288 0 0 1-2.296-2.288 2.288 2.288 0 0 1 2.296-2.296m0 22.543h7.807a2.288 2.288 0 0 1 2.304 2.288 2.288 2.288 0 0 1-2.304 2.296h-7.807a2.288 2.288 0 0 1-2.296-2.296 2.288 2.288 0 0 1 2.296-2.288m3.904-108.96c-12.24 0-24.223 10.608-31.015 29.383l-40.814 112.64v17.967c51.654 0 92.012.016 143.66 0-.032-2.024.224-15.951 0-17.959l-24.44-67.453-10.88 14.799-.055.104c4.16 11.376 13.335 35.814 13.335 36.566H43.183l15.719-42.414 19.463-53.694h29.559l15.919 43.918q4.56-6.216 9.111-12.455.568-.944 1.256-1.816l.52-.648-10.72-29.55C117.202 26.607 105.203 16 92.98 16z"/></svg>