<svg xmlns="http://www.w3.org/2000/svg" viewBox="0 0 24 24"><path d="M21.125 4.93a.414.414 0 0 0-.578.088l-.83 1.13a1.72 1.72 0 0 0-2.002.587 1.72 1.72 0 0 0 .04 2.083l-6.68 9.106a.414.414 0 0 0 .087.577l.061.045a.415.415 0 0 0 .578-.087l6.685-9.106a1.72 1.72 0 0 0 2.002-.586 1.72 1.72 0 0 0-.04-2.085l.828-1.129a.414.414 0 0 0-.088-.577zM10.568 8.578h2.11a.286.286 0 0 1 .288.286.286.286 0 0 1-.288.288h-2.11a.286.286 0 0 1-.288-.288.286.286 0 0 1 .288-.286m0 2.817h2.11a.286.286 0 0 1 .288.287.286.286 0 0 1-.288.286h-2.11a.286.286 0 0 1-.288-.286.286.286 0 0 1 .288-.287m0 2.818h2.11a.286.286 0 0 1 .288.285.286.286 0 0 1-.288.288h-2.11a.286.286 0 0 1-.288-.288.286.286 0 0 1 .288-.285m.567-7.043h.976a.286.286 0 0 1 .288.286.286.286 0 0 1-.288.288h-.976a.286.286 0 0 1-.287-.288.286.286 0 0 1 .287-.286m0 2.816h.976a.286.286 0 0 1 .288.286.286.286 0 0 1-.288.288h-.976a.286.286 0 0 1-.287-.288.286.286 0 0 1 .287-.286m0 2.817h.976a.286.286 0 0 1 .288.287.286.286 0 0 1-.288.286h-.976a.286.286 0 0 1-.287-.286.286.286 0 0 1 .287-.287m0 2.818h.976a.286.286 0 0 1 .288.286.286.286 0 0 1-.288.287h-.976a.286.286 0 0 1-.287-.287.286.286 0 0 1 .287-.286M11.623 2c-1.53 0-3.028 1.326-3.877 3.673L2.644 19.754V22c6.457 0 11.502.002 17.958 0-.004-.253.028-1.994 0-2.245l-3.055-8.432-1.36 1.85-.007.013c.52 1.422 1.667 4.477 1.667 4.571H5.397l1.965-5.302 2.433-6.712h3.695l1.99 5.49q.57-.777 1.139-1.557.071-.118.157-.227l.065-.081-1.34-3.694C14.65 3.326 13.15 2 11.622 2z"/></svg>