<svg xmlns="http://www.w3.org/2000/svg" viewBox="0 0 24 24"><path d="M14.662 8.308c.406-.135.872-.255 1.278-.376-1.173-.496-2.646-1.022-3.97-1.353-.21.06-.842.226-1.278.36.451.136 1.94.482 3.97 1.37zm-7.413 5.654c.48.286.992.677 1.488 1.008 3.293-2.557 6.542-4.526 10.105-5.64-.496-.255-.932-.48-1.488-.751-2.136.541-5.79 2-10.105 5.383zM6.617 8.58c-1.76.81-3.61 1.924-4.617 2.57.361.166.722.301 1.218.542C5.444 10.188 7.188 9.27 7.88 8.97c-.496-.18-.962-.3-1.263-.391zm6.722.195c-.572-.315-2.557-1.052-3.925-1.368-.406.15-.978.376-1.368.541.496.136 2.345.632 3.924 1.429.406-.196.978-.436 1.369-.602m-2.812 1.294c-.466-.226-.978-.437-1.369-.617-1.188.587-2.736 1.474-4.691 2.872.42.226.872.496 1.353.767 1.504-1.113 3.023-2.165 4.707-3.022m1.443 7.353c3.158-2.707 7.594-5.338 10.03-6.286-.376-.24-.962-.586-1.624-.962-3.143 1.037-6.812 3.338-10.09 5.94.557.42 1.143.857 1.684 1.308"/></svg>