<svg xmlns="http://www.w3.org/2000/svg" viewBox="0 0 24 24"><path d="M17.18 20.498a.1.1 0 0 0-.066.012c-.794.513-1.467.528-1.947.421a1.95 1.95 0 0 1-.758-.336.087.087 0 0 0-.123.013.087.087 0 0 0 .012.122s.313.256.831.372 1.249.091 2.08-.445a.087.087 0 0 0 .026-.121.1.1 0 0 0-.055-.038m-7.62.078a.1.1 0 0 0-.065.018c-1.232.965-2.839-.006-2.839-.006a.087.087 0 0 0-.12.03.087.087 0 0 0 .03.12s1.702 1.038 3.037-.006a.087.087 0 0 0 .015-.123.1.1 0 0 0-.058-.033m2.406-18.575h-.004c-1.474.028-3.036.275-4.315 1.133-1.176.785-1.984 2.01-2.445 3.312-.657 1.855-.6 3.816-.62 5.708-.013.967-.06 1.897-.237 2.835-.175.932-.416 1.867-.558 2.833-.096.66-.15 1.377.1 2.045.253.68.876 1.273 1.638 1.27.662-.001 1.27-.381 1.782-.535.5-.151 1.032-.226 1.499-.089.744.219 1.283.96 2.14 1.309.469.192.994.23 1.484.11.663-.161 1.187-.563 1.7-.9.514-.338 1.006-.613 1.616-.602.491.009.987.214 1.51.39.53.177 1.138.32 1.718.12.782-.27 1.223-1.075 1.305-1.855.083-.796-.18-1.478-.305-2.167-.125-.675-.276-1.348-.377-2.014-.336-2.208.017-4.517-.41-6.777-.346-1.83-1.198-3.737-2.762-4.886-1.287-.945-2.853-1.263-4.395-1.24h.003zm.004.388h.067c1.484-.023 2.96.284 4.159 1.165 1.453 1.066 2.277 2.882 2.61 4.645.41 2.173.06 4.477.408 6.764.104.683.256 1.36.38 2.024.131.735.372 1.372.3 2.057-.07.663-.451 1.324-1.046 1.528-.444.153-.965.047-1.467-.12-.505-.17-1.037-.4-1.627-.41-.73-.013-1.308.318-1.836.665s-1.016.711-1.579.847c-.41.101-.854.069-1.246-.091-.718-.293-1.269-1.056-2.177-1.322-.577-.17-1.182-.073-1.72.09-.587.176-1.17.517-1.671.519-.553.001-1.07-.468-1.274-1.018-.212-.565-.173-1.214-.08-1.854.138-.938.378-1.868.556-2.817.183-.972.23-1.926.244-2.902.02-1.903-.029-3.816.598-5.584.438-1.239 1.205-2.392 2.294-3.119 1.186-.795 2.672-1.04 4.107-1.067m1.059 8.833a.1.1 0 0 0-.079.023c-.496.402-1.005.399-1.404.298s-.675-.301-.675-.301a.107.107 0 0 0-.149.023.107.107 0 0 0 .023.149s.306.224.748.336 1.039.109 1.592-.34a.107.107 0 0 0 .015-.15.1.1 0 0 0-.071-.038m1.276-2.887a.424.424 0 0 0 .6-.149.416.416 0 0 0-.2-.578c.279-.277.863-.413 1.35-.12a1.166 1.166 0 0 1-.987 2.102c-.58-.207-.84-.78-.763-1.255m-7.048 0a.424.424 0 0 0 .6-.149.416.416 0 0 0-.2-.578c.28-.277.863-.413 1.35-.12A1.167 1.167 0 0 1 8.02 9.59a1.16 1.16 0 0 1-.763-1.255m8.057 2.77c-.185-.184-.27-.4-.19-.48s.294.007.479.19c.184.185.27.4.19.48-.08.083-.295-.002-.48-.19m1.672-.169c-.184-.184-.27-.4-.19-.479.08-.08.295.006.48.19.184.184.269.4.19.48s-.295-.007-.48-.19m-.814.083c-.184-.185-.27-.4-.19-.48s.295.006.479.19c.184.185.27.4.19.48-.08.083-.295-.004-.48-.19m-7.64.085c.184-.184.27-.4.19-.48s-.295.007-.48.19c-.184.185-.27.4-.19.48.08.083.295-.002.48-.19m-1.67-.169c.184-.184.27-.4.19-.479-.08-.08-.295.006-.48.19-.184.184-.269.4-.19.48.078.079.293-.007.48-.19m.812.083c.185-.185.27-.4.19-.48s-.294.006-.479.19c-.184.185-.27.4-.19.48.08.083.295-.004.48-.19"/></svg>