<svg xmlns="http://www.w3.org/2000/svg" viewBox="0 0 24 24"><path d="m8.662 3.15-1.818.865L3 16.528l4.671 1.428a2.486 2.486 0 0 1 2.364-1.748 2.472 2.472 0 0 1 2.471 2.473v.047a1.96 1.96 0 0 1-.085.67l4.75 1.452L21 8.337l-1.015-1.732-1.816.867-1.015-1.733-1.816.866-1.015-1.732-1.817.866-1.014-1.731-1.817.865zm9.569 5.156c.033 0 .067.001.102.007l.038.009a.518.518 0 0 1 .343.647l-1.77 5.905-.56 1.888a1.978 1.978 0 0 1-.719 1.022 2.01 2.01 0 0 1-1.193.398c-.046-.008-.078-.016-.11-.016a.496.496 0 0 1-.413-.498.502.502 0 0 1 .515-.508c.429 0 .804-.28.929-.686l.522-1.756-1.723-5.749a.507.507 0 0 1 .342-.64.446.446 0 0 1 .227-.007.522.522 0 0 1 .405.342l1.279 4.291 1.294-4.29a.5.5 0 0 1 .492-.359zm-11.137.055h4.422a1.99 1.99 0 0 1 1.99 1.99v4.648c0 .14-.056.266-.157.367a.516.516 0 0 1-.36.148c-.03 0-.062 0-.093-.008a.502.502 0 0 1-.413-.498v-4.666a.97.97 0 0 0-.804-.951 1.125 1.125 0 0 0-.163-.016h-.968v5.617a.515.515 0 0 1-.515.515c-.03 0-.061 0-.093-.008a.503.503 0 0 1-.412-.5V9.382H7.593V15a.516.516 0 0 1-.515.515c-.015-.016-.046-.016-.077-.023a.502.502 0 0 1-.413-.5V8.869a.5.5 0 0 1 .506-.508z"/></svg>