<svg xmlns="http://www.w3.org/2000/svg" viewBox="0 0 24 24"><path d="M16.801 18.722a2.1 2.1 0 0 1 2.096-2.104 2.104 2.104 0 0 1 0 4.21 2.1 2.1 0 0 1-2.096-2.106m-7.507-1.054-2.936-.002v-3.512c0-.75.291-1.14.933-1.228h2.003c1.43 0 2.352.901 2.354 2.358-.002 1.496-.902 2.383-2.354 2.383zM6.357 8.199v-.925c0-.808.341-1.193 1.094-1.24h1.502c1.29 0 2.06.77 2.06 2.06 0 .983-.528 2.132-2.012 2.132H6.358zm6.686 3.504-.531-.299.465-.397c.538-.461 1.442-1.503 1.442-3.305 0-2.753-2.138-4.53-5.443-4.53H4.774A1.84 1.84 0 0 0 3 4.99v15.63h1.73q.006.001.008.002l4.313-.002c3.676 0 6.049-2 6.049-5.1 0-1.666-.769-3.092-2.057-3.817"/></svg>