<svg xmlns="http://www.w3.org/2000/svg" viewBox="0 0 24 24"><path d="m8.662 3.15-1.818.865L3 16.528l4.671 1.428a2.49 2.49 0 0 1 2.364-1.748 2.47 2.47 0 0 1 2.471 2.473v.047a2 2 0 0 1-.085.67l4.75 1.452L21 8.337l-1.015-1.732-1.816.867-1.015-1.733-1.816.866-1.015-1.732-1.817.866-1.014-1.731-1.817.865zm9.569 5.156q.05-.001.102.007l.038.009a.52.52 0 0 1 .343.647l-1.77 5.905-.56 1.888a1.98 1.98 0 0 1-.719 1.022 2 2 0 0 1-1.193.398c-.046-.008-.078-.016-.11-.016a.496.496 0 0 1-.413-.498.5.5 0 0 1 .515-.508c.429 0 .804-.28.929-.686l.522-1.756-1.723-5.749a.507.507 0 0 1 .342-.64.45.45 0 0 1 .227-.007.52.52 0 0 1 .405.342l1.279 4.291 1.294-4.29a.5.5 0 0 1 .492-.359m-11.137.055h4.422a1.99 1.99 0 0 1 1.99 1.99v4.648c0 .14-.056.266-.157.367a.52.52 0 0 1-.36.148q-.046.002-.093-.008a.5.5 0 0 1-.413-.498v-4.666a.97.97 0 0 0-.804-.951 1 1 0 0 0-.163-.016h-.968v5.617a.515.515 0 0 1-.515.515q-.045.002-.093-.008a.5.5 0 0 1-.412-.5V9.382H7.593V15a.516.516 0 0 1-.515.515c-.015-.016-.046-.016-.077-.023a.5.5 0 0 1-.413-.5V8.869a.5.5 0 0 1 .506-.508"/></svg>