<svg xmlns="http://www.w3.org/2000/svg" viewBox="0 0 24 24"><path d="m15.993 13.744-.34-.12a1.25 1.25 0 0 1-.317-.137c-.069-.052-.099-.108-.09-.181a.233.233 0 0 1 .12-.18c.069-.044.167-.06.296-.06.138 0 .25.03.327.09.077.06.107.137.107.249h.546a.742.742 0 0 0-.069-.327.698.698 0 0 0-.198-.249 1.003 1.003 0 0 0-.309-.158 1.335 1.335 0 0 0-.408-.061c-.15 0-.28.022-.4.052a1.103 1.103 0 0 0-.296.137.673.673 0 0 0-.197.228.797.797 0 0 0-.082.288c-.008.308.18.537.575.696.288.107.5.189.607.227.107.04.189.09.219.138.03.051.038.107.03.18a.25.25 0 0 1-.138.159.65.65 0 0 1-.326.051.558.558 0 0 1-.37-.137c-.081-.082-.12-.188-.12-.348h-.546c0 .15.022.288.069.409.048.12.12.218.198.296.09.081.197.137.326.18.13.039.28.069.43.069s.288-.022.408-.052a.832.832 0 0 0 .309-.15.812.812 0 0 0 .198-.24c.052-.09.069-.198.082-.34 0-.18-.04-.318-.121-.43-.072-.072-.253-.18-.52-.279m-2.29-.03c-.06.06-.158.09-.296.09H12.9v-.688h.507c.138 0 .24.031.296.091a.333.333 0 0 1 .1.25c0 .115-.03.197-.1.257m.74 1.492-.598-.976a.715.715 0 0 0 .348-.288c.082-.12.108-.288.108-.485a.827.827 0 0 0-.07-.357.725.725 0 0 0-.188-.25 1.017 1.017 0 0 0-.31-.15 1.608 1.608 0 0 0-.4-.052h-.992v2.548h.546v-.915h.43l.455.915h.666v.009zm-4.198 0 .167-.56h.924l.168.559h.597l-.893-2.547h-.667l-.893 2.548zm.275-1.054.339-1.035h.03l.34 1.035zm-2.9 1.053h1.726v-.528h-1.18v-.538H9.22v-.477H8.166v-.545h1.142v-.468H7.616v2.556zm12.352-3.433h2.027v-.619h-1.392v-.627h1.242v-.563h-1.242V9.32h1.345v-.546h-1.994v3.004h.013zm-1.891 0h.644V9.328h.877v-.546h-2.398v.546h.877zm-3.017 0 .199-.645h1.086l.198.645h.705L16.199 8.77h-.786l-1.053 3.003zm.332-1.234.4-1.21h.029l.4 1.211zM14.043 8.77H13.02l-.567 2.127h-.03l-.567-2.127h-1.023v3.003h.566V9.327h.031l.717 2.445h.589l.717-2.445h.03v2.445h.567zm-4.495 3.003h.645V8.77h-.645zm-1.95 0h.644V9.327h.876v-.545H6.721v.545h.877zm-2.609 0h1.999v-.619H5.634V8.765H4.99zM2 8.77v1.71c0 .12 0 .228.009.318.008.09.021.167.03.241a.55.55 0 0 0 .06.189c.021.051.06.107.09.158.21.297.546.44 1.035.44.49 0 .825-.15 1.036-.44a.748.748 0 0 0 .09-.158c.022-.052.04-.12.06-.19.009-.068.022-.15.03-.24.009-.09.009-.198.009-.318V8.77h-.645v1.723a1.333 1.333 0 0 1-.038.378.488.488 0 0 1-.18.25.578.578 0 0 1-.357.107.615.615 0 0 1-.356-.108.488.488 0 0 1-.181-.25 1.326 1.326 0 0 1-.038-.377v-1.72H2z"/></svg>