<svg xmlns="http://www.w3.org/2000/svg" viewBox="0 0 24 24"><path d="M4.825 22h4.119c2.587 0 4.346-.028 4.729-.075 1.76-.216 3.444-1.076 4.34-2.215 1.594-2.03 1.541-5.154-.119-6.965-.428-.467-1.03-.93-1.543-1.186-.204-.14-.392-.173-.63-.202-.77.002-1.623.422-2.273 1.119-.581.623-.915 1.293-1.177 2.367-.263 1.077-.562 1.688-1.104 2.262-.678.716-1.394 1.082-2.668 1.365-1.884.418-3.082 1.296-3.52 2.579l-.15.442z" opacity=".6"/><path d="M4.827 11.746 4.825 2H8.47c4.592.001 5.01.044 6.289.643 1.135.532 1.957 1.32 2.478 2.374.415.84.556 1.47.554 2.475-.003 1.473-.385 2.477-1.288 3.373-.456.453-.517.491-.78.492-.771.002-1.624.422-2.274 1.119-.581.624-.914 1.294-1.177 2.367-.263 1.077-.562 1.689-1.104 2.262-.677.716-1.394 1.083-2.667 1.366-1.885.418-3.083 1.296-3.52 2.578l-.151.443z"/></svg>