<svg xmlns="http://www.w3.org/2000/svg" width="192" height="192" viewBox="0 0 192 192"><path d="M38.602 176h32.952c20.696 0 34.768-.224 37.832-.6 14.08-1.728 27.552-8.608 34.72-17.72 12.752-16.24 12.328-41.232-.952-55.72-3.424-3.736-8.24-7.44-12.344-9.488-1.632-1.12-3.136-1.384-5.04-1.616-6.16.016-12.984 3.376-18.184 8.952-4.648 4.984-7.32 10.344-9.416 18.936-2.104 8.616-4.496 13.504-8.832 18.096-5.424 5.728-11.152 8.656-21.344 10.92-15.072 3.344-24.656 10.368-28.16 20.632l-1.2 3.536z" opacity=".6"/><path d="M38.618 93.968 38.602 16h29.16c36.736.008 40.08.352 50.312 5.144 9.08 4.256 15.656 10.56 19.824 18.992 3.32 6.72 4.448 11.76 4.432 19.8-.024 11.784-3.08 19.816-10.304 26.984-3.648 3.624-4.136 3.928-6.24 3.936-6.168.016-12.992 3.376-18.192 8.952-4.648 4.992-7.312 10.352-9.416 18.936-2.104 8.616-4.496 13.512-8.832 18.096-5.416 5.728-11.152 8.664-21.336 10.928-15.08 3.344-24.664 10.368-28.16 20.624l-1.208 3.544z"/></svg>