<svg xmlns="http://www.w3.org/2000/svg" viewBox="0 0 24 24"><path d="m12 2-3.04.024L7.18 3.97l-.317-.113a1.89 1.89 0 0 0-1.974.46l-1.195 1.2a.26.26 0 0 0-.053.291l.448 1-.615 1.673 2.206 8.387a3.5 3.5 0 0 0 1.356 1.962l4.362 2.957a.97.97 0 0 0 1.208 0l4.36-2.962a3.46 3.46 0 0 0 1.352-1.961l1.8-6.881.408-1.515-.618-1.674.429-.96a.33.33 0 0 0-.067-.367L19.105 4.29a1.88 1.88 0 0 0-1.962-.455l-.321.113-1.781-1.93zm-.257 3.066a2.7 2.7 0 0 1 .572 0l.65.179.906.292q.239.083.492.072l1.651-.318.334-.061h.015q.12.122.223.26l.751.938.4.542.56.822c.132.189.236.39.32.603a2.4 2.4 0 0 1 .022.36l-.03.089V8.84a1.4 1.4 0 0 1-.062.167l-.441.508-1.962 2.088a.56.56 0 0 0-.1.56l.323.762a1 1 0 0 1 .016.626l-.065.176a1.7 1.7 0 0 1-.523.735l-.308.252a.58.58 0 0 1-.56.069l-1.097-.522a2.8 2.8 0 0 1-.56-.37l-.88-.792a.35.35 0 0 1-.017-.505l1.978-1.336a.385.385 0 0 0 .121-.487l-.77-1.444a.75.75 0 0 1-.036-.572.86.86 0 0 1 .435-.395l2.406-.912c.173-.067.164-.136-.02-.153l-1.415-.131a2.2 2.2 0 0 0-.66.059l-1.23.345a.38.38 0 0 0-.264.42l.486 2.64a1.4 1.4 0 0 1 .025.446c-.02.063-.184.149-.365.189l-.675.156a1.8 1.8 0 0 1-.658 0l-.75-.156c-.181-.044-.346-.122-.366-.185a1.4 1.4 0 0 1 .024-.446l.484-2.64a.376.376 0 0 0-.263-.42l-1.231-.344a2.2 2.2 0 0 0-.66-.059l-1.415.14c-.184.012-.193.09-.019.153l2.408.905a.88.88 0 0 1 .436.395.75.75 0 0 1-.038.573l-.769 1.444a.385.385 0 0 0 .121.486l1.981 1.335a.35.35 0 0 1 .097.256.35.35 0 0 1-.116.248l-.877.792a2.8 2.8 0 0 1-.56.371l-1.096.523a.58.58 0 0 1-.562-.066l-.308-.252a1.7 1.7 0 0 1-.523-.733l-.063-.176a1 1 0 0 1 .015-.627l.33-.757a.56.56 0 0 0-.1-.561L5.95 9.532l-.442-.508a1.4 1.4 0 0 1-.053-.17l-.03-.09a2 2 0 0 1 .076-.521l.264-.441.56-.823a9 9 0 0 1 .4-.543l.75-.937a3 3 0 0 1 .223-.26h.015l.334.06 1.648.313a1.3 1.3 0 0 0 .492-.071l.907-.295zm.185 9.201h.214a3 3 0 0 1 .356.129l.541.22.612.28.99.5a.188.188 0 0 1 .028.35l-.862.617-.532.42-.991.867a.4.4 0 0 1-.507 0l-.23-.204-.507-.443-.243-.21a7 7 0 0 0-.53-.419l-.86-.606a.189.189 0 0 1 .024-.35l.992-.517.61-.28.54-.225a3 3 0 0 1 .355-.129"/></svg>