<svg xmlns="http://www.w3.org/2000/svg" xml:space="preserve" width="24" height="24" version="1.0"><path d="M12.003 2.534c-5.145 0-9.385 3.874-9.96 8.865a6.7 6.7 0 0 0 .13 2.252c.664 2.89 2.326 4.661 4.675 5.572v1.683c0 .31.251.56.561.56h9.152c.31 0 .56-.25.56-.56v-1.752c2.339-.908 3.977-2.6 4.658-5.266.226-.883.28-1.8.156-2.702-.67-4.887-4.862-8.653-9.932-8.652M9.548 9.44c.09 0 .181.034.25.103l1.767 1.767a.354.354 0 0 1 0 .5l-.48.48a.354.354 0 0 1-.5 0l-1.767-1.767a.354.354 0 0 1 0-.5l.48-.48a.35.35 0 0 1 .25-.103m4.964 0a.35.35 0 0 1 .25.104l.48.479a.355.355 0 0 1 0 .5l-1.767 1.767a.354.354 0 0 1-.5 0l-.48-.479a.354.354 0 0 1 0-.501l1.766-1.766c.07-.07.16-.104.251-.104m-6.921 1.714a2.895 3.01 0 0 1 2.895 3.01 2.895 3.01 0 0 1-2.895 3.01 2.895 3.01 0 0 1-2.895-3.01 2.895 3.01 0 0 1 2.895-3.01m9.019 0a2.895 3.01 0 0 1 2.895 3.01 2.895 3.01 0 0 1-2.895 3.01 2.895 3.01 0 0 1-2.896-3.01 2.895 3.01 0 0 1 2.896-3.01m-4.57 4.048 1.443 2.498h-2.885z"/></svg>