<svg xmlns="http://www.w3.org/2000/svg" viewBox="0 0 192 192"><path d="M121.1 23.68c-37.244-13.556-78.145 3.316-95.457 37.931a51.614 51.614 0 0 0-4.992 16.645c-2.808 22.67 4.557 39.869 19.16 52.653l-4.434 12.183a4.313 4.313 0 0 0 2.586 5.532l66.25 24.113a4.307 4.307 0 0 0 5.53-2.579l4.616-12.682c19.324-.41 35.64-8.343 47.594-25.848a54.165 54.165 0 0 0 8.249-19.15c8.026-37.141-12.397-75.448-49.101-88.8M85.134 67.203a2.72 2.72 0 0 1 1.538 1.404l8.136 17.447a2.727 2.727 0 0 1-1.318 3.62l-4.74 2.21a2.727 2.727 0 0 1-3.619-1.318l-8.135-17.447a2.727 2.727 0 0 1 1.317-3.62l4.74-2.21a2.696 2.696 0 0 1 2.08-.087m35.935 13.08a2.696 2.696 0 0 1 1.535 1.411l2.213 4.732a2.735 2.735 0 0 1-1.317 3.62l-17.447 8.135a2.727 2.727 0 0 1-3.62-1.317l-2.212-4.732a2.727 2.727 0 0 1 1.32-3.627l17.437-8.131a2.711 2.711 0 0 1 2.09-.092m-54.616-5.827a22.302 23.188 20 0 1 13.026 29.417 22.302 23.188 20 0 1-28.888 14.162 22.302 23.188 20 0 1-13.025-29.417A22.302 23.188 20 0 1 66.45 74.454m65.288 23.763a22.302 23.188 20 0 1 13.025 29.417 22.302 23.188 20 0 1-28.887 14.162 22.302 23.188 20 0 1-13.032-29.42 22.302 23.188 20 0 1 28.894-14.158M87.992 115.48l3.865 21.885-20.884-7.601z"/></svg>