<svg xmlns="http://www.w3.org/2000/svg" data-name="Layer 1" viewBox="0 0 24 24"><circle cx="16.391" cy="4.396" r="8" style="fill:none;fill-opacity:1;stroke:#000;stroke-width:2;stroke-linecap:round;stroke-miterlimit:4;stroke-dasharray:none;stroke-opacity:1" transform="rotate(30)"/><path d="m14.59.509-.25.433a.75.75 74.98 0 0 .275 1.024l.217.126-1 1.732 4.33 2.5 1-1.732.216.125a.75.75 165.009 0 0 1.024-.275l.25-.433a.75.75 74.997 0 0-.274-1.025L15.614.234A.75.75 164.997 0 0 14.59.51z" style="fill:#000;fill-opacity:1;stroke:none;stroke-width:2.10819;stroke-linecap:round;stroke-miterlimit:4;stroke-dasharray:none;stroke-opacity:1"/><path d="m20 10-.252.002q.076.3.129.61zm-2.312.084c-2.354.178-4.177.645-5.622 1.404.152.095.308.193.455.283 1.091.667 2.086 1.175 3.143 1.317.681.091 1.412.047 2.275-.24a6 6 0 0 0-.252-2.764m-7.413 2.656q-.14.126-.275.26l6 3 .668-.223q.292-.36.525-.765c-.626.104-1.229.132-1.795.056-1.505-.202-2.76-.88-3.92-1.59-.409-.25-.807-.498-1.203-.738" style="fill:#000;stroke:none;stroke-width:1px;stroke-linecap:butt;stroke-linejoin:miter;stroke-opacity:1;fill-opacity:1"/><path d="M11.5 9a7.1 7.1 0 0 0-2.885.6c.9.358 1.712.816 2.467 1.277l.52-.273c.818-.43 1.73-.769 2.753-1.022A7.1 7.1 0 0 0 11.5 9m4.979 2.303a15 15 0 0 0-1.74.342c.339.13.74.41 1.058.453a3.4 3.4 0 0 0 1.053-.022 3.4 3.4 0 0 0-.371-.773" style="opacity:1;fill:#000;fill-opacity:1;stroke:none;stroke-width:2.52982;stroke-linecap:round;stroke-miterlimit:4;stroke-dasharray:none;stroke-opacity:1"/><path d="M4.262 9.967Q4.132 9.981 4 10l.104.723q.06-.385.158-.756m2.08.03A6 6 0 0 0 6 12c0 3.326 2.674 6 6 6a5.98 5.98 0 0 0 5.674-4.043c-4.507 1.075-6.83-3.299-11.332-3.96M20 13l-.068.04-.028.202zM4.775 15.428 5 17l1.395.697a8 8 0 0 1-1.62-2.27m13.817 1.095a8 8 0 0 1-1.694 1.791L18 18l.592-1.477m-7.766 3.391L11 20l.156-.045a8 8 0 0 1-.33-.04" style="fill:#000;fill-opacity:1;stroke:none;stroke-width:1px;stroke-linecap:butt;stroke-linejoin:miter;stroke-opacity:1"/></svg>