<svg xmlns="http://www.w3.org/2000/svg" viewBox="0 0 24 24"><path d="M7.386 12.174c.942 0 1.443-.564 1.443-1.274V8.94c0-.349-.204-.628-.576-.628-.373 0-.576.279-.576.628v1.896c0 .14-.081.303-.291.303s-.28-.163-.28-.303V8.94c0-.349-.209-.628-.581-.628s-.576.279-.576.628v1.96c0 .71.495 1.274 1.437 1.274m9.872-1.483c.28 0 .5-.169.5-.465 0-.297-.22-.466-.5-.466h-.401c-.1 0-.146-.058-.146-.133v-.094c0-.075.047-.133.146-.133h.523c.326 0 .582-.192.582-.541 0-.344-.256-.536-.582-.536h-1.1c-.459 0-.68.268-.68.629v2.565c0 .36.221.628.68.628h1.1c.326 0 .582-.191.582-.54 0-.344-.256-.536-.582-.536h-.523c-.1 0-.146-.058-.146-.134v-.11c0-.076.047-.134.146-.134zm-2.286-2.088a.557.557 0 0 1 .22.453.52.52 0 0 1-.517.524c-.267 0-.331-.198-.716-.198-.314 0-.72.233-.72.873 0 .576.296.884.732.884.14 0 .262-.07.262-.175 0-.08-.07-.116-.18-.116-.215 0-.5-.157-.5-.483 0-.366.267-.53.61-.53h.186c.652 0 .978.373.978.914 0 .85-.576 1.431-1.49 1.431-.866 0-1.745-.61-1.745-1.925 0-1.373.879-1.966 1.78-1.966.512 0 .856.133 1.1.314m-4.73 5.008c0-.61-.354-1.1-1.006-1.1s-1.007.49-1.007 1.1v3.444c0 .61.355 1.1 1.007 1.1s1.006-.49 1.006-1.1zm-4.944-3.443c-.03-.024-.058-.047-.058-.07 0-.03.017-.041.046-.076a.937.937 0 0 0 .221-.628c0-.698-.471-1.07-1.204-1.07H3.61c-.46 0-.681.267-.681.628v2.565c0 .36.221.628.68.628h.82c.775 0 1.246-.517 1.246-1.163 0-.518-.308-.756-.378-.814m-1.344-.844c0-.076.046-.134.145-.134h.076c.25 0 .326.175.326.326 0 .14-.076.337-.326.337h-.076c-.099 0-.145-.058-.145-.133zm.25 1.949h-.105c-.099 0-.145-.058-.145-.134v-.454c0-.075.046-.133.145-.133h.105c.28 0 .36.186.36.354 0 .151-.08.367-.36.367m7.645-.111c-.169-.22-.32-.413-.396-.617-.017-.046-.005-.087.047-.127.18-.14.39-.448.39-.937 0-.739-.61-1.158-1.35-1.158h-.657c-.46 0-.681.268-.681.629v2.594c0 .35.204.628.576.628s.576-.279.576-.628v-.616c0-.076.035-.111.093-.111.07 0 .093.04.105.11.052.297.192.698.349.902.197.262.384.343.57.343.302 0 .564-.238.564-.535 0-.198-.081-.343-.186-.477m-1.332-1.21h-.082c-.098 0-.145-.058-.145-.134v-.395c0-.076.047-.134.145-.134h.082c.244 0 .32.175.32.326 0 .145-.076.337-.32.337m10.354 1.21c-.197-.25-.32-.413-.395-.617-.018-.046-.006-.087.047-.127.18-.14.39-.448.39-.937 0-.739-.611-1.158-1.35-1.158h-.658c-.46 0-.68.268-.68.629v2.594c0 .35.203.628.576.628.372 0 .575-.279.575-.628v-.616c0-.076.036-.111.094-.111.07 0 .093.04.104.11.053.297.192.698.35.902.197.262.384.343.57.343.302 0 .564-.238.564-.535 0-.198-.082-.343-.186-.477m-1.331-1.21h-.082c-.099 0-.145-.058-.145-.134v-.395c0-.076.046-.134.145-.134h.082c.244 0 .32.175.32.326 0 .145-.076.337-.32.337m-16.121 8.79c-.338 0-.489.163-.489.448 0 .5.46 1.199 1.367 1.71 1.513.856 4.107 1.1 7.696 1.1 3.59 0 6.184-.244 7.697-1.1.907-.511 1.367-1.21 1.367-1.71 0-.285-.151-.448-.489-.448H3.418zM20.568 7.637c.338 0 .489-.175.489-.489C21.057 5.287 18.2 2 11.993 2 5.728 2 2.93 5.287 2.93 7.148c0 .314.151.489.489.489zm-.053 5.329a.792.792 0 0 1 .331.657.772.772 0 0 1-.78.762c-.4 0-.494-.29-1.07-.29-.47 0-1.082.336-1.082 1.261 0 .832.448 1.28 1.106 1.28.197 0 .384-.099.384-.25 0-.122-.111-.169-.268-.169-.32 0-.75-.227-.75-.703 0-.524.395-.762.907-.762h.285c.983 0 1.472.54 1.472 1.32 0 1.233-.867 2.077-2.234 2.077-1.303 0-2.623-.89-2.623-2.793 0-1.989 1.32-2.844 2.676-2.844.756 0 1.291.192 1.646.454m-7.749 2.92c0-.105.035-.151.099-.151.046 0 .081.029.122.11l.809 1.57c.308.6.64.74.995.74.61 0 .948-.46.948-1.036v-3.595c0-.564-.326-1.012-.925-1.012-.6 0-.925.448-.925 1.012v1.257c0 .104-.035.15-.1.15-.046 0-.08-.028-.121-.11l-.809-1.57c-.308-.6-.628-.74-.995-.74-.61 0-.948.46-.948 1.036v3.595c0 .565.326 1.012.925 1.012.6 0 .925-.447.925-1.012zm-7.929 1.239v-.826c0-.07.03-.122.099-.122.093 0 .116.093.14.14.133.32.523 1 .884 1.401.244.268.547.437.867.437.54 0 .994-.472.994-.978 0-.314-.133-.546-.39-.826-.325-.355-.71-.82-.849-1.035a.295.295 0 0 1-.058-.157c0-.064.035-.11.105-.175.163-.151.564-.53.785-.872.169-.262.239-.5.239-.698 0-.507-.46-.902-.96-.902-.32 0-.623.18-.826.512-.274.442-.6.954-.809 1.158-.052.052-.081.063-.122.063-.07 0-.099-.046-.099-.122v-.582c0-.57-.337-1.03-.948-1.03-.617 0-.948.46-.948 1.03v3.584c0 .57.331 1.03.948 1.03.61 0 .948-.46.948-1.03"/></svg>