<svg xmlns="http://www.w3.org/2000/svg" viewBox="0 0 24 24"><path d="M15.339 10.75c0 .85-.577 1.43-1.492 1.43-.868 0-1.747-.61-1.747-1.924 0-1.373.88-1.967 1.783-1.967.513 0 .856.134 1.1.315a.557.557 0 0 1 .222.453.52.52 0 0 1-.519.524.58.58 0 0 1-.288-.086.828.828 0 0 0-.428-.112c-.315 0-.723.233-.723.873 0 .575.297.884.735.884.14 0 .262-.07.262-.175 0-.081-.07-.116-.18-.116-.217 0-.502-.157-.502-.483 0-.366.268-.53.612-.53h.186c.653 0 .979.373.979.914zm-8.815 4.41a.3.3 0 0 0 .058.157c.14.215.525.68.851 1.036.256.279.39.512.39.826 0 .506-.454.977-.996.977-.32 0-.623-.169-.868-.436-.361-.402-.752-1.082-.886-1.402a.514.514 0 0 1-.01-.024c-.022-.05-.05-.116-.13-.116-.07 0-.099.052-.099.122v.826c0 .57-.337 1.03-.95 1.03-.617 0-.949-.46-.949-1.03v-3.583c0-.57.332-1.03.95-1.03.612 0 .95.46.95 1.03v.581c0 .076.029.122.099.122.04 0 .07-.011.122-.064.21-.203.536-.715.81-1.157.203-.332.506-.512.827-.512.5 0 .961.396.961.902 0 .197-.07.436-.239.698-.221.343-.623.72-.786.872-.07.064-.105.11-.105.175zm-2.92-3.014h.822c.775 0 1.247-.518 1.247-1.163a.995.995 0 0 0-.371-.809l-.007-.006h-.001c-.03-.024-.057-.047-.057-.07 0-.022.01-.034.029-.055a.936.936 0 0 0 .239-.648c0-.699-.473-1.071-1.207-1.071h-.693c-.46 0-.682.268-.682.628v2.566c0 .36.222.628.682.628zm.345-2.821c0-.076.046-.134.145-.134h.076c.25 0 .326.174.326.326 0 .14-.075.337-.326.337h-.076c-.099 0-.145-.058-.145-.134zm0 1.361c0-.076.046-.134.145-.134H4.2c.28 0 .361.186.361.355 0 .151-.081.366-.36.366h-.106c-.099 0-.145-.058-.145-.133zm15.445.86c0 .35-.204.629-.577.629s-.577-.28-.577-.628V8.953c0-.361.222-.629.682-.629h.658c.74 0 1.352.42 1.352 1.158 0 .488-.21.797-.39.936-.053.041-.065.082-.047.128.075.204.198.367.396.617.105.134.186.279.186.477 0 .297-.262.535-.565.535-.186 0-.373-.081-.57-.343-.158-.204-.298-.605-.35-.902-.012-.07-.035-.11-.105-.11-.058 0-.093.035-.093.11zm.081-2.256c-.099 0-.145.058-.145.134v.395c0 .076.046.134.145.134h.082c.245 0 .32-.192.32-.337 0-.152-.075-.326-.32-.326zM9.238 12.513c-.652 0-1.008.488-1.008 1.099v3.444c0 .61.356 1.1 1.008 1.1s1.008-.49 1.008-1.1v-3.444c0-.61-.355-1.1-1.008-1.1zm10.073 2.24h.286c.985 0 1.474.54 1.474 1.32 0 1.233-.869 2.076-2.238 2.076-1.305 0-2.627-.89-2.627-2.792 0-1.99 1.322-2.845 2.68-2.845.757 0 1.293.192 1.649.454a.791.791 0 0 1 .332.657.772.772 0 0 1-.781.762c-.183 0-.302-.06-.432-.126-.155-.078-.326-.165-.64-.165-.472 0-1.084.338-1.084 1.263 0 .832.45 1.28 1.107 1.28.199 0 .385-.099.385-.25 0-.122-.11-.169-.268-.169-.32 0-.751-.227-.751-.704 0-.523.396-.762.908-.762zm-1.916-2.607c.326 0 .582-.192.582-.541 0-.343-.256-.535-.582-.535h-.525c-.099 0-.145-.058-.145-.134v-.11c0-.076.046-.135.145-.135h.402c.28 0 .502-.168.502-.465 0-.297-.222-.465-.502-.465h-.402c-.099 0-.145-.059-.145-.134v-.093c0-.076.046-.134.145-.134h.525c.326 0 .582-.192.582-.541 0-.344-.256-.536-.582-.536h-1.101c-.46 0-.682.268-.682.629v2.565c0 .36.221.628.682.628h1.1zM8.83 10.901c0 .71-.5 1.274-1.445 1.274-.944 0-1.439-.564-1.439-1.274v-1.96c0-.35.204-.629.577-.629s.583.28.583.629v1.896c0 .14.07.303.28.303.21 0 .29-.163.29-.303V8.941c0-.35.204-.629.577-.629s.577.28.577.629zm2.645 1.274c.303 0 .566-.238.566-.535 0-.198-.082-.344-.187-.477l-.028-.037c-.157-.206-.296-.388-.368-.58-.017-.046-.006-.087.047-.128.18-.14.39-.448.39-.936 0-.74-.612-1.158-1.352-1.158h-.658c-.46 0-.682.268-.682.628v2.595c0 .349.204.628.577.628s.577-.279.577-.628v-.617c0-.075.035-.11.093-.11.07 0 .093.04.105.11.052.297.192.698.35.902.197.262.384.343.57.343zm-.955-2.222h-.082c-.099 0-.146-.058-.146-.134v-.395c0-.076.047-.134.146-.134h.082c.244 0 .32.174.32.326 0 .145-.076.337-.32.337m3.379 3.572c0-.564.326-1.012.926-1.012.6 0 .926.448.926 1.012v3.595c0 .576-.337 1.036-.95 1.036-.355 0-.687-.14-.996-.74l-.81-1.57c-.04-.081-.075-.11-.122-.11-.064 0-.099.046-.099.15v1.257c0 .565-.326 1.013-.926 1.013-.6 0-.926-.448-.926-1.013v-3.595c0-.576.338-1.035.95-1.035.367 0 .687.139.996.738l.81 1.571c.04.082.075.11.122.11.064 0 .099-.046.099-.15zm5.808 7.376c-1.514.855-4.113 1.1-7.707 1.1s-6.193-.245-7.708-1.1c-.91-.512-1.37-1.21-1.37-1.71 0-.285.152-.448.49-.448h17.175c.338 0 .49.163.49.448 0 .5-.46 1.198-1.37 1.71zm.88-13.264H3.412c-.337 0-.49-.174-.49-.488C2.923 5.287 5.726 2 12 2c6.217 0 9.077 3.287 9.077 5.149 0 .314-.152.488-.49.488z"/></svg>