<svg xmlns="http://www.w3.org/2000/svg" viewBox="0 0 24 24"><path d="M8.922 4.55c-1.489 0-2.747.319-3.776.955C4.118 6.127 3.333 7 2.792 8.123 2.264 9.246 2 10.54 2 12c0 1.502.244 2.815.73 3.938.488 1.11 1.219 1.975 2.193 2.598.974.609 2.206.913 3.694.913.798 0 1.489-.054 2.07-.162a8.752 8.752 0 0 0 1.746-.467v-1.888a17.96 17.96 0 0 1-1.766.467 9.532 9.532 0 0 1-1.786.163c-1.543 0-2.693-.494-3.45-1.482s-1.137-2.341-1.137-4.06c0-1.732.405-3.092 1.217-4.08.812-1 1.942-1.502 3.39-1.502.61 0 1.184.088 1.726.264a11.43 11.43 0 0 1 1.542.569l.812-1.827a8.283 8.283 0 0 0-1.928-.65 9.275 9.275 0 0 0-2.132-.243zm7.043 1.736-.624 3.329h-2.305v1.233h2.081l-.464 2.337h-2.21v1.232h1.97l-.593 3.298h1.28l.61-3.298h2.064l-.64 3.298h1.312l.64-3.298h2.37v-1.232h-2.13l.449-2.337H22V9.615h-1.985l.64-3.33h-1.28l-.624 3.33h-2.097l.64-3.33zm.449 4.562h2.064l-.464 2.337H15.95z"/></svg>