<svg xmlns="http://www.w3.org/2000/svg" viewBox="0 0 24 24"><path d="M8.922 4.55q-2.233 0-3.776.955-1.542.933-2.354 2.618Q2 9.809 2 12q0 2.253.73 3.938.732 1.664 2.193 2.598 1.462.913 3.694.913 1.198 0 2.07-.162a8.8 8.8 0 0 0 1.746-.467v-1.888a18 18 0 0 1-1.766.467 9.5 9.5 0 0 1-1.786.163q-2.314 0-3.45-1.482c-1.136-1.482-1.137-2.341-1.137-4.06q0-2.598 1.217-4.08 1.218-1.501 3.39-1.502.914 0 1.726.264a11.4 11.4 0 0 1 1.542.569l.812-1.827a8.3 8.3 0 0 0-1.928-.65 9.3 9.3 0 0 0-2.132-.243zm7.043 1.736-.624 3.329h-2.305v1.233h2.081l-.464 2.337h-2.21v1.232h1.97l-.593 3.298h1.28l.61-3.298h2.064l-.64 3.298h1.312l.64-3.298h2.37v-1.232h-2.13l.449-2.337H22V9.615h-1.985l.64-3.33h-1.28l-.624 3.33h-2.097l.64-3.33zm.449 4.562h2.064l-.464 2.337H15.95z"/></svg>