<svg xmlns="http://www.w3.org/2000/svg" width="24" height="24" fill="none" viewBox="0 0 24 24"><path fill-rule="evenodd" d="M16.765 3a4.235 4.235 0 1 0 0 8.471 4.235 4.235 0 0 0 0-8.471m-1.123 6.107-.749-.749 1.123-1.123-1.123-1.123.749-.749 1.123 1.124 1.123-1.124.75.749-1.124 1.123 1.123 1.123-.749.749-1.123-1.123zM7.235 3a4.235 4.235 0 1 0 0 8.471 4.235 4.235 0 0 0 0-8.471m2.118 4.765v-1.06H5.118v1.06zM7.235 12.53a4.235 4.235 0 1 0 0 8.47 4.235 4.235 0 0 0 0-8.47m.53 4.764v1.588h-1.06v-1.588H5.119v-1.059h1.588v-1.588h1.059v1.588h1.588v1.06zm9-4.764a4.235 4.235 0 1 0 0 8.47 4.235 4.235 0 0 0 0-8.47m2.117 2.646v1.06h-4.235v-1.06zm0 2.118v1.059h-4.235v-1.059z" style="fill:#000;stroke-width:.529412"/></svg>