<svg xmlns="http://www.w3.org/2000/svg" viewBox="0 0 24 24"><path d="M18.717 16.789c-.057.11-.205.387-.408.592-.824 1.083-1.897 2.224-3.317 3.084C13.627 21.32 12.042 22 10.15 22c-1.771 0-3.226-.885-4.025-1.615l-.002-.002c-1.208-1.128-1.85-2.733-2.048-4.223v-.001c-.295-2.304.284-4.957 1.48-7.353s3.021-4.563 5.255-5.879A6.4 6.4 0 0 1 14.118 2c2.246 0 3.955 1.547 4.163 3.469.101.837-.011 1.632-.404 2.34-.392.708-1.051 1.304-2 1.767-.471.241-.855.363-1.158.39-.291.028-.578-.03-.74-.24l-.005-.007-.005-.006c-.202-.296-.072-.688.206-.896.802-.649 1.189-1.22 1.364-1.796.18-.586.151-1.21.056-1.997-.131-.933-.717-1.427-1.286-1.427-.72 0-1.571.4-2.451 1.14-.873.735-1.74 1.775-2.49 2.985-1.504 2.427-2.5 5.47-2.176 7.993v.003c.115.985.482 2.038 1.128 2.837.64.791 1.55 1.335 2.787 1.335.81 0 1.72-.22 2.491-.619h.002l.002-.001c.923-.462 1.571-.847 2.12-1.293s1.01-.96 1.551-1.695l.002-.002.002-.002q.098-.13.206-.29l.002-.004c.066-.096.136-.199.208-.293.171-.306.49-.366.679-.366.305 0 .628.268.628.658 0 .18-.056.514-.283.806"/></svg>