<svg xmlns="http://www.w3.org/2000/svg" viewBox="0 0 24 24"><path d="M4.939 21.901c-.265-.12-.577-.46-.673-.733-.058-.163-.073-.697-.073-2.524 0-2.13.008-2.332.096-2.493.215-.394.748-.507 1.135-.242l.42.288c.358.244.713.332 1.24.306.357-.017.537-.055.773-.164.392-.18.826-.613 1.026-1.025.14-.287.156-.374.157-.852 0-.49-.013-.562-.17-.894a2.267 2.267 0 0 0-1.014-1.033c-.278-.137-.36-.15-.866-.15-.638 0-.867.076-1.377.461-.16.12-.371.237-.471.26-.451.101-.89-.226-.95-.708-.018-.154-.026-1.251-.016-2.438.017-2.141.018-2.16.142-2.412.069-.14.206-.316.304-.391.361-.275.487-.287 3.07-.287 2.288 0 2.401-.005 2.601-.107.216-.11.298-.217.378-.497.069-.24-.02-.493-.315-.896-.345-.473-.456-.834-.426-1.395.028-.538.194-.928.558-1.318.82-.876 2.2-.876 3.02 0 .364.39.529.78.557 1.318.03.56-.08.922-.426 1.395-.294.403-.383.657-.314.896.08.28.161.387.377.497.2.102.314.107 2.676.107.938.005 2.364-.05 2.734.126.148.069.333.202.412.295.316.376.305.122.304 7.114 0 4.097-.02 6.48-.055 6.63a1.247 1.247 0 0 1-.646.827L18.85 22h-6.848c-6.51-.002-6.86-.007-7.062-.1z"/></svg>