<svg xmlns="http://www.w3.org/2000/svg" viewBox="0 0 24 24"><path d="M12 3c-4.96 0-9 4.04-9 9s4.04 9 9 9 9-4.04 9-9-4.04-9-9-9m0 1.657c4.065 0 7.343 3.278 7.343 7.343S16.065 19.343 12 19.343 4.657 16.065 4.657 12 7.935 4.657 12 4.657" opacity=".6"/><path d="M12 3C7.93 3 4.36 5.74 3.307 9.67s.669 8.09 4.193 10.125a9.007 9.007 0 0 0 10.864-1.431.829.829 0 0 0 0-1.172.829.829 0 0 0-1.172 0c-2.353 2.353-5.982 2.83-8.863 1.167s-4.282-5.045-3.421-8.26A7.335 7.335 0 0 1 12 4.659a.829.829 0 0 0 .829-.83A.829.829 0 0 0 12 3" opacity=".9"/><path d="M11.726 7.292A4.708 4.708 0 0 0 8.567 8.76a4.73 4.73 0 0 0 0 6.477 4.731 4.731 0 0 0 6.467.377.829.829 0 0 0 .102-1.168.829.829 0 0 0-1.167-.102 3.051 3.051 0 0 1-4.196-.244c-1.12-1.186-1.12-3.017 0-4.203s2.947-1.293 4.196-.245a.829.829 0 0 0 1.167-.102.829.829 0 0 0-.102-1.167 4.707 4.707 0 0 0-3.308-1.092z"/></svg>