<svg xmlns="http://www.w3.org/2000/svg" viewBox="0 0 24 24"><path d="M6.497 18.392c-1.58-.2-3.103-1.432-4.222-3.413a5.893 5.893 0 0 1-.275-.52c0-.019.373-.026.829-.016.809.018.833.022 1.034.175.113.086.35.347.526.58 1.04 1.373 1.267 1.577 1.888 1.694 1.062.2 2.263-.152 4.019-1.178l.615-.359h2.178l.803.458c1.559.889 2.194 1.105 3.248 1.104 1.073 0 1.242-.105 2.204-1.363.326-.426.686-.846.8-.934.204-.155.225-.16 1.032-.177.453-.01.824 0 .824.02s-.142.28-.316.576c-.865 1.479-1.86 2.474-2.997 2.997-.7.323-1.428.444-2.148.357-.571-.07-.936-.192-2.304-.777-1.49-.636-1.903-.78-2.235-.78s-.745.144-2.235.78c-.63.27-1.308.542-1.508.606-.325.105-1.133.245-1.303.227l-.457-.057zm-3.811-6.718c-.345-.097-.651-.2-.68-.23-.122-.124 3.49-3.99 4.718-5.052.5-.433 1.036-.841 1.103-.841.013 0 .16.182.325.405s.827 1.07 1.47 1.885c1.873 2.373 2.233 2.86 2.147 2.906-.12.063-1.666.468-1.687.442-.01-.013-.157-.238-.326-.499-.631-.974-1.95-2.57-2.124-2.57-.216 0-.657.38-2.14 1.842-1.732 1.708-1.947 1.904-2.081 1.895a8.681 8.681 0 0 1-.725-.183zm17.539-.046c-.145-.13-.93-.892-1.745-1.694-1.457-1.436-1.896-1.814-2.112-1.814-.174 0-1.493 1.596-2.124 2.57-.169.261-.316.486-.326.499-.021.026-1.567-.379-1.687-.442-.088-.046.28-.542 2.266-3.055.709-.896 1.37-1.745 1.472-1.885s.198-.256.216-.256c.06.001.692.495 1.197.934 1.097.955 4.59 4.694 4.59 4.913 0 .068-.166.136-.67.276-.37.102-.703.186-.742.187-.039.001-.19-.103-.335-.233z"/></svg>