<svg xmlns="http://www.w3.org/2000/svg" viewBox="0 0 24 24"><path d="M14.533 18.393a100 100 0 0 0-.651-.844l-.425-.546h-2.002l-.9 1.46-5.485.044-.533-.51c-1.214-1.161-2.133-2.078-2.12-2.114.012-.033.5-.364 1.808-1.224l.221-.146.236.19c.13.104.384.318.566.476.18.158.58.496.887.751l.559.464h2.689l.279-.27c.153-.15.55-.514.88-.812l.601-.541h.495c.272 0 .804-.015 1.182-.033l.689-.033.757.743.758.743h1.442c1.42 0 1.443-.002 1.577-.114.074-.063.198-.16.275-.215.077-.056.313-.24.524-.41.212-.168.514-.402.673-.519l.288-.211.33.214c.183.119.596.384.92.591s.6.398.617.423c.016.026-.07.14-.193.253l-.931.874c-.39.368-.924.868-1.185 1.11l-.474.44h-1.505c-.827 0-1.756.015-2.063.033l-.56.032zM3.067 11.67C2.69 11.356 2 10.69 2 10.639c0-.032.348-.4.773-.818C5.72 6.927 6.986 5.687 7.171 5.51l.214-.203.103.127c.056.07.223.263.37.43l1.067 1.219 1.264 1.446c.352.407.757.87 1.188 1.358.232.262.412.503.402.535s-.37.271-.8.531l-.78.473-.092-.117a47 47 0 0 1-.459-.616c-.202-.274-.476-.637-.608-.805s-.241-.323-.241-.342c0-.03-.613-.592-1.377-1.261l-.184-.162-.436.342c-.24.189-.644.503-.896.698s-.953.863-1.554 1.484-1.11 1.128-1.127 1.127a.6.6 0 0 1-.158-.105zm16.98-.616c-1.312-1.377-1.62-1.657-2.793-2.542-.08-.06-.208-.16-.286-.223s-.173-.114-.21-.113c-.038 0-.186.109-.328.24a104 104 0 0 1-.695.637c-.307.279-.658.69-1.178 1.383-.698.929-.748.983-.852.927a43 43 0 0 1-1.476-.91c-.033-.03.333-.52.528-.705.015-.014.175-.197.356-.406l.463-.533a424 424 0 0 0 1.97-2.257c.043-.046.225-.253.406-.46.18-.208.414-.47.517-.58l.189-.202 1.03 1.02c.567.561 1.784 1.764 2.705 2.672 1.653 1.631 1.673 1.653 1.572 1.746-.623.576-1.143 1.03-1.181 1.03-.027 0-.358-.326-.737-.724"/></svg>