<svg xmlns="http://www.w3.org/2000/svg" viewBox="0 0 24 24"><path d="M11.723 20.99c-.49-.037-1.032-.104-1.171-.145-.047-.013-.05-.13-.05-1.926 0-1.713.005-1.923.047-2.012.105-.22.378-.327.783-.305.387.022 1.61-.046 1.988-.109.706-.118 1.211-.273 1.73-.531.866-.431 1.572-1.11 1.964-1.887l.098-.195h1.689c1.023 0 1.728.011 1.79.028a.5.5 0 0 1 .184.114c.076.08.08.096.065.266-.037.424-.494 1.548-.924 2.275-1.28 2.16-3.431 3.713-5.858 4.23-.679.144-1.79.238-2.335.197m-4.929-1.767c-.977-.745-1.74-1.582-2.328-2.557C3.7 15.4 3.286 14.064 3.17 12.5c-.097-1.334.181-2.845.768-4.166a8.93 8.93 0 0 1 3.494-4c1.072-.667 2.245-1.082 3.615-1.28.55-.079 1.729-.071 2.328.016a9.2 9.2 0 0 1 3.247 1.103c.087.048.22.131.295.184a1 1 0 0 0 .153.096c.03 0 .475.32.76.549a9.1 9.1 0 0 1 2.61 3.46c.247.593.282.802.157.94-.126.14-.105.138-1.818.138-1.269 0-1.611.008-1.612.036 0 .02-.033-.038-.071-.127a3.67 3.67 0 0 0-1.277-1.516c-.823-.546-1.756-.827-3.2-.964-.359-.034-.934-.043-2.773-.043h-2.32l-.112.064a.8.8 0 0 0-.195.166l-.082.102v6.099c-.001 3.354-.01 6.098-.022 6.097s-.156-.105-.322-.231zm3.736-7.398V9.942h1.176c1.28 0 1.469.017 1.766.158.322.152.608.538.736.992.078.276.107.817.062 1.154-.087.644-.39 1.124-.84 1.33-.245.113-.475.13-1.729.13l-1.17.001z"/></svg>