<svg xmlns="http://www.w3.org/2000/svg" viewBox="0 0 24 24"><path fill-rule="evenodd" d="M19.273 20.364v-3.637h1.818a.91.91 0 0 0 .909-.909V4a.91.91 0 0 0-.91-.91H5.637a.91.91 0 0 0-.909.91v3.636H2.91a.91.91 0 0 0-.909.91v11.818a.91.91 0 0 0 .91.909h15.454a.91.91 0 0 0 .909-.91M6.09 7.636V4.455h14.545v10.909h-1.363V8.545a.91.91 0 0 0-.91-.909H6.092zM3.364 9v10.91h14.545V9zm9.303 9.5c0 .148-.015.293-.044.433H8.377a2.167 2.167 0 1 1 4.29-.433M7 18.933l-1.478-2.562a5.382 5.382 0 0 0-.422 2.562zm8.917-.433c0 .146-.006.29-.017.433h-2.18a3.213 3.213 0 0 0-.805-2.6h2.547c.292.667.455 1.398.455 2.167m-1.089-3.25H10.5a3.25 3.25 0 0 0-3.088 2.237l-1.267-2.2a5.41 5.41 0 0 1 4.355-2.204c1.771 0 3.337.856 4.328 2.167"/></svg>