<svg xmlns="http://www.w3.org/2000/svg" viewBox="0 0 24 24"><path d="M18.002 21.88c-.477-.07-4.858-.994-6.385-1.347l-.289-.067.362-.213a8.42 8.42 0 0 0 2.913-2.92 7.974 7.974 0 0 0 .878-5.872c-.516-2.172-1.917-4.008-3.948-5.174-.77-.443-2.015-.856-2.893-.962-.197-.023-.326-.057-.286-.074.475-.206 9.082-3.136 9.217-3.138.334-.006.418.107.834 1.124.583 1.43.633 1.607.634 2.277 0 .312-.033.753-.074.98-.163.91-.141 1.612.069 2.173.117.314.105.297 1.368 1.831.972 1.18 1.365 1.746 1.54 2.216.068.185.074.262.03.427-.112.414-.65.935-1.296 1.254-.452.223-.714.487-.75.754-.021.163.003.258.133.507.216.415.253.563.194.78-.053.198-.318.465-.507.513l-.116.029.165.246c.091.135.166.275.166.31 0 .036.013.099.029.14.019.05-.09.2-.315.439-.282.298-.36.416-.428.65-.09.305-.081.386.101 1.046.154.557.066 1.216-.216 1.604-.22.303-.75.522-1.13.467zM5.906 16.603V13.59h.98v6.024h-.98zm1.959.001v-3.02l1.457.018c1.351.018 1.478.027 1.746.127.65.24.958.628 1.166 1.466.09.363.106.567.105 1.334-.001 1.85-.407 2.655-1.498 2.973-.194.057-.594.082-1.617.1l-1.36.023zm2.682 2.056c.283-.115.557-.44.667-.788.136-.432.193-1.27.13-1.919-.062-.643-.183-1.008-.406-1.224-.262-.253-.49-.305-1.34-.305h-.754v2.146c0 1.18.017 2.164.037 2.185s.356.028.747.015c.519-.018.766-.047.919-.11zM3.47 12.735c-.949-.267-1.309-.889-1.439-2.485a7.11 7.11 0 0 1 0-1.336c.152-1.75.576-2.318 1.86-2.483.434-.056 1.283 0 1.892.125l.294.06.029.818-.152-.03a12.177 12.177 0 0 0-.723-.087c-1.823-.178-2.191.215-2.185 2.332.006 2.025.334 2.398 2.002 2.279.35-.025.728-.06.839-.078l.201-.032.01.414.008.413-.332.061c-.532.098-1.995.116-2.304.029zm6.378.004C9.031 12.48 8.7 11.843 8.7 10.53c0-1.673.606-2.424 1.957-2.424 1.335 0 1.995.818 1.879 2.329l-.032.414H9.677v.197c0 .242.11.518.276.691.208.217.458.255 1.486.226l.923-.026.019.325c.01.179.006.34-.009.357-.014.017-.273.067-.574.11-.647.093-1.671.098-1.95.01m1.727-2.941c-.05-.614-.349-.91-.917-.907-.623.002-.911.296-.996 1.015l-.025.208H11.6zm-4.69.659V8.204h.98v4.506h-.98zm.01-3.587.015-.502.955-.028v1.032h-.983z"/></svg>