<svg xmlns="http://www.w3.org/2000/svg" viewBox="0 0 24 24"><path d="M14.213 4.752c-.994-.023-2.015.248-2.975.793-1.188.672-2.208 1.712-3.033 3.087l-.015.028-.016.025c-.696 1.312-1.07 2.63-1.111 3.881-1.439-.678-2.389-1.881-2.63-3.285-.153-.894-.774-1.182-1.417-1.094v-.004a1.24 1.24 0 0 0-.998 1.467c.373 2.437 2.106 4.456 4.638 5.396.305.114.615.207.926.284a6.256 6.256 0 0 0 2.135 2.586c1.239.87 2.805 1.334 4.44 1.334.449 0 .902-.037 1.355-.108 2.293-.359 4.428-1.563 6.172-3.486a1.224 1.224 0 0 0-.084-1.727h-.002a1.22 1.22 0 0 0-1.725.084c-1.723 1.9-3.527 2.524-4.738 2.713-1.484.234-2.947-.063-4.01-.812a4.12 4.12 0 0 1-.482-.403c1.78-.215 3.526-.981 5.039-2.257l.05-.041a.08.08 0 0 1 .007-.008l.035-.03.123-.12.168-.167.133-.134a9.21 9.21 0 0 0 .214-.233l.067-.072c.018-.02.034-.042.053-.063a9.88 9.88 0 0 0 .234-.279l.021-.027.02-.026c.071-.09.139-.18.205-.271l.035-.047a7.957 7.957 0 0 0 .223-.326l.09-.145.011-.017a7.132 7.132 0 0 0 .329-.602l.04-.088c.045-.096.087-.191.126-.287l.005-.015a5.455 5.455 0 0 0 .16-.467l.003-.004c.025-.088.047-.176.068-.264l.023-.103c.008-.039.019-.077.026-.116l-.006.01a3.9 3.9 0 0 0-.117-1.97c-.47-1.405-1.77-2.387-3.39-2.563a4.97 4.97 0 0 0-.425-.027m-.055 2.445c.074.001.145.006.215.014.67.073 1.164.415 1.334.908.19.543-.006 1.256-.521 2.021h-.002c-1.38 2.013-3.736 3.03-5.66 2.987-.078-.987.18-2.1.794-3.266 1.21-2.003 2.736-2.686 3.84-2.664"/></svg>