<svg xmlns="http://www.w3.org/2000/svg" viewBox="0 0 24 24"><path d="M14.34 15.6a.891.891 0 1 0 1.26-1.26l-2.7-2.7V8.4a.9.9 0 1 0-1.8 0v3.96zM12 21a8.76 8.76 0 0 1-3.51-.71 9.083 9.083 0 0 1-2.857-1.923 9.085 9.085 0 0 1-1.924-2.857A8.76 8.76 0 0 1 3 12a8.766 8.766 0 0 1 .71-3.51 9.083 9.083 0 0 1 1.923-2.857A9.087 9.087 0 0 1 8.49 3.709 8.769 8.769 0 0 1 12 3a8.766 8.766 0 0 1 3.51.709 9.094 9.094 0 0 1 2.857 1.924 9.096 9.096 0 0 1 1.924 2.857A8.76 8.76 0 0 1 21 12a8.76 8.76 0 0 1-.71 3.51 9.083 9.083 0 0 1-1.923 2.857 9.085 9.085 0 0 1-2.857 1.924A8.76 8.76 0 0 1 12 21"/></svg>