<svg xmlns="http://www.w3.org/2000/svg" viewBox="0 0 24 24"><path d="M14.34 15.6a.891.891 0 1 0 1.26-1.26l-2.7-2.7V8.4a.9.9 0 1 0-1.8 0v3.96zM12 21a8.8 8.8 0 0 1-3.51-.71 9.1 9.1 0 0 1-2.857-1.923 9.1 9.1 0 0 1-1.924-2.857A8.8 8.8 0 0 1 3 12a8.8 8.8 0 0 1 .71-3.51 9.1 9.1 0 0 1 1.923-2.857A9.1 9.1 0 0 1 8.49 3.709 8.8 8.8 0 0 1 12 3a8.8 8.8 0 0 1 3.51.709 9.1 9.1 0 0 1 2.857 1.924 9.1 9.1 0 0 1 1.924 2.857A8.8 8.8 0 0 1 21 12a8.8 8.8 0 0 1-.71 3.51 9.1 9.1 0 0 1-1.923 2.857 9.1 9.1 0 0 1-2.857 1.924A8.8 8.8 0 0 1 12 21"/></svg>