<svg xmlns="http://www.w3.org/2000/svg" viewBox="0 0 24 24"><path d="M8.825 8.536a3.573 3.573 0 0 0-4.699 3.76h-.02a2.106 2.106 0 0 0-.13 4.206A9.09 9.09 0 0 0 12.8 7.42q-.001-.192-.01-.381a5 5 0 0 0-.558-.038 4.54 4.54 0 0 0-3.408 1.535m8.292 1.958q-.001-.204-.01-.405a3 3 0 0 0-.597-.095 4.55 4.55 0 0 0-7.684-1.458 3.573 3.573 0 0 0-4.699 3.76h-.02a2.107 2.107 0 0 0 0 4.212H14.86a9.1 9.1 0 0 0 2.257-6.014m2.777 1.801q-.323 0-.63.096a2.96 2.96 0 0 0-2.755-2.397 4.55 4.55 0 0 0-7.684-1.458 3.573 3.573 0 0 0-4.699 3.76h-.02a2.107 2.107 0 0 0 0 4.212h15.788a2.107 2.107 0 0 0 0-4.212z"/></svg>