<svg xmlns="http://www.w3.org/2000/svg" viewBox="0 0 24 24"><path d="M4.603 2h-.08a1.3 1.3 0 0 0-.484.088.8.8 0 0 0-.335.236.65.65 0 0 0-.144.315 4 4 0 0 0-.024.49v.88a2.2 2.2 0 0 0 .079.66.62.62 0 0 0 .32.344c.193.09.405.133.617.125.212.008.421-.043.606-.146a.7.7 0 0 0 .318-.345c.06-.215.084-.438.076-.66V3.87h-.853v.383a1 1 0 0 1-.03.315.13.13 0 0 1-.044.043.15.15 0 0 1-.206-.043 1 1 0 0 1-.027-.29V2.874a1 1 0 0 1 .027-.296c.019-.046.07-.068.133-.068q.094 0 .12.057a.9.9 0 0 1 .027.291v.524h.847l.003-.002v-.29a1.9 1.9 0 0 0-.076-.623.66.66 0 0 0-.323-.331A1.3 1.3 0 0 0 4.604 2zm3.347.069v3.015h1.367v-.6h-.514V2.069zm1.573 0v3.015h1.367v-.6h-.514V2.069zm4.719 0v1.793q0 .51.022.668a.63.63 0 0 0 .133.304.76.76 0 0 0 .334.234q.25.093.516.09a1.3 1.3 0 0 0 .462-.077.75.75 0 0 0 .312-.222.6.6 0 0 0 .144-.291 4 4 0 0 0 .025-.484V2.071l-.85-.002v2.216q.006.148-.022.291a.1.1 0 0 1-.103.06.09.09 0 0 1-.098-.055.9.9 0 0 1-.022-.252v-2.26Zm4.088 0 .6 1.923v1.092h.788v-1.09l.625-1.923V2.07h-.788q-.162.708-.236 1.19-.026-.306-.206-1.19zm-5.616 0-.105.002h-.635v3.01h1.07q.228.006.456-.03a.6.6 0 0 0 .256-.108c.07-.055.12-.13.144-.215q.052-.265.04-.54V3.13a4 4 0 0 0-.027-.573.56.56 0 0 0-.141-.264.67.67 0 0 0-.332-.171 4.3 4.3 0 0 0-.726-.054zm-6.627.002-.432 3.013h.883l.043-.54h.302l.046.54H7.8l-.484-3.013zm10.287 0v.603h.506v2.413h.853V2.674h.5v-.603zm-3.502.512q.072.001.142.029a.13.13 0 0 1 .062.084q.02.132.014.264v1.173a.9.9 0 0 1-.043.37c-.03.046-.1.068-.223.068V2.585zm-6.133.154q.066.758.127 1.271l-.288-.002q.037-.4.16-1.27zm4.191.049c-.049 0-.1.008-.144.03a.23.23 0 0 0-.097.087.3.3 0 0 0-.044.127c0 .046-.005.125-.005.237v.193q-.003.119.005.239a.3.3 0 0 0 .044.125.23.23 0 0 0 .097.086.36.36 0 0 0 .286 0 .23.23 0 0 0 .097-.086.3.3 0 0 0 .044-.128q.002-.07.003-.234V3.27q.004-.119-.005-.239a.3.3 0 0 0-.043-.127.23.23 0 0 0-.098-.087.4.4 0 0 0-.139-.03zm.38.027v1.106h.253v-.465h.155v-.21h-.155v-.211h.177v-.22Zm-.382.166q.009 0 .019.005l.01.016q.01.05.006.098h-.003v.508a.6.6 0 0 1-.005.125q-.001.011-.011.02a.04.04 0 0 1-.041 0 .03.03 0 0 1-.01-.017.5.5 0 0 1-.006-.117v-.516a.3.3 0 0 1 .01-.103.03.03 0 0 1 .014-.014q.008-.006.017-.005m4.618 2.472v8.543h1.885v-3.303l.063-.049c.062.049.157.084.179.147.353 1.067.698 2.135 1.046 3.203h1.654c.022-.666.052-1.329-.263-1.954-.153-.298-.245-.627-.362-.942l-.38-1.033c.546-.25.774-.684.78-1.241.008-.698.016-1.396-.003-2.092-.022-.817-.517-1.28-1.337-1.28h-3.034zm-3.95.01c-.016.096-.035.185-.049.275-.285 1.883-.557 3.77-.861 5.65-.141.867-.201 1.73-.152 2.606l1.741.002.155-1.654h.891q.076.827.152 1.654h1.747c-.003-.557.051-1.122-.022-1.67-.21-1.603-.473-3.195-.714-4.792l-.318-2.07zm-8.027.003c0 .546-.052 1.084.01 1.611.199 1.679.438 3.355.663 5.031.084.628.18 1.258.27 1.886v.002h2.3l.367-5.18.076-.011c.019.06.049.12.054.182q.17 2.393.337 4.784c.005.076.025.15.038.225h2.298c.31-2.314.63-4.626.918-6.943.063-.516.008-1.052.008-1.584H9.246c-.125 1.687-.247 3.363-.37 5.04h-.114q-.184-2.528-.37-5.043H6.069l-.36 5.042h-.113q-.184-2.525-.37-5.042zm14.207 1.528q.165-.003.326.015c.063.006.152.136.155.21.013.556.008 1.116.008 1.676 0 .149-.07.23-.223.23h-.595l-.003-2.127c.112 0 .222-.004.332-.004m-4.852.874c.122.879.158 1.766.253 2.667v.003-.003h-.592l.239-2.665zm-1.748 6.478a1 1 0 0 0-.107 0c-.663.036-1.334.028-2 0-.328-.01-.8.286-.899.612a2.8 2.8 0 0 0-.122.725c-.008 1.644.003 3.287-.008 4.93-.005.623.169 1.123.78 1.386l2.597.003c.312-.168.608-.361.693-.739a2.8 2.8 0 0 0 .07-.592q.004-2.496.003-4.993a4 4 0 0 0-.019-.35c-.046-.51-.46-.955-.988-.981zm1.327.009c-.052 2.542.076 5.105-.008 7.644h1.483v-3.33l.082-.014c.024.04.06.082.073.128l1.003 3.156a.2.2 0 0 1 0 .06h1.486c.053-2.543.021-5.087.021-7.63h-1.502v3.314l-.068.01c-.027-.065-.057-.127-.078-.195l-.848-2.651c-.158-.492-.158-.492-.668-.492zm4.493.005v7.64h3.467v-1.571q-.618-.012-1.234-.022c-.17-.003-.34 0-.524 0v-1.961h1.758v-1.568q-.657-.011-1.312-.019c-.142-.002-.286 0-.443 0v-.929h1.757v-1.57Zm-13.373.011v1.587h2.2c-.032.07-.049.114-.07.157Q4.72 18.28 3.688 20.449c-.035.073-.079.155-.079.23-.005.438.005.878.008 1.318V22h4.13v-1.589h-2.23l.05-.12q1.053-2.203 2.103-4.406c.028-.057.068-.114.068-.17.005-.446.003-.89.003-1.346zm6.395 1.348c.475-.003.475-.003.475.467v4.126c0 .28-.027.307-.307.307h-.144c-.269 0-.301-.032-.301-.293v-2.146q0-1.091.003-2.187c0-.236.038-.274.274-.274"/></svg>