<svg xmlns="http://www.w3.org/2000/svg" viewBox="0 0 24 24"><path d="M4.603 2h-.08a1.281 1.281 0 0 0-.484.088.81.81 0 0 0-.335.236.645.645 0 0 0-.144.315 3.69 3.69 0 0 0-.024.49v.88a2.17 2.17 0 0 0 .079.66.615.615 0 0 0 .32.344c.193.09.405.133.617.125.212.008.421-.043.606-.146a.7.7 0 0 0 .318-.345c.06-.215.084-.438.076-.66V3.87h-.853v.383a1.05 1.05 0 0 1-.03.315.133.133 0 0 1-.044.043.152.152 0 0 1-.206-.043.952.952 0 0 1-.027-.29V2.874a1.019 1.019 0 0 1 .027-.296c.019-.046.07-.068.133-.068.062 0 .103.02.12.057a.875.875 0 0 1 .027.291v.524h.847l.003-.002v-.29a1.847 1.847 0 0 0-.076-.623.662.662 0 0 0-.323-.331A1.28 1.28 0 0 0 4.604 2zm3.347.069v3.015h1.367v-.6h-.514V2.069zm1.573 0v3.015h1.367v-.6h-.514V2.069zm4.719 0v1.793c0 .34.008.562.022.668a.628.628 0 0 0 .133.304.764.764 0 0 0 .334.234c.166.062.34.092.516.09a1.27 1.27 0 0 0 .462-.077.752.752 0 0 0 .312-.222.613.613 0 0 0 .144-.291 3.61 3.61 0 0 0 .025-.484V2.071l-.85-.002v2.216c.004.098-.004.196-.022.291a.101.101 0 0 1-.103.06.093.093 0 0 1-.098-.055.886.886 0 0 1-.022-.252v-2.26Zm4.088 0 .6 1.923v1.092h.788v-1.09l.625-1.923V2.07h-.788c-.108.472-.187.869-.236 1.19-.016-.204-.087-.6-.206-1.19zm-5.616 0-.105.002h-.635v3.01h1.07c.152.003.304-.005.456-.03a.628.628 0 0 0 .256-.108c.07-.055.12-.13.144-.215.035-.176.048-.358.04-.54V3.13a3.77 3.77 0 0 0-.027-.573.556.556 0 0 0-.141-.264.671.671 0 0 0-.332-.171 4.343 4.343 0 0 0-.726-.054zm-6.627.002-.432 3.013h.883l.043-.54h.302l.046.54H7.8l-.484-3.013zm10.287 0v.603h.506v2.413h.853V2.674h.5v-.603zm-3.502.512c.048.001.095.01.142.029a.127.127 0 0 1 .062.084c.014.087.017.177.014.264v1.173a.941.941 0 0 1-.043.37c-.03.046-.1.068-.223.068V2.585a.437.437 0 0 1 .048-.002zm-6.133.154c.043.505.087.929.127 1.271l-.288-.002c.025-.267.077-.69.16-1.27zm4.191.049c-.049 0-.1.008-.144.03a.233.233 0 0 0-.097.087.296.296 0 0 0-.044.127c0 .046-.005.125-.005.237v.193c-.003.078 0 .16.005.239a.27.27 0 0 0 .044.125.233.233 0 0 0 .097.086.356.356 0 0 0 .286 0 .233.233 0 0 0 .097-.086.297.297 0 0 0 .044-.128c0-.046.003-.125.003-.234V3.27c.003-.078 0-.16-.005-.239a.293.293 0 0 0-.043-.127.233.233 0 0 0-.098-.087.353.353 0 0 0-.139-.03zm.38.027v1.106h.253v-.465h.155v-.21h-.155v-.211h.177v-.22Zm-.382.166c.005 0 .013.002.019.005.005.006.008.011.01.016.006.033.009.066.006.098h-.003v.508a.642.642 0 0 1-.005.125c0 .008-.005.014-.011.02a.037.037 0 0 1-.041 0c-.005-.004-.008-.009-.01-.017-.006-.038-.009-.079-.006-.117v-.516a.328.328 0 0 1 .01-.103.034.034 0 0 1 .014-.014c.005-.005.011-.005.017-.005zm4.618 2.472v8.543h1.885v-3.303l.063-.049c.062.049.157.084.179.147.353 1.067.698 2.135 1.046 3.203h1.654c.022-.666.052-1.329-.263-1.954-.153-.298-.245-.627-.362-.942l-.38-1.033c.546-.25.774-.684.78-1.241.008-.698.016-1.396-.003-2.092-.022-.817-.517-1.28-1.337-1.28h-3.034zm-3.95.01c-.016.096-.035.185-.049.275-.285 1.883-.557 3.77-.861 5.65-.141.867-.201 1.73-.152 2.606l1.741.002.155-1.654h.891c.052.551.1 1.103.152 1.654h1.747c-.003-.557.051-1.122-.022-1.67-.21-1.603-.473-3.195-.714-4.792l-.318-2.07zm-8.027.003c0 .546-.052 1.084.01 1.611.199 1.679.438 3.355.663 5.031.084.628.18 1.258.27 1.886v.002h2.3l.367-5.18.076-.011c.019.06.049.12.054.182.112 1.595.226 3.19.337 4.784.005.076.025.15.038.225h2.298c.31-2.314.63-4.626.918-6.943.063-.516.008-1.052.008-1.584H9.246c-.125 1.687-.247 3.363-.37 5.04h-.114c-.122-1.685-.247-3.367-.37-5.043H6.069l-.36 5.042h-.113c-.122-1.684-.247-3.363-.37-5.042zm14.207 1.528c.11-.001.219.002.326.015.063.006.152.136.155.21.013.556.008 1.116.008 1.676 0 .149-.07.23-.223.23h-.595l-.003-2.127c.112 0 .222-.004.332-.004zm-4.852.874c.122.879.158 1.766.253 2.667v.003-.003h-.592l.239-2.665zm-1.748 6.478a1.003 1.003 0 0 0-.107 0c-.663.036-1.334.028-2 0-.328-.01-.8.286-.899.612a2.76 2.76 0 0 0-.122.725c-.008 1.644.003 3.287-.008 4.93-.005.623.169 1.123.78 1.386l2.597.003c.312-.168.608-.361.693-.739.046-.195.067-.394.07-.592.003-1.665.003-3.328.003-4.993a3.74 3.74 0 0 0-.019-.35c-.046-.51-.46-.955-.988-.981zm1.327.009c-.052 2.542.076 5.105-.008 7.644h1.483v-3.33l.082-.014c.024.04.06.082.073.128l1.003 3.156a.2.2 0 0 1 0 .06h1.486c.053-2.543.021-5.087.021-7.63h-1.502v3.314l-.068.01c-.027-.065-.057-.127-.078-.195l-.848-2.651c-.158-.492-.158-.492-.668-.492zm4.493.005v7.64h3.467v-1.571c-.413-.008-.823-.016-1.234-.022-.17-.003-.34 0-.524 0v-1.961h1.758v-1.568c-.438-.008-.875-.013-1.312-.019-.142-.002-.286 0-.443 0v-.929h1.757v-1.57Zm-13.373.011v1.587h2.2c-.032.07-.049.114-.07.157-.688 1.445-1.378 2.89-2.065 4.336-.035.073-.079.155-.079.23-.005.438.005.878.008 1.318V22h4.13v-1.589h-2.23l.05-.12c.702-1.47 1.403-2.936 2.103-4.406.028-.057.068-.114.068-.17.005-.446.003-.89.003-1.346zm6.395 1.348c.475-.003.475-.003.475.467v4.126c0 .28-.027.307-.307.307h-.144c-.269 0-.301-.032-.301-.293v-2.146c0-.728 0-1.456.003-2.187 0-.236.038-.274.274-.274z"/></svg>