<svg xmlns="http://www.w3.org/2000/svg" xml:space="preserve" width="24" height="24" viewBox="0 0 24 24"><path d="M3.537 4.968a1.56 1.56 0 0 0-1.562 1.564v10.936a1.56 1.56 0 0 0 1.562 1.564h10.936c.865 0 1.564-.698 1.564-1.564V6.532c0-.865-.698-1.564-1.564-1.564zm5.76 2.355a4.694 4.694 0 0 1 3.815 2.42.781.781 0 0 1-.308 1.06.781.781 0 0 1-1.06-.307A3.118 3.118 0 0 0 8.23 8.974a3.12 3.12 0 0 0-2.35 3.027 3.12 3.12 0 0 0 2.35 3.027 3.118 3.118 0 0 0 3.515-1.522.781.781 0 0 1 1.06-.308.781.781 0 0 1 .308 1.061 4.692 4.692 0 0 1-5.273 2.28 4.692 4.692 0 0 1-3.521-4.538 4.695 4.695 0 0 1 4.3-4.672c.227-.018.454-.02.678-.006"/><path stroke="#000" stroke-linecap="round" stroke-width="1.562" d="M21.244 18.25H18.64"/></svg>