<svg xmlns="http://www.w3.org/2000/svg" data-name="Layer 1" viewBox="0 0 24 24"><path d="M21.902 10.643a10.02 10.02 0 0 0-9.066-8.624 17 17 0 0 0-1.914.017 10.02 10.02 0 0 0-8.903 9.099q-.038.857 0 1.715a10.02 10.02 0 0 0 8.096 8.995 11.6 11.6 0 0 0 2.878.12 10.01 10.01 0 0 0 8.91-11.322M20.2 15.222a8.813 8.813 0 0 1-15.755 1.347A8.834 8.834 0 0 1 11.08 3.218a8.82 8.82 0 0 1 9.57 7.138 9 9 0 0 1-.45 4.866"/><path d="M14.636 14.963a3.73 3.73 0 0 1-2.502.926 3.56 3.56 0 0 1-2.5-1.079 4 4 0 0 1-1.148-2.975A3.75 3.75 0 0 1 9.6 9.14a3.7 3.7 0 0 1 3.572-.908 4.15 4.15 0 0 1 2.15 1.625c.464-.421.938-.832 1.399-1.26a5.67 5.67 0 0 0-5.356-2.2 5.6 5.6 0 0 0-3.89 2.417 5.669 5.669 0 0 0 5.723 8.75 5.8 5.8 0 0 0 3.76-2.536c-.458-.412-.972-.758-1.464-1.128a4.8 4.8 0 0 1-.857 1.064"/></svg>