<svg xmlns="http://www.w3.org/2000/svg" width="192" height="192" viewBox="0 0 192 192"><path d="M102.45 19.152a130.87 130.87 0 0 0-14.735.12 77.135 77.135 0 0 0-68.531 70.05 149.003 149.003 0 0 0 0 13.2 77.135 77.135 0 0 0 62.321 69.253 89.298 89.298 0 0 0 22.147.917 77.058 77.058 0 0 0 68.591-87.16 77.135 77.135 0 0 0-69.794-66.38zm-3.428 8.946a67.897 67.897 0 0 1 63.584 55.225 69.283 69.283 0 0 1-3.473 37.468 67.843 67.843 0 0 1-121.27 10.359A68.005 68.005 0 0 1 88.938 28.38a67.897 67.897 0 0 1 10.089-.286zm-2.075 24.297a43.648 43.648 0 0 0-5.819.451 43.109 43.109 0 0 0-29.95 18.614 43.64 43.64 0 0 0 44.053 67.358 44.649 44.649 0 0 0 28.943-19.53c-3.525-3.173-7.474-5.828-11.26-8.676a36.951 36.951 0 0 1-6.601 8.179 28.714 28.714 0 0 1-19.26 7.127 27.405 27.405 0 0 1-19.245-8.3 30.792 30.792 0 0 1-8.841-22.899 28.868 28.868 0 0 1 8.57-20.749 28.483 28.483 0 0 1 27.5-6.991 31.947 31.947 0 0 1 16.554 12.509c3.572-3.241 7.217-6.403 10.765-9.698a43.648 43.648 0 0 0-35.408-17.396z"/></svg>