<svg xmlns="http://www.w3.org/2000/svg" xml:space="preserve" width="24" height="24" fill="none" viewBox="0 0 24 24"><path fill="#000" d="m5.635 6.816 5.242 4.53a.864.864 90 0 1 0 1.308l-5.242 4.53a.93.93 92.077 0 0-.05 1.36l3.182 3.181a1 1 179.99 0 0 1.415 0l9.016-9.018a1 1 90 0 0 0-1.414l-9.016-9.018a1 1 .006 0 0-1.415 0l-3.181 3.18a.93.93 87.923 0 0 .05 1.361z"/><path fill="#000" d="m5.268 9.266 2.43 2.083a.857.857 90 0 1 0 1.302l-2.43 2.083a.46.46 24.701 0 1-.76-.35V9.615a.46.46 155.3 0 1 .76-.349z"/></svg>