<svg xmlns="http://www.w3.org/2000/svg" viewBox="0 0 24 24"><path d="M8.799 20.272a8.354 8.354 0 0 1-4.38-2.304 8.622 8.622 0 0 1-2.334-4.613c-.086-.517-.1-.862-.071-1.662.04-1.077.12-1.538.424-2.446.839-2.504 3.019-4.597 5.52-5.299.97-.272 1.578-.32 4.086-.32h2.368v5.08h2.399c1.878 0 2.472.02 2.736.09 1.421.38 2.457 1.738 2.453 3.221-.004 1.584-1.222 3.028-2.759 3.271-.224.036-1.402.065-2.618.065h-2.211v5.018l-2.556-.006c-1.925-.004-2.68-.028-3.057-.095zm5.55-8.24V8.77l-2.305.002c-1.353.001-2.42.028-2.585.066-1.405.324-2.45 1.672-2.447 3.158 0 .955.292 1.655.966 2.33.489.489.932.736 1.565.874.277.06 1.004.085 2.595.088l2.211.005z"/></svg>