<svg xmlns="http://www.w3.org/2000/svg" viewBox="0 0 24 24"><path d="M12 11c-1.1 0-2.042-.392-2.825-1.175C8.392 9.042 8 8.1 8 7s.392-2.042 1.175-2.825C9.958 3.392 10.9 3 12 3s2.042.392 2.825 1.175C15.608 4.958 16 5.9 16 7s-.392 2.042-1.175 2.825C14.042 10.608 13.1 11 12 11M5 21a1 1 0 0 1-1-1v-2.8c0-.567.146-1.088.438-1.563A2.914 2.914 0 0 1 5.6 14.55a14.866 14.866 0 0 1 3.15-1.163A13.776 13.776 0 0 1 12 13c1.1 0 2.183.129 3.25.387 1.067.259 2.117.646 3.15 1.163.483.25.87.612 1.162 1.087.292.475.438.996.438 1.563V20a1 1 0 0 1-1 1z"/></svg>