<svg xmlns="http://www.w3.org/2000/svg" width="24" height="24" viewBox="0 0 24 24"><path d="M12.225 15.33v1.747a.83.83 0 1 1-.553 0v-1.746a3.3 3.3 0 0 1-1.869-.776l-1.232 1.237a.83.83 0 1 1-.391-.393l1.233-1.236a3.33 3.33 0 0 1-.774-1.873H6.894a.832.832 0 1 1 0-.553H8.64a3.32 3.32 0 0 1 .774-1.873L8.18 8.628a.834.834 0 1 1 .39-.393l1.233 1.237a3.3 3.3 0 0 1 1.869-.775V6.95a.83.83 0 1 1 .553 0v1.747a3.3 3.3 0 0 1 2.07.963l4.698-4.708A9.975 9.975 0 1 0 11.948 22a9.91 9.91 0 0 0 7.045-2.924l-4.697-4.71a3.3 3.3 0 0 1-2.07.965"/></svg>