<svg xmlns="http://www.w3.org/2000/svg" width="192" height="192" viewBox="0 0 192 192"><path d="M25.751 19a6.844 6.844 0 0 0-6.75 6.75v23.88a2.652 2.652 0 0 0 2.656 2.657h1.537a2.652 2.652 0 0 0 2.74-2.657V30.029a4.192 4.192 0 0 1 4.095-4.094h19.6a2.652 2.652 0 0 0 2.658-2.74v-1.538A2.652 2.652 0 0 0 49.63 19zm116.62 0a2.652 2.652 0 0 0-2.657 2.657v1.537a2.652 2.652 0 0 0 2.657 2.74h19.601a4.192 4.192 0 0 1 4.094 4.095v19.6a2.652 2.652 0 0 0 2.74 2.658h1.538A2.652 2.652 0 0 0 173 49.63V25.75a6.844 6.844 0 0 0-6.75-6.75zM55.963 47.407a8.556 8.556 0 0 0-8.556 8.556v31.482a8.898 8.898 0 0 1 0 17.796v31.148a8.556 8.556 0 0 0 8.556 8.555h80.075a8.556 8.556 0 0 0 8.556-8.555v-31.833a8.898 8.898 0 0 1-.251-17.746V55.963a8.556 8.556 0 0 0-8.556-8.556zm88.38 39.402v.635l.25-.685a8.898 8.898 0 0 0-.25.05M68.529 67.175h20.804a2.31 2.31 0 0 1 2.39 2.39v21.138a2.396 2.396 0 0 1-2.39 2.389H68.529a2.481 2.481 0 0 1-2.39-2.39V69.566a2.396 2.396 0 0 1 2.39-2.39m32.869 0h20.704a2.396 2.396 0 0 1 2.473 2.39v21.138a2.481 2.481 0 0 1-2.473 2.389h-20.704a2.396 2.396 0 0 1-2.406-2.39V69.566a2.31 2.31 0 0 1 2.406-2.39m-23.712 7.603a3.844 3.844 0 0 0-3.843 3.86v2.473c0 2.133 1.71 3.86 3.843 3.86h2.49a3.844 3.844 0 0 0 3.843-3.86v-2.473c0-2.133-1.71-3.86-3.843-3.86zm32.768 0a3.844 3.844 0 0 0-3.843 3.86v2.473c0 2.133 1.71 3.86 3.843 3.86h2.49a3.844 3.844 0 0 0 3.843-3.86v-2.473c0-2.133-1.71-3.86-3.843-3.86zM68.528 99.943h20.804a2.396 2.396 0 0 1 2.39 2.39v21.138a2.31 2.31 0 0 1-2.39 2.39H68.528a2.396 2.396 0 0 1-2.39-2.39v-21.138a2.481 2.481 0 0 1 2.39-2.39m31.498.334h6.417a1.027 1.027 0 0 1 1.019 1.02v6.416a1.027 1.027 0 0 1-1.02 1.12h-6.416a1.027 1.027 0 0 1-1.036-1.12v-6.416a1.027 1.027 0 0 1 1.036-1.02m17.028.084h6.417a1.112 1.112 0 0 1 1.103 1.036v6.417a1.112 1.112 0 0 1-1.103 1.103h-6.417a1.027 1.027 0 0 1-1.036-1.103v-6.417a1.027 1.027 0 0 1 1.036-1.036m-39.369 7.269a3.844 3.844 0 0 0-3.843 3.86v2.473c0 2.133 1.71 3.86 3.843 3.86h2.49a3.844 3.844 0 0 0 3.843-3.86v-2.473c0-2.133-1.71-3.86-3.843-3.86zm30.813 1.287h6.5a1.027 1.027 0 0 1 1.02 1.036v6.416a1.027 1.027 0 0 1-1.02.585v.434h-6.5a1.027 1.027 0 0 1-1.036-1.019v-6.417a1.112 1.112 0 0 1 1.036-1.036zm-8.472 8.471h6.417a1.112 1.112 0 0 1 1.019 1.12v6.417a1.027 1.027 0 0 1-1.02 1.019h-6.416a1.027 1.027 0 0 1-1.036-1.02v-6.416a1.112 1.112 0 0 1 1.036-1.12m17.028 0h6.417a1.198 1.198 0 0 1 1.103 1.12v6.417a1.027 1.027 0 0 1-1.103 1.019h-6.417a1.027 1.027 0 0 1-1.036-1.02v-6.416a1.112 1.112 0 0 1 1.036-1.12m-95.398 22.325a2.652 2.652 0 0 0-2.657 2.657v23.88A6.844 6.844 0 0 0 25.75 173h23.879a2.652 2.652 0 0 0 2.657-2.657v-1.537a2.652 2.652 0 0 0-2.657-2.74H30.028a4.192 4.192 0 0 1-4.094-4.094V142.37a2.652 2.652 0 0 0-2.74-2.657zm147.15 0a2.652 2.652 0 0 0-2.74 2.657v19.601a4.192 4.192 0 0 1-4.094 4.094H142.37a2.652 2.652 0 0 0-2.657 2.74v1.538A2.652 2.652 0 0 0 142.37 173h23.879a6.844 6.844 0 0 0 6.75-6.75v-23.88a2.652 2.652 0 0 0-2.656-2.657z"/></svg>