<svg xmlns="http://www.w3.org/2000/svg" viewBox="0 0 24 24"><path d="m11.231 13.665-.007-1.636-.006-1.636 2.84 1.624-1.413.824zM12.137 3a20.845 20.845 0 0 0-2.698.156c-2.84.354-4.519.857-5.554 3.493-.604 1.529-.813 3.459-.823 5.304-.01 1.846.18 3.781.768 5.313 1.008 2.651 2.68 3.164 5.517 3.549a20.845 20.845 0 0 0 2.697.184 21.291 21.291 0 0 0 2.725-.156c2.955-.354 4.668-1.14 5.669-3.49a7.077 7.077 0 0 0 .464-1.73l-3.574-.842c-.431 1.724-.976 2.068-2.51 2.372a14.42 14.42 0 0 1-2.756.209 15.288 15.288 0 0 1-2.696-.266c-1.384-.26-1.67-.604-2.006-1.774-.248-.883-.358-2.131-.352-3.352.006-1.22.126-2.47.386-3.348.348-1.162.638-1.5 2.025-1.753a15.282 15.282 0 0 1 2.699-.238 14.425 14.425 0 0 1 2.753.24c1.531.321 2.072.664 2.485 2.399l3.583-.807a7.075 7.075 0 0 0-.446-1.735c-.982-2.36-2.681-3.163-5.632-3.549A21.291 21.291 0 0 0 12.137 3"/></svg>