<svg xmlns="http://www.w3.org/2000/svg" viewBox="0 0 24 24"><path d="M13.746 2.45a9.519 9.519 0 0 1 .202 1.938A9.519 9.519 0 0 1 12.866 8.7c.213.12.454.262.78.45 1.507.87 1.643.844 1.648 2.03a9.519 9.519 0 0 1 4.325-1.09 9.519 9.519 0 0 1 1.604.142c-.06-3.617-.55-3.882-4.607-6.224-1.229-.71-2.124-1.225-2.87-1.558zm-5.04 10.384v.009a9.519 9.519 0 0 1-4.277 1.064 9.519 9.519 0 0 1-1.653-.163c.058 3.641.541 3.905 4.608 6.253 1.265.73 2.177 1.255 2.935 1.586a9.519 9.519 0 0 1-.218-1.974 9.519 9.519 0 0 1 1.067-4.284l.017.008c-.223-.123-.48-.275-.832-.478-1.502-.868-1.641-.845-1.647-2.021z"/><path d="M19.619 10.09a9.519 9.519 0 0 0-4.325 1.09v.822c0 2.075.15 1.815-1.647 2.853-1.454.839-1.55.987-2.479.47a9.519 9.519 0 0 0-1.067 4.284 9.519 9.519 0 0 0 .218 1.975c2.022.884 2.925.36 6.297-1.587 4.637-2.677 4.615-2.64 4.615-7.994 0-.67 0-1.255-.008-1.772a9.519 9.519 0 0 0-1.604-.14z" opacity=".8"/><path d="M12 2c-1.149 0-2.297.67-4.616 2.008-4.637 2.677-4.616 2.64-4.616 7.995 0 .658 0 1.23.008 1.74a9.519 9.519 0 0 0 1.654.163 9.519 9.519 0 0 0 4.276-1.063v-.84c0-2.075-.15-1.815 1.647-2.853.899-.518 1.273-.778 1.647-.778.238 0 .492.117.866.328a9.519 9.519 0 0 0 1.082-4.312 9.519 9.519 0 0 0-.202-1.939C13.085 2.154 12.54 2 12 2z" opacity=".6"/></svg>