<svg xmlns="http://www.w3.org/2000/svg" viewBox="0 0 24 24"><path d="M22 6.9s-2.9 1.667-3.58 1.92c-.622.248-.857-.08-.931-.193a7.804 7.804 0 0 1-.48-1.23 1.3 1.3 0 0 0 .539-.058C17.99 7.226 21.99 4.986 22 4.986zm-6.066 6.62c.204.478.788 1.87.944 2.27a.767.767 0 0 0 .676.439h2.533l-1.887-3.92c-.692.388-1.454.799-2.266 1.216zm1.427-3.186-2.196 1.157c-1.881.965-3.667 1.811-4.63 2.085-2.537.738-5.626 1.17-6.737.185-1.043-.934 1.367-4.817 5.927-5.683a3.8 3.8 0 0 1 1.176-.118s-.311-1.33-.555-1.608a1.126 1.126 0 0 0-1.17-.44c-.988.059-5.186 1.18-6.843 4.686-.93 1.993.298 4.004 1.094 4.586.37.27 2.754 2.413 8.269.248 5.433-2.113 10.3-5.444 10.303-5.444v-2.22s-2.148 1.23-4.64 2.567zM13.92 8.366l1.245 3.125 2.196-1.157-1.902-4.227h-2.77L8.8 13.378s1.915-.06 3.139-.985c.313-.181 1.183-2.478 1.982-4.027zm6.713 8.996v1.652H2.202v-1.652z"/></svg>