<svg xmlns="http://www.w3.org/2000/svg" xml:space="preserve" width="24" height="24" viewBox="0 0 24 24"><path d="M11.032 21.898a15.606 15.606 0 0 1-1.555-.27c-2.848-.727-5.26-2.677-6.537-5.285-.7-1.43-.991-2.708-.99-4.341.001-1.635.297-2.94.986-4.342a9.542 9.542 0 0 1 1.95-2.705c1.575-1.559 3.57-2.523 5.83-2.819.739-.097 2.302-.065 2.992.06 1.435.261 2.724.774 3.878 1.543 2.399 1.599 3.954 4.043 4.36 6.85.087.602.137 1.853.079 1.957-.032.057-.049-.003-.07-.25-.103-1.225-.633-2.706-1.364-3.814-2.222-3.368-6.368-4.797-10.206-3.518-2.963.988-5.19 3.493-5.8 6.526a8.448 8.448 0 0 0 .272 4.42c.854 2.56 2.898 4.605 5.49 5.493.611.21 1.396.384 1.914.425.62.05.463.097-.302.091a19.437 19.437 0 0 1-.927-.021z"/><path d="M13.161 20.661c-3.204-.233-5.858-2.622-6.412-5.77-.101-.574-.12-1.645-.04-2.172.48-3.131 2.889-5.506 6.03-5.948.637-.09 1.772-.058 2.382.066.53.108 1.119.3 1.58.514l.359.167-.337.16c-1.217.574-1.968 1.918-1.792 3.206.177 1.29 1.068 2.301 2.348 2.665.461.131 1.166.131 1.627 0a3.216 3.216 0 0 0 1.49-.883c.143-.147.27-.252.28-.234.012.019.045.222.074.451.07.567.03 1.644-.085 2.183a7.01 7.01 0 0 1-2.678 4.214c-1.326 1.006-3.08 1.508-4.826 1.381z"/></svg>