<svg xmlns="http://www.w3.org/2000/svg" viewBox="0 0 24 24"><path d="M17.67 5.01a9.045 9.045 0 0 1 2.156 2.54l-6.453 4.518a.45.45 0 0 1-.627-.11l-1.387-1.98a.45.45 0 0 1 .11-.627zm3.328 6.781-5.304 3.714a.45.45 0 0 1-.626-.11l-1.387-1.98a.45.45 0 0 1 .11-.627l6.415-4.491a8.959 8.959 0 0 1 .792 3.494m-.035 1.037a8.987 8.987 0 0 1-3.316 6.181.447.447 0 0 1-.257-.178l-1.387-1.98a.45.45 0 0 1 .11-.627zm-8.962 5.292a6.093 6.093 0 0 0 3.138-.864l1.519 2.447A8.958 8.958 0 0 1 12 21a9 9 0 0 1 0-18 8.955 8.955 0 0 1 4.989 1.508l-2.618 1.848A6.12 6.12 0 1 0 12 18.12"/></svg>