<svg xmlns="http://www.w3.org/2000/svg" viewBox="0 0 24 24"><path d="M2.822 5.99h1.475c.34 0 .642.051.905.154a1.736 1.736 0 0 1 1.061 1.061c.09.246.136.518.136.815a2.58 2.58 0 0 1-.744 1.818 2.657 2.657 0 0 1-.867.57 2.98 2.98 0 0 1-1.158.213H2zm.854 3.803c.276 0 .528-.043.756-.13.23-.086.423-.204.583-.355a1.61 1.61 0 0 0 .511-1.19c0-.419-.11-.74-.33-.965-.216-.224-.546-.336-.99-.336h-.66l-.53 2.976zm4.798-2.445c.436 0 .768.103.997.31.228.207.342.48.342.815 0 .052-.004.106-.013.162-.004.052-.01.108-.019.168l-.323 1.818h-.835l.058-.336h-.05c-.1.125-.226.23-.377.317a1.087 1.087 0 0 1-.537.123 1.21 1.21 0 0 1-.44-.078 1.012 1.012 0 0 1-.336-.2 1.001 1.001 0 0 1-.29-.719c0-.18.033-.343.102-.485a1.08 1.08 0 0 1 .304-.362c.134-.104.292-.18.473-.233.185-.056.388-.084.608-.084.16 0 .304.015.433.045.134.026.261.06.382.104l.026-.097a.417.417 0 0 0-.162-.446.69.69 0 0 0-.446-.137.93.93 0 0 0-.434.097 1.03 1.03 0 0 0-.336.266l-.57-.414c.173-.22.384-.38.635-.48.25-.103.52-.154.808-.154m-.478 2.717c.107 0 .21-.02.304-.059a.976.976 0 0 0 .258-.16.875.875 0 0 0 .188-.234.874.874 0 0 0 .103-.278 1.975 1.975 0 0 0-.278-.097 1.29 1.29 0 0 0-.407-.059.852.852 0 0 0-.466.123.393.393 0 0 0-.194.363c0 .133.047.235.142.304.1.064.216.097.35.097m2.02.556.555-3.17h.796l-.078.44h.052c.104-.15.237-.276.401-.375.164-.104.356-.155.576-.155.112 0 .203.01.272.032.073.021.136.05.187.084l-.317.77a1.082 1.082 0 0 0-.168-.058.839.839 0 0 0-.226-.026.833.833 0 0 0-.62.258c-.165.17-.27.39-.318.667l-.265 1.533h-.848m3.896-2.154h.052l1.178-1.016h1.093l-.013.052-1.397 1.164.957 1.902-.013.052h-.957l-.66-1.397-.44.368-.181 1.03h-.848l.815-4.633h.848zM2 16.612l.822-4.633h1.552c.207 0 .397.033.57.097.172.065.32.155.446.272.13.116.229.257.298.42.073.165.11.346.11.545 0 .254-.046.48-.136.68a1.39 1.39 0 0 1-.37.504c-.16.133-.35.237-.575.31-.22.07-.461.104-.724.104H3.17l-.298 1.7zm2.109-2.53a.968.968 0 0 0 .582-.168c.156-.116.233-.295.233-.536a.551.551 0 0 0-.155-.408c-.1-.108-.246-.162-.44-.162h-.783l-.226 1.275zm3.418-.743c.435 0 .767.103.996.31.228.207.343.479.343.815 0 .052-.005.106-.013.162a2.371 2.371 0 0 1-.02.168l-.323 1.818h-.835l.059-.336h-.052c-.1.125-.224.23-.375.317a1.087 1.087 0 0 1-.537.123 1.2 1.2 0 0 1-.44-.078 1.012 1.012 0 0 1-.337-.2 1.003 1.003 0 0 1-.29-.72c0-.18.034-.341.103-.484.073-.142.174-.263.304-.362.133-.104.29-.181.472-.233.186-.056.388-.084.608-.084.16 0 .304.015.434.045.133.026.26.06.38.104l.027-.097a.417.417 0 0 0-.162-.446.689.689 0 0 0-.446-.136.931.931 0 0 0-.433.097 1.03 1.03 0 0 0-.337.265l-.57-.414c.173-.22.385-.38.635-.48.25-.103.52-.154.809-.154m-.48 2.717c.109 0 .21-.02.305-.058a.977.977 0 0 0 .259-.162.874.874 0 0 0 .187-.233.873.873 0 0 0 .104-.278 1.971 1.971 0 0 0-.278-.097 1.29 1.29 0 0 0-.408-.058.853.853 0 0 0-.466.123.393.393 0 0 0-.194.362c0 .134.048.235.143.304a.62.62 0 0 0 .349.097m4.44-2.717c.19 0 .364.039.524.116.16.074.298.177.414.31.116.13.207.287.272.473.064.18.097.38.097.595a2 2 0 0 1-.13.718 1.826 1.826 0 0 1-.938 1.01 1.68 1.68 0 0 1-.724.155c-.212 0-.406-.046-.583-.136a.88.88 0 0 1-.368-.35H10l-.02.453-.232 1.327H8.9l.809-4.568h.79l-.066.382h.052c.086-.125.21-.237.37-.336.163-.1.374-.15.633-.15m-.51 2.594a.884.884 0 0 0 .387-.084.963.963 0 0 0 .31-.227.989.989 0 0 0 .201-.33 1.11 1.11 0 0 0 .071-.394c0-.237-.07-.425-.213-.563a.76.76 0 0 0-.563-.213.882.882 0 0 0-.362.077 1.02 1.02 0 0 0-.31.214c-.087.09-.158.2-.214.33a1.13 1.13 0 0 0-.078.427c0 .232.071.418.213.556a.766.766 0 0 0 .557.207m5.11-.097a2.17 2.17 0 0 1-.655.647c-.25.155-.562.233-.938.233a1.61 1.61 0 0 1-.627-.117 1.416 1.416 0 0 1-.466-.317 1.444 1.444 0 0 1-.298-.478 1.675 1.675 0 0 1-.103-.59 1.874 1.874 0 0 1 1.113-1.72c.232-.104.491-.155.776-.155.233 0 .435.036.608.11a1.213 1.213 0 0 1 .712.705c.06.16.09.328.09.505 0 .202-.03.39-.09.562H13.82v.065c.01.233.085.405.227.518a.84.84 0 0 0 .51.16c.208 0 .383-.037.525-.115.142-.082.263-.198.362-.35l.64.337m-.576-1.216v-.026a.524.524 0 0 0-.175-.388c-.112-.117-.284-.175-.517-.175a.92.92 0 0 0-.557.175.883.883 0 0 0-.323.414zm1.008 1.992.556-3.17h.796l-.078.44h.052c.104-.15.237-.276.4-.375.165-.104.357-.155.577-.155.112 0 .203.01.272.032.073.022.136.05.187.084l-.317.77a1.077 1.077 0 0 0-.168-.058.837.837 0 0 0-.226-.026.833.833 0 0 0-.621.259c-.164.168-.27.39-.317.666l-.266 1.533zm3.847.104a1.8 1.8 0 0 1-.524-.071 1.425 1.425 0 0 1-.407-.195 1.27 1.27 0 0 1-.285-.284 1.415 1.415 0 0 1-.168-.356l.783-.317a.54.54 0 0 0 .232.362c.126.078.27.117.434.117.147 0 .27-.026.369-.078.103-.056.155-.133.155-.233a.246.246 0 0 0-.104-.207.883.883 0 0 0-.33-.142l-.342-.084a1.66 1.66 0 0 1-.298-.11.97.97 0 0 1-.46-.44.77.77 0 0 1-.07-.336c0-.16.034-.3.103-.421a.992.992 0 0 1 .298-.317 1.35 1.35 0 0 1 .44-.194c.168-.047.35-.071.55-.071.633 0 1.054.254 1.26.763l-.775.285a.441.441 0 0 0-.207-.265.647.647 0 0 0-.35-.098.656.656 0 0 0-.35.078c-.081.048-.122.112-.122.194 0 .138.119.237.356.298l.446.116c.272.07.475.18.608.337a.784.784 0 0 1 .207.537c0 .177-.036.336-.11.478a1.09 1.09 0 0 1-.304.356 1.46 1.46 0 0 1-.46.22 2.04 2.04 0 0 1-.575.078"/></svg>