<svg xmlns="http://www.w3.org/2000/svg" viewBox="0 0 24 24"><path d="M2.822 5.99h1.475q.51 0 .905.154a1.74 1.74 0 0 1 1.061 1.061q.135.37.136.815a2.58 2.58 0 0 1-.744 1.818 2.7 2.7 0 0 1-.867.57 3 3 0 0 1-1.158.213H2zm.854 3.803q.414 0 .756-.13.344-.129.583-.355a1.6 1.6 0 0 0 .511-1.19q0-.628-.33-.965-.324-.336-.99-.336h-.66l-.53 2.976zm4.798-2.445q.654 0 .997.31.342.311.342.815 0 .078-.013.162-.006.078-.019.168l-.323 1.818h-.835l.058-.336h-.05q-.15.187-.377.317a1.1 1.1 0 0 1-.537.123 1.2 1.2 0 0 1-.44-.078 1 1 0 0 1-.336-.2 1 1 0 0 1-.29-.719q0-.271.102-.485a1.1 1.1 0 0 1 .304-.362q.201-.155.473-.233.278-.084.608-.084.24 0 .433.045.2.039.382.104l.026-.097a.42.42 0 0 0-.162-.446.7.7 0 0 0-.446-.137.9.9 0 0 0-.434.097 1 1 0 0 0-.336.266l-.57-.414q.259-.33.635-.48.376-.154.808-.154m-.478 2.717q.162 0 .304-.059a1 1 0 0 0 .258-.16.9.9 0 0 0 .188-.234.9.9 0 0 0 .103-.278 2 2 0 0 0-.278-.097 1.3 1.3 0 0 0-.407-.059.85.85 0 0 0-.466.123.39.39 0 0 0-.194.363q0 .2.142.304.15.097.35.097m2.02.556.555-3.17h.796l-.078.44h.052q.155-.226.401-.375.246-.155.576-.155.168 0 .272.032.11.032.187.084l-.317.77a1 1 0 0 0-.168-.058.8.8 0 0 0-.226-.026.83.83 0 0 0-.62.258q-.247.253-.318.667l-.265 1.533h-.848m3.896-2.154h.052l1.178-1.016h1.093l-.013.052-1.397 1.164.957 1.902-.013.052h-.957l-.66-1.397-.44.368-.181 1.03h-.848l.815-4.633h.848zM2 16.612l.822-4.633h1.552q.31 0 .57.097.258.097.446.272.195.175.298.42.11.247.11.545 0 .38-.136.68a1.4 1.4 0 0 1-.37.504q-.239.2-.575.31-.33.104-.724.104H3.17l-.298 1.7zm2.109-2.53a.97.97 0 0 0 .582-.168q.233-.174.233-.536a.55.55 0 0 0-.155-.408q-.15-.162-.44-.162h-.783l-.226 1.275zm3.418-.743q.653 0 .996.31t.343.815q0 .078-.013.162a2 2 0 0 1-.02.168l-.323 1.818h-.835l.059-.336h-.052q-.15.187-.375.317a1.1 1.1 0 0 1-.537.123 1.2 1.2 0 0 1-.44-.078 1 1 0 0 1-.337-.2 1 1 0 0 1-.29-.72q0-.27.103-.484.11-.213.304-.362.2-.155.472-.233.279-.084.608-.084.24 0 .434.045.2.038.38.104l.027-.097a.42.42 0 0 0-.162-.446.7.7 0 0 0-.446-.136.9.9 0 0 0-.433.097 1 1 0 0 0-.337.265l-.57-.414q.26-.33.635-.48.375-.154.809-.154m-.48 2.717q.163 0 .305-.058a1 1 0 0 0 .259-.162.9.9 0 0 0 .187-.233.9.9 0 0 0 .104-.278 2 2 0 0 0-.278-.097 1.3 1.3 0 0 0-.408-.058.85.85 0 0 0-.466.123.39.39 0 0 0-.194.362q0 .2.143.304a.6.6 0 0 0 .349.097m4.44-2.717q.284 0 .524.116.24.11.414.31.174.195.272.473.096.271.097.595a2 2 0 0 1-.13.718 1.83 1.83 0 0 1-.938 1.01 1.7 1.7 0 0 1-.724.155q-.318 0-.583-.136a.9.9 0 0 1-.368-.35H10l-.02.453-.232 1.327H8.9l.809-4.568h.79l-.066.382h.052q.13-.187.37-.336.244-.15.633-.15m-.51 2.594a.9.9 0 0 0 .387-.084 1 1 0 0 0 .31-.227 1 1 0 0 0 .201-.33 1.1 1.1 0 0 0 .071-.394q0-.356-.213-.563a.76.76 0 0 0-.563-.213.9.9 0 0 0-.362.077 1 1 0 0 0-.31.214q-.13.135-.214.33a1.1 1.1 0 0 0-.078.427q0 .348.213.556a.77.77 0 0 0 .557.207m5.11-.097a2.2 2.2 0 0 1-.655.647q-.374.233-.938.233a1.6 1.6 0 0 1-.627-.117 1.4 1.4 0 0 1-.466-.317 1.4 1.4 0 0 1-.298-.478 1.7 1.7 0 0 1-.103-.59 1.87 1.87 0 0 1 1.113-1.72q.348-.155.776-.155.349 0 .608.11a1.21 1.21 0 0 1 .712.705q.09.24.09.505 0 .303-.09.562H13.82v.065q.015.349.227.518a.84.84 0 0 0 .51.16q.312.001.525-.115.213-.123.362-.35l.64.337m-.576-1.216v-.026a.52.52 0 0 0-.175-.388q-.168-.175-.517-.175a.92.92 0 0 0-.557.175.9.9 0 0 0-.323.414zm1.008 1.992.556-3.17h.796l-.078.44h.052q.156-.226.4-.375.247-.155.577-.155.168 0 .272.032.11.033.187.084l-.317.77a1 1 0 0 0-.168-.058.8.8 0 0 0-.226-.026.83.83 0 0 0-.621.259q-.246.252-.317.666l-.266 1.533zm3.847.104a1.8 1.8 0 0 1-.524-.071 1.4 1.4 0 0 1-.407-.195 1.3 1.3 0 0 1-.285-.284 1.4 1.4 0 0 1-.168-.356l.783-.317a.54.54 0 0 0 .232.362q.189.117.434.117.22 0 .369-.078.155-.083.155-.233a.25.25 0 0 0-.104-.207.9.9 0 0 0-.33-.142l-.342-.084a1.7 1.7 0 0 1-.298-.11.97.97 0 0 1-.46-.44.8.8 0 0 1-.07-.336q0-.24.103-.421a1 1 0 0 1 .298-.317 1.4 1.4 0 0 1 .44-.194q.251-.07.55-.071.95 0 1.26.763l-.775.285a.44.44 0 0 0-.207-.265.65.65 0 0 0-.35-.098.66.66 0 0 0-.35.078q-.122.071-.122.194 0 .207.356.298l.446.116q.408.103.608.337a.78.78 0 0 1 .207.537q0 .265-.11.478a1.1 1.1 0 0 1-.304.356 1.5 1.5 0 0 1-.46.22 2 2 0 0 1-.575.078"/></svg>