<svg xmlns="http://www.w3.org/2000/svg" width="24" height="24" fill="none" viewBox="0 0 24 24"><path fill="#000" d="m13.651 10.2 2.103.773c.34.12.753-.04.753-.292V5.354c0-.122-.102-.231-.266-.289l-2.103-.772c-.34-.12-.754.04-.754.289v5.327c0 .122.103.233.267.292zm0 9.563 2.103.772c.34.12.753-.04.753-.291v-5.327c0-.122-.102-.234-.266-.292l-2.103-.772c-.34-.12-.754.04-.754.292v5.326c0 .121.103.233.267.291M9.757 8.42l2.103.771c.34.12.75-.04.75-.292V3.104c0-.122-.102-.234-.267-.292l-2.099-.771c-.34-.12-.753.04-.753.288v5.798c0 .122.102.235.266.292zm0 12.767 2.103.772c.34.12.75-.04.75-.292v-5.78c0-.122-.102-.234-.267-.292l-2.099-.771c-.34-.12-.753.04-.753.291v5.78c0 .122.102.234.266.292zM8.719 3.321c0-.121-.103-.23-.267-.291l-2.103-.772c-.34-.12-.753.04-.753.292v18.129c0 .121.102.234.267.292l2.102.772c.34.12.754-.04.754-.292zm11.414 4.813-2.102-.772c-.34-.12-.75.04-.75.292v8.75c0 .121.102.233.266.29l2.103.773c.34.12.753-.04.753-.292V8.426c0-.121-.102-.233-.267-.292"/></svg>