<svg xmlns="http://www.w3.org/2000/svg" viewBox="0 0 24 24"><path d="M12.205 6.176C6.334 6.176 2 11.456 2 17.214a.61.61 0 0 0 .61.611.61.61 0 0 0 .612-.61c0-5.149 3.848-9.817 8.983-9.817 0 0 1.748-.064 3.68.855 1.93.918 4.032 2.76 4.795 6.81l.089.537c.061.373-.167.7-.48.767l-.003.001c-.318.068-.628-.131-.705-.505l-.018-.087v-.002a11.605 11.605 0 0 0-1.134-3.032c-.572-1.032-1.34-1.967-2.317-2.657-2.335-1.646-5.289-1.572-7.648-.186-1.873 1.1-3.11 2.97-3.557 5.122l.007-.03-.092.354c-.27 1.035.38 2.119 1.434 2.3.881.152 1.736-.402 2.001-1.257.215-.694.612-1.639 1.246-2.37.634-.73 1.457-1.257 2.707-1.247h.01c1.047-.01 1.878.485 2.497 1.285.619.8.984 1.91.984 3.004a.61.61 0 0 0 .611.611.61.61 0 0 0 .61-.61c0-1.36-.433-2.71-1.239-3.752-.804-1.04-2.02-1.77-3.469-1.76-1.615-.01-2.83.743-3.634 1.669-.805.927-1.245 2.016-1.49 2.808-.095.307-.357.462-.626.415-.328-.056-.559-.409-.46-.789l.096-.367.003-.015c.386-1.854 1.424-3.405 2.98-4.318 1.997-1.173 4.398-1.228 6.325.131.797.563 1.454 1.351 1.951 2.25.461.834.793 1.758 1.011 2.711l.014.066c.205.989 1.17 1.663 2.156 1.453h.006l.007-.003-.01.002c.974-.207 1.593-1.176 1.431-2.16l-.091-.556-.002-.007c-.827-4.397-3.262-6.638-5.472-7.69-2.21-1.05-4.204-.973-4.204-.973z"/></svg>