<svg xmlns="http://www.w3.org/2000/svg" viewBox="0 0 24 24"><path d="M4.234 2a.4.4 0 0 0-.166.03c-.251.106-.3.228-.3.743 0 .526.038.653.747.789l3.016.476-.106.182a1.93 1.93 0 0 0-1.821-.103l1.02 1.775h-.937c-.344.003-.432-.019-.474-.076-.047-.065-.175-.084-.562-.084-.5 0-.5 0-.5.14 0 .078.073.7.162 1.384S4.712 10.434 5 12.8c.287 2.365.608 4.981.713 5.814s.19 1.733.19 2c.001.267.027.579.059.692.07.253.373.567.613.636.104.03 2.322.054 5.37.057 2.33.002 3.627.004 4.405-.015h.084l.052-.004c.96-.028 1.006-.098 1.187-.267.252-.235.299-.407.342-1.27.024-.49.385-3.577.892-7.634L19.76 6l.157-.18c.087-.098.2-.328.251-.513.085-.301.086-.355.013-.53-.045-.107-.138-.22-.207-.25-.128-.055-3.761-.656-8.29-1.37a1014 1014 0 0 1-4.95-.795c-1.709-.28-2.26-.365-2.499-.36zM7.67 4.06l.05.008.021.004 2.508.396-.001.004.504.08c2.961.467 5.208.83 6.536 1.055a.3.3 0 0 0 .097.016c.672.114 1.163.2 1.202.217.064.03-1.794.05-4.556.053l-2.363-.001H8.374V5.87h.647a.066.066 0 0 0 .066-.065.065.065 0 0 0-.065-.065l-.656-.001a2 2 0 0 0-.261-.812 2 2 0 0 0-.57-.634zm-.913.453a.163.163 0 1 1-.023.326.163.163 0 0 1 .023-.326m3.757 5.624c.127.01.35.053.573.113l.538.143.087-.115c.083-.11.094-.087.242.489.085.332.14.638.125.68-.017.043-.257.27-.535.506-.28.237-.475.372-.438.302.095-.177.01-.242-.505-.385-.404-.111-.442-.113-.756-.033-.38.098-1.132.4-1.178.475-.048.077-.134.058-.134-.03 0-.146.1-.34.258-.5.086-.088.46-.487.832-.887s.732-.74.8-.757a.3.3 0 0 1 .091-.001m2.577.64c.154-.011.742.135 1.182.3.35.133.468.336.725 1.257l.306 1.092c.13.45.112.5-.31.936-.338.348-.38.415-.33.51a.34.34 0 0 0 .128.138c.099.04.029.033-.622-.058l-.582-.081-.174-.654c-.21-.788-.212-.798-.183-.746.062.111.272.011.566-.269.274-.261.402-.457.299-.457-.057 0-1.416-.382-1.438-.404-.018-.018.294-1.245.395-1.55q.005-.013.038-.015zm-3.204 3.547-.024.024zm.047.129.62.17c.488.134.595.18.5.214-.132.05-.13.077.05.716.136.485.209.472.743-.126.241-.27.458-.49.482-.49s.313.239.641.531l.597.532-.398.44c-.224.249-.502.495-.638.565-.25.128-.407.143-.683.066a26 26 0 0 0-1.106-.219c-.665-.122-.966-.2-1.028-.269-.048-.053-.155-.34-.238-.638-.148-.533-.154-.543-.314-.54-.157.001-.145-.017.305-.476zm4.901.402zl.004.006zm-3.655.41v.002-.001q0-.003 0 0zm.003.003.006.022-.007-.019.002-.003z"/></svg>