<svg xmlns="http://www.w3.org/2000/svg" viewBox="0 0 24 24"><path fill-rule="evenodd" d="M4 7.116v7.94c0 .413.218.79.573.997l6.881 3.965.05.027L14.894 22l-.01-1.719.006-1.008a1 1 0 0 1 .5-.86l4.092-2.36a1.15 1.15 0 0 0 .573-.997v-7.94c0-.413-.218-.79-.573-.997l-6.88-3.964a1.14 1.14 0 0 0-1.148 0L4.574 6.13A1.15 1.15 0 0 0 4 7.116m6.903.355a1.185 1.185 0 0 0-1.651 0 1.183 1.183 0 0 0 0 1.72 1.185 1.185 0 0 0 1.697-.047l3.143 1.81.011-.006c-.14.42-.037.903.31 1.233a1.185 1.185 0 0 0 1.651 0 1.183 1.183 0 0 0 0-1.72 1.185 1.185 0 0 0-1.651 0l-.007.008-.01.009-3.165-1.834a1.18 1.18 0 0 0-.328-1.173m-1.651 6.153a1.185 1.185 0 0 1 1.711.062l2.785-1.597.573.32-3.085 1.781a1.18 1.18 0 0 1-.333 1.153 1.185 1.185 0 0 1-1.651 0 1.183 1.183 0 0 1 0-1.719"/></svg>