<svg xmlns="http://www.w3.org/2000/svg" width="24" height="24" fill="none" viewBox="0 0 24 24"><path fill="#000" d="M18.842 4v1.053H22V4zm-8.42 2.105v1.053h3.157V6.105H10.42m8.42 0v1.053H22V6.105h-3.158m-8.42 2.106v1.052h3.157V8.211H10.42m8.42 0v1.052H22V8.211h-3.158M2 10.316v1.052h3.158v-1.052zm8.421 0v1.052h3.158v-1.052H10.42m4.21 0v1.052h3.159v-1.052h-3.158m4.211 0v1.052H22v-1.052zM2 12.42v1.053h3.158V12.42zm8.421 0v1.053h3.158V12.42H10.42m4.21 0v1.053h3.159V12.42h-3.158m4.211 0v1.053H22V12.42zM2 14.526v1.053h3.158v-1.053zm4.21 0v1.053h3.158v-1.053H6.211m4.211 0v1.053h3.158v-1.053h-3.16m4.21 0v1.053h3.159v-1.053h-3.158m4.211 0v1.053H22v-1.053zM2 16.632v1.052h3.158v-1.052zm4.21 0v1.052h3.158v-1.052H6.211m4.211 0v1.052h3.158v-1.052h-3.16m4.21 0v1.052h3.159v-1.052h-3.158m4.211 0v1.052H22v-1.052zM2 18.737v1.053h3.158v-1.053zm4.21 0v1.053h3.158v-1.053H6.211m4.211 0v1.053h3.158v-1.053h-3.16m4.21 0v1.053h3.159v-1.053h-3.158m4.211 0v1.053H22v-1.053z"/></svg>