<svg version="1.1" viewBox="0 0 192 192" xmlns="http://www.w3.org/2000/svg"><path d="m34.185 37.82c-6.0433 0-10.909 4.8652-10.909 10.909v94.543c0 6.0433 4.8652 10.909 10.909 10.909h123.63c6.0433 0 10.909-4.8652 10.909-10.909v-94.543c0-6.0433-4.8652-10.909-10.909-10.909zm99.086 72.723 6.3633 7.2723h-3.6362v18.181h-5.4542v-18.181h-3.6362zm16.363 0 6.3633 7.2723h-3.6362v18.181h-5.4542v-18.181h-3.6362zm-113.63 3.6362h36.362c1.0072 0 1.8181 0.81086 1.8181 1.818v25.453c0 1.0072-0.81087 1.8181-1.8181 1.8181h-36.362c-1.0072 0-1.8181-0.81086-1.8181-1.8181v-25.453c0-1.0072 0.81087-1.818 1.8181-1.818zm89.087 25.453h32.725v3.6362h-32.725z" opacity=".8"/><path d="m37.822 117.81v5.4542h21.817v-5.4542zm0 7.2724v5.4542h29.089v-5.4542zm0 10.909v3.6362h32.725v-3.6362z" opacity=".6"/><path d="m23.277 37.82-7.0202 32.725c-1.2964 6.0433 2.5251 10.909 8.5687 10.909h142.36c6.0433 0 9.8646-4.8652 8.5687-10.909l-7.0268-32.725z"/></svg>
