<svg xmlns="http://www.w3.org/2000/svg" viewBox="0 0 24 24"><path d="M12 19.103q-.204 0-.947-.748-.743-.749-.743-.953 0-.325.636-.55.636-.224 1.054-.224t1.054.224q.636.225.636.55 0 .204-.743.953-.743.748-.947.748m2.75-2.76q-.02 0-.408-.254-.387-.255-1.033-.51-.647-.254-1.309-.254t-1.309.255q-.646.254-1.028.509-.382.254-.412.254-.184 0-.953-.763-.768-.764-.768-.947 0-.133.101-.235.795-.784 1.996-1.232T12 12.718t2.373.448 1.996 1.232q.101.102.101.235 0 .183-.768.947-.77.763-.953.763m2.78-2.77q-.112 0-.234-.081-1.385-1.07-2.566-1.573-1.181-.504-2.73-.504-.865 0-1.735.224t-1.518.54q-.646.315-1.156.63t-.804.54-.316.224q-.173 0-.937-.763-.763-.764-.763-.947 0-.123.102-.224Q6.216 10.294 8.13 9.55q1.915-.743 3.87-.743t3.87.743q1.914.743 3.258 2.088.102.101.102.224 0 .183-.764.947-.763.763-.936.763m2.76-2.76q-.113 0-.225-.09-1.823-1.6-3.783-2.41-1.96-.809-4.282-.809t-4.282.81-3.783 2.408q-.112.092-.224.092-.173 0-.942-.764Q2 9.286 2 9.103q0-.132.102-.234 1.904-1.894 4.531-2.933Q9.261 4.897 12 4.897t5.367 1.039q2.627 1.039 4.531 2.933.102.102.102.234 0 .183-.769.947t-.942.764"/></svg>