<svg xmlns="http://www.w3.org/2000/svg" viewBox="0 0 24 24"><path d="m21.388 2-.159.117c-1.418 1.04-2.742 1.752-5.374 2.889a92.226 92.226 0 0 0-2.87 1.297c-.929.449-1.169.597-1.47.906-.804.823-1.316 2.445-1.316 4.168 0 .333-.026.605-.059.605-.077 0-.41-.262-.602-.474-.212-.236-.526-.91-.63-1.355a8.456 8.456 0 0 1-.126-1.107l-.04-.735-.75.769c-2.471 2.534-3.305 5.06-2.626 7.959l.113.485-.706.802c-1.29 1.466-2.16 2.696-2.16 3.055 0 .287.101.48.292.558.284.114.462.072.68-.159.116-.125.388-.483.602-.796.417-.61 1.032-1.366 1.747-2.148l.443-.484.742.099c1.892.252 3.876.036 5.551-.605 2.007-.766 3.884-2.39 5.275-4.562 1.735-2.71 2.909-6.468 3.398-10.882zM5.468 20.821l-.175.164c-.284.268-.217.818.118.954.083.034 2.448.054 5.386.047l5.239-.014.13-.16c.192-.237.17-.623-.046-.827l-.175-.164z"/></svg>