<svg xmlns="http://www.w3.org/2000/svg" width="24" height="24" viewBox="0 0 23.999999 24"><path d="M7.4223806 2.721a1.1992677 1.1992677 0 0 0-1.195632 1.1956319v5.064305a4.2242863 4.2242863 0 0 0-2.4807613 3.7246381 3.2219133 3.2219133 0 0 0 1.4571326 6.085836h1.0236287v1.292122a1.1992677 1.1992677 0 0 0 1.195632 1.195631H20.804368A1.1992677 1.1992677 0 0 0 22 20.083533V9.4333193h-8.362431V2.721Zm7.1388314 0v5.9390042H22ZM7.8251197 9.0473609a3.7660586 3.7660586 0 0 1 3.5176753 2.0794211 2.8854023 2.8854023 0 0 1 4.166532 1.875953 2.7636856 2.7636856 0 0 1-1.020133 5.326505H5.2031199a2.7636856 2.7636856 0 0 1-.9949615-5.341188v-.185988a3.7660586 3.7660586 0 0 1 3.6169613-3.7547031Zm1.2837309 4.0518631a.68376159.68376159 0 0 0-.6838174.683818.68376159.68376159 0 0 0 .3943486.618093l-.3726734 1.540337h1.3242848l-.3747712-1.538939a.68376159.68376159 0 0 0 .396446-.619491.68376159.68376159 0 0 0-.6838174-.683818Z" style="stroke-width:.35799"/></svg>