<svg xmlns="http://www.w3.org/2000/svg" width="24" height="24" viewBox="0 0 24 24"><path d="M7.422 2.721a1.2 1.2 0 0 0-1.195 1.196V8.98a4.22 4.22 0 0 0-2.481 3.725 3.222 3.222 0 0 0 1.457 6.085h1.024v1.293a1.2 1.2 0 0 0 1.195 1.195h13.382A1.2 1.2 0 0 0 22 20.084V9.434h-8.362V2.72Zm7.14 0V8.66H22ZM7.824 9.047a3.77 3.77 0 0 1 3.518 2.08 2.885 2.885 0 0 1 4.166 1.876 2.764 2.764 0 0 1-1.02 5.326H5.203a2.764 2.764 0 0 1-.995-5.34v-.187a3.766 3.766 0 0 1 3.617-3.755M9.11 13.1a.684.684 0 0 0-.684.684.68.68 0 0 0 .394.618l-.372 1.54H9.77l-.375-1.538a.68.68 0 0 0 .397-.62.684.684 0 0 0-.684-.684Z" style="stroke-width:.35799"/></svg>