<svg xmlns="http://www.w3.org/2000/svg" viewBox="0 0 24 24"><path d="M13.487 5.763C9.851 4.439 4.534 2.017 4.534 2.017c-.379-.098-.43.265-.43.265-.12 1.469.81 3.86 1.29 4.395.476.535 7.671 2.734 7.671 2.734s-5.53-1.117-6.867-1.5c-1.336-.383-.91.43-.91.43.274 1.484 1.559 3.167 2.578 3.328 1.016.16 5.289.097 5.289.097s-.851.098-2.242.285c-1.027.141-2.332.301-2.672.43-.797.3.578 1.504.578 1.504 2.035 1.847 3.117 1.215 3.117 1.215a27.65 27.65 0 0 1 2.047-.582l-.71 2.94h2.034L14.19 22l4.933-6.535h-2.585l.535-.93c.008.012.008.02.008.02s1.835-2.933 2.535-4.433l.015-.024h-.004c.121-.257.207-.472.242-.62.414-1.715-2.746-2.391-6.382-3.715z"/></svg>