<svg xmlns="http://www.w3.org/2000/svg" viewBox="0 0 24 24"><path d="M7.44 3.385h-.243V7.85C4.238 8.41 2 11.03 2 14.178c0 3.554 2.856 6.437 6.383 6.437h5.074c4.719 0 8.543-3.856 8.543-8.614s-3.825-8.616-8.543-8.616zM2.487 14.177c0-3.047 2.27-5.558 5.197-5.908V3.876h5.776c4.45 0 8.056 3.637 8.056 8.124s-3.606 8.125-8.056 8.125H8.383c-3.257 0-5.897-2.663-5.897-5.948zm6.018-5.886c3.17.081 5.715 2.698 5.715 5.916a5.92 5.92 0 0 1-2.822 5.059h2.154c3.936-.049 7.113-3.285 7.113-7.267s-3.177-7.216-7.113-7.266H8.504v3.558zm4.926 5.884c0 2.812-2.26 5.091-5.047 5.091s-5.047-2.279-5.047-5.09 2.258-5.089 5.046-5.089c2.786 0 5.046 2.279 5.046 5.09z"/></svg>