<svg xmlns="http://www.w3.org/2000/svg" viewBox="0 0 24 24"><path d="M18.931 5.641a16.5 16.5 0 0 0-4.07-1.262.06.06 0 0 0-.066.03c-.176.314-.37.721-.507 1.042a15.2 15.2 0 0 0-4.573 0 11 11 0 0 0-.514-1.041.06.06 0 0 0-.066-.031 16.5 16.5 0 0 0-4.07 1.263.06.06 0 0 0-.027.023c-2.593 3.873-3.304 7.652-2.955 11.384a.07.07 0 0 0 .026.046 16.6 16.6 0 0 0 4.994 2.525.07.07 0 0 0 .07-.023q.58-.789 1.022-1.662a.063.063 0 0 0-.035-.088 11 11 0 0 1-1.56-.744.064.064 0 0 1-.006-.106q.159-.119.31-.243a.06.06 0 0 1 .064-.009c3.273 1.495 6.817 1.495 10.051 0a.06.06 0 0 1 .066.008q.151.125.31.244a.064.064 0 0 1-.005.106q-.745.437-1.561.743a.064.064 0 0 0-.034.089c.3.582.643 1.136 1.02 1.661a.064.064 0 0 0 .071.024 16.5 16.5 0 0 0 5.002-2.525.07.07 0 0 0 .026-.046c.417-4.314-.698-8.061-2.957-11.384a.05.05 0 0 0-.026-.024M8.684 14.776c-.985 0-1.797-.905-1.797-2.016s.796-2.015 1.797-2.015c1.009 0 1.813.912 1.797 2.015 0 1.111-.796 2.016-1.797 2.016m6.646 0c-.986 0-1.798-.905-1.798-2.016s.796-2.015 1.798-2.015c1.009 0 1.813.912 1.797 2.015 0 1.111-.788 2.016-1.797 2.016"/></svg>