<svg xmlns="http://www.w3.org/2000/svg" viewBox="0 0 24 24"><path d="M18.931 5.641a16.49 16.49 0 0 0-4.07-1.262.062.062 0 0 0-.066.03c-.176.314-.37.721-.507 1.042a15.225 15.225 0 0 0-4.573 0 10.534 10.534 0 0 0-.514-1.041.064.064 0 0 0-.066-.031 16.447 16.447 0 0 0-4.07 1.263.058.058 0 0 0-.027.023c-2.593 3.873-3.304 7.652-2.955 11.384a.069.069 0 0 0 .026.046 16.587 16.587 0 0 0 4.994 2.525.065.065 0 0 0 .07-.023c.385-.526.728-1.08 1.022-1.662a.063.063 0 0 0-.035-.088 10.918 10.918 0 0 1-1.56-.744.064.064 0 0 1-.006-.106c.105-.079.21-.16.31-.243a.062.062 0 0 1 .064-.009c3.273 1.495 6.817 1.495 10.051 0a.061.061 0 0 1 .066.008c.1.083.205.165.31.244a.064.064 0 0 1-.005.106c-.498.292-1.016.538-1.561.743a.064.064 0 0 0-.034.089c.3.582.643 1.136 1.02 1.661a.064.064 0 0 0 .071.024 16.529 16.529 0 0 0 5.002-2.525.065.065 0 0 0 .026-.046c.417-4.314-.698-8.061-2.957-11.384a.05.05 0 0 0-.026-.024zM8.684 14.776c-.985 0-1.797-.905-1.797-2.016 0-1.11.796-2.015 1.797-2.015 1.009 0 1.813.912 1.797 2.015 0 1.111-.796 2.016-1.797 2.016zm6.646 0c-.986 0-1.798-.905-1.798-2.016 0-1.11.796-2.015 1.798-2.015 1.009 0 1.813.912 1.797 2.015 0 1.111-.788 2.016-1.797 2.016z"/></svg>