<svg xmlns="http://www.w3.org/2000/svg" width="192" height="192" viewBox="0 0 192 192"><path d="M59.52 27.08h-1.944V62.8C33.904 67.28 16 88.24 16 113.424c0 28.432 22.848 51.496 51.064 51.496h40.592c37.752 0 68.344-30.848 68.344-68.912S145.4 27.08 107.656 27.08zm-39.624 86.336c0-24.376 18.16-44.464 41.576-47.264V31.008h46.208c35.6 0 64.448 29.096 64.448 64.992s-28.848 65-64.448 65H67.064c-26.056 0-47.176-21.304-47.176-47.584zM68.04 66.328c25.36.648 45.72 21.584 45.72 47.328a47.36 47.36 0 0 1-22.576 40.472h17.232c31.488-.392 56.904-26.28 56.904-58.136s-25.416-57.728-56.904-58.128H68.032v28.464zm39.408 47.072c0 22.496-18.08 40.728-40.376 40.728s-40.376-18.232-40.376-40.72S44.76 72.696 67.064 72.696c22.288 0 40.368 18.232 40.368 40.72z"/></svg>