<svg xmlns="http://www.w3.org/2000/svg" viewBox="0 0 192 192"><path d="M16 114.89v39.8h5.232v-15.088c0-5.416 2.752-8.736 7.344-8.736 4.632 0 6.96 2.728 6.96 8.704v15.152h5.224v-16.76c0-7.656-4.96-11.864-11.616-11.864-3.472 0-6.16 1.264-7.8 3.728h-.112v-9.704a5.248 5.248 0 0 0-5.232-5.24zm106.35 2.608-5.232.032v9.368h-2.16v5.008h2.16v18.4c0 2.872 2.36 5.224 5.232 5.224v-23.672h4.584v-4.992h-4.584zm-41.68.032v9.32h-2.16v4.904h2.16v18.544a5.244 5.244 0 0 0 5.232 5.232v-23.736h4.592v-4.992h-4.592v-9.272zm-20.096 8.544c-8.464 0-15.128 6.208-15.2 14.648-.08 7.768 6.52 14.488 14.312 14.72 5.104.136 7.592-1.224 10.272-3.408 3.368-2.744 5.4-6.816 5.464-11.04.08-8.848-7.168-14.92-14.848-14.92m41.896 0c-4.552 0-8.728 3.288-8.768 8.224 0 3.168 1.16 6.128 8 8.288 3.28 1.048 4.736 2.32 4.736 4.224 0 2.24-1.6 3.808-4.024 3.808-2.768 0-4.496-1.712-4.76-5.072h-5.216c0 3.344 1.296 5.872 3.256 7.536 1.808 1.528 4.184 2.464 6.608 2.464 2.544 0 4.744-.92 6.384-2.288 1.864-1.568 2.984-3.92 2.984-6.784 0-5.152-3.632-7.544-7.552-8.736-2.768-.856-5.184-1.568-5.184-3.92 0-1.6 1.272-2.8 3.28-2.8 2.176 0 3.328 1.336 3.6 3.36h5.224a8.36 8.36 0 0 0-8.56-8.304zm40.44 0c-8.184 0-14.52 6.24-14.52 15.176 0 4.832 2.464 9.024 6.128 11.56 2.44 1.696 4.976 2.736 8.232 2.736 1.448 0 3.224-.384 4.504-.84a9.92 9.92 0 0 0 5.32-4.312h.112v4.328h5.232v-27.888h-5.232v3.92h-.112c-2.16-3.176-5.6-4.68-9.664-4.68m33.08 0c-3.656.192-5.816 1.432-7.04 3.256h-.112v-2.496h-4.904v27.936c2.88 0 5.232-1.784 5.232-4.656v-11.032c0-4.704 2.312-7.464 6.824-7.616zm-115.3 4.792c.312 0 .24.016.544.048a9.78 9.78 0 0 1 8.92 9.784 9.9 9.9 0 0 1-9.648 9.968 9.76 9.76 0 0 1-9.624-7.472 9.84 9.84 0 0 1 2.544-9.376c1.784-1.816 5.296-2.952 7.264-2.952m82.336.144c2.6 0 4.848.76 6.512 2.256a10.24 10.24 0 0 1 3.224 7.568c0 2.24-.8 4.336-2.104 6.024a9.6 9.6 0 0 1-7.84 3.808c-4.848-.112-8.84-4.04-9.256-8.896a10.08 10.08 0 0 1 6.04-10.224c1.064-.44 2.216-.536 3.424-.536m-91.56-72.368c-.696.784.16 1.6.984.976 13.216-13.488 29.432-20.24 48.224-20.352a67.52 67.52 0 0 1 33.048 8.464c17.968 10.08 24.4 25.32 26.168 30.688.104.28.376.784 1 .784h2.552c.6 0 .832-.568.696-1a59.52 59.52 0 0 0-14.56-22.96 65.6 65.6 0 0 0-27.88-16.056c-22.976-6.576-51.28-1.76-70.232 19.456m-20.744 9.592a34.97 34.97 0 0 0-4.72.256 32 32 0 0 0-4.12.8 6.4 6.4 0 0 0-1.864.784 4.8 4.8 0 0 0-1.496 1.616c-.368.648-.72 1.36-.528 2.088.16.616.992.816 1.744.944.672.104 2.208.184 2.608-.32.12-.112.168-.448.016-.672-.16-.272-.536-.464-.912-.536-.312-.056-.832-.104-1.16-.152a1.6 1.6 0 0 1-.4-.104l-.04-.024-.024-.032.088-.088a8 8 0 0 1 1.312-.456 19.2 19.2 0 0 1 3.624-.488 36.985 36.985 0 0 1 3.376-.024c3.968.128 7.824.768 11.688 1.864a69.12 69.12 0 0 1 6.496 2.24 45.752 45.752 0 0 1 9.456 5.104c2.672 1.88 5.056 4.008 6.904 6.368 1.12 1.44 2.456 3.608 3.12 5.72a8.24 8.24 0 0 1-.08 5.592c-.768 2-2.376 3.864-5.024 5.248q-1.464.768-3.376 1.328-2.08.576-4.2.792a40 40 0 0 1-5.016.176 40 40 0 0 1-4.832-.584l-.256-12.24a39.2 39.2 0 0 1 11.2 1.896c.456.16 1 .48 1.04.976a.8.8 0 0 1-.184.56 4 4 0 0 1-1.384 1.04c-.288.136-.536.24-.656.368-.12.168-.128.416.04.552a2.4 2.4 0 0 0 .984.4 3.84 3.84 0 0 0 3.896-1.224c.8-.88 1.024-1.552 1.096-2.264a3.84 3.84 0 0 0-.704-2.568 6.88 6.88 0 0 0-2.64-2.056 22.4 22.4 0 0 0-5.328-1.624 35.2 35.2 0 0 0-5.408-.512c-.992-.016-1.984.032-1.984.032s-.04-1.664-.112-2.76c-.12-1.816-.624-5.376-2.272-6.4-.304-.184-.672-.2-.88.08-.32.416-.64 2.008-.712 2.416l-.208 1.408a56 56 0 0 0-.4 5.656l-.072.08s-.744.104-1.688.296a30.4 30.4 0 0 0-6.128 1.856c-1.52.664-3.688 1.832-4.352 3.368a2.4 2.4 0 0 0-.232 1.008 4 4 0 0 0 .544 2.088c.72 1.36 2.144 2.808 3.352 3.896a32 32 0 0 0 7.2 4.832l1.224.584.144 1.248c.08.712.152 1.432.432 2.096q.16.36.4.648a2.08 2.08 0 0 0 1.24.68 3.6 3.6 0 0 0 1.872-.224 1.28 1.28 0 0 0 .576-.608 4 4 0 0 0 .28-1.12c.024-.368 0-.784 0-.784s1.464.344 2.48.528a29.6 29.6 0 0 0 17.16-1.976q2.064-.944 3.664-2.264a13.6 13.6 0 0 0 3.008-3.52l.344-.56a11.2 11.2 0 0 0 1.52-4.936c.112-2-.288-4-1.064-5.832a20 20 0 0 0-2.144-3.88 34.4 34.4 0 0 0-3.944-4.664 40 40 0 0 0-2.88-2.624c-1.728-1.432-3.376-2.504-3.88-2.84a48 48 0 0 0-5.312-2.992 56 56 0 0 0-10.632-3.896 56 56 0 0 0-6.576-1.344 40 40 0 0 0-4.304-.32m48.832 3.4a10.4 10.4 0 0 0-4.056.84 13.6 13.6 0 0 0-4.56 3.12c-1.224 1.296-2.16 2.944-2.064 4.72a4 4 0 0 0 .544 1.968q.192.312.424.632c.16.24.32.48.368.72.056.264.008.616.016.928.024.72.336 1.464.88 1.944q.336.28.64.24a.8.8 0 0 0 .504-.216 2.4 2.4 0 0 0 .376-.432c.096-.136.496-.872.496-.872.288.176 1.16.352 1.16.352a8 8 0 0 0 2.36.08c.792-.08 1.8-.32 2.552-.616 2.36-.928 4.192-2.256 6.032-4.152a6.4 6.4 0 0 0 1.4-2.136 4.32 4.32 0 0 0 .28-2.4 3.36 3.36 0 0 0-1.224-1.976 4.8 4.8 0 0 0-1.76-.832c-.16-.032-.376-.048-.456-.104q-.12-.096-.248-.28a4.8 4.8 0 0 0-1.824-1.232 5.6 5.6 0 0 0-1.84-.296m-3.024 3.848-.704.592a24 24 0 0 0-3.152 3.32q-.552.704-1.056 1.472l-.176-.384a1.6 1.6 0 0 1-.12-.752 2.4 2.4 0 0 1 .344-1.08 6.4 6.4 0 0 1 1.344-1.584 6.88 6.88 0 0 1 2.912-1.512c.344-.064.608-.072.608-.072m6.288.36q.4 0 .776.16a1.44 1.44 0 0 1 .88 1.16 2.56 2.56 0 0 1-.584 1.816 8 8 0 0 1-.768.832 10.4 10.4 0 0 1-3.552 2.032q-1.128.36-2.52.504l-.48.016c-.608.04-1.704-.024-1.76-.16a18.4 18.4 0 0 1 3.504-3.936c.832-.704 1.728-1.36 2.32-1.704a4.48 4.48 0 0 1 2.184-.72m78.96 7.176c-.384 0-.8.336-.688.944.592 3.152.896 6.232.992 9.136h-9.144c-.312 0-.744.208-.744.824v2.624c0 .528.36.816.8.816h9.088a60 60 0 0 1-1 9.176c-.048.4.096.912.84.912h2.32a1.072 1.072 0 0 0 1.08-.976 64 64 0 0 0 .92-9.112h8.96c.432 0 .792-.288.792-.816v-2.624c0-.616-.432-.824-.744-.824h-9.016a64 64 0 0 0-.928-9.136 1.088 1.088 0 0 0-.976-.944zm-53.12 2.64c-.24 0-.48.112-.592.512-.2.8.104 1.656.104 1.656 2.016 6.848 2.472 10.888 2.472 10.888s.096 1.192-.136 1.256c-.16.12-.344-.048-.344-.048-.232.008-2.44-3.704-2.44-3.704l-.432-.72c-2.432-3.928-3.912-5.272-3.912-5.272-.344-.32-1.232-1.208-2.328.016-1.104 1.232-1.976 5.192-2.32 8.912-.296 3.72-.072 5.832.472 6.72.592.904 1.744 1.216 2.696.44 1-.768.816-5.672.968-8.184.16-2.52.4-2.08.4-2.08.224-.056 1.376 2.256 1.376 2.256s3.024 6.2 4.928 7.12c1.92.912 3.472-.56 4.056-1.944.6-1.384 1.608-5.984.104-11.072-1.52-5.096-4.648-6.672-4.648-6.672s-.2-.088-.432-.08zm28.144 2.448c-4.92 4.416-5.768 9.288-5.84 9.696-.48 2.744.088 4.68.92 6.024-.72 1.528-4.456 9.584-3.872 14.512.464 3.208 3.888 6.024 4.32 3.632.8-6.16 2.192-10.48 4.096-15.08 5.336 1.232 9.36-3.968 10.776-6.456 2.2-3.92 1.648-10.92-2.208-10.88-3.784.032-8.752 6.976-10.944 10.336-.4-2.104 1.024-4.768 1.024-4.768s2.28-3.952 2.6-4.752c.32-.808.496-2.472.096-2.64-.28-.128-.76.2-.96.376zm-46.304.04c-1.048 0-2.04.08-2.88.184-2.744.336-6.424 1.192-8 3.448a4.32 4.32 0 0 0-.68 3.28q.112.448.472.832a2.4 2.4 0 0 0 .928.632q.528.192 1.096.272c.52.096 1.04.16 1.232.176a88 88 0 0 0 3.04.264l.944.08.864.096c1.6.176 3.832.464 5.152 1.016 0 0 1.504.52 1.496 1.376 0 .432-.32.76-.64.992a11.2 11.2 0 0 1-4.2 1.728c-1.416.288-2.88.392-4.264.368a6.4 6.4 0 0 1-2.768-.592q-.904-.4-.904-.968c0-.4.208-.76.616-.976a2.4 2.4 0 0 1 1.384-.224c.472.048 1.08.24 1.536.424 1.84.72 2.704 1.344 4.32 1.088.608-.08 2.704-.536 2.992-1.408.072-.208-.032-.44-.184-.592a9.6 9.6 0 0 0-1.832-.84 20.8 20.8 0 0 0-4.88-.896 8.8 8.8 0 0 0-3.48.536 3.2 3.2 0 0 0-1.552 1.168 2.88 2.88 0 0 0-.512 1.632c0 .672.208 1.336.76 2.088a6.4 6.4 0 0 0 1.304 1.264 12.56 12.56 0 0 0 8.48 2.24 11.2 11.2 0 0 0 3.56-.96 6.4 6.4 0 0 0 2.344-1.856 5.2 5.2 0 0 0 .976-2.368 6.4 6.4 0 0 0-.424-3.408 8 8 0 0 0-.536-.96 3.44 3.44 0 0 0-1.28-1.136 8 8 0 0 0-1.968-.728 24 24 0 0 0-2.432-.448l-.192-.024-6.64-.784a8 8 0 0 1-1.008-.2c-.336-.104-.592-.272-.344-.552.136-.144.536-.256.776-.32 3-.824 6.816-.72 9.968-.904.704-.048 2.304-.136 3.08-.384a2.08 2.08 0 0 0 1.52-1.568c.08-.424-.128-.632-.528-.848-1.8-.96-4.4-1.256-6.712-1.24m37.176.184c-4.504 0-10.392 1.096-11.072 1.432-.68.312-.608.816.28 1.936.96 1.168 2.552 1.064 2.552 1.064l-1.4 2.904c-1.144.08-1.544.432-1.544.432-.656.704.248 2.784.248 2.784s-1.984 4.464-.544 6.816c1.552 2.472 3.384 2.352 3.384 2.352 3.48.256 9.2-3.392 9.504-4.6.256-.968-.624-2.04-1.432-2.24-.744-.152-6.48.928-7.16 1.112-.736.2-.408-.496-.408-.496l.88-3s5.472-.208 6.272-.344c.736-.136.776-.648.776-.648s.096-.856.072-1.656c-.08-.864-.76-.784-.76-.784-2.12-.224-5.032.024-5.032.024l.736-2.296s5.816-.28 8.032-.792c1.136-.272.472-1.384.472-1.384-1.384-2.76-2.976-2.608-2.976-2.608zm-52.536.536c-.456 0-.728.64-.864.976-.4 1.048-.696 3.56-.784 4.344-.24 2.368-.44 7.984-.024 10.848.176 1.2.56 1.976 1.776 2.224.496.104 1.392.088 1.784-.16a1.6 1.6 0 0 0 .664-.992c.224-1 .136-2.416.088-3.472l-.136-3.784c-.08-1.688-.288-6.016-.752-7.968-.208-.848-.552-1.616-1.376-1.928a1.6 1.6 0 0 0-.376-.088m70.344 4.344c.272-.016.424.16.512.344.304.616.496 3.856-2.84 6.816a9.6 9.6 0 0 1-4.752 1.968 40 40 0 0 1 5.88-8.28c.544-.608.928-.824 1.2-.848m-107.15.416s-.04 1.808-.048 3.64c0 1.888.016 3.8.04 5.144l.032 1.848s-1.304-.424-1.976-.76a26.4 26.4 0 0 1-8.104-5.448c-.512-.512-1.024-1.024-.904-1.712.096-.528 1.224-1.024 1.656-1.144a40 40 0 0 1 6.288-1.304c1.12-.168 3.016-.264 3.016-.264"/></svg>