<svg xmlns="http://www.w3.org/2000/svg" viewBox="0 0 24 24"><path d="M2 14.361v4.975h.654V17.45c0-.677.344-1.092.918-1.092.579 0 .87.341.87 1.088v1.894h.653v-2.095c0-.957-.62-1.483-1.452-1.483-.434 0-.77.158-.975.466h-.014v-1.213A.656.656 0 0 0 2 14.36zm13.294.326-.654.004v1.171h-.27v.626h.27v2.3c0 .359.295.653.654.653v-2.959h.573v-.624h-.573zm-5.21.004v1.165h-.27v.613h.27v2.318c0 .36.294.654.654.654v-2.967h.574v-.624h-.574v-1.159zm-2.512 1.068c-1.058 0-1.891.776-1.9 1.831-.01.971.815 1.811 1.789 1.84.638.017.949-.153 1.284-.426.421-.343.675-.852.683-1.38.01-1.106-.896-1.865-1.856-1.865m5.237 0c-.569 0-1.091.411-1.096 1.028 0 .396.145.766 1 1.036.41.131.592.29.592.528 0 .28-.2.476-.503.476-.346 0-.562-.214-.595-.634h-.652c0 .418.162.734.407.942.226.191.523.308.826.308.318 0 .593-.115.798-.286.233-.196.373-.49.373-.848 0-.644-.454-.943-.944-1.092-.346-.107-.648-.196-.648-.49 0-.2.159-.35.41-.35.272 0 .416.167.45.42h.653a1.045 1.045 0 0 0-1.07-1.038zm5.055 0c-1.023 0-1.815.78-1.815 1.897 0 .604.308 1.128.766 1.445.305.212.622.342 1.029.342.181 0 .403-.048.563-.105a1.24 1.24 0 0 0 .665-.539h.014v.541h.654v-3.486h-.654v.49h-.014c-.27-.397-.7-.585-1.208-.585m4.135 0c-.457.024-.727.179-.88.407h-.014v-.312h-.613v3.492c.36 0 .654-.223.654-.582v-1.379c0-.588.289-.933.853-.952zm-14.412.599c.039 0 .03.002.068.006.63.057 1.115.58 1.115 1.223 0 .69-.54 1.227-1.206 1.246a1.22 1.22 0 0 1-1.203-.934 1.23 1.23 0 0 1 .318-1.172c.223-.227.662-.369.908-.369m10.292.018c.325 0 .606.095.814.282a1.28 1.28 0 0 1 .403.946c0 .28-.1.542-.263.753a1.2 1.2 0 0 1-.98.476c-.606-.014-1.105-.505-1.157-1.112a1.26 1.26 0 0 1 .755-1.278c.133-.055.277-.067.428-.067M6.434 7.33c-.087.098.02.2.123.122 1.652-1.686 3.679-2.53 6.028-2.544a8.44 8.44 0 0 1 4.131 1.058c2.246 1.26 3.05 3.165 3.271 3.836.013.035.047.098.125.098h.319c.075 0 .104-.071.087-.125a7.44 7.44 0 0 0-1.82-2.87 8.2 8.2 0 0 0-3.485-2.007c-2.872-.822-6.41-.22-8.779 2.432M3.841 8.529c-.121-.001-.339 0-.59.032a4 4 0 0 0-.515.1.8.8 0 0 0-.233.098.6.6 0 0 0-.187.202c-.046.081-.09.17-.066.261.02.077.124.102.218.118.084.013.276.023.326-.04.015-.014.021-.056.002-.084-.02-.034-.067-.058-.114-.067-.039-.007-.104-.013-.145-.019a.2.2 0 0 1-.05-.013l-.005-.003-.003-.004.003-.003.008-.008a1 1 0 0 1 .164-.057 2.4 2.4 0 0 1 .453-.061c.148-.008.299-.008.422-.003.496.016.978.096 1.461.233.262.075.53.168.812.28.398.157.806.373 1.182.638.334.235.632.501.863.796.14.18.307.451.39.715a1.03 1.03 0 0 1-.01.699c-.096.25-.297.483-.628.656q-.183.096-.422.166-.26.072-.525.099a5 5 0 0 1-.627.022 5 5 0 0 1-.604-.073l-.032-1.53a4.9 4.9 0 0 1 1.4.237c.057.02.125.06.13.122a.1.1 0 0 1-.023.07.5.5 0 0 1-.173.13c-.036.017-.067.03-.082.046-.015.021-.016.052.005.069a.3.3 0 0 0 .123.05.48.48 0 0 0 .487-.153c.1-.11.128-.194.137-.283a.48.48 0 0 0-.088-.321.86.86 0 0 0-.33-.257 2.8 2.8 0 0 0-.666-.203 4.4 4.4 0 0 0-.676-.064c-.124-.002-.248.004-.248.004s-.005-.208-.014-.345c-.015-.227-.078-.672-.284-.8-.038-.023-.084-.025-.11.01-.04.052-.08.251-.089.302l-.026.176a7 7 0 0 0-.05.707l-.009.01s-.093.013-.211.037a3.8 3.8 0 0 0-.766.232c-.19.083-.461.229-.544.421a.3.3 0 0 0-.029.126.5.5 0 0 0 .068.261c.09.17.268.351.419.487a4 4 0 0 0 .9.604l.153.073.018.156c.01.089.019.179.054.262q.02.045.05.081a.26.26 0 0 0 .155.085.45.45 0 0 0 .234-.028.16.16 0 0 0 .072-.076.5.5 0 0 0 .035-.14c.003-.046 0-.098 0-.098s.183.043.31.066a3.7 3.7 0 0 0 2.145-.247q.258-.118.458-.283a1.7 1.7 0 0 0 .376-.44l.043-.07a1.4 1.4 0 0 0 .19-.617c.014-.25-.036-.5-.133-.729a2.5 2.5 0 0 0-.268-.485 4.3 4.3 0 0 0-.493-.583 5 5 0 0 0-.36-.328c-.216-.179-.422-.313-.485-.355a6 6 0 0 0-.664-.374 7 7 0 0 0-1.329-.487 7 7 0 0 0-.822-.168 5 5 0 0 0-.538-.04m6.104.425a1.3 1.3 0 0 0-.507.105 1.7 1.7 0 0 0-.57.39c-.153.162-.27.368-.258.59a.5.5 0 0 0 .068.246q.024.039.053.079c.02.03.04.06.046.09.007.033.001.077.002.116.003.09.042.183.11.243q.042.035.08.03a.1.1 0 0 0 .063-.027.3.3 0 0 0 .047-.054c.012-.017.062-.109.062-.109.036.022.145.044.145.044a1 1 0 0 0 .295.01c.099-.01.225-.04.319-.077.295-.116.524-.282.754-.519a.8.8 0 0 0 .175-.267.54.54 0 0 0 .035-.3.42.42 0 0 0-.153-.247.6.6 0 0 0-.22-.104c-.02-.004-.047-.006-.057-.013q-.015-.012-.031-.035a.6.6 0 0 0-.228-.154.7.7 0 0 0-.23-.037m-.378.481-.088.074a3 3 0 0 0-.394.415q-.069.088-.132.184l-.022-.048a.2.2 0 0 1-.015-.094.3.3 0 0 1 .043-.135.8.8 0 0 1 .168-.198.86.86 0 0 1 .364-.189c.043-.008.076-.009.076-.009m.786.045q.05 0 .097.02a.18.18 0 0 1 .11.145.32.32 0 0 1-.073.227 1 1 0 0 1-.096.104 1.3 1.3 0 0 1-.444.254q-.141.045-.315.063l-.06.002c-.076.005-.213-.003-.22-.02a2.3 2.3 0 0 1 .438-.492c.104-.088.216-.17.29-.213a.56.56 0 0 1 .273-.09m9.87.897c-.048 0-.1.042-.086.118.074.394.112.779.124 1.142h-1.143c-.039 0-.093.026-.093.103v.328c0 .066.045.102.1.102h1.136a7.5 7.5 0 0 1-.125 1.147c-.006.05.012.114.105.114h.29a.134.134 0 0 0 .135-.122 8 8 0 0 0 .115-1.139h1.12c.054 0 .099-.036.099-.102v-.328c0-.077-.054-.103-.093-.103H20.78a8 8 0 0 0-.116-1.142.136.136 0 0 0-.122-.118zm-6.64.33c-.03 0-.06.014-.074.064-.025.1.013.207.013.207.252.856.309 1.361.309 1.361s.012.149-.017.157c-.02.015-.043-.006-.043-.006-.029.001-.305-.463-.305-.463l-.054-.09c-.304-.491-.489-.659-.489-.659-.043-.04-.154-.151-.291.002-.138.154-.247.649-.29 1.114-.037.465-.009.729.059.84.074.113.218.152.337.055.125-.096.102-.709.121-1.023.02-.315.05-.26.05-.26.028-.007.172.282.172.282s.378.775.616.89c.24.114.434-.07.507-.243.075-.173.201-.748.013-1.384-.19-.637-.581-.834-.581-.834s-.025-.011-.054-.01zm3.518.306c-.615.552-.721 1.161-.73 1.212-.06.343.011.585.115.753-.09.191-.557 1.198-.484 1.814.058.401.486.753.54.454.1-.77.274-1.31.512-1.885.667.154 1.17-.496 1.347-.807.275-.49.206-1.365-.276-1.36-.473.004-1.094.872-1.368 1.292-.05-.263.128-.596.128-.596s.285-.494.325-.594c.04-.101.062-.309.012-.33-.035-.016-.095.025-.12.047zm-5.788.005c-.131 0-.255.01-.36.023-.343.042-.803.149-1 .431a.54.54 0 0 0-.085.41q.014.056.059.104a.3.3 0 0 0 .116.079q.066.024.137.034c.065.012.13.02.154.022a11 11 0 0 0 .38.033l.118.01.108.012c.2.022.479.058.644.127 0 0 .188.065.187.172 0 .054-.04.095-.08.124a1.4 1.4 0 0 1-.525.216c-.177.036-.36.049-.533.046a.8.8 0 0 1-.346-.074q-.113-.05-.113-.121c0-.05.026-.095.077-.122a.3.3 0 0 1 .173-.028c.059.006.135.03.192.053.23.09.338.168.54.136.076-.01.338-.067.374-.176.009-.026-.004-.055-.023-.074a1.2 1.2 0 0 0-.229-.105 2.6 2.6 0 0 0-.61-.112 1.1 1.1 0 0 0-.435.067.4.4 0 0 0-.194.146.36.36 0 0 0-.064.204c0 .084.026.167.095.261a.8.8 0 0 0 .163.158 1.57 1.57 0 0 0 1.06.28 1.4 1.4 0 0 0 .445-.12.8.8 0 0 0 .293-.232.65.65 0 0 0 .122-.296.8.8 0 0 0-.053-.426 1 1 0 0 0-.067-.12.43.43 0 0 0-.16-.142 1 1 0 0 0-.246-.091 3 3 0 0 0-.304-.056l-.024-.003-.83-.098a1 1 0 0 1-.126-.025c-.042-.013-.074-.034-.043-.069.017-.018.067-.032.097-.04.375-.103.852-.09 1.246-.113.088-.006.288-.017.385-.048a.26.26 0 0 0 .19-.196c.01-.053-.016-.079-.066-.106-.225-.12-.55-.157-.839-.155m4.647.023c-.563 0-1.299.137-1.384.179-.085.039-.076.102.035.242.12.146.319.133.319.133l-.175.363c-.143.01-.193.054-.193.054-.082.088.031.348.031.348s-.248.558-.068.852c.194.309.423.294.423.294.435.032 1.15-.424 1.188-.575.032-.121-.078-.255-.179-.28-.093-.019-.81.116-.895.139-.092.025-.051-.062-.051-.062l.11-.375s.684-.026.784-.043c.092-.017.097-.081.097-.081s.012-.107.009-.207c-.01-.108-.095-.098-.095-.098-.265-.028-.629.003-.629.003l.092-.287s.727-.035 1.004-.099c.142-.034.059-.173.059-.173-.173-.345-.372-.326-.372-.326zm-6.567.067c-.057 0-.091.08-.108.122-.05.131-.087.445-.098.543-.03.296-.055.998-.003 1.356.022.15.07.247.222.278.062.013.174.011.223-.02a.2.2 0 0 0 .083-.124c.028-.125.017-.302.011-.434l-.017-.473c-.01-.211-.036-.752-.094-.996-.026-.106-.069-.202-.172-.241a.2.2 0 0 0-.047-.011m8.793.543c.034-.002.053.02.064.043.038.077.062.482-.355.852a1.2 1.2 0 0 1-.594.246 5 5 0 0 1 .735-1.035c.068-.076.116-.103.15-.106m-13.394.052s-.005.226-.006.455c0 .236.002.475.005.643l.004.231s-.163-.053-.247-.095a3.3 3.3 0 0 1-1.013-.681c-.064-.064-.128-.128-.113-.214.012-.066.153-.128.207-.143a5 5 0 0 1 .786-.163c.14-.021.377-.033.377-.033"/></svg>