<svg xmlns="http://www.w3.org/2000/svg" viewBox="0 0 24 24"><path d="M6.242 9.341c-.088.1.02.203.125.124 1.671-1.706 3.724-2.562 6.102-2.575 1.875 0 3.306.58 4.182 1.07 2.274 1.275 3.087 3.205 3.312 3.884.012.035.047.099.126.099h.322c.076 0 .106-.072.088-.127a7.532 7.532 0 0 0-1.843-2.905A8.279 8.279 0 0 0 15.13 6.88c-2.909-.833-6.49-.223-8.888 2.461zm-2.625 1.214a4.33 4.33 0 0 0-.597.031 3.744 3.744 0 0 0-.522.102.81.81 0 0 0-.235.099.58.58 0 0 0-.19.204c-.046.083-.09.173-.066.265.02.077.125.103.22.119.085.013.28.023.33-.04.015-.015.022-.057.002-.086-.02-.034-.068-.058-.115-.067-.04-.007-.106-.014-.147-.02a.167.167 0 0 1-.056-.016l-.003-.004.003-.003a.082.082 0 0 1 .009-.008.882.882 0 0 1 .165-.058 2.42 2.42 0 0 1 .459-.061c.15-.008.302-.008.427-.004.503.016.99.097 1.48.237.264.076.535.17.821.282.403.16.816.378 1.197.647.338.238.64.507.873.806.142.182.311.457.396.723a1.044 1.044 0 0 1-.01.707c-.098.254-.301.49-.636.665a2.25 2.25 0 0 1-.428.168c-.174.05-.353.081-.531.1a4.62 4.62 0 0 1-.8.012 4.83 4.83 0 0 1-.446-.064l-.033-1.548a4.937 4.937 0 0 1 1.417.24c.058.02.127.061.133.123a.102.102 0 0 1-.024.071.486.486 0 0 1-.175.131c-.037.018-.069.031-.083.048-.016.021-.017.052.005.069a.489.489 0 0 0 .617-.104c.1-.11.13-.197.14-.286a.485.485 0 0 0-.09-.325.866.866 0 0 0-.334-.26 2.785 2.785 0 0 0-.675-.206 4.463 4.463 0 0 0-.684-.065c-.125-.002-.251.004-.251.004s-.005-.21-.014-.35c-.016-.229-.08-.679-.288-.809-.038-.023-.085-.026-.111.01-.04.053-.08.254-.09.306l-.026.178a6.924 6.924 0 0 0-.05.716l-.01.01s-.094.014-.214.037a3.847 3.847 0 0 0-.775.235c-.192.084-.467.232-.55.427a.342.342 0 0 0-.03.127.504.504 0 0 0 .069.265c.09.17.271.355.424.492a4.176 4.176 0 0 0 .91.611l.156.075.018.157c.01.09.02.182.055.266a.31.31 0 0 0 .051.082c.06.067.128.081.156.086a.457.457 0 0 0 .237-.029A.162.162 0 0 0 5.17 16a.479.479 0 0 0 .035-.143c.003-.046.001-.099.001-.099s.185.044.314.068a3.74 3.74 0 0 0 2.171-.25c.174-.08.329-.176.463-.287a1.67 1.67 0 0 0 .381-.446l.044-.07a1.432 1.432 0 0 0 .192-.625 1.657 1.657 0 0 0-.135-.738 2.514 2.514 0 0 0-.27-.49 4.345 4.345 0 0 0-.5-.591 5.08 5.08 0 0 0-.365-.332c-.218-.181-.427-.318-.49-.36a6.214 6.214 0 0 0-.672-.378 7.266 7.266 0 0 0-1.346-.494 6.57 6.57 0 0 0-.833-.169 4.94 4.94 0 0 0-.544-.04zm6.18.43c-.18-.002-.37.045-.514.105a1.73 1.73 0 0 0-.578.396c-.154.163-.272.372-.26.597a.54.54 0 0 0 .07.25c.014.025.034.051.053.078.02.03.039.062.046.091.007.034 0 .078.002.118a.348.348 0 0 0 .111.246c.029.024.056.034.082.031a.108.108 0 0 0 .063-.028.27.27 0 0 0 .047-.055c.012-.017.064-.11.064-.11a.686.686 0 0 0 .146.045.959.959 0 0 0 .299.011c.1-.011.227-.042.323-.08.299-.116.53-.285.763-.524a.84.84 0 0 0 .177-.27.542.542 0 0 0 .035-.305.426.426 0 0 0-.155-.25.587.587 0 0 0-.222-.104c-.02-.004-.047-.007-.058-.014-.01-.007-.02-.021-.031-.036a.573.573 0 0 0-.231-.155.742.742 0 0 0-.233-.037zm-.383.486-.09.076a3.13 3.13 0 0 0-.398.42 2.511 2.511 0 0 0-.134.186l-.023-.05a.215.215 0 0 1-.015-.094.335.335 0 0 1 .044-.137.766.766 0 0 1 .17-.2.873.873 0 0 1 .369-.191c.043-.009.077-.01.077-.01m.796.046c.033 0 .065.007.097.02a.181.181 0 0 1 .111.146.321.321 0 0 1-.073.231.756.756 0 0 1-.097.105 1.34 1.34 0 0 1-.45.258c-.096.03-.2.051-.319.063l-.06.002c-.077.005-.216-.003-.222-.02.039-.06.082-.116.124-.174a2.37 2.37 0 0 1 .319-.323c.105-.09.218-.174.293-.217a.562.562 0 0 1 .277-.091zm9.992.908c-.05 0-.102.042-.088.12.075.398.113.788.126 1.155h-1.157c-.04 0-.095.027-.095.105v.332c0 .066.046.103.101.103h1.15c-.014.423-.059.8-.126 1.162-.006.049.012.114.106.114h.293a.136.136 0 0 0 .138-.123c.07-.407.104-.774.116-1.153h1.133c.055 0 .1-.037.1-.103l.001-.332c0-.078-.055-.105-.094-.105h-1.14a8.296 8.296 0 0 0-.117-1.156.138.138 0 0 0-.124-.12h-.323zm-6.724.333c-.028.001-.06.015-.073.066a.406.406 0 0 0 .012.21c.255.865.313 1.377.313 1.377s.012.15-.017.159c-.02.016-.043-.006-.043-.006-.03.001-.31-.468-.31-.468l-.054-.092c-.308-.497-.495-.667-.495-.667-.043-.04-.155-.153-.295.002-.14.156-.25.657-.293 1.128-.038.47-.009.738.06.85.075.115.22.154.34.056.128-.098.104-.718.124-1.036.019-.32.05-.262.05-.262.028-.008.174.285.174.285s.383.784.623.9c.244.116.44-.071.514-.246.076-.175.204-.757.013-1.401-.192-.645-.588-.844-.588-.844s-.026-.011-.055-.01zm3.563.31c-.623.56-.73 1.176-.739 1.228-.06.347.01.592.116.762-.09.194-.564 1.213-.49 1.836.059.406.492.762.546.46.102-.78.278-1.326.518-1.908.676.155 1.185-.502 1.365-.817.278-.495.208-1.381-.28-1.377-.479.004-1.108.883-1.385 1.308-.05-.266.13-.603.13-.603s.288-.5.33-.602c.039-.102.061-.312.012-.333-.036-.017-.097.024-.123.047zm-5.86.006c-.133 0-.258.01-.363.023-.348.042-.814.15-1.014.437a.546.546 0 0 0-.085.414c.007.037.03.074.06.106a.333.333 0 0 0 .117.08.69.69 0 0 0 .138.034c.066.012.13.02.156.022a11.323 11.323 0 0 0 .289.026l.095.008.12.01.11.012c.203.022.484.058.652.129 0 0 .19.066.189.174 0 .054-.041.096-.081.125-.155.11-.34.179-.532.219-.179.037-.364.05-.54.046a.843.843 0 0 1-.35-.075c-.076-.033-.113-.076-.113-.122a.135.135 0 0 1 .077-.123.32.32 0 0 1 .176-.029.825.825 0 0 1 .194.054c.233.092.342.17.547.138.076-.011.342-.069.378-.179.009-.026-.004-.055-.024-.075a1.204 1.204 0 0 0-.23-.106 2.637 2.637 0 0 0-.618-.113 1.104 1.104 0 0 0-.44.068.424.424 0 0 0-.197.148.363.363 0 0 0-.065.206.43.43 0 0 0 .096.264.78.78 0 0 0 .165.16 1.587 1.587 0 0 0 1.072.284c.154-.018.307-.053.452-.123a.793.793 0 0 0 .296-.234.653.653 0 0 0 .123-.3.802.802 0 0 0-.053-.431.861.861 0 0 0-.067-.122.44.44 0 0 0-.163-.143 1.072 1.072 0 0 0-.249-.092 2.735 2.735 0 0 0-.308-.057c-.01 0-.013-.001-.024-.003l-.84-.1a.872.872 0 0 1-.127-.024c-.043-.014-.076-.035-.044-.07.017-.019.068-.032.097-.041.38-.104.863-.092 1.262-.114.09-.006.292-.018.39-.049a.266.266 0 0 0 .192-.198c.01-.054-.016-.08-.067-.107-.227-.121-.556-.16-.849-.157zm4.705.023c-.57.001-1.315.139-1.401.181-.086.04-.077.104.035.245.12.148.322.135.322.135l-.177.367c-.145.01-.194.055-.194.055-.084.09.031.353.031.353s-.251.564-.07.862c.197.312.429.298.429.298.44.032 1.164-.43 1.203-.582.032-.124-.08-.258-.181-.283-.094-.02-.82.116-.906.14-.094.025-.052-.063-.052-.063l.112-.38s.692-.026.793-.043c.093-.017.098-.083.098-.083s.013-.108.01-.21c-.011-.108-.097-.098-.097-.098-.269-.028-.636.003-.636.003l.093-.29s.736-.036 1.016-.1c.144-.035.06-.176.06-.176-.175-.35-.377-.33-.377-.33a3.37 3.37 0 0 0-.111-.001zm-6.648.068c-.059 0-.093.081-.11.123-.051.133-.088.45-.099.55-.03.3-.055 1.01-.003 1.373.022.151.072.25.225.282.062.013.176.01.225-.022a.207.207 0 0 0 .085-.125c.028-.126.016-.305.01-.44-.006-.159-.01-.317-.017-.478-.01-.214-.036-.761-.095-1.008-.026-.107-.07-.204-.174-.244a.215.215 0 0 0-.047-.011m8.901.55c.034-.002.054.02.065.043.038.078.063.488-.36.863a1.23 1.23 0 0 1-.6.248c.253-.492.569-.854.743-1.047.07-.077.118-.105.152-.107zm-13.559.052s-.005.23-.006.46a32.046 32.046 0 0 0 .009.886s-.165-.054-.25-.097a3.35 3.35 0 0 1-1.026-.69c-.065-.063-.13-.128-.114-.216.011-.066.154-.13.209-.145a5.379 5.379 0 0 1 .796-.164c.142-.022.382-.034.382-.034z"/></svg>