<svg xmlns="http://www.w3.org/2000/svg" viewBox="0 0 24 24"><path d="M9.214 21.907c-.575-.299-.756-.905-.426-1.425.527-.832 1.805-.468 1.805.515 0 .708-.78 1.222-1.38.91zm1.951-.744-.278-.033-.035-.28c-.043-.353-.157-.576-.404-.793-.26-.23-.535-.31-.96-.283q-.66.042-.972.614l-.14.258-.306-.126c-.853-.35-1.522-.774-1.966-1.249l-.265-.283v-.702c0-.854.028-.881.487-.486 1.454 1.255 3.818 1.943 6.296 1.832 1.809-.08 3.376-.516 4.654-1.293.512-.31.554-.272.554.49 0 .554-.014.642-.135.849-.272.464-1.678 1.069-3.044 1.308-1.139.2-2.645.277-3.485.177zm-.014-1.964c-1.507-.124-3.132-.65-4.168-1.35-.549-.37-.854-.654-1.209-1.125-1.315-1.745-1.61-4.162-.822-6.736.304-.995.618-1.577 1.55-2.875.258-.358.527-.739.598-.846.173-.261.28-.799.41-2.082.12-1.165.198-1.505.429-1.86.213-.328.346-.389.583-.266.336.174.846.758 1.288 1.476.236.383.503.784.593.891l.164.195.071-.237c.04-.13.09-.237.112-.237.062 0 .22.264.22.367 0 .065.028.08.098.051.274-.113.29-.106.254.113-.031.193-.025.205.086.17.084-.027.12-.015.12.04 0 .061.141.087.633.115.348.02.849.074 1.114.12.942.165 1.952-.122 2.618-.743a8 8 0 0 0 .692-.804c.523-.689.728-.808 1.079-.627.239.123.64.965.796 1.672.112.508.122.695.113 2.078-.006.836.005 1.52.024 1.52a.6.6 0 0 0 .164-.121c.182-.171.215-.097.113.259l-.087.308h.302c.167 0 .303.017.303.039s-.067.108-.148.193c-.115.12-.134.171-.085.23.048.058.037.128-.047.293-.132.26-.142.626-.03 1.17.044.214.132.829.195 1.365.063.537.141 1.087.173 1.222.05.216.044.26-.056.366-.128.136-.141.243-.054.434.053.116.032.16-.187.38-.273.275-.44.658-.579 1.324-.075.365-.076.535-.008 1.071.016.128 0 .139-.192.133l-.209-.006v.236c0 .257-.063.34-.279.37q-.139.02-.14.124 0 .105-.223.195a8 8 0 0 0-.641.324c-1.065.595-2.3.94-3.848 1.076-.722.064-1.06.063-1.883-.005m.422-2.726c.497-.065.815-.2 1.061-.451.177-.181.38-.497.318-.497-.016 0-.14.086-.278.19-.53.404-1.124.523-2.163.43-.49-.043-.777-.102-1.143-.234-.27-.098-.677-.227-.907-.288s-.425-.116-.433-.123a2.3 2.3 0 0 1 .058-.369c.072-.355.073-.356.488-.653.236-.169.424-.346.435-.41.029-.178-.1-.287-.302-.254-.193.031-.302-.04-.302-.194 0-.103.156-.214.3-.214.135 0 .386.249.454.449l.062.185.228-.228c.39-.39.37-.778-.062-1.175-.632-.583-1.57-.599-2.133-.036-.306.307-.454.754-.352 1.065l.067.203.073-.174c.088-.21.323-.293.455-.161.106.106.056.262-.084.262a.4.4 0 0 0-.203.074c-.156.114-.068.281.3.57.302.237.326.273.361.544.021.16.051.343.067.409.026.104-.002.123-.239.158-.271.041-.652.205-.716.308-.046.075-.023.072.23-.034.341-.142.765-.069 1.544.268.368.158.796.32.953.357.344.084 1.303.095 1.863.023m-4.451-3.446c0-.091.482-.512.681-.595.114-.047.308-.086.432-.086.24 0 .672.147.672.23 0 .027-.198.049-.44.049-.484 0-.82.094-1.1.308-.192.146-.245.166-.245.094m3.067 2.442a.056.056 0 0 0-.055-.055.056.056 0 0 0-.056.055.056.056 0 0 0 .112 0m-4.127-.111a.056.056 0 0 0-.056-.056.056.056 0 0 0-.055.056.056.056 0 1 0 .111 0m5.902-.353c.01-.054-.017-.093-.066-.093-.104 0-.166.09-.117.17.05.081.162.035.183-.077m-1.161-.038a.056.056 0 0 0-.056-.055c-.03 0-.056.025-.056.055s.025.056.056.056.056-.025.056-.056m-4.233-.24c-.072-.07-.144-.016-.091.07.02.033.063.045.094.026q.057-.035-.003-.095zm3.62-.066c0-.046-.024-.084-.053-.084-.07 0-.12.087-.076.132.063.062.128.038.128-.048m-4.128-.389c0-.05-.033-.07-.083-.05-.046.018-.07.054-.053.082.049.079.136.058.136-.032m6.27-.092c-.047-.077-.19-.058-.19.025 0 .041.016.091.036.111.05.05.193-.074.155-.136m-1.222.006c0-.12-.162-.102-.186.02-.014.074.008.097.083.082.056-.01.103-.057.103-.102m.306-.111a.056.056 0 0 0-.055-.056.056.056 0 0 0-.056.056c0 .03.025.056.056.056.03 0 .055-.025.055-.056m-5.02-.112a.056.056 0 0 0-.055-.055.056.056 0 0 0-.056.055.056.056 0 1 0 .112 0m8.234-2.525c.667-.341.875-.99.465-1.456-.353-.403-1.071-.547-1.587-.319-.321.142-.842.667-.911.919-.11.394.01.574.576.873.309.163.367.175.753.153.306-.018.495-.064.704-.17m-1.095.072c-.273-.077-.507-.231-.56-.37-.08-.211-.064-.675.03-.857.08-.152.408-.447.5-.447.022 0-.024.077-.102.17-.35.415-.29 1 .138 1.36.198.167.197.2-.006.144m.003-1.253c-.148-.178.07-.457.244-.313a.218.218 0 0 1 .021.327c-.089.09-.183.085-.265-.014m-5.131.33c.313-.23.5-.557.5-.873 0-.328-.095-.527-.361-.761-.238-.209-.397-.256-.737-.217-.289.032-.49.162-.678.436-.177.258-.154.778.047 1.071.32.467.858.618 1.229.345zm-.934-.19c-.543-.332-.507-1.117.067-1.438.311-.174.347-.157.121.056a.884.884 0 0 0 0 1.308c.152.143.172.182.092.182a.7.7 0 0 1-.28-.109zm.209-1.059c-.064-.118.05-.283.195-.283.122 0 .215.214.134.31-.094.114-.261.1-.33-.027zm10.15-2.248c.142-.365.184-.569.206-.99.033-.647-.044-1.048-.296-1.548-.276-.545-.42-.708-.588-.661-.132.037-1.696 1.824-1.696 1.938 0 .03.144.133.32.227l.32.172.424-.325c.234-.179.502-.42.596-.538.094-.117.189-.213.21-.213.206 0 .218 1.286.017 1.73l-.113.25.172.205c.095.112.19.206.21.209.022.002.12-.202.218-.456m-9.928-.916c.232-.15.564-.335.738-.41.31-.135.402-.221.234-.221-.101 0-.099.025-.087-.865.012-.84-.083-1.3-.408-1.976l-.2-.414-.09.22c-.215.51-.301.974-.415 2.226-.097 1.056-.24 1.57-.54 1.93l-.156.188.251-.202c.138-.111.441-.325.673-.476"/></svg>