<svg xmlns="http://www.w3.org/2000/svg" viewBox="0 0 24 24"><path d="M16.835 14.96c-1.185-2.114-3.06-3.526-4.668-3.526h-.02c-.588 0-1.205.184-1.816.519-.981.538-1.937 1.47-2.676 2.666a16 16 0 0 0-.213.36c-.023.05-.05.096-.072.145-.506 1.06-.61 2.082-.296 2.892.237.608.69 1.048 1.307 1.27 1.143.418 1.986.03 2.666-.278.397-.18.739-.338 1.096-.338s.7.158 1.094.338c.466.213 1.011.463 1.677.463.302 0 .63-.053.989-.184a2.16 2.16 0 0 0 1.306-1.27c.332-.848.2-1.928-.364-3.037l-.01-.017zM6.139 12.475a1.5 1.5 0 0 1-.509.309l-2.367-2.236c.092-.345.302-.653.571-.814.503-.302 1.363-.174 2.03.65.653.804.666 1.733.272 2.095zm.67-2.873c-.975-1.201-2.486-1.592-3.595-.928-.677.407-1.152 1.21-1.212 2.055a.61.61 0 0 0 .19.492l2.84 2.682a.6.6 0 0 0 .418.168q.032 0 .065-.003c.503-.056 1.031-.302 1.442-.68.938-.86.876-2.52-.148-3.785m13.969.844c-.026.424-.22.896-.535 1.294-.654.827-1.55 1.047-1.944.729-.397-.319-.384-1.251.27-2.075.653-.828 1.549-1.048 1.943-.73.26.208.276.582.266.782m.496-1.743c-1.005-.808-2.61-.404-3.658.922-1.047 1.327-1.08 2.998-.075 3.805.348.283.771.417 1.218.417.837 0 1.756-.472 2.44-1.336.475-.6.758-1.306.797-1.99.043-.748-.22-1.411-.722-1.815zM14.3 10.467q.203.05.41.05c.927 0 1.885-.696 2.223-1.681a.62.62 0 0 0-.295-.749 26 26 0 0 0-1.175-.568.61.61 0 0 0-.805.309.62.62 0 0 0 .309.814c.003 0 .246.112.535.25-.273.292-.65.44-.922.374-.322-.076-.496-.404-.572-.594-.157-.394-.18-.906-.062-1.402.243-1.028.958-1.612 1.45-1.494.24.056.832.338.707.949a.617.617 0 0 0 .473.729.61.61 0 0 0 .722-.476c.256-1.245-.644-2.164-1.619-2.397-1.247-.299-2.53.758-2.918 2.41-.178.748-.135 1.51.118 2.144.276.696.794 1.181 1.421 1.332M9.028 5.773a.6.6 0 0 1 .125-.014c.482 0 1.1.575 1.316 1.52.233 1.031-.154 1.875-.647 1.99-.492.112-1.208-.476-1.44-1.507-.234-1.03.153-1.875.646-1.99zm.653 4.744q.207-.001.414-.046c1.25-.29 1.94-1.813 1.563-3.464-.375-1.655-1.652-2.722-2.903-2.43-1.25.29-1.94 1.813-1.562 3.464.334 1.471 1.382 2.479 2.488 2.479z"/></svg>