<svg xmlns="http://www.w3.org/2000/svg" xml:space="preserve" width="24" height="24" fill="none" viewBox="0 0 24 24"><path fill="#000" d="M8.765 9.33a.63.63 0 0 0-.446.186l-5.957 5.957a.63.63 0 0 0 0 .892l5.373 5.373a.63.63 0 0 0 .892 0l5.974-5.974a.63.63 0 0 0 0-.891l-5.39-5.359a.63.63 0 0 0-.447-.184zm-2.237 5.043a1.14 1.14 0 0 1 1.14 1.14 1.14 1.14 0 0 1-1.14 1.141 1.14 1.14 0 0 1-1.141-1.14 1.14 1.14 0 0 1 1.14-1.141zm3.911 0a1.14 1.14 0 0 1 1.141 1.14 1.14 1.14 0 0 1-1.14 1.141 1.14 1.14 0 0 1-1.141-1.14 1.14 1.14 0 0 1 1.14-1.141m5.363-12.296a.63.63 0 0 0-.446.185L9.399 8.22a.63.63 0 0 0 0 .893l5.373 5.373a.63.63 0 0 0 .892 0l5.974-5.975a.63.63 0 0 0 0-.89l-5.389-5.36a.63.63 0 0 0-.447-.183zm-.451 5.409a1.14 1.14 0 0 1 1.14 1.14 1.14 1.14 0 0 1-1.14 1.141 1.14 1.14 0 0 1-1.14-1.14 1.14 1.14 0 0 1 1.14-1.141"/></svg>