<svg xmlns="http://www.w3.org/2000/svg" xml:space="preserve" width="24" height="24" fill="none" viewBox="0 0 24 24"><path stroke="#000" stroke-linecap="round" stroke-linejoin="round" stroke-width="1.509" d="m19.166 8.094 1.791 3.753c.434.908.04 1.996-.875 2.416L9.897 18.94a1.824 1.824 0 0 1-2.421-.903L3.19 8.606c-.688-1.51-.377-3.486 1.98-4.57 2.356-1.083 4.093.092 4.727 1.46l7.058 15.245"/><path fill="#000" stroke="#000" stroke-width=".123" d="M19.166 4.286a1.72 1.72 0 0 1-1.72 1.72 1.72 1.72 0 0 1-1.72-1.72 1.72 1.72 0 0 1 1.72-1.72 1.72 1.72 0 0 1 1.72 1.72z"/></svg>