<svg xmlns="http://www.w3.org/2000/svg" viewBox="0 0 24 24"><path d="m19.49 15.899-.003-3.482-.557 1.945-.556-1.936-.004 2.643-1.815-1.362.138-.103-.007-6.777 1.726.004.517 1.812.518-1.815L22 6.836l-.838.626-.001 9.696zM2.847 7.462l-.848-.635 4.778.006.547.417v6.352l.145.104-4.62 3.468zm2.804 4.954-.002-3.665-.128-.104-.994.005-.002 4.609zm1.814.986V7.25l.56-.42h3.353l.56.422.002 7.118-1.586 1.193zm2.656-4.76-.845.007-.133.101.002 3.668 1.111.834.003-4.5zm1.962 5.735-.004-7.129.559-.42 3.358.004.562.42-.004 6.137-2.873 2.173zm2.794-1.961V8.749l-.142-.108-.844.003-.136.104.008 4.492z"/></svg>