<svg xmlns="http://www.w3.org/2000/svg" width="192" height="192" viewBox="0 0 192 192"><path d="m155.92 127.19-.024-27.855-4.456 15.559-4.448-15.487-.032 21.143-14.519-10.895 1.104-.824-.056-54.213 13.807.032 4.136 14.495 4.144-14.519 20.423.064-6.704 5.008-.008 77.564zM22.78 59.697l-6.784-5.08 38.222.048 4.376 3.336v50.813l1.16.832-36.958 27.743zm22.431 39.63-.016-29.319-1.024-.832-7.951.04-.016 36.87zm14.511 7.888V58l4.48-3.36h26.823l4.48 3.376.016 56.94-12.687 9.544zm21.247-38.078-6.76.056-1.064.808.016 29.343 8.888 6.671.024-35.998zm15.695 45.878-.032-57.03 4.472-3.36 26.863.033 4.496 3.36-.032 49.094-22.983 17.383zm22.351-15.687V69.993l-1.136-.864-6.752.024-1.088.832.064 35.934z"/></svg>