<svg xmlns="http://www.w3.org/2000/svg" viewBox="0 0 24 24"><path d="M10.494 21.961c-1.96-.026-2.033-.03-2.23-.135-.256-.137-.543-.452-.616-.673-.045-.141-.505-3.208-2.163-14.453-.124-.844-.14-1.047-.091-1.166.124-.3-.022-.29 4.232-.289l3.888.002.158-.295c.541-1.013 1.39-1.702 2.512-2.04.383-.117.529-.134 1.116-.134s.733.017 1.117.133c1.438.434 2.454 1.474 2.843 2.91.153.563.153 1.488 0 2.051-.324 1.197-1.132 2.17-2.222 2.68-1.155.539-2.403.52-3.582-.056-.48-.234-.581-.31-1.033-.766-.404-.409-.55-.592-.735-.957-.372-.731-.506-1.13-.48-1.978.02-.64.04-1.361.13-1.098.115.336-.13.277-.157.286-.058.018-.779.063-3.416.063-3.554 0-3.599.002-3.655.227-.015.06.143 1.425.352 3.033.208 1.608.379 3.007.379 3.11 0 .246 1.286 7.965 1.365 8.193.033.096.185.3.337.455.457.464.339.449 3.585.46l2.795.01.275-.129c.37-.174.554-.338.717-.638.127-.234.174-.528.687-4.296.632-4.637.719-5.274.79-5.53.05-.182.107-.478.253-.311l.238.27c-.255 1.802-.522 3.6-.785 5.4-.523 3.58-.73 4.874-.8 5.012-.132.26-.473.536-.769.624-.266.08-.724.081-5.035.025m6.556-11.852c0-.299.056-.41.207-.41q.243 0 .243.429c0 .251.01.271.118.271.17 0 .82-.174 1.1-.296l.243-.105-.105-.177c-.13-.223-.133-.323-.006-.323.06 0 .13.06.175.147.042.081.1.162.129.18.07.043.571-.372.836-.694.117-.141.213-.269.213-.283s-.102-.088-.227-.163c-.248-.15-.316-.258-.239-.382.081-.13.253-.123.493.018l.225.132.102-.24c.13-.302.245-.784.246-1.03 0-.184-.002-.187-.194-.187-.197 0-.342-.102-.282-.198.018-.029.135-.052.261-.052h.23l-.03-.313c-.026-.267-.215-.935-.308-1.085-.015-.026-.124.008-.24.074-.244.14-.399.155-.487.048-.106-.127-.019-.293.223-.425.125-.068.227-.133.227-.145 0-.143-.894-1.007-1.042-1.007-.027 0-.096.08-.152.175-.11.185-.259.236-.256.088a.6.6 0 0 1 .074-.213.6.6 0 0 0 .073-.182c.003-.106-.937-.418-1.26-.418-.136 0-.14.007-.14.271q0 .272-.078.35c-.194.195-.372.027-.372-.35 0-.263-.004-.271-.137-.27-.219 0-.727.134-1.038.272l-.287.126.106.179c.132.224.133.323.004.323q-.1-.001-.185-.176c-.046-.096-.105-.175-.132-.175-.15 0-1.034.85-1.034.994 0 .019.103.09.228.158.241.132.328.298.222.425-.09.108-.236.092-.484-.053l-.217-.127-.103.24c-.13.301-.245.783-.246 1.028 0 .184.003.188.187.189.23 0 .338.062.297.169-.022.058-.096.08-.264.08h-.234l.032.319c.028.273.215.933.305 1.078.015.026.129-.01.252-.078.242-.135.411-.14.491-.012.077.124.01.232-.24.382-.124.075-.226.149-.226.163 0 .131.9.997 1.04 1 .034 0 .1-.078.146-.174.05-.106.12-.176.175-.176.109 0 .116.126.015.3a.6.6 0 0 0-.073.183c-.003.098.923.4 1.262.413.135.005.138 0 .138-.285m-.065-2.864a.5.5 0 0 1-.158-.192c-.017-.052-.355-.27-.79-.51-.419-.232-.802-.46-.85-.51-.17-.17-.061-.45.175-.45.071 0 .464.186.872.413 1.022.571 1.028.571 2.058.007.422-.232.825-.42.897-.42.236 0 .345.28.175.45-.05.05-.432.278-.85.51-.436.24-.774.458-.79.51-.047.145-.273.293-.449.293a.55.55 0 0 1-.29-.1zm4.422-3.017c-.208-.436-.621-.87-.99-1.039-.234-.107-.257-.132-.23-.245a1 1 0 0 1 .043-.143c.007-.009.145.046.306.121.413.195.9.696 1.135 1.168.188.376.188.42.008.47-.083.022-.128-.032-.271-.332zm-8.448.214c-.094-.037-.104-.064-.065-.167.266-.7.847-1.368 1.425-1.639.184-.085.34-.147.35-.137a.7.7 0 0 1 .044.143c.027.114.001.139-.28.27-.448.209-.91.694-1.136 1.193-.097.212-.187.385-.2.384a1 1 0 0 1-.138-.047m8.977-1.022c-.155-.356-.524-.77-.78-.877q-.156-.066-.13-.137a.4.4 0 0 0 .028-.116c0-.1.33.084.604.339.208.193.35.384.48.645.1.203.173.378.162.388a.5.5 0 0 1-.122.05c-.087.026-.122-.016-.242-.292m-9.453.189c-.048-.013-.087-.036-.087-.052s.081-.199.182-.407c.214-.445.58-.836.965-1.032.145-.073.27-.126.278-.117s.027.06.044.116c.025.082-.018.125-.246.245-.346.18-.634.505-.84.942-.087.185-.17.335-.183.332z"/><path d="m6.839 12.401.002.015c0 .246 1.287 7.964 1.365 8.192.034.097.185.302.337.455.458.465.34.45 3.585.461l2.795.01.276-.13c.368-.173.553-.337.716-.638.127-.233.174-.527.687-4.295.292-2.14.447-3.278.559-4.07z" opacity=".6"/></svg>