<svg xmlns="http://www.w3.org/2000/svg" xml:space="preserve" width="24" height="24" viewBox="0 0 24 24"><path fill="none" stroke="#000" stroke-width="1.562" d="M7.928 8.732V6.726c0-2.192 1.823-3.97 4.072-3.97s4.072 1.778 4.072 3.97v2.006"/><path d="M6.118 8.647c-1.07 0-1.958.851-1.958 1.906v9.551c0 1.055.889 1.921 1.958 1.921h11.763c1.082 0 1.958-.866 1.958-1.921v-9.55c0-1.055-.876-1.908-1.958-1.908zM12 13.037a2.297 2.297 0 0 1 2.296 2.299A2.297 2.297 0 0 1 12 17.632a2.297 2.297 0 0 1-2.296-2.296A2.297 2.297 0 0 1 12 13.037"/></svg>