<svg xmlns="http://www.w3.org/2000/svg" xml:space="preserve" width="24" height="24" fill="none" viewBox="0 0 24 24"><path d="M6.75 12h3.55c0-1.301.825-2 1.7-2v11H6.75c-.471 0-1-.529-1-1v-7c0-.471.529-1 1-1m4.5 0c0-.49.15-1 .75-1v1zm.75 2.755c-1.13 0-2.045.943-2.045 2.045 0 .747.392 1.349.945 1.7l.4-1.1s-.225-.255-.225-.6c0-.5.414-.925.925-.925zM12 3.2c-1.02 0-1.995.214-2.85.64L7.784 2.404s-.498-.54-.984-.054-.066.874-.066.874L8 4.6C6.721 5.71 5.9 7.482 5.9 9.9v.8c0 .189.211.4.4.4h3.3c.502 0 .493-1.2 0-1.2H7.3c0-1.746.693-5.5 4.7-5.5Zm-1.018 4.3c0 .495-.35.896-.782.896s-.782-.401-.782-.896.35-.896.782-.896.782.401.782.896M17.25 12H13.7c0-1.301-.825-2-1.7-2v11h5.25c.471 0 1-.529 1-1v-7c0-.471-.529-1-1-1m-4.5 0c0-.49-.15-1-.75-1v1zM12 14.755c1.13 0 2.045.943 2.045 2.045 0 .747-.392 1.349-.945 1.7l-.4-1.1s.225-.255.225-.6c0-.5-.414-.925-.925-.925zM12 3.2c1.02 0 1.995.214 2.85.64l1.366-1.436s.498-.54.984-.054.066.874.066.874L16 4.6c1.279 1.11 2.1 2.882 2.1 5.3v.8c0 .189-.211.4-.4.4h-3.3c-.502 0-.493-1.2 0-1.2h2.3c0-1.746-.693-5.5-4.7-5.5zm1.018 4.3c0 .495.35.896.782.896s.782-.401.782-.896-.35-.896-.782-.896-.782.401-.782.896" class="UnoptimicedTransforms" style="display:inline;fill:#000;fill-opacity:1;fill-rule:evenodd;stroke:none;stroke-width:.05;stroke-dasharray:none;stroke-opacity:1" transform="translate(-.73 -.278)scale(1.06086)"/></svg>