<svg xmlns="http://www.w3.org/2000/svg" width="24" height="24" fill="none" viewBox="0 0 24 24"><path fill="#000" fill-rule="evenodd" d="M10.299 8.193c0-1.2-.968-2.178-2.156-2.178s-2.156.978-2.156 2.178V9.51c0 1.2.968 2.178 2.156 2.178s2.156-.978 2.156-2.178zm-.807.088A1.02 1.02 0 0 0 8.48 7.26a1 1 0 0 0-.427.096.668.668 0 0 1-.585 1.158v.894A1.02 1.02 0 0 0 8.48 10.43a1.02 1.02 0 0 0 1.012-1.023zm8.389-.088c0-1.2-.968-2.178-2.156-2.178s-2.156.978-2.156 2.178V9.51c0 1.2.968 2.178 2.156 2.178s2.156-.978 2.156-2.178zM16.4 8.28a1.02 1.02 0 0 0-1.012-1.022 1 1 0 0 0-.502.135.668.668 0 0 1-.51 1.138v.875a1.02 1.02 0 0 0 1.012 1.023A1.02 1.02 0 0 0 16.4 9.407V8.281" clip-rule="evenodd"/><path fill="#000" fill-rule="evenodd" d="M7.747 2.296c2.053.874 3.461 1.319 4.224 1.319.762 0 2.141-.43 4.165-1.304 1.335-.578 2.89.06 3.461 1.408.132.325.206.681.206 1.037v6.895l2.962 5.416c.308.563-.014 1.259-.645 1.363a6.9 6.9 0 0 1-4.049-.421 7.9 7.9 0 0 1-2.545 2.097 1.025 1.025 0 0 1-.593 1.85H13.35c-.546 0-.993-.441-1.011-.988a8 8 0 0 1-.764 0 1.02 1.02 0 0 1-1.011.988H8.979a1.025 1.025 0 0 1-.6-1.845 7.9 7.9 0 0 1-2.552-2.087 6.9 6.9 0 0 1-4.05.42c-.616-.118-.938-.814-.63-1.377l2.933-5.363V4.741a2.64 2.64 0 0 1 3.667-2.445m3.608 13.26a.148.148 0 0 0-.147-.193h-1.98c-.103 0-.176.104-.147.193a1.2 1.2 0 0 0 1.13.785c.513 0 .982-.326 1.144-.785m3.3-.193h-1.98c-.103 0-.176.104-.147.193a1.2 1.2 0 0 0 1.13.785c.513 0 .982-.326 1.143-.785.03-.09-.044-.193-.146-.193m-1.731 1.674h-1.98c-.103 0-.176.104-.147.193a1.2 1.2 0 0 0 1.13.785c.513 0 .982-.326 1.144-.785.044-.09-.03-.193-.147-.193M8.201 3.541l2.217 2.432c.855.711 2.195.687 3.093-.073q.12-.132.254-.25l1.887-2.11a.26.26 0 0 1 .425.045c.236.408.322.872.264 1.32l.66-.742c.132-.133.352-.119.426.06.225.388.313.827.27 1.257a3.14 3.14 0 0 1 1.284 2.535v1.66c0 1.732-1.393 3.125-3.094 3.125h-.074a3.09 3.09 0 0 1-2.757-1.713v.069c0 .607-.499 1.11-1.1 1.11s-1.1-.503-1.1-1.11v-.099l1.056.187h.059l1.422-.251c.044.014.059-.015.059-.06v-.059c-.132-.667-.763-1.185-1.481-1.185-.763 0-1.408.504-1.54 1.185v.06c0 .044.014.059.058.059l.357.063A3.1 3.1 0 0 1 8.07 12.8h-.088c-1.716 0-3.094-1.407-3.094-3.126V8.03c0-1.055.51-1.99 1.297-2.56a2.1 2.1 0 0 1 .272-1.248c.088-.178.308-.192.44-.059l.66.746a2.1 2.1 0 0 1 .25-1.324c.102-.163.263-.178.395-.044Zm4.078 6.874a.23.23 0 0 0 .205-.133.215.215 0 0 0-.132-.282 1.16 1.16 0 0 0-.836 0 .22.22 0 0 0-.117.281.216.216 0 0 0 .278.119.65.65 0 0 1 .528 0c.03.015.044.015.074.015" clip-rule="evenodd"/></svg>