<svg xmlns="http://www.w3.org/2000/svg" viewBox="0 0 24 24"><path d="M17.908 5.51a.56.56 0 0 0-.47.18l-3.085 3.12-.007.006c-1.297 1.174-3.316 1.223-4.55.144a1648 1648 0 0 0-3.228-3.267c-.286-.293-.7-.229-.892.131a3.1 3.1 0 0 0-.335 1.847q-.007 0-.017.004l-.612-.681a.602.602 0 0 0-.969.099 3.1 3.1 0 0 0-.409 1.703c-.39.386-.71.847-.935 1.359A3.9 3.9 0 0 0 2 11.81v2.36c.004.617.145 1.192.4 1.713a4.36 4.36 0 0 0 3.99 2.61h.19a4.34 4.34 0 0 0 3.128-1.327 1 1 0 0 1 .01-.077.8.8 0 0 1-.55-.265.86.86 0 0 1-.24-.62s.026-.289.032-.317a3.03 3.03 0 0 1-5.331-1.972v-1.794a3.03 3.03 0 0 1 6.06 0v1.794q0 .354-.077.683c.58-.666 1.46-1.084 2.452-1.084a3.1 3.1 0 0 1 2.274 1.022 3 3 0 0 1-.064-.62v-1.795a3.03 3.03 0 0 1 6.06 0v1.794a3.03 3.03 0 0 1-5.279 2.031c.002.01.02.26.02.26a.86.86 0 0 1-.24.62.8.8 0 0 1-.55.264l.007.054a4.34 4.34 0 0 0 3.15 1.349h.134a4.36 4.36 0 0 0 4.026-2.699c.254-.52.395-1.096.398-1.712v-2.36c-.01-.598-.152-.973-.398-1.481a4.4 4.4 0 0 0-.936-1.41 3.1 3.1 0 0 0-.407-1.739.6.6 0 0 0-.966-.1l-.62.689h-.003l-.005-.002-.004-.002a3.1 3.1 0 0 0-.333-1.856.55.55 0 0 0-.42-.312zm-1.067 5.322a1.4 1.4 0 0 0-.225.017 1.4 1.4 0 0 0-.468.159.92.92 0 0 1 .262.643.927.927 0 0 1-1.01.921v1.234a1.439 1.439 0 0 0 2.876 0V12.27a1.44 1.44 0 0 0-1.435-1.438m-9.612.004a1.4 1.4 0 0 0-.239.003 1.4 1.4 0 0 0-.46.122c.19.17.31.416.31.69a.927.927 0 0 1-1.152.898v1.257a1.439 1.439 0 0 0 2.877 0V12.27a1.44 1.44 0 0 0-1.336-1.434m4.835 3.479c-1.165 0-2.138.757-2.335 1.807v.082c0 .066.022.092.082.084l2.129.381h.125l2.127-.378c.06.007.082-.02.082-.085v-.084c-.193-1.031-1.15-1.807-2.21-1.807m-1.558 2.91a1.648 1.648 0 0 0 2.99.002s-1.384.242-1.43.242h-.126c-.048 0-.851-.139-1.434-.244"/></svg>