<svg xmlns="http://www.w3.org/2000/svg" viewBox="0 0 24 24"><path d="M11.407 3c-.5 0-1.04.581-1.04 1.525v3.677c0 .242.142.397.361.397.213 0 .461-.144.657-.369.305.27.77.438 1.237.438 1.145 0 1.973-.857 1.973-2.042-.006-1.186-.835-2.044-1.98-2.044-.305 0-.603.07-.856.196V3.396c0-.293-.185-.396-.352-.396M7.356 4.577c-1.145 0-1.973.857-1.973 2.042s.828 2.044 1.973 2.044c.466 0 .932-.168 1.237-.438.195.23.444.369.656.369.22 0 .362-.157.362-.398V5.042c0-.241-.137-.396-.362-.396-.212 0-.46.144-.656.369-.305-.27-.771-.438-1.237-.438m9.943 0c-.53 0-1.052.2-1.432.546-.414.38-.64.909-.64 1.496 0 1.277 1.048 2.044 2.055 2.044.425 0 .742-.053 1-.162.283-.121.335-.282.335-.495v-.322c0-.386-.236-.43-.34-.43a1 1 0 0 0-.248.039c-.144.034-.315.08-.62.08-.478 0-.777-.288-.777-.754.006-.46.316-.753.8-.753.218 0 .367.04.494.074.11.029.207.059.322.059.236 0 .37-.145.37-.404v-.351c0-.213-.059-.368-.335-.495-.27-.115-.581-.172-.984-.172M7.51 5.866c.414 0 .708.31.708.753s-.294.755-.708.755c-.42 0-.712-.312-.712-.755s.292-.753.712-.753m4.954 0c.42 0 .715.31.715.753s-.295.755-.715.755c-.414 0-.707-.312-.707-.755s.293-.753.707-.753m4.747 3.679a.5.5 0 0 0-.415.159l-2.722 2.753-.006.005c-1.144 1.035-2.926 1.078-4.014.127-.068-.074-2.849-2.883-2.849-2.883-.252-.259-.617-.202-.786.116a2.75 2.75 0 0 0-.296 1.629l-.015.003-.54-.6a.532.532 0 0 0-.855.087 2.74 2.74 0 0 0-.36 1.502 3.9 3.9 0 0 0-.825 1.2 3.4 3.4 0 0 0-.352 1.46v2.083c.003.544.128 1.052.352 1.511A3.85 3.85 0 0 0 7.049 21h.169a3.83 3.83 0 0 0 2.76-1.17l.008-.069a.7.7 0 0 1-.486-.234.76.76 0 0 1-.21-.547s.022-.254.027-.279a2.673 2.673 0 0 1-4.703-1.74v-1.583a2.674 2.674 0 0 1 5.347 0v1.583q-.001.312-.068.602a2.85 2.85 0 0 1 2.163-.956 2.73 2.73 0 0 1 2.006.902 2.7 2.7 0 0 1-.056-.548v-1.583a2.674 2.674 0 0 1 5.347 0v1.583a2.673 2.673 0 0 1-4.658 1.792c.002.008.017.229.017.229a.75.75 0 0 1-.211.547.7.7 0 0 1-.486.234l.007.047A3.83 3.83 0 0 0 16.8 21h.119a3.845 3.845 0 0 0 3.552-2.381c.224-.46.349-.967.352-1.511v-2.083c-.009-.527-.134-.857-.352-1.306a3.9 3.9 0 0 0-.825-1.244 2.75 2.75 0 0 0-.36-1.534.53.53 0 0 0-.851-.087l-.548.607-.002-.001-.005-.001-.003-.002a2.74 2.74 0 0 0-.295-1.638.49.49 0 0 0-.37-.274zm-.942 4.695a1.3 1.3 0 0 0-.198.015 1.3 1.3 0 0 0-.413.14.8.8 0 0 1 .231.568.82.82 0 0 1-.891.812v1.089a1.27 1.27 0 0 0 2.537 0v-1.355a1.27 1.27 0 0 0-1.266-1.269m-8.48.004a1.3 1.3 0 0 0-.211.002 1.3 1.3 0 0 0-.407.108.8.8 0 0 1 .274.609.817.817 0 0 1-1.015.792v1.109a1.27 1.27 0 0 0 2.537 0v-1.355a1.27 1.27 0 0 0-1.178-1.265m4.265 3.069c-1.027 0-1.886.668-2.06 1.595v.072c0 .058.02.081.073.074l1.878.336h.111l1.876-.333c.052.006.073-.017.073-.075v-.074c-.17-.91-1.016-1.595-1.95-1.595zm-1.374 2.568a1.454 1.454 0 0 0 2.639.001s-1.221.214-1.263.214h-.111c-.042 0-.75-.123-1.265-.215"/></svg>