<svg xmlns="http://www.w3.org/2000/svg" viewBox="0 0 24 24"><path d="m14.336 17.133-.25-.003-.346-.345v-.389c0-.214.014-1.018.033-1.788l.034-1.4.178-.181-.17-.17-.272.269-1.075.492h-.682l-.1-.1c-.078-.08-.103-.1-.114-.09a7.29 7.29 0 0 1-.597.047c-.45.028-.664.036-.939.036H9.68l-.195-.193-.366.022c-.24.015-.483.022-.706.022h-.34l-.24-.239-.221.22-.568.02c-.313.011-.66.02-.77.02h-.202l-.067.066-1.473.036c-.81.02-1.634.037-1.83.037h-.356L2 13.176v-.447c0-.246.02-1.59.043-2.986l.044-2.538.344-.346h.351c.193 0 .924.012 1.623.027l1.272.027.349.345-.007.58a20.94 20.94 0 0 0-.003.574c.003-.002.09-.162.193-.356l.188-.35.355-.357h.34c.327 0 .372.002 1.064.063l.722.062.068.068c.052.051.068.062.068.046 0-.013.066-.087.173-.194l.173-.173 4.125-.025.133.131h.17c.094 0 .836.024 1.65.053l1.478.053.119.118h1.467l.06.057.049-.046h1.893l.35.35-.03 2.547-.03 2.547-.049.053.031.431c.024.335.031.505.031.761v.33l-.162.162-.162.163h1.17l.174.173.173.172v1.512l-.35.349-.934-.006a152.91 152.91 0 0 1-1.83-.024l-.894-.018-.042-.04-.043-.04-1.298-.037-.108-.104h-.616l-.15.149-.148.149-.5-.003a140.77 140.77 0 0 1-.75-.005zm.916-.724.03-1.45c.018-.77.031-1.4.03-1.4l-.415-.01-.412-.008v.09c0 .048-.014.653-.032 1.344-.017.69-.032 1.305-.032 1.365v.109l.232.003.415.005.183.003zm6.066-.402v-.42h-.84v.84h.84zm-1.209.125.013-.413.007-.13-.377-.006c-.207-.004-.425-.01-.485-.013l-.11-.007v-1.242l.035-.005c.02-.003.236-.02.481-.038.246-.018.448-.034.45-.035a22.15 22.15 0 0 0-.062-.832 79.85 79.85 0 0 0-1.71.128l-.024.005v2.841l.173.002c.096 0 .43.007.743.014l.714.015.145.001zm-2.012-.042c-.004-.178-.046-2.81-.046-2.886v-.026l-.412.007c-.226.004-.414.01-.417.012-.004.005.011.917.026 1.49l.006.235-.4-.868c-.22-.477-.405-.87-.41-.876a12.52 12.52 0 0 0-.897.048c-.011.007.002 1.068.031 2.593l.007.343h.284c.156 0 .341-.003.412-.007l.128-.007-.004-.459a37.635 37.635 0 0 0-.008-.541c-.002-.046 0-.08.004-.075s.13.275.277.602l.27.593.112.001c.062 0 .278.007.48.014.202.008.411.014.465.015l.097.002zm-5.412-3.408c.299-.137.541-.252.54-.255-.01-.017-.496-1.066-.496-1.07 0-.004.096-.006.213-.006h.213V7.88l-1.238.007c-.68.004-1.46.01-1.732.014l-.495.007.162 2.457c.089 1.351.164 2.46.166 2.462.008.007 1.198-.066 1.207-.075.006-.006-.053-.974-.079-1.303l-.006-.077h.253l.367.783c.201.43.37.78.374.78zm-1.638-2.535c0-.039-.041-.846-.048-.944l-.006-.087h.938v1.03l-.205.006-.442.013-.237.006zm-6.83 2.657a84.81 84.81 0 0 0 1.452-.042 35.615 35.615 0 0 0-.03-1.223c-.002-.002-.337.008-.744.02-.407.014-.791.025-.854.025h-.115v-.872h1.14V9.499H3.957v-.716l.62.007c.341.004.646.01.676.013.041.004.057.002.06-.009.006-.014.027-1.193.023-1.198-.003-.004-2.562-.058-2.566-.054a531.46 531.46 0 0 0-.046 2.537l-.047 2.647-.002.115h.048zm2.562-.123c.214-.006.414-.014.445-.017l.057-.006-.006-.278-.013-.447-.006-.167 1.082.005.036.453c.02.248.037.453.039.455.004.005 1.197-.069 1.201-.074.002-.002-.032-.566-.076-1.254l-.08-1.25-.452-.964c-.249-.53-.456-.968-.461-.973a29.998 29.998 0 0 0-1.46-.126c-.004.005-.248.456-.541 1.004l-.533.994.001.123c0 .067.016.635.033 1.26.017.627.031 1.173.031 1.213v.074l.157-.007c.087-.004.332-.012.546-.018m.447-2.237v-.109l.262-.485c.144-.266.265-.488.27-.492a8.05 8.05 0 0 1 .245.516c.197.434.24.537.25.601l.013.077h-1.04zm10.913 1.803c.004-.232.007-.524.007-.647 0-.124.003-.276.007-.338l.007-.113h.765l-.007.726c-.003.4-.009.742-.012.761l-.005.035h1.214v-.117c0-.193.041-3.609.048-3.973l.006-.338h-1.221l-.007.47c-.004.26-.007.587-.007.727s-.003.31-.007.376l-.007.12-.198-.006-.37-.012-.174-.006V8.23l-.6.004c-.33.002-.605.007-.61.012-.006.007-.02 1.4-.037 3.98l-.003.445h1.204zm-2.536.091c.001-.221.07-3.042.074-3.046a9.79 9.79 0 0 1 .434.012c.236.01.432.013.436.009.01-.01.04-1.185.032-1.193a325.07 325.07 0 0 0-2.946-.111h-.028l-.023.561a45.02 45.02 0 0 0-.024.61v.05l.895.016v.05l-.037 1.576c-.02.84-.034 1.529-.032 1.531.004.004.663.017 1.035.02l.183.003z"/></svg>