<svg version="1.1" viewBox="0 0 24 24" xmlns="http://www.w3.org/2000/svg"><path d="m14.336 17.133-0.25013-3e-3 -0.34592-0.34533-3.62e-4 -0.38862c-1.92e-4 -0.21374 0.01483-1.0185 0.03338-1.7883l0.03373-1.3997 0.1781-0.1814-0.17044-0.16944-0.27132 0.26838-1.075 0.49224h-0.68162l-0.1003-0.10076c-0.07859-0.07892-0.10339-0.09815-0.11457-0.08887-0.0088 0.0073-0.23604 0.02527-0.59666 0.0471-0.44996 0.02724-0.66342 0.03534-0.93875 0.03565l-0.35637 3.97e-4 -0.1945-0.1937-0.36596 0.02236c-0.23957 0.01464-0.48352 0.02235-0.70639 0.02234l-0.34044-2.1e-5 -0.2398-0.23912-0.22101 0.22026-0.56805 0.01969c-0.31242 0.01083-0.65882 0.01986-0.76977 0.02008l-0.20173 3.84e-4 -0.06723 0.06516-1.473 0.03643c-0.81015 0.02004-1.6334 0.03651-1.8294 0.0366l-0.35645 1.79e-4 -0.34616-0.34568-2.767e-4 -0.44716c-1.522e-4 -0.24594 0.019452-1.5895 0.043565-2.9857l0.043842-2.5385 0.3437-0.34592 0.35137 8.8e-6c0.19325 4.9e-6 0.92374 0.012045 1.6233 0.026756l1.2719 0.026747 0.34827 0.34563-0.00675 0.57945c-0.00371 0.3187-0.00477 0.57734-0.00235 0.57477 0.00242-0.00258 0.088984-0.16275 0.19237-0.35593l0.18798-0.35125 0.35528-0.35657 0.34072 9.58e-5c0.32652 9.57e-5 0.37082 0.00271 1.0632 0.062846l0.72247 0.062747 0.067835 0.067233c0.052123 0.05166 0.067836 0.062346 0.067836 0.046132 0-0.013088 0.065681-0.086681 0.17296-0.1938l0.17296-0.1727 4.1254-0.025372 0.1327 0.13152 0.17001 2.13e-5c0.09351 1.03e-5 0.83555 0.023865 1.649 0.05301l1.479 0.052991 0.11874 0.1175h1.4671l0.05956 0.057064 0.04942-0.046421h1.8935l0.35007 0.35055-0.02984 2.5469-0.02984 2.5469-0.0496 0.05322 0.03091 0.43107c0.024 0.33465 0.03097 0.50485 0.03116 0.76091l2.45e-4 0.32983-0.16219 0.16244-0.16219 0.16244h1.1703l0.17308 0.17284 0.17308 0.17284v1.5119l-0.34908 0.3486-0.93508-0.0057c-0.51429-0.0031-1.3374-0.01402-1.8292-0.02418l-0.89408-0.01847-0.04258-0.03977-0.04257-0.03977-1.2985-0.0372-0.1071-0.10392h-0.61696l-0.14873 0.14901-0.14873 0.14901-0.5004-0.0025c-0.27522-0.0014-0.61296-0.0038-0.75053-0.0055zm0.91556-0.72381c1.07e-4 -0.02781 0.01417-0.68031 0.03127-1.45 0.01709-0.76969 0.03018-1.4001 0.02908-1.401s-0.1876-5e-3 -0.41444-0.0092l-0.41245-0.0076-1.07e-4 0.08882c0 0.04885-0.01438 0.654-0.03186 1.3448-0.01748 0.69078-0.03181 1.305-0.03185 1.3649l-1.07e-4 0.10889 0.2315 0.0031c0.12733 0.0017 0.31413 0.0042 0.41511 0.0055l0.18366 0.0024zm6.0668-0.4018v-0.42043h-0.84086v0.84086h0.84086zm-1.2093 0.12506c0.0038-0.1566 0.0097-0.34275 0.01324-0.41367l0.0064-0.12895-0.37639-0.0069c-0.20702-0.0038-0.42549-0.0098-0.48549-0.01335l-0.1091-0.0064v-1.2418l0.03459-0.0053c0.01902-0.0029 0.23553-0.02009 0.48112-0.03811 0.24559-0.01802 0.44759-0.03382 0.44888-0.03511 0.0049-0.0049-0.05562-0.82641-0.06128-0.83206-0.0057-0.0057-1.6615 0.11844-1.7096 0.12822l-0.02395 0.0049v2.8415l0.17296 0.0011c0.09513 5.92e-4 0.42921 7e-3 0.74241 0.0143s0.63467 0.01397 0.7144 0.01489l0.14496 0.0017zm-2.0119-0.04257c-0.0041-0.17781-0.0464-2.8105-0.04639-2.8862l2e-6 -0.02568-0.41147 7e-3c-0.22631 0.0038-0.41388 0.0094-0.41682 0.01231-0.0049 0.0049 0.0108 0.91642 0.02563 1.4903l6e-3 0.23416-0.40071-0.86747c-0.22035-0.47711-0.40433-0.87122-0.4088-0.8758-0.0095-0.0097-0.87957 0.03597-0.89762 0.04712-0.01117 0.0069 0.0016 1.0688 0.0312 2.5929l0.0067 0.34326h0.28399c0.1562 0 0.34152-0.0031 0.41182-0.0069l0.12783-0.0069-0.0039-0.45879c-0.0022-0.25234-0.0055-0.49609-0.0073-0.54167-0.0019-0.04558 0-0.07911 0.0041-0.07451s0.12863 0.2754 0.27667 0.60177l0.26916 0.59339 0.11275 1e-3c0.06202 5.74e-4 0.278 7e-3 0.47997 0.01431 0.20197 0.0073 0.41107 0.01402 0.46467 0.01492l0.09745 0.0017zm-5.4124-3.4079c0.29881-0.13715 0.54165-0.25211 0.53965-0.25545-0.0096-0.01607-0.49553-1.0658-0.49553-1.0704 0-3e-3 0.09579-0.0054 0.21288-0.0054h0.21288v-3.471l-1.2373 0.00729c-0.68054 0.00401-1.4601 0.010262-1.7324 0.0139l-0.49502 0.00661 0.16177 2.4572c0.088974 1.3515 0.16396 2.4594 0.16664 2.4621 0.0076 0.0076 1.1977-0.06605 1.2063-0.07469 0.0061-0.0061-0.05228-0.97403-0.07865-1.3029l-0.0062-0.07717 0.25325 7.26e-4 0.36648 0.7822c0.20157 0.43021 0.36996 0.78089 0.3742 0.7793 0.0042-0.0016 0.25219-0.11512 0.551-0.25227zm-1.6376-2.5354c0-0.03835-0.04116-0.8456-0.04809-0.94322l-0.0062-0.087811h0.93777v1.0301l-0.20489 0.0063c-0.11269 0.0035-0.31146 0.0091-0.44172 0.01262l-0.23682 0.0064zm-6.83 2.6578c0.79506-0.0197 1.4485-0.03871 1.452-0.04224 0.00684-0.0068-0.023-1.2182-0.030138-1.2233-0.00232-0.0016-0.33711 0.0077-0.74397 0.02075-0.40686 0.01306-0.79123 0.02409-0.85417 0.0245l-0.11442 7.5e-4v-0.87279h1.1389v-1.2134h-1.107v-0.71533l0.62 0.00673c0.341 0.0037 0.64517 0.00933 0.67592 0.01251 0.040966 0.00424 0.057187 0.00202 0.060663-0.00829 0.00467-0.013859 0.026143-1.1928 0.021825-1.1984-0.00315-0.00407-2.5616-0.057527-2.5654-0.053599-0.00171 0.00178-0.022784 1.1432-0.046832 2.5365-0.024047 1.3933-0.044864 2.5847-0.046258 2.6477l-0.00254 0.11444 0.047897-3.44e-4c0.026343-1.95e-4 0.6984-0.01647 1.4935-0.03618zm2.5618-0.12339c0.21367-0.0062 0.4141-0.01387 0.44538-0.01706l0.056886-0.0058-0.00646-0.27851c-0.00356-0.15318-0.00927-0.35399-0.012692-0.44625l-0.00622-0.16774 1.0821 0.0056 0.035875 0.45236c0.019732 0.2488 0.037199 0.45379 0.038817 0.45554 0.00409 0.0044 1.1978-0.0688 1.2015-0.07371 0.00169-0.0022-0.032627-0.56677-0.076251-1.2546l-0.079322-1.2507-0.45242-0.96326c-0.24883-0.5298-0.45637-0.96758-0.4612-0.97286-0.011885-0.012994-1.4482-0.13684-1.4592-0.12583-0.0048 0.0048-0.24865 0.45633-0.54189 1.0034l-0.53317 0.99468 0.00133 0.1224c7.291e-4 0.06732 0.015516 0.6349 0.03286 1.2613 0.017344 0.62639 0.031548 1.1719 0.031563 1.2123l3.19e-5 0.07342 0.157-0.0067c0.086348-0.0037 0.33182-0.01176 0.5455-0.01796zm0.44704-2.2371v-0.10856l0.26188-0.48483c0.14404-0.26666 0.26523-0.48844 0.26932-0.49284 0.00409-0.00441 0.1147 0.22789 0.24581 0.51622 0.19722 0.43372 0.2405 0.53756 0.25067 0.6014l0.012295 0.07717h-1.04zm10.913 1.8036c0.0039-0.2327 7e-3 -0.52413 0.0071-0.64762 9e-6 -0.12349 0.0031-0.27556 7e-3 -0.33794l0.0069-0.11342h0.76529l-0.0068 0.72644c-0.0038 0.39954-0.0093 0.74201-0.01221 0.76103l-0.0054 0.03459h1.2144v-0.11704c0-0.193 0.04082-3.6081 0.04749-3.9728l0.0062-0.33794h-1.221l-7e-3 0.47099c-0.0039 0.25904-0.0071 0.58594-0.0071 0.72644s-0.0032 0.30967-7e-3 0.37593l-0.0069 0.12048-0.1979-0.00628c-0.10885-0.00346-0.27574-0.00909-0.37086-0.012517l-0.17296-0.00623v-1.6812l-0.6005 0.00351c-0.33027 0.00193-0.60437 0.00738-0.6091 0.012117-0.0071 0.00714-0.02043 1.3991-0.03803 3.9802l-3e-3 0.44438 1.2046-9e-6zm-2.5363 0.09047c0.0013-0.22122 0.07055-3.0416 0.07475-3.0458 0.0026-0.00261 0.19767 0.0027 0.43347 0.0118 0.2358 0.0091 0.43213 0.013136 0.4363 0.00897 0.0092-0.00921 0.04043-1.1846 0.03169-1.1933-0.0046-0.00463-2.7966-0.10965-2.9463-0.11083l-0.02712-2.129e-4 -0.02376 0.56146c-0.01307 0.3088-0.02362 0.58361-0.02344 0.61067l3.19e-4 0.049214 0.89408 0.01578-3.19e-4 0.049339c-1.71e-4 0.027137-0.01645 0.73666-0.03616 1.5767s-0.03412 1.5292-0.03201 1.5314c0.0037 0.0039 0.66329 0.01717 1.0344 0.02079l0.18361 0.0018z"/></svg>
