<svg xmlns="http://www.w3.org/2000/svg" viewBox="0 0 24 24"><path d="M9.118 2c-.967 0-1.748.779-1.748 1.746v2.762h1.797V4.816a.14.14 0 0 1 .14-.14h8.874a.14.14 0 0 1 .14.14v14.367a.14.14 0 0 1-.14.141H9.308a.14.14 0 0 1-.14-.14v-1.692H7.37v2.762c0 .967.78 1.746 1.748 1.746h9.252c.968 0 1.748-.779 1.748-1.746V3.746c0-.968-.78-1.746-1.748-1.746zM7.364 7.492a.223.223 0 0 0-.22.194l-.17 1.193c-.277.113-.53.266-.76.44l-1.123-.45a.222.222 0 0 0-.275.104l-.899 1.558c-.056.099-.037.22.057.285l.953.743a2.753 2.753 0 0 0-.01.882l-.953.743a.23.23 0 0 0-.055.285l.9 1.558a.23.23 0 0 0 .278.104l1.121-.45c.235.18.485.328.762.44l.168 1.194a.233.233 0 0 0 .226.193h1.803a.22.22 0 0 0 .22-.193l.169-1.194c.277-.113.531-.26.761-.44l1.122.45c.103.037.22 0 .277-.104l.902-1.558c.057-.103.033-.22-.056-.285l-.944-.743a3.323 3.323 0 0 0-.006-.882l.953-.743a.23.23 0 0 0 .057-.285l-.902-1.558a.23.23 0 0 0-.276-.104l-1.123.45a3.305 3.305 0 0 0-.76-.44l-.17-1.193a.227.227 0 0 0-.224-.194zm.9 2.819c.93 0 1.692.76 1.692 1.69s-.762 1.689-1.691 1.689c-.93 0-1.69-.76-1.69-1.69s.76-1.69 1.69-1.69"/></svg>