<svg xmlns="http://www.w3.org/2000/svg" width="192" height="192" viewBox="0 0 192 192"><path d="M72.945 16c-7.736 0-13.984 6.232-13.984 13.968v22.096h14.376V38.528a1.12 1.12 0 0 1 1.12-1.12h70.992a1.12 1.12 0 0 1 1.12 1.12v114.94a1.12 1.12 0 0 1-1.12 1.128H74.465a1.12 1.12 0 0 1-1.12-1.12V139.94H58.961v22.096c0 7.736 6.24 13.968 13.984 13.968h74.016c7.744 0 13.984-6.232 13.984-13.968V29.976c0-7.744-6.24-13.968-13.984-13.968zM58.913 59.936a1.784 1.784 0 0 0-1.76 1.552l-1.36 9.544c-2.216.904-4.24 2.128-6.08 3.52l-8.984-3.6a1.76 1.76 0 0 0-2.2.832l-7.192 12.464c-.448.792-.296 1.76.456 2.28l7.624 5.944a22.4 22.4 0 0 0-.08 7.056l-7.624 5.944a1.84 1.84 0 0 0-.44 2.28l7.2 12.464a1.84 1.84 0 0 0 2.224.832l8.968-3.6c1.88 1.44 3.88 2.624 6.096 3.52l1.344 9.552a1.84 1.84 0 0 0 1.808 1.544h14.424a1.76 1.76 0 0 0 1.76-1.544l1.352-9.552q3.328-1.36 6.088-3.52l8.976 3.6c.824.296 1.76 0 2.216-.832l7.216-12.464c.456-.824.264-1.76-.448-2.28l-7.552-5.944a26.4 26.4 0 0 0-.048-7.056l7.624-5.944a1.84 1.84 0 0 0 .456-2.28l-7.216-12.464a1.84 1.84 0 0 0-2.208-.832l-8.984 3.6a26.4 26.4 0 0 0-6.08-3.52l-1.36-9.544a1.84 1.84 0 0 0-1.792-1.552zm7.2 22.552c7.44 0 13.536 6.08 13.536 13.52s-6.096 13.512-13.528 13.512c-7.44 0-13.52-6.08-13.52-13.52s6.08-13.52 13.52-13.52"/></svg>