<svg xmlns="http://www.w3.org/2000/svg" width="24" height="24"><path d="M11.54288 15.537706v2.368243H2V6.094h9.54288v3.3415521H7.6024929v.9044849H11.54288v4.294269c-.357675-.022762-.720227-.063948-1.087657-.124645-1.5688932-.259585-2.638667-.789595-2.6495056-.795014l-.4069909.807479c.047148.02384 1.1803278.588538 2.8760335.874136.425958.07153.849207.118141 1.26812.141444zm6.497765-5.198211v-.9044848H22V6.094h-9.553177v8.556564c1.327191-.03739 2.578512-.349546 3.736621-.935375l.408075.806937c-1.267579.641105-2.673351.9874-4.144696 1.029129v2.355236h9.552635v-7.566996z"/></svg>