<svg xmlns="http://www.w3.org/2000/svg" data-name="Layer 1" viewBox="0 0 24 24"><path d="M9.887 9.746c-1.455 0-1.83.752-1.83.752V8.009H7.022v3.803a2.126 2.126 0 0 0-2.44-2.066C3.172 9.746 2 10.31 2 12.141c0 1.455.798 2.3 2.63 2.3 2.159 0 2.3-1.408 2.3-1.408H5.85a1.215 1.215 0 0 1-1.315.798 1.42 1.42 0 0 1-1.502-1.455h3.99v1.22l-.046.751h1.032l.047-.657a2.06 2.06 0 0 0 1.831.798 2.255 2.255 0 0 0 2.348-2.394 2.217 2.217 0 0 0-2.348-2.348m-6.854 1.972a1.387 1.387 0 0 1 1.502-1.314 1.283 1.283 0 0 1 1.409 1.314Zm6.573 2.066a1.526 1.526 0 0 1-1.55-1.643 1.537 1.537 0 0 1 1.55-1.69 1.504 1.504 0 0 1 1.549 1.643 1.57 1.57 0 0 1-1.55 1.69"/><path d="m20.92 9.934-1.69 3.38-1.737-3.38h-1.174l.195.362a2.52 2.52 0 0 0-1.791-.55c-2.16 0-2.254 1.174-2.254 1.315h1.033s.094-.657 1.127-.657c1.456 0 1.268 1.127 1.268 1.127h-1.268c-1.643 0-2.488.516-2.488 1.455s.798 1.502 1.878 1.502c1.502 0 1.925-.798 1.925-.798l.047.657h.939v-2.91a2 2 0 0 0-.051-.462l1.788 3.325-.845 1.69h1.126L22 9.935Zm-6.666 3.897c-.752 0-1.08-.376-1.08-.845 0-.798 1.126-.798 2.723-.798a1.473 1.473 0 0 1-1.643 1.643"/></svg>