<svg xmlns="http://www.w3.org/2000/svg" viewBox="0 0 24 24"><path d="M12 2c-1.234 0-2.234.482-2.727.776l-.005.003-.005.003c-1.154.709-2.086 1.754-2.821 2.812-.73 1.052-1.218 2.052-1.465 2.698l-.002.007-.002.006c-.84 2.311-.788 4.74-.65 5.82l.001.017.003.017c.354 2.112.871 3.21 1.678 4.512l.01.017.012.017C8.068 21.684 10.911 22 12 22c1.089 0 3.932-.316 5.973-3.295l.011-.016.01-.018c.807-1.302 1.325-2.4 1.679-4.512l.003-.017.002-.017c.137-1.08.19-3.509-.65-5.82l-.003-.006-.002-.007c-.247-.646-.734-1.646-1.465-2.698-.735-1.058-1.667-2.103-2.821-2.812l-.005-.003-.005-.003C14.234 2.482 13.234 2 12 2m0 1.75c.711 0 1.586.385 1.827.528.846.52 1.653 1.391 2.294 2.314.637.918 1.082 1.841 1.265 2.32.68 1.88.652 4.215.557 4.978-.325 1.926-.672 2.623-1.423 3.837-1.657 2.41-3.693 2.523-4.52 2.523-.827 0-2.863-.114-4.52-2.523-.751-1.214-1.098-1.911-1.423-3.837-.095-.763-.124-3.098.558-4.98.183-.478.627-1.4 1.264-2.318.641-.923 1.448-1.794 2.295-2.315.241-.143 1.115-.527 1.826-.527zm0 0c-.711 0-1.585.384-1.826.527-.847.521-1.654 1.392-2.295 2.315-.637.918-1.082 1.84-1.264 2.319-.682 1.88-.653 4.216-.558 4.979.325 1.926.672 2.623 1.422 3.837 1.658 2.41 3.694 2.523 4.521 2.523s2.863-.114 4.52-2.523c.751-1.214 1.098-1.911 1.423-3.837.095-.763.123-3.097-.557-4.978-.183-.479-.628-1.402-1.265-2.32-.641-.923-1.448-1.793-2.294-2.314-.24-.143-1.116-.528-1.827-.528z"/></svg>