<svg xmlns="http://www.w3.org/2000/svg" width="192" height="192" viewBox="0 0 192 192"><path d="M96 61.35A34.65 34.65 0 0 0 61.35 96 34.65 34.65 0 0 0 96 130.65 34.65 34.65 0 0 0 130.65 96 34.65 34.65 0 0 0 96 61.35m.17 8.755c7.853 0 14.691 5.005 14.691 12.99 0 3.788-1.894 7.584-5.213 9.679 4.597 2.302 7.239 6.499 7.239 11.704 0 9.41-7.647 15.43-16.71 15.43-9.34 0-16.717-6.36-16.717-15.43 0-5.413 2.973-9.402 7.239-11.704-3.18-2.303-5.144-5.413-5.144-9.68 0-7.915 6.56-12.99 14.615-12.99m0 8.933c-3.18 0-4.867 2.233-4.867 5.143 0 3.042 1.756 5.144 4.867 5.144s4.943-2.102 4.943-5.143c0-2.911-1.763-5.144-4.943-5.144m0 18.003c-3.927 0-6.16 2.98-6.16 6.768 0 3.45 2.033 6.768 6.16 6.768 3.858 0 6.16-3.31 6.16-6.775 0-4.259-2.433-6.761-6.16-6.761M96 19a77 77 0 0 0-77 77 77 77 0 0 0 77 77 77 77 0 0 0 77-77 77 77 0 0 0-77-77m0 7.7A69.3 69.3 0 0 1 165.3 96 69.3 69.3 0 0 1 96 165.3 69.3 69.3 0 0 1 26.7 96 69.3 69.3 0 0 1 96 26.7"/></svg>