<svg xmlns="http://www.w3.org/2000/svg" viewBox="0 0 24 24"><path d="M12 3a9 9 0 1 0 0 18 9 9 0 0 0 0-18m-.984 3.535a4.463 4.463 0 0 1 4.468 4.457.66.66 0 0 1-1.318 0 3.147 3.147 0 0 0-3.15-3.142.658.658 0 1 1 0-1.315m-.01 2.012a.658.658 0 1 1 0 1.316 3.145 3.145 0 0 0-3.149 3.143.66.66 0 0 1-.66.656.656.656 0 0 1-.658-.656c0-2.462 2-4.46 4.467-4.46zm5.8 1.789c.365 0 .659.295.659.658 0 2.462-2 4.457-4.467 4.457a.658.658 0 1 1 0-1.314c1.74 0 3.15-1.407 3.15-3.143 0-.363.295-.658.659-.658zm-7.618 2.01a.66.66 0 0 1 .66.658 3.145 3.145 0 0 0 3.148 3.143.66.66 0 0 1 .66.658.66.66 0 0 1-.66.658 4.463 4.463 0 0 1-4.467-4.459c0-.363.294-.658.658-.658z"/></svg>