<svg xmlns="http://www.w3.org/2000/svg" viewBox="0 0 24 24"><path d="M10.539 5.135a5.072 5.072 0 0 1 5.073 5.06 1.07 1.07 0 0 0 2.14 0A7.213 7.213 0 0 0 10.539 3a1.067 1.067 0 1 0 0 2.135m-.327 3.248a1.067 1.067 0 1 0 0-2.135A7.213 7.213 0 0 0 3 13.444a1.07 1.07 0 0 0 2.139 0 5.072 5.072 0 0 1 5.073-5.061m3.248 10.482a5.072 5.072 0 0 1-5.073-5.06 1.07 1.07 0 0 0-2.14 0A7.213 7.213 0 0 0 13.46 21a1.067 1.067 0 1 0 0-2.135m6.47-9.376a1.068 1.068 0 0 0-1.07 1.066 5.072 5.072 0 0 1-5.073 5.062 1.067 1.067 0 1 0 0 2.135A7.213 7.213 0 0 0 21 10.555a1.068 1.068 0 0 0-1.07-1.066"/></svg>