<svg xmlns="http://www.w3.org/2000/svg" viewBox="0 0 24 24"><path d="M10.558 19.166c-2.133-.263-3.793-.905-4.96-1.916-.86-.745-1.175-1.42-1.182-2.53-.004-.667.093-1.158.343-1.727.088-.202.15-.379.135-.393s-.205-.054-.425-.09c-.858-.138-1.766-.774-2.132-1.492-.613-1.202-.373-2.656.583-3.53.208-.19.402-.345.432-.345s-.02.143-.108.317c-.21.414-.206.788.012 1.225.22.441.593.709 1.052.753.311.03.339.047.34.21.004.527.517 1.07 1.081 1.145.522.07 1.115-.288 1.305-.785.058-.153.07-.157.148-.051s.112.095.405-.13c.344-.261.366-.302.24-.428-.064-.064-.045-.082.084-.083.282-.003.717-.243.918-.507.146-.192.2-.347.22-.644.016-.215-.005-.455-.046-.532-.09-.17-.09-.17.774-.316 2.18-.369 4.42-.237 6.308.37l.613.197.327-.332c.633-.644 1.648-.978 2.511-.826 2.391.42 3.3 3.332 1.559 4.994-.42.4-.941.68-1.406.757-.145.024-.345.058-.445.077l-.181.033.167.379c.568 1.283.454 2.799-.292 3.881-.72 1.046-2.357 1.888-4.335 2.23-.73.125-3.29.182-4.045.09zm1.132-3.165c.129-.061.314-.215.41-.341l.175-.23.23.268c.292.341.59.44 1.21.4.774-.05 1.232-.382 1.36-.986.06-.283-.005-.477-.175-.53-.187-.06-.333.08-.333.32 0 .414-.258.624-.864.704-.621.083-.929-.175-1.101-.924-.118-.508-.095-.796.067-.848.212-.067.403-.432.403-.77 0-.255-.038-.335-.264-.561-.222-.222-.308-.264-.547-.264-.554 0-.907.353-.9.9.004.315.273.708.526.772.16.04.166.061.127.391-.136 1.127-.495 1.465-1.353 1.273-.428-.096-.63-.29-.669-.643-.058-.53-.521-.51-.521.023 0 .289.187.663.418.836.427.318 1.346.426 1.8.21zm-2.905-2.162c.247-.128.604-.537.659-.755.024-.094.03-.336.013-.537-.073-.873-.992-1.372-1.804-.98-.923.448-.913 1.78.017 2.264.257.133.864.138 1.115.008m7.546-.035c.318-.163.515-.425.62-.825.201-.762-.425-1.555-1.229-1.555s-1.43.793-1.229 1.555c.104.393.3.66.606.821.335.177.888.179 1.232.003z"/><path d="M5.472 10.739c-.462-.185-.82-.66-.824-1.09-.001-.165-.029-.182-.34-.212-.706-.067-1.278-.764-1.21-1.473.065-.673.622-1.267 1.226-1.308.286-.019.332-.088.102-.15-.27-.072-.56-.046-.719.065-.188.132-.351.081-.351-.11 0-.104.086-.18.321-.284.27-.12.372-.132.636-.078q.604.125.607-.34c.002-.297.225-.758.431-.893.328-.215.427.05.145.386-.128.152-.17.28-.17.516v.314l.18-.36a1.396 1.396 0 0 1 2.189-.44c.353.302.516.722.467 1.202l-.037.36.303.16c.88.468.838 1.77-.07 2.183-.154.07-.355.128-.446.128-.13.001-.149.02-.085.083.126.127.104.167-.24.43-.294.224-.327.235-.405.128-.08-.109-.088-.108-.131.013-.217.612-1.01.998-1.58.77z" opacity=".75"/></svg>