<svg xmlns="http://www.w3.org/2000/svg" viewBox="0 0 24 24"><defs><linearGradient id="a" x1="12.05" x2="19.184" y1="18.434" y2="18.434" gradientUnits="userSpaceOnUse"><stop offset="0"/><stop offset=".27" stop-opacity=".788"/><stop offset=".774" stop-opacity="0"/></linearGradient></defs><path d="M11.535 10.456h9.393v2.688h-9.393zm.586 10.537-.028-2.688h-.058c-1.744 0-3.317-.7-4.46-1.844l-1.873 1.901a8.95 8.95 0 0 0 6.348 2.63zM5.76 18.42l1.873-1.916a6.3 6.3 0 0 1-1.887-4.49H3.07a8.94 8.94 0 0 0 2.688 6.406zM5.702 5.638a9.02 9.02 0 0 0-2.631 6.376v.072l2.688-.029V12c0-1.744.7-3.317 1.844-4.46zm6.348.057V3.029l-.01-.022a9.04 9.04 0 0 0-6.395 2.702L7.56 7.582a6.3 6.3 0 0 1 4.49-1.887m.014-2.674h-.086l.029 2.688h.057c1.744 0 3.317.7 4.46 1.844l1.902-1.901a8.96 8.96 0 0 0-6.362-2.63zm6.29 2.574L16.483 7.51a6.3 6.3 0 0 1 1.701 2.946h2.744l.001-.001a8.96 8.96 0 0 0-2.573-4.86z"/><path fill="url(#a)" d="m12.05 21.004.004.004a8.97 8.97 0 0 0 7.13-3.517l-2.13-1.63a6.33 6.33 0 0 1-5.004 2.46z"/></svg>