<svg xmlns="http://www.w3.org/2000/svg" viewBox="0 0 24 24"><path d="M4.947 2c-1.144 0-1.564.422-1.564 1.567v13.8a3.552 3.552 0 0 0 .016.361c.026.25.031.492.264.767.022.028.259.204.259.204.127.063.215.109.358.167l6.946 2.909c.36.166.511.23.773.225h.002c.261.005.412-.06.773-.225l6.946-2.91c.143-.058.23-.103.358-.167 0 0 .237-.175.26-.202.233-.275.237-.518.263-.767a3.55 3.55 0 0 0 .016-.361V3.567c0-1.145-.421-1.567-1.565-1.567zm11.138 2.592h.566c.949 0 1.407.461 1.407 1.414v1.566h-1.145v-1.5c0-.307-.142-.45-.436-.45h-.196c-.306 0-.447.142-.447.45v4.841c0 .308.141.45.447.45h.219c.294 0 .435-.142.435-.45v-1.73h1.145v1.786c0 .953-.469 1.425-1.417 1.425h-.578c-.949 0-1.417-.472-1.417-1.425V6.017c0-.953.468-1.424 1.417-1.424zM5.93 4.66h2.595v1.062H7.096V7.89H8.47v1.062H7.096v2.312h1.45v1.062H5.93zm3.18 0h1.831c.949 0 1.417.47 1.417 1.423V8.12c0 .953-.468 1.425-1.417 1.425h-.666v2.781H9.11zm3.775 0h1.166v7.667h-1.166zm-2.609 1.03v2.826h.48c.294 0 .435-.143.435-.45V6.138c0-.306-.141-.45-.436-.45zM7.16 14.143a1.423 1.423 0 0 1 .492.09 1.454 1.454 0 0 1 .409.25l-.377.454a1.04 1.04 0 0 0-.257-.162.758.758 0 0 0-.302-.057.548.548 0 0 0-.234.05.586.586 0 0 0-.186.136.652.652 0 0 0-.126.202.666.666 0 0 0-.047.25v.006a.71.71 0 0 0 .047.258.583.583 0 0 0 .13.205.613.613 0 0 0 .199.133.645.645 0 0 0 .253.048.658.658 0 0 0 .37-.096v-.283h-.456v-.47H8.14v1.045a1.683 1.683 0 0 1-.437.256 1.49 1.49 0 0 1-.57.102 1.368 1.368 0 0 1-.501-.089 1.217 1.217 0 0 1-.398-.25 1.143 1.143 0 0 1-.265-.379 1.198 1.198 0 0 1-.096-.483v-.007a1.188 1.188 0 0 1 .094-.475 1.208 1.208 0 0 1 .26-.383 1.182 1.182 0 0 1 .395-.258 1.317 1.317 0 0 1 .498-.092 1.423 1.423 0 0 1 .038 0zm9.969.007a1.672 1.672 0 0 1 .51.078 1.342 1.342 0 0 1 .422.23l-.321.456a1.302 1.302 0 0 0-.325-.171.982.982 0 0 0-.324-.058.29.29 0 0 0-.173.043.128.128 0 0 0-.058.106v.007a.132.132 0 0 0 .018.07.165.165 0 0 0 .063.055.692.692 0 0 0 .123.05c.051.016.116.033.196.05a2.824 2.824 0 0 1 .359.102 1.077 1.077 0 0 1 .273.142.565.565 0 0 1 .173.2.616.616 0 0 1 .059.28v.007a.72.72 0 0 1-.068.319.683.683 0 0 1-.19.237.86.86 0 0 1-.295.15 1.338 1.338 0 0 1-.383.05 1.8 1.8 0 0 1-.592-.096 1.432 1.432 0 0 1-.494-.288l.358-.428c.231.185.482.279.75.279a.38.38 0 0 0 .197-.042.13.13 0 0 0 .068-.118v-.007a.125.125 0 0 0-.016-.064.17.17 0 0 0-.061-.055.627.627 0 0 0-.12-.052 2.042 2.042 0 0 0-.193-.052 4.197 4.197 0 0 1-.345-.094 1.05 1.05 0 0 1-.275-.133.6.6 0 0 1-.185-.203.608.608 0 0 1-.069-.3v-.006a.72.72 0 0 1 .062-.3.662.662 0 0 1 .178-.235.84.84 0 0 1 .284-.154 1.186 1.186 0 0 1 .373-.055 1.672 1.672 0 0 1 .02 0zm-7.799.02h.619l.986 2.342h-.688l-.169-.416h-.893l-.165.415h-.675zm1.831.017h.679l.552.9.553-.9h.678v2.325h-.638v-1.335l-.593.91h-.013l-.59-.903v1.327h-.628zm2.891 0h1.863v.548h-1.228v.352H15.8v.508h-1.112v.369h1.244v.548h-1.879zm-4.416.748-.263.66h.52zM8.68 19.26h6.679l-3.409 1.123z"/></svg>