<svg xmlns="http://www.w3.org/2000/svg" viewBox="0 0 24 24"><path d="M12.438 7.374a1 1 0 0 0-.143.008c-.408.054-.773.263-.936.661-.295.726.269 1.629 1.094 1.53.443-.053.836-.319.969-.762.197-.657-.285-1.427-.984-1.437M2 7.374v9.252h1.24V7.374zm1.752 0v9.252h1.24V7.374zm5.335 0c0 1.92-1.664 3.583-3.583 3.583v2.047c1.929 0 3.583 1.702 3.583 3.622h1.24A4.89 4.89 0 0 0 6.96 11.98c.49-.217.958-.39 1.397-.711a4.85 4.85 0 0 0 1.969-3.895zm5.334 0c0 1.918-1.665 3.583-3.582 3.583v2.047c1.927 0 3.582 1.703 3.582 3.622h1.24a4.89 4.89 0 0 0-3.366-4.646c.49-.217.96-.39 1.398-.711a4.86 4.86 0 0 0 1.968-3.895zm1.752 0v1.24h2.244v8.012h1.24V8.614H22v-1.24zm-9.07 0a1 1 0 0 0-.142.008c-.399.052-.754.24-.928.622-.335.734.243 1.67 1.085 1.57.442-.054.829-.323.96-.763.197-.654-.277-1.424-.975-1.436z"/></svg>