<svg xmlns="http://www.w3.org/2000/svg" width="192" height="192" viewBox="0 0 192 192"><path d="M99.504 58.992a8 8 0 0 0-1.144.064c-3.264.432-6.184 2.104-7.488 5.288-2.36 5.808 2.152 13.032 8.752 12.24 3.544-.424 6.688-2.552 7.752-6.096 1.576-5.256-2.28-11.416-7.872-11.496m-83.504 0v74.016h9.92V58.992zm14.016 0v74.016h9.92V58.992zm42.68 0c0 15.36-13.312 28.664-28.664 28.664v16.376c15.432 0 28.664 13.616 28.664 28.976h9.92A39.12 39.12 0 0 0 55.68 95.84c3.92-1.736 7.664-3.12 11.176-5.688a38.8 38.8 0 0 0 15.752-31.16zm42.672 0c0 15.344-13.32 28.664-28.656 28.664v16.376c15.416 0 28.656 13.624 28.656 28.976h9.92A39.12 39.12 0 0 0 98.36 95.84c3.92-1.736 7.68-3.12 11.184-5.688a38.88 38.88 0 0 0 15.744-31.16zm14.016 0v9.92h17.952v64.096h9.92V68.912H176v-9.92zm-72.56 0a8 8 0 0 0-1.136.064c-3.192.416-6.032 1.92-7.424 4.976-2.68 5.872 1.944 13.36 8.68 12.56 3.536-.432 6.632-2.584 7.68-6.104 1.576-5.232-2.216-11.392-7.8-11.488z"/></svg>