<svg xmlns="http://www.w3.org/2000/svg" viewBox="0 0 24 24"><path d="M9.545 10.248c-1.529-.031-2.838.653-3.652 1.935-.417.656-.616 1.41-.618 2.334 0 .278.017.59.04.692l.083.383c.067.31.144.524.313.86.568 1.125 1.586 1.877 2.896 2.14.346.069 1.55.068 1.946-.002a4.17 4.17 0 0 0 1.853-.825c.298-.239.76-.749.76-.84 0-.027-.084-.088-.187-.134a50.01 50.01 0 0 1-1.01-.467c-.235-.11-.447-.2-.473-.2-.026.002-.162.09-.303.198-1.075.82-2.554.757-3.396-.144a2.242 2.242 0 0 1-.492-.99l-.024-.13 6.453-.02.01-.138c.016-.218-.061-1.106-.121-1.385-.37-1.728-1.668-2.949-3.412-3.21a5.175 5.175 0 0 0-.666-.057zM9.5 12.029c.64-.014 1.318.267 1.74.737.166.184.387.566.387.67 0 .033-.547.044-2.111.044-1.455 0-2.112-.014-2.112-.043 0-.11.283-.548.494-.763.34-.347.71-.519 1.332-.62.09-.014.179-.023.27-.025z"/></svg>