<svg xmlns="http://www.w3.org/2000/svg" viewBox="0 0 24 24"><path d="M3.236 15.797v-5.203L6.113 7.81v-.948c.002-1.434.225-2.075.997-2.855 1.63-1.647 4.408-1.211 5.442.854.127.255.27.664.316.91l.084.444h7.812v11.173H10.461V21H3.236zm8.758-2.323.956-1.037 1.626 1.536.504-.517c.277-.285.855-.894 1.285-1.354l.782-.836.621.602c.342.332.824.797 1.073 1.035l.451.433V7.62h-6.355v.272c0 .512-.262.795-.736.794-.461 0-.736-.293-.736-.784v-.29l-.502.041-.017 3.429c-.01 1.886.007 3.429.037 3.429s.484-.467 1.01-1.037zm1.673-2.661a1.718 1.718 0 0 1-.383-.385c-.133-.195-.154-.297-.133-.637.03-.493.22-.794.615-.973.369-.168.696-.16 1.047.026.782.414.78 1.615-.003 2.02-.302.156-.873.13-1.143-.051m-6.282-.066c.367-.25.496-.477.496-.878 0-.243-.042-.417-.132-.55l-.13-.194-.035.468c-.037.506-.117.704-.35.867-.284.2-.896.073-1.026-.212-.03-.066-.07-.36-.091-.653l-.038-.533-.128.197c-.183.281-.215.76-.07 1.065.258.545 1.013.757 1.504.423m3.112-4.532h.97l-.041-.184c-.126-.552-.552-1.103-1.065-1.377-.386-.207-1.289-.205-1.68.003-.423.225-.65.443-.865.833-.19.343-.199.396-.22 1.35l-.024.993 1.92 1.84.017-1.729.018-1.73z"/></svg>