<svg xmlns="http://www.w3.org/2000/svg" viewBox="0 0 24 24"><path d="M9.246 11.434Q5.151 9.992 5.15 7.067q0-2.307 2.173-3.687Q9.494 2 12.717 2q2.932 0 4.657.958t1.725 2.297q0 .7-.54 1.225t-1.247.526q-1.165 0-1.913-1.607-1.04-2.225-3.118-2.225-1.643 0-2.703 1.072t-1.06 2.986q0 3.77 3.929 3.77.416 0 .956-.083.936-.123 1.455-.123 1.269 0 1.269.72 0 .804-1.29.804-.457 0-1.371-.144-.687-.124-1.06-.124-4.159 0-4.158 4.202 0 2.04 1.101 3.285 1.102 1.245 3.077 1.246 2.474 0 3.285-2.533.415-1.339.925-1.854t1.362-.515q.706 0 1.278.505.572.504.572 1.287 0 1.875-2.12 3.1T12.592 22q-3.304 0-5.872-1.565t-2.568-4.181q0-3.275 5.093-4.82z"/></svg>