<svg xmlns="http://www.w3.org/2000/svg" viewBox="0 0 24 24"><path d="M9.246 11.434c-2.73-.961-4.096-2.417-4.096-4.367 0-1.538.724-2.767 2.173-3.687C8.77 2.46 10.569 2 12.717 2c1.954 0 3.507.32 4.657.958 1.15.639 1.725 1.404 1.725 2.297 0 .467-.18.875-.54 1.225-.36.35-.776.526-1.247.526-.777 0-1.414-.536-1.913-1.607-.693-1.483-1.732-2.225-3.118-2.225-1.095 0-1.996.358-2.703 1.072-.707.714-1.06 1.71-1.06 2.986 0 2.513 1.31 3.77 3.929 3.77.277 0 .596-.028.956-.083.624-.082 1.109-.123 1.455-.123.846 0 1.269.24 1.269.72 0 .536-.43.804-1.29.804-.304 0-.762-.048-1.371-.144-.458-.083-.811-.124-1.06-.124-2.773 0-4.158 1.4-4.158 4.202 0 1.36.367 2.454 1.101 3.285.735.83 1.76 1.246 3.077 1.246 1.65 0 2.744-.844 3.285-2.533.277-.893.585-1.51.925-1.854.34-.343.793-.515 1.362-.515.47 0 .897.168 1.278.505.381.336.572.765.572 1.287 0 1.25-.707 2.283-2.12 3.1-1.414.817-3.126 1.225-5.136 1.225-2.203 0-4.16-.521-5.872-1.565-1.712-1.044-2.568-2.437-2.568-4.181 0-2.184 1.698-3.79 5.093-4.82z"/></svg>