<svg xmlns="http://www.w3.org/2000/svg" viewBox="0 0 24 24"><path d="M5.972 19.568c-1.418-.057-1.594-.088-2.16-.374-.793-.402-1.276-.997-1.57-1.936-.41-1.605-.175-3.559-.175-5.242 0-5.07.003-5.117.416-5.926.232-.455.851-1.074 1.288-1.288.83-.406.847-.407 8.263-.407 7.33 0 7.427.004 8.194.376.456.22 1.071.804 1.309 1.24.455.835.463.94.463 6.005 0 4.248-.01 4.65-.136 5.095-.354 1.254-1.11 2.015-2.336 2.35-.37.1-1.239.12-6.304.14-3.232.012-6.495-.002-7.252-.033m6.396-4.097c2.148-.342 3.466-2.57 2.75-4.65-.708-2.06-2.5-2.3-3.307-2.299-2.144.004-2.994 1.342-3.316 2.173-.247.64-.282 1.64-.08 2.305a3.48 3.48 0 0 0 2.644 2.439c.57.124.712.127 1.31.032zm5.978-5.517c.477-.143.974-.672 1.126-1.199.421-1.458-.86-2.739-2.318-2.318-1.565.452-1.768 2.689-.31 3.415.437.218.99.255 1.503.102z"/></svg>