<svg xmlns="http://www.w3.org/2000/svg" viewBox="0 0 24 24"><path d="M18.372 4.249H5.698a1.447 1.447 0 0 0-1.449 1.449v12.674a1.449 1.449 0 0 0 2.898 0V7.147h11.225a1.45 1.45 0 0 0 0-2.898M5.698 6.185a.487.487 0 1 1 0-.974.487.487 0 0 1 0 .974M18.725 8.52h-8.69c-.758 0-1.436.552-1.508 1.304a1.45 1.45 0 0 0 1.446 1.59h7.302a.33.33 0 0 0 .3-.185l1.266-2.522a.13.13 0 0 0-.116-.187m-8.752 1.932a.486.486 0 1 1 0-.972.486.486 0 1 1 0 .972m-.005 2.408c-.799 0-1.447.646-1.447 1.442v5.27c0 .098.08.178.179.178h2.537a.18.18 0 0 0 .179-.178v-3.828h3.65c.126 0 .241-.07.298-.183l1.273-2.513a.13.13 0 0 0-.116-.188zm0 1.926a.485.485 0 1 1 0-.968.485.485 0 1 1 0 .968M5.68 3c-.27 0-.507.031-.722.093C3.787 3.428 3 4.46 3 5.662v12.57c0 .736.306 1.46.839 1.988a2.6 2.6 0 0 0 1.826.771l.025-.001a2.64 2.64 0 0 0 1.879-.806c.295.499.83.816 1.424.816h2.295c.754 0 1.368-.612 1.368-1.366v-2.657h2.12c.784 0 1.492-.435 1.845-1.136l1.609-3.19.5-.999 1.154-2.3a1.4 1.4 0 0 0-.116-1.45 2.65 2.65 0 0 0 1.223-2.446C20.886 4.079 19.681 3 18.244 3zm0 .216h12.565c1.295 0 2.434.965 2.533 2.256a2.45 2.45 0 0 1-1.346 2.376 1.17 1.17 0 0 1 .26 1.404l-1.31 2.616h.002l-.251.501-.034.065-1.67 3.309a1.85 1.85 0 0 1-1.652 1.017H12.44v2.874a1.15 1.15 0 0 1-1.152 1.15H8.993c-.64 0-1.178-.419-1.37-.995a2.44 2.44 0 0 1-1.935.986c-1.36.013-2.471-1.184-2.471-2.543V5.662A2.45 2.45 0 0 1 5.015 3.3a2.4 2.4 0 0 1 .664-.084z"/></svg>