<svg xmlns="http://www.w3.org/2000/svg" viewBox="0 0 24 24"><path d="m11.469 19.455-1.123-1.607-1.026-.004-.395-.688-1.41-2.449a181 181 0 0 0-1.396-2.391l-.382-.63.186-.261c.223-.312.189-.374-.136-.25-.283.107-.27.119-.664-.613-.207-.384-.282-.608-.23-.69.117-.186.098-.22-.195-.341l-.273-.113.223-.075c.22-.073.221-.079.082-.321l-.142-.248-.095.231-.095.23-.23-.363c-.126-.2-.23-.4-.23-.442 0-.089.348-.235.746-.314.228-.044.282-.023.331.132l.059.184.188-.176c.162-.152.368-.19 1.477-.265 2.04-.138 1.898-.161 2.014.32.054.224.213.815.353 1.312.2.716 1.119 4.144 1.643 6.136.072.275.12.323.324.323.237 0 .245.019.612 1.356.71 2.591.95 3.51.929 3.567-.012.031-.527-.666-1.145-1.55m-5.55-9.529c0-.157-.239-.388-.4-.388-.093 0-.113.053-.071.193.105.354.47.506.47.195zm6.876 7.557-1.084-2.732.347-.412c.333-.394.354-.405.51-.263.158.142.16.249.016.685-.03.087.024.05.117-.085l.17-.243.2.33c.11.18.64.994 1.178 1.808l.978 1.48-.617 1.082c-.34.595-.643 1.083-.674 1.083s-.545-1.23-1.14-2.733zm2.203-.088a37 37 0 0 0-.941-1.442c-1.103-1.62-1.36-2.07-1.295-2.275.075-.234.148-.226.421.048.248.247.286.163.126-.28l-.1-.279 2.735-2.697c2.735-2.697 2.735-2.698 2.625-2.94-.11-.24-.1-.25 1.646-1.998.966-.967 1.768-1.746 1.783-1.731.032.032-.197.552-1 2.274l-.616 1.317.26.378c.143.208.26.397.26.42 0 .045-2.228 3.93-3.833 6.687-.51.876-1.101 1.893-1.312 2.26s-.415.667-.453.667-.176-.184-.306-.409m-3.302-5.726c-.19-.582-.95-3.542-.919-3.574.033-.033 2.116.508 3.262.848l.586.174-1.35 1.416c-.742.779-1.38 1.416-1.419 1.416-.037 0-.11-.126-.16-.28M3.564 7.794a25 25 0 0 1-.325-.553c-.113-.198-.352-.6-.532-.894-.18-.293-.315-.545-.301-.559.03-.03 5.842.796 5.877.836.072.082.29.975.252 1.035-.024.039-.303.071-.62.073-.316 0-1.293.058-2.169.126-2.093.164-2.04.165-2.182-.064m12.86-.104c0-.107-.046-.13-.178-.088a.84.84 0 0 1-.386.005c-.203-.051-.186-.094.91-2.29l1.118-2.238h2.585l-.28.379c-.8 1.076-3.36 4.271-3.423 4.271a.8.8 0 0 0-.21.053q-.136.052-.136-.092m-1.151-.482c-.127-.214-.197-.257-.344-.21a4 4 0 0 1-.464.104c-.245.038-.28.02-.28-.149 0-.163-.02-.176-.133-.082-.1.084-.157.086-.232.01-.055-.054-.218-.1-.363-.1-.255 0-.944-.176-4.468-1.142L7.281 5.17l-.092.203c-.051.112-.135.202-.187.2s-1.198-.287-2.548-.634L2 4.309l.56-.067c.307-.037 1.238-.13 2.066-.206l1.507-.139.209-.448.208-.448 11.161-.006-.081.214c-.124.327-1.954 3.94-2.084 4.115-.106.143-.125.134-.273-.116"/></svg>