<svg xmlns="http://www.w3.org/2000/svg" viewBox="0 0 24 24"><path d="M12 2.841a10 10 0 0 0-9.999 10h.003v1.045h2.692v-1.034h-1.33v-.011a8.643 8.643 0 0 1 8.623-8.31l-.68 7.442a1.133 1.133 0 1 0 1.416 0l-.181-1.988a2.8 2.8 0 0 1 2.35 2.86h1.342a4.143 4.143 0 0 0-3.818-4.23l-.135-1.482a5.62 5.62 0 0 1 5.425 5.71h1.44v-.083a7.02 7.02 0 0 0-2.061-4.994 7.02 7.02 0 0 0-4.936-2.073l-.106-1.16a8.643 8.643 0 0 1 8.593 8.308v.011h-1.33v1.034H22v-1.045a10 10 0 0 0-10-10m2.518 12.37c-1.176 0-2.027.696-2.027 1.745v.018c0 1.149.753 1.472 1.919 1.77.968.247 1.166.411 1.166.734v.017c0 .339-.315.546-.836.546-.662 0-1.207-.283-1.728-.708l-.753.9a3.68 3.68 0 0 0 2.457.926c1.248 0 2.125-.642 2.13-1.794v-.017c0-1.009-.667-1.43-1.841-1.737-1-.256-1.248-.381-1.248-.76v-.018c0-.283.25-.5.738-.5.487 0 .992.211 1.505.567l.661-.96a3.35 3.35 0 0 0-2.143-.729m-6.12.035-2.48 5.83h1.297l.53-1.297h2.447l.53 1.298h1.336l-2.481-5.83zM2 15.287v5.795h1.275v-2.241h2.76v-1.158h-2.76v-1.238h3.133v-1.158zm15.202 0v1.175h1.762v4.615h1.275v-4.615h1.76v-1.175zm-8.233 1.49.77 1.877h-1.54z"/></svg>