<svg xmlns="http://www.w3.org/2000/svg" data-name="Layer 1" viewBox="0 0 24 24"><path d="M19.06 9.4H4.94a1.324 1.324 0 0 0-1.325 1.325v8.825a1.324 1.324 0 0 0 1.324 1.324H19.06a1.324 1.324 0 0 0 1.325-1.324v-8.825a1.324 1.324 0 0 0-1.325-1.324M12 19.77a4.634 4.633 0 1 1 4.634-4.633A4.639 4.638 0 0 1 12 19.771m0-8.427a3.795 3.795 0 1 0 3.795 3.794A3.8 3.8 0 0 0 12 11.343m0 6.552a2.77 2.77 0 0 1-2.684-2.14h1.391a1.437 1.437 0 1 0 .049-1.324H9.337A2.756 2.756 0 1 1 12 17.895M21.875 1.33l-.002.003-.005-.005.003-.003a.56.56 0 0 0-.432-.198.55.55 0 0 0-.427.216l-1.515 1.96a1.3 1.3 0 0 0-.436-.079H4.94a1.3 1.3 0 0 0-.435.08L2.988 1.341a.55.55 0 0 0-.859-.018l.004.004-.006.005-.002-.003a.55.55 0 0 0-.01.687l1.591 2.059a1.3 1.3 0 0 0-.09.472v3.089A1.324 1.324 0 0 0 4.94 8.96h14.121a1.324 1.324 0 0 0 1.324-1.324v-3.09a1.3 1.3 0 0 0-.09-.471l1.59-2.06a.55.55 0 0 0-.01-.686ZM7.753 7.857a1.49 1.49 0 1 1 1.49-1.49 1.49 1.49 0 0 1-1.49 1.49m8.605 0a1.49 1.49 0 1 1 1.489-1.49 1.49 1.49 0 0 1-1.49 1.49" style="stroke-width:1.00004"/></svg>