<svg xmlns="http://www.w3.org/2000/svg" xml:space="preserve" width="24" height="24" viewBox="0 0 24 24"><path d="M5.893 19.557c-1.11-.09-2.641-.597-3.333-1.103-.364-.267-.539-.52-.56-.812a.75.75 0 0 1 .126-.505c.16-.268.4-.37 1.067-.454.608-.077.706-.114.939-.36.35-.37.59-.895 1.256-2.73.942-2.601 1.22-3.206 1.83-3.975.916-1.154 2.316-1.638 4.743-1.64 1.039 0 1.514.096 1.816.369.146.132.202.267.202.486 0 .226-.07.448-.265.837-.332.66-.892 1.953-.86 1.985.007.008.232-.056.5-.14.644-.205.994-.294 1.442-.37 1.203-.204 2.259-.088 2.64.29.26.259.285.633.085 1.265-.192.605-.73 1.778-1.006 2.191-.393.589-.785.795-1.274.67-.235-.06-.663-.277-1.073-.543-.55-.36-1.576-.85-1.874-.898-.16-.026-.193.024-.306.456-.165.634-.684 2.484-.764 2.725-.178.538-.453 1-.802 1.352-.535.539-1.237.827-2.205.905-.373.03-1.947.03-2.324 0z"/><path d="M15.882 4.42c-.96 0-2.022.03-2.708.083a12 12 0 0 0-.751.084c-.332.047-.692.106-1.092.184l-.287.055-.029.005v.006a20 20 0 0 0-1.883.477c-.248.077-.637.207-.806.27l-.036.014v.006q-.193.07-.388.146c-1.106.433-1.976.894-2.438 1.292-.461.397-.659.85-.543 1.248.08.278.225.374.562.375.271 0 .552-.073 1.184-.31a14 14 0 0 1 1.626-.5l.083-.019a14 14 0 0 1 2.64-.377v.004l.126-.006a17 17 0 0 1 1.501.012 8 8 0 0 1 1.985.363c.653.2 1.377.496 1.99.812.533.276.856.482 1.525.972.313.23.472.343.579.41l.012.008.03.018a1 1 0 0 0 .112.058c.079.03.195.058.296.07a1 1 0 0 0 .125.005q.104.005.205-.004a.86.86 0 0 0 .505-.182l.028-.019v-.003l.057-.046c.439-.377.907-1.137 1.378-2.239.368-.862.575-1.57.526-1.803a1 1 0 0 0-.14-.281q-.173-.245-.58-.448c-.302-.15-.64-.259-1.229-.392-.567-.129-1.733-.268-2.65-.318-.4-.021-.939-.031-1.515-.03"/></svg>