<svg xmlns="http://www.w3.org/2000/svg" viewBox="0 0 24 24"><path d="M19.39 3.734 12.504 8.26l2.922 1.872 3.966-6.4zM5.01 4.38l6.465 3.895-2.9 1.858zM2.393 15.4l9.028 5.44c.355.214.803.214 1.158 0l9.028-5.44L12 9.246zm7.385.311c0 .605-.498 1.096-1.111 1.096-.614 0-1.111-.49-1.111-1.095s.497-1.096 1.11-1.096 1.112.49 1.112 1.095m6.666 0c0 .605-.497 1.096-1.11 1.096s-1.112-.49-1.112-1.095.498-1.096 1.111-1.096c.614 0 1.111.49 1.111 1.095m-3.333 3.834c0 .605-.497 1.096-1.111 1.096s-1.111-.49-1.111-1.096c0-.605.497-1.095 1.111-1.095s1.111.49 1.111 1.095M22 4.066v10.28l-5.644-3.616L21.148 3c.468.113.852.52.852 1.066M3.114 3.423C2.534 3.423 2 3.878 2 4.52v9.826l5.644-3.616z"/></svg>