<svg xmlns="http://www.w3.org/2000/svg" xml:space="preserve" width="24" height="24" viewBox="0 0 24 24"><path d="m17.016 2 1.964 7.328-7.279 1.95 2.373-4.142C8.485 4.063 3.536 8.672 4.461 14.194h-2.11C1.19 7.258 8.27 1.417 15.176 5.214Zm4.759 19.414C15.28 14.15 12.657 22 8.658 22c-2.186 0-5.434-1.813-5.693-5.24-.02-.258.044-.691.609-.544 5.664 1.476 5.98-3.037 9.86-3.037 2.556 0 5.671 2.287 8.34 8.235m-8.267-3.146.164-1.464-1.151-.061.12-1.405-1.16-.49c3.532-1.54 5.566.814 7.494 3.442-1.385-1.476-3.622-.932-5.467-.022z" style="fill:#000;fill-opacity:1;fill-rule:evenodd;stroke:none;stroke-width:.0534079"/></svg>