<svg version="1.1" viewBox="0 0 192 192" xmlns="http://www.w3.org/2000/svg"><path d="m61.272 52.409 3.6763 43.258s5.7387-17.841 31.397-40.417c-0.80424-0.80056-5.1769-5.4089-5.1769-11.026 0-6.1796 2.337-11.189 5.3433-11.189 3.0062 0 5.3465 5.0092 5.3465 11.189 0 4.1318-2.3864 7.7337-3.9699 9.672 7.45-6.4082 16.498-13.17 27.473-19.996-6.1143-9.8472-13.562-16.398-29.346-16.398-15.783 0-34.744 15.7-34.744 34.907zm64.09-18.509 3e-3 0.0033c0.0792-0.0596 7e-3 0.0026-8e-3 -0.0032zm3e-3 0.0033-29.019 22.348c24.718 22.046 30.23 39.415 30.23 39.415l4.009-43.424c0-6.7371-1.9161-13.018-5.2193-18.339zm-29.185 58.59c-14.363 0-25.887 11.524-25.887 25.887 0.1672 11.858 3.842 23.55 10.69 33.237 8.6848 12.86 10.687 16.368 11.355 18.372 1.3362-3.3403 2.5078-6.68 3.5099-10.187 1.6702-5.8456 5.175 8.1832 4.0059 14.362 14.363-15.031 22.214-35.074 22.214-55.784 0-14.363-11.524-25.887-25.888-25.887z" opacity=".4"/><path d="m96.176 16.001c-0.16721 0-0.50162-6.48e-4 -0.66882 0.1664-19.708 0.334-35.573 16.533-35.573 36.408l3.6731 43.091c0.1672 0.6681 0.5 1.1704 1.0014 1.3374 0.83512 0.33401 1.8386 0 2.1726-0.83512 0 0 2.5046-7.5178 11.022-18.708 5.3445-7.0147 11.358-13.528 18.039-19.374 23.382 21.211 29.058 37.915 29.058 38.081 0.16721 0.6681 0.83505 1.1678 1.6702 1.1678h1.0047l0.33281-0.1664c0.50081-0.16705 1.0014-0.66938 1.0014-1.3374l3.6763-43.424c0-6.6807-2.0055-13.362-5.5129-19.041v-0.16632l-0.16641-0.1664c-6.6806-10.522-18.206-17.034-30.732-17.034zm0.50242 3.1707c10.522 0.334 20.374 5.5116 26.386 14.197-7.5207 4.7175-14.111 9.3984-19.905 13.952 0.22961-0.98552 0.36561-2.0221 0.36561-3.0957 0-7.3487-3.0082-12.859-7.0167-12.859-4.0084 0-7.0135 5.5103-7.0135 12.859 0 4.7295 2.7088 8.7416 4.4397 10.826-16.189 14.466-24.202 26.922-27.823 33.935l-1.0602-12.2c0.024-0.052 0.048-0.10288 0.056-0.15984 0.1672-0.16704 5.0086-11.19 18.036-25.887 0.50082-0.66808 0.50162-1.5012-0.16641-2.1693-0.66802-0.66809-1.6708-0.66809-2.3389 0-8.3504 9.4992-13.438 17.367-16.121 22.054l-1.5822-18.215c0-18.372 14.866-33.067 33.07-33.067 0.33441 0 0.50162-0.0026 0.66882-0.1696zm-0.1696 15.534c1.5031 0 3.6763 3.8401 3.6763 9.5184-0.31441 2.9864-1.3684 5.9724-3.3012 8.2624-0.1424 0.1216-0.28641 0.244-0.42721 0.36536-2.1398-2.3326-3.4552-5.4808-3.6209-8.628 0-5.6786 2.1699-9.5184 3.6731-9.5184zm28.393 1.5038c2.8393 4.8435 4.1754 10.355 4.1754 15.866l-1.6995 19.132c-4.3111-4.9235-9.0008-9.5776-13.831-13.955-0.66803-0.50104-1.6708-0.50168-2.3389 0.1664-0.50081 0.66808-0.50161 1.6708 0.16641 2.3389 5.3445 4.8435 10.355 9.8528 15.031 15.364 0.16321 0.16296 0.36722 0.2884 0.59042 0.37184l-1.2592 14.161c-3.4995-6.8324-11.157-19.154-27.284-33.808 0.19761-0.20992 0.42081-0.45536 0.66562-0.74704 8.1352-6.9235 16.877-13.223 25.783-18.89zm-41.585 45.594a2.5053 2.5053 0 0 0-2.5052 2.5053 2.5053 2.5053 0 0 0 2.5052 2.5053 2.5053 2.5053 0 0 0 2.5053-2.5053 2.5053 2.5053 0 0 0-2.5053-2.5053zm25.552 0a2.5053 2.5053 0 0 0-2.5053 2.5053 2.5053 2.5053 0 0 0 2.5053 2.5053 2.5053 2.5053 0 0 0 2.5053-2.5053 2.5053 2.5053 0 0 0-2.5053-2.5053zm-12.693 8.8528c-14.864 0-27.057 11.858-27.558 26.722-6.1797-0.33409-12.192-3.0076-16.702-8.0184 0 0 6.4e-4 -0.1664-0.1664-0.1664-0.66808-0.6681-1.6708-0.6681-2.3389 0-0.66808 0.6681-0.66808 1.6708 0 2.3389 4.8435 5.5115 11.858 8.6848 19.207 9.1856 0.1672 5.1775 1.6702 18.204 10.856 31.899 8.6848 13.027 10.688 16.202 11.189 18.039 0.16721 0.50106 0.50082 0.8344 0.83504 1.0014 0.83512 0.33401 1.8385 0 2.1726-0.83504 1.1691-2.8393 2.1725-5.8469 3.0076-8.8528 1.1691 3.8414 1.6689 8.0184 1.1678 12.027v0.33273c0 1.0021 0.83512 1.6702 1.6702 1.6702 0.50082 0 0.83376-0.16505 1.1678-0.49914 14.197-14.698 22.216-34.241 22.717-54.616 7.3488-0.33401 14.194-3.6744 19.038-9.1856 0.83512-0.83505 0.83768-1.8378 0.16961-2.3389-0.66802-0.6681-1.6709-0.6681-2.3389 0-4.1754 4.8435-10.189 7.6841-16.535 8.0184-0.50082-14.865-12.694-26.722-27.558-26.722zm-2.0029 3.5067c-0.33361 6.5136-3.1746 12.695-8.0184 17.038-4.0084 3.6744-9.0192 5.6779-14.197 6.0119 0.668-12.192 10.19-22.047 22.214-23.05zm3.8395 0c12.192 0.83504 21.88 10.858 22.381 23.05-12.192-0.83504-21.88-10.858-22.381-23.05zm-1.6702 7.5158c3.5074 10.355 12.86 17.873 24.218 18.708-0.50081 17.87-7.1805 35.238-18.705 49.1-0.50082-5.1775-1.8392-12.191-4.5115-12.859h-0.49922c-0.83504 0-1.8371 0.33401-2.5052 2.5053-0.83512 2.8393-1.5051 4.8442-2.0062 6.5143-1.5032-2.6722-4.3399-7.0141-9.8512-15.198-6.1797-8.852-9.6896-19.207-10.19-30.063 11.19-0.83504 20.544-8.3528 24.051-18.708zm6.5143 16.202c-1.0022 0-1.6702 0.6681-1.6702 1.6702 0.16721 5.5115-2.337 10.854-7.0135 14.026-0.50082 0.33401-0.83504 1.0027-0.83504 1.5038 0 1.0021 0.66802 1.6702 1.6702 1.6702 0.33441 0.16705 0.66802 6.5e-4 0.83504-0.16641 5.6786-3.8414 8.8504-10.354 8.6832-17.034 0-1.0021-0.66802-1.6702-1.6702-1.6702zm6.8471 5.1769c-1.0022 0-1.6702 0.6681-1.6702 1.6702 0.33362 9.1856-4.1755 17.869-11.691 23.046-0.50082 0.33401-0.83512 1.0027-0.83512 1.5038 0 1.0021 0.66802 1.6702 1.6702 1.6702 0.16721 0 0.50082 1e-3 0.83504-0.33273 8.6848-5.8456 13.695-15.533 13.362-25.887 0-1.0021-0.66802-1.6702-1.6702-1.6702z"/></svg>
