<svg xmlns="http://www.w3.org/2000/svg" width="24" height="24" fill="none" viewBox="0 0 24 24"><path fill="#C4C4C4" fill-opacity=".77" fill-rule="evenodd" d="M12 2c-2.28 0-4.56.87-6.3 2.61a8.91 8.91 0 0 0 0 12.599c.96.96 1.8 1.473 2.699 2.023 1.033.631 2.143 1.31 3.601 2.768 1.458-1.458 2.568-2.137 3.6-2.768h.001c.899-.55 1.739-1.063 2.699-2.023A8.91 8.91 0 0 0 12 2M8.545 6.182c0-.402.326-.727.728-.727h5.454c.402 0 .728.325.728.727v9.454a.727.727 0 0 1-.728.728H9.273a.727.727 0 0 1-.728-.728zm.91 1.09h5.09v7.274h-5.09Z" clip-rule="evenodd" style="opacity:1;fill:#000;fill-opacity:1"/></svg>