<svg xmlns="http://www.w3.org/2000/svg" viewBox="0 0 24 24"><path d="M11.997 3q1.416 0 2.777.346 1.36.347 2.62.995.222.112.266.313a.66.66 0 0 1-.022.38.57.57 0 0 1-.276.268q-.189.09-.41-.023a10.6 10.6 0 0 0-2.423-.938 10.4 10.4 0 0 0-2.532-.313q-1.284 0-2.533.301a9 9 0 0 0-2.378.95.5.5 0 0 1-.708-.2.54.54 0 0 1-.044-.37.46.46 0 0 1 .243-.301 11.4 11.4 0 0 1 2.633-1.05A11 11 0 0 1 11.997 3m-.022 2.19a9.95 9.95 0 0 1 4.424 1.016 9.3 9.3 0 0 1 3.473 2.94q.177.245.11.424a.76.76 0 0 1-.22.313.53.53 0 0 1-.354.1q-.199-.01-.354-.212a7.9 7.9 0 0 0-3.075-2.637 9 9 0 0 0-4.004-.916 8.8 8.8 0 0 0-3.96.916A7.93 7.93 0 0 0 4.96 9.771q-.155.246-.364.268a.46.46 0 0 1-.366-.112.48.48 0 0 1-.221-.302q-.045-.189.11-.39A9.3 9.3 0 0 1 7.55 6.25a9.6 9.6 0 0 1 4.425-1.06m.022 4.267q2.057 0 3.54 1.408 1.481 1.41 1.482 3.465a.56.56 0 0 1-.133.39.48.48 0 0 1-.376.146.5.5 0 0 1-.365-.146.53.53 0 0 1-.144-.39q0-1.631-1.183-2.739-1.185-1.106-2.821-1.106-1.659 0-2.82 1.117-1.162 1.118-1.162 2.75 0 1.788.587 3.04.586 1.25 1.78 2.524a.5.5 0 0 1 .155.358.54.54 0 0 1-.133.357.5.5 0 0 1-.376.157.5.5 0 0 1-.376-.157q-1.305-1.385-1.98-2.85-.675-1.462-.675-3.43 0-2.056 1.46-3.475 1.461-1.419 3.54-1.419m-.022 4.359q.22 0 .365.156a.5.5 0 0 1 .143.358q0 1.72 1.173 2.748 1.172 1.029 2.787 1.028a7 7 0 0 0 .93-.09.53.53 0 0 1 .376.09.44.44 0 0 1 .177.335q.044.224-.077.358a.8.8 0 0 1-.3.2q-.375.113-.685.123a14 14 0 0 1-.42.012q-2.035 0-3.507-1.318-1.47-1.32-1.471-3.486 0-.202.144-.358a.47.47 0 0 1 .365-.156m.022-2.19q1.128 0 1.936.781.807.782.807 1.923 0 .715.53 1.206a1.77 1.77 0 0 0 1.24.492 1.68 1.68 0 0 0 1.228-.492q.498-.491.497-1.206 0-2.55-1.836-4.29-1.835-1.745-4.402-1.745-2.565 0-4.39 1.754-1.826 1.755-1.826 4.303 0 .625.1 1.408.099.781.453 1.765a.58.58 0 0 1-.011.402.52.52 0 0 1-.277.268.55.55 0 0 1-.41-.022.55.55 0 0 1-.276-.313 8.5 8.5 0 0 1-.454-1.676 11 11 0 0 1-.143-1.832q0-2.995 2.124-5.029t5.088-2.033q3.008 0 5.143 2.033t2.135 5.007q0 1.14-.796 1.92-.796.784-1.947.783a2.77 2.77 0 0 1-1.97-.77 2.52 2.52 0 0 1-.818-1.911q0-.716-.508-1.208a1.7 1.7 0 0 0-1.217-.49q-.73 0-1.24.49a1.6 1.6 0 0 0-.508 1.208q0 2.168 1.24 3.62 1.237 1.453 3.34 2.01.22.069.299.236a.57.57 0 0 1 .032.369.8.8 0 0 1-.21.312q-.144.135-.387.09-2.411-.581-3.871-2.347-1.46-1.765-1.46-4.29 0-1.14.808-1.935a2.7 2.7 0 0 1 1.957-.792"/></svg>