<svg xmlns="http://www.w3.org/2000/svg" viewBox="0 0 24 24"><path d="M11.997 3c.944 0 1.87.115 2.777.346.906.231 1.78.563 2.62.995.148.074.237.18.266.313a.66.66 0 0 1-.022.38.573.573 0 0 1-.276.268c-.126.06-.262.052-.41-.023a10.59 10.59 0 0 0-2.423-.938 10.389 10.389 0 0 0-2.532-.313c-.856 0-1.7.1-2.533.301a8.995 8.995 0 0 0-2.378.95.5.5 0 0 1-.708-.2.536.536 0 0 1-.044-.37.463.463 0 0 1 .243-.301 11.4 11.4 0 0 1 2.633-1.05A11.006 11.006 0 0 1 11.997 3m-.022 2.19a9.95 9.95 0 0 1 4.424 1.016 9.272 9.272 0 0 1 3.473 2.94c.118.163.155.305.11.424a.76.76 0 0 1-.22.313.534.534 0 0 1-.354.1c-.133-.007-.25-.078-.354-.212a7.893 7.893 0 0 0-3.075-2.637 9.023 9.023 0 0 0-4.004-.916 8.836 8.836 0 0 0-3.96.916A7.934 7.934 0 0 0 4.96 9.771c-.103.164-.225.253-.364.268a.46.46 0 0 1-.366-.112.476.476 0 0 1-.221-.302c-.03-.126.007-.256.11-.39A9.3 9.3 0 0 1 7.55 6.25a9.6 9.6 0 0 1 4.425-1.06m.022 4.267c1.371 0 2.551.47 3.54 1.408.987.94 1.482 2.094 1.482 3.465a.556.556 0 0 1-.133.39.483.483 0 0 1-.376.146.49.49 0 0 1-.365-.146.529.529 0 0 1-.144-.39c0-1.088-.394-2-1.183-2.739-.79-.737-1.73-1.106-2.821-1.106-1.106 0-2.046.372-2.82 1.117-.775.745-1.162 1.662-1.162 2.75 0 1.192.195 2.205.587 3.04.39.833.984 1.675 1.78 2.524a.495.495 0 0 1 .155.358.537.537 0 0 1-.133.357.51.51 0 0 1-.376.157.51.51 0 0 1-.376-.157c-.87-.923-1.53-1.873-1.98-2.85-.45-.975-.675-2.118-.675-3.43 0-1.37.487-2.53 1.46-3.475.974-.946 2.154-1.419 3.54-1.419m-.022 4.359c.147 0 .269.052.365.156a.514.514 0 0 1 .143.358c0 1.147.391 2.063 1.173 2.748.782.686 1.71 1.028 2.787 1.028a6.63 6.63 0 0 0 .93-.09.53.53 0 0 1 .376.09.444.444 0 0 1 .177.335c.03.15.003.268-.077.358a.764.764 0 0 1-.3.2c-.25.076-.479.116-.685.123a13.791 13.791 0 0 1-.42.012c-1.357 0-2.526-.44-3.507-1.318-.98-.88-1.471-2.041-1.471-3.486 0-.135.048-.254.144-.358a.473.473 0 0 1 .365-.156m.022-2.19c.752 0 1.397.26 1.936.781.538.521.807 1.162.807 1.923 0 .476.177.879.53 1.206a1.77 1.77 0 0 0 1.24.492 1.68 1.68 0 0 0 1.228-.492c.332-.327.497-.73.497-1.206 0-1.7-.612-3.13-1.836-4.29-1.224-1.164-2.69-1.745-4.402-1.745-1.71 0-3.174.585-4.39 1.754-1.218 1.17-1.826 2.604-1.826 4.303 0 .417.033.886.1 1.408.066.52.217 1.11.453 1.765a.577.577 0 0 1-.011.402.518.518 0 0 1-.277.268.55.55 0 0 1-.41-.022.553.553 0 0 1-.276-.313 8.526 8.526 0 0 1-.454-1.676 11.283 11.283 0 0 1-.143-1.832c0-1.997.708-3.673 2.124-5.029C8.303 7.967 9.999 7.29 11.975 7.29c2.005 0 3.72.677 5.143 2.033 1.423 1.356 2.135 3.024 2.135 5.007 0 .76-.266 1.4-.796 1.92-.53.523-1.18.783-1.947.783a2.77 2.77 0 0 1-1.97-.77 2.523 2.523 0 0 1-.818-1.911c0-.477-.17-.88-.508-1.208a1.69 1.69 0 0 0-1.217-.49c-.487 0-.9.163-1.24.49a1.61 1.61 0 0 0-.508 1.208c0 1.445.413 2.652 1.24 3.62.825.968 1.938 1.639 3.34 2.01.147.046.247.124.299.236a.567.567 0 0 1 .032.369.808.808 0 0 1-.21.312c-.096.09-.225.12-.387.09-1.607-.387-2.898-1.17-3.871-2.347-.974-1.177-1.46-2.607-1.46-4.29 0-.76.269-1.405.808-1.935a2.69 2.69 0 0 1 1.957-.792"/></svg>