<svg xmlns="http://www.w3.org/2000/svg" viewBox="0 0 24 24"><path d="M14.092 3.001c-.937.569-2.35 1.798-2.834 4.21a4.5 4.5 0 0 0-1.657.42.215.215 0 0 0-.106.27.21.21 0 0 0 .266.128 4.2 4.2 0 0 1 1.717-.394 4.15 4.15 0 0 1 2.227.622 4.3 4.3 0 0 1 1.463 1.512c-.446-.313-1.248-.623-2.018-.489 3.008 1.503 2.202 6.683-1.967 6.487a3.55 3.55 0 0 1-1.477-.378c-1.023-.526-1.866-1.522-1.97-2.734 0 0 .386-1.44 2.764-1.44.257 0 .99-.718 1.004-.926-.003-.069-1.458-.645-2.025-1.204-.303-.298-.447-.445-.575-.552a2 2 0 0 0-.216-.163 3.9 3.9 0 0 1-.025-2.046c-.86.391-1.527 1.012-2.012 1.557h-.004c-.331-.42-.309-1.805-.29-2.094-.006-.03-.51.246-1.095.846a7.4 7.4 0 0 0-.782.937 7.1 7.1 0 0 0-1.122 2.535q-.195.886-.232 1.795a8.366 8.366 0 0 0 7.235 8.25v-.822a3.65 3.65 0 0 1 3.634-3.633h4.94a8.4 8.4 0 0 0 .8-2.38c.37-2.826-.503-4.4-.503-4.527-.366-.875-1.103-1.818-1.68-2.116.41.8.7 1.661.848 2.55-.945-2.358-2.55-3.306-3.86-5.375-.21-.333-.345-.555-.413-.825-.005-.02-.018-.024-.035-.02zm-.097 13.652a2.676 2.676 0 0 0-2.675 2.676v1.308c0 .201.164.363.364.363h6.514a2.676 2.676 0 0 0 2.676-2.675v-1.308a.363.363 0 0 0-.364-.364zm-1.088 1.266h.352v.844l.682-.844h.416l-.553.677.575 1.139h-.389l-.443-.898-.288.353v.545h-.352zm1.665 0h.353v1.475h.837v.34h-1.19zm2.046 0h.345l.687 1.816h-.362l-.118-.33h-.76l-.119.33h-.36zm1.227 0h.737c.417 0 .666.27.666.615a.59.59 0 0 1-.318.536l.357.665h-.392l-.292-.573h-.406v.573h-.352zm.352.323v.6h.357c.23 0 .339-.145.339-.306 0-.18-.116-.294-.34-.294zm-1.405.123-.263.721h.523z"/></svg>