<svg xmlns="http://www.w3.org/2000/svg" viewBox="0 0 24 24"><path d="M12.006 3.055a3.5 3.5 0 0 0-2.216.79A70 70 0 0 0 3.796 9.8a3.44 3.44 0 0 0 0 4.403q.458.511.925 1.012 0 .003.003.004l.02.024.225.239.01.01q.154.166.312.332.224.235.45.467l.218.227v.001l.277.279q.214.218.43.433l.02.02.067.066.028.028q.32.316.644.63l.003.001.08.079q.291.279.584.554l.01.009.237.222q.247.229.495.455l.217.199.011.01q.363.328.73.652a3.36 3.36 0 0 0 2.131.786h.007l.075.003h.004a3 3 0 0 0 .291-.009h.011l.029-.004a3 3 0 0 0 .294-.038h.002a3 3 0 0 0 .248-.053l.047-.013.005-.002h.002a3 3 0 0 0 .224-.07l.06-.02a3.4 3.4 0 0 0 .454-.207l.007-.005.107-.062.011-.007.135-.086.007-.005a3 3 0 0 0 .229-.169l.06-.046a74 74 0 0 0 1.941-1.804l.01-.01.002-.001a70 70 0 0 0 1.127-1.108.99.99 0 0 0-.077-1.366l-2.976-2.758a3.38 3.38 0 0 0 1.143-2.683 3.454 3.454 0 0 0-3.242-3.273 3.44 3.44 0 0 0-2.557.93 3.405 3.405 0 0 0 .068 5.027l-1.076.968a.86.86 0 0 0-.053 1.207.874.874 0 0 0 1.214.077l1.19-1.074.032-.03a1.637 1.637 0 0 0-.097-2.397 1.69 1.69 0 0 1-.503-1.877c.246-.668.886-1.113 1.603-1.113s1.358.445 1.604 1.113a1.69 1.69 0 0 1-.504 1.878 1.66 1.66 0 0 0-.59 1.19 1.62 1.62 0 0 0 .475 1.207l.02.02 2.5 2.326q-.573.565-1.174 1.128h-.001l-.06.056q-.494.462-1.011.929l-.004.003q-.081.075-.164.149l-.014.01a1.78 1.78 0 0 1-2.113-.01 69 69 0 0 1-3.598-3.408l-.033-.033-.196-.2-.29-.301-.11-.116q-.15-.155-.3-.313a75 75 0 0 1-1.327-1.443 2 2 0 0 1-.148-.234l-.002-.003-.017-.037a1.8 1.8 0 0 1-.138-.396v-.005a1.76 1.76 0 0 1 .312-1.43l-.049.057c.015-.022.026-.046.042-.067a68 68 0 0 1 5.854-5.814 1.79 1.79 0 0 1 2.128 0 68 68 0 0 1 5.853 5.814q.014.02.027.043l-.036-.034c.376.5.451 1.149.227 1.709l-.003.008-.025.059-.002.004a2 2 0 0 1-.168.292l-.002.002-.027.039q-.225.252-.45.5l-.025.026a15 15 0 0 1-.417.442l-.008.01a.86.86 0 0 0-.19.84.872.872 0 0 0 1.466.327l.008-.01q.22-.235.442-.48l.009-.01.028-.031.314-.355.109-.123.012-.017a1 1 0 0 0 .086-.113 3.44 3.44 0 0 0-.085-4.264 70 70 0 0 0-5.993-5.953 3.5 3.5 0 0 0-2.217-.79"/></svg>