<svg xmlns="http://www.w3.org/2000/svg" viewBox="0 0 24 24"><path d="M12.187 3.64c-.87.529-2.183 1.67-2.632 3.911a4.1 4.1 0 0 0-1.54.39.2.2 0 0 0-.098.25c.035.1.145.154.246.12a3.9 3.9 0 0 1 1.596-.366 3.85 3.85 0 0 1 2.069.578 4 4 0 0 1 1.358 1.404c-.413-.29-1.159-.578-1.874-.454 2.795 1.397 2.045 6.209-1.828 6.026a3.3 3.3 0 0 1-1.371-.35c-.951-.489-1.734-1.415-1.831-2.54 0 0 .359-1.338 2.569-1.338.238 0 .919-.667.932-.86-.003-.065-1.354-.6-1.881-1.119-.282-.277-.416-.413-.534-.513a2 2 0 0 0-.201-.152 3.6 3.6 0 0 1-.023-1.9c-.798.363-1.42.94-1.87 1.446h-.003c-.308-.39-.287-1.676-.27-1.945-.005-.028-.473.228-1.017.786a7 7 0 0 0-.727.87 6.6 6.6 0 0 0-1.041 2.355A9.7 9.7 0 0 0 2 11.907a7.77 7.77 0 0 0 6.722 7.664v-.763a3.39 3.39 0 0 1 3.375-3.376h4.589a7.8 7.8 0 0 0 .743-2.21c.344-2.626-.467-4.087-.467-4.206-.34-.813-1.024-1.689-1.561-1.966.382.744.65 1.543.788 2.37-.877-2.191-2.368-3.072-3.586-4.994-.195-.31-.32-.515-.383-.766-.005-.02-.017-.023-.033-.02m-.09 12.682a2.487 2.487 0 0 0-2.485 2.486v1.215c0 .187.152.338.338.338h9.563A2.487 2.487 0 0 0 22 17.875V16.66a.34.34 0 0 0-.34-.338zm2.233 1.184a.84.84 0 0 1 .702.341l-.268.187a.5.5 0 0 0-.434-.227.53.53 0 0 0-.53.542.52.52 0 0 0 .534.537c.25 0 .414-.14.468-.356h-.521v-.296h.863v.136c0 .438-.312.821-.805.821a.83.83 0 0 1-.855-.842c0-.472.351-.843.846-.843m-3.097.021h.34l.718 1.117v-1.117h.306v1.642h-.314l-.741-1.153v1.153h-.309zm1.67 0h.321v1.642h-.32zm2.486 0h.319v.662h.663v-.662h.317v1.642h-.317v-.67h-.663v.67h-.319zm1.544 0h1.22v.293h-.451v1.349h-.312v-1.35h-.457zm1.466 0h.319v1.333h.757v.309H18.4zm.89 0h.348l.37.652.371-.652h.347l-.56.956v.686h-.319v-.693z"/></svg>