<svg xmlns="http://www.w3.org/2000/svg" viewBox="0 0 24 24"><path d="M14.475 2.001c-1.041.632-2.61 1.998-3.148 4.678a5 5 0 0 0-1.842.467.24.24 0 0 0-.118.299c.043.12.174.183.295.142a4.7 4.7 0 0 1 1.909-.437 4.6 4.6 0 0 1 2.474.691 4.76 4.76 0 0 1 1.625 1.68c-.495-.348-1.386-.692-2.242-.543 3.343 1.67 2.446 7.425-2.186 7.207a3.9 3.9 0 0 1-1.64-.42c-1.137-.584-2.074-1.691-2.19-3.037 0 0 .43-1.6 3.073-1.6.285 0 1.099-.798 1.115-1.029-.004-.077-1.62-.717-2.25-1.338-.337-.331-.497-.494-.639-.613a3 3 0 0 0-.24-.182 4.3 4.3 0 0 1-.027-2.273c-.955.435-1.698 1.124-2.237 1.73h-.004c-.368-.466-.343-2.005-.322-2.326-.007-.034-.566.274-1.217.941a8 8 0 0 0-.869 1.041 7.9 7.9 0 0 0-1.246 2.815 11.6 11.6 0 0 0-.258 1.994 9.296 9.296 0 0 0 8.04 9.166v-.912a4.053 4.053 0 0 1 4.037-4.037h5.488a9.3 9.3 0 0 0 .889-2.644c.412-3.14-.56-4.888-.56-5.03-.406-.972-1.224-2.019-1.866-2.351.457.89.778 1.846.943 2.834-1.05-2.62-2.833-3.674-4.289-5.973-.234-.37-.383-.616-.459-.916-.005-.023-.02-.028-.039-.024m-.107 15.168a2.974 2.974 0 0 0-2.973 2.973v1.453c0 .224.182.405.404.405h6.938a2.974 2.974 0 0 0 2.973-2.973v-1.453a.405.405 0 0 0-.405-.405zm-1.186 1.416h.832c.448 0 .7.202.7.563a.45.45 0 0 1-.233.41.47.47 0 0 1 .264.445c0 .398-.278.598-.725.598h-.838zm1.934 0h1.355v.368h-.965v.453h.965v.367h-.965v.457h.965v.371h-1.355zm1.69 0h1.497v.36h-.554V20.6h-.385v-1.656h-.559zm2.157 0h.383l.762 2.016h-.4l-.131-.367h-.842l-.133.367h-.4zm-5.398.346v.465h.465c.207 0 .295-.1.295-.238 0-.14-.098-.227-.301-.227zm5.592.149-.293.8h.582zm-5.592.668v.502h.46c.213 0 .325-.098.325-.254 0-.157-.094-.248-.34-.248z"/></svg>