<svg xmlns="http://www.w3.org/2000/svg" viewBox="0 0 24 24"><path d="M12.006 3.055a3.49 3.49 0 0 0-2.216.79A70.11 70.11 0 0 0 3.796 9.8a3.441 3.441 0 0 0 0 4.403c.305.341.614.678.925 1.012 0 .002.002.003.003.004l.02.024.225.239.01.01c.103.11.207.222.312.332.149.157.3.312.45.467l.218.227v.001l.277.279c.143.145.286.29.43.433l.02.02.067.066.028.028c.213.211.428.42.644.63l.003.001.08.079c.194.186.389.37.584.554l.01.009.237.222c.164.153.33.304.495.455l.217.199.011.01c.242.218.485.436.73.652a3.36 3.36 0 0 0 2.131.786h.007l.075.003h.004a3.4 3.4 0 0 0 .291-.009h.011l.029-.004a3.393 3.393 0 0 0 .294-.038h.002a3.39 3.39 0 0 0 .248-.053l.047-.013.005-.002h.002a3.368 3.368 0 0 0 .224-.07l.06-.02a3.368 3.368 0 0 0 .454-.207c.002-.003.005-.004.007-.005l.107-.062.011-.007a3.37 3.37 0 0 0 .135-.086l.007-.005a3.345 3.345 0 0 0 .229-.169l.06-.046a73.96 73.96 0 0 0 1.941-1.804l.01-.01.002-.001a69.58 69.58 0 0 0 1.127-1.108.99.99 0 0 0-.077-1.366l-2.976-2.758a3.383 3.383 0 0 0 1.143-2.683 3.454 3.454 0 0 0-3.242-3.273 3.435 3.435 0 0 0-2.557.93 3.405 3.405 0 0 0 .068 5.027l-1.076.968a.86.86 0 0 0-.053 1.207.874.874 0 0 0 1.214.077l1.19-1.074.032-.03a1.637 1.637 0 0 0-.097-2.397 1.688 1.688 0 0 1-.503-1.877c.246-.668.886-1.113 1.603-1.113s1.358.445 1.604 1.113a1.688 1.688 0 0 1-.504 1.878 1.66 1.66 0 0 0-.59 1.19 1.615 1.615 0 0 0 .475 1.207l.02.02 2.5 2.326c-.383.377-.773.752-1.174 1.128h-.001l-.06.056c-.328.308-.667.617-1.011.929l-.004.003c-.055.05-.108.1-.164.149l-.014.01a1.778 1.778 0 0 1-2.113-.01 68.982 68.982 0 0 1-3.598-3.408l-.033-.033-.196-.2-.29-.301a77.518 77.518 0 0 1-.11-.116c-.1-.104-.2-.207-.3-.313a74.665 74.665 0 0 1-1.327-1.443 1.769 1.769 0 0 1-.148-.234l-.002-.003c-.006-.012-.01-.025-.017-.037a1.747 1.747 0 0 1-.138-.396v-.005a1.76 1.76 0 0 1 .312-1.43l-.049.057c.015-.022.026-.046.042-.067a68.316 68.316 0 0 1 5.854-5.814 1.786 1.786 0 0 1 2.128 0 68.316 68.316 0 0 1 5.853 5.814c.01.013.017.029.027.043l-.036-.034c.376.5.451 1.149.227 1.709l-.003.008-.025.059-.002.004a1.75 1.75 0 0 1-.168.292l-.002.002-.027.039c-.15.168-.3.335-.45.5l-.025.026a14.8 14.8 0 0 1-.417.442l-.008.01a.857.857 0 0 0-.19.84.872.872 0 0 0 1.466.327l.008-.01c.147-.157.294-.317.442-.48l.009-.01.028-.031a36.1 36.1 0 0 0 .314-.355l.109-.123.012-.017a1.25 1.25 0 0 0 .086-.113 3.439 3.439 0 0 0-.085-4.264 70.109 70.109 0 0 0-5.993-5.953 3.49 3.49 0 0 0-2.217-.79z"/></svg>