<svg xmlns="http://www.w3.org/2000/svg" width="24" height="24" fill="none" viewBox="0 0 24 24"><path fill="#FFF1C0" d="M14.94 17A2.94 2.94 0 0 0 12 19.94v1.436c0 .221.18.4.4.4h6.86a2.94 2.94 0 0 0 2.94-2.94V17.4a.4.4 0 0 0-.4-.4zm-1.173 1.4h.824c.443 0 .69.2.69.557a.44.44 0 0 1-.229.404c.167.085.26.235.26.442 0 .393-.273.59-.715.59h-.83zm1.913 0h1.34v.363h-.955v.448h.954v.363h-.954v.453h.954v.366H15.68zm1.67 0h1.481v.355h-.548v1.638h-.38v-1.638h-.553zm2.134 0h.379l.753 1.993h-.396l-.13-.364h-.833l-.131.364h-.396zm-5.338.342v.46h.459c.205 0 .292-.1.292-.237 0-.139-.096-.223-.297-.223zm5.529.147-.29.791h.576zm-5.529.66v.497h.456c.21 0 .32-.096.32-.251s-.093-.246-.336-.246z"/><path fill="#FFF1C0" d="M20.352 8.372c-.392-.962-1.185-2.001-1.808-2.33.507 1.016.8 2.034.912 2.794l.002.016c-.608-1.55-1.47-2.547-2.365-3.584-.605-.7-1.225-1.418-1.793-2.335l-.002-.003c-.07-.114-.141-.229-.21-.35a2.864 2.864 0 0 1-.1-.19 1.696 1.696 0 0 1-.14-.38.023.023 0 0 0-.015-.009.03.03 0 0 0-.017 0l-.004.003-.004.002-.003.001.004-.005c-2.004 1.2-2.834 2.696-3.048 4.032a4.722 4.722 0 0 0-1.786.466l.454.88c.433-.21.692-.226 1.12-.254l.175-.012h.016c.012-.002.024-.002.037-.003a4.321 4.321 0 0 1 1.559.188l.03.01a4.403 4.403 0 0 1 .477.181c.062.029.123.058.184.089l.002.001c.027.014.054.027.08.042a4.53 4.53 0 0 1 .287.167 4.669 4.669 0 0 1 1.576 1.665c-.481-.345-1.343-.686-2.173-.539 3.242 1.656 2.371 7.356-2.12 7.141a3.929 3.929 0 0 1-1.173-.23 4.893 4.893 0 0 1-.417-.186c-1.1-.58-2.01-1.679-2.123-3.012 0 0 .416-1.584 2.98-1.584.276 0 1.068-.79 1.083-1.018-.001-.025-.17-.11-.418-.234-.51-.256-1.354-.68-1.766-1.094l-.096-.097c-.263-.264-.4-.403-.523-.51a2.695 2.695 0 0 0-.233-.18 4.354 4.354 0 0 1-.026-2.25c-.925.431-1.645 1.112-2.169 1.713h-.004c-.357-.462-.332-1.987-.312-2.305-.004-.02-.266.139-.3.163a6.61 6.61 0 0 0-.881.77c-.308.32-.59.664-.842 1.031a7.854 7.854 0 0 0-1.21 2.79v.002c-.007.034-.087.399-.146.846l-.029.216a6.3 6.3 0 0 0-.053.528l-.001.016-.001.01-.018.307v.024L3 11.795c0 4.734 3.5 8.634 8 9.148V19.94A3.94 3.94 0 0 1 14.94 16h5.091a9.277 9.277 0 0 0 .864-2.647c.011-.084.02-.168.03-.253l.011-.102c.18-1.579-.02-3.238-.584-4.626"/></svg>