<svg xmlns="http://www.w3.org/2000/svg" viewBox="0 0 24 24"><path d="M13.167 2.836c-.954.579-2.393 1.83-2.886 4.287a4.5 4.5 0 0 0-1.688.428.22.22 0 0 0-.107.274c.04.11.16.168.27.13a4.3 4.3 0 0 1 1.749-.4 4.2 4.2 0 0 1 2.268.633 4.4 4.4 0 0 1 1.49 1.54c-.454-.319-1.27-.634-2.055-.498 3.064 1.531 2.242 6.806-2.004 6.606a3.6 3.6 0 0 1-1.503-.385c-1.043-.535-1.901-1.55-2.007-2.783 0 0 .393-1.467 2.816-1.467.26 0 1.007-.731 1.022-.943-.004-.07-1.485-.657-2.062-1.226-.31-.304-.456-.453-.586-.563a3 3 0 0 0-.22-.166 3.95 3.95 0 0 1-.025-2.084c-.875.399-1.556 1.03-2.05 1.586h-.003c-.338-.427-.315-1.838-.296-2.132-.006-.031-.518.25-1.115.861a7.6 7.6 0 0 0-.797.954 7.2 7.2 0 0 0-1.142 2.582A10.6 10.6 0 0 0 2 11.898a8.52 8.52 0 0 0 7.368 8.401v-.836a3.715 3.715 0 0 1 3.7-3.7H18.1a8.5 8.5 0 0 0 .815-2.424c.377-2.878-.512-4.48-.512-4.61-.373-.89-1.123-1.85-1.712-2.155.419.816.714 1.692.865 2.597-.963-2.401-2.597-3.367-3.932-5.474-.214-.34-.35-.565-.42-.84q-.009-.029-.036-.021zm-.098 13.903a2.726 2.726 0 0 0-2.725 2.724v1.332c0 .206.167.37.37.37h8.56A2.726 2.726 0 0 0 22 18.442V17.11a.37.37 0 0 0-.373-.37zm6.61 1.289a.86.86 0 0 1 .7.313l-.282.22a.47.47 0 0 0-.42-.224c-.195 0-.28.097-.28.215 0 .145.18.172.404.224.276.059.593.148.593.537 0 .308-.258.562-.659.562-.386 0-.623-.152-.793-.369l.303-.24a.55.55 0 0 0 .492.283c.194 0 .295-.093.295-.224 0-.167-.172-.203-.42-.26-.268-.056-.568-.142-.568-.506 0-.295.262-.531.636-.531zm-5.41.003a.922.922 0 1 1 .005 1.844.922.922 0 0 1-.004-1.844m2.08 0c.345 0 .638.18.798.448l-.307.191a.53.53 0 0 0-.488-.3.567.567 0 0 0-.571.583c0 .318.238.578.565.578a.54.54 0 0 0 .51-.333l.317.17a.9.9 0 0 1-.823.507.9.9 0 0 1-.922-.922c0-.524.4-.922.922-.922zm-4.4.023h1.157v.33H12.3v.417h.807v.324H12.3v.727h-.35zm5.42 0h.352v1.114c0 .221.143.372.355.372.211 0 .358-.15.358-.372v-1.114h.354v1.105c0 .448-.287.716-.712.716-.426 0-.707-.268-.707-.716zm-3.1.316a.57.57 0 0 0-.567.583.57.57 0 1 0 1.14 0 .574.574 0 0 0-.572-.583"/></svg>