<svg xmlns="http://www.w3.org/2000/svg" width="24" height="24" fill="none" viewBox="0 0 24 24"><path fill="#FFF1C0" d="M18.544 6.042c.623.329 1.416 1.368 1.808 2.33.564 1.388.763 3.047.584 4.626l-.04.355C20.17 17.695 16.47 21 12.011 21 7.035 21 3 16.879 3 11.795v-.047l.019-.306.002-.027a6.3 6.3 0 0 1 .053-.528c.009-.072.018-.144.029-.216.061-.463.145-.838.147-.849a7.854 7.854 0 0 1 1.209-2.789c.252-.367.534-.711.842-1.03.27-.284.565-.541.88-.771.035-.024.297-.183.301-.163-.02.318-.045 1.843.312 2.305h.004c.524-.6 1.244-1.282 2.17-1.712a4.354 4.354 0 0 0 .025 2.25c.08.055.159.115.233.18.138.119.293.277.62.606.611.616 2.18 1.253 2.183 1.328-.015.229-.807 1.018-1.084 1.018-2.563 0-2.979 1.584-2.979 1.584.114 1.333 1.023 2.431 2.123 3.012.05.027.101.05.152.074.087.04.176.077.265.111.377.137.773.214 1.173.231 4.491.215 5.362-5.485 2.12-7.14.83-.148 1.692.193 2.173.538a4.669 4.669 0 0 0-1.862-1.832l-.081-.042-.002-.001a4.41 4.41 0 0 0-.184-.089l-.12-.05a4.424 4.424 0 0 0-.358-.131l-.073-.024a4.441 4.441 0 0 0-1.515-.174l-.053.003c-.54.039-.806.03-1.295.266l-.454-.88a4.722 4.722 0 0 1 1.786-.466c.214-1.336 1.044-2.833 3.048-4.032l-.004.005.007-.003.005-.003a.03.03 0 0 1 .016 0 .024.024 0 0 1 .015.009 1.696 1.696 0 0 0 .14.38c.031.065.064.128.1.19.069.121.14.236.21.35l.002.003c1.411 2.278 3.139 3.324 4.158 5.919l-.002-.016c-.112-.76-.405-1.779-.912-2.794"/></svg>