<svg xmlns="http://www.w3.org/2000/svg" width="192" height="192" viewBox="0 0 192 192"><path d="M166.28 77.163a599.925 599.925 0 0 0-51.271-50.923c-11.009-9.021-26.914-9.021-37.923 0a599.855 599.855 0 0 0-51.271 50.942 29.439 29.439 0 0 0 0 37.666 599.712 599.712 0 0 0 51.29 50.923 28.76 28.76 0 0 0 18.952 6.753 28.874 28.874 0 0 0 19.029-6.81c9.437-8.456 18.047-16.623 26.348-25.002a8.471 8.471 0 0 0-.655-11.688l-25.462-23.587a28.944 28.944 0 0 0 9.784-22.955c-.714-14.988-12.658-27.048-27.735-28.006a29.394 29.394 0 0 0-21.88 7.957A29.133 29.133 0 0 0 66.28 84.06a29.146 29.146 0 0 0 9.784 21.376l-9.206 8.283a7.348 7.348 0 0 0-.446 10.326c2.705 2.988 7.32 3.28 10.384.655l10.189-9.182.27-.25a13.798 13.798 0 0 0 4.063-10.386 14.003 14.003 0 0 0-4.892-10.12 14.437 14.437 0 0 1-4.305-16.061c2.104-5.72 7.582-9.526 13.713-9.526s11.61 3.805 13.713 9.526a14.438 14.438 0 0 1-4.304 16.062 14.102 14.102 0 0 0-5.046 10.177 13.818 13.818 0 0 0 4.063 10.33l.174.172 21.379 19.895c-6.549 6.447-13.367 12.836-20.628 19.378a15.28 15.28 0 0 1-18.22 0 589.82 589.82 0 0 1-50.077-49.737 15.048 15.048 0 0 1 0-18.096 584.405 584.405 0 0 1 50.077-49.737 15.28 15.28 0 0 1 18.2 0 584.55 584.55 0 0 1 50.078 49.737 15.01 15.01 0 0 1 0 18.077c-2.562 2.87-5.123 5.739-7.704 8.36-2.777 2.995-2.583 7.658.433 10.416s7.711 2.564 10.487-.43c2.542-2.736 5.162-5.606 7.704-8.552a29.438 29.438 0 0 0 .116-37.589z"/></svg>