<svg xmlns="http://www.w3.org/2000/svg" viewBox="0 0 24 24"><path d="M4.294 19.207c.026-2.827.06-4.02.176-6.14.28-5.123.829-8.71 1.621-10.608.1-.238.2-.438.221-.444.022-.007.793 1.043 1.714 2.332L9.699 6.69l.24-.022c1.403-.132 3.122-.134 4.028-.007.43.06.464.06.527-.008.037-.04.806-1.103 1.708-2.363C17.105 3.03 17.851 2 17.86 2c.034 0 .234.427.359.765.631 1.711 1.07 4.425 1.382 8.544.161 2.128.172 3.07.043 3.787-.408 2.262-1.526 3.73-3.163 4.153l-.353.091.02.19c.032.32.183 2.274.183 2.375v.094H4.268zm8.684-3.044.87-1.13-.893-.011a86 86 0 0 0-1.784 0l-.892.011.878 1.142c.484.627.895 1.135.915 1.129s.428-.52.906-1.141m3.541-2.418c.138-.04.411-.15.607-.246.285-.14.426-.246.713-.533.575-.578.833-1.2.834-2.01a2.7 2.7 0 0 0-.304-1.3c-.223-.46-.735-.99-1.182-1.222a2.95 2.95 0 0 0-2.453-.13 2.89 2.89 0 0 0-1.653 1.792c-.155.47-.163 1.191-.02 1.652.116.37.216.577.409.848l.141.199h-3.096l.141-.199a2.6 2.6 0 0 0 .409-.848c.144-.46.135-1.181-.02-1.652a2.89 2.89 0 0 0-2.15-1.947 3.35 3.35 0 0 0-1.338.043 2.6 2.6 0 0 0-1.247.732c-.584.585-.814 1.103-.847 1.904-.023.59.044.917.292 1.423.14.284.247.428.532.713.482.48.98.737 1.614.831.138.02 2.076.034 4.308.03 3.713-.007 4.08-.013 4.31-.08m-8.78-1.037a1.87 1.87 0 0 1-1.252-1.476c-.132-.773.291-1.567 1.03-1.932.918-.454 2.056-.07 2.47.896.106.248.151.3.156.758.003.33-.036.43-.16.764-.192.522-.683.881-1.198 1.019a2 2 0 0 1-1.045-.029zm7.583.026a1.87 1.87 0 0 1-1.18-1.016c-.122-.275-.172-.327-.162-.764.01-.453.043-.498.16-.758a1.82 1.82 0 0 1 2.47-.896c.739.365 1.163 1.16 1.03 1.932-.156.913-.923 1.57-1.82 1.56a2.5 2.5 0 0 1-.497-.058zM7.377 7.101a50 50 0 0 0 1.119-.223c.01-.009-1.748-2.54-1.843-2.655-.037-.044-.113.302-.329 1.485a93 93 0 0 0-.283 1.599c-.002.038.032.048.112.032zm10.794.223c0-.017-.129-.736-.285-1.598l-.283-1.566-.108.144c-.423.566-1.788 2.572-1.757 2.582.057.019 2.322.463 2.382.466.029.002.052-.01.051-.028"/></svg>