<svg xmlns="http://www.w3.org/2000/svg" width="24" height="24" fill="none" viewBox="0 0 24 24"><path fill="#000" d="M15.687 10.563s.716.809.97 1.387c-.33 1.169-1.122 3.316-2.919 5.764-2.744 3.738-4.508 3.27-4.561 3.265-.207-.02-2.005-.124-2.359-5.406-.229-3.426.548-5.724 1.122-6.916.704-.365 1.692-.515 2.04-.56-.033.199-.05.403-.05.61 0 1.91 1.267 3.61 3.073 3.61 1.115 0 2.093-.852 2.683-1.753z"/><path fill="#000" d="M17.743 11.73c.285.306.67-.318.67-.318s1.02-1.413-.349-3.747c-.95-1.226-1.99-1.562-3.56-1.221-.123-.072-.208-.088-.236-.096.033-.62 1.184-2.998 2.509-3.797.269-.297.056-.315-.013-.332-2.02 1.09-3.035 3.929-3.035 3.929s-.12-.073-.127-.074c-.494-1-2.003-2.091-3.594-1.735-.91.204-1.806.914-2.283 1.49-.432.52-.614 1.173-.63 1.539-.016.357.298.35.422.32 1.474-.363 1.94-.529 3.34-.594.008.397-.515 3.465 1.43 4.13 1.56.533 2.871-1.17 3.284-1.954 1.268 1.167 1.886 2.152 2.172 2.46"/></svg>