<svg xmlns="http://www.w3.org/2000/svg" viewBox="0 0 24 24"><path d="m12.685 4.716-2.799 6.02L22 4.716zm3.863 6.647-3.003.262q.045.372 0 .744l3.003.262q.066-.611 0-1.268m-4.519 3.921 1.939 2.303c.48-.408.918-.889 1.283-1.4l-2.464-1.734a4.5 4.5 0 0 1-.758.831M8.545 7.791a4.4 4.4 0 0 1 1.516 0l1.297-2.784a7.3 7.3 0 0 0-3.338-.19c-2.872.51-5.058 2.654-5.772 5.307l2.915.787a4.3 4.3 0 0 1 3.382-3.12m1.487 8.426a3.6 3.6 0 0 1-1.108.044l-.262 3.003a7 7 0 0 0 1.895-.088l.626-.13-.787-2.916c-.116.029-.248.058-.364.087m-4.009-1.472-2.318 1.939a7.4 7.4 0 0 0 2.508 1.924l1.268-2.726a4.4 4.4 0 0 1-1.458-1.137m-.947-1.997a3.6 3.6 0 0 1-.044-1.108l-3.003-.277a7 7 0 0 0 .087 1.895 7.6 7.6 0 0 0 .569 1.822l2.726-1.268a5 5 0 0 1-.335-1.064"/></svg>