<svg version="1.1" viewBox="0 0 192 192" xmlns="http://www.w3.org/2000/svg"><path d="m96.024 19c-40.966 0-74.324 33.136-74.632 73.989h16.878c0.31058-31.552 26.098-57.119 57.754-57.119 31.656 0 57.451 25.568 57.762 57.119h16.878c-0.31041-40.853-33.675-73.989-74.64-73.989zm0 23.469c-28.205 0-51.146 22.921-51.146 51.097v5.257h-23.543v33.341c0 22.516 18.337 40.836 40.876 40.836h67.471c22.539 0 40.876-18.321 40.876-40.836v-33.341h-23.38v-5.257c0-28.175-22.95-51.097-51.154-51.097zm0.0081 16.862c18.897 0 34.268 15.358 34.268 34.236v5.257h-68.545v-5.257h0.0081c0-18.876 15.372-34.236 34.268-34.236z"/></svg>
