<svg xmlns="http://www.w3.org/2000/svg" viewBox="0 0 24 24"><path d="M8.517 5.092a6.126 6.126 0 0 1 2.554.584 5.665 5.665 0 0 1 3.691.687c.31-.06.628-.092.954-.092 2.964 0 5.367 2.564 5.367 5.727 0 3.163-2.403 5.727-5.367 5.727-.325 0-.643-.032-.952-.091a5.665 5.665 0 0 1-3.683.688c-.43.202-.88.356-1.346.455a6.08 6.08 0 0 1-1.233.128h7.026c3.574 0 6.472-3.093 6.472-6.907s-2.898-6.906-6.472-6.906zm-6.51 7.111c.002.065.003.13.007.194-.004-.064-.005-.129-.007-.194m.024.436c.006.069.014.137.022.205-.008-.068-.016-.137-.022-.205m.111.435zm.224.444c.035.064.073.127.11.19-.037-.063-.075-.126-.11-.19m.338.55c.023.032.044.066.067.099l-.067-.1m.62.782.061.068-.062-.068m1.485 1.21.08.046-.08-.047m.39.148c.033.011.069.02.103.03-.035-.01-.07-.019-.104-.03"/><path d="M8.475 5.09a6.115 6.115 0 0 0-2.479.524c-.786.346-1.5.856-2.101 1.497A6.951 6.951 0 0 0 2.49 9.354 7.3 7.3 0 0 0 2 11.998c0 1.366.379 2.703 1.09 3.84a6.587 6.587 0 0 0 2.905 2.545 6.094 6.094 0 0 0 5.089-.061c-2.902-.443-5.133-3.105-5.133-6.324 0-3.216 2.227-5.877 5.124-6.324a6.12 6.12 0 0 0-2.6-.583z" opacity=".6"/><path d="M11.938 5.608c-3.307 0-5.987 2.86-5.987 6.39 0 3.529 2.68 6.39 5.987 6.39a5.665 5.665 0 0 0 2.826-.754c-2.51-.48-4.414-2.82-4.414-5.636 0-2.815 1.904-5.154 4.412-5.635a5.665 5.665 0 0 0-2.824-.755z" opacity=".8"/></svg>