<svg xmlns="http://www.w3.org/2000/svg" viewBox="0 0 24 24"><path d="M8.517 5.092a6.1 6.1 0 0 1 2.554.584 5.67 5.67 0 0 1 3.691.687q.465-.091.954-.092c2.964 0 5.367 2.564 5.367 5.727s-2.403 5.727-5.367 5.727a5 5 0 0 1-.952-.091 5.67 5.67 0 0 1-3.683.688q-.646.305-1.346.455a6 6 0 0 1-1.233.128h7.026c3.574 0 6.472-3.093 6.472-6.907s-2.898-6.906-6.472-6.906zm-6.51 7.111q.002.098.007.194-.005-.096-.007-.194m.359 1.315q.054.096.11.19-.056-.094-.11-.19m.338.55.067.099zm.62.782.061.068zm1.485 1.21.08.046-.08-.047m.39.148q.05.016.103.03-.053-.014-.104-.03"/><path d="M8.475 5.09a6.1 6.1 0 0 0-2.479.524c-.786.346-1.5.856-2.101 1.497A7 7 0 0 0 2.49 9.354 7.3 7.3 0 0 0 2 11.998c0 1.366.379 2.703 1.09 3.84a6.6 6.6 0 0 0 2.905 2.545 6.1 6.1 0 0 0 5.089-.061c-2.902-.443-5.133-3.105-5.133-6.324 0-3.216 2.227-5.877 5.124-6.324a6.1 6.1 0 0 0-2.6-.583z" opacity=".6"/><path d="M11.938 5.608c-3.307 0-5.987 2.86-5.987 6.39s2.68 6.39 5.987 6.39a5.67 5.67 0 0 0 2.826-.754c-2.51-.48-4.414-2.82-4.414-5.636 0-2.815 1.904-5.154 4.412-5.635a5.67 5.67 0 0 0-2.824-.755" opacity=".8"/></svg>