<svg xmlns="http://www.w3.org/2000/svg" width="192" height="192" viewBox="0 0 192 192"><path d="M159.45 21.102c-16.263 0-29.674 4.502-40.213 13.62-10.503 9.032-17.189 21.192-20.131 37.7l-2.537 13.596h-33.01c-.514 0-34.635 3.806-34.635 3.806l31.405 4.763 1.244 4.596-19.197 1.604 20.18 2.92.813 3.734L16 110.792s52.146 2.466 52.66 2.466h22.883l-11.226 57.639h37.51l11.201-57.663h15.702c5.834 0 9.606-4.275 11.346-13.883 1.618-9.24-.496-13.333-6.367-13.333h-15.726l2.49-13.86c2.757-15.796 11.004-23.577 24.559-23.577h2.585c7.512 0 11.656-1.222 12.232-4.74.465-2.365-.222-5.648-.982-9.24-.796-3.504-1.635-6.884-2.848-8.784-1.814-3.186-5.998-4.715-12.567-4.715z"/></svg>