<svg xmlns="http://www.w3.org/2000/svg" viewBox="0 0 24 24"><path d="M5.195 3.11a.8.8 0 0 0-.278.052v-.329c0-.459.374-.833.833-.833h12.223c.46 0 .833.374.833.833v.278zM19.64 5.057H4.36a.835.835 0 0 0-.833.833v15.278c0 .459.374.833.833.833h6.084l.915-4.704H9.493c-.042 0-4.298-.201-4.298-.201l3.865-.272-.065-.305-1.648-.238 1.568-.132-.103-.374-2.562-.389s2.784-.31 2.826-.31h2.694l.206-1.11c.24-1.347.787-2.34 1.644-3.077.86-.744 1.953-1.11 3.28-1.11.536 0 .878.125 1.026.385.099.155.168.43.233.716.062.293.117.56.079.753-.047.287-.384.387-.997.387h-.211c-1.106 0-1.779.636-2.004 1.925l-.203 1.13h1.283c.479 0 .651.334.519 1.088-.142.784-.45 1.133-.926 1.133h-1.282L13.504 22h6.135a.834.834 0 0 0 .833-.833V5.889a.833.833 0 0 0-.832-.833zm-.556-1.112a.28.28 0 0 0-.278-.277H5.195a.28.28 0 0 0-.278.277V4.5h14.167Z"/></svg>