<svg xmlns="http://www.w3.org/2000/svg" viewBox="0 0 24 24"><path d="M21.662 5.102h-.019a.79.79 0 0 0-1.1.176L19.7 6.422l1.002 1.36 1.132-1.58a.79.79 0 0 0-.176-1.1m.176 5.356-1.132-1.579-.99 1.36.842 1.16a.79.79 0 0 0 1.1.175h.02a.79.79 0 0 0 .175-1.1m-7.07-3.54h-1.058v-1.27a.639.639 0 0 1 .635-.636h.423c.35.002.633.285.635.635v.635a.638.638 0 0 1-.635.635m.635 4.703h-1.693v-3.45a.639.639 0 0 1 .635-.636h1.058zm-5.168-1.36a.308.308 0 0 1-.308-.308V5.666a.637.637 0 0 0-.644-.638H8.23v5.97c0 .352.286.638.638.638h3.472a.638.638 0 0 0 .638-.639v-.721zM2.635 5.028A.635.635 0 0 0 2 5.66v5.976h1.69V9.039h2.395a.635.635 0 0 0 .635-.635V7.69H3.69v-.993c0-.17.137-.308.308-.308h2.87c.35 0 .635-.285.635-.635v-.725zM20.29 8.331l-.987-1.36-1.233-1.706a.79.79 0 0 0-1.101-.175h-.019a.79.79 0 0 0-.175 1.1l1.541 2.125-1.541 2.127a.793.793 0 0 0 .172 1.104h.019a.79.79 0 0 0 1.1-.175l.925-1.252zm-2.692 5.377h2.137a.636.636 0 0 0 .632-.633v-.718h-2.775a2.02 2.02 0 0 0-1.98 2.02 1.964 1.964 0 0 0 1.971 1.955h.873a.641.641 0 0 1 0 1.28H15.68v.718c.001.348.283.63.632.632h2.158a2.02 2.02 0 0 0 1.986-2.02 1.961 1.961 0 0 0-1.955-1.955h-.888a.641.641 0 0 1 0-1.28m-2.673-1.344h-.746a.617.617 0 0 0-.617.617v3.922c0 .564-.389.925-1.058.925h-.308c-.67 0-1.057-.376-1.057-.925v-4.538h-.753a.617.617 0 0 0-.617.616v4.144c0 1.162.799 1.936 2.18 1.936h.8c1.38 0 2.179-.774 2.179-1.936l-.003-4.76zm-10.767.006a.635.635 0 0 0-.632.633v5.337c.001.348.283.63.632.632h2.901c1.206 0 1.933-.703 1.933-1.909a1.825 1.825 0 0 0-.53-1.344h.003a4.057 4.057 0 0 0-.166-.136 1.76 1.76 0 0 0 .45-1.295c0-1.205-.78-1.918-1.986-1.918zm.718 1.07H6.48a.77.77 0 1 1 0 1.542H5.438a.548.548 0 0 1-.546-.546zm-.006 2.735H6.67a.86.86 0 0 1 0 1.72v.007H5.503a.617.617 0 0 1-.617-.617z"/></svg>