<svg version="1.1" viewBox="0 0 192 192" xmlns="http://www.w3.org/2000/svg"><path d="m117.19 19c-45.232 0-51.298 69.324-50.406 82.171-3.9779-11.782-2.0228-24.142-1.6532-26.205 0.61489-3.2427 1.2895-6.778-2.6299-1.9875-7.6726 9.4564-17.756 27.658-14.812 52.102-3.5685-3.1225-6.7754-5.1786-9.8088-6.7848-3.39-1.7843-4.8179-2.4961-1.0708 2.3216 2.9439 3.8361 6.5976 12.668 2.0474 21.768-3.4791 6.9586-9.4505 10.44-15.874 11.154-3.1225 0.35703-3.3059 2.3168-1.1651 2.2273 9.8139-0.62413 27.215-3.1226 45.326-11.419 24.515-11.374 38.762-27.184 42.413-31.234 0.58725-0.65134 0.90504-1.0016 0.94233-0.97659 0.71362 0.53506-9.546 15.619-28.638 28.912-7.7191 5.3481-19.018 12.48-38.036 18.333-0.9509 0.29389-1.3717 0.41923-1.3621 0.47971 0.0077 0.0479 0.28302 0.0522 0.77958 0.0599 2.3097 0.0342 9.3718 0.14622 16.14 5.0372 3.6677 2.6716 5.5638 5.4576 6.5792 6.9475 0.98468 1.4461 1.1363 1.6675 1.2679-0.61677 0.08949-2.1413-0.0018-5.2616-0.17992-7.5815 6.691 1.9628 16.238 3.7454 28.193 2.4072 13.025-1.5167 24.983-6.5145 35.689-14.812 3.4984-2.6847 0.98235-2.1793-0.90806-1.799-0.18249 0.0368-0.35763 0.0719-0.52249 0.10275-4.6392 0.98117-13.202 1.8739-22.659-0.4454 6.4234 0 47.91-3.0292 60.489-40.589 13.382-39.968-4.998-89.573-50.141-89.573z"/></svg>
