<svg xmlns="http://www.w3.org/2000/svg" xml:space="preserve" width="24" height="24" viewBox="0 0 24 24"><path d="M4.213 9.572c-.67 0-1.213.545-1.213 1.215v9C3 20.457 3.543 21 4.213 21h15.574c.67 0 1.213-.543 1.213-1.213v-9c0-.67-.543-1.215-1.213-1.215h-1.428v1.332c0 .394-.116.773-.326 1.096h.213c.112 0 .203.09.203.201v1.215a.2.2 0 0 1-.203.201h-1.213a.2.2 0 0 1-.203-.201v-.328l-2.201 1.744h.785c.112 0 .203.09.203.201v1.213a.204.204 0 0 1-.203.203H14.2a.204.204 0 0 1-.203-.203v-.914l-1.252.992a1.21 1.21 0 0 1-1.492 0l-1.3-1.03v.952a.204.204 0 0 1-.202.203H8.539a.204.204 0 0 1-.203-.203v-1.213c0-.112.091-.201.203-.201h.832l-2.248-1.781v.365a.2.2 0 0 1-.203.201H5.707a.2.2 0 0 1-.203-.201v-1.215c0-.112.091-.201.203-.201h.26a2 2 0 0 1-.327-1.096V9.572zm1.494 5.26H6.92c.112 0 .203.09.203.201v1.213a.204.204 0 0 1-.203.203H5.707a.204.204 0 0 1-.203-.203v-1.213c0-.111.091-.2.203-.2m11.326 0h1.213c.112 0 .203.09.203.201v1.213a.204.204 0 0 1-.203.203h-1.213a.204.204 0 0 1-.203-.203v-1.213c0-.111.091-.2.203-.2m-9.709 2.83h9.305c.111 0 .2.092.2.203v1.213a.2.2 0 0 1-.2.203H7.324a.2.2 0 0 1-.201-.203v-1.213c0-.111.09-.203.201-.203"/><path d="M8.258 3c-.894 0-1.617.724-1.617 1.617v6.287c0 .31.14.601.382.793l4.852 3.844a.2.2 0 0 0 .25 0l4.852-3.844c.242-.192.382-.484.382-.793V4.617c0-.893-.723-1.617-1.617-1.617zm3.787 1.38a.2.2 0 0 1 .125.04c1.106.818 1.657 1.767 1.959 2.703a.2.2 0 0 1-.088.227l-.363.21c-.075.044-.15.008-.17-.076-.237-1.014-.651-1.6-1.346-2.222a.18.18 0 0 0-.234 0c-.695.623-1.111 1.208-1.348 2.222-.02.084-.095.12-.17.077l-.363-.211a.2.2 0 0 1-.088-.227c.302-.936.853-1.885 1.959-2.703a.2.2 0 0 1 .127-.04m0 1.155c.04 0 .08.015.111.045.511.51.933 1.088 1.176 2.014a.27.27 0 0 1-.082.252c-.497.427-.784.8-1.123 1.33-.046.072-.12.072-.166 0-.34-.53-.626-.903-1.123-1.33a.27.27 0 0 1-.082-.252c.243-.926.667-1.503 1.178-2.014.03-.03.07-.045.111-.045M7.889 6.922c1.584.096 3.292.94 4.095 2.771.035.08.085.08.12 0 .803-1.83 2.51-2.675 4.095-2.771a.15.15 0 0 1 .156.15v.389c0 .086-.07.161-.156.17-3.206.327-3.807 2.716-3.781 4.508a.15.15 0 0 1-.152.156h-.444a.15.15 0 0 1-.152-.156c.026-1.792-.577-4.182-3.783-4.508a.174.174 0 0 1-.155-.17v-.389c0-.086.07-.155.157-.15m.01.953.029.002c3.323.578 3.512 2.918 3.56 4.225.003.086-.061.14-.144.117-2.534-.686-3.341-2.817-3.55-4.213-.01-.075.036-.128.104-.131zm8.269 0c.068.003.112.056.101.13-.208 1.397-1.012 3.528-3.546 4.214-.084.022-.15-.031-.147-.117.048-1.307.237-3.647 3.56-4.225z"/></svg>