<svg xmlns="http://www.w3.org/2000/svg" width="24" height="24"><path d="M7.4 16.6c.1.08-.35 1.34-.7 2.12-.3.66-1.12 1-1.77.35s-.31-1.47.35-1.77c.78-.35 2.04-.8 2.12-.7m0-9.2c-.08.1-1.34-.35-2.12-.7-.66-.3-1-1.12-.35-1.77s1.47-.31 1.77.35c.35.78.8 2.04.7 2.12m9.2 0c.08.1 1.34-.35 2.12-.7.66-.3 1-1.12.35-1.77s-1.47-.31-1.77.35c-.35.78-.8 2.04-.7 2.12m0 9.2c-.1.08.35 1.34.7 2.12.3.66 1.12 1 1.77.35s.31-1.47-.35-1.77c-.78-.35-2.04-.8-2.12-.7M5.5 12c0 .12-1.2.7-2 1-.68.26-1.5-.08-1.5-1s.82-1.26 1.5-1c.8.3 2 .88 2 1M12 5.5c-.12 0-.7-1.2-1-2-.26-.68.08-1.5 1-1.5s1.26.82 1 1.5c-.3.8-.88 2-1 2m6.5 6.5c0 .12 1.2.7 2 1 .68.26 1.5-.08 1.5-1s-.82-1.26-1.5-1c-.8.3-2 .88-2 1M12 18.5c-.12 0-.7 1.2-1 2-.26.68.08 1.5 1 1.5s1.26-.82 1-1.5c-.3-.8-.88-2-1-2M9 12l1-1 2 2 4-4 1 1-5 5z" style="fill:#000"/></svg>