<svg version="1.1" viewBox="0 0 24 24" xmlns="http://www.w3.org/2000/svg"><path d="m11.17 5.3119c-0.21399-1e-6 -0.40009 0.07964-0.55825 0.23781l-3.3495 3.3492c-0.52102 0.52102-0.81556 1.1375-0.88535 1.8492-0.06978 0.71175 0.06693 1.3696 0.41117 1.9744l-4.5499 4.5501c-0.15816 0.15816-0.2378 0.34398-0.2378 0.55796s0.07964 0.40009 0.2378 0.55825c0.15816 0.15816 0.34426 0.2378 0.55825 0.2378s0.3998-0.07964 0.55796-0.2378l4.5501-4.5499c0.60475 0.34425 1.2626 0.48095 1.9744 0.41118 0.71175-0.06978 1.3282-0.36433 1.8492-0.88535l3.3492-3.3495c0.15816-0.15816 0.2378-0.34426 0.2378-0.55825 1e-6 -0.21399-0.07964-0.40009-0.2378-0.55825-0.15816-0.15816-0.34426-0.23751-0.55825-0.23751-0.21399 0-0.3998 0.07935-0.55796 0.23751l-3.3495 3.3495-0.55825-0.55825 3.3495-3.3495c0.15816-0.15816 0.23752-0.34426 0.23752-0.55825 0-0.21399-0.07935-0.40009-0.23752-0.55825-0.15816-0.15816-0.34426-0.23751-0.55825-0.23751-0.21399 0-0.40008 0.07935-0.55825 0.23751l-3.3495 3.3495-0.55825-0.55825 3.3495-3.3495c0.15816-0.15816 0.23751-0.34398 0.23751-0.55796 0-0.21399-0.07935-0.40009-0.23751-0.55825-0.15816-0.15816-0.34426-0.23781-0.55825-0.23781zm-2.027 9.494-0.10778 0.76919h0.77438l0.10778-0.76919zm2.4667 0.95902c-0.21882 0-0.424 0.03925-0.61546 0.11789-0.18805 0.07864-0.35397 0.18806-0.49757 0.32825-0.1436 0.14019-0.2563 0.30432-0.33836 0.49238-0.08206 0.18805-0.12309 0.38966-0.12309 0.60506 0 0.26328 0.05977 0.49936 0.17944 0.70793 0.12309 0.20856 0.29079 0.3727 0.50277 0.49238 0.2154 0.11967 0.45805 0.17944 0.72815 0.17944 0.20856 0 0.40362-0.03598 0.58484-0.10778 0.18121-0.0718 0.33672-0.17082 0.46665-0.29732 0.13335-0.12992 0.23236-0.27711 0.29732-0.44122l-0.6513-0.31265c-0.05812 0.14019-0.14704 0.25289-0.2667 0.33836-0.11967 0.08548-0.25972 0.1283-0.42042 0.1283-0.18805 0-0.33851-0.06333-0.45134-0.18984-0.11282-0.1265-0.16932-0.29242-0.16932-0.49758 0-0.15044 0.03063-0.2905 0.09218-0.42042 0.06496-0.12992 0.15387-0.2343 0.2667-0.31294 0.11625-0.07864 0.25154-0.11789 0.4054-0.11789 0.14702 0 0.2734 0.03925 0.37939 0.11789 0.10599 0.07864 0.17795 0.18806 0.21556 0.32825l0.68192-0.2667c-0.04445-0.17438-0.12651-0.32632-0.24619-0.45625-0.11967-0.12992-0.26656-0.23102-0.44094-0.30282-0.17438-0.07522-0.36765-0.11269-0.57964-0.11269zm3.2054 0c-0.21882 0-0.4237 0.03925-0.61517 0.11789-0.19148 0.07864-0.36095 0.18806-0.50797 0.32825-0.14702 0.14019-0.2615 0.30432-0.34356 0.49238-0.08206 0.18805-0.12309 0.38966-0.12309 0.60506 0 0.26669 0.06333 0.50456 0.18984 0.71312 0.1265 0.20856 0.29749 0.3727 0.51289 0.49238 0.2154 0.11625 0.45626 0.17424 0.72295 0.17424 0.2154 0 0.41907-0.03925 0.61055-0.11789 0.19147-0.07864 0.36066-0.18806 0.50768-0.32825 0.14702-0.1436 0.2615-0.30774 0.34356-0.49238 0.08206-0.18805 0.12309-0.38995 0.12309-0.60535 0-0.27011-0.06333-0.5077-0.18984-0.71284-0.12309-0.20856-0.29227-0.37092-0.50769-0.48718-0.2154-0.11967-0.45655-0.17944-0.72325-0.17944zm3.5491 0c-0.16754 0-0.31977 0.02914-0.45654 0.08726-0.13676 0.05812-0.25125 0.15209-0.34356 0.28201l0.04103-0.30774h-0.71805l-0.3898 2.8002h0.76947l0.22567-1.636c0.02393-0.1607 0.09054-0.28886 0.19995-0.38459 0.10941-0.09915 0.23935-0.14881 0.3898-0.14881 0.15045 0 0.2667 0.04965 0.34876 0.14881 0.08206 0.09573 0.11091 0.2239 0.08697 0.38459l-0.22568 1.636h0.76947l0.24099-1.7285c0.03077-0.21199 0.01026-0.40319-0.06155-0.57415-0.06838-0.17095-0.1778-0.30625-0.32825-0.4054-0.15044-0.10257-0.33331-0.15372-0.54871-0.15372zm2.5284 0c-0.2154 0-0.40839 0.04103-0.57935 0.12309-0.17095 0.07864-0.30595 0.18806-0.40511 0.32825-0.09574 0.14019-0.14361 0.30075-0.14361 0.48198 0 0.18805 0.05471 0.3504 0.16412 0.48718 0.11283 0.13335 0.27162 0.22909 0.47677 0.28721l0.46665 0.1335c0.04787 0.01368 0.09931 0.03747 0.15401 0.07166 0.05471 0.03077 0.08206 0.08399 0.08206 0.15921 0 0.0718-0.03241 0.13335-0.09738 0.18464-0.06154 0.05129-0.1558 0.07686-0.2823 0.07686-0.15044 0-0.28187-0.04103-0.3947-0.12309-0.10941-0.08206-0.19326-0.19654-0.25139-0.34356l-0.57964 0.23579c0.03761 0.16411 0.11284 0.30774 0.22567 0.43082 0.11283 0.12309 0.25317 0.21884 0.42071 0.28721 0.17095 0.06838 0.3571 0.10258 0.55882 0.10258 0.22566 0 0.42399-0.04103 0.59495-0.12309 0.17438-0.08206 0.30966-0.19326 0.4054-0.33345 0.09915-0.14019 0.14852-0.29748 0.14852-0.47185 0-0.18121-0.05621-0.33672-0.16904-0.46665-0.10941-0.12992-0.27028-0.22745-0.48226-0.29242l-0.43082-0.1332c-0.06155-0.01709-0.12131-0.04267-0.17944-0.07686-0.05812-0.03419-0.08726-0.0889-0.08726-0.16412 0-0.07864 0.03241-0.13841 0.09737-0.17944 0.06838-0.04445 0.1558-0.06675 0.26179-0.06675 0.12651 0 0.24278 0.0342 0.34876 0.10258 0.10599 0.06496 0.17082 0.15388 0.19475 0.2667l0.58976-0.23607c-0.06496-0.2325-0.1964-0.41538-0.3947-0.54871-0.19489-0.13335-0.43276-0.19995-0.71312-0.19995zm-11.893 0.06155-0.3898 2.8002h0.77438l0.3898-2.8002zm5.8056 0.63078c0.19147 0 0.34371 0.06333 0.45654 0.18984 0.11625 0.12651 0.17424 0.28886 0.17424 0.48718 0 0.1607-0.03241 0.3061-0.09738 0.43602-0.06496 0.12992-0.15565 0.234-0.2719 0.31265-0.11625 0.07522-0.25125 0.11298-0.40511 0.11298-0.19489 0-0.3504-0.06333-0.46665-0.18984-0.11283-0.12651-0.16932-0.28886-0.16932-0.48718 0-0.1607 0.03241-0.3061 0.09738-0.43602 0.06496-0.12992 0.15565-0.23251 0.2719-0.30774 0.11967-0.07864 0.25645-0.11789 0.41031-0.11789z"/></svg>
