<svg xmlns="http://www.w3.org/2000/svg" viewBox="0 0 24 24"><path d="M11.17 5.312c-.214 0-.4.08-.558.238l-3.35 3.349a2.955 2.955 0 0 0-.885 1.85c-.07.71.067 1.369.411 1.974l-4.55 4.55c-.158.158-.238.344-.238.558s.08.4.238.558c.158.158.344.238.558.238s.4-.08.558-.238l4.55-4.55a3.254 3.254 0 0 0 1.975.411 2.955 2.955 0 0 0 1.85-.885l3.348-3.35a.764.764 0 0 0 .238-.558c0-.214-.08-.4-.238-.558a.764.764 0 0 0-.558-.238c-.214 0-.4.08-.558.238l-3.35 3.35-.558-.559 3.35-3.35a.764.764 0 0 0 .237-.558c0-.214-.079-.4-.237-.558a.764.764 0 0 0-.558-.238c-.214 0-.4.08-.559.238l-3.35 3.35-.557-.559 3.35-3.35a.764.764 0 0 0 .237-.557c0-.214-.08-.4-.238-.558a.764.764 0 0 0-.558-.238m-2.027 9.494-.108.77h.775l.107-.77zm2.467.959a1.576 1.576 0 0 0-1.113.446c-.144.14-.257.304-.339.492a1.5 1.5 0 0 0-.123.606c0 .263.06.499.18.707.123.209.29.373.502.493.216.12.458.18.729.18.208 0 .403-.037.584-.109.182-.071.337-.17.467-.297.133-.13.232-.277.297-.441l-.65-.313a.768.768 0 0 1-.268.339.704.704 0 0 1-.42.128.575.575 0 0 1-.451-.19.72.72 0 0 1-.17-.497c0-.15.03-.291.092-.42a.821.821 0 0 1 .267-.314.706.706 0 0 1 .406-.118.582.582 0 0 1 .595.446l.681-.266a1.042 1.042 0 0 0-.246-.457 1.224 1.224 0 0 0-.44-.302 1.449 1.449 0 0 0-.58-.113m3.205 0a1.603 1.603 0 0 0-1.123.446 1.505 1.505 0 0 0-.467 1.098 1.348 1.348 0 0 0 .703 1.205c.215.116.456.174.723.174a1.621 1.621 0 0 0 1.118-.446 1.497 1.497 0 0 0 .467-1.098c0-.27-.063-.507-.19-.712a1.289 1.289 0 0 0-.508-.488 1.464 1.464 0 0 0-.723-.18m3.55 0c-.168 0-.32.03-.457.087a.802.802 0 0 0-.344.282l.041-.308h-.718l-.39 2.8h.77l.225-1.635a.611.611 0 0 1 .2-.385.56.56 0 0 1 .39-.149c.15 0 .267.05.349.15.082.095.11.223.087.384l-.226 1.636h.77l.24-1.729c.031-.212.01-.403-.06-.574a.853.853 0 0 0-.33-.405.95.95 0 0 0-.548-.154m2.528 0c-.216 0-.409.04-.58.123a.991.991 0 0 0-.405.328.834.834 0 0 0-.143.482c0 .188.054.35.164.487a.94.94 0 0 0 .476.288l.467.133a.62.62 0 0 1 .154.072c.055.03.082.084.082.159a.229.229 0 0 1-.097.185c-.062.05-.156.077-.283.077a.653.653 0 0 1-.394-.124.771.771 0 0 1-.252-.343l-.58.236a.936.936 0 0 0 .226.43c.113.124.254.22.421.288.171.068.357.102.559.102.226 0 .424-.04.595-.123a.985.985 0 0 0 .405-.333c.1-.14.149-.298.149-.472a.688.688 0 0 0-.17-.467.99.99 0 0 0-.482-.292l-.43-.133a.747.747 0 0 1-.18-.077c-.058-.034-.087-.09-.087-.164a.2.2 0 0 1 .097-.18.472.472 0 0 1 .262-.067.63.63 0 0 1 .349.103c.106.065.17.154.195.267l.59-.236a.948.948 0 0 0-.395-.55 1.233 1.233 0 0 0-.713-.199M9 15.826l-.39 2.8h.774l.39-2.8zm5.805.631c.192 0 .344.064.457.19a.692.692 0 0 1 .174.487.96.96 0 0 1-.097.436.805.805 0 0 1-.272.313.73.73 0 0 1-.405.113.603.603 0 0 1-.467-.19.704.704 0 0 1-.17-.487c0-.16.033-.306.098-.436a.767.767 0 0 1 .272-.308.73.73 0 0 1 .41-.118"/></svg>