<svg xmlns="http://www.w3.org/2000/svg" width="24" height="24"><path d="M16.19 2C15.395 2 15 2.396 15 3.19v3.62c0 .794.396 1.19 1.19 1.19h.705c-.116.424-.366.937-.895 1.63-1 1.29-3 3.2-4 4.54-1-1.34-3-3.25-4-4.54-.61-.8-.85-1.36-.94-1.82.004 0 .006-.002.008-.003h-.02A3 3 0 0 0 9 5a3 3 0 0 0-6 0 3 3 0 0 0 2.08 2.848h-.037l.008.002C5.13 8.37 5.36 9 6 9.83c1 1.34 3 3.25 4 4.55.61.79.85 1.35.94 1.81l-.014.005h.015A3.01 3.01 0 0 0 9 19c0 1.65 1.35 3 3 3s3-1.35 3-3a3.01 3.01 0 0 0-1.941-2.805h.015l-.013-.006c.09-.46.329-1.018.939-1.808 1-1.3 3-3.21 4-4.55.58-.753.822-1.34.922-1.831h.889C20.604 8 21 7.604 21 6.81V3.19C21 2.395 20.604 2 19.81 2h-3.62zM12 17.09A1.9 1.9 0 0 1 13.91 19 1.9 1.9 0 0 1 12 20.91 1.9 1.9 0 0 1 10.09 19 1.9 1.9 0 0 1 12 17.09z"/></svg>