<svg xmlns="http://www.w3.org/2000/svg" viewBox="0 0 24 24"><path d="M8.354 21H4.846a1.782 1.782 0 0 1-1.304-.542A1.78 1.78 0 0 1 3 19.154v-3.508c.739 0 1.385-.234 1.939-.703.553-.47.83-1.066.83-1.79 0-.722-.277-1.32-.83-1.788A2.908 2.908 0 0 0 3 10.662V7.154c0-.508.181-.942.542-1.303a1.779 1.779 0 0 1 1.304-.543H8.54c0-.646.223-1.193.669-1.639A2.228 2.228 0 0 1 10.846 3c.646 0 1.193.223 1.639.67.445.445.669.992.669 1.638h3.692c.508 0 .943.18 1.304.543.361.36.542.795.542 1.303v3.692a2.23 2.23 0 0 1 1.639.67c.446.445.669.992.669 1.638 0 .646-.223 1.192-.67 1.638-.445.446-.992.67-1.638.67v3.692a1.782 1.782 0 0 1-.542 1.304 1.78 1.78 0 0 1-1.304.542h-3.508c0-.769-.241-1.424-.726-1.962s-1.074-.807-1.766-.807-1.28.27-1.765.807c-.484.539-.727 1.193-.727 1.962"/></svg>