<svg xmlns="http://www.w3.org/2000/svg" viewBox="0 0 24 24"><path d="M8.354 21H4.846a1.78 1.78 0 0 1-1.304-.542A1.78 1.78 0 0 1 3 19.154v-3.508q1.108 0 1.939-.703.83-.705.83-1.79t-.83-1.788A2.9 2.9 0 0 0 3 10.662V7.154q0-.762.542-1.303a1.78 1.78 0 0 1 1.304-.543H8.54q0-.97.669-1.639A2.23 2.23 0 0 1 10.846 3q.97 0 1.639.67.668.668.669 1.638h3.692q.762 0 1.304.543.542.54.542 1.303v3.692a2.23 2.23 0 0 1 1.639.67q.669.668.669 1.638t-.67 1.638q-.668.67-1.638.67v3.692a1.78 1.78 0 0 1-.542 1.304 1.78 1.78 0 0 1-1.304.542h-3.508q0-1.154-.726-1.962c-.726-.808-1.074-.807-1.766-.807s-1.28.27-1.765.807q-.726.809-.727 1.962"/></svg>