<svg xmlns="http://www.w3.org/2000/svg" width="192" height="192" viewBox="0 0 192 192"><path d="M98.748 109.41c-25.04-7.728-51.793-14.472-75.945-20.888-.344-.104 146.5-73.217 146.39-72.513-1.64 11.024-3.816 22.944-5.88 34.353-17 8.88-34.721 16.44-51.53 25.688 0 .648 8.065 13.272 8.425 13.304 1.328.128 38.897-19.384 38.985-18.536.072.744-5.76 33.601-6.112 33.905-.24.208-17.736 8.864-18.056 9.152 3.88 7.304 8.328 14.32 12.616 21.408-2.264 11.56-5.776 29.025-7.824 40.721-13.704-21.936-27.441-44.337-41.073-66.593"/></svg>