<svg xmlns="http://www.w3.org/2000/svg" width="24" height="24" fill="none" viewBox="0 0 24 24"><path fill="#000" d="M7 10.199v3.7c1.614.2 2.5.601 3.5 1.601h4.312c-.784-1.633-1.77-2.427-3.256-3.463C10.07 11.002 8.803 10.368 7 10.2"/><path fill="#000" d="M5.611 10.16H2v9.234a1.257 1.257 0 0 0 1.257 1.257h17.486a1.257 1.257 0 0 0 1.256-1.257v-2.36H5.611v-6.875Zm0-3.193H17V3.35H3.257A1.257 1.257 0 0 0 2 4.606V8.5h3.611V6.967M20.743 3.35h-2.352V15.5H22V4.606a1.258 1.258 0 0 0-1.257-1.257m-5.597 8.914a2.104 2.104 0 1 0 0-4.208 2.104 2.104 0 0 0 0 4.208"/></svg>