<svg xmlns="http://www.w3.org/2000/svg" width="192" height="192" viewBox="0 0 192 192"><path d="M23.856 27.072A7.92 7.92 0 0 0 16 34.928v122.14a7.92 7.92 0 0 0 7.856 7.856h144.29a7.92 7.92 0 0 0 7.856-7.856V34.928a7.92 7.92 0 0 0-7.856-7.856h-21.424zm21.432 29.28h101.43v79.288h-22.664c-12.088-31.728-42.784-54.28-78.768-54.28zm76.424 8.432a16.56 16.56 0 0 0-16.568 16.576 16.56 16.56 0 0 0 16.568 16.568 16.56 16.56 0 0 0 16.576-16.568 16.56 16.56 0 0 0-16.576-16.576M45.288 110.64a54.96 54.96 0 0 1 46.08 25h-46.08z"/></svg>