<svg xmlns="http://www.w3.org/2000/svg" viewBox="0 0 24 24"><path d="M4 18q-.824 0-1.412-.587A1.93 1.93 0 0 1 2 16V8q0-.824.588-1.412A1.92 1.92 0 0 1 4 6h16q.825 0 1.413.588Q22 7.175 22 8v8a1.93 1.93 0 0 1-.587 1.413A1.93 1.93 0 0 1 20 18zm3-3h2v-2h2v-2H9V9H7v2H5v2h2zm7.5 0q.625 0 1.062-.438Q16 14.125 16 13.5t-.438-1.062A1.44 1.44 0 0 0 14.5 12q-.625 0-1.062.438A1.44 1.44 0 0 0 13 13.5q0 .625.438 1.062.437.438 1.062.438m3-3q.625 0 1.062-.438Q19 11.125 19 10.5t-.438-1.062A1.44 1.44 0 0 0 17.5 9q-.625 0-1.062.438A1.44 1.44 0 0 0 16 10.5q0 .625.438 1.062.436.438 1.062.438"/></svg>