<svg xmlns="http://www.w3.org/2000/svg" viewBox="0 0 24 24"><path d="M4 18c-.55 0-1.02-.196-1.412-.587A1.927 1.927 0 0 1 2 16V8c0-.55.196-1.02.588-1.412A1.923 1.923 0 0 1 4 6h16c.55 0 1.021.196 1.413.588.391.391.587.862.587 1.412v8a1.93 1.93 0 0 1-.587 1.413A1.928 1.928 0 0 1 20 18zm3-3h2v-2h2v-2H9V9H7v2H5v2h2zm7.5 0c.417 0 .77-.146 1.062-.438.292-.291.438-.645.438-1.062 0-.417-.146-.77-.438-1.062A1.444 1.444 0 0 0 14.5 12c-.417 0-.77.146-1.062.438A1.444 1.444 0 0 0 13 13.5c0 .417.146.77.438 1.062.291.292.645.438 1.062.438m3-3c.417 0 .77-.146 1.062-.438.292-.291.438-.645.438-1.062 0-.417-.146-.77-.438-1.062A1.444 1.444 0 0 0 17.5 9c-.417 0-.77.146-1.062.438A1.444 1.444 0 0 0 16 10.5c0 .417.146.77.438 1.062.291.292.645.438 1.062.438"/></svg>