<svg xmlns="http://www.w3.org/2000/svg" width="24" height="24" fill="none" viewBox="0 0 24 24"><path d="M4.213 9.572c-.67 0-1.213.545-1.213 1.215v9C3 20.457 3.543 21 4.213 21h15.574c.67 0 1.213-.543 1.213-1.213v-9c0-.67-.543-1.215-1.213-1.215H18.36v1.332c0 .394-.116.773-.326 1.096h.213c.112 0 .203.09.203.201v1.215a.202.202 0 0 1-.203.201h-1.213a.202.202 0 0 1-.203-.201v-.328l-2.201 1.744h.785c.112 0 .203.09.203.201v1.213a.204.204 0 0 1-.203.203h-1.213a.204.204 0 0 1-.203-.203v-.914l-1.252.992a1.21 1.21 0 0 1-1.492 0l-1.299-1.03v.952a.204.204 0 0 1-.203.203H8.539a.204.204 0 0 1-.203-.203v-1.213c0-.111.091-.201.203-.201h.832l-2.248-1.781v.365a.202.202 0 0 1-.203.201H5.707a.202.202 0 0 1-.203-.201v-1.215c0-.112.091-.201.203-.201h.26a2.012 2.012 0 0 1-.326-1.096V9.572zm1.494 5.26H6.92c.112 0 .203.09.203.201v1.213a.204.204 0 0 1-.203.203H5.707a.204.204 0 0 1-.203-.203v-1.213c0-.111.091-.201.203-.201m11.326 0h1.213c.112 0 .203.09.203.201v1.213a.204.204 0 0 1-.203.203h-1.213a.204.204 0 0 1-.203-.203v-1.213c0-.111.092-.201.203-.201m-9.709 2.83h9.305c.112 0 .201.092.201.203v1.213c0 .112-.09.203-.201.203H7.324a.202.202 0 0 1-.201-.203v-1.213c0-.111.09-.203.201-.203z" style="display:inline;fill:#000"/><path d="M8.258 3c-.894 0-1.617.724-1.617 1.617v6.287c0 .31.14.601.382.793l4.852 3.844a.2.2 0 0 0 .25 0l4.852-3.844c.242-.192.382-.484.382-.793V4.617c0-.893-.723-1.617-1.617-1.617zm3.82 1.617c.983 0 1.804.363 2.432.951l-1.037 1.037a1.973 1.973 0 0 0-1.395-.546c-.95 0-1.755.64-2.043 1.505a2.133 2.133 0 0 0 0 1.389c.288.865 1.094 1.504 2.043 1.504.492 0 .907-.133 1.235-.352a1.69 1.69 0 0 0 .728-1.085h-1.963V7.652h3.428c.036.222.056.448.056.688 0 1.107-.394 2.042-1.08 2.676-.6.555-1.421.882-2.404.882a3.636 3.636 0 0 1-3.25-2.007 3.6 3.6 0 0 1 0-3.264 3.638 3.638 0 0 1 3.25-2.01" style="display:inline;fill:#000"/></svg>