<svg xmlns="http://www.w3.org/2000/svg" viewBox="0 0 24 24"><path d="M20.755 6.802a.95.95 0 0 0-1.692.866 9.508 9.508 0 0 1 0 8.634.95.95 0 1 0 1.691.865 11.406 11.406 0 0 0 .001-10.366m-10.237 1.85a3.296 3.296 0 0 1 1.96.641 1.026 1.026 0 0 0 1.21-1.658 5.383 5.383 0 1 0 2.217 4.35 1.029 1.029 0 0 0-1.026-1.026h-3.405a1.026 1.026 0 0 0 0 2.053h2.217a3.335 3.335 0 1 1-3.173-4.36m7.058-.646a.999.999 0 0 0-.329-.059.949.949 0 0 0-.398.09.953.953 0 0 0-.463 1.26 6.412 6.412 0 0 1 0 5.376.953.953 0 0 0 .463 1.262.949.949 0 0 0 1.26-.464 8.31 8.31 0 0 0 0-6.972.949.949 0 0 0-.533-.493m-2.53 8.847a1.019 1.019 0 0 0-.633.216 6.352 6.352 0 0 1-3.932 1.348 6.416 6.416 0 0 1 0-12.832 6.352 6.352 0 0 1 3.932 1.348 1.035 1.035 0 0 0 1.268-1.634 8.39 8.39 0 0 0-5.2-1.782 8.484 8.484 0 0 0 0 16.968 8.39 8.39 0 0 0 5.201-1.783 1.034 1.034 0 0 0-.637-1.85"/></svg>