<svg xmlns="http://www.w3.org/2000/svg" data-name="Layer 1" viewBox="0 0 24 24"><path d="M15.036 16.858a1.02 1.02 0 0 0-.633.216 6.36 6.36 0 0 1-3.937 1.35 6.424 6.424 0 0 1 0-12.848 6.36 6.36 0 0 1 3.937 1.35 1.036 1.036 0 0 0 1.27-1.636 8.4 8.4 0 0 0-5.207-1.785 8.495 8.495 0 0 0 0 16.99 8.4 8.4 0 0 0 5.208-1.785 1.035 1.035 0 0 0-.638-1.852"/><path d="M10.503 8.646a3.3 3.3 0 0 1 1.963.643 1.027 1.027 0 0 0 1.211-1.66 5.39 5.39 0 1 0 2.22 4.355 1.03 1.03 0 0 0-1.027-1.027h-3.41a1.027 1.027 0 0 0 0 2.055h2.22a3.339 3.339 0 1 1-3.177-4.366M17.57 8a1 1 0 0 0-.329-.059.95.95 0 0 0-.399.09.954.954 0 0 0-.464 1.262 6.42 6.42 0 0 1 0 5.383.954.954 0 0 0 .464 1.263.95.95 0 0 0 1.262-.464 8.32 8.32 0 0 0 0-6.981A.95.95 0 0 0 17.57 8"/><path d="M20.753 6.795a.951.951 0 0 0-1.694.867 9.52 9.52 0 0 1 0 8.645.951.951 0 1 0 1.693.867 11.42 11.42 0 0 0 .001-10.379"/></svg>