<svg xmlns="http://www.w3.org/2000/svg" viewBox="0 0 24 24"><path d="M15.924 13.8c.072-.594.126-1.188.126-1.8s-.054-1.206-.126-1.8h3.042c.144.576.234 1.179.234 1.8s-.09 1.224-.234 1.8m-4.635 5.004c.54-.999.954-2.079 1.242-3.204h2.655a7.23 7.23 0 0 1-3.897 3.204m-.225-5.004H9.894c-.09-.594-.144-1.188-.144-1.8s.054-1.215.144-1.8h4.212c.081.585.144 1.188.144 1.8s-.063 1.206-.144 1.8M12 19.164c-.747-1.08-1.35-2.277-1.719-3.564h3.438c-.369 1.287-.972 2.484-1.719 3.564M8.4 8.4H5.772A7.13 7.13 0 0 1 9.66 5.196c-.54.999-.945 2.079-1.26 3.204m-2.628 7.2H8.4c.315 1.125.72 2.205 1.26 3.204A7.2 7.2 0 0 1 5.772 15.6m-.738-1.8C4.89 13.224 4.8 12.621 4.8 12s.09-1.224.234-1.8h3.042c-.072.594-.126 1.188-.126 1.8s.054 1.206.126 1.8M12 4.827A12.3 12.3 0 0 1 13.719 8.4h-3.438A12.3 12.3 0 0 1 12 4.827M18.228 8.4h-2.655a14 14 0 0 0-1.242-3.204A7.2 7.2 0 0 1 18.228 8.4M12 3c-4.977 0-9 4.05-9 9a9 9 0 0 0 9 9 9 9 0 0 0 9-9 9 9 0 0 0-9-9"/></svg>