<svg xmlns="http://www.w3.org/2000/svg" width="24" height="24" fill="none" viewBox="0 0 24 24"><path fill="#000" d="m17.365 2 .001.004q.243.365.456.751.072.132.14.266.147.283.277.575c.04.092.083.184.12.277q.162.391.293.798.01.032.022.063.133.44.229.895a10 10 0 0 1 .158.964q.017.14.032.284c.03.317.05.639.05.964 0 3.9-2.137 7.299-5.3 9.101-.732.418-1.52.744-2.349.977a10 10 0 0 1-1.23.262c-.108.017-.216.037-.325.05-.42.052-.84.086-1.272.086-.325 0-.647-.02-.964-.048q-.143-.015-.284-.034a11 11 0 0 1-.689-.104q-.138-.024-.275-.052a10 10 0 0 1-.895-.229l-.063-.024a11 11 0 0 1-.798-.29q-.14-.058-.277-.121a10 10 0 0 1-.575-.277 11 11 0 0 1-1.017-.597l-.004-.002a10.47 10.47 0 0 0 8.698 4.635C17.31 21.174 22 16.484 22 10.698 22 7.075 20.16 3.88 17.365 2M4.37 3.079a11 11 0 0 0-.927.978c-.745.894-1.29 1.96-1.41 3.118a6.66 6.66 0 0 0 3.571 6.585 6.64 6.64 0 0 1-.747-3.062c0-1.815.728-3.46 1.905-4.662V3.08zm7.154 0v3.333a2.38 2.38 0 0 1-1.862 2.322A2.376 2.376 0 0 0 12 10.698a2.38 2.38 0 0 0 2.381-2.381V5.936h.952l-.952-2.857z"/></svg>