<svg xmlns="http://www.w3.org/2000/svg" width="192" height="192" viewBox="0 0 192 192"><path d="m138.92 19.306.008.032q1.944 2.92 3.648 6.008.576 1.056 1.12 2.128 1.176 2.264 2.216 4.6c.32.736.664 1.472.96 2.216q1.296 3.127 2.344 6.383.08.256.176.504 1.064 3.52 1.832 7.16a79.998 79.998 0 0 1 1.264 7.712q.136 1.12.256 2.272c.24 2.536.4 5.112.4 7.712 0 31.199-17.096 58.39-42.4 72.806-5.855 3.343-12.16 5.951-18.79 7.815a79.998 79.998 0 0 1-9.84 2.096c-.864.136-1.728.296-2.6.4-3.36.416-6.72.688-10.176.688-2.6 0-5.176-.16-7.712-.384q-1.144-.12-2.272-.272a87.998 87.998 0 0 1-5.511-.832q-1.104-.192-2.2-.416a79.998 79.998 0 0 1-7.16-1.832l-.504-.192a87.998 87.998 0 0 1-6.384-2.32q-1.12-.464-2.216-.968a79.998 79.998 0 0 1-4.6-2.215 87.998 87.998 0 0 1-8.135-4.776l-.032-.016a83.758 83.758 0 0 0 69.582 37.079c46.287 0 83.806-37.52 83.806-83.806 0-28.983-14.72-54.542-37.08-69.582M34.96 27.937a87.998 87.998 0 0 0-7.415 7.824c-5.96 7.152-10.32 15.68-11.28 24.943a53.279 53.279 0 0 0 28.567 52.68 53.119 53.119 0 0 1-5.976-24.496c0-14.52 5.824-27.679 15.24-37.295V27.946zm57.23 0V54.6a19.039 19.039 0 0 1-14.895 18.575 19.007 19.007 0 0 0 18.703 15.712 19.039 19.039 0 0 0 19.047-19.047V50.793h7.615l-7.615-22.855z"/></svg>