<svg xmlns="http://www.w3.org/2000/svg" viewBox="0 0 24 24"><path d="M16.797 14.502v.328c.02.002.042 0 .047-.025.024-.051.043-.108.093-.139.085-.062.196-.037.294-.042v.733c.003.083-.064.153-.141.174-.032.014-.081.014-.09.055.275.004.551.01.826-.003-.037-.058-.124-.043-.171-.093-.105-.086-.047-.233-.065-.348l-.001-.032c.007-.162 0-.324.003-.486.106.003.23-.022.314.06.054.04.047.126.108.156.02-.11.004-.226.01-.338h-1.227zm-1.508 0a.687.687 0 0 0-.352.09.535.535 0 0 0-.272.39.533.533 0 0 0 .039.266l.017.024c.096.19.307.302.515.315.18.012.38-.03.506-.17.044-.054.09-.116.088-.188-.044.043-.07.101-.121.139a.406.406 0 0 1-.529-.027.454.454 0 0 1 .049-.669.35.35 0 0 1 .437.041c.052.048.08.114.121.17a.917.917 0 0 0-.011-.317c-.042.003-.084.015-.127.016-.05-.01-.095-.033-.143-.048a.778.778 0 0 0-.217-.032zm-2.501-.026.047.11c-.042.09-.083.182-.123.274l-.024.052c-.076.17-.15.34-.227.509a.19.19 0 0 1-.118.109c-.033.015-.084.013-.094.057.133.006.267 0 .4.003.03-.004.07.01.09-.021-.052-.037-.148-.03-.161-.105.003-.084.054-.156.086-.232.153.003.307 0 .46.002.027.065.062.127.082.194a.077.077 0 0 1-.05.097c-.036.02-.094.014-.104.063.243.001.485.004.728-.001-.01-.044-.062-.042-.095-.058-.06-.016-.101-.068-.123-.123l-.414-.93h-.36zm.105.238.184.413h-.368zm-2.607-.212c-.025 0-.05 0-.071.014.029.023.063.037.097.053a.177.177 0 0 1 .095.163v.624c.003.082-.061.151-.136.173-.033.017-.088.013-.093.06h.82c-.004-.042-.049-.042-.078-.055-.073-.018-.14-.074-.15-.151-.005-.074 0-.147-.002-.22.12 0 .246.005.36-.042.1-.039.198-.107.235-.212a.248.248 0 0 0-.063-.256.565.565 0 0 0-.4-.15c-.196-.002-.392 0-.589-.001h-.025zm.482.076a.254.254 0 0 1 .147.447.498.498 0 0 0-.062.039.47.47 0 0 1-.084.02v-.506zm-2.539-.079c-.186.008-.373-.001-.56.005l.005.028c.076.03.163.074.171.166.006.22.002.44.003.66.003.079-.06.148-.133.17-.035.015-.082.016-.1.055.125.013.25.003.377.007.036-.004.08.01.109-.018-.04-.032-.095-.051-.12-.1a.29.29 0 0 1-.027-.15c.001-.194-.001-.387.001-.58.041.076.066.162.112.236l-.005.016.022.03c.08.19.17.379.251.57.052-.025.081-.078.104-.129l.315-.703v.577c.002.06-.01.127-.056.17-.028.028-.08.034-.085.079.215.004.43 0 .646.002.03-.005.071.011.09-.022-.055-.032-.122-.036-.171-.078a.168.168 0 0 1-.063-.133v-.626a.178.178 0 0 1 .109-.169c.028-.015.07-.02.076-.058-.182-.004-.363 0-.545-.003-.09.195-.174.39-.262.586-.09-.195-.174-.393-.264-.588zm-1.522.003c-.245.001-.49-.002-.734.001.003.045.058.042.09.058.075.02.14.089.138.17v.626c.004.082-.062.152-.138.173-.033.015-.084.013-.092.057.246.006.491 0 .736.003.03-.004.07.01.09-.021-.037-.02-.078-.033-.118-.047-.067-.026-.119-.092-.116-.165v-.59c-.004-.054.006-.112.047-.15.048-.057.128-.058.188-.097-.023-.027-.06-.015-.091-.018zm15.291-4.497c-.154.017-.303.065-.454.093-.414.093-.828.183-1.241.277-.024 0-.066.033-.033.053.097.036.21.045.284.126.1.092.112.235.106.362a8.64 8.64 0 0 0 0 .36c-.003.19-.002.38 0 .57-.004.116 0 .233-.002.35-.18-.151-.36-.304-.542-.455l-.561-.471-.682-.573c-.242.035-.485.073-.728.107-.038.012-.117-.005-.11.056.061.055.156.04.227.08.124.053.188.192.175.323v.55c0 .156-.002.312 0 .467v.429l-.001.377a.58.58 0 0 1-.046.294.493.493 0 0 1-.223.213c-.042.024-.093.035-.127.07-.016.044.042.039.068.04.108-.003.217.003.326-.004h.01c.286.007.572.001.858.003.156-.003.313.007.468-.005.03-.033-.019-.055-.043-.067a.614.614 0 0 1-.248-.17.477.477 0 0 1-.099-.337v-1.52c.078.064.154.13.232.193.123.104.245.208.369.31.225.191.453.38.678.572v.049a1.572 1.572 0 0 0 .156.655 1.34 1.34 0 0 0 .68.624c.033.013.086.027.101-.018.014-.178.005-.357.005-.536.005-.199 0-.398.002-.596-.002-.216.004-.432-.004-.647.008-.252.003-.504.002-.756.004-.286 0-.573.002-.86.007-.205.145-.385.314-.49.03-.028.095-.047.081-.098zm-5.323 1.222c-.123 0-.245.002-.368.006l.003.035c.096.051.217.05.3.128.08.061.106.165.095.262v.802c0 .152-.002.304 0 .456-.002.062 0 .124 0 .186 0 .096.002.192-.003.288-.035.132-.166.207-.293.232-.04.015-.11.015-.107.073a.666.666 0 0 0 .134.003h.048c.404.006.81 0 1.214.002.026-.001.08.008.068-.035-.05-.04-.117-.04-.174-.063a.357.357 0 0 1-.202-.155l-.014-.003.004-.014c-.02-.076-.014-.156-.014-.234v-1.472c.004-.085-.016-.18.033-.255.055-.094.16-.14.262-.163.04-.015.107-.015.11-.072-.16-.014-.323-.002-.484-.006-.204.002-.408-.001-.612-.001zm.757 1.231v.465l.005-.01c.249.1.489.222.713.37a1.887 1.887 0 0 0-.718-.825m-1.07-.355a.658.658 0 0 0-.092.006.208.208 0 0 0-.085.033c.016.086.03.182-.016.261-.018.035-.056.05-.081.078a.285.285 0 0 0-.219.139c-.012.015-.021.051.01.048.253.003.507.017.758.05v-.581c-.09-.016-.183-.033-.275-.034zm-2.065-.876c-.366.004-.732-.003-1.097.004-.004.067.076.07.118.101.109.067.134.206.124.324.002.098-.001.196.002.294l.003.012a.721.721 0 0 0-.004.117v.453c0 .06-.004.122.006.183l-.002-.012.008.032-.01.013c-.006.123-.001.246-.003.369v.27a.824.824 0 0 1-.067.26l.004.012-.011.002a1.319 1.319 0 0 1-.26.305c.303.008.561-.178.852-.235a1.92 1.92 0 0 1 .338-.031c.02-.056-.049-.07-.085-.09-.097-.042-.146-.149-.152-.249 0-.089.002-.177 0-.266a5.394 5.394 0 0 0-.002-.26c.002-.075.063-.147.142-.144.251 0 .502-.003.753.002.02.01.04.021.062.027.035.04.045.09.056.14l-.011.012.008.03c-.012.041-.005.084-.005.127 0 .108-.003.216 0 .325-.005.101-.052.21-.149.254-.038.022-.105.032-.093.09.365.002.73.004 1.096 0 .023-.053-.046-.066-.08-.086-.096-.039-.147-.143-.157-.242 0-.085.002-.171-.001-.257.004-.13.002-.262 0-.392.004-.148.002-.297 0-.445.006-.2-.001-.402.001-.603 0-.081-.004-.167.036-.241a.256.256 0 0 1 .143-.127c.028-.013.083-.034.057-.075-.365-.003-.73-.003-1.096 0-.008.059.06.068.097.091.094.043.137.147.147.244-.003.186 0 .373-.002.559.002.046-.026.084-.056.117-.029.012-.059.026-.091.025h-.698c-.06.006-.114-.03-.147-.078-.02-.104-.006-.211-.01-.317v-.198c-.01-.128.014-.285.14-.35.037-.024.119-.034.096-.096zm-2.386-.53a.987.987 0 0 0-.152.012.94.94 0 0 0-.635.375.83.83 0 0 0-.118.258l.001.002a.937.937 0 0 0 .04.535h.001c.042.116.11.221.194.311h.002c.107.105.234.188.358.27.253.184.52.348.769.54a.417.417 0 0 1 .132.24.606.606 0 0 1-.038.239.416.416 0 0 1-.204.204.586.586 0 0 1-.335.034 1.567 1.567 0 0 1-.158-.034 1.12 1.12 0 0 1-.287-.14 4.598 4.598 0 0 1-.09-.072l-.043-.037a1.842 1.842 0 0 1-.235-.29c-.074-.108-.12-.234-.2-.338-.032.11-.03.225-.032.337a1.81 1.81 0 0 0 .045.405.757.757 0 0 0 .17.347c.132-.08.3-.07.44-.02.232.075.48.092.721.068.112-.011.222-.04.327-.079a.824.824 0 0 0 .36-.284.917.917 0 0 0 .146-.4l.003.002c.01-.078.013-.157.013-.236a.965.965 0 0 0-.135-.477 1.326 1.326 0 0 0-.196-.232c-.18-.15-.378-.275-.569-.41-.173-.119-.351-.233-.521-.358-.102-.082-.174-.21-.15-.343a.305.305 0 0 1 .119-.19c.113-.077.258-.08.389-.065a.65.65 0 0 1 .432.233h.002c.069.083.109.186.172.274.123.089.253.18.4.222.003-.075-.027-.144-.052-.212a5.652 5.652 0 0 0-.124-.3 2.94 2.94 0 0 0-.191-.333c-.1.048-.214.027-.318.004a2.08 2.08 0 0 0-.453-.062zm-1.68.53c-.182 0-.365.001-.547.003-.028.054.049.067.082.087.13.057.165.216.153.345v1.099l-.082-.104c-.106-.138-.215-.274-.322-.412a64.26 64.26 0 0 1-.197-.253l-.183-.234-.414-.53c-.22.001-.442-.003-.662.002l-.001.04c.054.044.132.056.172.118.087.108.058.252.064.38 0 .113-.002.226 0 .34v.603l-.001.434c-.002.107.012.217-.02.32a.332.332 0 0 1-.078.112c-.037.032-.087.044-.128.071-.02.01-.011.036-.01.053.365-.002.73.002 1.095-.002.013-.058-.053-.069-.09-.09-.071-.03-.114-.099-.139-.168-.022-.12-.006-.244-.012-.366v-1.078l-.001-.036a.196.196 0 0 0 .009-.005c.036.053.077.103.116.154l.135.172.25.32c.07.09.14.181.212.271.107.135.21.275.32.408.089.12.183.235.274.354.051.066.108.127.169.184.094.08.211.14.337.149-.018-.06-.06-.108-.088-.163l-.012-.005.006-.008c-.022-.077-.054-.152-.07-.232a1.997 1.997 0 0 1-.026-.21c-.008-.142-.004-.283-.005-.425v-.47c.001-.147 0-.743-.001-.837-.005-.114.036-.245.146-.297.039-.023.104-.032.097-.091a62.488 62.488 0 0 0-.547-.002zm-2.786.875c-.044 0-.09.006-.132.01a2.37 2.37 0 0 0-1.178.508 2.11 2.11 0 0 0-.304.33c-.073.106-.14.215-.19.333a3.954 3.954 0 0 1 .419-.238v.065a.771.771 0 0 1-.052.32l.005.011-.014.004c-.077.153-.214.26-.338.37.095.003.186-.027.278-.045.247-.052.5-.07.751-.07h1.164a1.745 1.745 0 0 0 .142-.7c-.002-.025.001-.064-.03-.074a.984.984 0 0 1-.23.374.612.612 0 0 1-.407.177h-.516c-.043.002-.077-.026-.108-.05-.014-.034-.03-.067-.027-.104v-.514l.083-.02c.06-.014.12-.027.18-.038a5.57 5.57 0 0 1 .944-.082.292.292 0 0 0 .053-.009.259.259 0 0 0-.1-.131c-.058-.034-.125-.047-.18-.084-.087-.074-.073-.203-.052-.303a.286.286 0 0 0-.161-.04zm-1.668-1.04h-.03c.078.079.185.132.238.234.076.145.077.314.074.473.002.135 0 .27 0 .406v.436c.076-.074.157-.143.242-.204.119-.085.246-.159.377-.222v-.399c.002-.076-.004-.152.003-.228a.142.142 0 0 1 .15-.118c.148 0 .297-.001.445.002.124.003.24.059.332.138a.94.94 0 0 1 .24.39l.02-.023c.017-.124-.004-.25-.023-.374a2.694 2.694 0 0 0-.099-.345c-.43 0-.863.005-1.292-.043a7.285 7.285 0 0 1-.586-.112.422.422 0 0 0-.091-.011zm-1.865-1.28c-.127 0-.254.011-.379.036a1.87 1.87 0 0 0-1.093.692 2.096 2.096 0 0 0-.337.644 2.191 2.191 0 0 0 .039 1.438h.002c.05.14.12.273.202.399.012.011.017.04.037.039l-.009.002c.11.16.245.303.396.425h.005a1.818 1.818 0 0 0 1.237.394c.421-.015.853-.098 1.216-.319.112-.057.212-.139.299-.23l.001-.268c0-.14.003-.281 0-.422.005-.091-.01-.187.027-.274l-.003.004a.383.383 0 0 1 .169-.165c.065-.036.148-.036.206-.085l-.002-.04c-.048-.006-.097-.003-.146-.003H3.995c-.035-.01-.08.024-.052.06.042.041.106.047.16.064.16.034.316.108.417.24a.43.43 0 0 1 .064.197c.003.209-.001.418.002.627-.008.108-.008.22-.054.319-.085.092-.222.053-.332.058a.99.99 0 0 1-.51-.24 1.497 1.497 0 0 1-.324-.419 2.173 2.173 0 0 1-.227-.718 3.062 3.062 0 0 1-.021-.49c.012-.205.046-.41.103-.607h.002a1.94 1.94 0 0 1 .3-.602 1.32 1.32 0 0 1 .297-.281.835.835 0 0 1 .658-.128c.243.056.444.222.594.415a1.9 1.9 0 0 1 .308.639c.014.044.02.095.056.128.06-.112.047-.244.06-.366.007-.123.01-.245.01-.368-.004-.124.003-.252-.037-.37-.222.005-.433-.075-.625-.18a1.944 1.944 0 0 0-.932-.245zm8.09-1.376c-.016 0-.03.01-.034.03-.063.21-.12.426-.24.612a.487.487 0 0 1-.176.163c-.17.097-.359.15-.544.209a.17.17 0 0 0-.074.047.207.207 0 0 0 .07.044c.2.064.407.12.586.233.105.066.167.178.219.287h.002c.066.153.111.313.16.471.013.046.068.019.069-.019.04-.152.092-.3.149-.447l-.004-.01.012-.004c.034-.057.06-.12.102-.172a.578.578 0 0 1 .204-.158 9.17 9.17 0 0 1 .084-.04c.133-.055.27-.097.408-.14.027-.011.072-.02.064-.059a.245.245 0 0 0-.086-.041c-.181-.055-.364-.11-.528-.205a.483.483 0 0 1-.174-.165c-.116-.185-.173-.398-.235-.604a.036.036 0 0 0-.034-.032zm1.734 1.218a.196.196 0 0 0-.145.054c-.054.056-.086.13-.127.194a.74.74 0 0 1-.237.263c-.026.018-.066.014-.081.046a.37.37 0 0 0-.046.125c.27.08.554.089.833.124.441.055.888.136 1.29.335l.104.056c-.074-.018-.146-.042-.218-.063-.012.036-.014.082-.05.105-.074.05-.171.06-.238.12.114.015.23.005.343-.017.22-.042.445-.124.606-.287l.002.001a.338.338 0 0 0 .062-.163 2.767 2.767 0 0 0-.896-.538 9.174 9.174 0 0 0-1.13-.344.276.276 0 0 0-.072-.01zm-3.46 0a.218.218 0 0 0-.069.009 9.47 9.47 0 0 0-1.02.301c-.25.09-.493.2-.714.347-.09.06-.176.125-.258.195-.019.017-.04.035-.046.062.026.16.18.248.312.315.218.1.463.157.703.13-.072-.06-.171-.07-.246-.124-.031-.023-.032-.064-.04-.098-.074.015-.144.043-.217.06.068-.041.14-.072.21-.108.375-.16.779-.23 1.18-.285.28-.03.565-.04.835-.124-.022-.061-.033-.15-.111-.16-.169-.087-.25-.269-.347-.422a.204.204 0 0 0-.172-.098z"/></svg>