<svg xmlns="http://www.w3.org/2000/svg" viewBox="0 0 192 192"><path d="M134.37 116.02v2.624c.16.016.336 0 .376-.2.192-.408.344-.864.744-1.112.68-.496 1.568-.296 2.352-.336v5.864c.024.664-.512 1.224-1.128 1.392-.256.112-.648.112-.72.44 2.2.033 4.408.08 6.608-.023-.296-.465-.992-.345-1.368-.745-.84-.688-.376-1.864-.52-2.784l-.008-.256c.056-1.296 0-2.592.024-3.888.848.024 1.84-.176 2.512.48.432.32.376 1.008.864 1.248.16-.88.032-1.808.08-2.704zm-12.065 0a5.6 5.6 0 0 0-2.816.72 4.32 4.32 0 0 0-2.176 3.12 4.24 4.24 0 0 0 .312 2.128l.136.192c.768 1.52 2.456 2.416 4.12 2.52 1.44.096 3.04-.24 4.048-1.36.352-.432.72-.928.704-1.504-.352.344-.56.808-.968 1.112a3.248 3.248 0 0 1-4.232-.216 3.632 3.632 0 0 1 .392-5.352 2.8 2.8 0 0 1 3.496.328c.416.384.64.912.968 1.36a7.2 7.2 0 0 0-.088-2.536c-.336.024-.672.12-1.016.128-.4-.08-.76-.264-1.144-.384a6.4 6.4 0 0 0-1.736-.256m-20.009-.208.376.88q-.504 1.088-.984 2.192l-.192.416-1.816 4.072a1.6 1.6 0 0 1-.944.872c-.264.12-.672.104-.752.456 1.064.048 2.136 0 3.2.024.24-.032.56.08.72-.168-.416-.296-1.184-.24-1.288-.84.024-.672.432-1.248.688-1.856 1.224.024 2.456 0 3.68.016.216.52.496 1.016.656 1.552a.616.616 0 0 1-.4.776c-.288.16-.752.112-.832.504 1.944.008 3.88.032 5.825-.008-.08-.352-.496-.336-.76-.464-.48-.128-.808-.544-.984-.984l-3.313-7.44zm.84 1.904 1.472 3.304h-2.944zM82.28 116.02c-.2 0-.4 0-.568.112.232.184.504.296.776.424a1.44 1.44 0 0 1 .76 1.304v4.992c.024.656-.488 1.208-1.088 1.384-.264.136-.704.104-.744.48h6.56c-.031-.336-.391-.336-.624-.44-.584-.144-1.12-.592-1.2-1.208-.04-.592 0-1.176-.016-1.76.96 0 1.968.04 2.88-.336.8-.312 1.585-.856 1.88-1.696a2 2 0 0 0-.503-2.048 4.48 4.48 0 0 0-3.2-1.2l-4.713-.008zm3.856.608a2.032 2.032 0 0 1 1.177 3.576l-.497.312-.672.16zm-20.313-.632c-1.488.064-2.984-.008-4.48.04l.04.224c.608.24 1.304.592 1.368 1.328.048 1.76.016 3.52.024 5.28.024.632-.48 1.184-1.064 1.36-.28.12-.656.128-.8.44 1 .104 2 .024 3.016.056.288-.032.64.08.872-.144-.32-.256-.76-.408-.96-.8a2.4 2.4 0 0 1-.216-1.2l.008-4.64c.328.608.528 1.296.896 1.888l-.04.128.176.24c.64 1.52 1.36 3.032 2.009 4.56.416-.2.648-.624.832-1.032l2.52-5.624v4.616c.016.48-.08 1.016-.448 1.36-.224.225-.64.273-.68.633 1.72.032 3.44 0 5.168.016.24-.04.568.088.72-.176-.44-.256-.976-.288-1.368-.624a1.36 1.36 0 0 1-.504-1.064v-5.009a1.44 1.44 0 0 1 .872-1.352c.224-.12.56-.16.608-.464-1.456-.032-2.904 0-4.36-.024-.72 1.56-1.393 3.12-2.097 4.688-.72-1.56-1.392-3.144-2.112-4.704m-12.177.024c-1.96.008-3.92-.016-5.872.008.024.36.464.336.72.464.6.16 1.12.712 1.104 1.36v5.009c.032.656-.496 1.216-1.104 1.384-.264.12-.672.104-.736.456 1.968.048 3.928 0 5.888.024.24-.032.56.08.72-.168q-.456-.224-.944-.376c-.536-.208-.952-.736-.928-1.32v-4.72c-.032-.433.048-.897.376-1.2.384-.457 1.024-.465 1.504-.777-.184-.216-.48-.12-.728-.144m122.33-35.978c-1.232.136-2.424.52-3.632.744l-9.928 2.216c-.192 0-.528.264-.264.424.776.288 1.68.36 2.272 1.008.8.736.896 1.88.848 2.897a72.003 72.003 0 0 0 0 2.88q-.032 2.28 0 4.56c-.032.928 0 1.864-.016 2.8l-4.336-3.64-4.488-3.768-5.457-4.585-5.824.856c-.304.096-.936-.04-.88.448.488.44 1.248.32 1.816.64.992.424 1.504 1.537 1.4 2.585v11.569l-.008 3.016a4.8 4.8 0 0 1-.368 2.352 4 4 0 0 1-1.784 1.704c-.336.192-.744.28-1.016.56-.128.352.336.312.544.32.864-.024 1.736.024 2.608-.032h.08c2.288.056 4.576.008 6.865.024 1.248-.024 2.504.056 3.744-.04.24-.264-.152-.44-.344-.536a4.8 4.8 0 0 1-1.984-1.36 3.84 3.84 0 0 1-.792-2.696V92.827l1.856 1.544q1.472 1.248 2.952 2.48l5.424 4.576v.392a12.801 12.801 0 0 0 1.248 5.24 10.72 10.72 0 0 0 5.44 4.992c.264.104.688.216.808-.144.112-1.424.04-2.856.04-4.288.04-1.592 0-3.184.016-4.768-.016-1.728.032-3.456-.032-5.176.064-2.016.024-4.032.016-6.048.032-2.289 0-4.585.016-6.88.056-1.64 1.16-3.08 2.512-3.921.24-.224.76-.376.648-.784m-42.586 9.776q-1.472 0-2.944.048l.024.28c.768.408 1.736.4 2.4 1.024.64.488.848 1.32.76 2.097v11.553c0 .768.016 1.536-.024 2.304-.28 1.056-1.328 1.656-2.344 1.856-.32.12-.88.12-.856.584a8 8 0 0 0 1.072.024h.384c3.232.048 6.48 0 9.713.016.208-.008.64.064.544-.28-.4-.32-.936-.32-1.392-.504a2.88 2.88 0 0 1-1.616-1.24l-.112-.024.032-.112c-.16-.608-.112-1.248-.112-1.872V93.795c.032-.68-.128-1.44.264-2.04.44-.753 1.28-1.12 2.096-1.305.32-.12.856-.12.88-.576-1.28-.112-2.584-.016-3.873-.048q-2.448.008-4.896-.008m6.057 9.849v3.72l.04-.08q3 1.192 5.704 2.96a15.201 15.201 0 0 0-5.745-6.6m-8.56-2.84a8 8 0 0 0-.736.048 1.6 1.6 0 0 0-.68.264c.128.688.24 1.456-.128 2.088-.144.28-.448.4-.648.624a2.24 2.24 0 0 0-1.752 1.112c-.096.12-.168.408.08.384q3.04.016 6.064.4v-4.648c-.72-.128-1.464-.264-2.2-.272m-16.52-7.009c-2.929.032-5.857-.024-8.777.032-.032.536.608.56.944.808.872.536 1.072 1.648.992 2.592.016.785-.008 1.569.016 2.353l.024.096a8 8 0 0 0-.032.936v3.624c0 .48-.032.976.048 1.464l-.016-.096.064.256-.08.104c-.048.984-.008 1.968-.024 2.952v2.16a6.4 6.4 0 0 1-.536 2.08l.032.096-.088.016a10.4 10.4 0 0 1-2.08 2.44c2.424.064 4.488-1.424 6.816-1.88a16.001 16.001 0 0 1 2.704-.248c.16-.448-.392-.56-.68-.72-.776-.336-1.168-1.192-1.216-1.992q.016-1.064 0-2.128a40.002 40.002 0 0 0-.016-2.08c.016-.6.504-1.176 1.136-1.152 2.008 0 4.016-.024 6.024.016q.24.136.496.216c.28.32.36.72.448 1.12l-.088.096.064.24c-.096.328-.04.672-.04 1.016 0 .864-.024 1.728 0 2.6-.04.808-.416 1.68-1.192 2.032-.304.176-.84.256-.744.72q4.377.04 8.769 0c.184-.424-.368-.528-.64-.688-.768-.312-1.176-1.144-1.256-1.936q.016-1.024-.008-2.056.04-1.568 0-3.136.04-1.784 0-3.56c.048-1.6-.008-3.216.008-4.825 0-.648-.032-1.336.288-1.928a2.08 2.08 0 0 1 1.144-1.016c.224-.104.664-.272.456-.6q-4.377-.04-8.769 0c-.064.472.48.544.776.728.752.344 1.096 1.176 1.176 1.952-.024 1.489 0 2.985-.016 4.473.016.368-.208.672-.448.936-.232.096-.472.208-.728.2h-5.584c-.48.048-.912-.24-1.176-.624-.16-.832-.048-1.688-.08-2.536v-1.585c-.08-1.024.112-2.28 1.12-2.8.296-.192.952-.272.768-.768m-19.089-4.24a8 8 0 0 0-1.216.096 7.52 7.52 0 0 0-5.08 3 6.4 6.4 0 0 0-.944 2.064l.008.016a7.52 7.52 0 0 0 .32 4.28h.008c.336.929.88 1.769 1.552 2.489h.016c.856.84 1.872 1.504 2.864 2.16 2.024 1.472 4.16 2.784 6.152 4.32a3.36 3.36 0 0 1 1.056 1.92 4.8 4.8 0 0 1-.304 1.912 3.36 3.36 0 0 1-1.632 1.632 4.8 4.8 0 0 1-2.68.272 16.001 16.001 0 0 1-1.264-.272 8.8 8.8 0 0 1-2.296-1.12l-.72-.576-.344-.296a16.001 16.001 0 0 1-1.88-2.32c-.592-.864-.96-1.872-1.6-2.704-.256.88-.24 1.8-.256 2.696a14.401 14.401 0 0 0 .36 3.24 6.08 6.08 0 0 0 1.36 2.776c1.056-.64 2.4-.56 3.52-.16 1.856.6 3.84.736 5.768.544.896-.088 1.776-.32 2.616-.632a6.4 6.4 0 0 0 2.88-2.272 7.2 7.2 0 0 0 1.168-3.2l.024.016q.112-.936.104-1.888a8 8 0 0 0-1.08-3.816 10.4 10.4 0 0 0-1.568-1.856c-1.44-1.2-3.024-2.2-4.552-3.28-1.384-.952-2.808-1.865-4.168-2.865-.816-.656-1.392-1.68-1.2-2.744a2.4 2.4 0 0 1 .952-1.52c.904-.616 2.064-.64 3.112-.52a5.2 5.2 0 0 1 3.456 1.864h.016c.552.664.872 1.488 1.376 2.192.984.712 2.024 1.44 3.2 1.777.024-.6-.216-1.153-.416-1.697a48.002 48.002 0 0 0-.992-2.4 24.001 24.001 0 0 0-1.528-2.664c-.8.384-1.712.216-2.544.032a16.001 16.001 0 0 0-3.624-.496m-13.441 4.24q-2.184 0-4.376.024c-.224.432.392.536.656.696 1.04.456 1.32 1.729 1.224 2.76v8.793l-.656-.832-2.576-3.296-1.576-2.024-1.465-1.872-3.312-4.24c-1.76.007-3.536-.025-5.296.015l-.008.32c.432.352 1.056.448 1.376.944.696.865.464 2.017.512 3.04q-.016 1.36 0 2.72v4.825l-.008 3.472c-.016.856.096 1.736-.16 2.56a2.4 2.4 0 0 1-.624.896c-.296.256-.696.352-1.024.568-.16.08-.088.288-.08.424 2.92-.016 5.84.016 8.76-.016.105-.464-.423-.552-.72-.72-.567-.24-.911-.792-1.111-1.344-.176-.96-.048-1.952-.096-2.928v-8.624l-.008-.288.072-.04q.448.632.928 1.232l1.08 1.376 2 2.56q.832 1.08 1.696 2.168c.856 1.08 1.68 2.2 2.56 3.264.712.96 1.464 1.88 2.192 2.832q.616.792 1.352 1.472c.752.64 1.688 1.12 2.696 1.192-.144-.48-.48-.864-.704-1.304l-.096-.04.048-.064c-.176-.616-.432-1.216-.56-1.856a16.001 16.001 0 0 1-.208-1.68c-.064-1.136-.032-2.264-.04-3.4v-3.76c.008-1.176 0-5.945-.008-6.697-.04-.912.288-1.96 1.168-2.376.312-.184.832-.256.776-.728l-4.376-.016zm-22.29 7q-.543.017-1.055.08a18.961 18.961 0 0 0-9.425 4.065 16.001 16.001 0 0 0-2.432 2.64c-.584.848-1.12 1.72-1.52 2.664a32.001 32.001 0 0 1 3.352-1.904v.52a6.4 6.4 0 0 1-.416 2.56l.04.088-.112.032c-.616 1.224-1.712 2.08-2.704 2.96.76.024 1.488-.216 2.224-.36 1.976-.416 4-.56 6.009-.56h9.312a14.001 14.001 0 0 0 1.136-5.6c-.016-.2.008-.512-.24-.592a8 8 0 0 1-1.84 2.992 4.8 4.8 0 0 1-3.256 1.416H54.49c-.344.016-.616-.208-.864-.4-.112-.272-.24-.536-.216-.832v-4.112l.664-.16q.72-.168 1.44-.304a44.802 44.802 0 0 1 7.552-.656 2.4 2.4 0 0 0 .424-.072 2.08 2.08 0 0 0-.8-1.048c-.464-.272-1-.376-1.44-.672-.696-.592-.584-1.624-.416-2.424a2.4 2.4 0 0 0-1.288-.32M46.2 88.499h-.24c.624.631 1.48 1.055 1.904 1.871.608 1.16.616 2.513.592 3.785q.016 1.616 0 3.248v3.488q.912-.896 1.936-1.632 1.44-1.024 3.016-1.776V94.29c.016-.608-.032-1.216.024-1.824a1.12 1.12 0 0 1 1.2-.944q1.784-.008 3.56.016c.992.024 1.92.472 2.657 1.104a7.52 7.52 0 0 1 1.92 3.12l.16-.184c.136-.992-.032-2-.184-2.992a24.001 24.001 0 0 0-.792-2.76c-3.44 0-6.905.04-10.336-.345a56.002 56.002 0 0 1-4.689-.896 3.2 3.2 0 0 0-.728-.088m-14.92-10.24q-1.529 0-3.033.288a14.961 14.961 0 0 0-8.744 5.537 16.801 16.801 0 0 0-2.696 5.152 17.601 17.601 0 0 0 .312 11.505h.016c.4 1.12.96 2.184 1.616 3.192.096.088.136.32.296.312l-.072.016a16.18 16.18 0 0 0 3.168 3.4h.04a14.561 14.561 0 0 0 9.896 3.152c3.369-.12 6.825-.784 9.729-2.552.896-.456 1.696-1.112 2.392-1.84l.008-2.144c0-1.12.024-2.248 0-3.376.04-.728-.08-1.496.216-2.192l-.024.032a3.2 3.2 0 0 1 1.352-1.32c.52-.289 1.184-.289 1.648-.68l-.016-.32c-.384-.049-.776-.025-1.168-.025H31.943c-.28-.08-.64.192-.416.48.336.328.848.376 1.28.512 1.28.272 2.528.865 3.336 1.92a3.2 3.2 0 0 1 .512 1.577c.024 1.672-.008 3.344.016 5.016-.064.864-.064 1.76-.432 2.552-.68.736-1.776.424-2.656.464a8 8 0 0 1-4.08-1.92 12.001 12.001 0 0 1-2.592-3.352 17.601 17.601 0 0 1-1.816-5.745 24.001 24.001 0 0 1-.168-3.92q.144-2.48.824-4.856h.016a16.001 16.001 0 0 1 2.4-4.816 10.4 10.4 0 0 1 2.376-2.248 6.72 6.72 0 0 1 5.264-1.024c1.944.448 3.552 1.776 4.752 3.32a15.201 15.201 0 0 1 2.464 5.112c.112.352.16.76.448 1.024.48-.896.376-1.952.48-2.928q.08-1.472.08-2.944c-.032-.992.024-2.016-.296-2.96-1.776.04-3.464-.6-5-1.44a15.521 15.521 0 0 0-7.456-1.96M96.002 67.25q-.208 0-.272.24c-.504 1.68-.96 3.409-1.92 4.897a4 4 0 0 1-1.408 1.304c-1.36.776-2.872 1.2-4.352 1.672a1.6 1.6 0 0 0-.593.376 1.6 1.6 0 0 0 .56.352c1.6.512 3.257.96 4.689 1.864.84.528 1.336 1.424 1.752 2.296h.016c.528 1.224.888 2.504 1.28 3.768.104.368.544.152.552-.152q.496-1.816 1.192-3.576l-.032-.08.096-.032c.272-.456.48-.96.816-1.376a4.8 4.8 0 0 1 1.632-1.264l.672-.32c1.064-.44 2.16-.776 3.264-1.12.216-.088.576-.16.512-.472a2.4 2.4 0 0 0-.688-.328c-1.448-.44-2.912-.88-4.224-1.64a4 4 0 0 1-1.392-1.32c-.928-1.48-1.384-3.184-1.88-4.833a.288.288 0 0 0-.272-.256m13.873 9.745a1.6 1.6 0 0 0-1.16.432c-.432.448-.688 1.04-1.016 1.552a5.92 5.92 0 0 1-1.896 2.104c-.208.144-.528.112-.648.368a3.2 3.2 0 0 0-.368 1c2.16.64 4.432.712 6.664.992 3.528.44 7.104 1.088 10.32 2.68l.832.448c-.592-.144-1.168-.336-1.744-.504-.096.288-.112.656-.4.84-.592.4-1.368.48-1.904.96.912.12 1.84.04 2.744-.136 1.76-.336 3.56-.992 4.848-2.296l.016.008a2.72 2.72 0 0 0 .496-1.304 22.401 22.401 0 0 0-7.168-4.304 72.003 72.003 0 0 0-9.04-2.752 2.4 2.4 0 0 0-.577-.08zm-27.681 0a1.6 1.6 0 0 0-.552.072 80.004 80.004 0 0 0-8.16 2.408c-2 .72-3.945 1.6-5.713 2.776q-1.08.72-2.064 1.56c-.152.136-.32.28-.368.496.208 1.28 1.44 1.984 2.496 2.52 1.744.8 3.704 1.256 5.624 1.04-.576-.48-1.368-.56-1.968-.992-.248-.184-.256-.512-.32-.784-.592.12-1.152.344-1.736.48.544-.328 1.12-.576 1.68-.864 3-1.28 6.233-1.84 9.44-2.28 2.24-.24 4.52-.32 6.68-.992-.175-.488-.263-1.2-.887-1.28-1.352-.696-2-2.152-2.776-3.376a1.6 1.6 0 0 0-1.376-.784"/></svg>