<svg xmlns="http://www.w3.org/2000/svg" viewBox="0 0 192 192"><path d="M96 17.99c-44.2 0-80 35.81-80 80a80 80 0 0 0 54.7 75.9c4 .74 5.47-1.73 5.47-3.85 0-1.9-.07-6.93-.1-13.6-22.25 4.83-26.95-10.73-26.95-10.73-3.64-9.24-8.9-11.7-8.9-11.7-7.24-4.97.56-4.86.56-4.86 8.04.56 12.25 8.24 12.25 8.24 7.14 12.23 18.73 8.7 23.3 6.65.73-5.17 2.78-8.7 5.07-10.7-17.76-2-36.44-8.88-36.44-39.54 0-8.73 3.1-15.86 8.24-21.46-.9-2.03-3.6-10.16.7-21.18 0 0 6.7-2.14 22 8.2a76.86 76.86 0 0 1 20-2.7c6.8.05 13.6.93 20 2.7 15.2-10.34 21.9-8.2 21.9-8.2 4.3 11.03 1.6 19.16.8 21.18 5.1 5.6 8.2 12.73 8.2 21.46 0 30.74-18.7 37.5-36.5 39.47 2.8 2.4 5.4 7.3 5.4 14.8 0 10.7-.1 19.3-.1 21.9 0 2.1 1.4 4.6 5.5 3.8a79.76 79.76 0 0 0 54.9-75.8 80 80 0 0 0-80-80"/></svg>