<svg xmlns="http://www.w3.org/2000/svg" xml:space="preserve" width="24" height="24" fill="none" viewBox="0 0 24 24"><path fill="#000" stroke="#000" stroke-width=".125" d="M12 2.596A2.452 2.452 0 1 0 12 7.5a2.452 2.452 0 0 0 0-4.904zm7.487 6.419a2.45 2.45 0 1 0-.002 4.9 2.45 2.45 0 0 0 .002-4.9zM4.513 16.5a2.45 2.45 0 0 0-2.45 2.451 2.45 2.45 0 1 0 4.902 0A2.45 2.45 0 0 0 4.513 16.5zm7.487 0a2.452 2.452 0 1 0 0 4.903 2.452 2.452 0 0 0 0-4.903zm7.487 0a2.452 2.452 0 1 0 0 4.903 2.452 2.452 0 0 0 0-4.903z"/></svg>