<svg xmlns="http://www.w3.org/2000/svg" data-name="Layer 1" viewBox="0 0 24 24"><path d="m19.018 9.326 2.164-.839a9.96 9.96 0 0 0-5.606-5.644l-.853 2.158a7.63 7.63 0 0 1 4.295 4.325M11.925 19.68A7.607 7.607 0 0 1 9.09 5.017l-.864-2.153a9.926 9.926 0 1 0 12.933 12.861L19 14.871a7.61 7.61 0 0 1-7.075 4.81"/><path d="M6.884 12.075a5.041 5.041 0 1 0 5.041-5.04 5.04 5.04 0 0 0-5.041 5.04m7.837 0a2.796 2.796 0 1 1-2.796-2.796 2.796 2.796 0 0 1 2.796 2.796"/><circle cx="11.925" cy="3.31" r="1.31"/><circle cx="20.69" cy="12.157" r="1.31"/></svg>