<svg xmlns="http://www.w3.org/2000/svg" viewBox="0 0 24 24"><path d="M8.32 7.429 8.924 6.4l2.23-3.805c.468-.793 1.224-.793 1.691 0l2.23 3.805 2.725 4.65a6.998 6.998 0 0 1 1.213 3.937A7.018 7.018 0 0 1 12 22a7.018 7.018 0 0 1-7.013-7.013c0-1.459.452-2.813 1.213-3.936l1.643-2.798 1.753 1.753a1.513 1.513 0 0 0 .845 2.12v5.223a1.525 1.525 0 0 0-1.013 1.433c0 .835.677 1.512 1.517 1.512.834 0 1.512-.677 1.512-1.512 0-.66-.42-1.223-1.014-1.433v-5.222c.069-.021.132-.048.195-.08l2.01 2.006a1.514 1.514 0 1 0 .661-.64l-2.02-2.021a1.517 1.517 0 0 0-2.042-2.042z"/></svg>