<svg xmlns="http://www.w3.org/2000/svg" viewBox="0 0 24 24"><path d="m14.58 10.147-.175.245-2.404 3.406-2.402-3.4-.175-.247A3.188 3.188 0 0 1 12 5.1a3.19 3.19 0 0 1 2.578 5.048M12.002 2C8.544 2 5.734 4.823 5.734 8.292c0 1.32.41 2.588 1.181 3.666l.166.232 3.264 4.622s.398.653 1.266.653h.78c.87 0 1.265-.653 1.265-.653l3.262-4.622.166-.233a6.253 6.253 0 0 0 1.181-3.666C18.265 4.822 15.454 2 12 2m-1.762 18.302v-.012c0-.94.744-1.719 1.748-1.719 1.005 0 1.743.766 1.743 1.706v.013c0 .932-.745 1.71-1.755 1.71-.997 0-1.736-.765-1.736-1.698"/></svg>