<svg xmlns="http://www.w3.org/2000/svg" viewBox="0 0 24 24"><path d="M4.766 3.932a2.4 2.4 0 0 0-1.442.328C2.48 4.776 2 5.758 2 6.842v10.945a2.303 2.303 0 0 0 2.287 2.289H7.85v-6.297L12 16.892l4.15-3.113v6.297h3.563A2.304 2.304 0 0 0 22 17.786V6.843c0-1.084-.479-2.066-1.324-2.582s-2.026-.436-2.922.236v-.002l-1.203.902L12 8.811 7.45 5.398l-1.204-.902a2.84 2.84 0 0 0-1.48-.564m-.399 2.035c.16-.097.303-.151.678.129l1.203.902L12 11.311l5.752-4.315 1.201-.9c.377-.283.52-.227.68-.13.16.098.367.367.367.876v10.945c0 .171-.115.289-.287.289H18.15V9.777L12 14.392 5.85 9.777v8.299H4.287A.273.273 0 0 1 4 17.789V6.842c0-.509.208-.778.367-.875"/></svg>