<svg xmlns="http://www.w3.org/2000/svg" width="24" height="24" fill="none" viewBox="0 0 24 24"><path fill="#FFF1C0" d="M6.879 10.633a5.31 5.31 0 0 1 5.13-3.941h8.47A9.986 9.986 0 0 0 4.123 5.86zm5.557 7.787a.74.74 0 0 1-.335.07.65.65 0 0 1-.395-.11.66.66 0 0 1-.22-.305 1.4 1.4 0 0 1-.065-.445v-1.37q0-.2.04-.36a.45.45 0 0 1 .17-.25q.125-.095.37-.095.285 0 .405.155.12.15.12.39a.7.7 0 0 1-.05.28.37.37 0 0 1-.17.185q-.12.06-.33.06h-.275v.595h.39q.326 0 .48.165.155.165.155.45 0 .225-.075.37a.48.48 0 0 1-.215.215"/><path fill="#FFF1C0" fill-rule="evenodd" d="m10.636 21.9-.007.013A10 10 0 0 1 2.12 13.56h19.778a10 10 0 0 1-4.941 7.146A10 10 0 0 1 12.385 22l.008-.014a10 10 0 0 1-1.757-.086m.175-5.635v3.78h.615V19.01l-.055-.255h.02q.03.04.14.115a1.4 1.4 0 0 0 .695.175q.3 0 .555-.145a1.1 1.1 0 0 0 .41-.435 1.4 1.4 0 0 0 .16-.695.9.9 0 0 0-.105-.455.84.84 0 0 0-.255-.3.7.7 0 0 0-.29-.135v-.02a.6.6 0 0 0 .205-.145.9.9 0 0 0 .175-.285q.07-.18.07-.415a1 1 0 0 0-.28-.69.96.96 0 0 0-.355-.235 1.3 1.3 0 0 0-.515-.09q-.405 0-.67.145a.9.9 0 0 0-.395.425 1.7 1.7 0 0 0-.125.695" clip-rule="evenodd"/><path fill="#FFF1C0" d="M2 12v-.061a10 10 0 0 1 1.165-4.61L5.862 12zm6.256 0a3.753 3.753 0 0 1 7.507 0zm13.764 0a10 10 0 0 0-.736-3.744h-5.508A5.3 5.3 0 0 1 17.327 12z"/></svg>