<svg xmlns="http://www.w3.org/2000/svg" viewBox="0 0 24 24"><path d="M18.733 6.334a3.168 3.168 0 0 0-2.831 1.582l-.127.218.909.524a2.272 2.272 0 0 1 .835 3.107l-2.9 5.024.996.575a2.278 2.278 0 0 0 3.107-.835l2.79-4.828a3.635 3.635 0 0 0-1.332-4.969l-.012-.007a3.173 3.173 0 0 0-1.435-.39z"/><path d="m15.775 8.134-4.103 7.107a2.272 2.272 0 0 1-3.108.835l-.99-.575a3.447 3.447 0 0 0 1.052 4.548c1.73.951 3.908.35 4.9-1.368l3.993-6.916a2.272 2.272 0 0 0-.836-3.107z" opacity=".8"/><path d="M13.209 3.463a4.555 4.555 0 0 0-3.845 2.271l-.641 1.111 1.193.687a1.961 1.961 0 0 1 .715 2.683L8.24 14.349l-.652 1.125c-.005.01-.008.018-.014.027l.991.575c1.09.63 2.478.255 3.108-.835l4.226-7.32a3.171 3.171 0 0 1 4.339-1.155l-2.754-1.591L15.58 4.07a4.528 4.528 0 0 0-2.37-.608z" opacity=".6"/><path d="m9.917 7.532-2.103-1.21a1.961 1.961 0 0 0-2.675.715l-2.534 4.36c-1.246 2.145-.503 4.891 1.649 6.137l1.6.92L7.8 19.573l.844.486a3.446 3.446 0 0 1-1.056-4.585l.651-1.125 2.393-4.134a1.962 1.962 0 0 0-.715-2.683z"/></svg>