<svg xmlns="http://www.w3.org/2000/svg" width="192" height="192" viewBox="0 0 192 192"><path d="M43.266 99.58c-12.064.41-20.082 12.039-17.232 25.498 17.694 38.692 63.334 55.599 102.03 37.904a77.007 77.007 0 0 0 32.557-28.073c-19.337 21.485-53.887 29.793-89.097-17.438-9.84-13.219-19.996-18.182-28.253-17.9"/><path d="M50.77 59.742c-17.403-.051-30.375 15.042-31.735 33.25a76.579 76.579 0 0 0 6.999 32.086c-4.8-22.666 21.237-40.146 45.485-7.615 35.218 47.248 69.768 38.93 89.105 17.438a77.007 77.007 0 0 0 11.671-31.188c-5.681 25.446-44.835 38.058-76.279-10.721-15.495-24.017-31.71-33.215-45.246-33.25" opacity=".8"/><path d="M67.626 30.206c-10.507.154-20.817 4.629-30.366 13.151l-.727.727a76.75 76.75 0 0 0-17.498 48.908c2.404-32.368 41.549-54.897 76.98 0 31.488 48.856 70.727 36.125 76.306 10.61l.034-.222a65.028 65.028 0 0 0 .59-10.524v-3.508c-6.776 8.445-27.936 18.54-52.484-20.92-16.266-26.148-34.84-38.486-52.835-38.221" opacity=".6"/><path d="M86.039 18.296c-5.673.026-11.671.958-20.98 4.364-9.31 3.422-20.141 11.252-28.527 21.433 26.02-23.958 57.9-17.49 83.929 24.343 24.548 39.462 45.708 29.365 52.484 20.929a77.007 77.007 0 0 0-2.824-17.352c-8.975 2.618-15.803 1.72-27.012-15.427-14.015-21.433-32.488-38.401-57.07-38.281" opacity=".4"/><path d="M143.11 56.577c11.217 17.172 18.054 18.045 27.038 15.418a77.092 77.092 0 0 0-102.13-50.739c33.84-10.67 57.84 8.941 75.09 35.32" opacity=".2"/></svg>