<svg xmlns="http://www.w3.org/2000/svg" viewBox="0 0 24 24"><path d="M8.02 3.056a2.151 2.151 0 0 0-.946.25l-.025.01L7 3.344a2.163 2.163 0 0 0-.788 2.943L8.269 9.85H4.154A2.162 2.162 0 0 0 2 12.005c0 1.183.971 2.154 2.154 2.154h4.115l-2.057 3.564A2.163 2.163 0 0 0 7 20.665l.05.029.054.018a2.158 2.158 0 0 0 2.838-.835L12 16.313l2.058 3.564a2.158 2.158 0 0 0 2.838.835l.055-.018.049-.03a2.163 2.163 0 0 0 .789-2.941l-2.058-3.564h4.115A2.162 2.162 0 0 0 22 12.005a2.162 2.162 0 0 0-2.154-2.154h-4.115l2.058-3.564A2.163 2.163 0 0 0 17 3.344l-.05-.028-.054-.018a2.158 2.158 0 0 0-2.838.835L12 7.696 9.942 4.133A2.158 2.158 0 0 0 8.02 3.056m7.83 1.127c.196-.013.4.03.586.138.496.288.662.905.375 1.402l-2.975 5.154-1.185-2.052 2.384-4.128a1.02 1.02 0 0 1 .815-.514m-7.8 0c.362-.008.718.173.915.514l2.384 4.128-1.185 2.05L7.19 5.724a1.017 1.017 0 0 1 .375-1.401c.156-.09.32-.134.485-.138zM4.153 10.98h5.95l-1.181 2.05H4.154a1.017 1.017 0 0 1-1.026-1.025c0-.573.453-1.026 1.026-1.026zm9.741 0h5.951c.573 0 1.026.453 1.026 1.026s-.453 1.025-1.026 1.025H15.08zm-4.323 3.18h2.37l-2.977 5.154a1.017 1.017 0 0 1-1.4.375h-.001a1.017 1.017 0 0 1-.375-1.401zm2.487 0h2.369l2.383 4.128a1.017 1.017 0 0 1-.374 1.4h-.001a1.017 1.017 0 0 1-1.401-.374z"/></svg>