<svg xmlns="http://www.w3.org/2000/svg" viewBox="0 0 24 24"><path d="M12 3a8.98 8.98 0 0 0-7.025 3.375l2.964 5.137A4.09 4.09 0 0 1 12 7.908h8.018A9 9 0 0 0 12 3M4.447 7.102A8.96 8.96 0 0 0 3 12a9 9 0 0 0 7.643 8.898l2.962-5.134a4.09 4.09 0 0 1-5.148-1.72l-4.01-6.943zM12 8.727a3.273 3.273 0 0 0 0 6.547 3.273 3.273 0 0 0 0-6.547m2.455 0A4.085 4.085 0 0 1 15.565 14h5.101a1 1 0 0 1 .108.004 9.03 9.03 0 0 0-.387-5.277zM16 15c-.554 0-1 .446-1 1v4c0 .554.446 1 1 1h4c.554 0 1-.446 1-1v-4c0-.554-.446-1-1-1zm.533 1h1.565q.256 0 .48.084.224.078.385.223.168.14.264.33a.9.9 0 0 1 .093.408q0 .318-.156.535a1 1 0 0 1-.379.324v.045q.307.112.49.352a.9.9 0 0 1 .192.588 1 1 0 0 1-.108.463 1.05 1.05 0 0 1-.279.347q-.178.145-.418.223a1.6 1.6 0 0 1-.51.078h-1.619zm.754.676v.955h.754q.263 0 .402-.139a.47.47 0 0 0 .145-.342q0-.194-.139-.334a.52.52 0 0 0-.385-.14zM14 16.715l-2.467 4.273a9 9 0 0 0 2.47-.215 1 1 0 0 1-.003-.107zm3.287 1.564v1.028h.838q.285 0 .436-.139a.5.5 0 0 0 .15-.37.48.48 0 0 0-.156-.368q-.15-.15-.451-.15h-.817z"/></svg>