<svg xmlns="http://www.w3.org/2000/svg" width="24" height="24" fill="none" viewBox="0 0 24 24"><path d="m16.93 7.865-2.432 2.01-2 1.656v8.246A2.22 2.22 0 0 0 14.715 22a2.219 2.219 0 0 0 2.215-2.223z" style="fill:#000"/><path fill="#FBBC04" d="m16.93 4.221-.001-.076V4.11a1.72 1.72 0 0 0-.016-.168l-.003-.025-.007-.05a3.126 3.126 0 0 0-.072-.306 1.525 1.525 0 0 0-.074-.203 2.66 2.66 0 0 0-.07-.15l-.015-.03a1.518 1.518 0 0 0-.061-.107l-.026-.04-.01-.016a2.044 2.044 0 0 0-.293-.36 4.436 4.436 0 0 0-.075-.073l-.002-.003-.052-.045-.026-.023a2.813 2.813 0 0 0-.163-.124l-.017-.011a2.288 2.288 0 0 0-.27-.155l-.089-.04a1.98 1.98 0 0 0-.28-.098 1.663 1.663 0 0 0-.234-.052 2.383 2.383 0 0 0-.358-.03h-.002a3.579 3.579 0 0 0-.186.008 1.239 1.239 0 0 0-.093.01c-.026.004-.053.007-.079.012l-.044.006-.025.005-.036.008a2.144 2.144 0 0 0-.4.126l-.08.037-.099.05a1.489 1.489 0 0 0-.163.097 2.22 2.22 0 0 0-.121.083.908.908 0 0 0-.085.065L7.805 7.063a2.23 2.23 0 0 0-.3 3.127 2.198 2.198 0 0 0 1.706.808c.497 0 .995-.164 1.406-.507l1.882-1.557v-.001l3.626-2.998a2.214 2.214 0 0 0 .805-1.714" style="fill:#000"/></svg>