<svg xmlns="http://www.w3.org/2000/svg" width="24" height="24" fill="none" viewBox="0 0 24 24"><path d="M3 5v14a1 1 45 0 0 1 1h16a1 1 135 0 0 1-1V5a1 1 45 0 0-1-1H4a1 1 135 0 0-1 1Z" style="opacity:1;fill:none;stroke:#000;stroke-width:2;stroke-linecap:butt;stroke-linejoin:miter;stroke-miterlimit:4;stroke-dasharray:none;stroke-opacity:1"/><path d="M14 18h4v2h-4z" style="opacity:1;fill:#000;fill-opacity:1;stroke:none;stroke-width:2;stroke-miterlimit:4;stroke-dasharray:none"/><path d="M12 12a1.5 1.5 0 1 0 0-3 1.5 1.5 0 0 0 0 3m0 .75c-1.001 0-3 .502-3 1.5V15h6v-.75c0-.997-1.999-1.5-3-1.5" style="fill:#000;stroke-width:.375"/><path d="M15.75 10.5a1.125 1.125 0 1 0 0 2.25 1.125 1.125 0 0 0 0-2.25m0 2.813c-.17 0-.38.02-.602.058.203.235.352.537.352.879V15H18v-.562c0-.749-1.5-1.126-2.25-1.126m-1.73.435c-.307.176-.52.407-.52.69v.062h1v-.25c0-.082-.032-.162-.168-.287a1.68 1.68 0 0 0-.312-.215M8.25 10.5a1.125 1.125 0 1 0 0 2.25 1.125 1.125 0 0 0 0-2.25m0 2.813c-.75 0-2.25.376-2.25 1.124V15h2.5v-.75c0-.342.15-.644.352-.879a3.603 3.603 0 0 0-.602-.059m1.73.435a1.68 1.68 0 0 0-.312.215c-.136.125-.168.205-.168.287v.25h1v-.062c0-.283-.213-.514-.52-.69" style="fill:#000;stroke-width:.28125"/></svg>