<svg xmlns="http://www.w3.org/2000/svg" viewBox="0 0 24 24"><path d="M12 3a8.98 8.98 0 0 0-7.025 3.375l2.964 5.137A4.09 4.09 0 0 1 12 7.908h8.018A9 9 0 0 0 12 3zM4.447 7.102A8.957 8.957 0 0 0 3 12c0 4.509 3.316 8.244 7.643 8.898l2.962-5.134a4.088 4.088 0 0 1-5.148-1.72l-4.01-6.943zM12 8.727a3.273 3.273 0 0 0 0 6.547 3.273 3.273 0 0 0 0-6.547m2.455 0A4.085 4.085 0 0 1 15.565 14h5.101c.036 0 .072.001.108.004a9.028 9.028 0 0 0-.387-5.277h-5.932zM16 15c-.554 0-1 .446-1 1v4c0 .554.446 1 1 1h4c.554 0 1-.446 1-1v-4c0-.554-.446-1-1-1zm2.238 1c.307 0 .575.053.807.16.235.107.443.262.625.465l-.508.492a1.337 1.337 0 0 0-.394-.314 1.1 1.1 0 0 0-.526-.12c-.178 0-.345.034-.502.098-.157.06-.294.148-.412.262a1.26 1.26 0 0 0-.273.416c-.068.16-.102.341-.102.541s.034.38.102.545c.067.16.16.298.273.412.118.114.255.203.412.268.157.06.324.091.502.091.214 0 .405-.043.569-.128.167-.09.315-.215.443-.375l.514.486a1.942 1.942 0 0 1-.67.525 2.035 2.035 0 0 1-.86.176c-.285 0-.55-.05-.797-.154a1.984 1.984 0 0 1-1.054-1.055c-.104-.246-.155-.51-.155-.791a1.99 1.99 0 0 1 .579-1.422A1.984 1.984 0 0 1 18.238 16zM14 16.715l-2.467 4.273a9.01 9.01 0 0 0 2.47-.215 1.358 1.358 0 0 1-.003-.107v-3.951z"/></svg>