<svg xmlns="http://www.w3.org/2000/svg" width="24" height="24"><path d="M5.224 2c-1.142.02-2.179.94-2.179 2.216v3.619h6.081a3.618 3.618 0 0 1 3.573 3.004l1.145 6.544 6.004-3.467c1.476-.851 1.476-2.98 0-3.833L6.367 2.3A2.196 2.196 0 0 0 5.224 2Zm2.138 6.962a1.045 1.045 0 1 0-.004 2.09 1.045 1.045 0 0 0 .004-2.09zm-1.994 1.995a1.044 1.044 0 1 0 .005 2.089 1.044 1.044 0 0 0-.005-2.089zm4.009 0a1.044 1.044 0 1 0-.007 2.088 1.044 1.044 0 0 0 .007-2.088zm-2.015 1.994a1.04 1.04 0 1 0 0 2.083 1.043 1.043 0 0 0 0-2.083zm-4.317 3.213v3.619c0 1.704 1.846 2.769 3.322 1.917l4.145-2.393-3.143-3.143Z"/></svg>