<svg xmlns="http://www.w3.org/2000/svg" width="192" height="192" viewBox="0 0 192 192"><path d="M170.79 48.461c-8.24-14.624-26.176-22.376-42.52-18.952-7.4 1.616-14.48 5.16-19.864 10.56L95.982 52.325c-6.096-6.064-11.92-12.912-19.216-17.648a39.84 39.84 0 0 0-26.024-5.632C19.03 32.893 4.502 71.349 26.646 94.709c23.2 22.784 46.24 45.76 69.416 68.584 21.944-21.672 43.824-43.4 65.808-65.008 14.216-12.208 18.664-33.512 8.92-49.832zM57.09 90.829c-4.616-5.04-10.08-9.36-14.272-14.72-5.472-8.12-1.056-20.08 8.4-22.64 5.2-1.712 11.216-.216 15.192 3.504 4.176 4.064 8.24 8.248 12.44 12.288l.032.04A2768 2768 0 0 0 57.09 90.829m38.976 38.384-21.704-21.464c17.04-16.776 34.024-33.616 51-50.44a15.2 15.2 0 0 1 9.92-4.48c13.904-1.04 21.896 15.808 12 25.76-16.992 16.96-34.136 33.76-51.216 50.624"/></svg>