<svg xmlns="http://www.w3.org/2000/svg" viewBox="0 0 24 24"><path d="M12 3a8.98 8.98 0 0 0-7.025 3.375l2.964 5.137A4.09 4.09 0 0 1 12 7.908h8.018A9 9 0 0 0 12 3M4.447 7.102A8.96 8.96 0 0 0 3 12a9 9 0 0 0 7.643 8.898l2.962-5.134a4.09 4.09 0 0 1-5.148-1.72l-4.01-6.943zM12 8.727a3.273 3.273 0 0 0 0 6.547 3.273 3.273 0 0 0 0-6.547m2.455 0A4.085 4.085 0 0 1 15.565 14h5.101a1 1 0 0 1 .108.004 9.03 9.03 0 0 0-.387-5.277zM16 15c-.554 0-1 .446-1 1v4c0 .554.446 1 1 1h4c.554 0 1-.446 1-1v-4c0-.554-.446-1-1-1zm2.238 1q.46 0 .807.16.352.16.625.465l-.508.492a1.3 1.3 0 0 0-.394-.314 1.1 1.1 0 0 0-.526-.12q-.267.001-.502.098-.235.09-.412.262a1.3 1.3 0 0 0-.273.416q-.102.24-.102.541c0 .301.034.38.102.545q.102.24.273.412.177.17.412.268.235.09.502.091.322 0 .569-.128.25-.135.443-.375l.514.486a1.94 1.94 0 0 1-.67.525 2 2 0 0 1-.86.176q-.427.001-.797-.154a1.98 1.98 0 0 1-1.054-1.055 2 2 0 0 1-.155-.791 2 2 0 0 1 .579-1.422A1.98 1.98 0 0 1 18.238 16M14 16.715l-2.467 4.273a9 9 0 0 0 2.47-.215 1 1 0 0 1-.003-.107z"/></svg>