<svg xmlns="http://www.w3.org/2000/svg" viewBox="0 0 24 24"><path d="m11.584 15.091-.718 1.647a.776.776 0 0 1-1.43 0l-.717-1.647a6.341 6.341 0 0 0-3.227-3.269l-1.979-.877c-.63-.28-.63-1.195 0-1.474L5.43 8.62a6.34 6.34 0 0 0 3.274-3.378l.729-1.755a.775.775 0 0 1 1.439 0l.729 1.755a6.34 6.34 0 0 0 3.274 3.378l1.916.851c.63.28.63 1.195 0 1.474l-1.979.877a6.341 6.341 0 0 0-3.227 3.269m6.68 5.192-.202.462a.415.415 0 0 1-.765 0l-.202-.462a3.578 3.578 0 0 0-1.82-1.845l-.622-.276a.434.434 0 0 1 0-.789l.587-.26a3.577 3.577 0 0 0 1.846-1.907l.207-.5a.416.416 0 0 1 .772 0l.208.5a3.573 3.573 0 0 0 1.845 1.906l.589.261a.435.435 0 0 1 0 .79l-.624.275a3.572 3.572 0 0 0-1.818 1.845"/></svg>