<svg xmlns="http://www.w3.org/2000/svg" width="192" height="192" viewBox="0 0 192 192"><path d="M97.264 31.863a62.32 62.32 0 0 0-61.56 45.952c.352-.128-.368.088 0 0-25.832 17.008-26.144 54.072-1.648 72.944l.04-.048-.04.2a44.8 44.8 0 0 0 27.176 9.04H95.72l.2.2h34.616c44.576.352 62.504-57.368 25.568-82.336a62.4 62.4 0 0 0-18.808-30.344l-.288.288.04-.336a62.4 62.4 0 0 0-39.784-15.56m-2.384 27.64a35.6 35.6 0 0 1 23.24 7.664 34.56 34.56 0 0 1 12.416 27.192v3.448c23.528-.464 23.528 35.08 0 34.624H95.912l-.056.056v-.264H61.232a17.6 17.6 0 0 1-7.12-1.536h.016a17.312 17.312 0 1 1 22.912-22.912l20.08-20.08a44.96 44.96 0 0 0-27.056-16.768c.12-.064.272-.168.36-.152a34.56 34.56 0 0 1 24.472-11.264z"/></svg>