<svg xmlns="http://www.w3.org/2000/svg" width="24" height="24" fill="none" viewBox="0 0 24 24"><rect width="16.225" height="5.07" x="3.887" y="3" fill="#000" rx="2.535" style="stroke-width:.899997"/><path d="M6.422 10.592a1.51 1.51 0 0 0-1.535 1.535 1.51 1.51 0 0 0 1.535 1.535h2.537v-1.535c0-.58-.196-1.11-.521-1.535zm-2.535 3.99v3.883A2.53 2.53 0 0 0 6.422 21a2.53 2.53 0 0 0 2.537-2.535v-2.803H6.422c-.99 0-1.891-.415-2.535-1.08" style="fill:#000;stroke-width:.899997"/><rect width="5.07" height="11.408" x="15.042" y="9.592" fill="#000" rx="2.535" style="stroke-width:.899997"/><rect width="5.07" height="9.634" x="9.592" y="-13.521" fill="#000" rx="2.535" style="stroke-width:.899997" transform="rotate(90)"/></svg>