<svg xmlns="http://www.w3.org/2000/svg" width="24" height="24" fill="none" viewBox="0 0 24 24"><path fill="#FFF1C0" d="M6.277 4.38c-.18-.78.242-1.6.862-2.042l.253-.137a1.74 1.74 0 0 1 2.357.747l1.59 3.031c.452.863.136 1.947-.727 2.41 0 0-1.726.905-2.641 1.4A98.857 98.857 0 0 1 6.287 4.41c-.01-.01-.01-.021-.01-.032m11.428 10.788 2.262 2.546a1.81 1.81 0 0 1-.116 2.515l-.063.064-.079.058a1.519 1.519 0 0 0-.078.057c-.622.431-1.527.558-2.19.127-.005-.006-.01-.008-.015-.011-.005-.003-.01-.005-.016-.01-1.6-1.2-2.536-1.905-4.409-3.441.778-.705 2.21-2.042 2.21-2.042a1.757 1.757 0 0 1 2.494.137"/><path fill="#FFF1C0" d="M12.152 18.454c-1.423-1.326-2.827-2.728-4.012-4.65-.648-1.052-1.14-2.1-1.608-3.126L4.766 4.699l-.002.015-.002-.025c-1.871 2.992-1.534 7.293.984 11.378 2.728 4.426 7.364 6.686 11.127 5.717l-.012-.005z"/></svg>