<svg xmlns="http://www.w3.org/2000/svg" width="24" height="24" fill="none" viewBox="0 0 24 24"><path fill="#FFF1C0" d="M16.359 19.949H9V15h4v-2.544l4.897-4.158v.004l2.836-2.406A.77.77 0 0 1 22 6.482v11.036a.77.77 0 0 1-1.267.587l-2.836-2.407v2.712c0 .85-.688 1.539-1.538 1.539"/><path fill="#FFF1C0" d="M17.897 6v-.41c0-.85-.688-1.539-1.538-1.539H6.872L2 8.923v9.487c0 .85.689 1.539 1.538 1.539H7V10.5H2V9h11v1.159z"/><path fill="#FFF1C0" d="M22 17.518a.77.77 0 0 1-1.267.587l-2.836-2.407v2.712c0 .85-.688 1.539-1.538 1.539H8.5V15H13v-2.544l4.897-4.158v.004l2.836-2.406A.77.77 0 0 1 22 6.482z"/></svg>