<svg xmlns="http://www.w3.org/2000/svg" width="24" height="24" fill="none" viewBox="0 0 24 24"><path fill="#FFF1C0" d="M6.879 10.633a5.313 5.313 0 0 1 5.13-3.941h8.47A9.986 9.986 0 0 0 4.123 5.86l2.756 4.773m5.557 7.787a.741.741 0 0 1-.335.07.653.653 0 0 1-.395-.11.664.664 0 0 1-.22-.305 1.406 1.406 0 0 1-.065-.445v-1.37c0-.133.014-.253.04-.36a.446.446 0 0 1 .17-.25c.083-.063.207-.095.37-.095.19 0 .325.052.405.155.08.1.12.23.12.39a.73.73 0 0 1-.05.28.366.366 0 0 1-.17.185c-.08.04-.19.06-.33.06h-.275v.595h.39c.217 0 .377.055.48.165.104.11.155.26.155.45 0 .15-.025.273-.075.37a.48.48 0 0 1-.215.215"/><path fill="#FFF1C0" fill-rule="evenodd" d="m10.636 21.9-.007.013A9.996 9.996 0 0 1 2.12 13.56h19.778a9.997 9.997 0 0 1-4.941 7.146A9.99 9.99 0 0 1 12.385 22l.008-.014a10.16 10.16 0 0 1-1.757-.086m.175-5.635v3.78h.615V19.01l-.055-.255h.02c.02.027.067.065.14.115a1.402 1.402 0 0 0 .695.175c.2 0 .385-.048.555-.145a1.1 1.1 0 0 0 .41-.435 1.4 1.4 0 0 0 .16-.695.927.927 0 0 0-.105-.455.836.836 0 0 0-.255-.3.709.709 0 0 0-.29-.135v-.02a.568.568 0 0 0 .205-.145.88.88 0 0 0 .175-.285c.047-.12.07-.258.07-.415a.999.999 0 0 0-.28-.69.959.959 0 0 0-.355-.235 1.33 1.33 0 0 0-.515-.09c-.27 0-.493.048-.67.145a.907.907 0 0 0-.395.425 1.706 1.706 0 0 0-.125.695" clip-rule="evenodd"/><path fill="#FFF1C0" d="M2 12v-.061a9.995 9.995 0 0 1 1.165-4.61L5.862 12zm6.256 0a3.753 3.753 0 0 1 7.507 0zm13.764 0a9.982 9.982 0 0 0-.736-3.744h-5.508A5.307 5.307 0 0 1 17.327 12h4.692"/></svg>