<svg xmlns="http://www.w3.org/2000/svg" width="192" height="192" viewBox="0 0 192 192"><path d="M62.414 16.001c-2.24.016-4.432.56-6.4 1.6-.824.448-11.56 6.496-9.016 17.584a856 856 0 0 0 13.68 43.68c7.376-4 21.32-11.32 21.32-11.32 6.96-3.736 9.512-12.496 5.864-19.456L75.054 23.641a14.08 14.08 0 0 0-12.64-7.64M41.966 34.105l-1.712 2.096c-15.096 24.152-12.376 58.864 7.952 91.832 26.848 43.576 68.768 53.44 91.256 45.432a14.4 14.4 0 0 1-5.064-2.064c-12.64-8.928-24.344-18.64-36.36-28.392l-3.544-2.888c-21.616-18.56-26.688-26.296-36.808-53.208l-1.512-4.432a856 856 0 0 1-13.728-43.88l-.016-.096-.032-.088a18.4 18.4 0 0 1-.432-4.312m86.28 83.368c-3.2.08-6.432 1.248-9.12 3.68 0 0-11.56 10.768-17.84 16.456 17 14.16 35.424 27.56 35.832 27.96 13.168 8.56 32.536-9.024 20.4-22.784l-18.28-20.52a14.32 14.32 0 0 0-10.992-4.792"/></svg>