<svg xmlns="http://www.w3.org/2000/svg" viewBox="0 0 24 24"><path d="M4.5 18.365h2.34q.02.08.033.193.014.114.014.227 0 .46-.14.867-.14.406-.44.726-.32.34-.767.527t-1.02.187q-.52 0-.98-.187-.46-.187-.8-.52t-.54-.787q-.2-.46-.2-1t.2-.993q.2-.46.54-.793.34-.334.8-.52.46-.187.98-.187.58 0 1.033.2.46.2.787.553l-.62.607q-.233-.247-.52-.373-.287-.134-.687-.134-.326 0-.62.12-.293.114-.513.327-.22.213-.353.52-.127.3-.127.673 0 .374.127.68.133.3.353.514.227.213.52.333.293.113.627.113.38 0 .64-.106.266-.114.453-.287.133-.12.227-.3.1-.187.153-.413H4.5zm5.393 2.727q-.533 0-.993-.194-.453-.193-.787-.526-.333-.34-.526-.794-.187-.46-.187-.98t.187-.973q.193-.46.526-.793.334-.34.787-.534.46-.193.993-.193.534 0 .987.193.46.194.793.534.334.333.52.793.194.453.194.973t-.194.98q-.186.454-.52.794-.333.333-.793.526-.453.194-.987.194m0-.854q.334 0 .62-.12.294-.12.507-.333.22-.213.34-.513.127-.307.127-.674t-.127-.666q-.12-.307-.34-.52-.213-.214-.507-.334-.286-.12-.62-.12-.333 0-.626.12-.287.12-.507.334-.213.213-.34.52-.12.3-.12.666t.12.674q.127.3.34.513.22.213.507.333.293.12.626.12M7.455 2.91A5.455 5.455 0 0 0 2 8.363a5.455 5.455 0 0 0 5.455 5.454 5.455 5.455 0 0 0 5.454-5.454 5.455 5.455 0 0 0-5.454-5.455m13.182 3.637a1.364 1.364 0 0 0-1.364 1.363 1.364 1.364 0 0 0 1.364 1.364A1.364 1.364 0 0 0 22 7.91a1.364 1.364 0 0 0-1.364-1.363m-4.09 1.818a2.727 2.727 0 0 0-2.728 2.727 2.727 2.727 0 0 0 2.728 2.727 2.727 2.727 0 0 0 2.727-2.727 2.727 2.727 0 0 0-2.727-2.727m0 6.363a3.18 3.18 0 0 0-3.182 3.182 3.18 3.18 0 0 0 3.182 3.182 3.18 3.18 0 0 0 3.181-3.182 3.18 3.18 0 0 0-3.181-3.182"/></svg>