<svg xmlns="http://www.w3.org/2000/svg" viewBox="0 0 24 24"><path d="M8.99 3.211a.99.99 0 0 0-.837.491l-3.805 6.57-2.211 3.826a.99.99 0 0 0 0 1.002l3.008 5.198a.99.99 0 0 0 .859.49h12.012a.99.99 0 0 0 .859-.49l2.989-5.198a.99.99 0 0 0 0-1.002L15.867 3.702a.99.99 0 0 0-.86-.49zm.575 1.965h4.87l5.443 9.413-2.434 4.235H6.557L4.122 14.59l1.922-3.316zm2.434 2.538a.99.99 0 0 0-.838.491l-3.807 6.588a.986.986 0 0 0 .86 1.474h7.592a.986.986 0 0 0 .86-1.474L12.86 8.205a.99.99 0 0 0-.861-.491m0 2.966 2.109 3.622H9.913z"/></svg>