<svg xmlns="http://www.w3.org/2000/svg" width="24" height="24" fill="none" viewBox="0 0 24 24"><path fill="#EA4335" d="M16.046 7.458c-1.041-.991-2.358-1.5-3.833-1.5-2.608 0-4.817 1.759-5.608 4.134A6.03 6.03 0 0 0 6.287 12c0 .667.109 1.308.317 1.908.792 2.375 3 4.134 5.609 4.134 1.35 0 2.491-.367 3.391-.967 1.05-.708 1.759-1.75 2-2.983h-5.391v-3.759h9.416c.1.609.159 1.234.159 1.892 0 3.042-1.084 5.608-2.967 7.35C17.17 21.1 14.913 22 12.213 22c-3.908 0-7.283-2.25-8.925-5.517a9.885 9.885 0 0 1 0-8.966C4.928 4.25 8.304 2 12.212 2c2.7 0 4.958.992 6.683 2.608z" style="fill:#000;stroke-width:1.42857"/></svg>