<svg xmlns="http://www.w3.org/2000/svg" width="24" height="24" fill="none" viewBox="0 0 24 24"><path fill="#FFF1C0" d="M6.879 10.633a5.313 5.313 0 0 1 5.13-3.941h8.47A9.986 9.986 0 0 0 4.123 5.86z"/><path fill="#FFF1C0" fill-rule="evenodd" d="M15.763 12.01a3.753 3.753 0 1 1-7.507 0 3.753 3.753 0 0 1 7.507 0M13 12a1 1 0 1 0 0-2 1 1 0 0 0 0 2" clip-rule="evenodd"/><path fill="#FFF1C0" d="M17.128 10.564a5.307 5.307 0 0 0-1.352-2.308h5.508a9.983 9.983 0 0 1-.87 9.19A9.995 9.995 0 0 1 12.385 22l4.233-7.33-.006-.003a5.3 5.3 0 0 0 .52-1.232L20 12zm-7.155 6.361a5.288 5.288 0 0 0 3.411.217l-2.755 4.77a9.996 9.996 0 0 1-8.598-9.12h4.288l1.084 1.878.005-.003a5.288 5.288 0 0 0 2.565 2.258m-4.557-5.698-2.25-3.899a9.996 9.996 0 0 0-1.135 3.9z"/></svg>