<svg xmlns="http://www.w3.org/2000/svg" width="24" height="24" fill="none" viewBox="0 0 24 24"><path fill="#000" d="M19.2 5.7h-8.208L10.2 3H4.8C3.81 3 3 3.81 3 4.8v11.7c0 .99.81 1.8 1.8 1.8h6.3L12 21h7.2c.99 0 1.8-.81 1.8-1.8V7.5c0-.99-.81-1.8-1.8-1.8M7.653 14.331a3.685 3.685 0 0 1-3.681-3.681 3.68 3.68 0 0 1 3.681-3.681c.936 0 1.791.333 2.466.963l.063.054-1.107 1.062-.054-.045a1.955 1.955 0 0 0-1.368-.531c-1.179 0-2.142.981-2.142 2.178s.963 2.178 2.142 2.178c1.233 0 1.764-.783 1.908-1.314H7.572v-1.395h3.555l.009.063c.036.189.045.36.045.549 0 2.115-1.449 3.6-3.528 3.6m5.427-1.539c.297.54.666 1.062 1.071 1.53l-.486.477zm.693-.684h-.891l-.279-.936h3.591s-.306 1.179-1.404 2.466a8.263 8.263 0 0 1-1.017-1.53M20.1 19.2c0 .495-.405.9-.9.9h-6.3l1.8-1.8-.729-2.493.828-.828 2.412 2.421.657-.657-2.439-2.412c.81-.927 1.44-2.025 1.728-3.159H18.3v-.936h-3.276V9.3h-.936v.936h-1.764L11.262 6.6H19.2c.495 0 .9.405.9.9z" style="stroke-width:.9"/></svg>