<svg xmlns="http://www.w3.org/2000/svg" viewBox="0 0 24 24"><path fill-rule="evenodd" d="M5.673 3h12.654v2.4H22v2.938c0 2.67-2.008 4.879-4.615 5.233a6.34 6.34 0 0 1-4.01 2.878v2.216h1.421c1.257 0 2.275 1.003 2.275 2.242V21H6.834v-.093c0-1.239 1.019-2.242 2.275-2.242h1.422v-2.238a6.34 6.34 0 0 1-3.916-2.856C4.008 13.217 2 11.009 2 8.338V5.4h3.673zm12.654 7.222q-.001.593-.104 1.156a3.41 3.41 0 0 0 1.881-3.04v-1.07h-1.777zm-12.654 0V7.268H3.896v1.07c0 1.327.765 2.475 1.881 3.04a6.5 6.5 0 0 1-.104-1.156m8.471 1.978L12 10.944 9.856 12.2l.565-2.368-1.89-1.593 2.494-.21L12 5.8l.975 2.23 2.494.209-1.894 1.593z"/></svg>