<svg xmlns="http://www.w3.org/2000/svg" viewBox="0 0 24 24"><path d="M12 3a8.98 8.98 0 0 0-7.025 3.375l2.964 5.137A4.09 4.09 0 0 1 12 7.908h8.018A9 9 0 0 0 12 3zM4.447 7.102A8.957 8.957 0 0 0 3 12c0 4.509 3.316 8.244 7.643 8.898l2.962-5.134a4.088 4.088 0 0 1-5.148-1.72l-4.01-6.943zM12 8.727a3.273 3.273 0 0 0 0 6.547 3.273 3.273 0 0 0 0-6.547m2.455 0A4.085 4.085 0 0 1 15.565 14h5.101c.036 0 .072.001.108.004a9.028 9.028 0 0 0-.387-5.277h-5.932zM16 15c-.554 0-1 .446-1 1v4c0 .554.446 1 1 1h4c.554 0 1-.446 1-1v-4c0-.554-.446-1-1-1zm.533 1h1.565c.171 0 .331.028.48.084.15.052.277.126.385.223.112.093.2.203.264.33a.9.9 0 0 1 .093.408c0 .212-.052.39-.156.535a.993.993 0 0 1-.379.324v.045c.205.075.368.192.49.352a.907.907 0 0 1 .192.588.998.998 0 0 1-.108.463c-.067.134-.16.25-.279.347-.119.097-.258.17-.418.223a1.607 1.607 0 0 1-.51.078h-1.619v-4zm.754.676v.955h.754c.175 0 .31-.046.402-.139a.468.468 0 0 0 .145-.342c0-.13-.046-.24-.139-.334a.52.52 0 0 0-.385-.14h-.777zM14 16.715l-2.467 4.273a9.01 9.01 0 0 0 2.47-.215 1.358 1.358 0 0 1-.003-.107v-3.951zm3.287 1.564v1.028h.838c.19 0 .335-.046.436-.139a.49.49 0 0 0 .15-.37.482.482 0 0 0-.156-.368c-.1-.1-.25-.15-.451-.15h-.817z"/></svg>