<svg xmlns="http://www.w3.org/2000/svg" viewBox="0 0 192 192"><path d="M78.421 24.934c-5.311 0-10.245 2.843-12.938 7.407l-47.424 81.613c-2.693 4.638-2.771 10.316-.078 14.954l17.657 30.673c2.618 4.638 7.552 7.484 12.938 7.484h94.848c5.386 0 10.319-2.846 12.938-7.484l17.657-30.673c2.692-4.638 2.615-10.316-.079-14.954L126.516 32.34c-2.693-4.564-7.626-7.407-12.938-7.407zm0 14.954h35.158l47.424 81.613-17.579 30.611H48.576l-17.579-30.611zm10.844 24.314-34.251 59.706 5.453 9.5h71.066l5.454-9.5-34.251-59.706zm6.657 18.251.078.14.078-.14 20.485 35.986H75.436z"/></svg>