<svg xmlns="http://www.w3.org/2000/svg" width="192" height="192" viewBox="0 0 192 192"><path d="M55.896 31.74a7.68 7.68 0 0 0-5.416 2.24L18.24 66.212A7.68 7.68 0 0 0 16 71.644v71.52c0 9.368 7.72 17.096 17.096 17.096H130.6a17.2 17.2 0 0 0 17.112-17.096V122.46l20.672 16.96a4.72 4.72 0 0 0 7.616-3.744V56.3a4.72 4.72 0 0 0-7.704-3.64l-20.584 16.88V48.836a17.2 17.2 0 0 0-17.096-17.096zm3.184 15.336h71.52c1.128 0 1.76.632 1.76 1.76v94.32c0 1.128-.632 1.76-1.76 1.76H33.096c-1.128 0-1.76-.632-1.76-1.76V74.82z"/></svg>