<svg xmlns="http://www.w3.org/2000/svg" width="24" height="24" fill="none" viewBox="0 0 24 24"><path d="M11.999 2a1.213 1.213 0 0 0-1.212 1.212v1.367a1.213 1.213 0 0 0 1.212 1.212 1.213 1.213 0 0 0 1.214-1.212V3.212A1.213 1.213 0 0 0 12 2m0 5.14a1.213 1.213 0 0 0-1.212 1.213v7.294A1.213 1.213 0 0 0 12 16.859a1.213 1.213 0 0 0 1.214-1.212V8.353A1.213 1.213 0 0 0 12 7.14m0 11.066a1.213 1.213 0 0 0-1.212 1.215v1.367A1.213 1.213 0 0 0 11.999 22a1.213 1.213 0 0 0 1.214-1.212v-1.367A1.213 1.213 0 0 0 12 18.206m-.652 1.215v1.367h1.304v-1.367ZM16.393 6a1.213 1.213 0 0 0-1.212 1.212v1.37a1.213 1.213 0 0 0 1.212 1.212 1.213 1.213 0 0 0 1.212-1.212v-1.37A1.213 1.213 0 0 0 16.393 6m0 5.1a1.213 1.213 0 0 0-1.212 1.214v4.471A1.213 1.213 0 0 0 16.393 18a1.213 1.213 0 0 0 1.212-1.215v-4.47a1.213 1.213 0 0 0-1.212-1.215m-.651-3.888v1.37h1.303v-1.37ZM7.607 6a1.213 1.213 0 0 0-1.212 1.215v4.47A1.213 1.213 0 0 0 7.607 12.9a1.213 1.213 0 0 0 1.212-1.214V7.215A1.213 1.213 0 0 0 7.607 6Zm0 8.206a1.213 1.213 0 0 0-1.212 1.212v1.37A1.213 1.213 0 0 0 7.607 18a1.213 1.213 0 0 0 1.212-1.212v-1.37a1.213 1.213 0 0 0-1.212-1.212Zm-.652 1.212v1.37h1.303v-1.37Zm13.833-5.314a1.213 1.213 0 0 0-1.214 1.212v1.368a1.213 1.213 0 0 0 1.214 1.212A1.213 1.213 0 0 0 22 12.684v-1.368a1.213 1.213 0 0 0-1.212-1.212m-.652 1.212v1.368h1.304v-1.368ZM3.212 10.104A1.213 1.213 0 0 0 2 11.316v1.368a1.213 1.213 0 0 0 1.212 1.212 1.213 1.213 0 0 0 1.212-1.212v-1.368a1.213 1.213 0 0 0-1.212-1.212m-.652 1.212v1.368h1.304v-1.368Z" style="color:#000;fill:#000;stroke-width:1.30363;stroke-linecap:round;-inkscape-stroke:none"/></svg>