<svg xmlns="http://www.w3.org/2000/svg" width="24" height="24" fill="none" viewBox="0 0 24 24"><path fill="#000" fill-rule="evenodd" d="M15.972 16.415a6.244 6.244 0 1 0-8.83-8.83 6.244 6.244 0 0 0 8.83 8.83m2.343 2.343A9.557 9.557 0 1 0 4.799 5.242a9.557 9.557 0 0 0 13.516 13.516m-6.217-2.974a.765.765 0 0 1-1.082 0l-.089-.089-1.442-1.442-.006-.006L7.232 12a.764.764 0 0 1 0-1.081l1.622-1.622a.765.765 0 0 1 1.081 0l1.622 1.622 7.479-7.479a.892.892 0 0 1 1.261 0l1.442 1.442a.892.892 0 0 1 0 1.261l-8.018 8.018-.001.001z" clip-rule="evenodd" style="stroke-width:1.17647"/></svg>