<svg xmlns="http://www.w3.org/2000/svg" width="24" height="24" fill="none" viewBox="0 0 24 24"><path fill="#FFF1C0" d="M18.853 20.606c.308-.183.57-.435.753-.754l.366-.63 1.753-3.036c.183-.32.275-.675.275-1.03h-.012c0-.356-.091-.71-.274-1.032l-2.898-5.04-2.91-5.04a2.08 2.08 0 0 0-.756-.756 2.013 2.013 0 0 0-1.03-.275H9.88c-.364 0-.718.103-1.026.273l10 17.32Zm-5.456-5.451H2c0 .355.092.71.275 1.031l1.237 2.142.882 1.524c.183.32.447.573.756.756.31.183.664.275 1.031.275h10.523zm-10.562-2 4.703-8.148 3.31 5.732-1.394 2.416h-6.62"/></svg>