<svg xmlns="http://www.w3.org/2000/svg" viewBox="0 0 24 24"><path d="M7.802 2c-.28.002-.554.07-.8.2-.103.056-1.445.812-1.127 2.198a106.487 106.487 0 0 0 1.71 5.46c.922-.5 2.665-1.415 2.665-1.415.87-.467 1.189-1.562.733-2.432L9.382 2.955A1.763 1.763 0 0 0 7.802 2zM5.246 4.263l-.214.262c-1.887 3.019-1.547 7.358.994 11.479 3.356 5.447 8.596 6.68 11.407 5.679a1.754 1.754 0 0 1-.633-.258c-1.58-1.116-3.043-2.33-4.545-3.549l-.443-.361c-2.702-2.32-3.336-3.287-4.601-6.651l-.189-.554a106.965 106.965 0 0 1-1.716-5.485l-.002-.012-.004-.011a2.25 2.25 0 0 1-.054-.539zm10.785 10.421c-.4.01-.804.156-1.14.46 0 0-1.445 1.346-2.23 2.057 2.125 1.77 4.428 3.445 4.479 3.495 1.646 1.07 4.067-1.128 2.55-2.848l-2.285-2.565a1.787 1.787 0 0 0-1.374-.599z"/></svg>