<svg xmlns="http://www.w3.org/2000/svg" width="24" height="24" fill="none" viewBox="0 0 24 24"><path fill="#FFF1C0" d="M11.5 5V3c5.52 0 10 4.48 10 10h-2c0-4.41-3.59-8-8-8m0 3.5v-2A6.5 6.5 0 0 1 18 13h-2c0-2.48-2.02-4.5-4.5-4.5m-4.754 9.253.001.001c2.29 2.28 5.24 3.746 7.753 3.746.841 0 2.103-.177 3.041-1.104l.343-.342a.5.5 0 0 0-.002-.71l-3.2-3.17a.5.5 0 0 0-.706.002L11.5 18.653 5.848 13l2.475-2.467a.5.5 0 0 0 .002-.706l-3.17-3.2a.5.5 0 0 0-.703-.007l-.35.34-.008.008C3.177 7.898 3 9.16 3 10c0 2.513 1.466 5.463 3.746 7.753"/></svg>