<svg xmlns="http://www.w3.org/2000/svg" viewBox="0 0 24 24"><path d="M21.348 6.057c-1.03-1.828-3.272-2.797-5.315-2.369-.925.202-1.81.645-2.483 1.32L11.997 6.54c-.762-.758-1.49-1.614-2.402-2.206a4.983 4.983 0 0 0-3.253-.704c-3.964.481-5.78 5.288-3.012 8.208 2.9 2.848 5.78 5.72 8.677 8.573 2.743-2.709 5.478-5.425 8.226-8.126 1.777-1.526 2.333-4.189 1.115-6.229zM7.135 11.353c-.577-.63-1.26-1.17-1.784-1.84-.684-1.015-.132-2.51 1.05-2.83.65-.214 1.402-.027 1.899.438.522.508 1.03 1.031 1.555 1.536l.004.005a345.59 345.59 0 0 0-2.724 2.691zm4.872 4.798a2750.1 2750.1 0 0 1-2.713-2.683c2.13-2.097 4.253-4.202 6.375-6.305a1.904 1.904 0 0 1 1.24-.56c1.738-.13 2.737 1.976 1.5 3.22-2.124 2.12-4.267 4.22-6.402 6.328z"/></svg>