<svg xmlns="http://www.w3.org/2000/svg" viewBox="0 0 24 24"><path d="M7.455 2.91A5.455 5.455 0 0 0 2 8.363a5.455 5.455 0 0 0 5.455 5.454 5.455 5.455 0 0 0 5.454-5.454 5.455 5.455 0 0 0-5.454-5.455m13.182 3.637a1.364 1.364 0 0 0-1.364 1.363 1.364 1.364 0 0 0 1.364 1.364A1.364 1.364 0 0 0 22 7.909a1.364 1.364 0 0 0-1.364-1.363m-4.09 1.818a2.727 2.727 0 0 0-2.728 2.727 2.727 2.727 0 0 0 2.728 2.727 2.727 2.727 0 0 0 2.727-2.727 2.727 2.727 0 0 0-2.727-2.727m0 6.363a3.18 3.18 0 0 0-3.182 3.182 3.18 3.18 0 0 0 3.182 3.182 3.18 3.18 0 0 0 3.181-3.182 3.18 3.18 0 0 0-3.181-3.182"/></svg>