<svg xmlns="http://www.w3.org/2000/svg" viewBox="0 0 24 24"><path d="M5.837 12.77c-1.41.048-2.347 1.407-2.014 2.98 2.068 4.522 7.402 6.498 11.924 4.43a9 9 0 0 0 3.805-3.281c-2.26 2.511-6.298 3.482-10.413-2.038-1.15-1.545-2.337-2.125-3.302-2.092"/><path d="M6.714 8.114C4.68 8.108 3.164 9.872 3.005 12a8.95 8.95 0 0 0 .818 3.75c-.561-2.649 2.482-4.692 5.316-.89 4.116 5.522 8.154 4.55 10.414 2.038a9 9 0 0 0 1.364-3.645c-.664 2.974-5.24 4.448-8.915-1.253-1.811-2.807-3.706-3.882-5.288-3.886" opacity=".8"/><path d="M8.684 4.662c-1.228.018-2.433.541-3.549 1.537l-.085.085A8.97 8.97 0 0 0 3.005 12c.281-3.783 4.856-6.416 8.997 0 3.68 5.71 8.266 4.222 8.918 1.24l.004-.026a7.6 7.6 0 0 0 .069-1.23v-.41c-.792.987-3.265 2.167-6.134-2.445-1.901-3.056-4.072-4.498-6.175-4.467" opacity=".6"/><path d="M10.836 3.27c-.663.003-1.364.112-2.452.51-1.088.4-2.354 1.315-3.334 2.505 3.041-2.8 6.767-2.044 9.809 2.845 2.869 4.612 5.342 3.432 6.134 2.446a9 9 0 0 0-.33-2.028c-1.049.306-1.847.201-3.157-1.803-1.638-2.505-3.797-4.488-6.67-4.474" opacity=".4"/><path d="M17.506 7.744c1.311 2.007 2.11 2.109 3.16 1.802A9.01 9.01 0 0 0 8.73 3.616c3.955-1.247 6.76 1.045 8.776 4.128" opacity=".2"/></svg>