<svg xmlns="http://www.w3.org/2000/svg" viewBox="0 0 24 24"><path d="M12.08 3c-.044.001-.09.007-.132.002-.108-.012-.207.037-.307.07a.9.9 0 0 0-.363.254l-7.51 7.523c-.11.114-.23.22-.325.347q-.054.1-.111.2c.002.055-.04.099-.037.155-.01.275-.003.55-.005.826q-.002 2.182 0 4.365L14.708 5.324c-.05-.073-.121-.128-.181-.192l-1.804-1.805a1 1 0 0 0-.518-.301A.2.2 0 0 0 12.08 3m3.028 2.724-2.71 2.71q2.216 2.224 4.438 4.443v8.12h2.874c.53.043 1.038-.455.997-.987v-8.095c-.003-.165.017-.336-.047-.492-.064-.241-.267-.398-.432-.569-1.707-1.71-3.416-3.417-5.12-5.13m-7.95 7.95-3.867 3.868q-.002 1.311 0 2.623c.054.425.425.779.845.832 2.868.002.198 0 12.134 0V17.13H7.161z"/></svg>