<svg xmlns="http://www.w3.org/2000/svg" width="24" height="24" fill="none" viewBox="0 0 24 24"><path fill="#C4C4C4" fill-opacity=".73" fill-rule="evenodd" d="M2 5.077a.77.77 0 0 1 .77-.77h18.46a.77.77 0 0 1 .77.77v13.846a.77.77 0 0 1-.77.77H2.77a.77.77 0 0 1-.77-.77Zm7.096 5.35A1.88 1.88 0 0 0 7.77 9.91c-.902 0-1.667.608-1.94 1.43a2.07 2.07 0 0 0-.001 1.321c.274.823 1.039 1.431 1.941 1.431a2.1 2.1 0 0 0 1.174-.334c.364-.245.61-.606.693-1.033H7.769v-1.301h3.26q.054.314.055.655c0 1.053-.375 1.941-1.027 2.544-.571.528-1.353.84-2.288.84a3.46 3.46 0 0 1-3.089-1.91 3.42 3.42 0 0 1 0-3.104 3.46 3.46 0 0 1 3.09-1.91 3.3 3.3 0 0 1 2.313.903zm4.058-1.889a.385.385 0 0 0-.385.385v.77c0 .212.172.384.385.384h5a.385.385 0 0 0 .385-.385v-.769a.385.385 0 0 0-.385-.385zm-.385 5.77c0-.213.172-.385.385-.385h5c.212 0 .385.172.385.385v.769a.385.385 0 0 1-.385.385h-5a.385.385 0 0 1-.385-.385zm.385-3.077a.385.385 0 0 0-.385.384v.77c0 .212.172.384.385.384h6.154a.385.385 0 0 0 .384-.384v-.77a.385.385 0 0 0-.384-.384z" clip-rule="evenodd" style="fill:#000;fill-opacity:1"/></svg>