<svg xmlns="http://www.w3.org/2000/svg" width="24" height="24" fill="none" viewBox="0 0 24 24"><path d="m16.93 7.865-2.432 2.01-2 1.656v8.246A2.22 2.22 0 0 0 14.715 22a2.22 2.22 0 0 0 2.215-2.223z" style="fill:#000"/><path fill="#FBBC04" d="m16.93 4.221-.001-.076V4.11a2 2 0 0 0-.016-.168l-.003-.025-.007-.05a3 3 0 0 0-.072-.306 2 2 0 0 0-.074-.203 3 3 0 0 0-.07-.15l-.015-.03a2 2 0 0 0-.061-.107l-.026-.04-.01-.016a2 2 0 0 0-.293-.36l-.075-.073-.002-.003-.052-.045-.026-.023a3 3 0 0 0-.163-.124l-.017-.011a2 2 0 0 0-.27-.155l-.089-.04a2 2 0 0 0-.28-.098 2 2 0 0 0-.234-.052 2.4 2.4 0 0 0-.358-.03h-.002a4 4 0 0 0-.186.008l-.093.01q-.04.005-.079.012l-.044.006-.025.005-.036.008a2 2 0 0 0-.4.126l-.08.037-.099.05a2 2 0 0 0-.163.097 2 2 0 0 0-.121.083 1 1 0 0 0-.085.065L7.805 7.063a2.23 2.23 0 0 0-.3 3.127 2.2 2.2 0 0 0 1.706.808c.497 0 .995-.164 1.406-.507l1.882-1.557v-.001l3.626-2.998a2.21 2.21 0 0 0 .805-1.714" style="fill:#000"/></svg>