<svg xmlns="http://www.w3.org/2000/svg" width="192" height="192" viewBox="0 0 192 192"><path d="M127.15 61.027c-8.016-7.63-18.157-11.55-29.514-11.55-20.082 0-37.091 13.544-43.182 31.832a46.2 46.2 0 0 0-2.449 14.692c0 5.136.84 10.072 2.441 14.692 6.099 18.288 23.1 31.832 43.19 31.832 10.394 0 19.18-2.826 26.11-7.446 8.085-5.451 13.544-13.475 15.4-22.969h-41.51V83.166h72.502c.77 4.69 1.225 9.502 1.225 14.568 0 23.423-8.347 43.182-22.846 56.595-12.713 11.742-30.092 18.672-50.882 18.672-30.092 0-56.08-17.325-68.722-42.48a76.153 76.153 0 0 1 0-69.039c12.628-25.156 38.623-42.48 68.715-42.48 20.79 0 38.177 7.638 51.459 20.081z"/></svg>