<svg xmlns="http://www.w3.org/2000/svg" width="24" height="24"><path d="M12.158 3.983a7.79 7.79 0 0 0-7.695 5.744c.044-.016-.046.011 0 0-3.229 2.126-3.268 6.759-.206 9.118l.005-.006-.005.025a5.6 5.6 0 0 0 3.397 1.13h4.311l.025.025h4.327c5.572.044 7.813-7.171 3.196-10.292a7.8 7.8 0 0 0-2.351-3.793l-.036.036.005-.042a7.8 7.8 0 0 0-4.973-1.945m-.298 3.455a4.45 4.45 0 0 1 2.905.958 4.32 4.32 0 0 1 1.552 3.399v.431c2.941-.058 2.941 4.385 0 4.328h-4.328l-.007.007v-.033H7.654a2.2 2.2 0 0 1-.89-.192h.002a2.164 2.164 0 1 1 2.864-2.864l2.51-2.51a5.62 5.62 0 0 0-3.382-2.096c.015-.008.034-.021.045-.019a4.32 4.32 0 0 1 3.059-1.408Z"/></svg>