<svg xmlns="http://www.w3.org/2000/svg" viewBox="0 0 24 24"><path d="M7.044 13.418v4.791q-1.502.009-2.978.006-.616-.002-.887-.097-.76-.266-.925-1.178v-3.523zm14.673-6.639.03.022v10.147q-.167.91-.944 1.176-.277.095-.817.094-3.503-.006-7.077-.01-.52-.001-1.053.007-.03 0-.05.021-1.75 1.74-3.51 3.511c-.18.181-.384.282-.642.244q-.361-.053-.532-.372-.072-.136-.074-.494-.004-1.454-.003-2.916v-2.4l2.368-2.368a.112.11 22.3 0 1 .078-.032l7.415.002a.052.052 0 0 0 .052-.052l-.002-6.565h.003zm-19.463.012 4.787.001.002.002.002 6.624-4.79-.001zm14.734-4.755 4.73 4.743-4.759.015.002-4.732q0-.012.01-.018l.017-.008M7.041 2h9.866a.098.1 63.3 0 1 .058.019l.023.017-.017.008q-.01.006-.01.018l-.002 4.732H7.043l-.002-.002zm0 0v4.792H2.254V3.268q.054-.373.221-.627.415-.628 1.205-.632Q5.351 2 7.04 2z"/></svg>