<svg xmlns="http://www.w3.org/2000/svg" viewBox="0 0 24 24"><path d="M12 3a.78.78 0 0 0-.778.778v4.67A4.86 4.86 0 0 0 7.89 7.11 4.9 4.9 0 0 0 3 12a.78.78 0 0 0 .778.778h4.67A4.86 4.86 0 0 0 7.11 16.11 4.9 4.9 0 0 0 12 21a.78.78 0 0 0 .778-.778v-4.67a4.86 4.86 0 0 0 3.333 1.337A4.9 4.9 0 0 0 21 12a.78.78 0 0 0-.778-.778h-4.67A4.86 4.86 0 0 0 16.89 7.89 4.9 4.9 0 0 0 12 3m.778 1.655a3.314 3.314 0 0 1 2.555 3.234 3.314 3.314 0 0 1-2.555 3.234zm-4.89 4.012a3.314 3.314 0 0 1 3.235 2.555H4.655a3.314 3.314 0 0 1 3.234-2.555zm4.989 4.11h6.468c-.348 1.47-1.653 2.556-3.234 2.556s-2.885-1.086-3.234-2.555zm-1.655.1v6.468c-1.469-.349-2.555-1.653-2.555-3.234s1.086-2.885 2.555-3.234"/></svg>