<svg xmlns="http://www.w3.org/2000/svg" width="192" height="192" viewBox="0 0 192 192"><path d="M77.176 37.176a23.52 23.52 0 0 0-23.528 23.528v4.704h98.824c9.216 0 17.552 3.792 23.528 9.888V56c0-10.4-8.424-18.824-18.824-18.824zM176 98.184V136c0 10.4-8.424 18.824-18.824 18.824H137.88a32.8 32.8 0 0 0 9.888-23.528v-56.48h4.704A23.52 23.52 0 0 1 176 98.192zm-141.18 56.64h80.168a23.52 23.52 0 0 0 23.36-23.528v-4.704H39.524a32.8 32.8 0 0 1-23.528-9.888V136c0 10.4 8.424 18.824 18.824 18.824M15.996 93.68V56c0-10.4 8.424-18.824 18.824-18.824h19.296a32.8 32.8 0 0 0-9.88 23.528v56.48h-4.704a23.52 23.52 0 0 1-23.536-23.52"/></svg>