<svg xmlns="http://www.w3.org/2000/svg" viewBox="0 0 24 24"><path d="M16.953 9.959v1.49l.261-.314.261-.314V8.468h-.522zm.783-.419c0 .846.014 1.064.065 1.03l.261-.164.196-.122V8.468h-.522V9.54M4.444 9.041a3.245 3.245 0 0 0-2.298 2.167c-.171.523-.195 1.37-.054 1.895.402 1.496 1.62 2.42 3.196 2.425.888.003 1.564-.25 2.055-.768.52-.552.737-1.232.737-2.322v-.63H5.365v.47H7.61v.432c0 1.529-.94 2.407-2.48 2.32-.773-.046-1.377-.331-1.89-.892-.774-.849-.936-2.172-.395-3.24.183-.36.74-.924 1.101-1.113.554-.29.814-.351 1.497-.35.68.002 1.176.112 1.639.369.126.068.238.126.25.126.012 0 .015-.112.007-.249-.015-.24-.025-.252-.286-.392-.65-.348-1.806-.458-2.609-.248zm.273.739c-.378.088-.87.371-1.175.676-1.132 1.132-.925 3.035.426 3.912.43.28.852.381 1.488.355.455-.018.559-.041.864-.19.635-.313.977-.865.977-1.578v-.364H5.365v.523h1.464l-.034.144c-.096.412-.32.67-.751.866-.318.145-1.055.153-1.451.016-.394-.138-.84-.565-1.03-.986-.175-.388-.232-1.033-.133-1.482.086-.381.41-.851.748-1.082.438-.3.671-.367 1.291-.368.617 0 .974.084 1.486.351.173.09.333.172.355.182.02.01.039-.1.039-.244v-.262l-.326-.16c-.665-.324-1.668-.459-2.306-.31m8.596.594c-.891.193-1.593.88-1.869 1.824-.135.464-.087 1.35.096 1.792.355.861 1.049 1.387 2.003 1.522.38.054.804.003 1.086-.13.173-.083.184-.103.184-.34v-.252l-.248.114c-.353.162-1.065.159-1.485-.008-1.347-.534-1.65-2.532-.536-3.55.405-.368.76-.5 1.356-.497.83.004 1.415.353 1.76 1.053l.17.348.017 1.58.015 1.58h.517v-1.476c0-1.14-.018-1.545-.077-1.776-.243-.927-.928-1.593-1.84-1.786a2.425 2.425 0 0 0-1.149.002m5.729-.023a3.106 3.106 0 0 0-.677.239c-.458.225-.96.704-1.427 1.36l-.303.426.016.342.015.344.427-.561c.79-1.04 1.274-1.452 1.896-1.61a1.967 1.967 0 0 1 1.975.58c.39.426.502.75.502 1.46 0 .722-.112 1.038-.522 1.482-.954 1.03-2.683.735-3.214-.546l-.115-.277-.351.46.133.265c.717 1.415 2.869 1.649 3.943.429 1.23-1.397.66-3.766-1.033-4.292a3.016 3.016 0 0 0-1.265-.1m-8.875.062c-.673.155-1.152.522-1.433 1.098-.251.515-.288.836-.288 2.476l-.001 1.422h.517l.015-1.632.016-1.633.171-.348c.308-.625.84-.943 1.577-.942a2.2 2.2 0 0 1 .648.09l.255.09.162-.163c.187-.188.18-.198-.276-.37-.353-.134-.983-.174-1.363-.087m3.36.716a1.811 1.811 0 0 0-1.238.985c-.162.351-.162 1.28 0 1.631.41.887 1.398 1.246 2.34.853.175-.074.184-.09.184-.333v-.256l-.218.105c-.288.14-.757.18-1.072.091-.326-.09-.695-.454-.792-.78-.233-.774.136-1.587.805-1.774.695-.196 1.387.205 1.533.887.033.153.057.824.057 1.568v1.303h.476l-.016-1.527c-.016-1.522-.016-1.527-.153-1.818a1.646 1.646 0 0 0-.798-.808c-.304-.138-.793-.194-1.108-.127m5.535.019c-.61.154-.94.445-1.834 1.622l-.587.773v.396c0 .221.02.374.045.346.024-.027.173-.226.33-.441.4-.547 1.22-1.544 1.474-1.792.442-.432 1.01-.562 1.491-.345.316.144.46.285.607.596.249.527.123 1.283-.274 1.655a1.174 1.174 0 0 1-1.248.205c-.426-.194-.807-.797-.807-1.278 0-.15-.007-.144-.207.135-.177.247-.2.31-.163.44a1.872 1.872 0 0 0 .986 1.154 1.66 1.66 0 0 0 1.944-.466c.56-.71.538-1.841-.05-2.512-.365-.414-1.13-.633-1.707-.488m-8.79.03c-.396.12-.709.404-.897.812-.115.252-.12.32-.136 1.84l-.016 1.579h.526v-1.515c0-1.683.01-1.737.332-2.02a.952.952 0 0 1 .882-.225c.145.03.268.05.273.042l.118-.206.11-.191-.206-.082c-.213-.086-.755-.105-.987-.035"/></svg>