<svg xmlns="http://www.w3.org/2000/svg" width="192" height="192" viewBox="0 0 192 192"><path d="M95.974 27.45a5.52 5.52 0 0 0-2.878.806L18.903 71.114C17.066 72.186 16 74.185 16 76.252v39.574c0 2.067 1.143 4.068 2.903 5.063l74.193 42.858c1.838 1.072 4.047 1.072 5.808 0l74.193-42.858a5.827 5.827 0 0 0 2.903-5.063V76.252c0-2.067-1.143-4.052-2.903-5.047L98.904 28.256a5.804 5.804 0 0 0-2.93-.806zm-4.036 19.931c21.129 0 38.28 9.722 38.28 21.588s-17.151 21.588-38.28 21.588c-21.13 0-38.268-9.722-38.268-21.588s17.138-21.588 38.268-21.588zm-.743 13.333c-7.69.22-13.802 3.804-13.802 8.18 0 4.516 6.506 8.194 14.544 8.194s14.544-3.678 14.544-8.195c0-4.516-6.582-8.179-14.544-8.179-.25 0-.494-.007-.742 0zm53.594 7.45c.334.045.67.158.977.35l8.49 4.91c.842.46 1.302 1.3 1.302 2.22 0 .918-.539 1.76-1.38 2.22l-41.954 24.491a2.58 2.58 0 0 1-1.302.38H98.84a2.58 2.58 0 0 1-2.604-2.6 2.58 2.58 0 0 1 2.604-2.6h11.406l37.5-21.891-4.583-2.691c-1.225-.69-1.69-2.287-.924-3.512a2.557 2.557 0 0 1 2.552-1.277z"/></svg>