<svg xmlns="http://www.w3.org/2000/svg" viewBox="0 0 24 24"><path d="M11.999 3.453a.723.723 0 0 0-.363.097l-9.27 5.352A.726.726 0 0 0 2 9.534v4.933c0 .26.141.501.365.631l9.27 5.352c.228.13.506.13.73 0l9.27-5.352a.726.726 0 0 0 .365-.631V9.534c0-.26-.14-.502-.364-.632h.004L12.364 3.55A.738.738 0 0 0 12 3.453zm-.508 2.476c2.642 0 4.782 1.208 4.782 2.695 0 1.487-2.14 2.696-4.782 2.696-2.641 0-4.781-1.209-4.781-2.696s2.14-2.696 4.781-2.696m0 1.67c-1.003 0-1.818.459-1.818 1.025 0 .567.815 1.025 1.818 1.025 1.004 0 1.82-.458 1.82-1.025 0-.566-.816-1.025-1.82-1.025m6.605.923a.322.322 0 0 1 .122.04l1.061.61a.324.324 0 0 1 0 .564l-5.247 3.06a.322.322 0 0 1-.162.043h-1.516a.323.323 0 0 1-.325-.324c0-.18.145-.325.325-.325h1.425l4.688-2.732-.573-.332a.325.325 0 0 1 .202-.604"/></svg>