<svg xmlns="http://www.w3.org/2000/svg" viewBox="0 0 24 24"><path d="M12.043 7.172 7.108 5.176c0 1.607.739 3.374 1.378 3.982H2c.624 3.449 5.02 6.284 9.375 6.284l-2.089 2.106c-.467.471-.136 1.277.525 1.277a.74.74 0 0 0 .525-.22l3.13-3.153.04.016v2.583c0 .412.32.766.728.773a.74.74 0 0 0 .532-.215.75.75 0 0 0 .222-.533V15.44h1.485v2.61c0 .411.32.766.728.772a.74.74 0 0 0 .534-.214.75.75 0 0 0 .222-.534v-2.636c.002-3.749-2.239-6.749-5.914-8.266zm7.909 1.986h-.942c0-1.06.25-2.094.679-3.046a.665.665 0 0 0-.605-.937c-.24 0-.46.13-.578.34a7.392 7.392 0 0 0-.966 3.643 6.626 6.626 0 0 0 4.144 6.156l.316.127v-4.219c0-1.14-.917-2.064-2.048-2.064"/></svg>