<svg xmlns="http://www.w3.org/2000/svg" viewBox="0 0 24 24"><path d="M7.641 3.498c-.046.567-.274 1.274-.51 1.571-.324.411-.324.652 0 .993.6.628.535 1.072-.158 1.072-.497 0-.47.198.186 1.31.912 1.547.992 2.088.208 1.406-.31-.27-1.02-.559-1.575-.64C4.706 9.048 2 8.85 2 8.933c0 .028.255.692.568 1.477.312.782.48 1.574.373 1.756-.108.18.054.431.36.554.649.261.74 1.284.131 1.496-.23.081.27.387 1.113.678.843.292 1.53.635 1.528.76-.001.127-.71.557-1.575.955l-1.571.723 1.245.368c.739.218 1.322.676 1.435 1.13.147.587.305.665.686.334.602-.524 1.39-.093 1.13.619-.152.413.058.406 1.074-.04.696-.305 1.329-.553 1.41-.553.08 0 .06.463-.043 1.03-.242 1.332.35.97 1.763-1.077l1.053-1.524.783 1.328c.842 1.432 2.25 2.577 3.166 2.577.807 0 .706-.68-.144-.963-.755-.251-2.994-2.48-2.994-2.981 0-.162.543-.065 1.204.216.663.281 1.779.624 2.48.763l1.273.252-.81-.905c-.446-.497-.81-1.022-.81-1.167 0-.144.654-.371 1.454-.506.97-.162 1.393-.41 1.271-.743-.1-.274.41-1.12 1.133-1.878L22 12.233l-1.679.105c-.924.056-1.77-.052-1.88-.242-.112-.19.032-.639.32-1 .287-.36.823-1.163 1.192-1.783.666-1.122.666-1.125-.155-.9-.71.195-.8.097-.654-.707.093-.514.03-.983-.14-1.044-.171-.061-.355-.767-.41-1.569-.055-.8-.115-1.457-.135-1.458-.26-.005-2.412 1.305-2.563 1.562-.113.192-.412.264-.666.162-.289-.116-.645.469-.956 1.572-.272.968-.636 1.76-.81 1.76-.171 0-.607-.868-.966-1.928s-.764-1.736-.9-1.505c-.15.253-.351.09-.5-.406-.139-.456-.448-.833-.69-.838-.241-.004-.855-.35-1.365-.768-.51-.42-1.015-.765-1.124-.77s-.233.455-.278 1.022"/></svg>