<svg xmlns="http://www.w3.org/2000/svg" viewBox="0 0 24 24"><path d="m11.734 11.198-.814.162v2.166c0 .78.402 1.216 1.125 1.216.296 0 .554-.084.754-.253a1.7 1.7 0 0 1-.167-.43.8.8 0 0 1-.246.037c-.43 0-.652-.24-.652-.737v-.877h.837v-.608h-.837zm8.924 0-.819.163v3.28h.82zm-2.656.56c-.992 0-1.581.647-1.581 1.46 0 .892.666 1.51 1.7 1.51.479 0 .934-.148 1.221-.36v-.631a1.77 1.77 0 0 1-1.034.33c-.608 0-.986-.253-1.077-.68h2.207v-.296c0-.824-.503-1.332-1.436-1.332zm.018.633c.436 0 .69.206.728.565h-1.51c.074-.335.342-.565.782-.565M4.014 11.76c-.456 0-.768.216-.936.698v-.583h-.805v2.767h.81v-1.43c0-.456.21-.767.574-.767.336 0 .513.244.513.617v1.58h.81V13.13c0-.403.19-.685.564-.685.345 0 .518.249.518.685v1.512h.815v-1.685c0-.766-.355-1.197-1-1.197-.484 0-.8.22-.962.685-.13-.436-.444-.685-.9-.685zm3.395.115v1.652c0 .781.402 1.216 1.125 1.216.48 0 .862-.222 1.049-.666v.565h.814v-2.767h-.814v1.446c0 .48-.26.778-.709.778-.43 0-.651-.24-.651-.738v-1.486zm5.639 0v1.652c0 .781.402 1.216 1.126 1.216.478 0 .861-.222 1.048-.666v.565h.815v-2.767h-.815v1.446c0 .48-.259.778-.708.778-.431 0-.652-.24-.652-.738v-1.486zm2.624 3.743a100 100 0 0 0-2.445.012c-2.757.047-6.91.229-11.036.823a.225.225 0 0 0-.19.222.226.226 0 0 0 .254.222c4.102-.592 8.235-.77 10.98-.818 3.295-.057 6.469.05 8.494.287a.226.226 0 0 0 .272-.22.226.226 0 0 0-.22-.225l-.002-.002c-1.533-.178-3.715-.284-6.106-.301zM3.303 7.1c-.766 0-1.302.622-1.302 1.427 0 .857.603 1.475 1.345 1.475.56 0 .977-.33 1.172-.785v.32c0 .67-.402 1.092-1.145 1.092-.44 0-.8-.13-1.096-.388v.296c.282.244.68.364 1.106.364.833 0 1.422-.494 1.422-1.337V7.163h-.287v.767a1.26 1.26 0 0 0-1.214-.83zm.09.274c.67 0 1.13.519 1.13 1.179S4.083 9.73 3.417 9.73c-.685 0-1.125-.522-1.125-1.193 0-.656.43-1.162 1.101-1.162zM8.235 7.1c-.843 0-1.437.632-1.437 1.446s.594 1.457 1.437 1.457 1.432-.642 1.432-1.456S9.082 7.1 8.235 7.1m0 .274c.681 0 1.13.503 1.13 1.174s-.45 1.18-1.13 1.18-1.13-.518-1.13-1.183c0-.664.448-1.17 1.13-1.17zM14.57 7.1c-.608 0-1.053.363-1.226.857v-.795h-.292V10.9l.292-.058v-1.65c.192.47.613.81 1.183.81.743 0 1.346-.617 1.346-1.475 0-.805-.536-1.427-1.303-1.427m-.09.274c.676 0 1.102.508 1.102 1.164 0 .669-.44 1.19-1.125 1.19-.667 0-1.107-.522-1.107-1.178s.455-1.176 1.13-1.176m3.132-.273c-.867 0-1.38.632-1.38 1.432 0 .86.576 1.47 1.452 1.47.43 0 .814-.145 1.073-.36V9.36a1.6 1.6 0 0 1-1.03.37c-.737 0-1.187-.479-1.192-1.192v-.024l2.303-.002v-.185c0-.742-.445-1.226-1.226-1.226m-.015.273c.623 0 .95.37.958.913h-2.007c.077-.536.445-.913 1.05-.913zM6.46 7.153c-.383 0-.675.25-.8.7v-.69h-.295v2.766h.296V8.36c.005-.555.306-.925.752-.925.167 0 .292.037.392.11V7.25a.6.6 0 0 0-.345-.096zm3.614.01v1.623c0 .767.393 1.217 1.102 1.217.493 0 .876-.278 1.034-.778v.704h.292V7.163h-.292l.001 1.518c0 .598-.354 1.048-.953 1.048-.584 0-.891-.355-.891-.981V7.163z"/></svg>