<svg xmlns="http://www.w3.org/2000/svg" viewBox="0 0 24 24"><path d="M13.5 18.4c-.01-.113 0-1.35 0-1.84-.008-.078.127-.256.162-.325-.021-.02-.04-.042-.085-.092a2.07 2.07 0 0 1-.16.15 5.69 5.69 0 0 0-.262-.23c-.143.154-.296.273-.547.537-.023-.178-.104-.376-.286-.38-.037.133-.286.331-.412.4a1.03 1.03 0 0 0 .06.093c.027-.013.196-.12.192-.045.007.224.023 1.89-.065 2 .017.037.22.216.277.266a2.54 2.54 0 0 0 .307-.276c-.104-.17-.061-1.52-.058-1.78.087-.096.21-.208.278-.272.075-.057.162.047.159.169l.006 1.58c.003.102-.018.462.18.588.036-.032.38-.37.454-.442-.016-.026-.059-.081-.073-.1-.065.034-.113.06-.129.001zm-6.35.778c-.027 0-.049.009-.057-.039v-2.05c.018-.06.123-.198.116-.207.024-.06-.087-.115-.093-.115a.437.437 0 0 1-.229.205c-.2.066-.516-.095-.685-.195-.025.03-.028.296-.414.348a.91.91 0 0 1-.03.17.523.523 0 0 1 .136.147.71.71 0 0 1 .13.347 1.35 1.35 0 0 1-.003.292c-.037.045-.071.07-.109.125a1.27 1.27 0 0 0-.14.273c-.142.386-.127.897.116 1.25a.592.592 0 0 0 .242.19c.115-.116.226-.235.342-.35.039-.052.08-.09.131-.15 0-.004.19.253.346.278.12-.123.277-.353.383-.482-.022-.027-.05-.068-.071-.094a.278.278 0 0 1-.11.058zm-.811.189c-.024 0-.333-.042-.211-1.15.14.056.276.113.417.169-.01.327.046.845-.205.982zm.207-1.18a2.63 2.63 0 0 1-.367-.132c0-.078.057-.38-.166-.674.205.039.531.108.534.111v.695zm9.8-1.1c.037.053.197.254.232.301.054-.042.287-.237.342-.283-.009-.02-.334-.546-.334-.55-.129.095-.365.254-.368.259-.094-.103-.27-.292-.296-.316a15.8 15.8 0 0 1-.395.274c.019.025.042.063.062.087a.531.531 0 0 1 .107-.03c.077.022.08.36.08.513a8.23 8.23 0 0 1-.063 1.09c-.029.127-.03.265-.09.38.085.096.442.414.51.465.07-.047.423-.296.494-.376a4.269 4.269 0 0 0-.095-.134c-.016.012-.09.07-.143.055-.077-.026-.09-.05-.127-.107-.164-.254-.178-1.01-.066-1.35.035-.106.056-.193.15-.28zm-1.21-.579c-.014-.007-.02.02-.052-.018-.049-.054-1.09-1.18-1.19-1.28l-.003.626c.073.067.482.56.485.562l-.427.341.018 1.31c0 .162-.01.465-.08.55.327.067.608.36.74.517a2.94 2.94 0 0 1 .618-.355v-2.09a.454.454 0 0 1 .102-.184c-.023-.029-.043-.048-.07-.087-.036.022-.068.083-.143.108zm-.334 2.15c-.054-.045-.075-.066-.121-.1a1.85 1.85 0 0 0-.319-.197v-1.5s.1-.15.14-.205c.101.103.219.228.301.324v1.68zm2.31-1.56c.015.249.047.96.047 1.07.006.124.009.793-.164 1.03.08.068.561.482.6.523.09-.067.407-.366.531-.484a1.02 1.02 0 0 0-.066-.094c-.106.065-.254.226-.396.199-.093-.043-.103-.26-.107-.317v-.634c.008-.017.547-.423.732-.65-.047-.121-.546-.971-.594-1.03-.084.057-.459.305-.582.39zm.416 1.03.008-.803c.057.068.349.523.352.526a7.5 7.5 0 0 1-.361.277zm1.95-.495c-.037-.04-.346-.356-.462-.471-.13.175-.521.07-.6.181.003.01 0 .015.003.025a1.37 1.37 0 0 1 .101.193c.036.064.146.403.142.523 0 .034.005.053.005.087l-.085.058a.651.651 0 0 0-.186.244c-.18.42-.162 1.26.198 1.61.069-.073.465-.4.515-.449a1.47 1.47 0 0 0 .038.272c.044.121.068.18.224.282l.328-.319c.003-.003-.048-.06-.062-.084-.024.012-.035.02-.056.03-.02.01-.06.02-.062-.034v-1.86c0-.122.189-.214.203-.29a.136.136 0 0 0-.004-.058.132.132 0 0 0-.03-.05c-.067.035-.153.082-.214.109zm-.507 1.81a.189.189 0 0 1-.115.11c-.085-.061-.121-.127-.156-.245-.088-.299-.026-.698.057-.888.118.085.241.233.331.32.008.266-.012.495-.119.703zm.127-.951c-.102-.088-.18-.197-.276-.292a2.53 2.53 0 0 0-.117-.634c.143.081.289.233.396.329.003.207 0 .394 0 .595zm2.38-.373c.045-.157.042-.403-.038-.514a.147.147 0 0 0-.169-.047c-.159.062.05.456-.055.587-.085.09-.187.088-.282.031-.146-.073-.419-.452-.432-.469-.169.1-.336.185-.512.288v1.01c.039.059.309.399.385.494-.067.11-.492.761-.54.835.065.056.169.14.173.143.078-.097.216-.195.38-.115.2.098.391.465.394.465a.756.756 0 0 1 .524-.177c.033-.458.093-.991-.109-1.37-.052-.085-.111-.169-.216-.2.053-.072.127-.194.169-.254.066-.07.268-.435.333-.71zm-.576 2.27c-.042-.036-.247-.35-.594-.359.096-.15.372-.574.405-.638.326.07.235.701.193.998zm-.296-1.22a4.08 4.08 0 0 1-.211-.267v-.651c.146.179.373.347.568.338-.07.121-.357.58-.357.58zm-15.7-1.4a2.36 2.36 0 0 0-.272-.131c-.042-.019-.068-.029-.124-.051a5.93 5.93 0 0 1 .105-.285c.107-.288.211-.561.316-.837-.055-.032-.179-.116-.194-.122-.021.042-.051.107-.077.155-.008.007-.198-.14-.237-.166a18 18 0 0 1-.764-.564 2.14 2.14 0 0 0-.175.2 2.83 2.83 0 0 0-.326.535 2.98 2.98 0 0 0-.13.41l-.038.255c0 .064-.003.097-.004.137a.447.447 0 0 0-.135.152 1.33 1.33 0 0 0-.112.28c-.17.519.027 1.05.355 1.25a1.29 1.29 0 0 0 .306.122 1.96 1.96 0 0 0 .28.028.366.366 0 0 1-.126.22c-.095.057-.29-.067-.441-.031-.26.06-.445.277-.528.55-.137.449.08 1.06.64.936.212-.048.348-.169.503-.283.045-.035.144-.127.147-.127.07.054.132.11.197.159.068.06.305.259.369.309.099-.079.336-.346.412-.434a3.29 3.29 0 0 0 .21-.267 3.44 3.44 0 0 0 .468-.925c.087-.271.084-.638-.038-.879-.112-.265-.356-.452-.589-.596zm-1.4 2.58c-.134.098-.47.285-.592.067a.535.535 0 0 1 .003-.441c.146-.25.45.014.597.117.05.035.085.074.138.118a1.14 1.14 0 0 1-.148.14zm.093-3.47a1.65 1.65 0 0 1 .12-.301c.091.058.643.454.709.497-.06.178-.12.33-.183.493-.45 0-.764-.211-.647-.688zm-.43 1.2a2.4 2.4 0 0 1-.056-.459c.15.372.321.695.845.692-.032.101-.065.167-.1.254-.376-.018-.577-.211-.69-.486zm1.19 1.56a1.58 1.58 0 0 1-.082.114c-.112-.06-.343-.197-.496-.271.055-.127.085-.195.132-.311.273-.011.414.024.507.151.04.098.02.197-.059.318zm.71-.479a1.86 1.86 0 0 1-.058.226 1.89 1.89 0 0 1-.216.438c-.038.06-.085.127-.131.198a.803.803 0 0 1-.138-.097c.06-.088.116-.166.16-.238.17-.272.336-.706.007-.938a.892.892 0 0 0-.222-.112 1.7 1.7 0 0 0-.38-.062c.042-.104.066-.157.099-.254.406.028.719.164.845.47a.921.921 0 0 1 .042.166.55.55 0 0 1-.008.205zm3.9-.429c-.01-.113.006-1.36.006-1.85-.008-.079.127-.3.164-.368a1.15 1.15 0 0 0-.105-.075 3.29 3.29 0 0 0-.148.18c-.068-.053-.182-.126-.28-.21-.15.149-.276.276-.525.54-.023-.177-.149-.352-.292-.373-.05.129-.278.338-.403.408a.859.859 0 0 0 .046.087c.026-.013.211-.115.208-.042.008.223.048 1.87-.042 1.98.017.036.25.203.308.254a2.36 2.36 0 0 0 .3-.263c-.14-.193-.108-1.52-.105-1.77a7.09 7.09 0 0 1 .278-.284c.074-.057.161.048.16.169v1.59c.002.102.023.415.26.498.036-.03.326-.351.4-.423-.017-.027-.057-.069-.072-.089-.064.043-.145.127-.157.047zm2.85-.415c-.052-.024-.155.093-.155.093s-.074.071-.076-.028v-3.06c.014-.07.178-.254.238-.321a.104.104 0 0 0-.023-.043.109.109 0 0 0-.042-.027l-.436.373c-.206-.116-.662-.38-1.11-.187-.408.152-.841.682-.813 1.61.003.06.027.438.196.72.026.042.175.21.169.214-.344.531-.373.657-.44.86-.045.14-.077.365.008.491.054.107.387.213.343-.16-.006-.03-.062-.353.238-.265.298.073.621.341.668.383l.451-.459c.092.2.278.538.568.328.097-.07.207-.233.278-.423a.082.082 0 0 0 0-.032.09.09 0 0 0-.012-.03.089.089 0 0 0-.023-.023.082.082 0 0 0-.03-.012zm-2.05-1.41c-.085-.442.06-.913.287-1.11a.565.565 0 0 1 .186-.115c.035-.01.254-.097.576.05-.034.063-.069.119-.103.182-.08-.015-.15-.043-.264-.028-.194.042-.282.148-.346.299a.81.81 0 0 0-.055.342c.054-.076.138-.25.358-.248a.838.838 0 0 1 .112.029c-.046.088-.076.147-.117.211-.1.164-.183.33-.284.493-.057.093-.114.198-.187.315-.084-.105-.134-.304-.165-.423zm1.25 1.41c-.085.115-.241.244-.411.19-.146-.046-.277-.137-.412-.195a3.34 3.34 0 0 0-.243-.092l.234-.465c.28-.022.561-.055.841-.077 0 .079-.009.553-.009.642zm.013-1.02c-.16.009-.437.042-.536.049l-.146.013c.066-.117.143-.264.198-.354.107-.183.487-.917.49-.917 0 .407-.006.814-.005 1.21zm5.51-14.8v.88h-.408a1.24 1.24 0 0 0-.427.087.915.915 0 0 0-.26.16.932.932 0 0 0-.12-.088 1.11 1.11 0 0 0-.548-.155l-2.71-.002h-1.36a1.22 1.22 0 0 0-.426.087.93.93 0 0 0-.25.15 1.05 1.05 0 0 0-.677-.24h-4.09c-.46 0-.954.343-.954.854v4.58h2.33a1.29 1.29 0 0 0 .151-.01v1.12h.271v1.57a.798.798 0 0 0 .127.443h-.03c-.074 0-.456.013-.721.279a.795.795 0 0 0-.232.577v2.63c0 .349.193.627.528.76a1.1 1.1 0 0 0 .18.056c-.025.096-.053.174-.111.205l-.014.005a.19.19 0 0 1-.074.008l-.02-.003a.577.577 0 0 1-.154-.057c-.313-.159-.608-.316-.608-.316v.004l-.004-.002c-.035.267-.047.436-.162.513-.07.044-.175.056-.344.037v.004H5.42l-.171.756c-.04-.023-.1-.046-.14-.066l.41-1.09-.876-.568-.065.113-.953-.686-.15.115c-.027.02-.404.314-.68.79a2.32 2.32 0 0 0-.148.308 2.03 2.03 0 0 0-.103.347 1.81 1.81 0 0 0-.035.382.918.918 0 0 0-.143.194c-.009.016-.02.031-.028.048a1.17 1.17 0 0 0-.06.136l-.013.035a2.11 2.11 0 0 0-.123.672c0 .076.003.177.018.289s.042.237.09.363a1.3 1.3 0 0 0 .206.368 1.09 1.09 0 0 0-.446.894c-.003.1.004.2.014.293v.009c.074.479.273.788.592.918.435.178.93-.053 1.2-.219l.616.477.157-.12a4.83 4.83 0 0 0 1.06-1.21 1.06 1.06 0 0 0 .49.273l.135.027.39-.393a.704.704 0 0 0 .38.12h.098l.071-.067c.015-.014.04-.038.38-.476l.375.236.41-.393a.699.699 0 0 0 .52.175l.095-.006.067-.068.137-.136a.562.562 0 0 0 .312.098h.01a.48.48 0 0 0 .242-.065.659.659 0 0 0 .137-.102.955.955 0 0 0 .137-.167.569.569 0 0 0 .034-.058 3.19 3.19 0 0 1 .387.29l.178.151.165-.165c.032-.033.105-.103.215-.209a.648.648 0 0 0 .355.148.68.68 0 0 0 .437-.121c.047-.031.095-.068.142-.11.08.069.177.153.267.233l.16.142.439-.357a.749.749 0 0 0 .46.274l.127.02.091-.089c.045-.042.235-.219.32-.296.06.034.146.088.252.172.105.084.231.197.37.349l.139.151.177-.104a.483.483 0 0 0 .054-.038c.296-.223.48-.324.586-.37l.596.518.15.127.526-.37.972.848.375-.347c.073.158.186.338.353.459.056.04.118.074.187.097l.105.037.098-.053c.019-.01.053-.029.214-.172a.965.965 0 0 0 .355.276.233.233 0 0 0 .101.034.237.237 0 0 0 .106-.014c.07.055.135.101.2.14a.8.8 0 0 0 .344.123c.052.004.1-.001.146-.014a.211.211 0 0 0 .07-.036.97.97 0 0 1 .126.161c.13.2.262.478.262.478.162-.136.303-.25.469-.327a1.07 1.07 0 0 1 .436-.099 1.72 1.72 0 0 1 .184.003l.028-.222c.047-.383.067-.716.059-.998a3.07 3.07 0 0 0-.034-.384 1.64 1.64 0 0 0-.075-.305.967.967 0 0 0-.105-.21 2.91 2.91 0 0 0 .25-.498c.103-.267.132-.49.114-.676a.925.925 0 0 0-.344-.65l-.043-.035-.053-.015c-.236-.062-.426-.034-.565.082a.479.479 0 0 0-.124.162l-.223-.254-.176.09-.285.144a.442.442 0 0 0-.136-.162.514.514 0 0 0-.412-.071c-.12-.127-.364-.384-.397-.415l-.191-.182a1.43 1.43 0 0 1-.062.088.752.752 0 0 1-.086.095.42.42 0 0 1-.108.074.288.288 0 0 1-.063.021.25.25 0 0 1-.067.005.999.999 0 0 0-.288.02l-.524-.767-.707.444-.165-.238a1.23 1.23 0 0 0 .385-.084c.338-.135.53-.413.53-.761v-2.63a.796.796 0 0 0-.232-.578.997.997 0 0 0-.545-.26v-1.15h.972v.69a.788.788 0 0 0 .229.569c.265.264.648.278.724.278h1.36c.076 0 .46-.012.725-.276a.789.789 0 0 0 .23-.57v-3.26h-1.35v-.386h-1.91v.159h-1.93a1.21 1.21 0 0 0-.428.084.922.922 0 0 0-.254.152c-.261-.225-.606-.238-.676-.238h-1.36a1.19 1.19 0 0 0-.427.085.897.897 0 0 0-.243.145.948.948 0 0 0-.615-.222h-.457v-.301h.774v.002h6v-5.21zm.412.412h1.1v4.39h-1.91s-.545-.004-.545-.436v-2.63c0-.44.545-.443.545-.443h.818zm-11.7.88h1.91v4.15l.003-.002s0 .46-.54.46h-1.92v-.874h1.36V7.3H5.25s-.545-.003-.545-.436v-2.64c0-.205.214-.44.542-.44zm2.19 0h1.9s.541.004.541.447v1.09c0 .127-.134.178-.134.178a.285.285 0 0 1 .136.259v1.76h1.38v.899h.87s.482 0 .482.442v3.07h-1.09v-2.63h-.263v2.63h-1.09v-3.53h-.834s-.55 0-.55-.436v-1.97H8.53l-.002 2.01h-1.09zm3.26.002h1.36s.542 0 .542.443v3.06h-1.9s-.54-.001-.54-.436v-1.32c0-.436.54-.436.54-.436h.814v-.435h-.264v.214h-1.09v-.65c0-.443.541-.443.541-.443zm4.07.002c.17 0 .541.105.541.443v3.06h-1.09v-2.63h-.264v2.63h-1.09v-3.51h1.09v.221c.178-.145.447-.22.812-.22zm-8.97.877v1.76h.265v-1.76zm10.9 0v1.77h.266v-1.77zm-8.14.001v.438h.263V4.67zm2.71 1.31v.442h.264V5.98zm-3.8 2.26h1.09v.401h1.37v.874h-1.35v1.54h.271v-1.32h1.08v1.76c0 .436-.54.436-.54.436h-1.36s-.542-.003-.542-.436v-1.98h-.27v-.874h.254zm11 .015h1.09v.386h1.35v.874h-1.35v1.54h.268v-1.32h1.08v1.76c0 .435-.54.435-.54.435h-1.36s-.54 0-.54-.433v-1.98h-.27v-.874h.27zm-5.07.16h1.36s.542-.002.542.441v1.76h-1.35v.443h.265v-.222h1.09v.66-.001c0 .436-.541.436-.541.436h-1.36s-.542-.002-.542-.436v-2.64c0-.443.542-.443.542-.443zm2.72.001h1.91l-.004.88h-1.36v.214h1.36v.881h-1.36v1.54h-1.1v-3.07c0-.444.545-.444.545-.444zm-2.17.88v.436h.265v-.437zm-1.66 2.87h1.08l.005.4h1.35v.874h-1.35v1.53h.096l.009.661-.08.074-.297-.23-.374.36c-.156-.025-.44-.113-.44-.424v-1.98h-.272v-.876h.271zm-2.99.175h1.08v2.25a1.41 1.41 0 0 0-1.08.586zm-2.18.003h1.36s.542 0 .543.444v2.91c-.02.054-.038.107-.053.158h-.506l-.002-.001-.002.001h-1.34s-.54-.001-.54-.435v-1.32c0-.436.54-.436.54-.436h.812v-.436h-.264v.211h-1.09v-.649c0-.443.541-.443.541-.443zm3.53.002h1.09v2.11l-.08.036a.35.35 0 0 1-.03.012.688.688 0 0 0-.098.042l-.02.012c-.028.02-.064.051-.126.102l-.111.094-.006-.003a1.83 1.83 0 0 0-.286-.1 2.28 2.28 0 0 0-.336-.053zm4.9.002h1.37s.542-.004.542.44v2.63c0 .436-.542.436-.542.436h-1.36s-.542 0-.542-.435v-2.63c0-.442.542-.442.542-.442zm.544.877v1.75h.265v-1.75zm-2.45.43h1.08v1.76c0 .01-.003.017-.004.026l-.877-.882-.2.031zm-5.98.883v.44h.264v-.44zm4.1.188c.165.061.238.16.241.246.007.144-.164.272-.164.272l-.064.207-.003.989s.288-.073.431-.487a.686.686 0 0 1 .496.267l.423-.407.292.227.163-.15.321.368c-.107.173-.127.233-.094.254a.057.057 0 0 0 .04.01.058.058 0 0 0 .038-.02l.169-.153-.312-.433-.012-1.08.034-.005 1.43 1.44.122-.085.268.287.343-.26.296.308.415-.267.409.588.706-.44.507.737s.053-.108.377-.084a.49.49 0 0 0 .402-.17c.038.037.497.52.497.52s.495-.238.419.333c.063-.035.604-.302.604-.302l.413.478s.09.077.069 0c.017-.075-.147-.687.427-.537.669.553-.192 1.67-.192 1.67s.455.076.237 1.83a1.23 1.23 0 0 0-.787.272s-.19-.377-.395-.537c-.07-.069-.101.079-.205.09-.19.07-.61-.322-.61-.322s-.101.094-.098.08a.754.754 0 0 1-.419-.459s-.349.323-.399.35c-.383-.132-.507-.769-.507-.769l-.497.456-.952-.829-.525.37s-.646-.557-.7-.609c-.315.06-.81.46-.832.474-.51-.555-.857-.65-.857-.65s-.38.348-.448.416c-.318-.05-.428-.409-.428-.409l-.503.41s-.44-.388-.457-.39c-.553.697-.896.065-.896.065l-.409.395c-.55-.465-.719-.432-.727-.428a.51.51 0 0 1-.07.254c-.313.48-.63.028-.63.028s-.233.224-.313.304c-.352.024-.474-.304-.474-.304l-.474.454-.402-.254s-.462.6-.493.63c-.195.003-.394-.208-.394-.208s-.465.465-.456.459c.01-.006-.416-.085-.564-.536-.368.88-1.19 1.52-1.19 1.52l-.604-.465s-1.34.999-1.56-.427c-.046-.423.01-.841.603-1.12-.58-.372-.477-1.18-.477-1.18s.06-.673.368-.848c-.1-1.01.86-1.74.86-1.74l1.03.74.07-.126.48.313s-.394 1.03-.428 1.13c.686.227.881.737.881.737s.536-.388-.155-.826l.107-.497c.37.03.451-.191.495-.44.081.04.151.084.318.172.222.116.496.242.65-.153a3.36 3.36 0 0 0 .321.192c.104-.013.254-.237.29-.345a.706.706 0 0 1 .443.263l.402-.41.331.202.146-.146.156.087s.165-1.79 1.79-1.4c.123.028.243.09.384.143.074-.035.29-.233.35-.277a1.33 1.33 0 0 1 .104-.042zm-1.85 1.89c-.015.042.01.236.04.328.075-.137.077-.14.155-.292-.11.089-.185-.025-.194-.034zm1.85.12-.001 1.23s.14.143.183.162c.007-.227.003-1.17.003-1.17zm-.943.07-.146.287.14-.019zm2.04.121-.092.101v1.29c-.01.066.034.068.053.063.035.003.04-.054.04-.054zm-9.05.01s-.06.159-.016.25a.299.299 0 0 0 .266.133l.069-.185zm5.33.062-.007 1.34a4.58 4.58 0 0 1 .341-.676c-.175-.117-.334-.659-.334-.659zm4.63.012-.068.007v-.001s-.008 1.03.01 1.12c.023.15.04-.007.037-.01.022-.188.027-.936.022-1.12zm.783.032-.002 1.11a.445.445 0 0 0 .098.043c.003-.09.003-1.05.003-1.05zm.948.1-.042.02-.014 1.4s.027.005.024 0c.02-.039.123-1.2.047-1.4-.003-.018-.015-.018-.015-.018zm-7.16.16-.082.086-.002.768s.024.394.024.378c.03.187.066.03.063-.018.003-.07-.003-1.21-.003-1.21zm-.98.063-.009.005s-.045.01-.045.162c0 .18.002 1.3.007 1.31.032.09.087.014.09-.007.004-.022.004-1.3.004-1.34-.003-.127-.033-.131-.047-.125zm9.52.037c-.017.009-.325.254-.325.254l-.15-.172c0 .003-.14.4 0 1.01.05.238.212.085.212.085l.234.3s.18-.77.028-1.48zm-.475.082v-.001zm-10.1.12h.001zm.001 0a.992.992 0 0 1 .032.316c.006.083.065.052.065.052l.003-.344zm11.4.112v.105l.052-.042zm-6.85.143-.493.032v-.003s-.103.233-.103.243a.482.482 0 0 1 .15.048 2.01 2.01 0 0 0 .253.094c.18.043.186-.076.19-.08.008-.017.004-.334.004-.334zm8.1.018v.001c.032.144.022.264.076.273.002.002.002-.195.002-.195l-.078-.08zm-2.23.003a4.19 4.19 0 0 1-.003.37l-.033-.041-.031.028a1.99 1.99 0 0 1-.02-.287zm1.71.066-.655.577.01.423s.014.309.31-.003c.029-.053.026-.5.367-.879a3.17 3.17 0 0 0-.032-.118m1.39.109-.082.038c0 .002.005 1.43 0 1.51.115.037.227.183.227.183l.18-.276-.319-.392zm-.082.038v-.001l-.002.002zm-13.4.335s-.03.5.05.634c.024.065.04-.101.04-.101l.025-.461c-.073-.048-.115-.072-.115-.072zm14.3.153a.323.323 0 0 0 .002 0zm.002 0c0 .002-.025.25.034.245.044-.063.091-.137.104-.154a.323.323 0 0 1-.139-.09zm-1.73.119h-.001c-.05.32.008.553.042.566.047-.088.059-.452.059-.452zm-14.7.617c-.112-.014-.134.099-.134.099l.202.117s.129-.129-.015-.202a.218.218 0 0 0-.053-.014m16.6.325-.15.24s.12.064.195.098h.001c.038-.275-.046-.338-.046-.338zm-17.6.424a.06.06 0 0 0-.033.006c-.061.031-.061.127-.061.127s-.005.126.106.113c0 0 .162-.029.209-.106 0 0-.135-.135-.221-.14z"/></svg>