<svg xmlns="http://www.w3.org/2000/svg" viewBox="0 0 24 24"><path d="M5.164 5.655c-.793.497-1.491 1.788-2.4 4.465-.296.89-.611 1.702-.688 1.788-.124.143-.105.191.124.402.316.286.584.315.66.076.096-.296 3.069-3.145 4.092-3.93.21-.162.21-.152 1.51 3.672 1.186 3.518 1.597 4.532 2.142 5.344.985 1.463 2.066 1.358 2.993-.305.296-.526.507-.746.507-.517 0 .191 1.118 1.3 1.568 1.55.382.219.602.286 1.013.286 1.453-.01 2.562-1.224 4.37-4.8.334-.678.707-1.329.812-1.434.172-.172.172-.2.029-.42-.086-.134-.392-.937-.679-1.788-.612-1.779-1.425-3.51-1.855-3.968-.85-.89-1.72-.727-2.486.45-.162.267-.325.487-.353.487-.02 0-.373-.191-.775-.42-.401-.24-1.147-.565-1.644-.737C13.272 5.569 13.1 5.54 12 5.54s-1.271.03-2.141.326c-.756.258-.976.296-1.1.2a9.127 9.127 0 0 0-.67-.363c-.439-.21-.582-.23-1.003-.172-.583.086-.755.086-1.252 0-.287-.038-.45-.01-.67.124m2.677.803c.306.144.306.192-.067.402-.287.182-.296.182-.43 0-.335-.45-.344-.516-.038-.516.162 0 .401.047.535.114m5.546.029c.544.134 2.294.947 2.657 1.233.153.115.144.163-.105.784-.153.364-.669 1.855-1.157 3.309-.487 1.462-.918 2.677-.965 2.705-.039.029-.689-1.157-1.425-2.639-1.482-2.954-1.644-3.25-2.333-4.283-.258-.382-.43-.736-.382-.774.038-.048.382-.172.745-.278.823-.229 2.17-.258 2.964-.057zm5.392.191c.162.191.411.564.545.832.277.555 1.09 2.61 1.09 2.773 0 .048-.402-.278-.88-.746a39.038 39.038 0 0 0-1.577-1.405c-.383-.316-.698-.593-.698-.612 0-.077.497-.813.669-.985.277-.277.516-.24.85.143zM6.55 7.175l.21.364-.41.334c-.23.182-.804.68-1.272 1.1-.469.42-.832.679-.784.573.239-.65 1.74-2.724 1.97-2.724.037 0 .171.162.286.353m2.897.985c.296.45 1.166 2.037 1.922 3.538s1.53 3.002 1.72 3.336l.345.603-.23.516c-.306.66-.774 1.348-1.013 1.472-.268.144-.507-.01-.87-.535-.478-.698-.985-1.97-2.094-5.249-.574-1.683-1.128-3.27-1.233-3.528-.115-.258-.192-.478-.182-.487.402-.297.822-.526.937-.507.076.019.392.392.698.841m8.748 1.272c.507.45 1.339 1.233 1.836 1.74l.908.908-.698 1.377c-1.214 2.419-2.333 3.91-3.136 4.169-.459.153-.927.019-1.453-.44-.363-.306-1.262-1.453-1.262-1.606 0-.096 2.17-6.473 2.342-6.875.182-.43.105-.468 1.463.727"/></svg>