<svg xmlns="http://www.w3.org/2000/svg" viewBox="0 0 24 24"><path d="M15.099 20.561c-.523-.241-.973-.46-.999-.486-.026-.026-.047-.112-.045-.191.002-.162.852-2.017.952-2.081.187-.118.451.032.451.256 0 .061-.16.46-.358.887l-.358.776.551.252c1.056.484 1.116.52 1.133.7.018.185-.097.328-.264.326-.061 0-.54-.198-1.063-.439zm-7.57-1.22c-2.214-1.33-3.658-3.377-4.172-5.915-.102-.5-.117-.73-.115-1.686.004-1.255.073-1.702.433-2.783 1.48-4.443 6.258-6.924 10.793-5.602 2.737.798 4.94 2.93 5.846 5.659.542 1.63.589 3.511.129 5.119a8.854 8.854 0 0 1-4.1 5.268c-.253.144-.517.263-.587.263-.238 0-.38-.289-.233-.472.035-.044.244-.178.464-.298 1.755-.952 3.22-2.774 3.811-4.737.273-.905.317-1.236.317-2.39 0-.947-.015-1.148-.121-1.62-.408-1.825-1.294-3.345-2.63-4.515a8.422 8.422 0 0 0-3.75-1.868c-.725-.154-2.019-.191-2.772-.08a8.09 8.09 0 0 0-4.67 2.367 8.104 8.104 0 0 0-2.247 4.378c-.09.528-.102.758-.078 1.594.038 1.325.22 2.102.763 3.263.677 1.446 1.94 2.81 3.324 3.586.574.322.684.48.476.689-.162.161-.308.125-.88-.219zm1.416-2.425c-.147-.147-.175-.212-.175-.405 0-.218.039-.281.666-1.088.592-.762.672-.889.725-1.15.032-.162.086-.417.119-.566l.06-.272.483.486.483.486-.101.403c-.097.382-.137.45-.785 1.294-.397.518-.737.911-.81.94-.263.099-.48.057-.665-.128m3.785.1c-.192-.105-.233-.216-.463-1.263a53.03 53.03 0 0 0-.261-1.15c-.04-.147-.229-.386-.74-.934-.678-.726-.801-.917-.796-1.234.001-.057.114-.612.25-1.235.137-.622.243-1.139.237-1.147-.008-.008-.264.131-.57.31l-.558.323-.338.758c-.186.418-.386.808-.446.867-.171.172-.468.148-.646-.052-.079-.088-.143-.207-.143-.263 0-.095.615-1.601.798-1.955.052-.102.372-.344.982-.745a30.31 30.31 0 0 1 1.052-.67c.1-.052.31-.076.669-.076.591 0 .805.07.985.324.209.293.185.551-.188 2.043-.188.75-.352 1.4-.365 1.442-.013.044.184.431.436.862l.46.782.235 1.056c.13.582.262 1.156.295 1.276.05.186.044.249-.034.413a.617.617 0 0 1-.851.268zm1.545-5.536c-.67-.194-.703-.21-.934-.457l-.239-.256.153-.606c.085-.334.161-.614.17-.623.01-.01.153.179.318.419l.3.436.644.19c.502.148.674.222.784.34.192.203.188.419-.009.616-.198.198-.325.191-1.187-.06zm-2.064-3.524c-.3-.093-.632-.44-.716-.75a1.108 1.108 0 0 1 .717-1.324c.277-.092.53-.069.824.078.465.231.704.755.572 1.248-.087.321-.415.655-.738.75-.31.093-.35.093-.659-.002z"/></svg>