<svg xmlns="http://www.w3.org/2000/svg" viewBox="0 0 24 24"><path d="M9.217 21.91c-1.324-.25-2.554-.976-3.356-1.979-.432-.541-.902-1.477-1.076-2.145-.196-.748-.195-1.985.002-2.727a5.68 5.68 0 0 1 4.03-4.034c1.044-.277 2.447-.178 3.491.246.22.09.414.162.432.162s.041-2.082.051-4.628c.018-4.54.02-4.63.151-4.727a.54.54 0 0 1 .333-.075c.235.028 5.978 3.837 6.044 4.008a.7.7 0 0 1 .042.205c0 .123-1.376 1.942-1.533 2.026-.212.113-.301.076-1.13-.471-.445-.295-.821-.525-.835-.512-.013.014-.03 1.864-.036 4.112-.016 5.72-.046 6.133-.53 7.272-.99 2.332-3.602 3.735-6.08 3.267"/></svg>