<svg xmlns="http://www.w3.org/2000/svg" viewBox="0 0 24 24"><path d="M7.733 9.33c0-.148-.093-.223-.277-.223v-.223h1.94v.223a.253.253 0 0 0-.164.062c-.042.033-.063.087-.063.161v5.637c0 .075.021.133.063.174.05.033.105.05.164.05v.223h-1.94v-.224c.185 0 .277-.074.277-.223v-2.334H3.676v2.334c0 .075.02.133.063.174.05.033.105.05.164.05v.223H2v-.223c.16 0 .24-.075.24-.224V9.331c0-.15-.08-.224-.24-.224v-.223h1.903v.223a.253.253 0 0 0-.164.062c-.042.033-.063.087-.063.162v2.11h4.057zm3.923 5.86c.218 0 .327-.074.327-.223V9.331c0-.15-.11-.224-.328-.224v-.223h2.092v.223c-.218 0-.328.075-.328.224v5.636c0 .149.11.223.328.223v.224h-2.092zm7.71-.223c0 .149.093.223.278.223v.224h-1.94v-.224a.237.237 0 0 0 .15-.05c.051-.04.076-.098.076-.173v-4.941h-2.079a.47.47 0 0 0-.227.062c-.067.041-.1.12-.1.236h-.227V8.586h.227c0 .116.033.194.1.236a.47.47 0 0 0 .227.062h5.594a.406.406 0 0 0 .215-.062c.075-.042.113-.12.113-.236H22v1.738h-.227c0-.116-.038-.195-.113-.236a.402.402 0 0 0-.215-.062h-2.079z"/></svg>