<svg xmlns="http://www.w3.org/2000/svg" width="192" height="192" viewBox="0 0 192 192"><path d="M61.864 74.64q0-1.784-2.216-1.784v-1.784h15.52v1.784a2 2 0 0 0-1.312.496q-.504.4-.504 1.288v45.096q0 .896.504 1.392.6.4 1.312.4v1.784h-15.52v-1.792q2.216 0 2.216-1.784v-18.672H29.408v18.672q0 .896.504 1.392.6.4 1.312.4v1.784H16v-1.784q1.92 0 1.92-1.792V74.648q0-1.792-1.92-1.792v-1.784h15.224v1.784a2 2 0 0 0-1.312.496q-.504.4-.504 1.296v16.88h32.456zm31.384 46.88q2.616 0 2.616-1.784V74.648q0-1.792-2.624-1.792v-1.784h16.736v1.784q-2.616 0-2.624 1.792v45.088q0 1.784 2.624 1.784v1.792H93.24zm61.68-1.784q0 1.784 2.224 1.784v1.792h-15.52v-1.792a1.92 1.92 0 0 0 1.2-.4q.608-.48.608-1.384V80.208h-16.632a4 4 0 0 0-1.816.496q-.8.496-.8 1.888h-1.816V68.688h1.816q0 1.392.8 1.888a4 4 0 0 0 1.816.496h44.752a3.2 3.2 0 0 0 1.72-.496q.904-.496.904-1.888H176v13.904h-1.816q0-1.392-.904-1.888a3.2 3.2 0 0 0-1.72-.496h-16.632z"/></svg>