<svg xmlns="http://www.w3.org/2000/svg" viewBox="0 0 24 24"><path d="M7.733 9.33q0-.223-.277-.223v-.223h1.94v.223a.25.25 0 0 0-.164.062q-.063.05-.063.161v5.637q0 .112.063.174.075.05.164.05v.223h-1.94v-.224q.277 0 .277-.223v-2.334H3.676v2.334q0 .112.063.174.075.05.164.05v.223H2v-.223q.24 0 .24-.224V9.331q0-.224-.24-.224v-.223h1.903v.223a.25.25 0 0 0-.164.062q-.063.05-.063.162v2.11h4.057zm3.923 5.86q.327 0 .327-.223V9.331q0-.224-.328-.224v-.223h2.092v.223q-.327 0-.328.224v5.636q0 .223.328.223v.224h-2.092zm7.71-.223q0 .223.278.223v.224h-1.94v-.224a.24.24 0 0 0 .15-.05q.076-.06.076-.173v-4.941h-2.079a.5.5 0 0 0-.227.062q-.1.062-.1.236h-.227V8.586h.227q0 .174.1.236a.5.5 0 0 0 .227.062h5.594a.4.4 0 0 0 .215-.062q.113-.062.113-.236H22v1.738h-.227q0-.174-.113-.236a.4.4 0 0 0-.215-.062h-2.079z"/></svg>