<svg xmlns="http://www.w3.org/2000/svg" viewBox="0 0 24 24"><path d="M16.055 5.804c.726-.357 1.086-.31 1.094.051.01.47-.059 1.094-.109 1.548-.27 2.455-.72 4.463-.755 6.985 1.187-3.071 2.183-5.206 3.463-7.835.407-.837.666-.682 1-.83 1.303-.58 1.352-.224 1.181.484-.632 2.625-2.246 10.89-2.493 12.163-.072.368-.472.212-.576.068-.463-.64-.986-.65-.927-1.077.29-2.122 1.336-7.445 1.609-8.7-1.391 2.85-2.832 6.412-3.572 8.432-.158.43-.443.398-.62.083-.25-.44-.737-.665-.817-1.186-.255-1.656.29-4.814.366-6.81-.757 2.181-2.027 6.417-2.584 8.33-.23.792-.994.663-.791-.109.846-3.211 2.668-8.891 3.457-10.934.185-.48.67-.463 1.074-.662m-4.613-.395c.23.056.212.327.071.698-.416 1.095-.991 2.534-1.65 4.23.414-.047.639-.063.639-.063.594-.073.705.224.537.54-.133.252-.294.084-.85.913-.313.468-.825.591-1.11.654a153 153 0 0 0-2.13 5.99.283.283 0 0 1-.499.118c-.335-.468-.582-.483-.842-.862-.03-.061-.091-.144-.055-.295.191-.78.698-2.382 1.469-4.493-.971.21-2.022.437-2.456.537a198 198 0 0 0-1.51 4.12c-.298.846-1.074.683-.802-.117a139 139 0 0 1 1.394-3.878c-.538-.058-.72-.438-1.02-.755-.116-.123-.37-.105-.494-.277-.222-.31-.2-.447.314-.595a52 52 0 0 1 2.027-.54 311 311 0 0 1 2.075-5.2c.323-.793 1.156-.718.84.062a381 381 0 0 0-1.953 4.911 48 48 0 0 1 2.42-.48 124 124 0 0 1 1.872-4.54c.046-.106.18-.254.318-.277.437-.075 1.149-.46 1.396-.401m-1.49 10.279q.101-.064.203-.148l-.153-.459q-.075.097-.149.198c-.29.399-.118.541.099.409m.387-1.896c.36-.407-.352-.577-.188.045l.033.122a6 6 0 0 0 .155-.167m.375 1.228c.358-.31.698-.003.345.52a6 6 0 0 1-.256.353q.056.16.117.317c.182.469-.298.586-.452.198l-.041-.108c-.292.259-.629.421-.989.309-.592-.184-.743-1.019-.19-1.661.222-.258.389-.437.529-.58a12 12 0 0 1-.099-.333c-.072-.26-.136-.563.124-.872.488-.58 1.62-.065 1.047.827a7 7 0 0 1-.467.623q.087.276.176.55a4 4 0 0 1 .156-.143"/></svg>