<svg xmlns="http://www.w3.org/2000/svg" data-name="Layer 1" viewBox="0 0 24 24"><defs><mask id="a" width="20" height="17.73" x="2" y="3.14" maskUnits="userSpaceOnUse"><path d="M4.22 20.47v-6.75H2.47a.47.47 0 0 1-.47-.47.51.51 0 0 1 .13-.33l9.45-9.61a.59.59 0 0 1 .83 0l4.93 5v-.93a.39.39 0 0 1 .39-.4h1.64a.4.4 0 0 1 .39.4v3.39l2.1 2.15a.47.47 0 0 1 0 .67.51.51 0 0 1-.33.13h-1.76v6.75a.39.39 0 0 1-.39.39H4.62a.39.39 0 0 1-.4-.39m10.43-8.24a.72.72 0 0 0 .07-.33.76.76 0 1 0-.76.76.73.73 0 0 0 .33-.08l1.09 1.09v1.06L14 16.1v-1a.77.77 0 0 0 .5-.72.76.76 0 0 0-.76-.76.75.75 0 0 0-.75.76.77.77 0 0 0 .5.72v1.5l-1.26 1.27v-7.44l1-1a.66.66 0 0 0 .32.08.76.76 0 1 0-.76-.76.69.69 0 0 0 .08.32L12 10l-.94-1a.69.69 0 0 0 .08-.32.76.76 0 1 0-.76.76.73.73 0 0 0 .33-.08l1 1v5.31l-1.78-1.75v-1.46a.75.75 0 0 0 .5-.71.76.76 0 1 0-1.51 0 .75.75 0 0 0 .5.71v.95L8 12v-1.41a.77.77 0 0 0 .5-.72.75.75 0 0 0-.75-.76.76.76 0 0 0-.75.76.77.77 0 0 0 .5.72v1.62l1.57 1.56h-.9a.77.77 0 0 0-.72-.5.76.76 0 0 0 0 1.51.77.77 0 0 0 .72-.5h1.4l2.17 2.18v3.79l-1.16-1.16v-1.46a.77.77 0 0 0 .51-.72.76.76 0 0 0-1.52 0 .77.77 0 0 0 .51.72v.95l-1.69-1.69a.76.76 0 1 0-.68.43.72.72 0 0 0 .29-.08l1.69 1.7h-.9a.74.74 0 0 0-.71-.51.76.76 0 1 0 0 1.52.74.74 0 0 0 .71-.51h1.41l1.41 1.42h.71l1.47-1.47h1.35a.74.74 0 0 0 .71.51.76.76 0 0 0 0-1.52.74.74 0 0 0-.71.51h-1.53l-1.36 1.36v-1.66L13.87 17h2.61a.76.76 0 1 0 0-.5h-2.11l1.51-1.52v-1.31L17 12.58a.73.73 0 0 0 .33.08.76.76 0 1 0-.76-.76.88.88 0 0 0 .07.33l-.73.73v-2.32a.77.77 0 0 0 .51-.72.76.76 0 0 0-1.52 0 .77.77 0 0 0 .51.72V13ZM8.11 19.5a.3.3 0 0 1-.3-.31.3.3 0 1 1 .6 0 .3.3 0 0 1-.3.31m2.22-2.28a.3.3 0 0 1-.3-.31.3.3 0 1 1 .6 0 .3.3 0 0 1-.3.31m-2.62-.36a.3.3 0 0 1-.31-.3.31.31 0 1 1 .61 0 .3.3 0 0 1-.3.3m-.26-2.53a.31.31 0 0 1 0-.61.31.31 0 1 1 0 .61m6.31.35a.3.3 0 1 1 .31-.3.3.3 0 0 1-.31.3M17.19 17a.3.3 0 1 1 .31-.3.3.3 0 0 1-.31.3m-1.31 2.43a.3.3 0 1 1 .31-.3.3.3 0 0 1-.31.31Zm1.42-7.23a.3.3 0 0 1-.31-.3.31.31 0 1 1 .61 0 .3.3 0 0 1-.3.3m-1.67-2a.3.3 0 0 1-.3-.31.3.3 0 0 1 .6 0 .3.3 0 0 1-.3.34ZM13.61 9a.31.31 0 1 1 .3-.3.3.3 0 0 1-.3.3m-3.23 0a.31.31 0 1 1 .3-.3.3.3 0 0 1-.3.3m-2.62 1.18a.31.31 0 0 1-.31-.31.31.31 0 0 1 .61 0 .31.31 0 0 1-.3.31m1.92 1.87a.31.31 0 1 1 .3-.3.31.31 0 0 1-.3.3m4.32.15a.3.3 0 0 1-.3-.3.31.31 0 1 1 .61 0 .3.3 0 0 1-.31.3" style="fill:#fff;fill-rule:evenodd"/></mask></defs><path d="M2 3.14h20v17.73H2z" data-name="fill/black" style="mask:url(#a)"/></svg>