<svg xmlns="http://www.w3.org/2000/svg" viewBox="0 0 24 24"><path d="M10.126 20.649a6.7 6.7 0 0 1-1.6-.532c-.667-.337-1.01-.606-1.846-1.445a26 26 0 0 0-1.242-1.178c-.907-.76-1.682-1.805-2.078-2.802C3.079 13.985 3 13.56 3 12.75c0-.636.017-.794.135-1.256.182-.713.41-1.296.784-2.004.172-.325.313-.643.313-.706 0-.13.16-.777.274-1.103q1.017-2.917 3.342-3.856c.818-.33 1.296-.41 2.836-.47 2.47-.097 2.645-.098 3.118-.018 1.274.218 2.426.83 3.42 1.822.233.232.617.558.853.725.55.39 1.328 1.134 1.681 1.609a6.55 6.55 0 0 1 1.216 3.105c.112.962-.122 2.424-.51 3.19-.082.16-.14.412-.195.833-.25 1.915-1.003 3.35-2.278 4.334-1.163.898-2.472 1.344-4.225 1.436-.438.024-.881.074-1.018.116-.707.216-1.863.28-2.62.143zm3.08-1.082c1.411-.219 2.585-.736 3.732-1.644 1.46-1.155 2.537-3.083 2.767-4.954.07-.574.062-1.532-.02-2.136-.247-1.822-1.221-3.576-2.648-4.766-3.46-2.886-8.629-2.25-11.245 1.384-.663.92-1.109 1.985-1.345 3.212-.117.602-.117 1.967 0 2.571.368 1.922 1.294 3.517 2.714 4.678a7.72 7.72 0 0 0 6.045 1.655M7.93 17.314c-.585-.19-.933-.61-.933-1.12 0-.305.083-.504.309-.744.185-.197.409-.316.945-.502.568-.197.772-.31.882-.49.092-.151.095-.266.095-3.425 0-3.206.002-3.272.1-3.43.118-.192.334-.28.944-.385.24-.041.61-.107.824-.145l3.958-.712.611-.106.172.107c.344.212.329.019.329 4.123 0 3.818-.019 4.25-.2 4.666-.137.312-.534.695-.887.855-.794.36-1.708-.008-1.953-.788-.069-.218-.071-.284-.017-.478.136-.485.522-.799 1.286-1.046.464-.15.669-.259.819-.437l.127-.151V11.1c0-1.85-.006-2.012-.087-2.11a.32.32 0 0 0-.206-.11c-.065-.003-.763.119-1.55.27-.788.15-1.778.338-2.202.42-.424.08-.819.146-.879.146a.5.5 0 0 0-.236.1l-.128.101v2.701c-.003 2.92-.029 3.448-.194 3.832-.128.298-.492.654-.814.797-.287.127-.829.16-1.115.066z"/></svg>