<svg xmlns="http://www.w3.org/2000/svg" viewBox="0 0 24 24"><path d="M16.967 7.89q-.002.007 0 .013c.006.022.07.073.152.12.09.05.2.16.255.255q.035.056.067.099c.032.035.061.059.077.056a.5.5 0 0 0 .12-.156.8.8 0 0 1 .257-.256.5.5 0 0 0 .146-.11l.003-.005c.003-.016-.02-.043-.053-.074a1 1 0 0 0-.102-.07.8.8 0 0 1-.255-.255c-.047-.082-.099-.147-.121-.153q-.019.004-.052.037a1 1 0 0 0-.079.116.8.8 0 0 1-.255.256.5.5 0 0 0-.16.128zm-2.126-3.04c.027 0 .115-.1.195-.222a1 1 0 0 1 .353-.34c.121-.07.205-.144.205-.184s-.085-.114-.21-.184a.75.75 0 0 1-.332-.336c-.16-.285-.234-.285-.397 0a.77.77 0 0 1-.334.335c-.274.154-.277.233-.013.367.154.078.23.152.342.332.078.127.164.231.19.232zM6.34 10.833l-.017.004q-.003 0-.005.003a.4.4 0 0 0-.09.127.5.5 0 0 1-.213.216 1 1 0 0 0-.1.06c-.027.025-.045.045-.046.054 0 .003.006.008.008.01.012.024.059.061.123.092a.6.6 0 0 1 .217.214q.032.056.063.096.037.044.052.05c.006-.001.015-.01.022-.016a.5.5 0 0 0 .084-.12.6.6 0 0 1 .22-.215.6.6 0 0 0 .11-.072q.04-.039.012-.071a.4.4 0 0 0-.107-.073.6.6 0 0 1-.218-.215 1 1 0 0 0-.07-.106.14.14 0 0 0-.045-.038m15.168 8.121-.019-.004a4 4 0 0 0-.192-.045l-.096-.02-.113-.02-.084-.012-.008-.18-.011-.27a3 3 0 0 0-.029-.344c-.007-.06-.017-.086-.025-.12a.46.46 0 0 0-.157-.215 1 1 0 0 0-.282-.144q-.054-.017-.11-.023l-.106-.011h-.112v-.149l-.007-.103a1 1 0 0 0-.034-.201 1.1 1.1 0 0 0-.154-.32 1 1 0 0 0-.27-.232 1 1 0 0 0-.351-.132 2 2 0 0 0-.197-.023l-.06-.004c-.046-.003-.107-.003-.16-.004-.1 0-.195-.001-.329.001l-.258.005-.101.003a1.6 1.6 0 0 0-.382.065 2 2 0 0 0-.12.063c-.06.034-.108.057-.155.075-.003.003-.015.01-.017.013-.007.01-.044.019-.097.025l-.012.003h-.004l-.02.002-.019.002a3 3 0 0 1-.181.01c-.04 0-.08.003-.13.005l-.035.002-.324.01-.13.003-.003-.02h-.005v-.03l-.033-.204c-.06-.36-.28-.782-.547-1.048l-.01-.01a1.9 1.9 0 0 0-.854-.48l-.027-.008-.063-.011a2 2 0 0 0-.267-.036h-.01a2 2 0 0 0-.274.001l-.05.003h-.006a2 2 0 0 0-.186.033q-.07.013-.14.032a3 3 0 0 1-.28.078v-.001l-.007.002c-.001 0-.007-.014-.009-.015a.7.7 0 0 1-.074-.126l-.005-.01c-.091-.18-.22-.49-.298-.74a9 9 0 0 1-.231-1.061l-.014-.08a8 8 0 0 1-.073-.556c-.022-.279-.016-.39-.068-.39-.035 0-.245.214-.438.416-.285.297-.4.403-.518.437.146-.033.292-.122.468-.287l.106-.1-.024.7c-.04 1.18.078 1.943.423 2.73l.172.39.74.021c.428.012.786.04.845.066.17.074.393.293.469.46.049.108.071.252.072.46v.302h.206c.14 0 .265-.03.397-.098.173-.087.239-.097.655-.097.477 0 .664.042.827.187.105.093.218.355.22.506 0 .12.008.127.14.127.109 0 .172.031.274.133.131.13.133.138.133.473 0 .258.012.335.049.319.596-.263.96-.317 1.386-.208.752.193 1.259.703 1.444 1.453l.062.252h.81v-2.598c0 .562-.005.975-.01 1.016v.056l-.002-.001v.004l-.004-.002v.002l-.014-.006v.003c-.006-.001-.045-.018-.066-.026-.044-.014-.076-.024-.16-.053a3 3 0 0 0-.237-.072zm-9.514-6.097c-.186-.003-.312-.09-.633-.444-.261-.288-.433-.485-.478-.436-.007.007-.028.273-.052.51l-.015.12q-.015.14-.034.28l-.003.022a8 8 0 0 1-.05.31l-.006.032q-.046.253-.106.484l-.02.08q-.058.218-.127.42l-.012.038a5 5 0 0 1-.204.488l-.044.093a4 4 0 0 1-.164.297l-.164.274-.028.002-.006.009h-.182l-.239.011c-.217.01-.428.034-.537.056q-.08.02-.155.05l-.008.003-.036.016a2 2 0 0 0-.167.094 1.4 1.4 0 0 0-.54.73l-.013.047-.014.064-.02.084v.045H7.93l-.001.01H7.92l-.293.003-.145.006-.023.001-.057.002a2 2 0 0 0-.241.025.5.5 0 0 1-.124.013H7.03c-.053.008-.084-.007-.124-.048l-.085-.061a1 1 0 0 0-.18-.108l-.008-.005-.043-.016a1 1 0 0 0-.226-.053 9 9 0 0 0-.613-.012 10 10 0 0 0-.628.012l-.043.002-.03.005a.6.6 0 0 0-.217.067 1.03 1.03 0 0 0-.556.838l-.01.106v.122h-.273l-.194.007a3 3 0 0 0-.258.019q-.037.007-.072.018a1 1 0 0 0-.1.044.8.8 0 0 0-.186.12q-.031.032-.057.066l-.025.04-.014.03c-.044.106-.06.256-.071.506l-.02.454-.03.005v.02H2.86c-.03 0-.12.019-.2.035l-.066.014-.26.065c-.036.01-.08.021-.11.031l-.105.036L2 19.1v1.531h1.278l.062-.252c.185-.75.692-1.26 1.444-1.453a2.25 2.25 0 0 1 .913.009c.077.022.084.006.1-.24.014-.235.029-.273.142-.374.113-.102.151-.112.412-.112h.287l.026-.19c.033-.251.2-.482.411-.566.119-.047.286-.064.633-.064.506 0 .649.037.815.214.083.088.094.09.244.037.086-.03.223-.056.303-.056.14 0 .148-.006.171-.153.033-.202.237-.463.45-.576.14-.074.233-.091.496-.091h.322l.214-.42c.41-.802.54-1.22.616-1.963.041-.413.033-.968-.025-1.738l-.021-.274.136.15c.23.254.367.335.565.338" opacity=".5"/><path d="M12.127 12.842a.4.4 0 0 1-.097.012l-.028.004H12l-.008-.002c-.196-.005-.312-.105-.546-.349l-.164-.177.03.312c.058.77.067 1.326.025 1.74-.075.742-.206 1.16-.615 1.962l-.214.42h-.323c-.262 0-.355.017-.495.09-.214.114-.418.375-.45.577-.024.147-.031.153-.171.153-.08 0-.217.025-.304.056-.15.053-.161.051-.244-.037-.166-.177-.308-.214-.815-.214-.347 0-.514.017-.632.064-.21.085-.378.315-.412.566l-.025.19H6.35c-.261 0-.3.01-.413.112-.113.101-.127.139-.142.375-.016.245-.022.26-.1.239a2.25 2.25 0 0 0-.912-.009c-.752.193-1.26.703-1.444 1.453l-.063.252H21.19l-.062-.252c-.185-.75-.692-1.26-1.444-1.453-.426-.11-.79-.055-1.386.208-.037.016-.049-.062-.049-.319 0-.335-.002-.342-.132-.473-.102-.102-.166-.133-.274-.133-.132 0-.14-.007-.141-.127-.001-.151-.115-.413-.22-.506-.163-.145-.35-.187-.826-.187-.417 0-.483.01-.656.097a.84.84 0 0 1-.397.098h-.205v-.302c-.002-.208-.024-.352-.073-.46a1.1 1.1 0 0 0-.469-.46c-.059-.026-.417-.054-.844-.066l-.74-.02-.172-.391c-.345-.787-.464-1.55-.423-2.73l.045-.83-.167.172c-.176.165-.283.312-.428.345M6.215 7.968c.033-.01.1-.08.158-.172.006-.01.018-.02.025-.03a.6.6 0 0 1 .223-.226c.015-.01.03-.028.044-.036.094-.06.167-.128.174-.158l-.003-.015c-.01-.03-.08-.089-.17-.138a.65.65 0 0 1-.28-.283c-.052-.093-.111-.163-.144-.176l-.015-.007c-.032.004-.105.084-.167.184a.8.8 0 0 1-.291.283.45.45 0 0 0-.167.137.1.1 0 0 0-.004.03c.012.035.084.097.174.146a.65.65 0 0 1 .28.282c.048.09.104.156.138.173z" opacity=".75"/><path d="m12.001 3.515-.25.14c-.033.018-.065.04-.098.058l-.004.004-.005.002a5 5 0 0 0-.435.298l-.01.008a6 6 0 0 0-.624.557c-.176.19-.365.411-.454.536l-.005.007c-.1.14-.209.336-.313.543-.15.3-.29.626-.36.877a4 4 0 0 0-.124.696l-.006.054q-.008.098-.011.195c-.004.069-.01.14-.01.205-.002.12.001.236.01.338l.028.294c.002 0 .012-.01.012-.01l-.011.015.001.014-.067.07c-.009.011-.004.012-.018.028-.024.025-.036.032-.054.046l-.164.17c-.213.22-.32.36-.356.507q.004.032-.008.047h-.002c-.016.11.005.23.052.394.072.252.164.554.251.848.094.317.188.64.273.92.166.542.305.984.33 1.032q.035.073.077.13.02.026.041.049.022.027.046.05a.5.5 0 0 0 .133.084q.05.019.102.02a.4.4 0 0 0 .12-.015.44.44 0 0 0 .168-.117c.05-.053.123-.149.188-.234.129-.185.275-.328.345-.335a.3.3 0 0 1 .096-.006c.041-.01.215.092.476.38.321.353.447.44.633.443h.008q.015 0 .029-.003a1 1 0 0 0 .097-.012c.117-.034.233-.14.517-.437.193-.202.38-.368.415-.368.045-.02.093-.04.17 0 .077.048.132.112.196.17.019.02.037.037.056.06q.06.072.122.164l.023.03c.116.15.193.228.268.257q.008.005.018.008.023.006.047.007.031.005.067.006a.35.35 0 0 0 .184-.06.7.7 0 0 0 .223-.272c.055-.11.753-2.43.878-2.908.014-.056.045-.17.046-.184-.005-.181-.114-.366-.385-.65l-.302-.319.022-.283c.008-.098.007-.196.008-.293q-.001-.126-.007-.26-.003-.083-.009-.166l-.003-.043a5 5 0 0 0-.09-.571l-.005-.021v-.001a5 5 0 0 0-.106-.368 5.6 5.6 0 0 0-.429-.934l-.034-.06a5 5 0 0 0-.249-.36l-.05-.064a5 5 0 0 0-.205-.243c-.285-.307-.633-.618-.905-.794l-.017-.011a5 5 0 0 0-.27-.172zm.042 2.31c.197.008.392.08.557.228q.139.122.224.284.018.033.033.066a.87.87 0 0 1 0 .712l-.008.015a.88.88 0 0 1-.434.461l-.002.001-.003.001a.9.9 0 0 1-.522.088.8.8 0 0 1-.225-.04c-.174-.065-.362-.236-.473-.415l-.021-.035c-.01-.017-.024-.035-.032-.053q-.013-.031-.022-.064-.007-.017-.012-.035a1 1 0 0 1-.03-.15l-.002-.008a1 1 0 0 1 0-.173v-.023q.002-.029.008-.055l.006-.044a1 1 0 0 1 .044-.164l.005-.014a.9.9 0 0 1 .175-.304.9.9 0 0 1 .337-.205.95.95 0 0 1 .397-.073zM9.592 9.148q.039-.001.072.005c.044.009.08.03.114.078q.027.035.053.095c.026.06.036.088.056.146q.03.088.065.21a53 53 0 0 1 .367 1.419c.05.204.08.34.08.36a.1.1 0 0 1-.008.041.4.4 0 0 1-.234.217.2.2 0 0 1-.045.007.34.34 0 0 1-.18-.069.1.1 0 0 1-.025-.03 1 1 0 0 1-.097-.241 9 9 0 0 1-.097-.335l-.136-.517a24 24 0 0 1-.272-1.124.1.1 0 0 1 .008-.04.42.42 0 0 1 .235-.215.2.2 0 0 1 .044-.007m4.831.039c.083 0 .166.024.208.071.036.04.065.132.065.205 0 .234-.528 2.152-.608 2.21-.085.063-.243.067-.342.01-.167-.098-.158-.186.133-1.299.152-.583.304-1.091.338-1.129.041-.046.124-.069.206-.068m3.47 1.4a.5.5 0 0 0-.099-.123.1.1 0 0 0-.085-.004c-.054.038-.117.125-.197.27a.6.6 0 0 1-.102.131l-.018.02h-.002a1 1 0 0 1-.162.116c-.013.008-.02.016-.034.024a1 1 0 0 0-.206.152.1.1 0 0 0-.006.078q.057.08.275.199c.114.062.194.151.286.318q.043.076.086.133a.5.5 0 0 0 .075.082q.017.01.034.01c.037-.014.118-.109.192-.227a.86.86 0 0 1 .325-.332c.336-.183.336-.247-.002-.437-.136-.077-.213-.159-.308-.331-.017-.031-.034-.053-.052-.08z"/></svg>