<svg xmlns="http://www.w3.org/2000/svg" viewBox="0 0 24 24"><path d="M2.29 12.023a8 8 0 0 0-.142.667c-.316 1.763-.17 4.124.869 5.575a3.95 3.95 0 0 0 2.692 1.65c5.119.804 10.956-2.798 12.294-3.724.518-.36 2.453-2.007 2.952-2.923l-2.328-.155v.597h-2.41v-.758l-2.793-.186v.94h-.756v-.99l-2.103-.14v1.134H9.81v-1.185l-2.158-.144v1.329H6.9v-1.38l-1.537-.102v1.482h-.76v-1.533zm14.675.979v.004h.066zM9.251 5.017a.4.4 0 0 1 .065-.012c1.071-.219 2.243-.247 3.545-.012 3.202.594 6.776 2.413 7.993 4.932.372.768.525 1.6.364 2.478-.057.295-.21.475-.263.865.776-1.132 1.261-2.43.95-3.743-.655-2.806-4.285-4.884-7.596-5.406-4.39-.687-7.698 1.06-9.768 3.534 1.387-1.21 2.9-2.249 4.71-2.636" opacity=".5"/><path d="M11.006 4.784a8.5 8.5 0 0 0-1.69.18.4.4 0 0 1-.062.013 8.97 8.97 0 0 0-4.713 2.676 11.2 11.2 0 0 0-2.252 4.37c-.24 1.061-.19 2.16.312 3.235 2.821 6.246 14.975 2.363 18.353-1.99a3 3 0 0 0 .308-.869c.153-.873.004-1.71-.364-2.478-1.221-2.519-4.835-4.382-8.037-4.968a10 10 0 0 0-1.855-.169m1.661 5.26h1.359q.577.001.942.31.368.306.367.866c0 .388-.12.691-.367.893q-.364.303-.97.303h-.575v1.29h-.756zm-8.065.003h.756v1.444h1.536v-1.443h.756v3.662h-.752v-1.484H5.362v1.484h-.76zm3.86 0h.878l.849 1.464.853-1.463h.865l-1.342 2.178v1.484h-.756v-1.45h-.004v.004zm7.755 0h2.401v.712h-1.653v.744h1.48v.711h-1.48v.793h1.661v.703h-2.41zm-2.79.716v.95h.546c.34 0 .606-.154.606-.469-.008-.335-.266-.481-.614-.481z"/></svg>