<svg xmlns="http://www.w3.org/2000/svg" viewBox="0 0 24 24"><path d="M15.066 2.013q-.369.03-.732.143c-.964.301-1.858 1.049-2.513 2.303-.376.72-.685 1.224-.954 1.532-.27.308-.473.41-.688.406-.214-.005-.485-.135-.838-.41-.352-.276-.779-.685-1.312-1.194-.546-.52-1.145-.841-1.725-.947s-1.145.01-1.585.357c-.88.693-1.218 2.229-.514 4.545l.002.006.895 2.641c.468 2.497 1.239 4.058 2.248 4.966.995 1.636 2.127 3.12 3.468 4.367.728.885 1.596 1.327 2.515 1.267s1.858-.608 2.776-1.6c2.372-2.566 3.513-6.943 4.022-11.768.302-2.861-1.079-5.173-2.898-6.14-.682-.363-1.43-.537-2.167-.474m.693.4c.439.054.875.197 1.29.418 1.664.885 2.98 3.039 2.694 5.755-.506 4.788-1.657 9.096-3.92 11.544-.877.947-1.735 1.424-2.516 1.476-.78.051-1.514-.307-2.187-1.126l-.009-.01-.01-.01c-1.319-1.222-2.437-2.687-3.425-4.313l-.015-.025-.022-.02c-.933-.82-1.695-2.31-2.158-4.8l-.003-.013-.899-2.655c-.68-2.237-.312-3.578.382-4.125.346-.273.785-.368 1.274-.279s1.024.368 1.524.845c.533.508.963.922 1.342 1.219.38.296.715.485 1.07.493.355.007.68-.186.99-.54.308-.353.624-.877 1.006-1.607.618-1.183 1.428-1.844 2.284-2.111a3.1 3.1 0 0 1 1.308-.115zm-.542.673c-1.397.088-2.748 1.175-3.763 3.397-.274.602-.545 1.026-.8 1.292-.255.267-.483.373-.704.38-.222.009-.46-.084-.727-.293s-.552-.53-.847-.942c-.58-.808-1.094-1.38-1.554-1.727s-.9-.486-1.272-.317c-.37.17-.585.59-.706 1.186q-.182.891-.086 2.392l.389-.025c-.062-.98-.03-1.75.08-2.29.11-.539.296-.821.486-.908.19-.086.468-.034.874.273s.905.854 1.472 1.643c.308.43.611.777.923 1.022.312.244.64.39.982.377.34-.013.67-.186.972-.501s.587-.774.873-1.4c.98-2.148 2.22-3.093 3.432-3.17s2.468.718 3.478 2.23l.324-.217c-1.058-1.584-2.43-2.49-3.826-2.402m-.009 1.062c-1.27.06-2.39 1.068-3.138 2.853-.273.654-.557 1.162-.86 1.509s-.616.53-.98.573c-.726.086-1.753-.438-3.203-1.787l-.266.286c1.48 1.376 2.575 2 3.516 1.889.47-.056.878-.308 1.226-.704.347-.397.645-.94.927-1.615.714-1.707 1.72-2.563 2.797-2.614 1.076-.051 2.306.708 3.455 2.433l.325-.216c-1.191-1.788-2.528-2.668-3.799-2.607m.008 1.225q-.346.063-.686.266c-.904.535-1.809 1.738-2.77 3.454l.34.19c.948-1.69 1.852-2.848 2.629-3.308.389-.23.73-.291 1.058-.196.328.096.663.362.996.852l.324-.22c-.365-.536-.767-.877-1.211-1.006a1.5 1.5 0 0 0-.68-.032M7.043 8.187l-.255.295c.778.673 1.566 1.225 2.394 1.388l-.022-.005c.744.24 1.1.591 1.286 1.02.185.427.19.957.138 1.529l-.001.008v2.762-.018c-.05.556.093.945.385 1.11.291.165.655.043.887-.23.17-.2.591-.474.868-.504.271-.029.55-.014.776-.2a.58.58 0 0 0 .195-.412c.01-.169-.026-.362-.106-.607l-.37.121c.07.22.092.372.086.462-.005.09-.023.11-.053.135-.06.05-.282.082-.569.113-.45.048-.882.354-1.125.64-.148.174-.296.2-.397.143s-.232-.26-.188-.735l.001-.01v-2.76.017c.053-.594.06-1.189-.17-1.72-.229-.53-.704-.972-1.523-1.236l-.01-.003-.012-.002c-.708-.14-1.457-.645-2.215-1.3zm9.75.552c-1.54-.02-2.717.138-3.493.55-.388.206-.678.483-.835.832-.156.35-.174.76-.062 1.214l.042.173.177-.026c1.685-.256 3.035-1.265 4.3-2.403l.37-.333zm-.62.426c-1.046.887-2.135 1.63-3.414 1.878-.043-.295-.031-.553.062-.762.115-.257.33-.47.662-.647.56-.297 1.517-.436 2.69-.47zm-10.71.715.246.328c.623.835 1.31 1.448 2.096 1.73.787.282 1.664.217 2.608-.264l.147-.075-.049-.158c-.175-.56-.752-.91-1.552-1.142s-1.854-.35-3.086-.402zm.88.445c.992.061 1.87.165 2.507.349.626.18.976.434 1.157.723-.769.336-1.45.396-2.07.174-.566-.203-1.09-.66-1.594-1.246m5.59.462-.39.003.022 3.755.39-.002zm6.15 2-.39.007c.041 2.072-.696 4.571-1.758 6.075l.318.225c1.13-1.6 1.874-4.138 1.83-6.307m-1.503.436c-.53-.168-1.23.047-2.159.548l.186.344c.893-.481 1.531-.622 1.855-.52.162.052.263.145.338.327.075.181.109.456.082.818l.389.029c.03-.4 0-.73-.11-.996a.94.94 0 0 0-.581-.55m-7.442.36c-.476.765-1.011 1.077-1.446 1.101s-.804-.217-1.006-.69l-.359.154c.254.594.786.96 1.387.926s1.235-.448 1.756-1.284zm6.802 1.029q-.013.014-.026.029c-.78.715-1.229 1.638-2.184 1.983-.32.115-.553.166-.776.233a1.9 1.9 0 0 0-.664.341c-.088.07-.147.09-.22.09a.7.7 0 0 1-.308-.107 1.3 1.3 0 0 0-.47-.16c-.121-.016-.189-.018-.276-.054-.806-.35-1.463-.875-2.229-1.332l-.224.318c1.835 1.506 1.805 1.647 2.407 2.242.589.582 1.153.816 1.68.758.526-.059.976-.393 1.38-.838.808-.892 1.482-2.277 2.197-3.242zm-4.055 1.568c-.118.045-.144.128-.165.186-.04.115-.045.231-.053.34l-.008.146c-.002.04-.007.075-.004.062l.381.08c.01-.048.01-.077.013-.12v-.007c.028.06.03.047.063.13l.364-.141c-.12-.313-.195-.478-.304-.593a.3.3 0 0 0-.107-.078.26.26 0 0 0-.18-.005m2.815.314c-.315.502-.63.995-.959 1.358-.372.41-.748.67-1.134.713s-.823-.115-1.362-.648c-.294-.29-.455-.49-.773-.806.133.07.248.154.391.216l.003.001h.001c.152.062.276.066.373.079s.181.03.33.113c.17.097.331.157.5.158a.74.74 0 0 0 .463-.175c.187-.15.335-.211.535-.272s.452-.116.795-.24c.33-.119.596-.297.837-.497m-1.743 3.743a.55.55 0 0 0-.276.018.52.52 0 0 0-.36.411c-.031.207.071.432.293.633l.262-.289c-.163-.147-.175-.241-.169-.286.007-.044.043-.081.097-.099s.1-.01.132.023c.031.032.078.122.034.345l.383.076c.059-.3.01-.543-.138-.694a.5.5 0 0 0-.258-.138"/></svg>