<svg xmlns="http://www.w3.org/2000/svg" width="24" height="24" fill="none" viewBox="0 0 24 24"><g fill="#000" clip-path="url(#a)"><path d="M5.32 19.94c-.367 0-.734-.366-.734-.734V11.65c0-.367.367-.734.734-.734h.031c.368 0 .735.367.735.734v7.556c0 .368-.367.735-.735.735z"/><path stroke="#000" stroke-linecap="round" stroke-linejoin="round" stroke-miterlimit="10" d="M4.586 8.75a.75.75 0 1 1 1.5 0 .75.75 0 0 1-1.5 0"/><path d="M14.592 7.218v-2.69c.892.03 1.715.296 2.46.686l-1.344 2.308a3.073 3.073 0 0 0-1.116-.304m1.861.797 1.73-2.06c.663.596 1.123 1.328 1.443 2.106l-2.514.904a3.073 3.073 0 0 0-.659-.95m.914 1.806 2.648-.467c.126.884.008 1.74-.248 2.542l-2.506-.924c.1-.363.15-.756.106-1.15m-.462 1.97 2.33 1.345c-.473.758-1.114 1.338-1.824 1.788l-1.327-2.319a3.07 3.07 0 0 0 .821-.814m-1.62 1.214.92 2.527c-.849.277-1.713.31-2.546.197l.474-2.629c.375.036.77.016 1.152-.095m-2.021-.112-.92 2.527c-.828-.333-1.511-.864-2.078-1.486l2.053-1.709c.266.269.58.508.944.667m-1.476-1.385-2.33 1.345c-.419-.787-.601-1.633-.635-2.473l2.67.01c.031.377.119.763.295 1.118m-.24-2.01-2.65-.467c.185-.873.59-1.638 1.103-2.303l2.04 1.725c-.219.308-.4.66-.493 1.045m1.107-1.694-1.729-2.06c.703-.55 1.504-.877 2.326-1.056l.453 2.632a3.08 3.08 0 0 0-1.05.484m-1.827 11.068c0 .625-.625 1.25-1.25 1.25h-.058c-.625 0-1.25-.625-1.25-1.25V13.06a6.755 6.755 0 0 0 2.558 2.845z"/></g><defs><clipPath id="a"><path fill="#fff" d="M0 0h24v24H0z"/></clipPath></defs></svg>