<svg xmlns="http://www.w3.org/2000/svg" viewBox="0 0 24 24"><path d="M7.142 20.987a4.511 4.511 0 0 1-3.693-2.535 4.496 4.496 0 0 1-.435-1.615c-.019-.233-.019-9.438 0-9.67a4.493 4.493 0 0 1 .867-2.334 4.498 4.498 0 0 1 3.285-1.818c.232-.02 9.437-.02 9.67 0a4.507 4.507 0 0 1 3.826 2.777c0 .007.02.021.044.031.082.035.1.073.1.224 0 .112.008.165.05.334.049.189.085.382.122.638.021.153.032 9.516.01 9.796a4.481 4.481 0 0 1-1.27 2.828 4.495 4.495 0 0 1-2.882 1.345c-.204.017-9.495.016-9.694 0zm1.22-.724a4.789 4.789 0 0 0-.18-.07.956.956 0 0 1-.18-.085.415.415 0 0 1-.136-.217c-.014-.055-.013-.073.006-.123.012-.031.018-.063.013-.07-.005-.008 0-.014.01-.014.011 0 .085-.105.164-.234.08-.128.191-.292.247-.363.153-.198.471-.562.664-.761.151-.157.178-.191.226-.293.064-.135.329-.506.4-.56a2.57 2.57 0 0 0 .16-.15c.11-.11.217-.192.32-.244a1.48 1.48 0 0 0 .19-.15 5.36 5.36 0 0 1 .265-.218c.17-.13.425-.425.468-.542.016-.043.065-.132.11-.197a2.24 2.24 0 0 0 .116-.19 8.83 8.83 0 0 1 .13-.233c.15-.26.372-.662.405-.736l.031-.067-.033-.104c-.052-.16-.054-.3-.013-.626.051-.403.051-.4.156-.621l.197-.415c.065-.14.114-.227.139-.248l.135-.12c.096-.085.262-.18.465-.264l.087-.036.015-.12c.008-.065.032-.17.054-.234.062-.188.158-.316.488-.66.143-.147.15-.156.254-.365.138-.275.184-.344.393-.582.094-.107.2-.237.237-.287.102-.142.19-.337.22-.486.052-.26.199-.468.455-.642a1.7 1.7 0 0 1 .37-.182c.224-.09.304-.113.483-.144a.855.855 0 0 0 .173-.04c.011-.01.017-.046.017-.104 0-.11.01-.135.077-.213.042-.048.053-.07.051-.107a.14.14 0 0 1 .027-.084c.027-.036.027-.042.009-.078-.022-.042-.026-.114-.008-.142.01-.016.02-.015.065.003.11.043.148.02.163-.102a.201.201 0 0 1 .03-.09c.062-.07.316-.206.463-.248.086-.025.264-.048.373-.048.124 0 .334.059.489.136.13.065.135.069.186.155.028.048.059.088.067.088.01 0 .03.015.048.034l.032.034.154-.053.383-.133a3.75 3.75 0 0 1 .294-.093c.036-.007.166-.045.288-.084l.224-.07.026-.062c.048-.111.067-.197.088-.392a6.1 6.1 0 0 1 .118-.705.994.994 0 0 0 .032-.178c0-.06.067-.212.1-.225.025-.01-.064-.175-.22-.408a3.732 3.732 0 0 0-1.044-1.043 3.792 3.792 0 0 0-1.66-.616c-.193-.026-9.681-.026-9.874 0a3.792 3.792 0 0 0-1.66.616 3.793 3.793 0 0 0-1.661 2.706c-.027.193-.027 9.681-.001 9.874a3.793 3.793 0 0 0 1.665 2.709 3.78 3.78 0 0 0 1.65.61c.197.022.2.022.79.024.516.002.557 0 .515-.018zm4.07.001c-.36-.041-.558-.09-.672-.166l-.066-.043v-.075c.001-.071.004-.078.053-.124.053-.048.053-.049.07-.192a.597.597 0 0 1 .06-.234.957.957 0 0 1 .154-.253c.108-.114.407-.546.611-.882.13-.215.216-.367.393-.704.149-.284.281-.498.416-.674.052-.067.131-.18.176-.252.091-.142.09-.15-.009-.15h-.058l-.058-.145c-.055-.136-.061-.146-.128-.194l-.071-.05-.101.113c-.127.14-.4.407-.555.542a2.499 2.499 0 0 0-.18.171c-.095.106-.194.15-.364.16l-.135.009-.11.096a3.295 3.295 0 0 1-.537.362c-.146.082-.179.108-.378.298-.247.237-.314.29-.696.543-.662.438-.89.617-1.003.79-.036.053-.036.055-.014.098.032.061.218.243.319.31.046.032.137.113.202.18.126.132.17.161.278.184a.411.411 0 0 1 .124.052c.03.02.085.053.123.072.068.034.095.065.095.107 0 .013.01.034.021.047.02.023.071.024 1.106.022.968 0 1.068-.003.934-.019zm4.565-.01c.48-.077.797-.175 1.187-.369a4.16 4.16 0 0 0 .717-.462 3.842 3.842 0 0 0 1.304-2.156c.077-.384.071.014.075-4.86.004-4.257.003-4.453-.019-4.434a7.815 7.815 0 0 1-1.054.752l-.402.247a20.2 20.2 0 0 1-1.508.773c-.105.044-.131.06-.141.09-.014.04-.12.098-.205.112-.116.018-.104-.019-.106.322-.002.436-.037.74-.148 1.294-.059.297-.074.328-.241.504a1.388 1.388 0 0 0-.114.13 7.605 7.605 0 0 0-.23.574 2.594 2.594 0 0 0-.053.202c-.095.44-.381 1.041-.51 1.07-.058.012-.123-.014-.203-.084a.745.745 0 0 0-.264-.15c-.046-.01-.048-.008-.029.058.018.062.078.587.078.682a.66.66 0 0 1-.02.148c-.017.057-.02.118-.016.296l.005.224.067.198c.102.301.138.512.155.89.01.237-.003.32-.063.414-.056.087-.296.324-.493.487-.09.075-.307.275-.483.445s-.376.357-.445.415c-.167.14-.528.553-.648.741a.705.705 0 0 0-.111.375c-.001.09.004.128.021.16.013.023.029.042.035.042.006 0 .053.055.103.12.129.172.245.28.31.29.07.01.375.112.433.145a.174.174 0 0 1 .061.053c.007.014.032.056.056.092.054.084.054.123 0 .167l-.04.035 1.4-.005c1.234-.004 1.418-.007 1.538-.027zm3.156-13.732-.026-.083.007.11c.004.061.007.144.008.183v.072l.019-.1c.016-.091.016-.105-.008-.182"/></svg>