<svg xmlns="http://www.w3.org/2000/svg" viewBox="0 0 24 24"><path d="M12.072 3.247a2.622 2.622 0 0 0-2.356 1.475l-2.08-.003A4.264 4.264 0 0 0 3.363 8.99v.014l17.218.004H3.329l-.007 2.076v1.064l-.313 3.56c-.063.96.207 1.775.688 2.436v.002l.004.005-.002-.003.01.013-.008-.01a4.266 4.266 0 0 0 3.935 2.601h8.675a4.258 4.258 0 0 0 3.634-2.029c.732-.702 1.162-1.663 1.031-2.878l-.392-3.639V8.995a4.264 4.264 0 0 0-4.273-4.273H14.43a2.623 2.623 0 0 0-2.357-1.475zm0 .229a2.39 2.39 0 0 1 2.392 2.392c0 1.322-1.07 2.392-2.392 2.392S9.68 7.19 9.68 5.868a2.39 2.39 0 0 1 2.392-2.392m-.163.881v1.528h-1.276l1.453 1.493h.02l1.457-1.493H12.28V4.357zM3.588 9.284h16.737l-.003 1.972v1.009l.385 3.513c.296 2.704-2.39 4.085-4.842 4.088l-7.633.007c-2.451.004-5.135-1.507-4.954-4.225l.304-3.383v-1.009zm4.877.822c-.348 0-.584.24-.584.66s.236.67.584.67.582-.251.582-.67c0-.417-.234-.66-.582-.66m3.515 0c-.348 0-.583.24-.583.66s.235.67.583.67.583-.251.583-.67c0-.417-.235-.66-.583-.66m-2.145.004c-.324 0-.607.249-.607.672 0 .43.273.658.597.658l.004-.004a.53.53 0 0 0 .415-.187l-.156-.18a.336.336 0 0 1-.25.118c-.187 0-.31-.153-.31-.415 0-.26.14-.413.314-.413.092 0 .16.044.225.102l.153-.184a.54.54 0 0 0-.385-.167zm.478.02v.246h.351l.003 1.04h.29v-1.04h.352v-.246zm3.686 0v1.286h.822v-.245h-.533v-.297h.437v-.242h-.436v-.26h.515v-.242zm1.08 0v1.286h.291v-.464h.16l.246.464h.323l-.29-.515c.137-.062.23-.18.23-.372 0-.303-.222-.399-.495-.399zm-2.277.007.003 1.279h.478c.276 0 .498-.116.498-.378a.29.29 0 0 0-.232-.3v-.008c.105-.04.167-.163.167-.275 0-.246-.208-.318-.474-.318zm-4.337.218c.174 0 .286.154.286.41 0 .26-.109.422-.286.422-.174 0-.287-.163-.287-.422 0-.256.11-.41.287-.41m3.515 0c.174 0 .286.154.286.41 0 .26-.109.422-.286.422-.174 0-.286-.163-.286-.422 0-.256.109-.41.286-.41m1.115 0h.137c.136 0 .2.038.2.137 0 .092-.06.15-.2.15l-.137.003zm2.275.004h.15c.15 0 .235.044.235.17s-.082.191-.235.191h-.15zm-2.275.501h.164c.16 0 .239.044.239.157 0 .12-.082.174-.24.174h-.163zm-3.338 1.978c-.638 0-1.177.246-1.681.668l.702.85c.328-.277.573-.427.914-.427.351 0 .539.164.539.475 0 .358-.263.586-1.129.586v.979c1.088 0 1.289.228 1.289.62 0 .327-.293.491-.75.491-.368 0-.743-.194-1.06-.491l-.638.884c.392.457 1.006.736 1.844.736l.004.007c1.077 0 2.009-.54 2.009-1.521 0-.655-.41-1.06-.996-1.241v-.035c.556-.245.832-.62.832-1.118 0-.938-.737-1.463-1.88-1.463zm4.454.099c-.393.246-.768.392-1.358.508v.866h.979v2.68H12.72l.003 1.126h3.448v-1.129h-.93v-4.051zM3.879 18.379l.042.047-.042-.047m.18.196.084.084-.085-.084m.193.187.096.085-.096-.085m.292.245c.02.016.042.03.063.046-.021-.016-.043-.03-.063-.046m10.595.161-.12.022c.04-.006.08-.015.12-.022m9.398.027-.1.01c.033-.002.067-.007.1-.01m-8.915.024"/></svg>