<svg xmlns="http://www.w3.org/2000/svg" viewBox="0 0 24 24"><path d="M9.633 20.833a9 9 0 0 1-.625-.18 19 19 0 0 1-.09-.905 25 25 0 0 0-.098-.999c-.017-.086-.13-.172-.505-.388l-.483-.276-1.845.845-.917-.917.423-.923.423-.922-.277-.483c-.215-.376-.302-.488-.388-.505a25 25 0 0 0-1-.098 20 20 0 0 1-.903-.089 10 10 0 0 1-.182-.637L3 13.732l1.607-1.134v-1.196L3 10.27l.166-.625a10 10 0 0 1 .182-.637c.01-.007.416-.046.904-.088s.938-.086.999-.098c.086-.018.173-.13.388-.506l.277-.483-.423-.922-.423-.922.917-.918 1.845.846.483-.277c.376-.215.488-.302.505-.388.013-.061.057-.51.099-.999.042-.488.081-.895.088-.904s.293-.09.637-.181L10.268 3l1.134 1.607h1.196L13.732 3l.624.167c.344.091.63.173.637.181.007.01.046.416.088.904s.087.938.099 1c.017.085.13.172.505.387l.483.277 1.845-.846.917.918-.423.922-.423.922.277.483c.215.376.302.488.388.506.061.012.51.056 1 .098.488.042.894.082.903.088.009.007.09.293.182.637l.166.625-1.607 1.133v1.196L21 13.732l-.166.624a10 10 0 0 1-.182.637c-.01.007-.415.047-.904.088-.488.043-.938.087-.999.099-.086.017-.173.13-.388.505l-.277.483.423.922.423.923-.917.917-1.845-.845-.483.276c-.376.216-.488.302-.505.388-.012.061-.057.51-.099 1a20 20 0 0 1-.088.903 10 10 0 0 1-.637.182l-.624.166-1.134-1.607h-1.195l-.556.786a30 30 0 0 1-.579.802c-.012.009-.298-.058-.635-.148m3.323-4.254c.923-.191 1.607-.57 2.33-1.293.552-.553.811-.935 1.069-1.578.414-1.034.414-2.381 0-3.416-.258-.643-.516-1.025-1.07-1.578s-.934-.811-1.577-1.069c-1.035-.414-2.381-.414-3.416 0-.643.258-1.025.517-1.578 1.07s-.811.934-1.069 1.577c-.414 1.035-.414 2.382 0 3.416.258.643.516 1.025 1.07 1.578.714.715 1.401 1.099 2.308 1.29.522.11 1.404.112 1.932.002z"/></svg>