<svg xmlns="http://www.w3.org/2000/svg" width="192" height="192" viewBox="0 0 192 192"><path d="M81.178 19c-3.602.968-7.215 1.892-10.778 2.991-.152.196-1.323 14.956-1.604 16.276-.146.736-1.111 1.486-4.328 3.325l-4.128 2.373-15.79-7.252-7.838 7.854 7.236 15.774-2.373 4.144c-1.84 3.217-2.573 4.174-3.308 4.328-1.367.269-16.078 1.437-16.292 1.587-1.02 3.591-2.089 7.166-2.975 10.795l13.752 9.692v10.227L19 110.823c.955 3.606 1.855 7.218 2.975 10.778 6.575.799 8.898.729 16.292 1.604.735.145 1.469 1.11 3.308 4.328l2.373 4.127c-2.414 5.261-4.825 10.528-7.236 15.791l7.837 7.837 15.791-7.219 4.128 2.356c3.208 1.848 4.182 2.573 4.328 3.309 1.064 8.987.63 8.422 1.604 16.292l10.778 2.807c3.273-4.502 6.524-9.018 9.709-13.585h10.227L110.822 173c3.606-.955 7.219-1.855 10.778-2.974.689-5.717 1.283-14.658 1.604-16.292.146-.736 1.111-1.46 4.328-3.309l4.128-2.356 15.79 7.219 7.838-7.837c-2.412-5.262-4.82-10.53-7.236-15.791l2.373-4.127c1.84-3.209 2.573-4.183 3.309-4.328 1.41-.278 16.072-1.45 16.292-1.604 1.018-3.589 2.086-7.153 2.974-10.778l-13.752-9.71V90.888L173 81.195c-1.723-6.486-2.84-10.69-2.974-10.795-.22-.146-14.948-1.34-16.292-1.604-.736-.154-1.47-1.111-3.309-4.328l-2.373-4.127 7.236-15.774-7.837-7.854-15.791 7.235-4.128-2.372c-3.208-1.84-4.182-2.582-4.328-3.309-.286-1.478-1.456-16.081-1.604-16.292-3.587-1.014-7.16-2.06-10.778-2.974l-9.708 13.752H90.887zm14.788 37.08a39.89 39.89 0 0 1 39.887 39.887 39.89 39.89 0 0 1-39.887 39.887 39.89 39.89 0 0 1-39.887-39.887A39.89 39.89 0 0 1 95.966 56.08"/></svg>