<svg xmlns="http://www.w3.org/2000/svg" viewBox="0 0 24 24"><path d="M5.906 18.719h12.188a3.906 3.906 0 0 0 .625-7.763V9.97a4.688 4.688 0 0 0-9.187-1.317 2.5 2.5 0 0 0-4.25 1.785v.52a3.907 3.907 0 0 0 .625 7.762zM11.844 9.5c0-.172.14-.312.312-.312h.938c.172 0 .312.14.312.312v1.875h.895c.266 0 .41.31.24.513L12.866 13.9a.313.313 0 0 1-.48 0l-1.677-2.012a.312.312 0 0 1 .24-.513h.896zM9.5 13.563h1.994l.53.637a.781.781 0 0 0 1.201 0l.531-.637h1.994c.345 0 .625.28.625.625v1.25c0 .345-.28.625-.625.625H9.5a.625.625 0 0 1-.625-.625v-1.25c0-.345.28-.625.625-.625zm6.25 1.562a.312.312 0 1 1-.625 0 .312.312 0 0 1 .625 0m-1.406.313a.312.312 0 1 0 0-.625.312.312 0 0 0 0 .625"/></svg>