<svg xmlns="http://www.w3.org/2000/svg" width="192" height="192" viewBox="0 0 192 192"><path d="M116.64 127.53c-8.904 7.584-20.816 11.48-33.76 10.672-16.32-1-27.632-13.632-29.904-26.456h.776c3.672 8.184 12.608 15.744 23.816 16.984 10.96 1.208 24.368-3.736 31.736-10.8l-8.264-6.248 24.528.072-5.28 25.96zm37.52-25.304h12.112L176 54.466h-12.184l-2.904 14.184a24 24 0 0 0-4.92-.56c-11.928 0-22.784 15.176-22.784 26.024 0 4.464 2.904 8.864 7.832 8.864 6.992 0 11.84-3.432 13.864-6.64h.752zm-44.16.752c14.384 0 24.36-13.136 24.36-23.856 0-7.8-7.392-11.216-14.4-11.216-15.768 0-24.368 14.128-24.368 23.856 0 7.8 7.456 11.216 14.4 11.216m-38.416 0c14.384 0 24.36-13.136 24.36-23.856 0-7.8-7.376-11.216-14.392-11.216-15.776 0-24.368 14.128-24.368 23.856 0 7.8 7.456 11.216 14.4 11.216m-38.584 8.704h12.184l7.384-36.336h8.888l1.4-6.688h-8.96l.304-1.552c.576-2.864 1.504-6.192 6.096-6.192 2.72 0 5.328.296 7.864 1.36l1.384-7.072a26.4 26.4 0 0 0-8.776-1.488c-9.792 0-16.528 5.824-19 14.944h-4.224l-1.328 6.688h4.168zM23.888 63.37h12.176l1.968-9.672H25.84zM16 102.226h12.176l6.816-33.576H22.816z"/></svg>