<svg xmlns="http://www.w3.org/2000/svg" viewBox="0 0 24 24"><path d="M14.58 15.94c-1.113.948-2.602 1.435-4.22 1.334-2.04-.125-3.454-1.704-3.738-3.307h.097c.459 1.023 1.576 1.968 2.977 2.123 1.37.151 3.046-.467 3.967-1.35l-1.033-.781 3.066.009-.66 3.245zm4.69-3.163h1.514L22 6.807h-1.523l-.363 1.773a3 3 0 0 0-.615-.07c-1.491 0-2.848 1.897-2.848 3.253 0 .558.363 1.108.979 1.108.874 0 1.48-.429 1.733-.83h.094zm-5.52.094c1.798 0 3.045-1.642 3.045-2.982 0-.975-.924-1.402-1.8-1.402-1.971 0-3.046 1.766-3.046 2.982 0 .975.932 1.402 1.8 1.402m-4.802 0c1.798 0 3.045-1.642 3.045-2.982 0-.975-.922-1.402-1.799-1.402-1.972 0-3.046 1.766-3.046 2.982 0 .975.932 1.402 1.8 1.402m-4.823 1.088h1.523l.923-4.542h1.111l.175-.836h-1.12l.038-.194c.072-.358.188-.774.762-.774.34 0 .666.037.983.17l.173-.884a3.3 3.3 0 0 0-1.097-.186c-1.224 0-2.066.728-2.375 1.868h-.528l-.166.836h.521zM2.986 7.92h1.522l.246-1.209H3.23zM2 12.777h1.522l.852-4.197H2.852z"/></svg>