<svg version="1.1" viewBox="0 0 192 192" xmlns="http://www.w3.org/2000/svg"><path d="m160.76 19.007h-28.748c-5.948 0-10.905 3.9653-12.227 9.252h-62.123c-21.149 0-38.662 17.183-38.662 38.662v67.741c0 4.9567 0.99134 9.5831 2.6435 13.879 3.3044 8.9218 8.9218 15.861 17.844 20.157 4.9567 2.6435 10.574 3.9653 15.861 4.2958h66.419c21.149 0 38.662-17.183 38.662-38.662v-61.132c6.9394 0 12.557-5.948 12.557-12.887v-28.748c0.33042-6.9393-5.2871-12.557-12.227-12.557zm-26.105 18.505 5.6175-5.2871 3.6349-3.6349c1.9827-1.9827 4.6262-1.9827 6.2784 0l4.6262 4.6262 4.6262 4.2958c0.99134 0.99134 1.6523 2.3131 1.6523 3.3044 0 1.3218-0.33051 2.6435-1.3218 3.3044-1.9827 1.9827-4.9567 1.9827-6.9393 0.33042l-0.99133-0.99125v16.191c0 2.6435-2.3131 4.9567-4.9567 4.9567-2.6435 0-4.9567-2.3131-4.9567-4.9567v-15.531l-0.66092 0.66092c-1.9827 1.6523-4.9567 1.6523-6.9393-0.3305-0.99134-0.99134-1.3218-2.3131-1.3218-3.3044 0-1.3218 0.66092-2.6436 1.6522-3.6349zm15.861 40.644v27.427l-2.974-1.6523c-5.948-3.3044-12.887-2.6435-18.175 1.6523-9.9134 8.2611-19.165 16.191-28.748 24.453-6.9394 5.6175-14.87 5.6175-21.809 0-2.974-2.974-6.9393-4.9567-11.235-4.9567-2.974 0-6.2784 1.3218-9.252 2.974-8.5915 5.6175-16.853 11.235-25.444 16.853-1.6523-3.3044-2.3131-7.2698-2.3131-11.235v-65.098c0-15.201 12.227-27.427 27.427-27.427h61.462v19.165c0 6.9393 5.6175 12.887 12.887 12.887h18.505v4.9567zm-81.289 12.227c-9.5831 0-17.183-7.6002-17.183-17.183 0-9.5831 7.6002-17.183 17.183-17.183s17.183 7.6002 17.183 17.183c0 9.252-7.6002 17.183-17.183 17.183z"/></svg>
