<svg xmlns="http://www.w3.org/2000/svg" viewBox="0 0 24 24"><path d="M2 7.94v8.015h2.073V7.941zm2.774 0v8.015H6.59l.008-5.291.76 5.291H8.65l.729-5.408v5.408h1.809V7.941H8.486l-.478 3.75-.296-2.037a56.972 56.972 0 0 0-.25-1.713zm7.122 0v8.015h2.51c.495 0 .87-.029 1.114-.08a1.35 1.35 0 0 0 .621-.288c.17-.132.287-.323.353-.567.066-.244.11-.724.11-1.44v-2.812c0-.76-.029-1.27-.08-1.528a1.386 1.386 0 0 0-.34-.7c-.185-.215-.456-.363-.81-.459-.348-.088-.93-.14-1.926-.14zm5.41 0v8.015h1.869l.125-.508c.17.206.352.363.56.466.198.096.503.146.739.146.332 0 .612-.08.848-.257.236-.17.391-.376.457-.612.06-.237.096-.591.096-1.072v-2.25c0-.48-.014-.797-.036-.945a1.115 1.115 0 0 0-.185-.457 1.107 1.107 0 0 0-.466-.363 1.88 1.88 0 0 0-.714-.126c-.236 0-.54.053-.746.14-.2.097-.384.244-.553.436V7.941zm-3.335 1.374c.222 0 .375.023.457.074.08.044.133.118.155.221.03.104.038.34.038.702v3.106c0 .531-.038.857-.104.976-.066.125-.251.185-.546.185zm5.625 1.83c.125 0 .294.045.338.156.044.103.066.325.066.656v2.06c0 .384-.022.627-.06.73-.036.103-.206.155-.332.155-.118 0-.205-.052-.242-.147-.045-.096-.066-.326-.066-.68v-2.118c0-.361.02-.591.058-.68.036-.088.12-.132.238-.132z"/></svg>