<svg xmlns="http://www.w3.org/2000/svg" viewBox="0 0 192 192"><path d="M16 63.524v64.12h16.584V63.532zm22.192 0v64.12H52.72l.064-42.328 6.08 42.328H69.2l5.832-43.264v43.264h14.472V63.532H67.888l-3.824 30-4.368-30zm56.976 0v64.12h20.08c3.96 0 6.96-.232 8.912-.64a10.8 10.8 0 0 0 4.968-2.304c1.36-1.067 2.301-2.579 2.824-4.536.528-1.952.88-5.792.88-11.52V86.148c-.01-6.08-.224-10.155-.64-12.224a11.2 11.2 0 0 0-2.72-5.6c-1.48-1.72-3.648-2.904-6.48-3.672-2.784-.704-7.44-1.12-15.408-1.12zm43.28 0v64.12H153.4l1-4.064c1.36 1.648 2.816 2.904 4.48 3.728 1.584.768 4.024 1.168 5.912 1.168 2.656 0 4.896-.64 6.784-2.056 1.888-1.36 3.128-3.008 3.656-4.896.48-1.896.768-4.728.768-8.576v-18c-.01-3.85-.107-6.37-.288-7.56a8.8 8.8 0 0 0-1.48-3.656 8.8 8.8 0 0 0-3.728-2.904 15.2 15.2 0 0 0-5.712-1.008c-1.888 0-4.32.424-5.968 1.12-1.6.784-3.075 1.947-4.424 3.488V63.532zm-26.68 10.992c1.776-.005 2.995.192 3.656.592.645.352 1.059.941 1.24 1.768.24.832.304 2.72.304 5.616v24.848c0 4.248-.304 6.856-.832 7.808-.528 1-2.008 1.48-4.368 1.48zm45 14.64c1 0 2.352.36 2.704 1.248.352.824.528 2.6.528 5.248v16.48c-.01 3.072-.17 5.019-.48 5.84-.288.824-1.648 1.24-2.656 1.24-.944 0-1.64-.416-1.936-1.176-.36-.768-.528-2.608-.528-5.44V95.652c0-2.888.16-4.728.464-5.44.288-.704.96-1.056 1.904-1.056"/></svg>