<svg xmlns="http://www.w3.org/2000/svg" data-name="Layer 1" viewBox="0 0 24 24"><path d="M21.285 17.522 14.455 3.07a2.716 2.716 0 0 0-4.91 0l-6.83 14.45a2.785 2.785 0 0 0-.1 2.18 2.832 2.832 0 0 0 3.327 1.734l5.297-1.278a3.244 3.244 0 0 1 1.522 0l5.297 1.278a2.832 2.832 0 0 0 3.327-1.733 2.785 2.785 0 0 0-.1-2.18M12 18.044a.815.815 0 0 1-.686.807q-.181.028-.36.071l-5.297 1.279a1.667 1.667 0 0 1-.392.046 1.524 1.524 0 0 1-1.452-2.206l6.83-14.45a1.466 1.466 0 0 1 .913-.796.344.344 0 0 1 .444.327Z"/></svg>