<svg xmlns="http://www.w3.org/2000/svg" width="192" height="192" viewBox="0 0 192 192"><circle cx="167.23" cy="24.775" r="5.775"/><circle cx="138.35" cy="53.65" r="5.775"/><circle cx="152.76" cy="39.152" r="5.775"/><circle cx="105.6" cy="86.375" r="5.775"/><circle cx="77.923" cy="113.99" r="5.775"/><circle cx="64.057" cy="127.88" r="5.775"/><circle cx="44.416" cy="127.88" r="5.775"/><circle cx="64.057" cy="167.22" r="5.775"/><circle cx="24.775" cy="127.88" r="5.775"/><circle cx="64.057" cy="147.52" r="5.775"/><circle cx="91.759" cy="100.21" r="5.775"/><circle cx="99.85" cy="53.65" r="5.775"/><circle cx="119.1" cy="53.65" r="5.775"/><circle cx="80.6" cy="53.65" r="5.775"/><circle cx="61.35" cy="53.65" r="5.775"/><circle cx="138.35" cy="72.9" r="5.775"/><circle cx="138.35" cy="92.15" r="5.775"/><circle cx="138.35" cy="111.4" r="5.775"/><circle cx="138.35" cy="130.65" r="5.775"/><circle cx="119.1" cy="72.9" r="5.775"/></svg>