<svg xmlns="http://www.w3.org/2000/svg" xml:space="preserve" width="24" height="24" fill="none" viewBox="0 0 24 24"><path fill="#000" fill-rule="evenodd" d="M16.725 6.666a5.34 5.34 0 0 1 5.3 5.335 5.337 5.337 0 0 1-5.334 5.335 5.33 5.33 0 0 1-4.49-2.453 5.6 5.6 0 0 0 .646-1.623 4.05 4.05 0 0 0 3.844 2.785A4.046 4.046 0 0 0 20.735 12v-.036a4.046 4.046 0 0 0-4.044-4.008h-.081l-.024.001-.024.001h-.024l-.008.001h-.016l-.008.001-.024.001-.024.001-.007.001-.025.002h-.016l-.008.001-.023.002-.024.002h-.007l-.016.002h-.008l-.016.002H16.3l-.047.005-.006.001-.017.002h-.008l-.016.003h-.008l-.023.003-.023.004h-.007l-.017.003h-.008L16.105 8h-.008l-.023.004-.023.003-.023.004-.008.001-.016.003-.007.001-.024.004-.022.005-.023.004-.008.001-.015.003-.008.002-.016.003-.007.002-.022.004-.023.005-.007.002-.015.003-.009.002-.015.004h-.007l-.022.006-.023.006-.007.002-.015.003-.008.002-.015.004-.008.002-.021.006-.022.005-.008.003-.015.004-.008.002-.015.004-.007.002-.022.006-.021.007-.009.002-.014.004-.008.003-.014.004-.008.003-.021.006-.022.007-.008.003-.013.004-.009.003-.014.005-.008.003-.042.014-.008.003-.013.005-.009.003-.013.005-.008.003-.021.008-.02.007-.009.004-.013.004-.009.004-.012.005-.009.003-.02.008-.02.008-.01.004-.011.005-.01.004-.011.005-.01.004-.02.008-.02.009-.008.004-.012.005-.01.004-.01.005-.01.004-.02.01-.02.008-.009.005-.01.005-.01.004-.01.005-.01.005-.02.01-.019.009-.01.005-.01.005-.01.005-.01.005-.01.005-.01.005-.012.006-.015.009-.01.005-.01.005-.01.006-.01.004-.01.006-.008.004-.011.007-.017.01-.02.01-.01.006-.008.004-.012.007-.007.004-.012.007-.016.01-.019.01-.011.008-.007.004-.012.007-.006.004-.013.008-.016.01-.018.011-.012.008-.006.004-.012.007-.006.004-.012.008-.017.01-.016.012-.013.009-.005.003-.013.008-.017.013-.017.01-.016.012-.013.01-.004.002-.013.01-.004.002-.059.043-.003.002-.014.01-.002.002-.06.046-.016.013-.06.048-.016.013a4.04 4.04 0 0 0-1.464 3.113 5.337 5.337 0 0 1-5.334 5.335 5.34 5.34 0 0 1-5.335-5.334v-.035a5.337 5.337 0 0 1 5.335-5.3c1.882 0 3.54.977 4.489 2.453a5.6 5.6 0 0 0-.646 1.622 4.05 4.05 0 0 0-3.843-2.784 4.046 4.046 0 0 0-4.044 4.044 4.046 4.046 0 0 0 4.044 4.043 4.046 4.046 0 0 0 4.044-4.043v-.122l.001-.017v-.017l.001-.016v-.019l.002-.016v-.034l.001-.007v-.013l.001-.014.001-.008v-.013l.001-.013v-.01l.002-.012v-.022l.002-.012v-.012l.001-.011.001-.012.001-.011v-.012l.002-.011v-.01l.001-.007v-.007l.002-.01v-.01l.001-.007v-.008l.002-.01v-.01l.001-.006v-.009l.002-.01.001-.008v-.008l.002-.008v-.01l.001-.008.001-.008.002-.018v-.008l.002-.008.001-.01.001-.008v-.007l.002-.009.001-.01.001-.008.001-.007.001-.008.002-.011v-.008l.002-.006v-.009l.002-.012.001-.007.001-.005.001-.01.002-.012.001-.007v-.005l.002-.01.002-.012.002-.011.001-.01.003-.013.001-.01.002-.01.002-.014.001-.01.002-.01.003-.014v-.008l.003-.012.003-.014v-.007l.003-.013.003-.014v-.005l.004-.015.002-.013v-.005l.004-.018.003-.015.006-.03a5.3 5.3 0 0 1 .738-1.81l.013-.02.01-.015a5.36 5.36 0 0 1 1.908-1.764l.054-.03.02-.01.018-.01.052-.027.004-.002.051-.025.018-.01.03-.013.029-.014.029-.014.03-.014.016-.008.013-.005.03-.013.014-.007.015-.006.03-.013.012-.006.018-.007.02-.009.01-.004.01-.004.02-.008.018-.008.012-.005.007-.003.023-.008.016-.007.014-.005.03-.012.015-.005.016-.007.023-.008.008-.003.011-.004.02-.007.02-.007.01-.004.01-.003.021-.008.018-.006.013-.005.004-.001.024-.008h.003l.015-.006.016-.005.003-.001.024-.008.005-.001.012-.004.019-.006.021-.007.01-.003.01-.003.022-.006.019-.006.012-.004h.004l.025-.008.02-.005.014-.005h.003l.026-.007.017-.005.018-.005h.002l.026-.007.015-.004.021-.006.02-.005.012-.002.004-.002.026-.006.02-.005.015-.003h.003l.026-.007.018-.004.017-.003h.002l.027-.007.016-.003.02-.005.029-.005.008-.002.027-.005.02-.004.014-.002.003-.001.028-.005.018-.003.017-.003h.002l.028-.005.017-.003.02-.003.028-.005h.008l.029-.005.02-.003.013-.002h.003l.029-.005.02-.002.015-.002h.002l.029-.004.017-.002.02-.002.029-.004.016-.001.021-.002.03-.004h.007l.03-.003.02-.002.014-.001h.002l.03-.003h.018l.02-.002.029-.002.016-.001.021-.001.03-.002h.007l.03-.002h.021l.014-.001h.003l.03-.002h.036l.03-.001h.038l.03-.001h.038z" clip-rule="evenodd"/></svg>