<svg xmlns="http://www.w3.org/2000/svg" viewBox="0 0 24 24"><path d="M8.51 8.443h-.073c.072.278.072.58.072.907.146.037.279.11.279.315.145.072.278.109.423.218.06-.037.097-.146.133-.242-.133-.182-.447-.073-.447-.388l-.206-.072c0-.206 0-.412-.036-.557L8.69 8.6c0 .024.036.06.109.133.145 0 .278.036.423-.072.06-.037.06-.206.133-.206.06 0 .133 0 .17-.073 0 0 .072 0 0-.036l-.75-.109c-.085.109-.267.109-.267.206zm-2.19-.775c.145-.108.495-.35.677-.423-.036-.339-.424-.375-.605-.52h-.145c-.278.109-.339.387-.375.617.097.326.302.109.447.326m.132.57c0 .144.11.205.218.205 0 .145.11.17.145.205.11.073.146.073.242 0 .11.073.146-.06.182 0 0 .218 0 .315-.036.484-.037.255-.242.218-.424.315 0 .109-.109.278 0 .387.11-.072.182-.109.351-.181 0-.11.109-.218.242-.279 0-.314.109-.617.109-.943 0-.073-.073-.145-.182-.206h-.774c0 .012-.073.012-.073.012zm2.275 2.068-.036.036.387.146v-.182zM8.4 7.67c.182 0 .11.241.255.278h.314c0-.11-.036-.11-.073-.11-.181 0-.181-.277-.314-.217-.073 0-.145-.072-.242 0 0 .049 0 .049.06.049m-1.62 2.565c0 .072 0 .145.108.217a.56.56 0 0 1 .315-.145c-.073-.145-.254 0-.424-.072zm.991-2.602c-.072-.072-.278.037-.387.073-.145.036-.242.145-.242.242h.387c.024-.097.17-.242.242-.315m2.02.218h.11c.109-.109.181 0 .254-.109.072-.181.072-.496-.073-.653-.072-.145-.242-.218-.423-.351l-.242.133c-.133.073-.194.218-.194.375.218.109.46.387.569.605m-.277 9.486c-.073 0-.23.109-.23.181 0 .145-.06.92-.06.92h.23c.108-.315.314-.738.314-.92-.012-.145-.121-.181-.254-.181m-.823-.133c-.073 0-.182.205-.182.278 0 .278.073.678.182.956h.278c0-.315.036-.678.036-.956-.036 0 .037.073-.314-.278m11.966.133c.847-.81 1.343-2.154 1.343-3.448a6.02 6.02 0 0 0-1.779-4.223c-.496-.496-1.028-.738-1.452-1.222a2.5 2.5 0 0 1-.52-.702c-.181-.181-.29-.278-.496-.387.036.109.073.218.109.315h-.036c-.182 0-.351-.11-.496-.218l.145-.145c-.037-.06-.145-.06-.218-.06-.569-.098-1.089.205-1.633.314v.072c.35.11.423.533.617.738h.205c.073 0 .182.073.254.073 0-.073-.072-.206-.072-.206q.108-.108.218 0c.181.11.423-.072.604.206-.217 0-.423 0-.604.109 0 .036.108.097.072.17-.181-.073-.387 0-.46-.134l-.036.024c.218.254.532.448.847.557.46.072.847-.145 1.295-.036 1.597.786 2.734 2.6 2.734 4.428 0 2.601-1.488 3.63-2.42 3.63-.181 0-.447-.11-.556-.206.109-.363.169-.786.169-1.428 0-1.5-.593-3.133-1.416-3.968-.387-.387-.81-.714-1.246-.714-.218 0-.423 0-.568.181-.182.146-.29.424-.255.605-.278.218-.738.315-1.1.315-.388 0-.884-.145-1.32-.496v-.532c-.096-.037-.46-.255-.278-.412a.6.6 0 0 1 .218.133c-.036-.23-.036-.52-.218-.726-.072 0-.181 0-.278-.072-.109-.11-.218-.242-.218-.424.11.182.279.11.388.218-.182-.423-.11-.605-.424-1.222-.073-.315-.387-.496-.605-.702-.109-.072-.145-.181-.266-.181-.145-.037-.145-.218-.145-.315.036 0 .145.06.205.097-.205-.484-.35-1.004-.81-1.295l-.11.073h-.568c.073-.073.218-.109.315-.182-.11-.108-.182-.145-.387-.145-.097.037-.23.145-.363.145h-.037c0-.108-.036-.254.17-.314a1.8 1.8 0 0 0-.63 0c-.036.181-.145.278-.145.423-.109.073-.145.182-.254.279 0-.218.11-.424.145-.642-.145.037-.314.146-.387.146-.278-.146-.641-.279-.774-.279.218.145.109.387.145.569l-.145-.073c-.036-.145-.218-.254-.242-.423-.218 0-.35.072-.532.181v.037c.108 0 .254.109.314.217-.242 0-.423-.108-.677-.108 0 0 0-.037-.037-.037-.096.037-.193.145-.254.218-.254.218-.423.387-.532.702.072 0 .181 0 .218.036-.146.036-.218.218-.351.254v.52c-.11.11-.242.218-.315.424-.181.557-.218 1.186-.218 1.9-.036.145-.108.181-.181.217v.545s.218-.194.315-.266v.447c-.146 0-.242.182-.242.279 0 .145.036.278.036.423 0 .073 0 .073.036.145 0-.072.073-.145.182-.181 0 0 .072-.073.217-.073-.108.109-.145.254-.217.387l-.11.11s-.036.072-.036.108c.146.726.351 1.367.642 2.057-.279.46-.605 1.343-.811 2.19-.181-.181-.423-.206-.641-.206-.194.037-.412.11-.557.315-.218-.109-.496-.073-.629.072-.29.255-.29.388-.29.605A.73.73 0 0 0 2 17.64c0 .314.036.532.218.81h5.311a.9.9 0 0 0-.181-.314c-.11-.218-.037-.496-.037-.714.11-.206.218-.412.351-.593.037-.109 0-.109.037-.145l.254-.037c.145 0 .242-.108.423-.108.11.145.11-.11.29-.182.388-.073.75 0 .956.278 0 .037.037.037.037.073h-.182c-.193-.073-.435-.182-.677-.073 0 .073-.037.073-.037.182v.181c.146 0 .254.133.388.206.06-.109.254-.206.399-.206.181 0 .423.097.423.387v.388c.146.145.315.181.496.242-.072.145-.181.145-.278.145h-.278c-.036-.036-.11-.036-.11-.145-.108.145-.18.29-.253.423h4.101c-.072-.145-.145-.242-.181-.314-.073-.218-.073-.497-.073-.714l.388-.52c.205 0 .387-.073.774-.11.072-.108 0-.145.314-.145.242 0 .424.037.497.073.036.072.036.072 0 .145-.073.073-.206-.073-.315-.036-.073.072.036.109.036.181.073.06-.314-.072-.314-.072s-.073.205-.11.278c0 0 .146.145.219.206.072.109-.11.217-.11.314-.072-.036-.217-.145-.217-.109-.073.29 0 .533-.036.811h.387l.036-.605c.036-.35.46-.98.714-.98.145 0 .242.073.35.145.061.133.23.206.23.278s-.096.11-.266.11c-.072 0-.072-.11-.169-.182l-.218.206s.242.217.242.35c0 .182-.036.242-.145.351l-.218-.423c-.109 0-.278.218-.278.314 0 .146-.073.218-.073.424h2.166c.242 0 .46-.073.702-.218h.423c.944.024 1.622-.218 2.25-.859zM16.809 7.85c-.072-.109-.181 0-.254 0s-.109 0-.242-.109c.206 0 .315-.109.496-.181.145.109.278.145.387.278h-.387zm1.138.532c-.11-.145-.242-.314-.388-.314.11 0 .254-.11.424-.11.072.182.218.28.254.424l.036.218a.39.39 0 0 0-.326-.218m-5.796 4.622-.181.073c-.388 0-.57-.109-.739-.254.146 0 .315-.182.315-.182.182.182.436.327.605.363m-1.827-.399c-.181.036-.315-.145-.496-.218-.073-.193-.073-.411-.145-.508.145.109.46.109.387.424 0 .096.145.169.254.302m0 1.174c.109.036.278.145.387.217h-.109c-.387.133-.714-.108-1.028-.314a1.8 1.8 0 0 1 .641-.11zm.073-.57c.145-.108.314-.108.387-.144.145.145.266.387.52.532-.145 0-.375 0-.52-.109-.218-.097-.278-.17-.387-.278m-.388 2.179c0-.109.073-.206.218-.278.218.072.387-.388.605-.146.11.037.206.037.266.037.242.109.315.314.424.496-.182 0-.315 0-.424-.182-.036 0-.096-.109-.133-.036-.181.145-.35-.109-.568-.073a.68.68 0 0 1-.388.218zm1.755-3.715c-.036.146-.182 0-.206 0h-.314c-.037-.072-.073-.109-.073-.181.145-.036.242-.109.35-.036.061.108.134.217.243.217m-.678-1.512c.073.145.073.218.145.278.146-.072.146.11.182.145.036.097.109.194.109.303-.218 0-.315-.109-.424-.303-.012-.096-.036-.242-.012-.423m-.266 1.718.339.315c-.206 0-.448.109-.557-.11.073-.023.146-.132.218-.205m-.036-2.674c0 .036-.073.351-.073.351l-.278.073.181-.763c.06.133.17.267.17.34zM5.81 6.665c.06 0 .157-.037.194-.11.169-.036.278-.217.496-.108.145 0 .278.072.387.108 0 .073 0 .11.072.182.218 0 .218.206.315.387.109.036.206.036.278.036.218.06.387.06.46.158.278-.158.569-.194.883-.158.037-.108.11-.254.146-.423.036.109.036 0 .108 0 .133-.109.29-.278.533-.218.145.109.387.036.532.218.109.133.182.35.278.52-.108.206 0 .496-.217.593l-.218.218c-.073 0-.073.072-.182.072.11.242.037.593-.072.835.072-.024.181-.024.181-.133.037.037 0 .097 0 .133v.097c0 .182-.109.351-.254.496-.072.218-.242.496-.472.533v.072c.508 0 .944.145 1.44.387v.23c-.423-.23-.883-.411-1.403-.447 0 .108 0 .205-.037.241.412.194.799.376 1.15.69v.327c-.351-.351-.75-.714-1.186-.81-.036.072-.17.144-.206.277-.254-.181-.532-.35-.822-.387-.11 0-.182-.375-.182-.375a.56.56 0 0 0 .351-.35h.145c.109 0 .109-.073.109-.182 0-.218-.46-.218-.678-.218-.254 0-.423 0-.568.109-.073 0-.036.109-.036.181 0 .037.108.11.108.11.073 0 .146-.073.218-.073-.036.218.036.314.242.423l-.036.339c-.424 0-.714.17-1.029.315-.108-.073-.181-.182-.254-.279-.423.145-1.137.702-1.137.702v-.242c.315-.278.714-.423 1.028-.593v-.242c-.145-.072-.278 0-.423 0-.302.037-.605.17-.823.339 0-.097-.036-.242-.036-.242.387-.218.859-.387 1.319-.315v-.145c-.037-.072-.037-.181-.11-.181-.217-.218-.423-.533-.423-.75l.146-.073c-.073-.206-.146-.726 0-.907-.206-.11-.4-.279-.472-.424-.073-.181-.145-.278-.182-.484.17-.181.23-.254.339-.46zm3.267 6.545c-.182-.109-.496-.145-.424-.35.073-.182.182-.219.242-.28.037.243.073.424.182.63m-2.19-1.004-.11.435c-.108-.205-.217-.411-.241-.653zm-.472.544a1.15 1.15 0 0 1-.557-.447 1.2 1.2 0 0 1-.096-.424c.133 0 .23.109.254.182v.036c.193.218.363.375.399.653m-.387.424c0 .145-.06.314-.23.496-.036.036-.133.109-.133.109 0-.218.097-.387.097-.569.108-.036.205-.109.266-.036m.35.423c.037-.036.073 0 .146 0l-.145.52c-.182.134-.424.073-.617.073.266-.072.484-.375.617-.593M5.17 8.056c.073-.109.11-.218.219-.315v.424l-.242.072zm0 .714.279-.11-.181.219c.036.338-.11.592-.11.907l-.18-.569c.06-.145.096-.278.193-.447zm-.023 4.053c.036-.145.145-.218.169-.242.109.036.181.036.315.073-.182.181-.351.254-.424.46a1 1 0 0 0-.06-.291m-2.263 4.694c-.036 0-.145-.109-.254-.109-.097.218 0 .351 0 .605a.8.8 0 0 1-.036.218c-.06 0-.194-.145-.23-.278v-.569l.29-.387c.23.133.303.339.23.52m.81 0c-.036-.145-.132-.314-.302-.314-.145.278-.181.387-.036.81-.11.11-.182.146-.315.218-.072-.145-.072-.387-.072-.532 0-.254.036-.496.109-.702.108-.109.181-.29.278-.363h.375c-.17 0-.17.145-.17.254.097.037.242.073.242.242a1 1 0 0 1-.108.387zm.884.496c0-.181.109-.387.109-.605 0 0-.145-.145-.29-.145-.11.073-.11.145-.146.254-.109.218-.314.424-.35.642-.037 0-.037-.037-.037-.037 0-.35.036-.955.242-1.197.181-.218.315-.218.532-.242l.182.036-.145.218c.145.072.35.205.35.423.013.266-.447.653-.447.653m1.33-.677-.23-.63c-.29-.253-.604-.29-.786-.435-.145-.036-.145.073-.217 0 0-.072 0-.181.109-.278h.205l.218.109c.109.109.35.109.35.314 0 .037-.035.073.073.218l.327.073.036.29zm.376-.63c-.073-.072 0-.253-.11-.362 0-.073.074-.11.037-.145-.036-.073-.435-.218-.435-.218-.133-.11-.315-.218-.46-.351-.145-.036-.242.036-.424.072v-.072c.073-.145.073-.315.279-.315.109 0 .242 0 .314.11.145 0 .218.144.315.18.157.17.302.255.4.315q0 .164.108.218c.218 0 .145.206.218.35zm.387-.786c-.073-.242-.242-.496-.46-.496-.109-.109-.205-.218-.242-.314-.097-.11-.193 0-.326-.11-.146 0-.315 0-.46.11V15l.242-.278c.254.037.544 0 .605.182.181.109.35.218.387.29v.11c.073.036.218.072.278.108.012.085-.024.508-.024.508m.387-1.73c-.109 0-.29.073-.496 0 .109-.073.218-.097.351-.193l.278-.279h.279c-.097.206-.194.4-.412.472m.109-1.585c.109 0 .218 0 .315.073 0 .181.072.326.072.532-.205-.206-.387-.387-.387-.605m.109 2.117c.036-.108.133-.145.206-.241.072-.11.217-.279.254-.388.181-.096.254-.096.387-.096-.036.193-.145.266-.315.508-.109.072-.326.109-.532.217m.496.666-.218-.278h.533l.108.205c-.145.11-.254.11-.423.073m.242-2.069-.073-.35a1.2 1.2 0 0 0 .351-.328c.012.254-.024.57-.278.678m.423-1.827c-.036 0 0 .109-.036.109 0 .072-.072.218-.072.35-.073.037-.218.11-.351.037v-.109c-.037-.072-.037-.218-.037-.278l-.036-.036c-.109.036-.109.108-.109.181-.036.073-.109.145-.109.242a.45.45 0 0 1-.314-.109v-.314c0-.073 0-.073-.037-.073l-.181.181c-.145-.108-.182-.387-.182-.568.57-.315 1.27-.218 1.706-.037.073.037.146.037.206.073-.036.218-.109.532-.314.678.012-.146-.061-.218-.134-.327m.642 3.8a1.1 1.1 0 0 1-.351-.182c-.036-.11-.036-.218-.036-.218h.278l.181.387h-.072zm0-.969c-.218-.17-.351-.375-.569-.653l.569.109c.109.072.302.302.399.411-.073.073-.266.133-.4.133zm.363-1.319c-.194-.326-.097-.605 0-.834.072.205.109.41.133.58.036.146.254.218.314.315-.133.036-.375.109-.447-.06zm.133 3.134.181-.423c.145 0 .254-.073.315-.073.145-.036.254-.036.35-.036v.036c.388 0 .836-.036 1.126.278l.036.29c-.145-.108-.35-.108-.423-.29-.133-.036-.23-.036-.412-.036-.145.036-.314.036-.46.036-.036 0 0-.036-.072-.072-.206.072-.423.072-.641.29m1.137 1.27-.109.11c-.109-.11-.036-.388-.218-.424-.181 0-.314-.17-.387-.206l.145-.072s.073-.037.146 0c.072.072.145.109.145.181.072.097.181 0 .254.097.024.109.06.242.024.314m1.089-.072c-.073-.218-.145-.52-.387-.52-.036-.146-.073-.182-.218-.29l-.266-.037c.036.145.23.145.097.327.133.109.242.109.314.278.073.109 0 .254.037.315l-.218.108c0-.181.036-.52-.206-.592-.206.072-.242-.218-.387-.29-.073 0-.073-.182-.182-.11-.181.11-.387 0-.568.11l.181-.28c.145-.108.279-.072.424-.108l.278-.036c.278 0 .52.145.799.242a.34.34 0 0 1 .205.326c.073.037.218.037.218.146-.012.072-.085.278-.121.41zm.496-.52c-.073-.11-.109-.182-.181-.182.108-.387-.11-.714-.182-1.028v-.11c.109.182.387.352.351.533.036.315.036.605.036.787zm-.35-4.38.277-.121c.11.084.255.12.315.157-.097.109-.387.133-.593-.036zm2.37.568c.073.073.146.11.206.206v.278c-.314-.181-.496-.496-.774-.81.29 0 .363.29.569.326m-1.572.073c.096.109.23.254.23.35 0 .11-.073.146-.134.219 0 0-.133-.182-.133-.254 0-.146 0-.218.037-.315m.302 2.638c0-.218-.036-.388-.181-.533 0-.072.096-.072.036-.181 0 0-.194-.11-.194-.254s.133-.254.194-.351c0-.037.145.072.145.278 0 .036 0 .145-.036.218-.036.109.218.109.218.218 0 .205-.146.387-.182.605m.387-1.525c0 .073-.109.133-.145.133 0 0-.181-.17-.206-.339-.036-.145.11-.387.11-.387.036 0 .072.073.108.073.037.036 0 .145.037.242.096.085.169.206.096.278m.315 1.84c.073-.182.073-.533 0-.533-.073-.036-.218 0-.218-.073 0-.109.036-.242.036-.314 0-.146-.108-.218-.108-.279 0-.217.254-.242.314-.387.036.145.036.278.036.46 0 .073.11.29 0 .46 0 .109.206.036.206.145.024.17-.193.375-.266.52m.569-.848c-.11 0-.11-.072-.11-.218-.036-.217-.108-.387-.18-.604-.073-.279-.243-.509-.388-.835-.036-.146-.218-.218-.35-.315.18 0 .35 0 .495.145 0 .073.037.11.145.218.242 0 .182.315.388.46-.11.097-.146.157-.218.23.109.072.218.109.254.218 0 .205-.036.447-.036.701m.496-.35c-.073-.218-.218-.424-.29-.63 0-.036-.037-.036.036-.072.036 0 .181 0 .181.036.036.073.109.17.109.278 0 .133-.073.242-.036.387m1.887-1.053c-.072-.073 0-.218-.181-.218-.073 0-.182.109-.182.109-.06.036-.266-.109-.266 0 0 .181-.133.242-.315.242-.072 0-.145 0-.217-.036v-.34c.46 0 .423-.144.617-.144.133 0 .23.072.338.072.182 0 .073-.072.255-.072.181 0 .242.145.35.181 0 .109.11.254.11.387-.23 0-.473-.072-.509-.181m.218.944c-.109-.037-.35-.073-.35-.182 0-.145-.074-.181-.243-.181-.133 0-.23.036-.435.108 0 0-.11-.145-.146-.278a1.7 1.7 0 0 1 .472-.097c.242 0 .484 0 .484.097 0 .133.218.17.218.533m-.4-1.973c.11 0 .182-.072.255-.072.181 0 .314.29.35.496a2.06 2.06 0 0 0-.943-.29c-.133 0-.545.18-.69.314l-.072-.315c.217-.036.217-.217.35-.217.11 0 .242-.037.34-.037.096 0 .169-.072.193-.072.181.024.12.193.218.193zm-1.064-.435c.109-.11.278-.254.423-.254.242 0 .436.181.436.338-.194 0-.23-.024-.363-.024-.181 0-.387.06-.496.242-.073-.145-.036-.218 0-.302m.109-.932c.145-.072.218-.036.278 0 0 .218.242.109.375.182.06.108.097.181.133.314-.23-.072-.363-.181-.568-.181-.073 0-.388.109-.424.181-.109-.133.06-.423.206-.496m.653 5.324a1 1 0 0 0-.472-.11c0-.144-.109-.314-.181-.314-.218 0-.182.146-.351.146l.315-.315c.036-.073.036-.073.108-.073.11.073.146.11.242.11 0 .072 0 .108-.036.205.109.073.17-.036.242.073.097.036.194.072.194.217zm.339-.46c-.242-.036-.242-.315-.278-.35-.17-.219-.4-.037-.581-.037-.073-.218.036-.218.036-.351.11 0 .218-.073.315 0 .17-.073.266.109.435.109.037.072.11.254.146.278 0 .133-.037.17-.073.351m.181-.75c-.254 0-.108-.496-.617-.496-.096 0-.169.181-.302.218 0-.037.036-.254.036-.254 0-.073.037-.218.17-.279.266 0 .193.11.399.182.109.036.181.109.314.109zm.497 1.597c0-.17-.218-.278-.351-.569l.145-.254c.109.073.254.182.254.351 0 0-.036.073 0 .145 0 .037.073.037.073.11-.085.12-.085.12-.121.217m.242-.678-.218-.314c.072-.109.072-.242.181-.424.037 0 .145.242.145.279 0 .217 0 .29-.108.46m-9.74 1.174c-.11.35.217.569.254.847h.423c-.181-.315-.218-.81-.218-.92 0-.181 0-.423.11-.592l-.388.072c-.109.133-.145.206-.145.278l.181-.072c.037 0 .073.072.11.145-.05.17-.255.17-.327.242m6.158-.181c-.072 0-.109.181-.109.254 0 .314.145.568.242.774h.315c-.036-.278-.11-.532-.11-.847 0-.181.11-.387.146-.496l-.35.036c.144.073.144.254.144.279a.4.4 0 0 1-.145.278c-.06-.06-.06-.17-.133-.278"/></svg>