<svg xmlns="http://www.w3.org/2000/svg" viewBox="0 0 24 24"><path d="m15.894 3.277 4.042-.712a1.759 1.759 0 0 1 .61 3.464l-4.042.713z" opacity=".5"/><path d="M15.938 3.294a1.8 1.8 0 0 0-.348.066l-3.703.653A1.76 1.76 0 0 0 10.5 5.73a1.76 1.76 0 0 0 1.995 1.738l.002.01 3.573-.63v7.245a2.93 2.93 0 0 0-4.104 2.68 2.931 2.931 0 0 0 5.862 0V5.046a1.76 1.76 0 0 0-1.89-1.753zM7.73 5.052a1.76 1.76 0 0 0-1.627 1.754v9.045A2.93 2.93 0 0 0 2 18.531a2.931 2.931 0 0 0 5.862 0V8.56a1.76 1.76 0 0 0 1.759-1.754 1.76 1.76 0 0 0-1.89-1.754z"/></svg>