<svg xmlns="http://www.w3.org/2000/svg" viewBox="0 0 24 24"><path d="M10.202 12.012s-1.071.415-2.392.415-2.392-.415-2.392-.415 1.07-.416 2.392-.416c1.32 0 2.392.416 2.392.416m3.307-6.11s-.949-.641-1.687-1.719A7.058 7.058 0 0 1 10.834 2s.949.641 1.688 1.718a7.062 7.062 0 0 1 .987 2.184m-2.422 2.636s-1.144-.127-2.31-.738a7.22 7.22 0 0 1-1.914-1.47s1.144.128 2.31.738a7.226 7.226 0 0 1 1.914 1.471m2.308 5.473c.679-.006 1.497-.543 1.497-.543s-1.898-.576-1.779-2.286c.374-2.805 2.637-5.007 5.47-5.361a6.554 6.554 0 0 0-.92-.062c-3.503.016-6.33 2.823-6.315 6.27.016 3.448 2.869 6.23 6.373 6.214a6.4 6.4 0 0 0 .86-.062c-2.486-.312-4.51-2.037-5.235-4.316m.163 4.232s-.949.641-1.687 1.719A7.058 7.058 0 0 0 10.834 22s.949-.641 1.688-1.719a7.069 7.069 0 0 0 .987-2.183m-2.422-2.637s-1.144.128-2.31.739c-1.167.61-1.914 1.471-1.914 1.471s1.144-.128 2.31-.738 1.914-1.472 1.914-1.472"/></svg>