<svg xmlns="http://www.w3.org/2000/svg" viewBox="0 0 24 24"><path d="M12 3c-2.445 0-2.75.011-3.71.054-.959.045-1.611.196-2.185.419-.592.229-1.094.537-1.595 1.037s-.809 1.002-1.038 1.595c-.222.574-.374 1.226-.418 2.185C3.009 9.25 3 9.555 3 12s.011 2.75.054 3.71c.045.958.196 1.611.418 2.185.23.591.538 1.094 1.038 1.595.5.499 1.002.809 1.595 1.038.574.222 1.227.374 2.185.418.96.045 1.265.054 3.71.054s2.75-.011 3.71-.054c.958-.045 1.611-.196 2.185-.418a4.4 4.4 0 0 0 1.595-1.038c.499-.5.809-1.002 1.038-1.595.222-.574.374-1.227.418-2.185.045-.96.054-1.265.054-3.71s-.011-2.75-.054-3.71c-.045-.958-.196-1.612-.418-2.185A4.4 4.4 0 0 0 19.49 4.51c-.5-.5-1.002-.809-1.595-1.038-.574-.222-1.227-.374-2.185-.418C14.75 3.009 14.445 3 12 3m0 1.62c2.402 0 2.689.012 3.638.053.877.042 1.353.187 1.67.312.421.162.72.357 1.036.672.314.315.51.614.672 1.035.123.317.27.793.31 1.67.043.95.052 1.235.052 3.638s-.01 2.689-.055 3.638c-.046.877-.192 1.353-.316 1.67-.168.421-.36.72-.674 1.036a2.8 2.8 0 0 1-1.035.672c-.315.123-.799.27-1.676.31-.956.043-1.237.052-3.644.052-2.409 0-2.69-.01-3.645-.055-.878-.046-1.362-.192-1.677-.316a2.8 2.8 0 0 1-1.034-.674 2.7 2.7 0 0 1-.675-1.035c-.124-.315-.27-.799-.315-1.676-.034-.945-.046-1.237-.046-3.633s.012-2.69.046-3.646c.046-.878.191-1.36.315-1.676.158-.427.36-.72.675-1.035a2.66 2.66 0 0 1 1.034-.674c.315-.124.789-.27 1.666-.316.956-.033 1.238-.045 3.644-.045zm0 2.759a4.621 4.621 0 1 0 0 9.242 4.621 4.621 0 0 0 0-9.242M12 15a3 3 0 1 1 0-6 3 3 0 1 1 0 6m5.885-7.804a1.08 1.08 0 0 1-2.16 0 1.08 1.08 0 0 1 2.16 0"/></svg>