<svg xmlns="http://www.w3.org/2000/svg" viewBox="0 0 24 24"><defs><linearGradient id="a" x2="12.689" y1="10.851" y2="10.851" gradientTransform="translate(2.714 2)" gradientUnits="userSpaceOnUse"><stop offset=".26"/><stop offset="1" stop-opacity="0"/></linearGradient></defs><path d="M3.693 5.082a.977.977 0 0 1-.49-1.823L5.16 2.131a.978.978 0 0 1 .977 1.692L4.181 4.95a.974.974 0 0 1-.488.13zm6.842-.262a.976.976 0 0 0-.489.131L3.203 8.898a.976.976 0 0 0 .49 1.823.974.974 0 0 0 .488-.131l6.354-3.666 7.82 4.512-13.686 7.896v-3.385l.62-.357-1.108-1.615-.979.562a.976.976 0 0 0-.488.846v5.64a.977.977 0 0 0 .488.846.977.977 0 0 0 .49.131.978.978 0 0 0 .489-.13l16.617-9.589a.976.976 0 0 0 0-1.691l-4.871-2.81a.933.933 0 0 0-.032-.018l-4.873-2.81a.976.976 0 0 0-.488-.132z"/><path fill="url(#a)" d="m13.459 8.629-5.602 3.227-4.697 2.71a.974.974 0 0 0-.445.817v1.69l1.953-1.126 3.844-2.218 6.892-3.979z"/></svg>