<svg xmlns="http://www.w3.org/2000/svg" width="24" height="24" fill="none" viewBox="0 0 24 24"><path fill="#FFF1C0" fill-rule="evenodd" d="M16.929 2.071C15.643 2.012 15.257 2 12 2c-3.257 0-3.643.012-4.929.071-1.19.054-1.835.253-2.265.42a3.78 3.78 0 0 0-1.402.913 3.78 3.78 0 0 0-.913 1.402c-.167.43-.366 1.076-.42 2.265C2.012 8.357 2 8.743 2 12c0 3.257.012 3.643.071 4.929.054 1.19.253 1.835.42 2.265.196.53.507 1.009.913 1.402.393.406.872.717 1.402.913.43.167 1.076.366 2.265.42C8.357 21.987 8.743 22 12 22c3.257 0 3.643-.013 4.929-.071 1.19-.054 1.835-.253 2.265-.42a4.039 4.039 0 0 0 2.315-2.315c.167-.43.366-1.076.42-2.265.059-1.286.07-1.672.07-4.929 0-3.257-.011-3.643-.07-4.929-.054-1.19-.253-1.835-.42-2.265a3.779 3.779 0 0 0-.913-1.402 3.78 3.78 0 0 0-1.402-.913c-.43-.167-1.076-.366-2.265-.42m1.582 4.881a1.464 1.464 0 1 0 0-2.927 1.464 1.464 0 0 0 0 2.927ZM12 5.736a6.264 6.264 0 1 0 0 12.528 6.264 6.264 0 0 0 0-12.528m0 10.33a4.066 4.066 0 1 1 0-8.132 4.066 4.066 0 0 1 0 8.132" clip-rule="evenodd"/></svg>