<svg xmlns="http://www.w3.org/2000/svg" viewBox="0 0 24 24"><path d="M3 20.339V3.662h3.709v16.677zm11.598.26q-2.055 0-3.543-.662-1.465-.685-2.693-2.055l2.41-2.385q.802.92 1.77 1.44.993.496 2.292.496 1.181 0 1.82-.425.66-.425.66-1.18 0-.686-.425-1.111-.425-.425-1.134-.732-.685-.307-1.535-.59-.827-.284-1.653-.639-.827-.378-1.536-.92-.685-.568-1.11-1.395-.425-.85-.425-2.126 0-1.535.732-2.645.756-1.11 2.079-1.678 1.323-.59 3.047-.59 1.748 0 3.189.614 1.465.614 2.41 1.677l-2.41 2.386q-.756-.78-1.535-1.157-.756-.378-1.725-.378-.968 0-1.535.378-.567.354-.567 1.039 0 .638.425 1.04.425.377 1.11.66.709.284 1.536.568.85.283 1.677.661.827.378 1.512.969.708.567 1.133 1.464.426.874.426 2.173 0 2.386-1.701 3.756-1.7 1.347-4.7 1.347z"/></svg>