<svg xmlns="http://www.w3.org/2000/svg" viewBox="0 0 24 24"><path d="M6.355 18.679c-.24-.116-.337-.297-.337-.63 0-.118-.041-.306-.092-.416a10 10 0 0 1-.212-.524c-.263-.698-1.122-2.174-1.454-2.498-.074-.072-.134-.153-.134-.18s-.36-.403-.798-.838c-.838-.83-1.082-1.117-1.236-1.455-.114-.25-.124-.6-.02-.686.098-.08.718-.07.882.015.067.035.253.237.412.448s.38.454.49.539c.11.084.295.25.412.37.117.118.38.373.584.567s.457.48.562.638c.313.469.558.688.769.688.065 0 .071-.054.045-.413-.016-.228-.03-2.314-.032-4.637l-.001-4.222.109-.116c.14-.15.325-.149.565.003.31.196.34.328.307 1.347-.016.481-.024.95-.018 1.04.016.236.02 4.913.005 5.084-.007.078-.002.458.011.846.021.604.042.754.151 1.063.197.558.25.668.318.668.112 0 .88-.897.88-1.028 0-.023.098-.188.218-.366s.287-.464.373-.635c.086-.172.234-.45.33-.62.268-.472.297-.528.4-.756.128-.283.27-.438.51-.56.278-.142.516-.131.777.034.605.383.54 1.396-.11 1.736-.07.036-.227.216-.35.4-.124.184-.263.355-.31.38s-.214.199-.373.387c-.563.668-1.435 1.578-1.8 1.879-.11.09-.348.366-.53.61l-.329.446.054.232c.03.128.053.36.053.517 0 .245-.02.31-.139.461-.228.287-.583.356-.942.182m10.408-.002c-.098-.105-.1-.144-.12-2.66-.012-1.404-.005-3.49.013-4.634.02-1.144.028-2.088.02-2.098s-.068-.004-.132.012q-.271.068-.642.617a5 5 0 0 1-.6.69 33 33 0 0 0-.56.545 6 6 0 0 1-.416.374c-.125.1-.357.355-.515.565-.17.225-.347.407-.43.442-.076.032-.294.06-.483.06-.425 0-.473-.044-.437-.395.047-.459.3-.808 1.275-1.757.4-.39.769-.774.819-.852s.123-.173.164-.212c.316-.3 1.142-1.727 1.466-2.53.084-.208.182-.445.217-.527a1.1 1.1 0 0 0 .065-.368c0-.336.098-.517.341-.635.362-.175.706-.108.936.182.188.237.215.419.123.815-.04.174-.06.355-.044.402.055.155.672.944.846 1.082.305.241 1.26 1.24 1.771 1.85.157.188.324.362.372.387s.194.204.328.397c.152.22.295.372.384.41.284.117.476.487.476.915 0 .39-.17.677-.495.834-.273.132-.507.111-.793-.07-.188-.12-.462-.478-.462-.606 0-.03-.046-.13-.103-.221a10 10 0 0 1-.505-.922 7 7 0 0 0-.401-.693 4 4 0 0 1-.267-.442c0-.127-.773-1.017-.883-1.017-.071 0-.101.065-.303.647-.149.43-.157.61-.148 3.349.015 5.081.008 5.65-.08 5.807-.095.172-.396.361-.576.363a.35.35 0 0 1-.221-.106"/></svg>