<svg xmlns="http://www.w3.org/2000/svg" width="192" height="192" viewBox="0 0 192 192"><path d="m94.912 168.4 32.944-86.88h15.2L176 168.4h-15.2l-7.792-22.08h-35.112l-7.784 22.08zm-57.2-21.72-10.128-10.136 36.56-36.56q-6.336-6.336-11.496-14.48T43.144 67.04h15.2q3.624 7.064 7.248 12.312 3.616 5.248 8.688 10.496 5.968-5.976 12.4-16.744 6.424-10.768 9.68-20.544H16V38.08h50.68V23.6h14.48v14.48h50.68v14.48h-21q-3.8 13.04-11.4 26.8t-15.024 20.992l17.376 17.736-5.432 14.848-22.08-22.632zm84.712-13.032h26.064l-13.04-36.92z"/></svg>