<svg xmlns="http://www.w3.org/2000/svg" width="24" height="24" fill="none" viewBox="0 0 24 24"><rect width="12" height="12" x="6" y="6" stroke="#000" stroke-width="2" rx="2"/><circle cx="12" cy="12" r="2" stroke="#000" stroke-width="2"/><path fill="#000" fill-rule="evenodd" d="M10 3a1 1 0 0 0-2 0v2a1 1 0 1 0 2 0zm6 0a1 1 0 1 0-2 0v2a1 1 0 1 0 2 0zM8 19a1 1 0 1 1 2 0v2a1 1 0 1 1-2 0zm8 0a1 1 0 1 0-2 0v2a1 1 0 1 0 2 0zm5-11a1 1 0 1 1 0 2h-2a1 1 0 1 1 0-2zm0 8a1 1 0 1 0 0-2h-2a1 1 0 1 0 0 2zM5 8a1 1 0 0 1 0 2H3a1 1 0 1 1 0-2zm0 8a1 1 0 1 0 0-2H3a1 1 0 1 0 0 2z" clip-rule="evenodd"/></svg>