<svg xmlns="http://www.w3.org/2000/svg" viewBox="0 0 192 192"><rect width="92.4" height="92.4" x="49.8" y="49.8" fill="none" stroke="#000" stroke-width="15.4" rx="15.4"/><circle cx="96" cy="96" r="15.4" fill="none" stroke="#000" stroke-width="15.4"/><path d="M80.6 26.7a7.7 7.7 0 0 0-15.4 0v15.4a7.7 7.7 0 1 0 15.4 0zm46.2 0a7.7 7.7 0 1 0-15.4 0v15.4a7.7 7.7 0 1 0 15.4 0zM65.2 149.9a7.7 7.7 0 1 1 15.4 0v15.4a7.7 7.7 0 1 1-15.4 0zm61.6 0a7.7 7.7 0 1 0-15.4 0v15.4a7.7 7.7 0 1 0 15.4 0zm38.5-84.7a7.7 7.7 0 1 1 0 15.4h-15.4a7.7 7.7 0 1 1 0-15.4zm0 61.6a7.7 7.7 0 1 0 0-15.4h-15.4a7.7 7.7 0 1 0 0 15.4zM42.1 65.2a7.7 7.7 0 0 1 0 15.4H26.7a7.7 7.7 0 1 1 0-15.4zm0 61.6a7.7 7.7 0 1 0 0-15.4H26.7a7.7 7.7 0 1 0 0 15.4z"/></svg>