<svg xmlns="http://www.w3.org/2000/svg" viewBox="0 0 24 24"><path d="M16.753 3.025a.7.7 0 0 0-.41.194L12 7.562 7.625 3.219c-.663-.663-1.658.33-.995.994l4.376 4.342h-5.92a2.074 2.074 0 0 0-2.074 2.075v8.296c0 1.145.929 2.074 2.074 2.074h13.827a2.074 2.074 0 0 0 2.074-2.074V10.63a2.074 2.074 0 0 0-2.074-2.075h-5.92l4.343-4.342c.502-.466.093-1.3-.583-1.189M10.27 9.938c5.147 0 5.877.015 5.877 4.84s-.78 4.84-5.877 4.84c-5.12 0-5.876-.052-5.876-4.84 0-4.787.756-4.84 5.876-4.84m8.297 2.031c.598 0 1.08.481 1.08 1.08a1.08 1.08 0 0 1-1.08 1.08 1.08 1.08 0 0 1-1.081-1.08 1.08 1.08 0 0 1 1.08-1.08zm0 2.766c.598 0 1.08.48 1.08 1.08a1.08 1.08 0 0 1-1.08 1.08 1.08 1.08 0 0 1-1.081-1.08 1.08 1.08 0 0 1 1.08-1.08z"/></svg>