<svg xmlns="http://www.w3.org/2000/svg" viewBox="0 0 192 192"><path d="M110.35 98.198a21.313 21.313 0 0 1-11.255 8.67l20.615 19.128h3.292a1.882 1.882 0 0 0 1.878-1.878V77.22a1.882 1.882 0 0 0-1.878-1.877H108.9a18.162 18.162 0 0 1 4.535 14.058 20.012 20.012 0 0 1-3.084 8.797z"/><path d="M73.111 77.22v46.898a1.882 1.882 0 0 0 1.878 1.878h34.395l-20.283-18.82c-3.016-2.91-1.22-6.706 2.34-6.09 6.094-.108 10.575-2.915 12.996-6.684a12.987 12.987 0 0 0 2.018-5.686 11.337 11.337 0 0 0-.87-5.728c-1.474-3.373-4.821-6.276-10.353-7.645H74.989a1.882 1.882 0 0 0-1.878 1.877"/><path d="M34.153 93.119c.16.236.322.453.454.707.517.767 1.066 1.506 1.592 2.268l-2.005-3.002zm131.77 4.548c9.473 35.008-5.786 50.494-34.595 45.302a200.675 200.675 0 0 1-10.43 17.949c47.483 11.917 66.665-22.996 45.025-63.25m-99.496 66.03c-35.017-9.296-40.812-30.219-21.993-52.543a198.24 198.24 0 0 1-10.326-18.008c-33.983 35.126-13.341 69.164 32.32 70.551M135.373 52.03l.68-.045c-13.4-47.103-53.242-46.268-77.29-7.392 25.612-25.735 46.676-20.22 56.566 7.419a199.654 199.654 0 0 1 20.044.018m7.491 63.871a215.726 215.726 0 0 0 11.482-58.81q.1-1.578.186-3.175-9.178-1.36-18.356-1.84c.14.879.272 1.754.399 2.634a182.717 182.717 0 0 1 .793 50.72 170.229 170.229 0 0 1-16.606 55.497q-1.26-.481-2.503-.98a182.296 182.296 0 0 1-45.347-25.453A169.83 169.83 0 0 1 36.244 96.12c-.526-.757-1.075-1.496-1.592-2.267-.154-.236-.317-.454-.453-.708l.04-.032a95.68 95.68 0 0 1 1.234-.993 182.75 182.75 0 0 1 44.182-26.628 169.984 169.984 0 0 1 56.221-13.445h-.503a202.489 202.489 0 0 0-49.474 3.587Q56.487 61.281 28.31 75.61l-1.724.876c.127.317.254.625.381.934q3.247 8.04 7.133 15.717a198.24 198.24 0 0 0 10.335 18.017 201.505 201.505 0 0 0 16.819 22.592q19.58 23.018 46.172 40.517 1.32.87 2.653 1.737 5.773-7.31 10.811-15.064a200.675 200.675 0 0 0 10.43-17.949 201.341 201.341 0 0 0 11.545-27.086zm-6.707-63.857h-.258.281z"/></svg>