<svg xmlns="http://www.w3.org/2000/svg" viewBox="0 0 24 24"><path d="M11.428 20.992c-.942-.077-1.706-.232-2.442-.498a8.95 8.95 0 0 1-3.462-2.236 8.94 8.94 0 0 1-2.206-3.85 9.281 9.281 0 0 1-.035-4.682 8.971 8.971 0 0 1 4.05-5.43 8.815 8.815 0 0 1 2.874-1.113 8.947 8.947 0 0 1 3.574 0c.772.152 1.77.487 1.941.652.139.133.2.4.132.577a.579.579 0 0 1-.253.28c-.166.078-.274.08-.476.005l-.49-.181a7.453 7.453 0 0 0-2.624-.451 7.67 7.67 0 0 0-3.17.646 7.882 7.882 0 0 0-3.943 3.737 8.358 8.358 0 0 0-.789 2.61c-.04.318-.041 1.568 0 1.86.216 1.552.735 2.797 1.664 4A9.296 9.296 0 0 0 7.185 18.3c1.167.877 2.373 1.374 3.829 1.577.402.056 1.553.057 1.949.002a8.1 8.1 0 0 0 2.543-.773c.764-.376 1.4-.835 2.061-1.488a7.512 7.512 0 0 0 1.53-2.09 7.994 7.994 0 0 0 .814-2.863c.034-.386.014-1.354-.034-1.686a8.103 8.103 0 0 0-.53-1.977 8.38 8.38 0 0 0-1.155-1.967c-.251-.315-.8-.875-.915-.934a.404.404 0 0 0-.395.01c-.055.033-.996.957-2.141 2.105-2.143 2.146-2.102 2.102-2.049 2.242.032.083.097.12.355.196.417.125 1.04.403 1.413.632.177.108.526.364.654.48.05.046.135.14.188.21.555.729.542 1.688-.031 2.442-.224.294-.445.466-.92.714-.814.426-1.726.646-3.069.742-.833.059-3.478.09-3.732.043a.781.781 0 0 1-.505-1.213c.037-.053 2.177-2.204 4.757-4.78 5.078-5.073 4.764-4.773 5.096-4.859.168-.043.495-.045.647-.005.291.078.615.332 1.08.848.887.981 1.522 2.054 1.92 3.247a9.128 9.128 0 0 1 .442 3.297c-.023.401-.045.598-.137 1.212-.065.434-.3 1.23-.515 1.742a8.943 8.943 0 0 1-1.157 2.015 9.443 9.443 0 0 1-1.61 1.648c-.918.709-1.788 1.174-2.821 1.509-.887.286-1.62.402-2.624.415-.32.004-.633.003-.695-.002zM9.86 14.867c1.064-.053 1.747-.165 2.323-.382.444-.167.753-.376 1.126-.763.27-.28.382-.459.486-.77.07-.209.075-.628.011-.819-.13-.384-.401-.664-.888-.916-.294-.152-.489-.21-.677-.2-.323.016-.238-.057-2.094 1.795-.914.913-1.68 1.691-1.7 1.73a.23.23 0 0 0 .06.29c.067.057.07.057.486.057.23 0 .62-.01.867-.022z"/></svg>