<svg xmlns="http://www.w3.org/2000/svg" viewBox="0 0 24 24"><path d="M19.86 20.967c-.431-.562-1.923-1.764-2.634-2.12-.21-.106-.386-.185-.393-.178s-.219.122-.47.253c-.625.326-1.57.59-2.793.78-1.276.199-2.801.007-4.337-.544l-1.04-.374-.714.422c-.392.232-1.091.789-1.554 1.237-.684.664-.833.88-.8 1.168.037.31.096.351.5.343.252-.005 1.074-.138 1.826-.294 3.125-.651 7.429-.657 10.482-.014 1.658.35 1.979.423 2.116.296.039-.035.063-.085.097-.15.12-.22.072-.357-.286-.825m.222-14.379c-1.112-2.104-3.077-3.705-5.291-4.311-1.788-.49-4.068-.32-5.696.426-3.44 1.575-5.507 5.21-5.026 8.843.264 1.994 1.021 3.485 2.53 4.975 1.775 1.755 3.48 2.444 6.031 2.44 1.207-.002 1.602-.057 2.435-.341 2.744-.934 4.627-2.798 5.587-5.53.299-.851.346-1.197.348-2.542.002-1.76-.186-2.574-.918-3.96M18 12a5 5 0 1 1-10 0 5 5 0 0 1 10 0m-1 0a4 4 0 1 1-8 0 4 4 0 0 1 8 0"/></svg>