<svg xmlns="http://www.w3.org/2000/svg" viewBox="0 0 24 24"><path d="m5.42 6.53-.038 3.531c0 .795.507 1.09 1.07 1.094.532-.004 1.007-.272 1.06-.967l.036-5.592a.606.606 0 0 1 .602-.607h.816c.335 0 .605.276.603.614l-.007.952c.166-.103.358-.165.561-.165a1.11 1.11 0 0 1 1.108 1.123c0 .612-.49 1.11-1.108 1.11a1.08 1.08 0 0 1-.573-.166l-.019 2.605c0 .778.486 1.077 1.035 1.093.757 0 1.143-.439 1.143-.439l.001.002a.912.912 0 0 1 .684-.28h.001c.342.008.677.183.827.495.133.277.416.461.876.497.552.043.915-.168.947-.588.033-.433-.219-.593-1.235-.925-1.49-.51-2.472-.91-2.36-2.392.105-1.384 1.235-2.196 3.03-2.057 1.022.08 1.747.455 2.188 1.01.49.618.014 1.538-.769 1.521a.927.927 0 0 1-.815-.524c-.12-.248-.358-.413-.75-.443-.539-.042-.832.16-.861.552-.039.503.495.615 1.333.905 1.394.488 2.368 1.014 2.268 2.328-.111 1.468-1.245 2.323-3.109 2.178-.687-.054-1.256-.22-1.702-.486-.64.369-1.28.484-2.15.484-.864 0-1.577-.236-2.037-.736-.355.428-.871.736-1.624.736-1.799 0-3.105-.758-3.091-2.44l.038-4.03a.4.4 0 0 1 .398-.4h1.225a.4.4 0 0 1 .398.407zm-.964-1.298a1.095 1.095 0 0 1-1.095-1.11A1.113 1.113 0 0 1 4.456 3c.617 0 1.108.497 1.108 1.122 0 .612-.49 1.11-1.108 1.11m12.94 8.223c2.063 0 3.42 1.346 3.42 3.604v.162c0 .36-.288.652-.644.652h-4.271c.042.897.582 1.472 1.495 1.472.532 0 .922-.167 1.148-.466 0 0 0-.002.002-.003a.923.923 0 0 1 .884-.392c.776.104 1.108 1.087.53 1.622-.03.029-.065.054-.098.08-.002.003-.002.008-.004.01-.021.017-.046.033-.068.05l-.06.045c-.596.442-1.415.709-2.278.709-1.837 0-3.192-1.022-3.58-2.727v1.562c0 .552-.442 1-.987 1a.993.993 0 0 1-.986-1v-2.943c0-.903-.405-1.41-1.162-1.41-.703 0-1.135.466-1.216 1.178v3.175c0 .552-.442 1-.987 1a.993.993 0 0 1-.986-1v-2.943c0-.903-.419-1.41-1.135-1.41-.784 0-1.257.575-1.257 1.424v2.93a.992.992 0 0 1-.986.998.993.993 0 0 1-.987-.999V17.39l.004-.005c-.001-.07-.004-.139-.004-.214 0-3.66 2.812-3.55 3.703-3.55.96 0 1.73.397 2.189 1.122.405-.643 1.094-1.122 2.148-1.122 1.512 0 2.536.973 2.639 2.601.373-1.737 1.728-2.767 3.534-2.767zm-1.495 3.057h2.88c-.042-.883-.485-1.458-1.399-1.458-.858 0-1.426.533-1.481 1.458z"/></svg>