<svg xmlns="http://www.w3.org/2000/svg" xml:space="preserve" width="192" height="192" viewBox="0 0 192 192"><path d="M-254.3 230.3c.2.3.5.5.8.8-.6 0-.9-.2-.8-.8" style="fill:#ececec"/><path d="M81.836 175.227c-30.637-4.468-62.125-31.807-65.53-71.38-3.936-46.594 30.638-81.911 69.679-86.592 47.125-5.532 84.358 28.722 89.358 68.933 5.744 46.275-27.02 82.55-64.679 89.146 0-.639-.106-1.17-.106-1.809v-61.593c0-11.17.106-22.34.106-33.616 0-3.617-.957-6.914-4.148-8.723-1.809-1.063-4.043-1.808-6.17-1.915-14.149-.212-28.297-.106-42.34-.106-1.488 0-1.914.532-1.914 2.021.106 8.085.106 16.17 0 24.255 0 1.489.426 1.914 1.915 1.914 7.02-.106 14.042 0 21.063 0 2.447 0 2.447 0 2.447 2.554 0 24.999.106 49.998.106 74.89.213.745.213 1.383.213 2.021M95.133 61.19c9.042 0 16.063-6.914 16.063-15.956 0-8.83-7.02-15.957-15.85-15.957-9.042 0-16.063 6.914-16.063 15.85-.107 9.042 6.808 16.063 15.85 16.063" style="stroke-width:1.06379"/></svg>