<svg xmlns="http://www.w3.org/2000/svg" viewBox="0 0 24 24"><path d="M11.391 21.96a3.4 3.4 0 0 1-.534-.218c-.417-.21-6.208-3.55-6.663-3.843-.602-.387-.962-.879-1.14-1.56-.123-.475-.12-8.218.003-8.693.152-.585.526-1.138.975-1.446.448-.306 6.75-3.92 7.071-4.055.444-.186 1.325-.195 1.758-.016.273.112 6.406 3.624 6.947 3.979a2.6 2.6 0 0 1 1.176 1.837c.071.555.07 7.637 0 8.13a2.56 2.56 0 0 1-.966 1.663c-.342.267-6.79 3.987-7.157 4.129-.32.123-1.143.175-1.47.093m.11-7.725.015-1.239 1.108-.03c1.218-.032 1.66-.104 2.197-.358.962-.455 1.423-1.395 1.294-2.638-.108-1.05-.61-1.738-1.51-2.076-.548-.204-1.167-.277-2.364-.277h-1.12l-2.4 1.439v6.447l2.765-.03zm.013-3.908v-.755l.675.03c.478.02.727.055.853.12.3.156.424.628.25.963-.138.267-.358.34-1.107.37l-.671.026z"/></svg>