<svg xmlns="http://www.w3.org/2000/svg" xml:space="preserve" width="24" height="24" fill="none" viewBox="0 0 24 24"><path d="M12.712 8.652h1.957v.686h-.324c-.11 0-.163.054-.163.163v3.172c0 .569-.517 1.27-1.5 1.27-1.044 0-1.971-.814-1.971-1.828 0-1.137 1.148-1.653 1.978-1.372v1.026a.88.88 0 0 0-.508-.143.485.485 0 0 0-.476.48c0 .495.58.895.937.895.369 0 .558-.23.558-.445V9.501c0-.11-.054-.163-.163-.163h-.325z" style="opacity:1;fill:#000;fill-opacity:1;fill-rule:evenodd;stroke-width:.00802428;stroke-linecap:round;stroke-linejoin:round;paint-order:fill markers stroke" transform="translate(-35.963 -30.7)scale(3.77953)"/></svg>