<svg xmlns="http://www.w3.org/2000/svg" viewBox="0 0 192 192"><path d="M105.57 18.107c-25.818.28-49.655 17.6-62.208 30.153-13.39 13.39-29.486 37.604-27.126 58.542 2.36 20.938 19.989 52.066 63.228 64.49 31.181 8.942 67.956-6.273 82.032-28.449 9.043-14.254 21.54-48.873 9.615-75.824-11.559-26.11-29.67-46.26-60.352-48.729a57.116 57.116 0 0 0-5.188-.183zm-8.656 9.645a23.368 23.368 0 0 1 2.54.396c2.57.67 3.226 1.837 2.221 4.29a103.6 103.6 0 0 0-5.066 20.995 83.346 83.346 0 0 1-6.526 19.2c-1.48 3.295-3.643 3.373-5.645.335a179.15 179.15 0 0 0-13.22-17.724 19.863 19.863 0 0 1-4.169-8.474 9.27 9.27 0 0 1 3.834-9.113v-.015a39.726 39.726 0 0 1 15.274-7.683 38.947 38.947 0 0 1 10.756-2.206zm12.885 2.754a30.378 30.378 0 0 1 16.674 5.827c1.488.794 1.406 1.896.837 3.104a16.358 16.358 0 0 1-4.23 5.568 24.926 24.926 0 0 0-6.085 9.539c-.233.53-.576 1.19 0 1.643.6.467 1.23.336 1.993-.046a38.947 38.947 0 0 0 7.06-5.31c1.596-1.3 3.126-2.677 4.73-3.985 2.626-2.143 2.892-2.174 5.782-.305a15.189 15.189 0 0 1 7.135 13.327c.031 3.295-.566 3.898-3.681 4.732a46.736 46.736 0 0 0-14.5 5.172 25.705 25.705 0 0 1-9.736 2.708 109.05 109.05 0 0 0-14.118 3.682 17.137 17.137 0 0 1-5.675.791c-1.612-.015-2.949-.011-1.095-2.13-1.449-.296-2.112 1.943-3.225.502-.99-1.277.127-2.373.836-3.362a38.947 38.947 0 0 1 2.267-2.723 24.926 24.926 0 0 0 4.975-13.692 124.63 124.63 0 0 1 4.899-21.771c.864-2.532 2.392-3.084 5.157-3.271zM62.622 45.248c1.56-.157 2.663.755 3.47 2.723a56.862 56.862 0 0 0 10.36 16.035 116.84 116.84 0 0 1 8.656 11.7c.973 1.432.529 2.206-1.278 2.494a23.368 23.368 0 0 1-8.778-.38c-3.67-.802-7.286-1.866-10.94-2.723-5.32-1.223-10.813-1.363-16.125-2.632a19.473 19.473 0 0 1-5.66-2.42 2.804 2.804 0 0 1-1.658-2.89 6.232 6.232 0 0 1 .776-3.575 45.178 45.178 0 0 1 19.458-17.815c.627-.292 1.199-.465 1.719-.517m47.863 13.981c-.415-.014-.9.273-1.309.38a3.116 3.116 0 0 0-1.156.609 796.149 796.149 0 0 0-5.75 5.355l.73.883c2.375-1.745 4.783-3.458 7.12-5.25.475-.365 1.338-.82 1.003-1.52-.166-.336-.39-.448-.639-.457zm28.251 8.809a23.368 23.368 0 0 1 4.443.304 2.804 2.804 0 0 1 2.312 2.115 16.358 16.358 0 0 1 .959 6.1 26.873 26.873 0 0 1-2.465 10.908 81.009 81.009 0 0 1-5.933 11.091 11.684 11.684 0 0 1-2.754 3.15 3.793 3.793 0 0 1-5.096.243 55.304 55.304 0 0 0-19.671-10.087A148 148 0 0 1 94.8 83.327c-1.324-.685-1.03-1.882.73-2.708a31.936 31.936 0 0 1 11.136-3.712 85.683 85.683 0 0 0 14.149-3.438 62.315 62.315 0 0 0 9.25-3.53 23.368 23.368 0 0 1 8.671-1.902zm-97.548 5.857a14.021 14.021 0 0 1 4.822.167c6.598 1.441 13.446 1.205 20.051 2.708 4.596 1.052 9.203 2.15 13.8 3.226.529.124 1.023.352 1.155.897.148.623-.463.852-.821 1.187a12.307 12.307 0 0 1-14.438.776 13.164 13.164 0 0 0-11.912.578 7.634 7.634 0 0 0-4.199 7.029c-.53 1.004 1.296 2.448-.107 3.453a13.242 13.242 0 0 1-3.666 1.521c-4.83 1.59-9.27 4.225-14.255 5.401-4.058.958-6.294-.988-5.827-5.233a48.294 48.294 0 0 1 2.89-10.878 15.423 15.423 0 0 1 7.912-9.357 14.021 14.021 0 0 1 4.594-1.475zm38.854 10.284c.458-.084.905 0 1.278.517.662.904-.257 1.61-.639 2.373-.342.702-1.093 1.173-1.156 2.1 1.122.226 1.768-.691 2.602-1.05a2.337 2.337 0 0 1 2.297 0c.755.546.494 1.535.167 2.267-1.48 3.373-3.045 6.714-4.549 10.071-1.191 2.648-2.34 5.297-3.742 8.444a3.427 3.427 0 0 0 2.1-2.465c2.126-5.593 5.848-10.437 7.5-16.248a1.402 1.402 0 0 1 1.49-1.08c.81-.031 1.067.67 1.324 1.278a62.315 62.315 0 0 1 3.697 12.506c1.27 6.971 3.292 13.787 4.336 20.782.92 6.208-.533 8.428-5.69 10.36a55.304 55.304 0 0 1-21.558 3.027 10.126 10.126 0 0 1-2.19-.35c-3.07-.81-3.287-1.512-2.313-4.488a51.41 51.41 0 0 1 5.994-12.049c1.791-2.734 2.307-6.007 4.138-9.037-1.371.39-1.64 1.344-2.07 2.1-2.928 5.102-5.818 10.226-8.747 15.32-.81 1.41-1.87 2.697-2.556 4.153a5.172 5.172 0 0 1-5.979 3.088 20.798 20.798 0 0 1-13.494-5.75c-2.017-2.275-1.86-3.82.578-5.705 2.306-1.792 2.973-2.842 3.028-4.914-1.355 1.051-2.57 2.078-3.88 2.982a5.998 5.998 0 0 1-9.386-1.46 24.926 24.926 0 0 1-4.245-7.973 6.668 6.668 0 0 1 2.875-8.489 64.652 64.652 0 0 1 15.122-8.14c6.933-2.523 13.78-5.26 20.751-7.637 3.88-1.316 7.847-2.318 11.593-4.016.406-.183.866-.433 1.324-.517zm14.894 1.202a24.147 24.147 0 0 1 8.261 3.895 49.852 49.852 0 0 0 8.414 3.97 56.083 56.083 0 0 1 18.089 9.783 2.57 2.57 0 0 1 .745 2.419 14.488 14.488 0 0 1-3.5 7.743A53.746 53.746 0 0 1 103 129.272c-1.97.717-2.883.146-3.545-1.84a202.52 202.52 0 0 1-5.462-23.445 140.21 140.21 0 0 0-3.438-14.179c-.99-3.147-.058-4.458 4.382-4.427zm-31.705 18.895c-5.265 3.66-9.418 8.582-14.544 12.384a39.258 39.258 0 0 0 14.545-12.384"/></svg>