<svg xmlns="http://www.w3.org/2000/svg" data-name="Layer 1" viewBox="0 0 24 24"><path d="M13.812 7.533c.061-.047.173-.105.13-.195-.057-.115-.166-.032-.25-.01a.4.4 0 0 0-.149.078q-.371.342-.739.688l.095.114c.305-.224.613-.445.913-.675m-6.019 5.53c-.676.47-1.21 1.101-1.868 1.589a5.04 5.04 0 0 0 1.868-1.59"/><path d="M21.643 8.28c-1.484-3.352-3.809-5.94-7.748-6.257-3.566-.286-6.933 2.13-8.652 3.849s-3.787 4.826-3.484 7.514 2.567 6.685 8.118 8.28c4.003 1.148 8.725-.805 10.532-3.652 1.161-1.83 2.765-6.274 1.234-9.734m-7.871-4.689a3.9 3.9 0 0 1 2.14.749c.191.102.18.243.107.398a2.1 2.1 0 0 1-.543.715 3.2 3.2 0 0 0-.78 1.225c-.03.068-.074.152 0 .21.077.06.157.043.255-.006a5 5 0 0 0 .906-.68c.205-.167.402-.345.608-.513.337-.275.372-.278.743-.038a1.95 1.95 0 0 1 .915 1.71c.004.423-.073.5-.473.607a6 6 0 0 0-1.86.664 3.3 3.3 0 0 1-1.251.349 14 14 0 0 0-1.812.473 2.2 2.2 0 0 1-.728.1c-.207-.002-.38 0-.142-.272-.186-.038-.27.249-.413.064-.127-.164.016-.304.107-.431a5 5 0 0 1 .29-.35 3.2 3.2 0 0 0 .639-1.759 16 16 0 0 1 .63-2.794c.111-.325.307-.396.662-.42Zm-4.997.917a5.1 5.1 0 0 1 1.962-.986 5 5 0 0 1 1.38-.283 3 3 0 0 1 .326.05c.33.086.415.236.286.551a13.3 13.3 0 0 0-.65 2.696A10.7 10.7 0 0 1 11.24 9c-.19.423-.468.433-.725.043a23 23 0 0 0-1.696-2.275 2.55 2.55 0 0 1-.535-1.088 1.19 1.19 0 0 1 .492-1.17Zm-3.778 3.33A5.82 5.82 0 0 1 7.495 5.55c.322-.15.528-.053.666.284a7.3 7.3 0 0 0 1.33 2.058 15 15 0 0 1 1.111 1.503c.125.184.067.283-.165.32a3 3 0 0 1-1.127-.049c-.471-.103-.935-.24-1.404-.35-.683-.157-1.388-.174-2.07-.337a2.5 2.5 0 0 1-.727-.311.36.36 0 0 1-.213-.371.8.8 0 0 1 .1-.46Zm-2.01 4.111a6.2 6.2 0 0 1 .37-1.396 1.98 1.98 0 0 1 1.016-1.202 1.8 1.8 0 0 1 1.21-.167c.847.185 1.726.155 2.574.348.59.135 1.18.276 1.77.414.068.016.132.045.149.115.019.08-.06.108-.106.151a1.58 1.58 0 0 1-1.853.101 1.69 1.69 0 0 0-1.53.073.98.98 0 0 0-.538.903c-.068.129.166.314-.014.443a1.7 1.7 0 0 1-.47.196c-.62.204-1.19.542-1.83.693-.521.123-.808-.127-.748-.672m8.378 4.933a7.1 7.1 0 0 1-2.768.39 1.3 1.3 0 0 1-.28-.046c-.394-.104-.423-.194-.298-.576a6.6 6.6 0 0 1 .771-1.547c.23-.351.296-.77.531-1.159-.176.05-.212.172-.267.269-.376.655-.747 1.313-1.123 1.967-.104.181-.24.346-.328.533a.664.664 0 0 1-.767.397 2.67 2.67 0 0 1-1.732-.739c-.259-.292-.24-.49.073-.732.296-.23.383-.366.39-.632-.174.135-.33.268-.498.384a.77.77 0 0 1-1.206-.188 3.2 3.2 0 0 1-.544-1.024.856.856 0 0 1 .368-1.089 8.3 8.3 0 0 1 1.941-1.046c.89-.324 1.769-.675 2.664-.98.498-.169 1.008-.297 1.489-.515.104-.047.239-.133.335 0 .085.116-.034.207-.083.305-.044.09-.14.15-.148.269.144.029.226-.088.333-.134a.3.3 0 0 1 .296 0c.097.07.063.196.021.29-.19.433-.39.863-.583 1.294-.153.34-.302.68-.482 1.084a.44.44 0 0 0 .27-.317c.273-.718.752-1.341.964-2.087a.18.18 0 0 1 .19-.137c.104-.004.137.086.17.164a8 8 0 0 1 .476 1.604c.163.895.422 1.77.556 2.668.118.797-.068 1.082-.73 1.33m5.055-3.67a1.86 1.86 0 0 1-.449.996 6.9 6.9 0 0 1-3.074 2.063c-.253.092-.369.019-.454-.236a25.5 25.5 0 0 1-.702-3.01 18 18 0 0 0-.442-1.82c-.127-.404-.006-.573.564-.569a3.1 3.1 0 0 1 1.06.5 6.4 6.4 0 0 0 1.08.51 7.2 7.2 0 0 1 2.322 1.256.33.33 0 0 1 .095.31m1.74-2.309a10.4 10.4 0 0 1-.763 1.426 1.5 1.5 0 0 1-.353.404.487.487 0 0 1-.655.03 7.1 7.1 0 0 0-2.524-1.295 19 19 0 0 1-2.02-1.094c-.17-.088-.133-.243.093-.349a4.1 4.1 0 0 1 1.43-.477 11 11 0 0 0 1.817-.44 8 8 0 0 0 1.187-.454 3 3 0 0 1 1.683-.204.36.36 0 0 1 .297.27 2.1 2.1 0 0 1 .124.784 3.45 3.45 0 0 1-.317 1.4Z"/></svg>