<svg xmlns="http://www.w3.org/2000/svg" viewBox="0 0 24 24"><path fill-rule="evenodd" d="M5.9 16.775 7.959 20a1.25 1.25 0 0 0 1.094.667h1.684c0 .353.133.692.37.942S11.665 22 12 22s.656-.14.893-.39.37-.59.37-.943h1.684c.47 0 .876-.268 1.094-.667h.002l2.058-3.225H5.9zm.626-14.108c0-.37.282-.667.632-.667h2.526a.612.612 0 0 1 .447.195c.114.12.185.287.185.472V4c0 .37-.282.667-.632.667h-.21v.444h5.052v-.444h-.21c-.35 0-.632-.298-.632-.667V2.667c0-.37.282-.667.632-.667h2.526a.61.61 0 0 1 .447.195c.114.12.185.287.185.472V4c0 .37-.282.667-.632.667h-1.473v.444h3.368a1.22 1.22 0 0 1 .894.39c.228.24.369.574.369.943v8c0 .707-.521 1.285-1.18 1.33H5.18C4.52 15.73 4 15.152 4 14.445v-8c0-.738.563-1.333 1.263-1.333h3.369v-.444H7.158c-.35 0-.632-.298-.632-.667V2.667m-1.12 4.065a.308.308 0 0 1 .427-.137L12 10.067l6.167-3.472a.308.308 0 0 1 .427.137.343.343 0 0 1-.13.451L12 10.823l-6.464-3.64a.343.343 0 0 1-.13-.451"/></svg>