<svg xmlns="http://www.w3.org/2000/svg" viewBox="0 0 24 24"><path d="M12 2.75c-5.523 0-10 3.54-10 7.904 0 2.822 1.872 5.297 4.688 6.696-.154.53-.985 3.406-1.018 3.632 0 0-.02.17.09.235s.238.013.238.013c.315-.044 3.65-2.39 4.227-2.798q.865.123 1.775.125c5.523 0 10-3.538 10-7.903S17.523 2.75 12 2.75M5.256 8.5h2.892c.306 0 .555.248.555.553a.554.554 0 0 1-.555.552h-.882v3.356a.553.553 0 0 1-.565.539.55.55 0 0 1-.564-.54V9.606h-.881a.556.556 0 0 1-.557-.552c0-.305.251-.553.557-.553zm4.789 0c.369.008.658.288.754.559l1.35 3.552c.171.534.022.733-.133.805a.864.863 0 0 1-.36.076c-.235 0-.414-.096-.469-.25l-.28-.73H9.183l-.282.73c-.054.154-.233.25-.468.25a.9.9 0 0 1-.36-.076c-.155-.072-.306-.27-.135-.803L9.29 9.057c.095-.27.386-.549.754-.557zm3.049 0a.57.57 0 0 1 .576.564v3.319h1.201c.299 0 .543.232.543.517a.53.53 0 0 1-.543.518H13.06a.53.53 0 0 1-.541-.518V9.064a.57.57 0 0 1 .576-.564zm3.103 0c.312 0 .567.253.567.564v1.215l1.576-1.578a.44.44 0 0 1 .312-.125c.141 0 .283.06.389.166a.56.56 0 0 1 .166.36.44.44 0 0 1-.123.343l-1.29 1.287 1.392 1.842a.56.56 0 0 1 .109.418.56.56 0 0 1-.219.373.56.56 0 0 1-.34.114.56.56 0 0 1-.453-.223L16.96 11.5l-.195.195v1.233a.566.566 0 0 1-.567.564.566.565 0 0 1-.564-.564V9.064c0-.311.253-.564.564-.564zm-6.152 1.408-.565 1.604h1.13z" style="fill:#000;fill-opacity:1;stroke-width:1.02686"/></svg>