<svg xmlns="http://www.w3.org/2000/svg" viewBox="0 0 24 24"><path d="M11.146 21.966c-2.754-.346-5.055-2.114-6.052-4.65-.622-1.583-.674-3.35-.147-5.018.405-1.281 2.179-4.222 4.044-6.705C10.062 4.168 11.875 2 11.995 2s1.937 2.173 2.992 3.578c1.906 2.54 3.647 5.426 4.056 6.72.527 1.669.476 3.435-.146 5.017-1.08 2.746-3.654 4.56-6.64 4.679a9 9 0 0 1-1.11-.028zm2.193-.76a5.9 5.9 0 0 0 2.72-1.547c1.049-1.05 1.625-2.359 1.697-3.855.061-1.275-.191-2.18-1.027-3.685-1.099-1.978-2.731-4.238-4.567-6.325l-.228-.26-.656.763c-2.138 2.486-4.25 5.655-4.822 7.234-1.232 3.404.87 7.08 4.434 7.756.626.119 1.844.079 2.45-.08z" opacity=".4"/><path d="M10.89 21.287c-3.564-.676-5.665-4.352-4.434-7.756.572-1.579 2.684-4.748 4.822-7.234l.656-.762.228.259c1.836 2.087 3.468 4.347 4.567 6.325.836 1.504 1.088 2.41 1.027 3.685-.124 2.6-1.866 4.73-4.416 5.402-.606.16-1.824.2-2.45.08zm2.191-.682c1.556-.373 2.785-1.508 3.305-3.053.215-.636.266-1.634.119-2.318-.285-1.324-2.36-4.541-4.21-6.53l-.305-.328-.406.452c-1.93 2.147-3.816 5.097-4.098 6.406-.147.684-.096 1.682.119 2.318.515 1.53 1.743 2.672 3.277 3.05.637.156 1.554.157 2.199.003" opacity=".6"/><path d="M10.882 20.602c-1.535-.377-2.762-1.519-3.277-3.05-.215-.636-.266-1.634-.119-2.318.281-1.308 2.169-4.258 4.098-6.406l.406-.451.304.327c1.852 1.99 3.926 5.207 4.21 6.53.147.684.096 1.682-.118 2.319-.52 1.544-1.75 2.679-3.305 3.052-.646.155-1.562.154-2.199-.003m1.807-.714c1.696-.35 2.815-2.113 2.386-3.76-.228-.874-1.497-2.796-2.796-4.233l-.292-.323-.606.708c-1.052 1.23-2.08 2.773-2.387 3.583-.154.409-.208 1.164-.114 1.616.235 1.128 1.197 2.114 2.331 2.39.393.094 1.071.103 1.478.02z" opacity=".8"/><path d="M11.211 19.868c-1.134-.275-2.097-1.261-2.331-2.389-.094-.452-.04-1.207.114-1.616.307-.81 1.334-2.353 2.387-3.583l.605-.708.292.323c1.3 1.437 2.569 3.358 2.796 4.232.43 1.647-.689 3.41-2.385 3.761-.407.084-1.086.075-1.478-.02"/></svg>