<svg xmlns="http://www.w3.org/2000/svg" width="32" height="32" version="1.0" viewBox="0 0 24 24"><path d="M0 7593.735v-46.265h40.41c44.494 0 42 .144 42-2.169 0-.759-.326-1.229-1.157-1.843-1.554-1.048-2.096-1.735-2.096-2.639 0-.434 1.698-7.193 3.831-15.036l3.831-14.277-2.494-9.759-2.458-9.76-4.41-.107c-3.939-.073-4.409-.037-4.59.542-.072.361-1.987 7.337-4.228 15.47-2.205 8.168-4.085 14.891-4.157 14.963-.072.072-.145-15.144-.145-33.867v-34.048H240V7640H0Zm57.47 18.072c1.988-1.048 1.482-3.18-.904-3.976-.686-.217-1.446-.723-1.626-1.084-.47-.904-.506-43.554 0-44.422.18-.361.976-.94 1.77-1.265 2.35-.903 2.712-2.783.76-3.831-.398-.217-4.988-.362-12-.362-12.217 0-12.94.109-12.94 1.916 0 1.157.398 1.59 1.843 2.205.723.29 1.482.759 1.7 1.048.325.398.433 6.072.36 22.699l-.108 22.193-1.77.903c-.977.506-1.844 1.12-1.953 1.374-.289.867.326 2.277 1.12 2.602 1.158.47 22.917.47 23.748 0m25.988-.108c.47-.217.976-.76 1.12-1.157.506-1.41-.253-2.313-3.036-3.578-3.253-1.482-5.313-3.325-8.53-7.554l-2.422-3.217 6.47-16.844c5.241-13.734 6.615-17.024 7.446-17.674 2.892-2.314 3.108-2.856 1.88-4.085-.687-.686-1.193-.722-12.47-.722-11.277 0-11.783.036-12.47.722-.904.904-.94 1.988-.036 2.747.361.326 1.084.976 1.59 1.41l.94.831-3.109 9.326c-1.988 6.072-3.108 9.94-3.108 11.024-.036 1.59.217 2.06 5.422 9.433 6.325 8.964 6.614 9.507 6.614 11.567 0 1.952-.65 2.891-2.638 3.831-.868.398-1.772.976-2.025 1.301-.65.795-.216 2.35.796 2.747 1.265.506 16.554.434 17.566-.108zm45.578.325c0-.47 11.241-47.602 11.639-48.831.361-1.085.831-1.627 1.988-2.277 1.951-1.048 2.421-2.422 1.192-3.398-.722-.614-1.698-.65-12.072-.65-12.18 0-12.94.108-13.156 1.879-.073.687.144 1.12.83 1.627 2.712 1.843 2.82 2.385 1.519 7.518l-.831 3.253-5.494.108c-4.12.072-5.422.217-5.314.542.073.217.326 1.12.543 1.988l.397 1.518h4.482c2.494 0 4.518.109 4.518.217 0 .325-6.036 26.747-6.867 30.109-.362 1.445-.615 2.819-.543 3.072.073.217.326 1.084.543 1.952l.397 1.518h8.097c4.482 0 8.132-.072 8.132-.145zm48.434-24.723c0-23.277.036-24.94.65-25.446.326-.325 1.013-.686 1.519-.83 1.373-.398 1.807-.904 1.807-2.025 0-2.06-.434-2.132-13.012-2.132-12.579 0-13.012.072-13.012 2.132 0 1.157.47 1.663 1.88 2.024 2.204.578 2.096-.614 2.023 23.71l-.108 22.194-1.807.94c-1.627.83-1.808 1.048-1.808 2.132 0 2.06.506 2.169 11.856 2.169h10.012zm14.71 24c5.965-1.626 9.543-5.205 10.627-10.626 1.482-7.7-2.71-13.807-10.988-16.048-.94-.217-1.699-.543-1.699-.651 0-.145 1.157-.434 2.567-.687 3.795-.687 7.373-2.602 8.674-4.662 1.519-2.422 1.772-3.651 1.772-9.037 0-5.53.253-5.964 2.349-4.084.723.615 1.446 1.12 1.663 1.12.506 0 2.132-1.698 2.132-2.204 0-1.085-1.626-3.65-3.289-5.205-2.458-2.313-4.554-3.18-8.133-3.362-3.867-.216-6.325.506-8.602 2.494-3.072 2.711-3.795 5.386-3.831 14.024 0 5.928-.579 7.555-2.892 8.495-1.446.578-1.446.578-1.446 2.53 0 1.915.036 1.987 1.23 2.385.65.217 1.59.795 2.06 1.301.867.904.867 1.048.975 8.964.109 7.88.109 8.024-.722 9.253-.47.687-1.446 1.59-2.205 1.988-1.302.723-1.338.76-1.338 2.856v2.132l4.627-.217c2.53-.144 5.458-.47 6.47-.759zm-80.493-17.71c0-.362-1.627-6.579-3.615-13.808-1.988-7.229-3.614-13.843-3.614-14.71 0-1.952.687-2.928 2.928-4.049 2.168-1.12 2.71-2.458 1.41-3.506-.724-.578-1.519-.65-7.194-.65-7.229 0-8.096.216-8.277 2.06-.108 1.084.036 1.229 1.88 2.096 2.35 1.12 3.94 2.892 4.88 5.422.397 1.012 2.674 9.072 5.096 17.891 2.385 8.856 4.482 16.338 4.59 16.627.18.542 1.88-6 1.916-7.374zm-12.795-46.519c.108-.217 2.385-8.53 4.988-18.506l4.77-18.144-2.277-8.856c-1.228-4.88-2.277-9-2.277-9.144 0-.145-1.988-.217-4.373-.181l-4.41.108-1.915 7.049c-1.049 3.867-3.181 11.819-4.771 17.674l-2.892 10.627 2.494 9.723c1.373 5.313 2.494 9.795 2.494 9.867 0 .398 7.916.18 8.169-.217m22.662-.289c1.012-.831.76-2.169-.542-2.855-1.807-.976-3.904-2.964-4.626-4.446-.398-.723-1.88-6-3.29-11.675-1.445-5.71-2.71-10.156-2.855-9.903-.145.253-.614 1.951-1.084 3.723l-.796 3.252 1.663 6.868c.904 3.795 1.663 7.229 1.663 7.663 0 1.41-.723 2.421-2.639 3.723-1.915 1.337-2.494 2.457-1.699 3.433.615.76 1.482.832 7.808.795 4.337-.072 5.963-.216 6.397-.578zm26.928-27.036.072-27.578h-10.229c-11.35 0-11.819.072-11.819 2.205 0 .903.217 1.156 1.374 1.662 2.819 1.157 2.602-.94 2.602 23.566 0 12.29-.145 22.12-.325 22.41-.181.29-1.049.868-1.916 1.265-1.301.65-1.59.94-1.663 1.952-.217 2.06.76 2.24 12.036 2.132l9.76-.072zm19.952 19.843c0-5.638-.109-7.988-.434-8.313-.253-.253-.976-.434-1.663-.434-1.084 0-1.265.145-1.915 1.735-2.603 6.29-5.928 9.434-10.952 10.374l-1.301.253v4.265h16.265zm38.35 6.904c1.192-1.193.686-2.494-1.302-3.361-1.084-.47-1.771-1.013-1.988-1.627-.47-1.229-.506-42.434-.036-43.663.18-.47.867-1.084 1.554-1.337 2.494-.976 3.109-2.24 1.735-3.614-.687-.687-1.193-.723-12.47-.723-11.277 0-11.783.036-12.47.723-.397.397-.723.94-.723 1.192 0 .868 1.085 1.988 2.17 2.241 2.24.506 2.168-.325 2.168 23.241 0 14.747-.109 21.687-.398 22.193-.217.398-1.084 1.048-1.952 1.41-.867.397-1.698 1.012-1.807 1.41-.29.903.362 2.132 1.374 2.53.433.18 5.891.289 12.072.252 11.024-.072 11.313-.072 12.072-.867zm-46.013-15.361c.325-.326.434-3.217.434-10.844v-10.41l-.904-.433c-1.373-.615-2.421.289-3.217 2.82-.759 2.53-2.024 4.3-3.686 5.276-1.157.687-1.23.831-1.23 2.783 0 1.988.037 2.133 1.338 2.964 1.663 1.048 2.747 2.675 3.578 5.133.326 1.048.832 2.168 1.157 2.53.614.723 1.916.795 2.53.18m7.59-22.41c.326-.325.434-2.711.434-8.494v-8.06H152.17v3.903l1.662.398c4.374 1.12 7.952 4.265 10.265 9 .832 1.735 1.735 3.253 1.952 3.397.615.434 1.844.326 2.313-.144z" style="stroke-width:.0361446" transform="matrix(.08333 0 0 -.08333 2 640.956)"/></svg>