<svg xmlns="http://www.w3.org/2000/svg" viewBox="0 0 192 192"><path d="M130.28 31.141a132.01 132.01 0 0 0-57.707 12.297 132.01 132.01 0 0 0-56.571 50.403v9.569a127.21 127.21 0 0 1 58.571-55.651 127.21 127.21 0 0 1 101.43-2.513v-5.12a132.01 132.01 0 0 0-45.73-8.984zm-1.688 36.986a94.925 94.925 0 0 0-95.205 92.749h4.752A90.117 90.117 0 0 1 176 86.568v-5.544a95.205 95.205 0 0 0-47.418-12.897zm.72 34.37a60.563 60.563 0 0 0-49.818 24.641 60.483 60.483 0 0 0-11.721 33.738h4.752a55.763 55.763 0 0 1 103.48-26.617v-8.4a60.483 60.483 0 0 0-46.698-23.361zm-1.064 36.682c-12.241 0-22.401 9.464-23.257 21.681h46.522a23.313 23.313 0 0 0-23.265-21.681"/></svg>