<svg xmlns="http://www.w3.org/2000/svg" viewBox="0 0 24 24"><path d="M16.285 3.893A16.48 16.48 0 0 0 9.072 5.43a16.48 16.48 0 0 0-7.071 6.3v1.196A15.886 15.886 0 0 1 9.322 5.97a15.888 15.888 0 0 1 12.678-.314v-.64a16.48 16.48 0 0 0-5.716-1.123zm-.211 4.623a11.865 11.865 0 0 0-11.9 11.593h.594A11.264 11.264 0 0 1 22 10.821v-.693a11.89 11.89 0 0 0-5.927-1.612zm.09 4.296a7.57 7.57 0 0 0-6.227 3.08 7.556 7.556 0 0 0-1.465 4.217h.594A6.97 6.97 0 0 1 22 16.782v-1.05a7.56 7.56 0 0 0-5.837-2.92zm-.133 4.585c-1.53 0-2.8 1.183-2.907 2.71h5.815a2.914 2.914 0 0 0-2.908-2.71"/></svg>