<svg xmlns="http://www.w3.org/2000/svg" style="-ms-transform:rotate(360deg);-webkit-transform:rotate(360deg)" viewBox="0 0 192 192"><path d="m108.54 16-26.607 2.547v109.566l26.327-3.96V77.44l35.387 51.813 27.746-8.78-36.24-49.833 36.527-47-28.313-6.507-35.1 47zM48.227 42.7a1.35 1.35 0 0 0-.82.393l-10.44 10.44a1.35 1.35 0 0 0-.2 1.654l12.226 20.146a52.3 52.3 0 0 0-5.146 11.727L21.4 91.727a1.35 1.35 0 0 0-1.08 1.326v14.767c0 .62.427 1.16 1.033 1.307l21.787 5.333a52.2 52.2 0 0 0 5.34 13.533L35.867 147.22a1.35 1.35 0 0 0 .18 1.693l10.44 10.447a1.36 1.36 0 0 0 1.66.2l19.76-12c3.88 2.24 8.066 4 12.493 5.2l4.613 22.167a1.35 1.35 0 0 0 1.32 1.073H101.1a1.35 1.35 0 0 0 1.313-1.033l5.434-22.214a52 52 0 0 0 12.846-5.406l19.48 12.766c.534.354 1.24.28 1.694-.173l10.446-10.44a1.35 1.35 0 0 0 .2-1.653l-7.113-11.72-2.3.733a.8.8 0 0 1-.9-.313l-10.393-15.214a42.313 42.313 0 1 1-55.034-57.826v-10.92a52 52 0 0 0-7.726 3.406l-.007-.013-19.933-13.067a1.35 1.35 0 0 0-.88-.22z"/></svg>