<svg xmlns="http://www.w3.org/2000/svg" viewBox="0 0 24 24"><path d="M9.114 9.495a.962.962 0 1 0 0-1.923.962.962 0 0 0 0 1.923M2.381 11.42H21.62v1.924H2.381zm8.273 2.886H2.381v1.924h7.516a2.117 2.117 0 0 1 .758-1.924m2.69 0a2.117 2.117 0 0 1 .758 1.924h7.516v-1.924zm-3.063 2.886h-7.9v1.923H9.34l.954-1.907zm4.378 1.923-.954-1.907.012-.016h7.901v1.923zm-12.28.962h19.24V22H2.38zM15.848 8.533a.962.962 0 1 1-1.924 0 .962.962 0 0 1 1.924 0m-3.328 8.45a1.16 1.16 0 1 0-1.04 0l-1.027 2.055h3.094zM6.568 2.14a.481.481 0 0 0 0 .68l1.667 1.667C5.648 5.6 3.78 7.822 3.41 10.458h1.953C5.887 7.864 8.49 5.647 12 5.647s6.112 2.217 6.637 4.81h1.953c-.385-2.743-2.394-5.038-5.144-6.1l1.539-1.538a.481.481 0 0 0-.68-.68l-1.889 1.888A9.673 9.673 0 0 0 12 3.724c-.968 0-1.898.141-2.766.401L7.248 2.141a.481.481 0 0 0-.68 0"/></svg>