<svg xmlns="http://www.w3.org/2000/svg" viewBox="0 0 24 24"><path d="M10.704 19.81a.794.794 0 1 1-.796-.795c.437 0 .793.358.793.796m4.935-.001a.794.794 0 1 1-.798-.795c.438 0 .795.358.795.796m3.787-7.633-.13-.17q-.058-.074-.12-.146c-.037-.05-.078-.094-.117-.141q-.13-.15-.266-.3l-.063-.066-.076-.082-.112-.109q-.02-.023-.042-.045a9.06 9.06 0 0 0-3.296-2.087l-.191-.065.029-.069a3.42 3.42 0 0 0-.1-2.712 3.43 3.43 0 0 0-2.032-1.8q-.822-.271-1.427-.254c-.027-.088-.083-.481.414-1.54L10.885 2l-.24.332c-.274.38-.54.746-.787 1.107a1.55 1.55 0 0 0-1.037-.483l-1.163-.072h-.01q-.042-.002-.087-.002a1.56 1.56 0 0 0-1.558 1.462L5.93 5.512v.003a1.563 1.563 0 0 0 1.462 1.65l.835.05c-.054.7.061 1.35.338 1.922a9.4 9.4 0 0 0-3.05 2.07C2.76 13.993 2.76 17.043 2.76 19.496v1.48l1.087-1.157c.222.775.544 1.506.955 2.18h1.415a7.7 7.7 0 0 1-1.4-3.207L6.41 17.1l-.821 2.575 1.45-1.056c2.562-1.861 5.62-2.291 9.092-1.275 1.505.444 2.966.034 3.728-1.046l.087-.138q.114.624.116 1.247c0 1.302-.211 3.072-1.15 4.593h1.344c.646-1.302.984-2.86.984-4.593-.001-1.834-.655-3.684-1.82-5.229M9.412 7.16c.102-.835.48-1.624 1.025-2.475a1.13 1.13 0 0 0 1.069.624c.18-.006.503.021 1.028.194a2.26 2.26 0 0 1 1.34 1.187c.268.568.29 1.202.065 1.792a2.24 2.24 0 0 1-.671.923l-.34-.418-.002-.003a1.223 1.223 0 0 0-1.717-.17c-.278.224-.428.55-.445.881-1-.45-1.5-1.37-1.356-2.533zm3.587 4.258-.434.354a.19.19 0 0 1-.269-.026l-.092-.113a.2.2 0 0 1 .029-.278l.425-.35-.88-1.083a.256.256 0 0 1 .036-.363.253.253 0 0 1 .363.034l2.47 3.039a.258.258 0 0 1-.14.415.26.26 0 0 1-.26-.086l-.245-.304-.87.711a.2.2 0 0 1-.13.046.2.2 0 0 1-.154-.075l-.398-.483a.2.2 0 0 1 .03-.28l.874-.714-.354-.445zM8.46 6.055l-.996-.062a.386.386 0 0 1-.363-.407l.075-1.167a.385.385 0 0 1 .384-.364h.02l1.168.076a.383.383 0 0 1 .36.406l-.005.085a7.7 7.7 0 0 0-.644 1.433zm10.438 9.568c-.47.671-1.406.9-2.436.599-3.239-.951-6.165-.753-8.725.583l1.364-4.268-4.409 4.674a7.7 7.7 0 0 1 4.798-6.927c.392.311.862.55 1.394.701.133.037.268.062.4.085a1.18 1.18 0 0 0 .175 1.173l.063.075c-.144.375-.088.813.184 1.145l.396.485a1.16 1.16 0 0 0 .9.428c.266 0 .529-.093.738-.262l.237-.193c.145.061.306.094.472.094a1.2 1.2 0 0 0 .773-.272c.52-.425.6-1.195.175-1.716l-1.392-1.715a3.4 3.4 0 0 0 .34-.316q.17.045.333.1c.222.08.444.164.663.261a8 8 0 0 1 2.308 1.581q.038.036.072.07l.141.146a8 8 0 0 1 .292.322l.105.126q.055.064.108.133l.095.125q.05.063.098.128c.698.958.822 1.941.336 2.631v.004zM8.432 5.43l-.696-.041.045-.697.695.042z"/></svg>