<svg xmlns="http://www.w3.org/2000/svg" viewBox="0 0 24 24"><path d="M12 2C8.132 2 4.979 5.154 4.979 9.021v1.293a1.7 1.7 0 0 0-.851 1.473v3.972a6 6 0 0 0 .072.95 6.2 6.2 0 0 0 .68 2.024 6.27 6.27 0 0 0 3.928 3.07 6 6 0 0 0 .61.125 6 6 0 0 0 .95.072h3.264a6.24 6.24 0 0 0 6.24-6.24v-3.973l-.001-.085a1.7 1.7 0 0 0-.85-1.387V9.021c0-3.868-3.153-7.021-7.02-7.021zm0 2.553a4.43 4.43 0 0 1 4.468 4.468v1.064H7.532V9.021A4.43 4.43 0 0 1 12 4.553m0 8.085c1.293 0 2.34 1 2.34 2.234 0 .891-.546 1.66-1.337 2.02v1.491a.64.64 0 0 1-.638.638h-.73a.64.64 0 0 1-.638-.638v-1.492c-.79-.358-1.338-1.128-1.338-2.019 0-1.233 1.048-2.234 2.34-2.234z"/></svg>