<svg xmlns="http://www.w3.org/2000/svg" width="24" height="24"><path d="M20.245 8.858c-3.49.001-4.375 1.971-4.517 3.309-.162 1.501.877 2.975 3.44 2.975 1.077 0 1.782-.188 2.032-.267a.18.18 0 0 0 .123-.138l.144-.759a.153.153 0 0 0-.197-.175 4.69 4.69 0 0 1-1.404.21c-1.224 0-2.108-.735-1.996-2 .109-1.225.935-2.158 2.071-2.158.684 0 .986.358.964.836v.027a.153.153 0 0 0 .151.161h.464c.072 0 .134-.05.15-.119l.325-1.467a.18.18 0 0 0-.125-.212 6.008 6.008 0 0 0-1.625-.222Zm-16.798.097a.167.167 0 0 0-.162.13l-.09.403a.165.165 0 0 0 .108.192l.027.008c.174.069.375.222.29.624l-.66 3.016c-.172.823-.451.992-.716 1.022h-.009a.167.167 0 0 0-.146.13l-.085.388a.16.16 0 0 0 .156.194h2.905c.071 0 .133-.05.148-.119l.1-.452a.153.153 0 0 0-.093-.175l-.019-.008c-.147-.059-.348-.187-.296-.425l.337-1.542c1.158 2.112 1.54 2.722 2.928 2.72h1.255a.15.15 0 0 0 .148-.118l.087-.391a.163.163 0 0 0-.155-.199c-.313-.005-.466-.077-.779-.479l-1.61-2.178 2.092-1.74c.28-.22.623-.282.813-.307l.019-.002a.154.154 0 0 0 .135-.12l.086-.386a.153.153 0 0 0-.15-.186H7.595a.166.166 0 0 0-.161.13l-.085.382a.167.167 0 0 0 .115.196c.148.058.18.2.052.305L5.372 11.75l.367-1.678a.57.57 0 0 1 .397-.406l.021-.007a.166.166 0 0 0 .113-.122l.088-.398a.15.15 0 0 0-.148-.183Zm7.4 0a.167.167 0 0 0-.162.13l-.089.402a.158.158 0 0 0 .102.185l.017.006c.17.064.405.229.303.632l-1.008 4.567a.152.152 0 0 0 .148.185h2.314c.072 0 .133-.05.15-.12l.1-.455a.145.145 0 0 0-.082-.164 1.298 1.298 0 0 1-.023-.01c-.147-.072-.365-.238-.292-.559l.225-1.033h1.969c.071 0 .133-.05.15-.12l.184-.833a.153.153 0 0 0-.15-.186h-1.9l.356-1.617 1.326-.003c.43 0 .56.225.535.607l-.001.02a.153.153 0 0 0 .152.171h.49c.071 0 .133-.05.148-.12l.333-1.5a.153.153 0 0 0-.15-.185z"/></svg>