<svg xmlns="http://www.w3.org/2000/svg" width="24" height="24" viewBox="0 0 24 24"><path d="M11.805 2.016a1.3 1.3 0 0 0-.37.117l-7.654 4.36c-.402.202-.564.527-.564.972v9.07c0 .445.162.73.564.973l7.655 4.36a1.27 1.27 0 0 0 1.128 0l7.655-4.36c.405-.243.564-.528.564-.973v-9.07c0-.526-.244-.81-.564-.973l-7.655-4.36a1.27 1.27 0 0 0-.76-.116M12 6.273a2.16 2.16 0 0 1 1.53.633 2.16 2.16 0 0 1 0 3.059 2.16 2.16 0 0 1-3.06 0 2.16 2.16 0 0 1 0-3.059A2.16 2.16 0 0 1 12 6.273M5.28 10.16c3.638.02 6.585 3.068 6.585 6.83v.16h.281v-.16c0-3.762 2.942-6.81 6.575-6.83a7 7 0 0 1 .035.719c0 2.942-1.803 5.45-4.324 6.412a7 7 0 0 1-2.432.436 6.9 6.9 0 0 1-2.432-.436c-2.523-.962-4.324-3.47-4.324-6.412a7 7 0 0 1 .035-.719" style="stroke-width:.13513"/></svg>