<svg xmlns="http://www.w3.org/2000/svg" viewBox="0 0 24 24"><path d="M9.445 2a1 1 0 0 0-.195.026c-.103.024-.27.046-.373.047-.264.003-.53.139-.852.433a4 4 0 0 1-.399.335c-.296.194-.704 1.042-.824 1.71-.041.23-.037.433.02.96.044.413.055.709.03.775-.05.13-.022.164.13.164.094 0 .104.011.058.068-.08.095-.02.165.14.165.163 0 .166.017.042.249-.067.125-.081.195-.048.235.027.033-.087.012-.265-.05-.484-.164-.488-.163-.69.254-.157.325-.21.387-.524.616-.496.362-.746.626-1.116 1.18-.754 1.128-.953 1.634-1.176 2.99-.088.533-.097.722-.074 1.65.015.62.065 1.351.12 1.793.19 1.488.199 1.596.145 1.944q-.051.328-.005.376c.054.054.504.064.772.017l.186-.033-.175.094c-.096.052-.174.117-.174.143 0 .073.302.528.485.731l.164.182c.787.819 1.884 1.32 3.42.704l.5-.392c-.036-.01.122-.136.349-.279.53-.332.794-.532 1.45-1.099.294-.253.663-.525.82-.604a6 6 0 0 0 .94-.607c.094-.082.098-.08.207.115.061.109.198.292.304.407.417.454.58.7.58.874 0 .118.058.256.193.464.31.476.49.57.728.383.144-.113.075-.176.731.676l.5.65-.027.235c-.476 1.54 1.326.994 2.216 1.147.86.096 1.62.393 2.496.218l.138-.084c.171-.105.282-.268.29-.4.01-.173-.198-.14-.417-.055-.08.032-.088-.023-.242-.058-.052-.011-.117.003-.177-.016-.402-.125-.874-.439-1.255-.67-.668-.405-1.075-.678-1.377-.923-.287-.234-.726-.861-.985-1.406-.226-.474-.231-.48-.382-.426-.103.037-.09.016.073-.123.109-.092.198-.195.198-.229 0-.033-.096-.252-.212-.485-.149-.296-.252-.444-.342-.491q-.13-.068-.213-.291a1.5 1.5 0 0 0-.14-.294 6 6 0 0 1-.28-.488 9 9 0 0 0-.36-.622 3 3 0 0 1-.245-.47c-.115-.293-.425-.846-.5-.894-.027-.016.043-.11.156-.21.112-.098.342-.31.51-.47.242-.23.398-.331.74-.477a7 7 0 0 0 .626-.299c.275-.16.595-.519.579-.647-.007-.056.034-.199.091-.317a.9.9 0 0 0 .099-.35c-.003-.073.048-.237.115-.363a1.2 1.2 0 0 0 .122-.302c0-.04.397-.534.88-1.095.484-.562.87-1.046.858-1.076-.024-.063-.569-.114-1.213-.115h-.43l-1.235 1.476c-.68.811-1.236 1.503-1.236 1.536 0 .038.057.061.145.061.155 0 .16.038.043.345-.105.276-.813.717-1.953 1.215l-.81.354-.18-.176c-.162-.157-.19-.17-.277-.115-.142.088-.152.04-.018-.086.064-.06.117-.15.117-.197 0-.188-.238-.502-.38-.502-.052 0-.11-.06-.15-.155a.7.7 0 0 0-.175-.244.7.7 0 0 1-.164-.206 2.7 2.7 0 0 0-.293-.396c-.246-.287-.87-1.455-.987-1.844a1.1 1.1 0 0 0-.254-.398c-.193-.193-.193-.193-.1-.286.092-.093.093-.093.424.084.799.423 1.294.418 1.397-.004.02-.082.063-.201.168-.22.088-.014.146-.094.14-.112-.04-.14.048-.097.114-.14.077-.049.097-.148.129-.269.038-.145.029-.165.197-.192.179-.028.325-.154.29-.25-.182-.493-.134-.903.14-1.211.093-.103.144-.14.115-.085q-.111.214.024.103c.068-.057.073-.052.041.046-.056.178.054.075.209-.196.076-.132.14-.21.142-.17.007.128.083-.11.09-.28.005-.13.014-.145.043-.07.033.082.041.075.07-.054.043-.196-.045-.664-.186-.982-.122-.276-.457-.769-.625-.92a3 3 0 0 1-.302-.4c-.222-.342-.4-.474-.773-.572-.139-.036-.247-.09-.24-.117.016-.074-.222-.063-.374.016-.12.062-.142.059-.29-.041A.96.96 0 0 0 9.445 2m-.243 11.236c.06.011.122.047.14.102.014.043.131.188.262.32.232.238.386.299.49.194.048-.047.204-.016.203.042 0 .016-.079.074-.174.127-.096.054-.31.18-.477.282s-.4.24-.52.31c-.328.188-.346.13-.2-.625.065-.343.129-.657.14-.698.015-.049.075-.064.136-.054"/></svg>