<svg xmlns="http://www.w3.org/2000/svg" viewBox="0 0 24 24"><g data-name="Layer 2"><path d="M9.69 8.6a4.1 4.1 0 0 0-2.07-.18 4.93 4.93 0 0 0-2.79 1.43 2 2 0 0 0-.19.22 4.4 4.4 0 0 0-.89 1.74A4.6 4.6 0 0 0 4 14.76a5 5 0 0 0 .53.92 6 6 0 0 0 .51.59 1.9 1.9 0 0 1 .18.72 18 18 0 0 1-.33 2l-.07-.08a8 8 0 0 1-.56-.63q-.27-.33-.51-.69a9.6 9.6 0 0 1-.92-1.7 4 4 0 0 1-.18-.45c-.06-.15-.11-.31-.16-.47a8 8 0 0 1-.22-.85c0-.1 0-.19-.06-.29s-.08-.49-.11-.74A10 10 0 0 1 2 12a10 10 0 1 1 19.54 3c-.1.3-.21.59-.33.88a6 6 0 0 1-.3.63 1.6 1.6 0 0 1-.15.29A9 9 0 0 1 20 18l-.3.38-.32.36c-.11.12-.22.24-.34.35a8.46 8.46 0 0 0-5-6.22l-.63-.2a1.06 1.06 0 0 1-.64-.57.94.94 0 0 1 0-.73.7.7 0 0 1 .24-.31c1.19-1 1-1.17 4.69-2.82 1-.45 1.82-.54 1.82-.74a11.05 11.05 0 0 0-6.33 1.23 3 3 0 0 1-1.87.58 2.3 2.3 0 0 1-1-.42 4 4 0 0 0-.63-.29"/><path d="M9.79 11.4a.6.6 0 0 1-1.2 0 .6.6 0 0 1 1.2 0"/></g></svg>