<svg xmlns="http://www.w3.org/2000/svg" viewBox="0 0 24 24"><path d="M16.199 22c-2.681 0-3.993-1.871-4.26-2.258C11.15 20.521 9.955 22 7.803 22c-2.485 0-4.58-1.878-4.58-4.923V6.923C3.222 3.87 5.32 2 7.802 2c2.481 0 4.58 1.987 4.58 4.877a4.548 4.548 0 0 1 1.527-.262c2.556 0 4.58 2.096 4.58 4.615 0 .707-.134 1.335-.426 1.936a4.617 4.617 0 0 1 2.716 4.219c0 2.544-2.055 4.615-4.58 4.615zM7.801 3.538h.001c-1.52 0-3.053 1.048-3.053 3.386v10.154c0 2.337 1.533 3.384 3.053 3.384 1.207 0 1.874-.614 2.95-1.698l.475-.48a7.706 7.706 0 0 1-.372-2.438V6.923c0-2.338-1.533-3.385-3.054-3.385zm6.108 4.617c-.545 0-1.066.14-1.527.41v7.282c0 .412.034.804.1 1.174l3.318-3.344c.964-.972 1.162-1.68 1.162-2.446 0-1.634-1.303-3.076-3.053-3.076zm3.256 6.31-4.118 4.162c.659 1.153 1.767 1.835 3.152 1.835 1.683 0 3.054-1.38 3.054-3.077 0-1.342-.857-2.51-2.088-2.92zm-4.118 4.162z"/></svg>