<svg xmlns="http://www.w3.org/2000/svg" width="192" height="192" viewBox="0 0 192 192"><path d="M91.908 21.384 69.662 43.606c-1.983 1.712-2.605 3.741-2.567 6.34l.059 54.914c.001.696.017 1.423.192 2.09.565 2.16 1.944 2.523 3.5.964l53.757-53.806c2.763-2.768 2.766-5.81.003-8.574l-24.134-24.15c-1.664-1.664-3.175-2.087-4.451-2.088-1.277 0-2.722.697-4.113 2.088zm46.459 46.286c-8.09 8.095-16.179 16.192-24.267 24.291-2.746 2.75-2.747 5.746-.008 8.488 8.042 8.053 16.087 16.104 24.131 24.155 2.82 2.822 5.821 2.831 8.63.019 7.796-7.802 15.582-15.612 23.394-23.396 1.165-1.16 2.256-2.34 2.753-3.951v-2.117c-.493-1.613-1.579-2.8-2.746-3.962-7.856-7.83-15.688-15.685-23.532-23.53-1.316-1.316-2.746-1.976-4.177-1.976-1.687.011-2.967.905-4.178 1.979zM20.347 93.252c-1.8 1.823-1.796 4.34.013 6.15l24.461 24.502c1.08 1.077 2.111.898 2.66-.533.28-.724.405-1.553.408-2.335l.002-49.527c0-.54-.058-1.083-.135-1.619-.123-.866-.467-1.644-1.332-1.97-.88-.222-1.341.335-1.935.924 0 0-16.097 16.27-24.142 24.408zm72.005 20.473c-8.07 8.073-16.134 16.146-24.201 24.219-2.784 2.788-2.781 5.763.008 8.558 7.794 7.803 15.595 15.598 23.372 23.415 1.156 1.164 2.319 2.275 3.922 2.785h2.12c1.563-.442 2.718-1.46 3.842-2.586 7.842-7.886 15.717-15.749 23.577-23.617 2.759-2.762 2.751-5.8-.019-8.576a72716.641 72716.641 0 0 0-24.201-24.219c-1.588-1.59-3.085-1.997-4.362-1.995-1.277.002-2.717.674-4.058 2.016z"/></svg>