<svg xmlns="http://www.w3.org/2000/svg" xml:space="preserve" width="24" height="24" viewBox="-153 -46 24 24"><path d="M-141-44a10 10 0 0 0-10 10 10 10 0 0 0 10 10 10 10 0 0 0 10-10 10 10 0 0 0-10-10m.015 1.243A8.756 8.756 0 0 1-132.228-34c0 2.041-.695 3.92-1.879 5.414l-4.482-4.482c.119-.296.178-.607.178-.947a2.576 2.576 0 0 0-2.574-2.574 2.576 2.576 0 0 0-2.574 2.574c0 .34.059.651.177.947l-4.482 4.482A8.736 8.736 0 0 1-149.743-34a8.756 8.756 0 0 1 8.758-8.757m-.015 8.091s1.627 2.663 1.672 2.619l4.393 4.378c-1.583 1.494-3.698 2.426-6.05 2.426a8.684 8.684 0 0 1-6.05-2.426l4.378-4.378c.045.03 1.657-2.619 1.657-2.619" style="display:inline;fill:#000;fill-opacity:1;stroke-width:.147928"/></svg>