<svg version="1.1" viewBox="0 0 24 24" xmlns="http://www.w3.org/2000/svg"><path d="m8.671 12 5.8196 5.9226 3.6728-3.7378a1.6399 1.6399 0 0 1 2.3499 0c0.64796 0.65996 0.64796 1.7309 0 2.3909l-4.8477 4.9327a1.6499 1.6499 0 0 1-2.3499 0l-6.9926-7.1166v4.2307c0 0.92994-0.74895 1.6909-1.6619 1.6909-0.91694 0-1.6609-0.75695-1.6609-1.6899v-13.246c0-0.93394 0.74395-1.6909 1.6609-1.6909 0.91794 0 1.6619 0.75695 1.6619 1.6899v4.2317l6.9926-7.1166a1.6499 1.6499 0 0 1 2.3499 0l4.8467 4.9327c0.64996 0.65996 0.64996 1.7299 0 2.3899-0.64796 0.65996-1.6999 0.65996-2.3499 0l-3.6718-3.7368zm5.8216-1.6919c0.91794 0 1.6629 0.75695 1.6629 1.6919 0 0.93494-0.74496 1.6919-1.6629 1.6919-0.91794 0-1.6629-0.75795-1.6629-1.6919 0-0.93494 0.74495-1.6919 1.6629-1.6919"/></svg>
