<svg xmlns="http://www.w3.org/2000/svg" viewBox="0 0 24 24"><path d="m8.671 12 5.82 5.923 3.672-3.738a1.64 1.64 0 0 1 2.35 0c.648.66.648 1.73 0 2.39l-4.847 4.933a1.65 1.65 0 0 1-2.35 0l-6.993-7.116v4.23c0 .93-.749 1.691-1.662 1.691-.917 0-1.66-.757-1.66-1.69V5.377c0-.933.743-1.69 1.66-1.69.918 0 1.662.757 1.662 1.69v4.231l6.993-7.116a1.65 1.65 0 0 1 2.35 0l4.846 4.932c.65.66.65 1.73 0 2.39-.648.66-1.7.66-2.35 0l-3.671-3.737zm5.822-1.692c.918 0 1.662.757 1.662 1.692 0 .935-.744 1.692-1.662 1.692-.918 0-1.663-.758-1.663-1.692 0-.935.745-1.692 1.663-1.692"/></svg>