<svg xmlns="http://www.w3.org/2000/svg" xml:space="preserve" width="24" height="24"><path d="m8.671 12 5.82 5.923 3.673-3.738a1.64 1.64 0 0 1 2.35 0c.648.66.648 1.731 0 2.391l-4.848 4.933a1.65 1.65 0 0 1-2.35 0l-6.993-7.117v4.231c0 .93-.749 1.691-1.662 1.691-.917 0-1.661-.757-1.661-1.69V5.377c0-.934.744-1.691 1.661-1.691.918 0 1.662.757 1.662 1.69v4.232l6.993-7.117a1.65 1.65 0 0 1 2.35 0l4.847 4.933c.65.66.65 1.73 0 2.39-.648.66-1.7.66-2.35 0l-3.672-3.737zm5.822-1.692c.918 0 1.663.757 1.663 1.692s-.745 1.692-1.663 1.692S12.83 12.934 12.83 12c0-.935.745-1.692 1.663-1.692"/></svg>