<svg xmlns="http://www.w3.org/2000/svg" viewBox="0 0 24 24"><path d="M18.513 15.208q.02.08.02.161v5.984a.645.645 0 0 1-.643.647 3.23 3.23 0 0 1-3.221-3.235V16.41l-3.606-3.62a1.08 1.08 0 0 1 0-1.525l3.606-3.621v-2.41A3.227 3.227 0 0 1 17.889 2a.646.646 0 0 1 .645.647v5.93a.7.7 0 0 1-.024.171 1.08 1.08 0 0 1-.31.84l-2.43 2.439 2.43 2.44c.196.197.308.463.313.741M8.258 22H6.54a1.075 1.075 0 0 1-1.074-1.078V3.078A1.076 1.076 0 0 1 6.54 2h1.718a1.076 1.076 0 0 1 1.073 1.078v17.844A1.076 1.076 0 0 1 8.258 22"/></svg>