<svg xmlns="http://www.w3.org/2000/svg" width="192" height="192" viewBox="0 0 192 192"><path d="M52.437 16a8.585 8.585 0 0 0-8.569 8.602v142.8a8.586 8.586 0 0 0 8.569 8.601h13.707a8.585 8.585 0 0 0 8.56-8.601v-142.8A8.586 8.586 0 0 0 66.145 16zm90.548 0c-14.219.03-25.721 11.584-25.69 25.803V61.03l-28.77 28.89a8.613 8.613 0 0 0 0 12.158l28.77 28.89v19.227c-.03 14.219 11.471 25.772 25.69 25.803a5.156 5.156 0 0 0 5.146-5.164v-47.31c-.124-3.002-.556-5.747-2.664-8.067l-19.39-19.459 19.39-19.459c2.108-2.32 2.54-5.065 2.664-8.066v-47.31a5.156 5.156 0 0 0-5.146-5.164z"/></svg>