<svg xmlns="http://www.w3.org/2000/svg" viewBox="0 0 24 24"><path d="M8.83 17.297q-.178 0-.353.03c-1.573.27-2.453 1.883-1.799 3.301.281.61.882 1.115 1.547 1.3.568.158 1.297.051 1.845-.27.312-.183.73-.632.886-.952l.122-.253h1.589v.486c0 .571.09.772.417.926a.75.75 0 0 0 .953-.282c.066-.1.102-.298.118-.637l.025-.493h.242c.242 0 .242 0 .28.236.133.841 1.322.843 1.458.003l.034-.212.415-.03c.49-.035.678-.138.842-.46.211-.414.029-.956-.377-1.126-.15-.062-.738-.077-3.095-.077h-2.912l-.164-.29c-.413-.731-1.249-1.2-2.074-1.2zm.067 1.275q.197.006.394.091c.76.337.828 1.429.113 1.83-.725.408-1.569-.06-1.576-.872a1.037 1.037 0 0 1 1.07-1.049zm7.632-7.388q.013.055.013.112v4.16a.45.45 0 0 1-.447.45 2.246 2.246 0 0 1-2.24-2.249V12.02l-2.507-2.517a.75.75 0 0 1 0-1.06l2.508-2.518V4.249A2.244 2.244 0 0 1 16.095 2a.45.45 0 0 1 .448.45v4.123a.5.5 0 0 1-.017.12.75.75 0 0 1-.215.583l-1.69 1.696 1.69 1.697a.75.75 0 0 1 .217.515m-7.13 4.723H8.204a.747.747 0 0 1-.747-.75V2.75A.75.75 0 0 1 8.204 2h1.194a.75.75 0 0 1 .746.75v12.407a.75.75 0 0 1-.746.75"/></svg>