<svg xmlns="http://www.w3.org/2000/svg" viewBox="0 0 24 24"><path d="M17.75 14.179c-.536-.228-.758-.322-.758-.6 0-.161.132-.335.502-.335.267 0 .604.143.83.276l.016.01.008-.017.393-.844-.013-.007a2.416 2.416 0 0 0-1.234-.34c-1.067 0-1.553.661-1.553 1.276 0 .589.342 1.014 1.046 1.298.655.264.77.415.77.635 0 .236-.17.365-.478.365-.376 0-.81-.144-1.162-.386l-.016-.01-.403.865-.006.013.012.008c.447.296 1.054.486 1.546.486.49 0 .9-.146 1.181-.423.25-.246.389-.585.389-.954 0-.304-.072-.54-.227-.74-.168-.218-.443-.406-.843-.576m4.234-1.786h-2.78v4.408H22v-.959h-1.75v-.82h1.562v-.916H20.25v-.748H22v-.964h-.017m-9.94 0H9.266V16.8h2.796v-.959h-1.75v-.82h1.561v-.916h-1.561v-.748h1.75v-.964h-.017m2.428 1.785c-.537-.228-.758-.322-.758-.6 0-.161.131-.335.501-.335.268 0 .605.143.83.276l.017.01.007-.017.393-.844-.012-.008a2.416 2.416 0 0 0-1.235-.34c-1.067 0-1.552.662-1.552 1.277 0 .589.342 1.014 1.046 1.298.654.264.77.415.77.635 0 .236-.17.365-.478.365-.377 0-.811-.144-1.162-.386l-.017-.01-.008.017-.395.848-.006.013.012.008c.447.295 1.054.486 1.546.486.49 0 .9-.146 1.181-.423.25-.246.39-.585.39-.954 0-.304-.073-.54-.228-.74-.168-.218-.443-.406-.843-.576m-11.122.433c-.095 0-.16-.006-.303-.012v-1.247a2.873 2.873 0 0 1 .375-.024c.5 0 .732.275.732.627 0 .423-.268.656-.804.656zm1.337-1.797c-.347-.295-.85-.451-1.455-.451-.362 0-.77.024-1.216.071L2 12.437V16.8h1.046v-1.307l.056.003c.1.004.186.009.302.009 1.101 0 1.785-.601 1.785-1.569 0-.454-.174-.842-.503-1.122zm2.16 1.725c-.119 0-.19-.006-.321-.018v-1.205a2.096 2.096 0 0 1 .393-.03c.434 0 .72.215.72.579 0 .442-.31.674-.792.674zm1.15.594c.443-.27.696-.745.696-1.304 0-.932-.697-1.466-1.91-1.466-.452 0-.85.022-1.288.071l-.015.002V16.8h1.046v-1.432l.075.004c.094.004.17.007.283.007.055 0 .107 0 .163-.005l.739 1.417.005.009h1.188l-.015-.025zM4.332 11.57h.01l.005-.01.431-.924.011-.024H3.046v-3.45H2v4.408h2.331m2.119-1.553.468-1.183.461 1.183zm2.614 1.53L7.01 7.137l-.004-.01h-.159l-.004.01-2.054 4.41-.01.023h1.066l.005-.01.323-.784h1.483l.324.784.004.01h1.09z"/></svg>