<svg xmlns="http://www.w3.org/2000/svg" width="192" height="192" viewBox="0 0 192 192"><path d="M142 113.44c-4.288-1.824-6.064-2.576-6.064-4.8 0-1.288 1.056-2.68 4.016-2.68 2.136 0 4.832 1.144 6.64 2.208l.128.08.064-.136 3.144-6.752-.104-.056a19.2 19.2 0 0 0-9.872-2.72c-8.536 0-12.424 5.288-12.424 10.208 0 4.712 2.736 8.112 8.368 10.384 5.24 2.112 6.16 3.32 6.16 5.08 0 1.888-1.36 2.92-3.824 2.92-3.008 0-6.48-1.152-9.296-3.088l-.128-.08-3.224 6.92-.048.104.096.064c3.576 2.368 8.432 3.888 12.368 3.888 3.92 0 7.2-1.168 9.448-3.384 2-1.968 3.112-4.68 3.112-7.632 0-2.432-.576-4.32-1.816-5.92-1.344-1.744-3.544-3.248-6.744-4.608m33.872-14.288h-22.24v35.264H176v-7.672h-14v-6.56h12.496v-7.328H162v-5.984h14V99.16h-.136m-79.52 0H74.128v35.248h22.368v-7.672h-14v-6.56h12.488v-7.328H82.496v-5.984h14v-7.712h-.136m19.424 14.28c-4.296-1.824-6.064-2.576-6.064-4.8 0-1.288 1.048-2.68 4.008-2.68 2.144 0 4.84 1.144 6.64 2.208l.136.08.056-.136 3.144-6.752-.096-.064a19.2 19.2 0 0 0-9.88-2.72c-8.536 0-12.416 5.296-12.416 10.216 0 4.712 2.736 8.112 8.368 10.384 5.232 2.112 6.16 3.32 6.16 5.08 0 1.888-1.36 2.92-3.824 2.92-3.016 0-6.488-1.152-9.296-3.088l-.136-.08-.064.136-3.16 6.784-.048.104.096.064c3.576 2.36 8.432 3.888 12.368 3.888 3.92 0 7.2-1.168 9.448-3.384 2-1.968 3.12-4.68 3.12-7.632 0-2.432-.584-4.32-1.824-5.92-1.344-1.744-3.544-3.248-6.744-4.608M26.8 116.896c-.76 0-1.28-.048-2.424-.096v-9.976a24 24 0 0 1 3-.192c4 0 5.856 2.2 5.856 5.016 0 3.384-2.144 5.248-6.432 5.248m10.696-14.376c-2.776-2.36-6.8-3.608-11.64-3.608-2.896 0-6.16.192-9.728.568l-.128.024v34.904h8.368v-10.456l.448.024c.8.032 1.488.072 2.416.072 8.808 0 14.28-4.808 14.28-12.552 0-3.632-1.392-6.736-4.024-8.976zm17.28 13.8c-.952 0-1.52-.048-2.568-.144v-9.64a16 16 0 0 1 3.144-.24c3.472 0 5.76 1.72 5.76 4.632 0 3.536-2.48 5.392-6.336 5.392m9.2 4.752c3.544-2.16 5.568-5.96 5.568-10.432 0-7.456-5.576-11.728-15.28-11.728-3.616 0-6.8.176-10.304.568l-.12.016v34.912h8.368v-11.456l.6.032c.752.032 1.36.056 2.264.056q.64.008 1.304-.04l5.912 11.336.04.072h9.504l-.12-.2zm-29.32-28.504h.08l.04-.08 3.448-7.392.088-.192H24.368v-27.6H16v35.264h18.648M51.6 80.144l3.744-9.464 3.688 9.464zm20.912 12.24L56.08 57.104l-.032-.08h-1.272l-.032.08-16.432 35.28-.08.184h8.528l.04-.08 2.584-6.272h11.864l2.592 6.272.032.08h8.72z"/></svg>