<svg xmlns="http://www.w3.org/2000/svg" viewBox="0 0 24 24"><path d="M21.462 7.088a.535.535 0 0 0-.537.542v8.74a.54.54 0 0 0 .743.501.54.54 0 0 0 .332-.502V7.63a.542.542 0 0 0-.538-.541zM9.99 10.216a1.837 1.837 0 0 0-1.714 1.136 1.866 1.866 0 0 0 .39 2.027 1.837 1.837 0 0 0 2.841-.275 1.869 1.869 0 0 0-.221-2.341 1.83 1.83 0 0 0-1.296-.547zm6.132 0a1.835 1.835 0 0 0-1.028.306 1.855 1.855 0 0 0-.796 1.903 1.841 1.841 0 0 0 2.511 1.363 1.864 1.864 0 0 0 1.142-1.716 1.86 1.86 0 0 0-.533-1.31 1.831 1.831 0 0 0-1.296-.546m-12.264 0a1.835 1.835 0 0 0-1.028.306 1.855 1.855 0 0 0-.796 1.903 1.841 1.841 0 0 0 2.512 1.363 1.849 1.849 0 0 0 1.14-1.716 1.854 1.854 0 0 0-.532-1.31 1.831 1.831 0 0 0-1.296-.546"/></svg>