<svg xmlns="http://www.w3.org/2000/svg" viewBox="0 0 24 24"><path d="M4.285 3a1.3 1.3 0 0 0-.91.376 1.294 1.294 0 0 0 0 1.82l6.35 6.35-6.407 7.32-.005.008-.034.043-.046.058-.002.002a1.3 1.3 0 0 0-.197 1.03l.007.035v.004a1.3 1.3 0 0 0 .086.228l.006.016q.019.037.041.072l.016.03a1.3 1.3 0 0 0 .345.366l.004.004.049.032.06.039q.11.06.23.1l.067.019.051.015H4a1.27 1.27 0 0 0 .846-.095q.007-.004.016-.006l8.242-4.125-1.918-1.918-1.621.81 1.982-2.265 7.257 7.256a1.294 1.294 0 0 0 1.82 0 1.294 1.294 0 0 0 0-1.82l-3.883-3.883 3.55-1.77c.632-.319.89-1.089.575-1.727a1.296 1.296 0 0 0-1.728-.576l-4.311 2.158-2.399-2.396-7.232-7.234A1.3 1.3 0 0 0 4.286 3z"/></svg>