<svg xmlns="http://www.w3.org/2000/svg" width="192" height="192" viewBox="0 0 192 192"><path d="M16 62.605v66.032c0-4.768 1.472-6.136 5.872-7.624l22.944-7.608V78.013l-22.944-7.672c-4.4-1.48-5.872-2.752-5.872-7.736" opacity=".6"/><path d="m21.344 39.509 110.13 39.84c4.72 2.232 5.448 3.504 5.448 7.64v17.8c0 4.032-.736 5.408-5.448 7.632l-110.13 40.064c-2.408.96-5.344.208-5.344-3.28v-20.56c0-4.776 1.464-6.16 5.872-7.64l76.064-25.224-76.064-25.44c-4.4-1.472-5.872-2.744-5.872-7.72V43.005c.104-3.712 3.04-4.448 5.344-3.496" opacity=".8"/><path d="m60.424 39.509 110.13 39.84c4.72 2.232 5.448 3.504 5.448 7.64v17.8c0 4.032-.728 5.408-5.44 7.632l-110.14 40.064c-2.4.96-5.344.208-5.344-3.28v-20.56c0-4.776 1.472-6.16 5.872-7.64l76.072-25.224-76.08-25.44c-4.4-1.48-5.864-2.752-5.864-7.728V43.005c0-3.712 2.936-4.448 5.344-3.496z"/></svg>