<svg xmlns="http://www.w3.org/2000/svg" viewBox="0 0 24 24"><path d="M2 7.826v8.254c0-.596.184-.767.734-.953l2.868-.951V9.752l-2.868-.959C2.184 8.608 2 8.449 2 7.826z" opacity=".6"/><path d="m2.668 4.939 13.766 4.98c.59.279.681.438.681.955v2.225c0 .504-.092.676-.681.954L2.668 19.061c-.301.12-.668.026-.668-.41v-2.57c0-.597.183-.77.734-.955l9.508-3.153-9.508-3.18C2.184 8.609 2 8.45 2 7.828V5.376c.013-.464.38-.556.668-.437z" opacity=".8"/><path d="m7.553 4.939 13.766 4.98c.59.279.681.438.681.955v2.225c0 .504-.091.676-.68.954L7.552 19.061c-.3.12-.668.026-.668-.41v-2.57c0-.597.184-.77.734-.955l9.509-3.153-9.51-3.18c-.55-.185-.733-.344-.733-.966V5.376c0-.464.367-.556.668-.437z"/></svg>