<svg xmlns="http://www.w3.org/2000/svg" viewBox="0 0 24 24"><path fill-rule="evenodd" d="M11.355 3a1.826 1.826 0 0 0-1.777 1.404C5.815 5.237 3 8.591 3 12.604c0 1.674.49 3.234 1.336 4.544a1.826 1.826 0 0 0 2.534 2.527A8.36 8.36 0 0 0 11.4 21a8.4 8.4 0 0 0 8.215-6.636 1.826 1.826 0 0 0-.005-3.544 8.41 8.41 0 0 0-6.483-6.437A1.826 1.826 0 0 0 11.355 3m-.949 10.615c.933-1.719 1.676-4.029 1.606-7.086a1.83 1.83 0 0 0 1.003-.943 7.21 7.21 0 0 1 5.393 5.35c-.453.21-.805.6-.965 1.078a13.63 13.63 0 0 0-7.037 1.6m-2.809 5.1a7.203 7.203 0 0 0 10.815-4.465 1.83 1.83 0 0 1-.949-1.02c-4.812-.222-8.062 2.247-9.55 3.687l-.086.089a16 16 0 0 0-.329.349 1.82 1.82 0 0 1 .099 1.362m-.982-2.22q.168-.184.383-.407c.567-.593 1.35-1.41 2.084-2.636.944-1.579 1.77-3.802 1.698-6.894a1.83 1.83 0 0 1-1.075-.952 7.202 7.202 0 0 0-4.41 10.814 1.83 1.83 0 0 1 1.32.075"/></svg>