<svg xmlns="http://www.w3.org/2000/svg" width="192" height="192" viewBox="0 0 192 192"><path d="M59.716 93.872a2.456 2.456 0 0 1 0 4.272l-29.344 16.68a2.448 2.448 0 0 1-3.664-2.136v-33.36c0-1.88 2.024-3.064 3.664-2.136zm105.58 2.032a2.48 2.48 0 0 0-1.248-2.176L31.918 16.472a3.464 3.464 0 0 0-5.208 2.992v33.32a3.44 3.44 0 0 0 1.76 3.016l65.84 37.184a3.464 3.464 0 0 1 0 6.032L28.47 136.2a3.44 3.44 0 0 0-1.76 3.016v33.312c0 2.68 2.904 4.352 5.216 2.984l132.13-77.44a2.48 2.48 0 0 0 1.24-2.16z"/></svg>