<svg xmlns="http://www.w3.org/2000/svg" viewBox="0 0 24 24"><path d="M2.175 3.836c-.108.016-.189.11-.173.218v15.827c0 .185.08.279.25.279h9.818c.063 0 .11-.014.157-.045.048-.048.093-.106.093-.185l.447-2.695c.033-.14-.013-.218-.17-.218H5.444V3.961c0-.077-.092-.14-.17-.125zm19.607 3.687a4.6 4.6 0 0 0-2.307.557 5.8 5.8 0 0 0-1.658 1.335c0-.202-.016-.39-.032-.56a6 6 0 0 0-.077-.48 1 1 0 0 0-.125-.356.35.35 0 0 0-.326-.246c-.92 0-1.862-.003-2.771 0a.14.14 0 0 0-.11.17q.074.51.098 1.02c.015.403.012.807.028 1.21.015.403.016.79.016 1.162v8.643a.216.216 0 0 0 .25.186h3.017c.14 0 .202-.063.202-.218v-7.901c.232-.248.53-.434.839-.573a6.3 6.3 0 0 1 2.924-.524c.17 0 .25-.046.25-.17V7.757l-.004-.065a.19.19 0 0 0-.214-.169"/></svg>