<svg xmlns="http://www.w3.org/2000/svg" viewBox="0 0 24 24"><path d="M12.074 20.373H2.249c-.175 0-.247-.09-.247-.283V3.837a.2.2 0 0 1 .174-.224h3.091c.073-.014.174.045.174.134v13.395h7.17c.16 0 .203.075.174.224l-.45 2.769a.3.3 0 0 1-.087.193.4.4 0 0 1-.175.045m2.482-12.726h2.714c.16 0 .276.104.32.253.057.104.1.238.13.372.029.164.058.327.072.491.015.179.03.372.03.566a6.2 6.2 0 0 1 1.654-1.37 4.36 4.36 0 0 1 2.307-.565c.102-.015.203.06.218.178v3.17c0 .135-.073.18-.247.18a6.4 6.4 0 0 0-2.931.535c-.305.149-.61.328-.842.596v8.111c0 .164-.058.224-.203.224h-3.019c-.13.014-.232-.06-.246-.194v-8.87c0-.388 0-.775-.015-1.191s-.014-.834-.029-1.236c-.014-.357-.043-.7-.087-1.057-.015-.074.029-.163.101-.178.03-.03.044-.03.073-.015"/></svg>