<svg version="1.1" viewBox="0 0 192 192" xmlns="http://www.w3.org/2000/svg"><path d="m16.519 23.013c-0.28779 0-0.51948 0.23169-0.51948 0.51948v7.7922c0 0.28779 0.23169 0.51948 0.51948 0.51948h158.96c0.28779 0 0.51948-0.23169 0.51948-0.51948v-7.7922c0-0.28779-0.23169-0.51948-0.51948-0.51948zm0 17.143c-0.28779 0-0.51948 0.23169-0.51948 0.51948v7.7922c0 0.28779 0.23169 0.51948 0.51948 0.51948h105.97c0.28779 0 0.51948-0.23169 0.51948-0.51948v-7.7922c0-0.28779-0.23169-0.51948-0.51948-0.51948zm0 17.143c-0.28779 0-0.51948 0.23169-0.51948 0.51948v7.7922c0 0.28779 0.23169 0.51948 0.51948 0.51948h105.97c0.28779 0 0.51948-0.23169 0.51948-0.51948v-7.7922c0-0.28779-0.23169-0.51948-0.51948-0.51948zm0 17.143c-0.28779 0-0.51948 0.23169-0.51948 0.51948v7.7922c0 0.28779 0.23169 0.51948 0.51948 0.51948h105.97c0.28779 0 0.51948-0.23169 0.51948-0.51948v-7.7922c0-0.28779-0.23169-0.51948-0.51948-0.51948zm0 17.143c-0.28779 0-0.51948 0.23169-0.51948 0.51948v7.7922c0 0.2878 0.23169 0.51948 0.51948 0.51948h158.96c0.28779 0 0.51948-0.23168 0.51948-0.51948v-7.7922c0-0.28779-0.23169-0.51948-0.51948-0.51948zm0 17.143c-0.28779 0-0.51948 0.23169-0.51948 0.51948v7.7922c0 0.2878 0.23169 0.51948 0.51948 0.51948h75.844c0.28779 0 0.51948-0.23168 0.51948-0.51948v-7.7922c0-0.2878-0.23169-0.51948-0.51948-0.51948zm0 17.143c-0.28779 0-0.51948 0.23168-0.51948 0.51947v7.7922c0 0.28779 0.23169 0.51948 0.51948 0.51948h75.844c0.28779 0 0.51948-0.23169 0.51948-0.51948v-7.7922c0-0.28779-0.23169-0.51947-0.51948-0.51947zm0 17.143c-0.28779 1e-5 -0.51948 0.2317-0.51948 0.51949v7.7922c0 0.28779 0.23169 0.51948 0.51948 0.51948h158.96c0.28779 0 0.51948-0.23169 0.51948-0.51948v-7.7922c0-0.28779-0.23169-0.51948-0.51948-0.51948zm0 17.143c-0.28779 0-0.51948 0.23169-0.51948 0.51948v7.7922c0 0.28779 0.23169 0.51948 0.51948 0.51948h158.96c0.28779 0 0.51948-0.23169 0.51948-0.51948v-7.7922c0-0.28779-0.23169-0.51948-0.51948-0.51948z"/></svg>
