<svg xmlns="http://www.w3.org/2000/svg" viewBox="0 0 24 24"><path d="M16.721 20.036c-.273-.24-.378-.492-.424-1.015l-.036-.417-1.08.747c-.946.655-1.115.752-1.38.785-.343.043-.607-.057-.731-.276-.042-.075-.087-.425-.104-.81l-.03-.68-1.245.866c-1.316.915-1.53 1.013-1.947.893-.333-.095-.42-.297-.454-1.044l-.029-.665-1.137.792c-.626.435-1.222.828-1.326.873-.284.123-.671.104-.858-.043-.222-.175-.278-.348-.318-1.002l-.036-.572-1.108.768c-1.238.858-1.374.93-1.744.93q-.546-.001-.672-.587c-.043-.198-.063-2.118-.062-5.934 0-6.167-.003-6.08.341-6.764.098-.192.264-.44.37-.55S3.638 5.622 4.536 5c1.63-1.128 1.634-1.131 1.99-1.155.21-.014.41.004.486.045.231.124.35.496.352 1.096 0 .296.012.54.026.54s.536-.354 1.16-.787c1.221-.847 1.33-.905 1.675-.905.54 0 .701.234.75 1.093l.036.608 1.196-.834c.615-.378.863-.814 1.575-.856.314-.019.404-.002.529.096.205.162.287.48.287 1.11 0 .293.012.533.026.533s.554-.37 1.199-.82 1.24-.844 1.32-.875c.195-.074.567-.07.739.008.262.12.355.376.359.991l.003.56 1.108-.74c1.336-.892 1.413-.933 1.739-.933.323 0 .6.18.764.496.121.232.122.281.138 6.037.015 5.75.014 5.808-.107 6.213-.143.475-.333.824-.63 1.154-.117.13-.994.756-1.95 1.393-1.724 1.148-1.74 1.157-2.054 1.157-.274 0-.346-.026-.532-.189zm2.391-1.44c.907-.605 1.723-1.188 1.814-1.296s.247-.367.346-.575c.482-1.94.19-4.189.196-6.212.011-4.158-.003-5.878-.049-5.989a.48.48 0 0 0-.228-.223c-.208-.087-.184-.1-1.709.92l-1.211.811v4.924c.001 2.708-.022 5.067-.051 5.244-.13.783-.447 1.316-1.039 1.75l-.358.262-.004.512c-.006.738.169 1.08.51 1.002.074-.017.877-.525 1.783-1.13"/></svg>