<svg xmlns="http://www.w3.org/2000/svg" viewBox="0 0 24 24"><path d="M12 9.314A2.695 2.695 0 0 0 9.314 12 2.694 2.694 0 0 0 12 14.686 2.694 2.694 0 0 0 14.686 12 2.694 2.694 0 0 0 12 9.314m0 1.125c.869 0 1.56.692 1.56 1.561s-.691 1.56-1.56 1.56-1.56-.691-1.56-1.56.691-1.56 1.56-1.56M12 3a9 9 0 0 0-9 9 9 9 0 0 0 9 9 9 9 0 0 0 9-9 9 9 0 0 0-9-9M8.157 5.569a.27.27 0 0 1 .24.133l2.57 4.45a2.123 2.123 0 0 0-1.09 1.834H4.772a.267.267 0 0 1-.268-.273A7.52 7.52 0 0 1 8.02 5.61a.27.27 0 0 1 .137-.041m7.716 0a.272.272 0 0 1 .156.041 7.497 7.497 0 0 1 2.516 2.612 7.499 7.499 0 0 1 1.002 3.493.265.265 0 0 1-.267.271h-5.157a2.123 2.123 0 0 0-1.049-1.817l2.58-4.466a.266.266 0 0 1 .22-.134zM12 10.44c.869 0 1.56.692 1.56 1.561s-.691 1.561-1.56 1.561-1.56-.692-1.56-1.56c0-.87.691-1.562 1.56-1.562m1.084 3.382 2.57 4.45a.27.27 0 0 1-.11.371 7.523 7.523 0 0 1-7.037-.001.269.269 0 0 1-.11-.372l2.556-4.427a2.123 2.123 0 0 0 1.047.282 2.123 2.123 0 0 0 1.084-.303z"/></svg>