<svg xmlns="http://www.w3.org/2000/svg" width="192" height="192" viewBox="0 0 192 192"><path d="M96 73.02A23.057 23.057 0 0 0 73.02 96 23.049 23.049 0 0 0 96 118.98 23.049 23.049 0 0 0 118.98 96 23.049 23.049 0 0 0 96 73.02m0 9.625c7.435 0 13.347 5.92 13.347 13.355 0 7.435-5.912 13.347-13.347 13.347S82.653 103.435 82.653 96 88.565 82.653 96 82.653M96 19a77 77 0 0 0-77 77 77 77 0 0 0 77 77 77 77 0 0 0 77-77 77 77 0 0 0-77-77M63.121 40.979a2.31 2.31 0 0 1 2.053 1.138l21.988 38.072a18.138 18.138 0 0 0-9.325 15.69H34.16a2.284 2.284 0 0 1-2.293-2.335 64.338 64.338 0 0 1 30.08-52.215 2.567 2.567 0 0 1 1.173-.35m66.015 0a2.31 2.31 0 0 1 1.335.35 64.167 64.167 0 0 1 21.526 22.347 64.167 64.167 0 0 1 8.572 29.885 2.267 2.267 0 0 1-2.284 2.319h-44.121a18.138 18.138 0 0 0-8.975-15.545l22.073-38.21a2.31 2.31 0 0 1 1.882-1.146zM96 82.651c7.435 0 13.347 5.92 13.347 13.355 0 7.435-5.912 13.355-13.347 13.355s-13.347-5.92-13.347-13.347c0-7.443 5.912-13.364 13.347-13.364m9.274 28.935 21.988 38.072a2.31 2.31 0 0 1-.941 3.175 64.338 64.338 0 0 1-60.205-.01 2.31 2.31 0 0 1-.941-3.182l21.868-37.875A17.967 17.967 0 0 0 96 114.179a17.967 17.967 0 0 0 9.274-2.592"/></svg>