<svg xmlns="http://www.w3.org/2000/svg" viewBox="0 0 24 24"><path fill-rule="evenodd" d="M17.075 12 20.7 8.375c.4-.4.4-1.05 0-1.45L17.075 3.3c-.4-.4-1.05-.4-1.45 0L12 6.925 8.375 3.3c-.4-.4-1.05-.4-1.45 0L3.3 6.925c-.4.4-.4 1.05 0 1.45L6.925 12 3.3 15.625c-.4.4-.4 1.05 0 1.45L6.925 20.7c.4.4 1.05.4 1.45 0L12 17.075l3.625 3.625c.4.4 1.05.4 1.45 0l3.625-3.625c.4-.4.4-1.05 0-1.45zm-5.8-4.35L7.65 4.025 4.025 7.65l3.625 3.625zm-2.178 5.072.003.003.003.003a1.025 1.025 0 1 0-.006-.006m2.175 2.175.003.003.003.003a1.025 1.025 0 1 0-.006-.006m1.453 1.453 3.625-3.625 3.625 3.625-3.625 3.625zm0-7.25a1.025 1.025 0 1 0-1.45 1.45 1.025 1.025 0 0 0 1.45-1.45m2.175 2.175a1.025 1.025 0 1 0-1.45 1.45 1.025 1.025 0 0 0 1.45-1.45"/></svg>