<svg xmlns="http://www.w3.org/2000/svg" viewBox="0 0 24 24"><path d="M9.478 8.155v4.324a.454.454 0 0 1-.464.445.454.454 0 0 1-.464-.445V8.155H5.545v5.086c0 .915.317 2.072 1.756 2.449 1.442.377 2.278-.404 2.278-.404-.076.514-.57.89-1.366.972-.602.06-1.372-.135-1.756-.296v2.694c.979.283 2.014.375 3.027.182 1.839-.35 3-1.857 3-3.861V8.155H9.477zm11.503 3.786v-.84h.926V8.155H20.89c-.39-1.77-1.997-3.095-3.918-3.095-2.212 0-4.006 1.759-4.006 3.929v6.881c.63.087 1.381-.01 2.02-.53.664-.54.965-1.426.965-2.26v-.254h1.517V9.879h-1.517v-.89h.004c0-.551.455-.998 1.017-.998.563 0 1.02.447 1.02.998v2.952c0 2.17 1.796 3.93 4.008 3.93v-2.932a1.01 1.01 0 0 1-1.019-.998M2.001 5.302h3.037v7.993c0 1.264.59 2.018 1.057 2.34-.494.431-2.004.808-3.129-.107-.663-.54-.965-1.426-.965-2.26V5.302z"/></svg>