<svg xmlns="http://www.w3.org/2000/svg" viewBox="0 0 24 24"><path d="M8.611 2.007a.17.17 0 0 0-.13.016.17.17 0 0 0-.067.23l.861 1.573c-1.693.873-2.837 2.537-2.836 4.447l11.118-.002c0-1.909-1.14-3.568-2.832-4.444l.862-1.574a.17.17 0 0 0-.067-.232.17.17 0 0 0-.232.068l-.871 1.59a5.9 5.9 0 0 0-2.418-.508c-.865 0-1.685.18-2.415.504l-.87-1.584a.17.17 0 0 0-.102-.084zm5.92 3.317a.47.47 0 0 1 .465.466.465.465 0 0 1-.465.467.466.466 0 0 1-.467-.467.47.47 0 0 1 .467-.466m-5.062.002a.47.47 0 0 1 .466.466.467.467 0 0 1-.466.465.466.466 0 0 1 0-.931m9.762 3.14c-.682 0-1.235.555-1.235 1.237v5.168a1.233 1.233 0 0 0 1.235 1.234 1.234 1.234 0 0 0 1.234-1.234V9.7a1.234 1.234 0 0 0-1.234-1.235M4.77 8.468c-.682 0-1.235.554-1.235 1.235l.002 5.17a1.234 1.234 0 0 0 1.235 1.234 1.233 1.233 0 0 0 1.234-1.234v-5.17A1.235 1.235 0 0 0 4.77 8.468m12.75.233-11.036.002.002 8.01a1.315 1.315 0 0 0 1.316 1.316h.897l.002 2.736a1.234 1.234 0 1 0 2.468-.002l-.002-2.734h1.667l.002 2.734a1.235 1.235 0 0 0 2.468 0l-.002-2.734h.9a1.32 1.32 0 0 0 1.32-1.318zm-7.223 1.947a.55.55 0 0 1 .304.088c.15.093.386.398.442.574.017.053.123.251.238.44.115.188.236.4.268.474a3 3 0 0 0 .213.367c.085.129.182.305.218.391s.084.156.106.156c.035 0 .316-.414.316-.466 0-.02.47-.87.774-1.399.089-.155.162-.3.162-.32 0-.088.32-.277.5-.295.366-.037.565.162.984.988.075.147.199.368.276.49.076.123.206.353.287.512s.172.32.203.358c.03.036.146.236.256.445s.252.457.316.55c.179.264.207.627.069.885-.052.097-.396.258-.55.258-.323 0-.529-.232-1.007-1.137a4 4 0 0 0-.246-.425 1 1 0 0 1-.117-.2 7 7 0 0 0-.23-.437l-.175-.305-.09.149c-.048.082-.121.2-.164.261a4 4 0 0 0-.21.38 7 7 0 0 1-.274.488 2.5 2.5 0 0 0-.248.468 4 4 0 0 1-.193.33c-.267.42-.605.533-.965.327-.134-.077-.22-.188-.38-.479-.112-.208-.25-.45-.304-.535a.8.8 0 0 1-.1-.193c0-.033-.17-.333-.396-.698a.6.6 0 0 1-.07-.136c-.003-.058-.181-.354-.213-.354-.02 0-.09.115-.158.256-.156.32-.367.684-.442.762a.23.23 0 0 0-.058.138.4.4 0 0 1-.082.186 7 7 0 0 0-.323.545c-.202.37-.267.451-.416.523-.22.106-.403.109-.601.008a.61.61 0 0 1-.346-.488c-.026-.195.116-.518.506-1.155a3 3 0 0 0 .193-.343c0-.024.351-.658.559-1.01.036-.061.158-.282.271-.49.293-.538.413-.709.592-.83a.56.56 0 0 1 .305-.102"/></svg>