<svg xmlns="http://www.w3.org/2000/svg" xml:space="preserve" width="24" height="24" fill="none" viewBox="0 0 24 24"><path d="M12 13.1c-.978 0-2.39 1.289-3.021 1.289-.718 0-1.615.06-1.309-1.08l3.566-5.858c.138-.239.31-.451.764-.451m0 1-2.84 4.917c-.109.19 0 .284.212.227 0 0 1.38-1.044 2.628-1.044m0 4.4c0-.597-.453-1.05-1.05-1.05A1.03 1.03 0 0 0 12 14.4m0 5.912c0-.931-.704-1.638-1.636-1.638.93 0 1.636-.707 1.636-1.639m0-12.272c-5.887.044-9.671 3.984-9.671 7.266 0 2.295 1.179 5.329 5.783 6.91 1.01.347 1.426-.97.54-1.302-3.179-1.191-5.123-2.94-5.123-5.61 0-5.048 6.013-6.8 8.471-6.8m0 7.873c.978 0 2.39 1.289 3.021 1.289.718 0 1.615.06 1.309-1.08L12.764 7.45C12.626 7.212 12.454 7 12 7m0 1 2.84 4.917c.109.19 0 .284-.212.227 0 0-1.38-1.044-2.628-1.044m0 4.4c0-.597.453-1.05 1.05-1.05A1.03 1.03 0 0 1 12 14.4m0 5.912c0-.931.704-1.638 1.636-1.638-.93 0-1.636-.707-1.636-1.639m0-12.272c5.887.044 9.671 3.984 9.671 7.266 0 2.295-1.179 5.329-5.783 6.91-1.01.347-1.426-.97-.54-1.302 3.179-1.191 5.123-2.94 5.123-5.61 0-5.048-6.013-6.8-8.471-6.8" class="UnoptimicedTransforms" style="fill:#000;fill-rule:evenodd;stroke:none;stroke-width:.05;stroke-opacity:1" transform="translate(-.408 -.963)scale(1.03397)"/></svg>