<svg xmlns="http://www.w3.org/2000/svg" width="24" height="24" fill="none" viewBox="0 0 24 24"><path fill="#000" d="M15.08 2.333c-.902.617-1.354 1.353-1.48 2.36.091 1.122-.152 1.967-.445 2.983-.314 1.09-.685 2.379-.761 4.42-.167.066-.188-2.06-.207-4.074-.012-1.282-.024-2.519-.073-3.118-.126-1.54.814-2.487 1.16-2.77.347-.284 1.009-.068 1.805.199m-6.851.22C8.858 2.49 9.386 4.8 9.445 6.16c.035.81.606 2.032.93 2.728.173.37.276.59.193.523-1.257-1.03-2.098-2.283-3.026-3.663a47.877 47.877 0 0 0-1.244-1.791c-.291-.393 1.3-1.343 1.93-1.405m5.194 6.86c1.257-1.03 2.098-2.283 3.026-3.663.387-.577.79-1.176 1.244-1.79.291-.394-1.3-1.343-1.93-1.406-.63-.063-1.158 2.248-1.217 3.608-.036.81-.606 2.034-.93 2.73-.173.368-.276.59-.193.52"/><path fill="#000" d="M13.621 9.548s1.645-.884 3.053-1.269c1.317-.36 2.304-1.246 2.414-2.181.082-.697-1.018-2.014-1.018-2.014s-.772 2.14-1.784 3.21c-.263.278-.44.48-.583.645-.455.524-.574.66-2.082 1.61m-5.567-.485c1.045.252 1.953.47 2.126 1.24.076.336-.685 1.13-2.151 1.069-3.026-.125-3.585-5.083-3.347-4.478.59 1.499 2.085 1.86 3.372 2.17"/><path fill="#000" d="M15.96 11.373c3.027-.125 3.586-5.083 3.348-4.478-.59 1.499-2.085 1.86-3.372 2.17-1.045.251-1.953.47-2.126 1.239-.076.336.685 1.13 2.15 1.069M4.587 8.52c1.196 3.89 3.8 4.107 6.306 2.318.219-.156-.121.094-.634.471v.001c-.635.468-1.536 1.13-1.968 1.458-.694.525-.937 1.077-1.104 1.456-.168.38-.259.586-.648.421-2.622-1.111-2.163-6.814-1.952-6.125"/><path fill="#000" d="M15.699 12.768c.693.525.937 1.077 1.104 1.456.167.38.258.586.648.421 2.622-1.111 2.163-6.814 1.951-6.125-1.195 3.89-3.8 4.107-6.306 2.318-.22-.157.127.099.647.481.635.467 1.526 1.124 1.956 1.449"/><path fill="#000" d="M8.94 14.065c.464-.54.933-1.086 1.6-1.278.808-.233 1.45.457 1.465.473.086-.088.698-.68 1.455-.463.667.192 1.136.738 1.6 1.278.497.578.988 1.15 1.708 1.272.06.01.123.022.186.035a3.3 3.3 0 0 0 .804.082c.706-.034 1.599-.433 2.792-2.125.353-.5-.875 3.222-3.955 3.267-1.258.018-1.896-.67-2.476-1.294-.46-.496-.882-.951-1.547-.982-.454-.02-.552-.748-.572-.985-.022.248-.124.955-.572.975-.665.03-1.088.485-1.547.981-.58.625-1.218 1.313-2.476 1.295-3.08-.046-4.308-3.767-3.955-3.267 1.193 1.692 2.086 2.09 2.792 2.125.299.014.564-.037.804-.083l.186-.035c.72-.122 1.211-.693 1.708-1.271"/><path fill="#000" d="M10.952 15.254c.026.043.991 1.641 2.135.062.014-.02.011-.003-.001.056-.044.212-.2.97-.03 2.514.263 2.4-1.245 6.114-1.245 6.114s-1.106-3.707-.89-6.041c.17-1.827.036-2.674.031-2.705m2.826 2.003c.165 1.273.026 2.043-.194 3.257l-.1.56c-.137.79 2.814-2.373 3.946-4.258.042-.071.01-.047-.08.02-.306.227-1.287.957-2.26.106-.568-.497-.83-.768-1.13-1.08a24.857 24.857 0 0 0-.57-.577c-.116-.114-.049.129.063.53.109.39.26.93.325 1.441m-3.79-1.278c.16-.168.333-.346.57-.578.116-.113.048.129-.064.531-.108.39-.258.929-.325 1.441-.164 1.273-.025 2.044.194 3.257.032.177.066.362.1.56.138.79-2.813-2.373-3.945-4.258-.043-.07-.01-.047.079.02.307.228 1.288.957 2.26.106.569-.496.83-.768 1.13-1.08M5.92 4.084s.772 2.14 1.784 3.21c.263.278.44.481.583.646.455.523.574.66 2.082 1.608 0 0-1.646-.883-3.054-1.269C6 7.92 5.012 7.033 4.902 6.098 4.82 5.4 5.92 4.084 5.92 4.084m5.882 3.944c-.02 2.012-.04 4.134-.206 4.069-.076-2.042-.447-3.33-.761-4.42-.293-1.017-.537-1.861-.446-2.984-.125-1.007-.578-1.742-1.479-2.36.797-.266 1.459-.482 1.805-.2.346.284 1.286 1.23 1.16 2.772-.049.6-.06 1.839-.073 3.123"/></svg>