<svg xmlns="http://www.w3.org/2000/svg" id="svg15" width="24" height="24" version="1.1" viewBox="0 0 24 24"><defs id="defs4"><style id="style2">.cls-1{fill:#47a3dc}</style></defs><g id="レイヤー_5" data-name="レイヤー 5" style="fill:#000;fill-opacity:1" transform="translate(.956 .96)scale(.03896)"><path id="path8" d="M326 278.8c-.93-2.63 2.56-12.45 6.4-20.45-6.13-12.82-19.8-21.74-35.68-21.74s-29.55 8.92-35.68 21.74c3.83 8 7.33 17.82 6.4 20.45l-9.73-8.06c-.07.91-.12 1.82-.12 2.75 0 6.09 6.72 19.45 14.4 19.45 6.33-.22 12.79-12.51 24.73-12.51 13.5 0 20.45 12.86 27.07 12.86 6.25 0 12.06-11.49 12.06-19.8 0-.93-.05-1.84-.12-2.75z" class="cls-1" style="fill:#000;fill-opacity:1"/><path id="path10" d="M489.33 436c33.48-102.33-8.94-194.38-106.66-270.84 53.83-1.4 113.18 15.95 142.22 30.22A257 257 0 0 1 489.33 436" class="cls-1" style="fill:#000;fill-opacity:1"/><path id="path12" d="M236.75 521.38c1.43 26.39 119.21 23.06 119.94.78a63.63 63.63 0 0 0 44-10.06 3.84 3.84 0 0 0 .19-6.28c-9.49-7.11-32.79-24.45-35.5-26.82L354 469.43c-20.41-18.58-11.28-38.19-2-57.58 13-23.7 31.83-95-5.61-124.57-9.29 18.49-26.6 11.45-36.56 25.37-6.1 7.48-13.13 23.05-13.13 29v-.78c0-6-7-21.54-13.14-29-9.93-13.93-27.24-6.87-36.56-25.37-37.44 29.61-18.58 100.87-5.62 124.56 2.32 4.85 4.62 9.7 6.46 14.55-33.53-29.63-54.53-72-54.53-119 0-89.62 76.2-162.26 170.19-162.26 65.16 0 101.55 9.26 152.58 30.31C475.17 87.25 386.41 26.72 283.52 26.72a255.6 255.6 0 0 0-123.7 31.71c-37.91 68.69-28.52 178.78 6.44 248.17C119.3 252.34 98.82 167.69 125.63 81a257.2 257.2 0 0 0-95.95 241C67 359.29 154 350.69 173.3 337.64c-28.53 29.8-104.09 30.85-140.13 2.87 2.26 12.65 17.17 59.1 36 72.8 57.58 3.45 81.32-10.11 109.17-45.39-9.85 42.84-56.8 61.89-97.76 56.67 3.22 7.42 28.85 33.15 56.87 29.88 8.66-.13 51.46-22.65 51-58.65 11 21.32-5.67 55.37-36.39 63.58 16.86 11.41 49.66 11.54 78 3.1a46.2 46.2 0 0 1 15.68-.9 44 44 0 0 1-6.35 7l-11.33 9.57c-2.71 2.37-26 19.71-35.5 26.82a3.84 3.84 0 0 0 .18 6.28 63.64 63.64 0 0 0 44.01 10.11" class="cls-1" style="fill:#000;fill-opacity:1"/></g></svg>