<svg xmlns="http://www.w3.org/2000/svg" viewBox="0 0 24 24"><path d="M16.687 20.184q-.943 0-1.439-.519-.471-.519-.636-1.344-.142-.826-.024-1.863.142-1.038.425-2.1-.26.472-.708 1.25-.424.755-.896 1.557t-.92 1.51q-.424.683-.66.99t-.52.425q-.259.094-.47.047t-.307-.236 0-.495.283-.944q.188-.636.377-1.462.212-.825.354-1.769.141-.967.165-1.91-.896 2.099-1.745 3.443-.85 1.321-1.675 2.076t-1.604 1.037-1.485.283q-.708 0-1.321-.212-.613-.236-1.061-.613-.425-.401-.66-.92-.213-.542-.142-1.155.094-1.015.542-1.533.472-.543 1.061-.755.59-.236 1.156-.189.566.024.896.142.307.141.425.377.141.236.094.448-.023.212-.212.33-.165.118-.448 0-.472-.188-.85-.047-.377.118-.612.425-.236.283-.307.684-.07.4.047.778.142.354.495.613.378.236 1.038.236.92 0 1.698-.731t1.51-1.934q.73-1.226 1.415-2.76.683-1.532 1.415-3.136.73-1.627 1.509-3.184.778-1.556 1.698-2.783.212-.306.519-.377.33-.094.566 0 .26.094.33.354.094.235-.142.59-.165.235-.424.825-.236.59-.542 1.391-.283.802-.566 1.769-.284.943-.496 1.91-.212.944-.33 1.84-.118.872-.07 1.556.66-1.014 1.39-2.075.732-1.085 1.463-2.1.731-1.037 1.415-1.98.684-.967 1.25-1.698.566-.755.967-1.25.424-.519.613-.684.283-.236.613-.283.33-.07.566.024t.283.353q.047.236-.236.614-1.25 1.768-2.217 3.49-.966 1.698-1.674 3.231-.684 1.51-1.108 2.806-.401 1.274-.543 2.217-.118.92.047 1.463.189.518.684.518.165 0 .401-.07.26-.095.543-.236.283-.142.542-.33.283-.189.495-.401.425-.425.637-.66.236-.26.566-.661.142-.212.377-.212.26-.024.449.094.212.094.306.283t-.07.401q-.213.283-.614.778-.4.472-1.038 1.085-.4.378-.73.637-.33.26-.661.424-.33.166-.684.236-.354.071-.778.071"/></svg>