<svg xmlns="http://www.w3.org/2000/svg" viewBox="0 0 24 24"><path d="M11.971 3c-2.466.018-4.84.268-6.223.86 0 0-2.743 1.145-2.743 5.05 0 .894-.018 1.963.012 3.096.1 3.819.75 7.583 4.536 8.517 1.745.432 3.244.522 4.45.46 2.188-.113 3.417-.729 3.417-.729l-.072-1.48s-1.564.458-3.321.403c-1.74-.056-3.577-.175-3.857-2.168a3.816 3.816 0 0 1-.04-.558s1.708.39 3.874.481c1.323.057 2.565-.072 3.825-.212 2.418-.27 4.523-1.659 4.788-2.929.416-2 .382-4.882.382-4.882 0-3.904-2.742-5.049-2.742-5.049-1.383-.592-3.758-.841-6.225-.86h-.06M9.178 6.05c1.028 0 1.807.37 2.32 1.106l.5.783.501-.783c.515-.737 1.293-1.105 2.32-1.105.889 0 1.604.291 2.152.86.529.567.792 1.335.792 2.302v4.727h-2.007V9.351c0-.966-.437-1.458-1.31-1.458-.965 0-1.449.583-1.449 1.734v2.511h-1.996v-2.51c0-1.153-.483-1.735-1.45-1.735-.872 0-1.308.492-1.308 1.458v4.59H6.235v-4.73c0-.966.264-1.734.794-2.302.547-.567 1.262-.859 2.151-.859"/></svg>