<svg xmlns="http://www.w3.org/2000/svg" viewBox="0 0 24 24"><path fill-rule="evenodd" d="M4.55 3.776c-.908 1.104-1.78 2.509-2.164 3.67-.319.97-.652 2.727-.059 4.387.007.293-.296.447-.296 1.422-.14 1.726.308 3.214 1.6 4.564 2.687 2.808 7.48 3.945 11.854 2.786 3.187-.844 5.665-2.957 6.342-5.453.11-.401.182-1.121.12-1.897-.05-.601-.245-1.145-.238-1.422.533-2.075.224-3.481-.06-4.386-.38-1.217-.943-2.047-1.776-3.151C18.956 3.08 18.753 2.91 18.39 3c-.544.137-2.885 1.745-3.776 2.618l-.89.873-1.727.014-1.727.013-.89-.875c-1.147-1.13-3.45-2.698-3.964-2.698-.1 0-.49.373-.866.83m.92 6.164v.593h2.844V9.58H5.47zm4.148 0v.593l2.37-.004h6.994v-.95H9.618zm-4.15 1.897v.592h2.846v-.948H5.47v.356m4.15 0v.588h9.364v-.948H9.618v.36m-4.15 1.896v.593h2.846v-.948H5.47v.355m4.15 0v.593l4.682-.063 4.682.06v-.945H9.618v.355m-4.15 1.897v.589h2.846v-.948H5.47v.359m4.15 0v.589h9.364v-.948H9.618v.359"/></svg>