<svg xmlns="http://www.w3.org/2000/svg" viewBox="0 0 24 24"><path d="M13.438 15.847a.832.832 0 1 1-1.655.176L11.1 9.747l-2.416 6.137-.002.005v.001l-.007.016-.006.013-.001.003-.006.013-.003.007-.006.012-.003.006-.006.012-.003.005a.8.8 0 0 1-.168.22l-.003.002-.012.011a1 1 0 0 1-.144.102l-.003.002-.016.01h-.001l-.015.007-.007.003-.009.005-.01.004-.009.004-.01.005-.01.003-.008.004-.012.005-.007.002-.011.004-.007.003a.8.8 0 0 1-.244.046h-.06a.8.8 0 0 1-.273-.057l-.01-.005h-.003l-.011-.005-.011-.005-.009-.004-.01-.005-.01-.005-.005-.003-.015-.008h-.002l-.013-.008-.007-.004a1 1 0 0 1-.127-.088l-.003-.003-.028-.024-.02-.02-.02-.021v-.001l-.025-.027-.002-.003a1 1 0 0 1-.089-.128l-.004-.007-.007-.013v-.001l-.008-.015-.003-.006-.005-.01-.004-.01-.004-.008-.005-.01-.005-.011V15.9l-.005-.011-2.42-6.144-.682 6.277a.832.832 0 1 1-1.655-.176l.804-7.4v-.005a1.4 1.4 0 0 1 .054-.256 1.39 1.39 0 0 1 1.135-.96h.002l.045-.005a1.4 1.4 0 0 1 .21-.006h.004a1.4 1.4 0 0 1 .251.033 1.37 1.37 0 0 1 .967.837l2.059 5.228 2.059-5.228a1.37 1.37 0 0 1 .967-.837 1.4 1.4 0 0 1 .251-.033h.004a1.4 1.4 0 0 1 .21.006l.045.005h.002a1.39 1.39 0 0 1 1.135.96 1.4 1.4 0 0 1 .054.256v.005zm3.616-4.632h1.317v-.014a1.26 1.26 0 0 0 1.063-1.238 1.257 1.257 0 0 0-1.253-1.253H15.53v6.55h3.364a1.3 1.3 0 0 0 1.294-1.294 1.3 1.3 0 0 0-1.294-1.293h-.522v-.003h-1.317a.73.73 0 0 1-.727-.727.73.73 0 0 1 .727-.728zm3.096.643a2.52 2.52 0 0 1 1.492 2.256 2.62 2.62 0 0 1-2.692 2.521h-4.147a.686.686 0 0 1-.705-.66V8.08a.695.695 0 0 1 .692-.692h3.456a2.65 2.65 0 0 1 2.644 2.642 2.63 2.63 0 0 1-.74 1.827zM6.106 2.398h12.738a1.68 1.68 0 0 1 1.627 1.723v.823a.792.792 0 1 1-1.576.008v-.45a.52.52 0 0 0-.52-.52H5.613a.52.52 0 0 0-.52.52v.44a.758.758 0 1 1-1.503.026V4.12a1.68 1.68 0 0 1 1.627-1.723zm5.84 19.205h8.262c1.886 0 1.905-2.006 1.713-2.995a.714.714 0 0 0-1.36 0v.772a.644.644 0 0 1-.642.642H4.08a.644.644 0 0 1-.641-.642v-.772a.714.714 0 0 0-1.36 0c-.193.99-.174 2.995 1.712 2.995z"/></svg>