<svg xmlns="http://www.w3.org/2000/svg" width="192" height="192" viewBox="0 0 192 192"><path d="M176 90.22v50.853h-25.759V94.187c0-14.367-6.44-20.967-16.847-20.967-11.559 0-19.639 7.424-19.639 23.279v44.574H87.988V94.187c0-14.367-6.104-20.967-16.839-20.967-11.391 0-19.479 7.424-19.479 23.279v44.574H25.911V72.06h-9.912V52.245h30.558l1.312 13.711c6.432-9.743 17.503-15.031 30.542-15.031 12.383 0 22.951 4.792 29.223 14.535 7.104-9.087 18.663-14.535 32.038-14.535 21.127 0 36.318 12.223 36.318 39.294"/></svg>