<svg xmlns="http://www.w3.org/2000/svg" width="24" height="24" fill="none" viewBox="0 0 24 24"><path fill="#000" fill-rule="evenodd" d="M2.02 13.346c.086-.89.615-1.752 1.616-2.903a5 5 0 0 1 6.736-6.845c1.081-.962 1.907-1.475 2.765-1.572a4.21 4.21 0 0 1 2.556.526c1.3.741 2.023 2.593 3.47 6.296 2.252 5.767 3.378 8.651 2.583 10.464a4.757 4.757 0 0 1-2.37 2.412c-1.795.825-4.686-.262-10.468-2.436-3.712-1.395-5.569-2.093-6.326-3.387a4.246 4.246 0 0 1-.562-2.555M9.204 5.25c.5.22.927.57 1.24 1.009a3 3 0 1 1-1.24-1.008Z" clip-rule="evenodd"/></svg>