<svg xmlns="http://www.w3.org/2000/svg" width="24" height="24" fill="none" viewBox="0 0 24 24"><path fill="#000" d="M12 2C6.477 2 2 6.477 2 12s4.477 10 10 10 10-4.477 10-10S17.523 2 12 2m5.192 13.538a.31.31 0 0 1-.31.309h-1.307a.309.309 0 0 1-.31-.31v-4.024c0-.033-.038-.05-.067-.027l-2.766 2.767a.618.618 0 0 1-.87 0l-2.767-2.767c-.022-.023-.067-.006-.067.027v4.024a.31.31 0 0 1-.309.31H7.111a.309.309 0 0 1-.31-.31V8.464a.31.31 0 0 1 .31-.31h.897a.624.624 0 0 1 .438.184l3.441 3.441a.15.15 0 0 0 .217 0l3.442-3.441a.615.615 0 0 1 .437-.184h.896a.31.31 0 0 1 .31.31l.002 7.073z" style="stroke-width:1.11111"/></svg>