<svg version="1.1" viewBox="0 0 192 192" xmlns="http://www.w3.org/2000/svg"><path d="m108.13 62.602c-7.6624 0-12.014 3.7598-11.816 10.16h7.4446c0-2.7183 1.4182-3.9376 4.3924-3.9376 2.128 0 3.4653 0.88705 3.4653 2.2257 0 0.86577-0.33408 1.2031-1.6355 1.5764l-5.9063 1.6355c-5.7512 1.5538-8.3129 3.9373-8.3129 7.8751 0 4.6667 3.385 7.7779 8.3681 7.7779a7.5646 7.5646 0 0 0 7.6807-4.4897v3.9376h6.8751v-17.386c-0.0995-6.2827-4.0756-9.3753-10.555-9.3753zm-44.729 0.03816c-7.6996 0-13.055 5.6143-13.055 13.629 0 8.0161 5.2797 13.785 12.979 13.785 7.1485 0 11.957-4.1357 12.094-10.202h-7.0314a4.4889 4.4889 0 0 1-4.9654 3.6251v-0.0034a5.6516 5.6516 0 0 1-5.9063-5.9063h17.723s0.12153-1.3375 0.12153-2.7153c0-7.8756-4.6713-12.212-11.959-12.212zm-43.268 0.59032-4.1355 26.052h6.5973l2.5-16.205 4.8646 16.205h5.6529l5.0418-16.5 2.4063 16.5h6.6946l-4.1146-26.052h-7.8195l-4.9446 15.969-4.8091-15.969zm58.14 0v26.052h7.1876v-19.392h9.4929v-6.6599zm-14.806 5.4063a4.4694 4.4694 0 0 1 5.0174 3.9306h-10.576a5.5343 5.5343 0 0 1 5.5591-3.9306zm48.209 8.6945v0.47223a5.9076 5.9076 0 0 1-6.1042 6.0452c-1.8312 0-2.7188-0.88449-2.7188-2.184 0-1.2978 0.62921-1.9701 2.5972-2.5799zm-47.799 18.275c-7.6623 0-12.036 3.7633-11.819 10.163h7.448c0-2.72 1.4147-3.941 4.3889-3.941 2.128 0 3.4688 0.90785 3.4688 2.2466 0 0.84625-0.33367 1.1823-1.6528 1.5555l-5.9098 1.6355c-5.7316 1.5751-8.2921 3.9372-8.2921 7.8752 0 4.6472 3.385 7.7779 8.3681 7.7779a7.4455 7.4455 0 0 0 7.6633-4.507v3.9376h6.8925v-17.448c-0.09778-6.2027-4.0757-9.2953-10.555-9.2953zm28.024 0a7.0526 7.0526 0 0 0-7.0314 4.5313v-3.941h-7.1876v33.202h7.1876v-10.948a7.0686 7.0686 0 0 0 7.0314 4.4306c5.9076 0 9.8473-4.6099 9.8473-13.629 0-9.0191-3.8793-13.646-9.8473-13.646zm48.369 0.0384c-7.6996 0-13.055 5.613-13.055 13.608 0 7.9966 5.2797 13.785 12.979 13.785 7.1504 0 11.955-4.1357 12.111-10.202h-7.0522a4.4889 4.4889 0 0 1-4.9619 3.6459 5.6712 5.6712 0 0 1-5.9063-5.9098h17.723s0.12153-1.3375 0.12153-2.7153c0-7.8756-4.6518-12.212-11.959-12.212zm-120.14 0.59009-4.1355 26.056h6.5973l2.5-16.208 4.8646 16.208h5.6529l5.0418-16.503 2.4063 16.503h6.6946l-4.1146-26.056h-7.8195l-4.9446 15.951-4.8056-15.951zm84.353 0v26.056h7.1876v-9.9865h2.816l6.007 9.9865h8.1145l-7.9376-13.292 7.3647-12.764h-7.9168l-5.5903 9.6705h-2.8576v-9.6705zm49.431 0v6.6563h7.448v19.396h7.1876v-19.396h7.4446v-6.6563zm-12.608 5.3786a4.5085 4.5085 0 0 1 4.0625 3.9584h-10.598a5.513 5.513 0 0 1 5.5938-3.9376 4.5085 4.5085 0 0 1 0.94096-0.0208zm-51.418 0.64929c3.2498 0 4.8646 2.2643 4.8646 6.9897 0 4.718-1.6488 6.9602-4.8473 6.9688-3.2756-0.0104-5.2362-2.2506-5.2362-6.9654 0-4.7289 1.969-6.9931 5.2188-6.9931zm-22.493 8.1113v0.43401a5.9094 5.9094 0 0 1-6.1216 6.0452v3e-3c-1.792 0-2.7014-0.88753-2.7014-2.2049 0-1.3209 0.65354-1.9732 2.6216-2.5244z"/></svg>
