<svg xmlns="http://www.w3.org/2000/svg" viewBox="0 0 24 24"><path d="M9.528 20.51c0-.06-1.946-6.597-1.972-6.625-.017-.018-.071.187-.12.454l-.273 1.473-.183.987-4.98.02.035-.168c.043-.21 2.442-13.13 2.442-13.154 0-.01 1.118-.017 2.484-.017h2.483l.093.306a1921 1921 0 0 1 1.275 4.317c.65 2.206 1.19 4.005 1.197 3.998.008-.008.586-1.946 1.284-4.308L14.562 3.5l4.975-.02 1.232 6.64C21.446 13.771 22 16.773 22 16.79c0 .016-1.11.03-2.467.03h-2.465l-.02-.09c-.012-.048-.138-.718-.28-1.488s-.265-1.405-.27-1.41c-.006-.006-.455 1.494-.998 3.333l-.988 3.345-2.492.01c-1.37.006-2.492.002-2.492-.009z"/></svg>