<svg xmlns="http://www.w3.org/2000/svg" viewBox="0 0 24 24"><path d="M12.213 10.279a1.8 1.8 0 0 0-.655.111c-.29.109-.62.407-.742.67-.093.198-.096.238-.096 1.276 0 .69.042 1.078.07 1.13.024.046.076.132.147.163a.62.62 0 0 0 .515-.001c.24-.124.245-.152.245-1.209V11.6c0-.08.02-.213.079-.269l.01-.009c.196-.204.618-.25.806-.01.079.1.083.16.083 1.039 0 1.057.02 1.158.256 1.27a.6.6 0 0 0 .254.064.6.6 0 0 0 .253-.065c.236-.111.256-.212.256-1.27 0-.879.005-.938.084-1.039.187-.239.609-.193.806.011l.01.009c.057.056.078.188.078.27v.818c0 1.057.006 1.085.245 1.209a.62.62 0 0 0 .516.001c.07-.03.122-.117.146-.162.028-.053.07-.44.07-1.13 0-1.039-.003-1.08-.095-1.277-.123-.263-.454-.561-.742-.67a1.8 1.8 0 0 0-.656-.111c-.286.003-.57.072-.806.203l-.165.092-.166-.092c-.236-.13-.52-.2-.806-.203m-8.72 0a1.8 1.8 0 0 0-.655.111c-.289.109-.62.407-.742.67-.092.198-.095.238-.096 1.276 0 .69.042 1.078.07 1.13.025.046.076.132.147.163.17.074.37.074.516-.001.24-.124.245-.152.245-1.209V11.6c0-.08.02-.213.078-.269l.01-.009c.197-.204.618-.25.806-.01.079.1.084.16.084 1.039 0 1.057.02 1.158.256 1.27a.6.6 0 0 0 .253.064.6.6 0 0 0 .254-.065c.235-.111.255-.212.255-1.27 0-.879.005-.938.084-1.039.188-.239.61-.193.807.011l.01.009c.057.056.077.188.077.27v.818c0 1.057.006 1.085.245 1.209a.62.62 0 0 0 .516.001c.071-.03.122-.117.147-.162.028-.053.07-.44.07-1.13 0-1.039-.004-1.08-.096-1.277-.122-.263-.453-.561-.742-.67a1.8 1.8 0 0 0-.655-.111c-.287.003-.57.072-.806.203l-.166.092-.166-.092c-.236-.13-.519-.2-.805-.203zm14.093.033q-.089 0-.177.007c-.324.03-.557.121-.828.322-.658.487-.867 1.4-.497 2.174.206.431.609.74 1.115.856.617.141 1.528-.076 1.864-.443.252-.277.068-.722-.298-.72-.052 0-.25.073-.441.162-.405.19-.715.216-1.002.085-.158-.072-.343-.269-.343-.366 0-.032.314-.026 1.041-.045l.936-.024a.4.4 0 0 0 .21-.081c.073-.066.104-.124.087-.418-.051-.85-.791-1.504-1.667-1.51zm.024.837c.207.006.41.107.525.306.047.082.077.158.066.169-.021.02-1.263.056-1.263.036 0-.007.037-.083.08-.17a.64.64 0 0 1 .592-.34zm-8.77-.837a2 2 0 0 0-.176.007 1.5 1.5 0 0 0-.828.322c-.658.487-.867 1.4-.497 2.174.206.431.61.74 1.115.856.617.141 1.528-.076 1.864-.443.252-.277.068-.722-.298-.72-.052 0-.25.073-.441.162-.405.19-.715.216-1.002.085-.158-.072-.343-.269-.343-.367 0-.03.314-.025 1.041-.044l.936-.024a.4.4 0 0 0 .21-.081c.073-.066.104-.124.087-.418-.05-.85-.791-1.504-1.667-1.51zm.025.837c.207.006.41.107.525.306.047.082.077.158.066.169-.021.02-1.262.056-1.262.036 0-.007.036-.083.08-.17a.64.64 0 0 1 .591-.34zm11.94-.836c-.607-.012-1.09.305-1.2.816a.92.92 0 0 0 .083.65c.128.256.247.333 1.01.66.349.149.427.233.318.342-.11.11-.372.086-.66-.06a2.3 2.3 0 0 0-.387-.152c-.212-.05-.348.12-.35.121-.099.12-.139.162-.137.29 0 .087.023.198.05.247.103.182.393.351.753.439.859.208 1.61-.181 1.706-.884.07-.517-.25-.868-1.07-1.168-.32-.117-.44-.221-.38-.331.072-.136.212-.136.547-.002.457.183.65.164.775-.077.204-.394-.123-.75-.792-.865a2 2 0 0 0-.267-.026z"/></svg>