<svg xmlns="http://www.w3.org/2000/svg" viewBox="0 0 24 24"><path d="M9.75 13.418q.412 0 .616.18.206.178.206.509 0 .149-.042.285-.043.134-.14.243-.094.106-.252.17-.158.06-.388.06h-.164v.72H9v-2.167zm-.013.473h-.151v.498H9.7q.115 0 .2-.058.085-.06.085-.209 0-.103-.06-.167-.061-.064-.189-.064zm1.891-.473q.883 0 .883.64 0 .198-.1.343-.097.143-.267.24l.631.944h-.664l-.459-.79h-.148v.79h-.586v-2.167zm-.009.443h-.115v.495h.109q.134 0 .219-.058.088-.06.088-.212 0-.107-.07-.164-.07-.06-.23-.06zm3.381.637q0 .337-.11.59-.106.248-.34.388-.23.14-.603.14-.364 0-.598-.14t-.346-.392q-.11-.252-.11-.589 0-.336.113-.585.112-.252.346-.389.234-.136.598-.136.37 0 .6.14.234.136.34.388.11.249.11.585zm-1.49 0q0 .295.1.462.103.167.337.167.243 0 .34-.167.097-.167.097-.462t-.097-.464q-.097-.17-.337-.17-.24 0-.34.17-.1.17-.1.464m-1.297-6.113a1.818 1.818 0 0 0-.655.11c-.29.11-.62.408-.742.67-.093.199-.096.239-.096 1.277 0 .69.042 1.078.07 1.13.024.046.076.132.147.163a.62.62 0 0 0 .515-.001c.24-.124.245-.152.245-1.21v-.818c0-.08.02-.213.079-.27a.267.267 0 0 1 .01-.008c.196-.204.618-.25.806-.01.079.1.083.16.083 1.039 0 1.057.02 1.158.256 1.27a.61.61 0 0 0 .254.064.598.598 0 0 0 .253-.065c.236-.111.256-.212.256-1.27 0-.88.005-.938.084-1.04.187-.238.609-.192.806.012a.267.267 0 0 1 .01.009c.057.056.078.188.078.27v.818c0 1.057.006 1.085.245 1.209a.62.62 0 0 0 .516 0c.07-.03.122-.116.146-.161.028-.053.07-.44.07-1.13 0-1.04-.003-1.08-.095-1.277-.123-.263-.454-.561-.742-.67a1.818 1.818 0 0 0-.656-.111c-.286.003-.57.072-.806.203l-.165.092-.166-.092c-.236-.13-.52-.2-.806-.203m-8.72 0a1.817 1.817 0 0 0-.655.11c-.29.11-.62.408-.742.67-.092.199-.095.239-.096 1.277 0 .69.042 1.078.07 1.13.025.046.076.132.147.163.17.074.37.074.516-.001.24-.124.245-.152.245-1.21v-.818c0-.08.02-.213.078-.27a.275.275 0 0 1 .01-.008c.197-.204.618-.25.806-.01.079.1.084.16.084 1.039 0 1.057.02 1.158.256 1.27a.603.603 0 0 0 .253.064.598.598 0 0 0 .254-.065c.235-.111.255-.212.255-1.27 0-.88.005-.938.084-1.04.188-.238.61-.192.807.012a.275.275 0 0 1 .01.009c.057.056.077.188.077.27v.818c0 1.057.006 1.085.245 1.209a.62.62 0 0 0 .516 0c.07-.03.122-.116.147-.161.028-.053.07-.44.07-1.13 0-1.04-.004-1.08-.096-1.277-.122-.263-.453-.561-.742-.67a1.818 1.818 0 0 0-.655-.111c-.287.003-.57.072-.806.203l-.166.092-.166-.092c-.236-.13-.52-.2-.805-.203zm14.093.033c-.06 0-.118.002-.177.007a1.5 1.5 0 0 0-.828.322c-.658.487-.867 1.4-.497 2.174.206.43.609.74 1.115.856.617.14 1.528-.076 1.864-.443.252-.277.068-.722-.298-.72-.052 0-.25.073-.441.162-.405.19-.715.216-1.002.085-.158-.072-.343-.27-.343-.366 0-.032.314-.026 1.04-.045l.937-.024a.378.378 0 0 0 .21-.081c.073-.066.104-.124.087-.418-.051-.85-.791-1.504-1.667-1.51zm.024.837c.207.006.41.107.525.306.047.082.077.158.066.169-.021.02-1.263.056-1.263.036 0-.007.037-.083.08-.17a.636.636 0 0 1 .592-.34zm-8.77-.837a1.81 1.81 0 0 0-.176.007 1.51 1.51 0 0 0-.828.322c-.658.487-.867 1.4-.497 2.174.206.43.61.74 1.115.856.617.14 1.528-.076 1.864-.443.252-.277.068-.722-.298-.72-.052 0-.25.073-.441.162-.405.19-.715.216-1.002.085-.158-.072-.343-.27-.343-.367 0-.03.314-.025 1.04-.044l.937-.024a.378.378 0 0 0 .21-.081c.073-.066.104-.124.087-.418-.05-.85-.791-1.504-1.667-1.51zm.025.837c.207.006.41.107.525.306.047.082.077.158.066.169-.021.02-1.262.056-1.262.036 0-.007.036-.083.08-.17a.636.636 0 0 1 .59-.34zm11.94-.836c-.607-.012-1.09.305-1.2.816a.924.924 0 0 0 .083.65c.128.256.247.333 1.01.66.349.149.427.233.318.342-.11.11-.372.086-.66-.06a2.28 2.28 0 0 0-.387-.152c-.212-.05-.348.12-.35.12-.1.12-.14.163-.137.29 0 .088.023.199.05.248.103.182.393.35.753.439.859.208 1.61-.181 1.706-.884.07-.517-.25-.868-1.07-1.168-.32-.117-.44-.221-.38-.331.072-.136.212-.136.547-.002.457.183.65.164.775-.077.204-.394-.123-.75-.792-.865a1.791 1.791 0 0 0-.267-.026z"/></svg>