<svg xmlns="http://www.w3.org/2000/svg" width="192" height="192" viewBox="0 0 192 192"><path d="M97.703 82.23a14.4 14.4 0 0 0-5.24.888c-2.32.872-4.96 3.256-5.936 5.36-.744 1.584-.768 1.904-.768 10.208 0 5.52.336 8.624.56 9.04.192.368.608 1.056 1.176 1.304a4.96 4.96 0 0 0 4.12-.008c1.92-.992 1.96-1.216 1.96-9.672v-6.552c0-.64.16-1.704.632-2.152l.08-.072c1.568-1.632 4.944-2 6.448-.08.632.8.664 1.28.664 8.312 0 8.456.16 9.264 2.048 10.16a4.8 4.8 0 0 0 2.032.512 4.8 4.8 0 0 0 2.024-.52c1.888-.888 2.048-1.696 2.048-10.16 0-7.032.04-7.504.672-8.312 1.496-1.912 4.872-1.544 6.448.088l.08.072c.456.448.624 1.504.624 2.16v6.544c0 8.456.048 8.68 1.96 9.672a4.96 4.96 0 0 0 4.128.008c.56-.24.976-.936 1.168-1.296.224-.424.56-3.52.56-9.04 0-8.312-.024-8.64-.76-10.216-.984-2.104-3.632-4.488-5.936-5.36a14.4 14.4 0 0 0-5.248-.888c-2.288.024-4.56.576-6.448 1.624l-1.32.736-1.328-.736c-1.888-1.04-4.16-1.6-6.448-1.624m-69.759 0a14.4 14.4 0 0 0-5.24.888c-2.312.872-4.96 3.256-5.936 5.36-.736 1.584-.76 1.904-.768 10.208 0 5.52.336 8.624.56 9.04.2.368.608 1.056 1.176 1.304 1.36.592 2.96.592 4.128-.008 1.92-.992 1.96-1.216 1.96-9.672v-6.552c0-.64.16-1.704.624-2.152l.08-.072c1.576-1.632 4.944-2 6.448-.08.632.8.672 1.28.672 8.312 0 8.456.16 9.264 2.048 10.16a4.8 4.8 0 0 0 2.024.512 4.8 4.8 0 0 0 2.032-.52c1.88-.888 2.04-1.696 2.04-10.16 0-7.032.04-7.504.672-8.312 1.504-1.912 4.88-1.544 6.456.088l.08.072c.456.448.616 1.504.616 2.16v6.544c0 8.456.048 8.68 1.96 9.672a4.96 4.96 0 0 0 4.128.008c.568-.24.976-.936 1.176-1.296.224-.424.56-3.52.56-9.04 0-8.312-.032-8.64-.768-10.216-.976-2.104-3.624-4.488-5.936-5.36a14.4 14.4 0 0 0-5.24-.888c-2.296.024-4.56.576-6.448 1.624l-1.328.736-1.328-.736c-1.888-1.04-4.152-1.6-6.44-1.624zm112.74.264q-.712 0-1.416.056c-2.592.24-4.456.968-6.624 2.576-5.264 3.896-6.936 11.2-3.976 17.392 1.648 3.448 4.872 5.92 8.92 6.848 4.936 1.128 12.224-.608 14.912-3.544 2.016-2.216.544-5.776-2.384-5.76-.416 0-2 .584-3.528 1.296-3.24 1.52-5.72 1.728-8.016.68-1.264-.576-2.744-2.152-2.744-2.928 0-.256 2.512-.208 8.328-.36l7.488-.192a3.2 3.2 0 0 0 1.68-.648c.584-.528.832-.992.696-3.344-.408-6.8-6.328-12.032-13.336-12.08zm.192 6.696c1.656.048 3.28.856 4.2 2.448.376.656.616 1.264.528 1.352-.168.16-10.104.448-10.104.288 0-.056.296-.664.64-1.36a5.12 5.12 0 0 1 4.736-2.72zm-70.159-6.696a16 16 0 0 0-1.408.056 12 12 0 0 0-6.624 2.576c-5.264 3.896-6.936 11.2-3.976 17.392 1.648 3.448 4.88 5.92 8.92 6.848 4.936 1.128 12.224-.608 14.912-3.544 2.016-2.216.544-5.776-2.384-5.76-.416 0-2 .584-3.528 1.296-3.24 1.52-5.72 1.728-8.016.68-1.264-.576-2.744-2.152-2.744-2.936 0-.24 2.512-.2 8.328-.352l7.488-.192a3.2 3.2 0 0 0 1.68-.648c.584-.528.832-.992.696-3.344-.4-6.8-6.328-12.032-13.336-12.08zm.2 6.696c1.656.048 3.28.856 4.2 2.448.376.656.616 1.264.528 1.352-.168.16-10.096.448-10.096.288 0-.056.288-.664.64-1.36a5.12 5.12 0 0 1 4.728-2.72zm95.518-6.688c-4.856-.096-8.72 2.44-9.6 6.528a7.36 7.36 0 0 0 .664 5.2c1.024 2.048 1.976 2.664 8.08 5.28 2.792 1.192 3.416 1.864 2.544 2.736-.88.88-2.976.688-5.28-.48a18.4 18.4 0 0 0-3.096-1.216c-1.696-.4-2.784.96-2.8.968-.792.96-1.112 1.296-1.096 2.32 0 .696.184 1.584.4 1.976.824 1.456 3.144 2.808 6.024 3.512 6.872 1.664 12.88-1.448 13.648-7.072.56-4.136-2-6.944-8.56-9.344-2.56-.936-3.52-1.768-3.04-2.648.576-1.088 1.696-1.088 4.376-.016 3.656 1.464 5.2 1.312 6.2-.616 1.632-3.152-.984-6-6.336-6.92a16 16 0 0 0-2.136-.208z"/></svg>