<svg xmlns="http://www.w3.org/2000/svg" viewBox="0 0 24 24"><path d="M12 5.332c-5.42 0-9.817 2.815-9.817 6.28 0 3.464 4.397 6.554 9.817 6.554s9.817-3.08 9.817-6.554S17.42 5.332 12 5.332m.384 2.13c.969-.018 1.956.448 1.965.448 1.828.886 3.812.502 5.338-.137 1.097.886 1.81 2.01 2.002 3.199-2.221.484-3.976 1.197-4.342 1.362-.466-.393-3.108-2.706-3.766-3.2-.356-.255-.576-.383-.758-.438-.174-.055-.43-.11-.832.018-.375.119-.75.42-1.134.722-.356.284-.713.567-.996.63-.475.101-.941-.008-1.097-.2-.064-.082.028-.183.037-.192l.85-.887c.658-.667 1.289-1.289 2.733-1.325m-7.889.128c1.006.475 1.883.676 2.651.886.128.037.795.147.923.147.302 0 .595-.083.905-.165.247-.064.503-.137.777-.174q-.15.14-.301.293L8.6 9.5c-.028.028-.192.192-.101.402a.56.56 0 0 0 .201.22c.247.164.777.283 1.216.183.338-.074.704-.366 1.097-.677.374-.292.795-.576 1.124-.667.119-.027.293-.055.411-.037.238.028.467.11.869.412.704.52 3.784 3.217 3.811 3.245 0 0 .22.182.21.466a.54.54 0 0 1-.274.439c-.447.292-.813.027-.831.018 0 0-1.06-.969-1.454-1.298-.055-.046-.137-.11-.173-.064-.046.055.082.164.082.164l1.234 1.234s.174.156.192.375c.009.165-.046.384-.32.567-.457.293-.795.082-.869.027-.393-.384-.795-.786-1.078-1.023-.064-.046-.146-.11-.183-.064-.046.045.082.164.082.164l.905 1.015s.22.256.018.512c-.042.043-.085.093-.127.128a.8.8 0 0 1-.613.146c-.183-.037-.21-.092-.22-.1 0 0-.475-.494-.868-.823-.055-.046-.128-.11-.173-.064-.046.045.082.164.082.164l.768.86c.027.036 0 .082-.028.118-.036.055-.146.156-.438.192-.366.046-.777-.164-.942-.256a1.09 1.09 0 0 0-.96-1.6c-.036 0-.073.01-.11.01.046-.375-.036-.869-.539-1.088a1.2 1.2 0 0 0-.457-.1.9.9 0 0 0-.384.081.9.9 0 0 0-.548-.493 1.5 1.5 0 0 0-.393-.064c-.274 0-.494.1-.65.228a.92.92 0 0 0-.74-.384.92.92 0 0 0-.676.302c-.155-.128-1.005-.75-3.739-1.362-.118-.027-.575-.128-.749-.174.238-1.243 1.024-2.349 2.23-3.245zm2.962 4.735a.67.67 0 0 1 .658.585c.092-.147.466-.549 1.042-.375.402.128.466.494.476.63 0 .037.009.037.036.01.092-.1.384-.33.85-.128.603.265.357 1.014.338 1.06s-.045.119-.027.128c.027.018.238-.091.43-.091.466.009.84.384.85.84a.84.84 0 0 1-.841.841.844.844 0 0 1-.841-.804c-.01-.082-.018-.091-.082-.036-.138.128-.348.274-.704.127-.467-.191-.503-.52-.476-.676.01-.046 0-.064-.054-.027-.183.128-.394.2-.65.1-.63-.247-.575-.85-.548-1.014.01-.01 0-.019 0-.019a.7.7 0 0 1-.466.183.665.665 0 0 1-.667-.667.68.68 0 0 1 .676-.667" opacity=".5"/><path d="M12 5.076c-5.521 0-10 2.934-10 6.545v.384c0 3.82 3.912 6.92 10 6.92s10-3.1 10-6.92v-.384c0-3.61-4.479-6.545-10-6.545m9.543 5.814c-2.175.484-3.793 1.188-4.205 1.361-.95-.831-3.144-2.733-3.738-3.18-.339-.256-.567-.394-.777-.448a1.3 1.3 0 0 0-.384-.055c-.156 0-.311.027-.485.082-.384.119-.768.43-1.133.722v.01c-.348.273-.704.557-.97.62a1.6 1.6 0 0 1-.356.037c-.301 0-.576-.091-.676-.219-.018-.018-.01-.055.036-.11l.01-.009.831-.895c.659-.659 1.271-1.271 2.697-1.308h.073c.887 0 1.773.393 1.865.44.832.401 1.682.612 2.55.612.896 0 1.819-.22 2.788-.668.996.86 1.673 1.892 1.874 3.008M12 5.46c2.934 0 5.558.84 7.322 2.166-.85.366-1.664.558-2.45.558a5.36 5.36 0 0 1-2.386-.576c-.036-.018-1.014-.484-2.038-.484h-.082c-1.198.027-1.865.447-2.322.822-.439.01-.823.12-1.161.21-.302.083-.558.156-.813.156-.101 0-.293-.01-.311-.01-.293-.008-1.755-.365-2.925-.804C6.607 6.246 9.157 5.46 12 5.46M4.505 7.754c1.215.503 2.696.887 3.171.914.128.01.265.028.412.028.31 0 .621-.092.923-.174.174-.046.375-.1.576-.146l-.165.164-.85.914c-.064.064-.21.247-.119.467a.6.6 0 0 0 .22.246c.2.137.566.229.896.229q.192.002.356-.037c.357-.082.731-.375 1.124-.694.311-.247.759-.567 1.106-.659.1-.027.21-.045.311-.045.028 0 .055 0 .082.009.229.027.448.11.832.402.695.52 3.775 3.218 3.803 3.245 0 0 .2.174.183.457a.5.5 0 0 1-.247.393.75.75 0 0 1-.402.128c-.21 0-.348-.1-.357-.1-.009-.01-1.07-.979-1.453-1.308-.064-.055-.12-.1-.183-.1a.12.12 0 0 0-.082.036c-.064.074.009.183.091.247l1.234 1.243s.155.147.174.339c.009.2-.092.374-.293.511a.76.76 0 0 1-.439.147.55.55 0 0 1-.347-.11l-.174-.174c-.32-.32-.658-.649-.904-.85-.064-.045-.12-.091-.183-.091a.11.11 0 0 0-.083.036c-.027.028-.045.083.019.183a1 1 0 0 0 .064.073l.896 1.015c.009.009.182.22.018.43l-.037.036-.082.083a.7.7 0 0 1-.439.137c-.046 0-.082 0-.119-.01-.091-.018-.146-.036-.173-.072l-.01-.01a12 12 0 0 0-.877-.822c-.046-.046-.11-.092-.174-.092a.11.11 0 0 0-.082.037c-.073.082.037.201.082.247l.768.85q0 .013-.027.055c-.028.036-.119.128-.402.164-.037 0-.064.01-.1.01-.284 0-.595-.138-.75-.22a1.143 1.143 0 0 0-1.033-1.627h-.037c.018-.293-.018-.832-.585-1.079a1.2 1.2 0 0 0-.475-.11.9.9 0 0 0-.348.065.96.96 0 0 0-.557-.476 1.3 1.3 0 0 0-.412-.073 1.13 1.13 0 0 0-.64.201.962.962 0 0 0-1.434-.082c-.238-.183-1.189-.786-3.72-1.362-.12-.027-.394-.11-.568-.155.22-1.161.942-2.203 2.02-3.063zm4.698 6.609-.027-.027h-.028a.14.14 0 0 0-.073.027.65.65 0 0 1-.375.137c-.073 0-.137-.018-.21-.036-.585-.229-.54-.787-.512-.951 0-.037 0-.064-.027-.082l-.046-.037-.037.037a.62.62 0 0 1-.42.173.612.612 0 0 1 0-1.225.61.61 0 0 1 .603.53l.019.165.091-.137c.01-.018.256-.393.713-.393a1 1 0 0 1 .265.046c.366.11.42.438.43.575.009.083.064.083.073.083.027 0 .055-.019.073-.037a.6.6 0 0 1 .448-.192c.11 0 .22.028.338.073.576.247.31.978.31.988-.045.118-.054.173-.008.2l.018.01h.018a.4.4 0 0 0 .11-.028c.082-.027.192-.064.31-.064a.8.8 0 0 1 .787.786c0 .43-.357.786-.786.786a.785.785 0 0 1-.786-.75c0-.036-.01-.127-.083-.127-.036 0-.064.018-.091.046-.091.082-.21.173-.384.173a.7.7 0 0 1-.256-.055c-.448-.182-.457-.484-.439-.612 0-.027.01-.055-.018-.082m2.797 3.4c-5.31 0-9.616-2.751-9.616-6.151q0-.206.027-.412c.046.01.467.11.549.128 2.587.576 3.446 1.17 3.592 1.29a.97.97 0 0 0 .896 1.344c.064-.001.119-.01.183-.02.082.394.338.695.731.85a.93.93 0 0 0 .567.037c.073.183.237.412.603.567a1 1 0 0 0 .384.082c.1 0 .201-.018.292-.055a1.145 1.145 0 0 0 1.883.366c.183.1.576.293.97.293.054 0 .1 0 .146-.01.393-.045.575-.2.658-.32.018-.018.027-.045.036-.063.092.027.192.045.311.045q.315 0 .63-.219c.202-.146.348-.356.366-.54v-.008a.8.8 0 0 0 .21.018c.22 0 .44-.064.64-.201.403-.265.467-.603.467-.823a1.14 1.14 0 0 0 .814-.165.9.9 0 0 0 .42-.685.9.9 0 0 0-.137-.548c.667-.284 2.193-.841 3.985-1.253.01.101.01.202.01.311 0 3.391-4.306 6.143-9.617 6.143z"/></svg>