<svg xmlns="http://www.w3.org/2000/svg" viewBox="0 0 24 24"><path d="M2.519 11.004c.073-4.172 3.295-7.52 7.27-7.52h5.975c1.138 0 2.208.276 3.161.763-1.11-1.352-2.747-2.203-4.573-2.203H8.045C4.702 2.044 2 4.893 2 8.418c0 .92.187 1.796.519 2.586m17.7-4.294c-1.068-1.072-2.516-1.74-4.131-1.74H9.924c-3.268 0-5.91 2.729-5.91 6.104 0 .585.082 1.159.236 1.71a6.1 6.1 0 0 0 1.49 2.59l5.982 6.318c.123.137.257.265.514.265.247 0 .514-.128.514-.468v-4.31h3.247c3.238 0 5.95-2.654 6.002-5.998a6.19 6.19 0 0 0-1.778-4.47"/></svg>