<svg xmlns="http://www.w3.org/2000/svg" width="24" height="24" fill="none" viewBox="0 0 24 24"><path fill="#000" d="M12.022 2C6.376 2 2 6.127 2 11.7c0 2.916 1.198 5.436 3.148 7.176.337.303.267.479.325 2.348a.803.803 0 0 0 1.124.709c2.133-.94 2.16-1.014 2.522-.915C15.3 22.718 22 18.763 22 11.7 22 6.127 17.669 2 12.022 2m6.018 7.465-2.944 4.66a1.506 1.506 0 0 1-2.173.401l-2.342-1.753a.605.605 0 0 0-.726 0l-3.16 2.397c-.422.32-.974-.185-.69-.632l2.943-4.66a1.506 1.506 0 0 1 2.174-.4l2.341 1.752a.605.605 0 0 0 .726 0l3.162-2.395c.42-.321.973.184.689.63z" style="stroke-width:.909114"/></svg>