<svg xmlns="http://www.w3.org/2000/svg" viewBox="0 0 24 24"><path d="M17.112 13.623a2.1 2.1 0 0 1-.88.347c-.32.05-.635.04-.953.04H8.72c-.319 0-.635.012-.954-.04a2.16 2.16 0 0 1-.881-.347 1.98 1.98 0 0 1-.856-1.626c0-.663.322-1.262.857-1.625.262-.187.562-.299.875-.35s.625-.05.95-.05h6.563c.312 0 .637-.012.95.038s.612.161.876.337a1.95 1.95 0 0 1 .85 1.624c0 .65-.326 1.25-.863 1.625zm2.645-6.296a6 6 0 0 0-2.388-1.165 7.3 7.3 0 0 0-1.518-.191c-.374-.013-.749-.009-1.137-.009H9.3c-.38 0-.762-.004-1.143.009a7.4 7.4 0 0 0-1.52.191 6.05 6.05 0 0 0-2.39 1.168A5.97 5.97 0 0 0 2 11.999a5.99 5.99 0 0 0 2.24 4.672 6.1 6.1 0 0 0 2.388 1.166 7.3 7.3 0 0 0 1.52.191c.374.013.75.01 1.137.01h5.413c.374 0 .762.003 1.137-.01a7 7 0 0 0 1.511-.19 6.15 6.15 0 0 0 2.389-1.169A5.94 5.94 0 0 0 22 11.999a5.99 5.99 0 0 0-2.243-4.672"/></svg>