<svg xmlns="http://www.w3.org/2000/svg" width="192" height="192" viewBox="0 0 192 192"><path d="M33.44 131.23c-.016.416-.024 2.312-.024 2.728a5.456 5.456 0 1 0 10.912 0c0-.4 0-2.296.024-2.688a37.36 37.36 0 0 1 37.272-36.112 37.28 37.28 0 0 1 32.76 19.4 5.464 5.464 0 0 0 9.576-5.248 48.24 48.24 0 0 0-46.88-24.848 51.6 51.6 0 0 1 64 23.272 5.464 5.464 0 0 0 9.576-5.248 62.4 62.4 0 0 0-54.776-32.48c-34 0-61.76 27.32-62.48 61.248m-17.4.704v2.088a5.456 5.456 0 1 0 10.912 0v-2.088c.36-37.776 31.24-68.44 69.088-68.44 37.92 0 68.8 30.736 69.088 68.584v1.968a5.456 5.456 0 1 0 10.912 0v-1.76c-.192-43.952-36.032-79.912-79.92-79.912-43.872 0-79.904 35.52-79.904 79.184m34.696 2.56a5.456 5.456 0 1 0 10.912 0 23.16 23.16 0 0 1 23.104-23.112 5.456 5.456 0 1 0 0-10.912 34.04 34.04 0 0 0-34 34"/></svg>