<svg xmlns="http://www.w3.org/2000/svg" viewBox="0 0 24 24"><path d="M4.18 16.404c-.002.052-.003.289-.003.341a.682.682 0 1 0 1.364 0c0-.05 0-.287.003-.336a4.67 4.67 0 0 1 4.659-4.514 4.66 4.66 0 0 1 4.095 2.425.683.683 0 0 0 1.197-.656 6.03 6.03 0 0 0-5.86-3.106 6.45 6.45 0 0 1 8 2.909.683.683 0 0 0 1.197-.656 7.8 7.8 0 0 0-6.847-4.06c-4.25 0-7.72 3.415-7.81 7.656M2 16.495v.261a.682.682 0 1 0 1.364 0v-.261C3.409 11.773 7.269 7.94 12 7.94c4.74 0 8.6 3.842 8.636 8.573v.246a.682.682 0 1 0 1.364 0v-.22c-.024-5.494-4.504-9.989-9.99-9.989-5.484 0-9.988 4.44-9.988 9.898m4.337.32a.682.682 0 1 0 1.364 0 2.895 2.895 0 0 1 2.888-2.889.682.682 0 1 0 0-1.364 4.255 4.255 0 0 0-4.25 4.25"/></svg>