<svg xmlns="http://www.w3.org/2000/svg" viewBox="0 0 24 24"><path d="M11.453 19.558c-.286-.57-.516-1.051-.57-1.146a68 68 0 0 1-.791-1.538c-.388-.771-.718-1.403-.734-1.403s-.076.126-.13.28c-.125.348-.73 2.05-1.198 3.367l-.35.988-5.68.001.09-.256c.049-.141.291-.805.538-1.476.246-.671.63-1.725.854-2.343s.51-1.412.758-2.084.43-1.182.575-1.578c.237-.643.526-1.433.64-1.755.182-.506.49-1.354 1.86-5.1l.761-2.098c.017-.047.085.041.268.416.184.375.396.83.639 1.332.242.501.534 1.11.648 1.351l1.33 2.782.782 1.63.244.508.071-.135c.04-.075.947-1.89 2.018-4.033s1.96-3.881 1.978-3.862c.017.02.076.167.13.328.129.38 1.314 3.727 1.598 4.514.246.68.76 2.12 1.089 3.05l1.08 3.05c.167.47.424 1.189.571 1.597.148.409.252.77.326.945s.486 1.346.904 2.522l.248.695h-5.947L16 19.9l-.243-.915c-.103-.39-.346-1.312-.538-2.05a57 57 0 0 0-.386-1.438c-.031-.082-.055-.06-.16.146-.067.134-.363.693-.659 1.243l-.797 1.489-.654 1.22a97 97 0 0 0-.463.866c-.038.074-.082.134-.098.134s-.263-.467-.549-1.037"/></svg>