<svg xmlns="http://www.w3.org/2000/svg" width="192" height="192" viewBox="0 0 192 192"><path d="m37.335 110.88 6.08-18.727v18.727h9.175V81.121H40.191L34.224 96l-5.832-14.879H16v29.759h9.175V92.153l6.208 18.727zm98.355-11.535c2.848-.24 5.704-2.232 5.704-5.456v-7.32c-.376-3.343-2.856-5.207-5.704-5.455h-23.567v29.759h9.176V99.346h3.6l5.951 11.535h10.543l-7.071-11.535zm-2.48-7.816c0 .624-.128 1.24-1.24 1.24H121.3v-5.823h10.67c1.24 0 1.24.864 1.24 1.36zm-53.085-4.583v-5.832H56.31v29.759h24.063v-5.824H65.494v-6.32h14.631v-5.84H65.486v-5.943zm11.407 0h-8.68v-5.832h26.543v5.832h-8.68v23.935h-9.183zm78.756-5.832h-19.47c-2.977.248-5.329 1.736-5.705 5.088v19.223a5.76 5.76 0 0 0 5.704 5.327h19.471c2.976-.24 5.336-1.984 5.712-5.327V86.202c-.376-3.352-2.856-4.84-5.712-5.088m-3.472 22.575c0 .368-.12 1.24-1.24 1.36h-9.92c-1.12-.12-1.359-.992-1.359-1.36V88.186c0-.376.24-.992 1.36-1.12h9.92c1.12.128 1.24.872 1.24 1.12z"/></svg>