<svg xmlns="http://www.w3.org/2000/svg" viewBox="0 0 24 24"><path d="m4.667 13.86.76-2.341v2.341h1.147v-3.72h-1.55L4.278 12l-.729-1.86H2v3.72h1.147v-2.341l.776 2.341zm12.295-1.442c.356-.03.713-.279.713-.682v-.915c-.047-.418-.357-.651-.713-.682h-2.946v3.72h1.147v-1.441h.45l.744 1.442h1.318l-.884-1.442zm-.31-.977c0 .078-.016.155-.155.155h-1.334v-.728h1.334c.155 0 .155.108.155.17zm-6.636-.573v-.729H7.039v3.72h3.008v-.728h-1.86v-.79h1.829v-.73h-1.83v-.743zm1.426 0h-1.085v-.729h3.318v.729H12.59v2.992h-1.148zm9.845-.729h-2.434c-.372.031-.666.217-.713.636v2.403a.722.722 0 0 0 .713.666h2.434c.372-.03.667-.248.714-.666v-2.403c-.047-.419-.357-.605-.714-.636m-.434 2.822c0 .046-.015.155-.155.17h-1.24c-.14-.015-.17-.124-.17-.17v-1.938c0-.047.03-.124.17-.14h1.24c.14.016.155.109.155.14z"/></svg>