<svg version="1.1" viewBox="0 0 24 24" xmlns="http://www.w3.org/2000/svg"><path d="m4.6667 13.86 0.75969-2.3411v2.3411h1.1473v-3.7209h-1.5504l-0.74419 1.8605-0.72868-1.8605h-1.5504v3.7209h1.1473v-2.3411l0.77519 2.3411zm12.295-1.4419c0.35659-0.03101 0.71318-0.27907 0.71318-0.68217v-0.91473c-0.04651-0.4186-0.35659-0.65116-0.71318-0.68217h-2.9457v3.7209h1.1473v-1.4419h0.44961l0.74419 1.4419h1.3178l-0.88372-1.4419zm-0.31008-0.97674c0 0.07752-0.0155 0.15504-0.15504 0.15504h-1.3333v-0.72868h1.3333c0.15504 0 0.15504 0.10853 0.15504 0.17054zm-6.6357-0.57364v-0.72868h-2.9767v3.7209h3.0078v-0.72868h-1.8605v-0.7907h1.8295v-0.72868h-1.8295v-0.74419zm1.4264 0h-1.0853v-0.72868h3.3178v0.72868h-1.0853v2.9922h-1.1473zm9.845-0.72868h-2.4341c-0.37209 0.03101-0.66667 0.21705-0.71318 0.63566v2.4031c0.04651 0.4186 0.35659 0.65116 0.71318 0.66667h2.4341c0.37209-0.031007 0.66667-0.24806 0.71318-0.66667v-2.4031c-0.04651-0.4186-0.35659-0.60465-0.71318-0.63566zm-0.43411 2.8217c0 0.04651-0.0155 0.15504-0.15504 0.17054h-1.2403c-0.13954-0.0155-0.17054-0.12403-0.17054-0.17054v-1.938c0-0.04651 0.03101-0.12403 0.17054-0.13954h1.2403c0.13954 0.0155 0.15504 0.10853 0.15504 0.13954z"/></svg>
