<svg xmlns="http://www.w3.org/2000/svg" viewBox="0 0 24 24"><path d="M3.915 10.851c.194.6.369 1.068.386 1.042s.188-.523.378-1.104l.345-1.058h1.577l-.026 4.507-1.123.035-.014-1.397-.013-1.398-.758 2.76-.742.035-.385-1.367-.385-1.366-.002 1.364-.003 1.365H2V9.728l.78.017.78.016zm6.086-.66v.46H8.2v.858H10v.92H8.2v.92h1.85v.92h-3V9.73H10zm3.69-.014-.016.444-.536.018-.538.017v3.614h-1.15v-3.618h-1.1V9.73h3.354zm3.604-.326c.324.203.376.361.394 1.2.014.615.001.77-.073.948a.86.86 0 0 1-.624.49l-.187.033.404.797c.221.439.414.832.427.874.02.06-.127.077-.63.077h-.656l-.362-.891-.362-.893-.435.036-.007.858-.009.86h-1.149l-.013-2.255L14 9.729h1.551c1.44 0 1.567.01 1.744.12m4.334.006c.355.21.371.3.371 2.113 0 1.772-.018 1.882-.343 2.13-.178.137-.214.14-1.581.14-1.558 0-1.628-.017-1.828-.418-.09-.182-.098-.318-.098-1.84 0-1.872.01-1.933.366-2.13.189-.106.342-.118 1.556-.119 1.255 0 1.36.008 1.557.124m-6.479 1.223v.43h.688c.378 0 .717-.024.752-.052.046-.035.061-.165.05-.413l-.015-.363-.736-.017-.739-.016zm4.173-.35c-.014.043-.018.645-.011 1.335l.014 1.256h1.5V10.68l-.74-.018c-.57-.013-.744.002-.763.064"/></svg>