<svg xmlns="http://www.w3.org/2000/svg" width="192" height="192" viewBox="0 0 192 192"><path d="M96 24.028h56a8 8 0 0 1 8 8h-56zm-64 0h48l16 16h64c8.8 0 16 7.2 16 16v95.944c0 8.8-7.2 16-16 16H32c-8.8 0-16-7.2-16-16l.08-111.94c0-8.8 7.12-16 15.92-16m34.128 88H35.112a.64.64 0 0 0-.64.608v37.176c0 .336.288.608.64.608h8.136a.616.616 0 0 0 .624-.608V120.64c0-.336.296-.608.64-.608h17.552c4.936 0 6.32 3.76 6.32 6.2v23.584c0 .336.296.608.64.608h8.144a.616.616 0 0 0 .632-.608V123.44c0-2.176-.256-5.296-3.064-8.048-2.936-2.88-5.616-3.36-8.608-3.36m27.808 0H85.8a.64.64 0 0 0-.64.608v37.176c0 .336.288.608.64.608h8.136a.616.616 0 0 0 .624-.608V112.64a.616.616 0 0 0-.624-.608m-33.52 14.8h-8.56a.616.616 0 0 0-.624.608v22.376c0 .336.28.608.624.608h8.56a.616.616 0 0 0 .632-.608V127.44a.616.616 0 0 0-.624-.608"/></svg>