<svg xmlns="http://www.w3.org/2000/svg" viewBox="0 0 24 24"><path d="M12 3.004h7a1 1 0 0 1 1 1h-7zm-8 0h6l2 2h8c1.1 0 2 .9 2 2v11.993c0 1.1-.9 2-2 2H4c-1.1 0-2-.9-2-2l.01-13.993c0-1.1.89-2 1.99-2m4.266 11H4.389a.078.078 0 0 0-.08.076v4.647c0 .042.036.076.08.076h1.017a.077.077 0 0 0 .078-.076V15.08c0-.042.037-.076.08-.076h2.194c.617 0 .79.47.79.775v2.948c0 .042.037.076.08.076h1.018a.077.077 0 0 0 .079-.076V15.43c0-.272-.032-.662-.383-1.006-.367-.36-.702-.42-1.076-.42m3.476 0h-1.017a.078.078 0 0 0-.08.076v4.647c0 .042.036.076.08.076h1.017a.077.077 0 0 0 .078-.076V14.08a.077.077 0 0 0-.078-.076m-4.19 1.85h-1.07a.077.077 0 0 0-.078.076v2.797c0 .042.035.076.078.076h1.07a.077.077 0 0 0 .079-.076V15.93a.077.077 0 0 0-.078-.076"/></svg>