<svg xmlns="http://www.w3.org/2000/svg" width="24" height="24" fill="none" viewBox="0 0 24 24"><path fill="#FFF1C0" d="M14.297 19.875c.001.445-.143.878-.41 1.234-.269.355-1.444.985-1.872 1.106l6.406-1.97a2.01 2.01 0 0 0 1.454-1.925V5.68a2.005 2.005 0 0 0-1.457-1.93l-6.403-1.808c.433.123 1.59.6 1.862.958.272.36.42.797.42 1.248z"/><path fill="#FFF1C0" fill-rule="evenodd" d="M12.02 20.012c.108-.061.202-.12.277-.169v-2.265H8.04a1.057 1.057 0 0 0-.522 1.969l2.397 1.359 1.53-.607.017-.007a6 6 0 0 0 .558-.28M9.85 3.078l.479.226c.575.272 1.31.62 1.396.653a7 7 0 0 1 .572.256v2.111l-3.293 1.19a1.43 1.43 0 0 0-.941 1.346v5.83a1.43 1.43 0 0 1-.742 1.256l-1.64.886a1.053 1.053 0 0 1-1.556-.929V7.544a2 2 0 0 1 1.01-1.739z" clip-rule="evenodd"/></svg>