<svg xmlns="http://www.w3.org/2000/svg" width="24" height="24" fill="none" viewBox="0 0 24 24"><path d="M11.978 2.03c-4.183-.001-7.74 2.606-9.228 6.277 1.273-1.336 3.2-2.192 5.318-2.192.312 0 1.998.02 3.612.867 1.398.735 2.165 1.657 2.675 2.538.519.895.626 1.896.641 2.443 0 .02.005.04.006.06h-.004c0 .031.006.077.006.104 0 .576-.255 1.265-.72 1.871-.203.262-.184.17-.184.213 0 .036.03.128.209.254h.002c.48.334 1.273.518 1.94.59.665.071 1.206.045 1.21.045a4.45 4.45 0 0 0 2.26-.623l.002-.002A4.59 4.59 0 0 0 22 10.518v-.004c.02-1.723-.596-2.828-.879-3.387-1.647-3.222-5.22-5.098-9.143-5.098Zm-3.91 4.9C4.741 6.93 2.037 9.266 2 11.978v.002c-.013 1.52.279 2.954.916 4.327a10.01 10.01 0 0 0 7.639 5.664 7 7 0 0 1-.559-.309l-.023-.012-.024-.013a6.9 6.9 0 0 1-1.969-1.848c-2.544-3.488-1.33-8.441 2.532-10.363l.011-.008v.002q.007-.005.014-.01l.004-.002.002-.002c.244-.115.763-.375 1.445-.363a3 3 0 0 1 1.283.303c-.43-.584-1.019-1.143-1.97-1.643-1.408-.738-2.974-.773-3.233-.773m.936 4.664c-1.852 2.092-2.134 5.292-.363 7.718l.002.002v.002a6 6 0 0 0 1.718 1.616l.002.002.024.015a5.75 5.75 0 0 0 4.762.612l-.002-.004.103-.035a10.04 10.04 0 0 0 5.049-3.897c-.211.101-.422.203-.64.285a8.7 8.7 0 0 1-3.067.553c-4.042 0-7.621-2.792-7.621-6.463v-.004q.003-.204.033-.402" class="cls-5" style="display:inline;fill:#010000;fill-opacity:1;stroke-width:.0814659"/></svg>