<svg xmlns="http://www.w3.org/2000/svg" width="192" height="192" viewBox="0 0 192 192"><path d="M67.389 21.59a6.933 6.933 0 0 0-6.753 7.066v8.23h107.92v-8.23a6.933 6.933 0 0 0-6.754-7.066zm71.181 22.309v29.983h29.983V43.899zm-77.934.017v4.132h30.399a14.222 14.222 0 0 1 3.316.4v-4.532zm40.729 0v8.785a13.778 13.778 0 0 1 3.507 9.184V73.9h26.684V43.916zM22.806 55.062A6.818 6.818 0 0 0 16 61.885v68.23a6.818 6.818 0 0 0 6.806 6.822h68.229a6.818 6.818 0 0 0 6.823-6.823V61.885a6.818 6.818 0 0 0-6.823-6.823zm34.67 16.91a21.956 21.956 0 0 1 11.458 2.934 19.556 19.556 0 0 1 7.57 8.23 26.667 26.667 0 0 1 2.656 12.083 28 28 0 0 1-2.726 12.656v.017a20.178 20.178 0 0 1-7.813 8.507 22.756 22.756 0 0 1-11.892 3.02 22.222 22.222 0 0 1-11.7-2.985 20 20 0 0 1-7.692-8.247 25.778 25.778 0 0 1-2.673-11.944 28.444 28.444 0 0 1 2.639-12.569 19.822 19.822 0 0 1 7.795-8.611 23.556 23.556 0 0 1 12.378-3.09zm-.347 7.813a11.822 11.822 0 0 0-7.014 2.066 12.978 12.978 0 0 0-4.462 5.73 22.667 22.667 0 0 0-.035 16.301 12.889 12.889 0 0 0 4.393 5.66 11.556 11.556 0 0 0 6.84 2.066 12 12 0 0 0 7.31-2.136 12.444 12.444 0 0 0 4.253-5.66 22.222 22.222 0 0 0 1.354-7.899 24 24 0 0 0-1.285-8.003 12.444 12.444 0 0 0-4.115-5.903 11.289 11.289 0 0 0-7.24-2.222zm47.743 1.128v26.458h26.684V80.913zm33.698 0v26.458h12.986l16.997-9.566V80.913zM176 99.733a3.378 3.378 0 0 1-1.7 2.899l-.07.052-51.302 28.837 53.073 31.076zm-71.127 14.652v6.702l11.059 6.32 15.625-8.786v-4.236zm0 14.792v.938a13.867 13.867 0 0 1-13.837 13.837h-37.83v18.68a7.787 7.787 0 0 0 7.778 7.779h107.33a7.733 7.733 0 0 0 4.6-1.476z"/></svg>