<svg xmlns="http://www.w3.org/2000/svg" viewBox="0 0 24 24"><path d="M18 3.055v3.85h4v-2.85a1 1 0 0 0-.293-.707A1 1 0 0 0 21 3.055zm-9.93.002a1 1 0 0 0-.414.057A1 1 0 0 0 7 4.096v1.711a.15.15 0 0 0 .18.2h4.09a1.79 1.79 0 0 1 1.482.687c.172.22.219.507.22.787L13 16.584c0 .278-.045.564-.217.782a1.68 1.68 0 0 1-1.373.64H7.18a.15.15 0 0 0-.18.14v1.8a1 1 0 0 0 1 1h9.03V3.056zm-5.21 3.95a.87.87 0 0 0-.598.247.87.87 0 0 0-.262.592v8.34a.86.86 0 0 0 .86.86h8.61a.6.6 0 0 0 .6-.6v-8.87a.6.6 0 0 0-.6-.57zM18 7.984v3.441h4v-3.44zm-9.777 1.12h1.178v5.712H8.039l-2.22-3.705.008.207.017.517v2.979H4.67V9.108h1.354l2.217 3.677h.002zM18 12.427v3.5h4v-3.5zm0 4.58v3.85h3a1 1 0 0 0 .707-.293 1 1 0 0 0 .293-.707v-2.85z"/></svg>