<svg xmlns="http://www.w3.org/2000/svg" width="192" height="192" viewBox="0 0 192 192"><path d="M100.48 21.874c-12.674.292-22.797 10.652-22.798 23.33.048.597.114 1.192.2 1.784h11.655c8.026.009 14.531 6.509 14.543 14.535v6.64c11.52-1.553 20.145-11.337 20.24-22.958 0-13.084-10.757-23.612-23.838-23.33zm52.642 13.328c-9.665.205-17.333 8.208-17.125 17.873s8.212 17.329 17.877 17.119c9.66-.208 17.324-8.206 17.119-17.867-.205-9.66-8.202-17.328-17.863-17.125zM22.392 55.204A6.664 6.664 0 0 0 16 61.874v66.657a6.664 6.664 0 0 0 6.672 6.672H89.33a6.664 6.664 0 0 0 6.673-6.672V61.874a6.664 6.664 0 0 0-6.673-6.67zm13.704 15.031h39.807v9.84H60.96v40.096h-9.815V80.083h-15.05zm67.983 4.968v53.247c-.004 8.035-6.516 14.549-14.551 14.553h-26.36c.235.736.48 1.47.735 2.2.704 1.733 1.54 3.4 2.506 5 17.512 30.2 62.608 25.015 72.809-8.377a25.593 25.593 0 0 0 6.615 2.544c15.543 3.252 30.148-8.6 30.167-24.48V82.705a7.495 7.495 0 0 0-7.495-7.503z"/></svg>