<svg xmlns="http://www.w3.org/2000/svg" width="24" height="24" viewBox="0 0 6.35 6.35"><path d="M3.484 1.032a.5.5 0 0 0-.127.014l-.535.129a.5.5 0 0 0-.333-.138h-.04l-.013.006c-.024.002-.048.002-.072.008a.5.5 0 0 0-.118.044L.803 1.85a.514.514 0 0 0-.217.688l1.21 2.34a.504.504 0 0 0 .682.215l.307-.161.197-.048.068.003 1.316.409a.513.513 0 0 0 .637-.333l.795-2.514a.507.507 0 0 0-.332-.635l-.536-.166a.505.505 0 0 0-.468-.37l-.569-.018a.5.5 0 0 0-.409-.228m-.665.515.498.016a.5.5 0 0 0-.045.1L2.544 3.97l.082-2.244v-.003a.2.2 0 0 1 .016-.067q.007-.014.017-.027.01-.015.021-.028.014-.012.03-.022.013-.009.027-.016.016-.006.033-.008.024-.008.05-.008zm-.49.075c-.008.032-.02.062-.022.096l-.09 2.48-.508-2.234a.187.187 0 0 1 .14-.226zm-.934.278c-.003.046-.007.092.003.14l.555 2.442L.868 2.386a.183.183 0 0 1 .079-.251zm3.017.573c.036.171.103.296.178.399l.01.014.01.013.014.017.046.057.093.109.003.004.056.07.002.003a1 1 0 0 1 .042.066l.004.008.008.016.016.036a.46.46 0 0 1-.002.31l-.01.02-.034.06-.001.003-.017.026v.002l-.037.05-.002.002a1 1 0 0 1-.057.062l-.003.002a.5.5 0 0 1-.108.07l-.022.008H4.6a.4.4 0 0 1-.234-.004.4.4 0 0 1-.27-.323c-.065.154-.006.365.006.405.036.03.055.062.046.089-.036.025-.41-.092-.428-.135.009-.027.043-.043.092-.047.18-.134.224-.276.235-.334a.4.4 0 0 1-.411.116c-.216-.068-.309-.253-.259-.55.157-.489.597-.23 1.036-.644z"/></svg>