<svg xmlns="http://www.w3.org/2000/svg" width="192" height="192" viewBox="0 0 192 192"><path d="M64 24.961a8 8 0 0 0-8 8v13.68a1.2 1.2 0 0 0 1.44 1.6h32.72a14.32 14.32 0 0 1 13.28 8.48H176v-23.76a8 8 0 0 0-8-8zM22.881 55.76a6.96 6.96 0 0 0-6.88 6.96v66.72a6.88 6.88 0 0 0 6.88 6.88H91.76a4.8 4.8 0 0 0 4.8-4.8V60.561a4.8 4.8 0 0 0-4.8-4.8zm81.76 8.96v27.52H176V64.72zm-78.4 6h9.28l6.72 35.2 10.561-34.24h7.2l10.56 34.24 6.719-35.2h9.281l-10 50.8h-9.12l-11.04-34.8-11.04 34.8h-9.12zm78.4 29.52v28H176v-28zm-.64 36a13.44 13.44 0 0 1-12.722 8H57.44a1.2 1.2 0 0 0-.879 1.12v13.68a8 8 0 0 0 8 8H168a8 8 0 0 0 8-8v-22.799z"/></svg>