<svg xmlns="http://www.w3.org/2000/svg" width="24" height="24" viewBox="0 0 6.35 6.35">
  <path d="M3.484 1.032a.51.51 0 0 0-.127.014l-.535.129a.498.498 0 0 0-.333-.138h-.04l-.013.006c-.024.002-.048.002-.072.008a.508.508 0 0 0-.118.044L.803 1.85a.514.514 0 0 0-.217.688l1.21 2.34a.504.504 0 0 0 .682.215l.307-.161.197-.048.068.003 1.316.409a.513.513 0 0 0 .637-.333l.795-2.514a.507.507 0 0 0-.332-.635l-.536-.166a.505.505 0 0 0-.468-.37l-.569-.018a.497.497 0 0 0-.409-.228zm-.665.515.498.016a.502.502 0 0 0-.045.1L2.544 3.97l.082-2.244v-.003a.194.194 0 0 1 .016-.067c.004-.01.011-.018.017-.027.007-.01.013-.02.021-.028.009-.009.02-.015.03-.022.009-.005.017-.012.027-.016.01-.004.022-.006.033-.008.016-.004.032-.009.05-.008zm-.49.075c-.008.032-.02.062-.022.096l-.09 2.48-.508-2.234a.187.187 0 0 1 .14-.226zm-.934.278c-.003.046-.007.092.003.14l.555 2.442L.868 2.386a.183.183 0 0 1 .079-.251zm3.017.573c.036.171.103.296.178.399l.01.014.01.013.014.017a2.551 2.551 0 0 0 .046.057l.093.109.003.004a1.522 1.522 0 0 1 .056.07l.002.003a.65.65 0 0 1 .042.066l.004.008.008.016a.384.384 0 0 1 .016.036.459.459 0 0 1-.002.31l-.01.02a1.047 1.047 0 0 1-.034.06l-.001.003a.868.868 0 0 1-.017.026v.002a.72.72 0 0 1-.037.05l-.002.002a.537.537 0 0 1-.057.062l-.003.002a.453.453 0 0 1-.108.07.307.307 0 0 1-.022.008H4.6a.391.391 0 0 1-.234-.004.404.404 0 0 1-.27-.323c-.065.154-.006.365.006.405.036.03.055.062.046.089-.036.025-.41-.092-.428-.135.009-.027.043-.043.092-.047.18-.134.224-.276.235-.334a.404.404 0 0 1-.411.116c-.216-.068-.309-.253-.259-.55.157-.489.597-.23 1.036-.644z"/>
</svg>
