<svg xmlns="http://www.w3.org/2000/svg" data-name="Layer 1" viewBox="0 0 24 24"><path d="m-361.485 3.485-38.03 38.03a12 12 90 0 0 0 16.97l40.86 40.86c.844-2.592 2.208-5.04 4.24-7.074l49.345-49.341-39.445-39.445a12 12 180 0 0-16.97 0m70.555 53.585L-338.857 105-298 145.857l47.93-47.927Z" style="fill:#000;fill-opacity:1;stroke:none;stroke-width:1px;stroke-linecap:butt;stroke-linejoin:miter;stroke-opacity:1" transform="translate(31.848 8.482)scale(.07406)"/><path d="m-289.515 151.515 153.03-153.03a12 12 90 0 0 0-16.97l-38.03-38.03a12 12 180 0 0-16.97 0l-153.03 153.03a12 12 90 0 0 0 16.97l38.03 38.03a12 12 180 0 0 16.97 0" style="fill:#000;fill-opacity:1;stroke:none;stroke-width:1px;stroke-linecap:butt;stroke-linejoin:miter;stroke-opacity:1" transform="translate(31.848 8.482)scale(.07406)"/></svg>