<svg xmlns="http://www.w3.org/2000/svg" data-name="Layer 1" viewBox="0 0 24 24"><path d="M19.53 8.785a3.162 3.162 0 0 0-1.917-1.393 5.618 5.618 0 0 0-11.226 0 3.162 3.162 0 0 0-1.916 1.393 4.113 4.113 0 0 0-.578 2.626 13.073 13.073 0 0 0 1.514 5.363 10.7 10.7 0 0 0 1.285 1.882 13.802 13.802 0 0 0 2.725 2.436 4.127 4.127 0 0 0 5.166 0 13.804 13.804 0 0 0 2.725-2.436 10.7 10.7 0 0 0 1.285-1.882 13.073 13.073 0 0 0 1.514-5.363 4.113 4.113 0 0 0-.578-2.626M12 4.293a3.415 3.415 0 0 1 3.345 2.728c-1.402-.116-2.67-.14-3.345-.14s-1.943.024-3.345.14A3.415 3.415 0 0 1 12 4.293m2.746 7.023A2.746 2.746 0 1 1 12 8.57a2.746 2.746 0 0 1 2.746 2.746m-.77 8.89a3.253 3.253 0 0 1-1.976.72 3.255 3.255 0 0 1-1.977-.72A12.444 12.444 0 0 1 7.2 17.578a5.618 5.618 0 0 1 9.6 0 12.437 12.437 0 0 1-2.823 2.626Z"/></svg>