<svg xmlns="http://www.w3.org/2000/svg" width="192" height="192" viewBox="0 0 192 192"><path d="M64.559 24.452h71.998v31.999h-32.799a14.32 14.32 0 0 0-13.6-8.4H57.439a1.2 1.2 0 0 1-1.44-1.6v-13.68a8 8 0 0 1 8.56-8.32m40.079 40.08h31.599v27.518h-31.6zm0 35.518h31.599v27.52h-31.6zm-.64 36h31.999v31.518H63.999a8 8 0 0 1-8-8v-14.4a1.2 1.2 0 0 1 1.44-1.12h33.839a13.44 13.44 0 0 0 12.72-8m71.998-103.28v126.08a8 8 0 0 1-8 8h-23.999V136.05h32v-8h-32v-28h32v-8h-32V64.531h32v-8h-32V24.532h24a8 8 0 0 1 7.999 8.24M91.758 56.051H22.88a6.96 6.96 0 0 0-6.88 6.72v66.718a6.88 6.88 0 0 0 6.88 6.88h68.878a4.8 4.8 0 0 0 4.8-4.8V60.61a4.8 4.8 0 0 0-4.8-4.56m-26.319 62.32-9.44-17.84-9.6 17.84H36.32l13.84-22.32-12.8-22.32H48l8.56 16 9.6-16h9.36L62.16 96.05l14.08 22.24z"/></svg>