<svg xmlns="http://www.w3.org/2000/svg" width="24" height="24" fill="none" viewBox="0 0 24 24"><path fill="#FFF1C0" d="M7.656 3.108a1 1 0 0 1 .414-.058h9v.01H21a1 1 0 0 1 1 1.03v2.97h-4.97v13.88H8a1 1 0 0 1-1-1v-1.8a.15.15 0 0 1 .18-.14h4.23a1.68 1.68 0 0 0 1.373-.64c.172-.218.217-.504.217-.782l-.027-9.103c-.002-.28-.05-.567-.222-.788A1.79 1.79 0 0 0 11.27 6H7.18A.15.15 0 0 1 7 5.8V4.09a1 1 0 0 1 .656-.982"/><path fill="#FFF1C0" d="M21.707 20.557a1 1 0 0 1-.707.293h-3V17h4v2.85a1 1 0 0 1-.293.707"/><path fill="#FFF1C0" fill-rule="evenodd" d="M2.262 7.248A.87.87 0 0 1 2.86 7h8.61a.6.6 0 0 1 .6.57v8.87a.6.6 0 0 1-.6.6H2.86a.86.86 0 0 1-.86-.86V7.84a.87.87 0 0 1 .262-.592m5.98 5.532-.02-3.68H9.4v5.71H8.04l-2.221-3.704.007.207c.007.17.013.342.018.517v2.979H4.67V9.101h1.353L8.24 12.78" clip-rule="evenodd"/><path fill="#FFF1C0" d="M22 8.06v3.44h-4V8.06zM22 16v-3.5h-4V16z"/></svg>