<svg xmlns="http://www.w3.org/2000/svg" width="24" height="24" viewBox="0 0 24 24"><path d="M12.56 2.834A2.917 2.917 0 0 0 9.71 5.75q.009.112.025.223h1.457A1.82 1.82 0 0 1 13.01 7.79v.83a2.92 2.92 0 0 0 2.53-2.87 2.917 2.917 0 0 0-2.98-2.916M19.14 4.5a2.187 2.187 0 1 0 .094 4.374 2.187 2.187 0 0 0-.093-4.374zm-8.39 3.473q.125.099.26.183v-.183ZM13.01 9.5v6.656a1.82 1.82 0 0 1-1.819 1.819H7.896q.044.138.092.275.132.325.313.625c2.189 3.775 7.826 3.127 9.101-1.047a3.2 3.2 0 0 0 .827.318A3.13 3.13 0 0 0 22 15.086v-4.648a.937.937 0 0 0-.937-.938h-4.375z" style="display:inline;fill:#000;fill-opacity:1;stroke-width:.624998"/><g style="display:inline"><path fill="none" d="M-.11.11a.02.02 0 0 0-.017.018v.179q.002.017.018.018H.07Q.087.324.088.307v-.18A.02.02 0 0 0 .07.11z" style="color:#000;display:inline;fill:#000;fill-opacity:0;stroke-width:.0429617;stroke-miterlimit:0;-inkscape-stroke:none;paint-order:fill markers stroke" transform="matrix(46.55304 0 0 46.55309 7.919 1.882)"/></g><path d="M2.799 7A.833.833 0 0 0 2 7.834v8.332a.833.833 0 0 0 .834.834h8.332a.833.833 0 0 0 .834-.834V7.834A.833.833 0 0 0 11.166 7zm1.713 1.879h4.976v1.23H7.62v5.012H6.393V10.11H4.512Z" style="display:inline;stroke-width:2;stroke-miterlimit:0;stroke-dasharray:none;paint-order:fill markers stroke"/><path fill="none" d="M-.127.003h.43v.43h-.43Z" style="display:inline;stroke-width:.0134255" transform="matrix(46.55304 0 0 46.55309 7.919 1.882)"/></svg>