<svg xmlns="http://www.w3.org/2000/svg" viewBox="0 0 24 24"><path d="M12.06 2a3.632 3.632 0 0 0-1.834.461l-.017.01-.09.053-5.455 3.3A3.635 3.635 0 0 0 2.91 8.937v6.125c0 1.272.665 2.452 1.754 3.11l.125.077 1.691 1.023 3.637 2.203a3.633 3.633 0 0 0 3.765 0l5.455-3.302a3.635 3.635 0 0 0 1.75-3.012l.002.02.002-.12V8.937a3.636 3.636 0 0 0-1.754-3.111l-5.455-3.301a3.635 3.635 0 0 0-1.822-.523zM12 8.365c.651 0 1.304.175 1.882.525l1.754 1.06v1.815c0 1.272-.665 2.45-1.754 3.11L12 16.013l-1.882-1.139a3.636 3.636 0 0 1-1.752-3.111V9.948l1.752-1.059A3.637 3.637 0 0 1 12 8.364z"/></svg>