<svg xmlns="http://www.w3.org/2000/svg" data-name="Layer 1" viewBox="0 0 24 24"><path d="M19.463 4.423a.778.778 0 0 0-.759-.795H8.082a.778.778 0 0 0-.759.795v.927h12.14ZM11.115 6.65v-.51H7.323v.466h3.419a1.569 1.569 0 0 1 .373.045M15.3 6.14h-3.396v.988a1.552 1.552 0 0 1 .395 1.035v1.35H15.3Zm-3.001 8.683 1.243.711 1.759-.99v-.475h-3.002zm3.791-8.684h3.373v3.373H16.09zm0 7.141h1.46l1.913-1.076v-1.902H16.09zm-3.791-2.978h3.002v2.978h-3.002zm7.81 2.444-.008.005-5.771 3.245 5.97 3.497V12.42a.377.377 0 0 1-.191.327m-7.81 3.09a1.559 1.559 0 0 1-1.557 1.557H6.486v2.102a.876.876 0 0 0 .875.876h12.075a.869.869 0 0 0 .517-.167l-7.654-4.472Zm-4.557-5.411a1.274 1.274 0 0 0-.815-.25 1.33 1.33 0 0 0-.788.233 1.461 1.461 0 0 0-.503.643 2.554 2.554 0 0 0-.003 1.835 1.449 1.449 0 0 0 .493.637 1.288 1.288 0 0 0 .77.232 1.35 1.35 0 0 0 .822-.24 1.388 1.388 0 0 0 .479-.637 2.473 2.473 0 0 0 .153-.889 2.705 2.705 0 0 0-.144-.9 1.423 1.423 0 0 0-.464-.664"/><path d="M11.51 15.837V8.163a.767.767 0 0 0-.768-.768H3.067a.767.767 0 0 0-.767.768v7.674a.767.767 0 0 0 .767.768h7.675a.767.767 0 0 0 .767-.768m-2.41-2.5a2.265 2.265 0 0 1-.879.957 2.564 2.564 0 0 1-1.337.34 2.52 2.52 0 0 1-1.317-.335 2.246 2.246 0 0 1-.864-.927 2.915 2.915 0 0 1-.302-1.344 3.237 3.237 0 0 1 .297-1.414 2.232 2.232 0 0 1 .877-.969 2.65 2.65 0 0 1 1.393-.349 2.467 2.467 0 0 1 1.288.331 2.212 2.212 0 0 1 .853.925 2.986 2.986 0 0 1 .299 1.36 3.151 3.151 0 0 1-.308 1.424Z"/></svg>