<svg xmlns="http://www.w3.org/2000/svg" width="192" height="192" viewBox="0 0 192 192"><path d="M144 24.439v30.8h32v-22.8a8 8 0 0 0-2.344-5.656A8 8 0 0 0 168 24.439zm-79.44.016a8 8 0 0 0-3.312.456A8 8 0 0 0 56 32.767v13.688a1.2 1.2 0 0 0 1.44 1.6h32.72a14.32 14.32 0 0 1 11.856 5.496c1.376 1.76 1.752 4.056 1.76 6.296l.224 72.824c0 2.224-.36 4.512-1.736 6.256a13.44 13.44 0 0 1-10.984 5.12H57.44a1.2 1.2 0 0 0-1.44 1.12v14.4a8 8 0 0 0 8 8h72.24V24.447zm-41.68 31.6a6.96 6.96 0 0 0-4.784 1.976A6.96 6.96 0 0 0 16 62.767v66.72a6.88 6.88 0 0 0 6.88 6.88h68.88a4.8 4.8 0 0 0 4.8-4.8v-70.96a4.8 4.8 0 0 0-4.8-4.56zM144 63.871v27.528h32v-27.52zm-78.216 8.96h9.424v45.696H64.312l-17.76-29.64.064 1.656.136 4.136v23.832H37.36V72.863h10.832l17.736 29.416h.016zM144 99.415v28h32v-28zm0 36.64v30.8h24a8 8 0 0 0 5.656-2.344 8 8 0 0 0 2.344-5.656v-22.8z"/></svg>