<svg xmlns="http://www.w3.org/2000/svg" viewBox="0 0 24 24"><path d="M2 15.691v.376c0 .475.382.857.857.857h2.937v-1.233zm12.709 0v1.233h6.434a.855.855 0 0 0 .857-.857v-.376zm-8.914 3.194V20.2c0 .38.306.685.685.685h7.543c.38 0 .686-.306.686-.685v-1.315z"/><path d="M5.794 16.143h8.915v2.743H5.794zM4.057 3.177c-.443 0-.8.357-.8.8.008 3.905-.011 7.81 0 11.714h2.537V6.205c0-.38.306-.685.686-.685h7.543c.38 0 .686.305.686.685v9.486h6.034V3.977c0-.443-.357-.8-.8-.8zm4.486 3.057a.229.229 0 0 0-.229.229.229.229 0 0 0 .229.228.229.229 0 0 0 .228-.228.229.229 0 0 0-.228-.229m1.086 0a.228.228 0 1 0 0 .457h2.057a.228.228 0 1 0 0-.457z" opacity=".8"/><path d="M5.794 12h8.915v4.143H5.794z" opacity=".65"/><path d="M5.794 7.52h8.915V12H5.794z" opacity=".5"/><path d="M6.48 5.52a.684.684 0 0 0-.686.686V7.52h8.915V6.206a.684.684 0 0 0-.686-.686zm2.063.714a.229.229 0 0 1 .228.229.229.229 0 0 1-.228.228.229.229 0 0 1-.229-.228.229.229 0 0 1 .229-.229m1.086 0h2.057a.228.228 0 1 1 0 .457H9.629a.228.228 0 1 1 0-.457" opacity=".35"/></svg>