<svg xmlns="http://www.w3.org/2000/svg" width="24" height="24" viewBox="0 0 24 24"><path d="M17.2 12.076c.845-.965 1.445-2.018 1.7-3.005.143-.554.177-1.086.083-1.571-.413-2.147-3.158-2.558-6.143-.93l-.408-2.118-3.158 1.745.511 2.658c.33-.207.655-.341.95-.371 1.007-.104 1.29.992.636 2.447a6 6 0 0 1-.911 1.43l.599 3.115.001.003.01.056.003-.002c.454 2.108 3.204 2.491 6.184.847 2.945-1.627 5.017-4.628 4.713-6.78-.12.859-.97 1.918-2.108 2.547-1.21.667-2.326.622-2.659-.062l-.002-.01zM8.367 13.75c-1.006.103-1.29-.993-.635-2.447a6.2 6.2 0 0 1 1.05-1.59l-.564-2.934L2 10.212l1.797 9.336 6.217-3.433-.546-2.836c-.38.265-.76.435-1.102.471" style="display:inline;fill:#000;fill-opacity:1;stroke-width:.0115489"/></svg>