<svg version="1.1" viewBox="0 0 24 24" xmlns="http://www.w3.org/2000/svg"><path d="m5.1725 11.267v-0.975q0-1.755 0.792-3.208a6.8 6.8 0 0 1 2.134-2.377l-1.828-1.829 0.853-0.878 2.073 2.073a6.75 6.75 0 0 1 5.609 0l2.072-2.073 0.854 0.878-1.829 1.83a6.8 6.8 0 0 1 2.134 2.376q0.792 1.452 0.792 3.208v0.975zm9.754-1.95a0.94 0.94 0 0 0 0.696-0.282 0.94 0.94 0 0 0 0.28-0.694 0.95 0.95 0 0 0-0.28-0.696 0.95 0.95 0 0 0-0.696-0.28 0.94 0.94 0 0 0-0.694 0.28 0.94 0.94 0 0 0-0.281 0.696q0 0.414 0.28 0.694a0.94 0.94 0 0 0 0.695 0.281m-5.852 0a0.94 0.94 0 0 0 0.695-0.28 0.94 0.94 0 0 0 0.28-0.695 0.95 0.95 0 0 0-0.28-0.696 0.95 0.95 0 0 0-0.695-0.28 0.94 0.94 0 0 0-0.695 0.28 0.94 0.94 0 0 0-0.28 0.696q0 0.414 0.28 0.694a0.94 0.94 0 0 0 0.695 0.281m11.938 6.662a9.8 9.8 0 0 0 0.742-3.733h-19.509a9.754 9.754 0 0 0 18.766 3.733m-7.061-3.733h-3.902v4.877h3.902z"/></svg>
