<svg xmlns="http://www.w3.org/2000/svg" viewBox="0 0 24 24"><path d="M5.172 11.267v-.975q0-1.755.792-3.208a6.8 6.8 0 0 1 2.134-2.377L6.27 2.878 7.123 2l2.073 2.073a6.75 6.75 0 0 1 5.609 0L16.877 2l.854.878-1.829 1.83a6.8 6.8 0 0 1 2.134 2.376q.792 1.452.792 3.208v.975zm9.754-1.95a.94.94 0 0 0 .696-.282.94.94 0 0 0 .28-.694.95.95 0 0 0-.28-.696.95.95 0 0 0-.696-.28.94.94 0 0 0-.694.28.94.94 0 0 0-.281.696q0 .414.28.694a.94.94 0 0 0 .695.281m-5.852 0a.94.94 0 0 0 .695-.28.94.94 0 0 0 .28-.695.95.95 0 0 0-.28-.696.95.95 0 0 0-.695-.28.94.94 0 0 0-.695.28.94.94 0 0 0-.28.696q0 .414.28.694a.94.94 0 0 0 .695.281m11.938 6.662a9.8 9.8 0 0 0 .742-3.733H2.245a9.754 9.754 0 0 0 18.766 3.733m-7.061-3.733h-3.902v4.877h3.902z"/></svg>