<svg xmlns="http://www.w3.org/2000/svg" viewBox="0 0 24 24"><path d="M4.368 3.389c-1.266.019-1.392.031-1.66.164a1.24 1.24 0 0 0-.648.834c-.03.135-.057 3.738-.058 8.007-.002 8.799-.057 7.97.548 8.133.391.105 1.831.12 2.278.025.178-.038.382-.118.454-.177.128-.107.13-.168.13-6.88.002-3.725.024-6.772.05-6.772s.168.355.314.788.47 1.382.718 2.107a2960 2960 0 0 1 3.145 9.202c.233.69.48 1.334.547 1.43.21.302.654.385 1.903.36 1.182-.024 1.406-.084 1.582-.424.08-.153.66-1.768 2.721-7.576l.56-1.576c.045-.124.413-1.158.817-2.299l.736-2.073.016 6.767.016 6.766.137.146c.207.22.717.297 1.788.27 1.156-.03 1.418-.124 1.501-.534.029-.14.044-3.716.034-7.946l-.018-7.692c-.08-.381-.27-.698-.651-.875-.311-.144-.348-.155-2.051-.155-1.501 0-1.782.016-2.066.115-.503.176-.82.488-1.112 1.096-.14.29-1.102 2.807-2.14 5.594s-1.904 5.067-1.924 5.067-.273-.645-.56-1.432a4417 4417 0 0 1-2.997-8.284c-.468-1.3-.686-1.619-1.307-1.908-.472-.22-1.225-.292-2.803-.268"/></svg>