<svg xmlns="http://www.w3.org/2000/svg" data-name="Layer 1" viewBox="0 0 192 192"><path d="M170.8 83.65a6.003 6.003 0 1 0-6.002 6.016 5.99 5.99 0 0 0 6.003-6.016m-28.139-34.923-9.115 91.696c2.045.248 5.209 0 5.769-3.23.872-4.921 8.399-81.695 8.399-81.695s1.38-3.62-5.118-6.771zm21.056 47.619s-5.209 1.523-11.98 2.682l-4.232 40.77s-.573 8.685-6.953 8.685h-7.735l-.09.886s-.964 5.977-6.173 6.758-106.033 0-106.033 0-4.258-.781-4.44-4.766 0-86.136 0-86.136a8.62 8.62 0 0 1 7.331-6.055c2.318-.3 19.792-3.177 40.366-6.602l6.875-13.021a7.813 7.813 0 0 1 13.438-.378 7.5 7.5 0 0 0-4.896-2.396h-.703a7.64 7.64 0 0 0-6.77 4.063l-50.654 96.202a7.644 7.644 0 0 0 13.516 7.122l36.46-69.247v57.19a7.565 7.565 0 0 0 7.552 7.539c4.701 0 7.813-5.873 8.074-6.407l20.052-38.686v33.465a7.54 7.54 0 0 0 15.08 0V63.545a7.526 7.526 0 0 0-14.533-2.786l-.117.182-19.675 37.983-4.831 10.157 3.49-12.618V48.831c25.951-4.336 50.067-8.399 50.067-8.399s6.38-1.55 6.77 5.209l-.286 2.851c2.188-.468 12.5-2.252 13.204 6.511l-1.445 20.834s1.77 1.302 9.466-1.719c0 0 10.82-4.297 11.98 6.433 0 0 2.096 10.99-12.175 15.86zm4.427-12.657a3.346 3.346 0 1 1-3.346-3.346 3.346 3.346 0 0 1 3.346 3.307z"/></svg>