<svg xmlns="http://www.w3.org/2000/svg" viewBox="0 0 24 24"><path d="M14.036 21.963c-.335-.105-.657-.312-.728-.466-.052-.115-.073-.74-.073-2.16V17.34l-.2-.031-.448-.07c-.68-.08-1.218-.408-1.77-.77-.523-.344-.931-.77-1.198-1.255-.144-.26-.174-.39-.175-.747 0-.514.094-.736.509-1.182.283-.305.485-.464 1.999-1.58.922-.681 1.535-1.21 1.752-1.511l.172-.239c.774.457 1.183.096 1.197.083.11-.1.123-.072.347.745.4 1.456.748 2.548 1.042 3.27.35.859.4 1.18.255 1.64-.149.475-.861 1.17-1.201 1.316-.087.037-.154.1-.154.209 0 1.36.013.106 0 1.36l-.014 1.315.305.474c.168.261.287.504.265.54-.127.205-1.126-.117-1.258-.406-.045-.1-.07-.682-.07-1.684v-1.533l-.261.034c-.144.018-.27.04-.28.047-.009.008-.03.802-.046 1.766l-.029 1.752.309.49c.17.269.3.517.288.552-.026.08-.332.102-.535.038zm1.227-13.031c-.394-.265-.74-1.007-.832-1.78-.132-1.128.653-2.641 1.37-2.641.394 0 .971.485 1.262 1.06.374.741.38 1.58.014 2.326-.294.6-.991 1.176-1.427 1.176a.854.854 0 0 1-.387-.141zm-3.41-1.602c-.503-.516-1.9-1.935-3.104-3.153C7.544 2.96 6.602 1.98 6.655 2c.053.02.494.137.98.26s1.189.303 1.562.4c.373.099 1.177.307 1.787.464a1207.554 1207.554 0 0 1 3.449.891c.405.105.746.2.758.212.012.012-.117.124-.286.249s-.483.416-.697.647c-.65.706-.989 1.371-1.28 2.515l-.16.63z"/></svg>