<svg xmlns="http://www.w3.org/2000/svg" viewBox="0 0 24 24"><path d="M11.158 21.796c-3.577-1.253-6.271-4.475-7.163-8.567-.15-.687-.172-1.24-.174-4.2V5.621L11.963 2l8.215 3.65-.009 3.347c-.007 2.722-.038 3.499-.166 4.161-.775 4.02-3.683 7.493-7.253 8.665-.73.24-.832.238-1.593-.028zm1.843-2.689c2.324-.967 4.125-3.102 4.824-5.719.187-.7.204-.984.204-3.466V7.219l-2.992-1.33c-2.837-1.262-3.005-1.324-3.271-1.212-.155.065-1.536.677-3.07 1.36L5.91 7.279l.037 2.72c.033 2.414.06 2.8.236 3.44.712 2.578 2.44 4.631 4.742 5.635.412.18.888.327 1.058.327.171 0 .63-.131 1.019-.294z"/></svg>