<svg xmlns="http://www.w3.org/2000/svg" xml:space="preserve" width="24" height="24" fill="none" viewBox="0 0 24 24"><path fill="#000" fill-rule="evenodd" d="M12 2a3.414 3.414 0 0 0-2.884 5.236l-1.88 1.88A3.414 3.414 0 0 0 2 12a3.414 3.414 0 0 0 6.742.75h6.516c.087.387.24.749.445 1.074l-1.88 1.88a3.414 3.414 0 0 0-5.236 2.884A3.415 3.415 0 0 0 12 22a3.414 3.414 0 0 0 2.884-5.236l1.88-1.88A3.414 3.414 0 0 0 22 12a3.414 3.414 0 0 0-6.742-.75H8.742a3.392 3.392 0 0 0-.445-1.074l1.88-1.88a3.414 3.414 0 0 0 5.236-2.884A3.414 3.414 0 0 0 12 2" clip-rule="evenodd"/></svg>