<svg xmlns="http://www.w3.org/2000/svg" width="192" height="192" viewBox="0 0 192 192"><path d="M80 32H32c-8.8 0-15.92 7.2-15.92 16L16 144c0 8.8 7.2 16 16 16h128c8.8 0 16-7.2 16-16V64c0-8.8-7.2-16-16-16H96zM48 80h8.912v.216l.296-.216 10.6 14.6 10.6-14.6.296.216V80h8.912v56.96a4.456 4.456 0 1 1-8.912 0V94.768l-6.96 9.576a3.96 3.96 0 1 1-7.88 0l-6.952-9.576v42.184a4.456 4.456 0 0 1-8.912 0zm68.84 14.856a4.456 4.456 0 0 1-4.456-4.456V80H152v10.4a4.456 4.456 0 1 1-8.912 0v-2.48h-6.936v53.488h-8.912v-53.48h-5.944V90.4c0 2.464-2 4.456-4.456 4.456"/></svg>