<svg xmlns="http://www.w3.org/2000/svg" viewBox="0 0 24 24"><path d="M5.165 2c-1.105.02-2.11.91-2.11 2.146v15.708c0 1.65 1.786 2.68 3.216 1.855l6.8-3.926 6.801-3.926c1.43-.825 1.43-2.89 0-3.714L6.27 2.29A2.13 2.13 0 0 0 5.165 2m4.19 4.502a.6.6 0 0 1 .31.06c2 1.05 2.95 2.948 3.4 4.512.074.49-.585.717-.828.285a7.2 7.2 0 0 0-1.585-1.572c-.226-.159-.42-.046-.42.23v5.878c0 1.162-1.088 2.105-2.43 2.105s-2.43-.943-2.43-2.105c0-1.163 1.088-2.106 2.43-2.106.334 0 .666.06.973.176V7.148a.623.623 0 0 1 .58-.646"/></svg>