<svg xmlns="http://www.w3.org/2000/svg" viewBox="0 0 24 24"><path d="M12 3.022A8.979 8.979 0 0 0 3.022 12 8.979 8.979 0 0 0 12 20.979 8.979 8.979 0 0 0 20.979 12 8.979 8.979 0 0 0 12 3.022zM8.918 4.494A1.026 1.026 0 0 1 9.945 5.52a1.026 1.026 0 0 1-1.027 1.027A1.026 1.026 0 0 1 7.893 5.52a1.026 1.026 0 0 1 1.025-1.026M12 8.922A3.079 3.079 0 0 1 15.078 12 3.079 3.079 0 0 1 12 15.078 3.079 3.079 0 0 1 8.922 12 3.079 3.079 0 0 1 12 8.922m3.826 6.219 2.889 1.666-2.889 1.668z" opacity=".4"/><path d="M12 4.291a7.68 7.68 0 0 0-2.47.408 1.026 1.026 0 0 1 .415.82 1.026 1.026 0 0 1-.007.126A6.69 6.69 0 0 1 12 5.318 6.674 6.674 0 0 1 18.682 12a6.656 6.656 0 0 1-1.338 4.016l.888.513A7.666 7.666 0 0 0 19.71 12c0-4.25-3.458-7.708-7.709-7.708zM7.895 5.479A7.71 7.71 0 0 0 4.29 12c0 4.252 3.458 7.709 7.709 7.709a7.68 7.68 0 0 0 5.217-2.037l-1.39.803v-.995A6.653 6.653 0 0 1 12 18.682 6.674 6.674 0 0 1 5.318 12a6.67 6.67 0 0 1 3.053-5.613 1.026 1.026 0 0 1-.478-.867 1.026 1.026 0 0 1 .002-.041z" opacity=".6"/><path d="M7.897 5.475a7.717 7.717 0 0 0-3.047 9.408 7.717 7.717 0 0 0 8.761 4.656 4.2 4.2 0 0 0 3.178 1.482 4.2 4.2 0 0 0 4.2-4.2 4.2 4.2 0 0 0-4.2-4.202 4.2 4.2 0 0 0-4.201 4.201 4.2 4.2 0 0 0 .416 1.787 6.676 6.676 0 0 1-7.201-4.11 6.674 6.674 0 0 1 2.57-8.109 1.026 1.026 0 0 1-.48-.869 1.026 1.026 0 0 1 .003-.045zm7.93 9.666 2.888 1.666-2.889 1.668z"/></svg>