<svg xmlns="http://www.w3.org/2000/svg" viewBox="0 0 24 24"><path d="M15.219 2c-.2-.002-.4.01-.592.04a1.311 1.311 0 0 0-.25.034c-.063.017-.507.169-1.157.396h-.008l-1.027.363c-.502.176-1.04.366-1.619.572l-.929.329C7.671 4.429 5.962 5.044 5.84 5.1c-.577.265-1.275.865-1.649 1.42-.609.905-.844 2.133-.605 3.163.033.139 1.018 2.967 2.19 6.285S7.915 22 7.928 22s.07-.2.127-.444c.14-.591.325-1.084.69-1.836.338-.696.7-1.301 1.103-1.844l.27-.364.124.084c1.014.679 2.534.524 3.344-.342.203-.216.311-.409.948-1.679l.719-1.434 1.357-.48c.747-.263 1.48-.54 1.63-.616a4.232 4.232 0 0 0 1.59-1.401c.626-.94.836-2.188.553-3.267-.109-.417-1.307-3.772-1.463-4.1-.293-.614-.824-1.212-1.425-1.606-.201-.133-.276-.175-.388-.19a4.298 4.298 0 0 0-1.888-.48zm-.365.236c.137-.002.322-.02.595-.002.578.04.695.087.978.187.504.179 1.248.44 1.808 1.222.198.231.362.477.49.731.21.42 1.438 3.943 1.503 4.32a3.93 3.93 0 0 1-.533 2.743c-.36.585-1.031 1.184-1.641 1.463-.19.087-2.603.954-2.655.954-.013 0 .757-1.562 1.711-3.47a437.739 437.739 0 0 0 1.735-3.488c0-.039-1.822-.019-2.05.022-.52.094-1.143.502-1.416.928-.067.104-.858 1.827-1.758 3.83-.961 2.137-1.67 3.667-1.719 3.708a.299.299 0 0 1-.152.068.3.3 0 0 1-.151-.068c-.048-.04-.791-1.618-1.753-3.722-1.169-2.555-1.72-3.718-1.833-3.868a2.28 2.28 0 0 0-.769-.621c-.368-.185-.615-.218-1.646-.218-.521 0-.942.012-.935.028C4.67 7 5.81 9.28 7.2 12.05c1.388 2.77 2.577 5.097 2.643 5.172l.119.136-.193.245c-.694.886-1.544 2.5-1.803 3.423a1.04 1.04 0 0 1-.072.203c-.022.027-3.9-10.894-4.067-11.454-.066-.221-.132-.353-.135-.9-.003-.58.06-.734.14-1.024a3.963 3.963 0 0 1 .957-1.707c.35-.368.665-.604 1.076-.804.182-.089 2.044-.766 4.137-1.505l.345-.122c.167-.059.317-.111.48-.17l1.146-.404c1.353-.474 2.392-.829 2.535-.862a1.59 1.59 0 0 1 .347-.04z"/></svg>