<svg version="1.1" viewBox="0 0 192 192" xmlns="http://www.w3.org/2000/svg"><path d="m94.204 19a77 77 0 0 0-77 77 77 77 0 0 0 77 77 77 77 0 0 0 77-77 77 77 0 0 0-77-77m27.271 7.1867c2.0533 0 4.1708 0.1925 5.5183 0.64167-13.924 2.8875-25.025 15.849-24.961 30.672 0 0.32083 0 0.70583 0.0642 1.0908 23.357 5.7108 33.816 19.763 33.816 39.206 0.25667 19.443-15.143 40.81-41.131 40.874-20.983 0.06417-42.863-17.902-42.992-46.713-0.064166-19.058 10.331-37.409 23.421-48.253 12.833-10.652 30.351-17.453 46.264-17.518z"/></svg>
