<svg xmlns="http://www.w3.org/2000/svg" viewBox="0 0 24 24"><path d="M13.41 3c-.625-.002-1.738.275-2.748.707-1.078.46-2.014 1.183-2.424 1.552-.82.74-1.286 1.505-1.234 2.336.007.33.142.591.408.8.272.196.585.29.924.28.783-.053 1.261-.19 2.094-.705.832-.515 2.087-1.281 3.097-1.681.332-.136.641-.174.932-.092.29.082.51.224.627.468.21.568.163 1.192-.133 1.723a7.546 7.546 0 0 1-2.068 2.482 7.153 7.153 0 0 1-2.221 1.328c-.472.124-.525-.053-.527-.162a.552.552 0 0 1 .15-.402c.238-.263.73-.75 1.063-1.07.194-.196.403-.338.375-.676-.029-.34-.394-.651-.819-.639-.424.014-.764.193-1.043.38-.278.189-.455.41-.681.741-.227.332-.783 1.369-.268 2.15.226.325.591.511.996.48a3.862 3.862 0 0 0 1.197-.25c1.275-.512 2.333-1.272 3.336-2.11 1.068-.83 1.85-1.89 2.293-3.14.275-.748.374-1.603.112-2.284C16.2 3.576 14.688 3.09 13.41 3zM7.578 14a.793.793 0 0 0-.81.776c-.061 1.093 1.658 1.093 1.597 0a.73.73 0 0 0-.219-.531.791.791 0 0 0-.568-.245zm6.27.5-1.292.3v4.626c0 1.033.613 1.574 1.641 1.574.161-.002.322-.01.48-.037v-.828h-.181c-.542-.018-.649-.313-.649-.65v-2.602h.83V16h-.83zm7.335 0-1.271.3v4.6c0 1.086.6 1.6 1.605 1.6.163-.004.323-.018.483-.047v-.828a1.74 1.74 0 0 1-.186-.002c-.524-.04-.63-.265-.63-.643zM4.206 16c-.751-.007-1.293.306-1.84.567l.337.72.19-.086a2.88 2.88 0 0 1 1.194-.261c.457.016.645.216.645.626v.24H3.97c-1.203 0-1.95.601-1.97 1.534.014.953.866 1.71 1.876 1.66A3.055 3.055 0 0 0 6 20.254v-2.541C5.757 16.539 4.956 16 4.206 16zm3.979 0-1.25.17V21h1.25zm3.168 0c-.793 0-1.604.432-2.152 1.01V21h1.273v-3.762a1.52 1.52 0 0 1 .863-.308 1.73 1.73 0 0 1 .51.07l.354-.767C11.75 16 11.645 16 11.353 16zm5.836 0c-1.48 0-2.058 1.258-2.069 2.516-.03.775.287 1.524.868 2.05.383.292.859.447 1.343.434a3.1 3.1 0 0 0 .895-.133c.336-.104.656-.255.947-.45l-.355-.72c-.4.27-.873.416-1.358.42a.951.951 0 0 1-.728-.272c-.227-.25-.329-.738-.301-1.263h2.715v-.123c-.023-1.75-.63-2.459-1.957-2.459zm0 .998c.56 0 .64.38.64.75h-1.36c.027-.477.221-.75.72-.75zM4.212 18.594h.51l-.006 1.41a1.285 1.285 0 0 1-.655.156c-.51 0-.736-.369-.726-.799-.006-.447.393-.762.877-.767z"/></svg>