<svg xmlns="http://www.w3.org/2000/svg" viewBox="0 0 24 24"><path d="M13.688 2c-1.259 0-2.638.513-4.1 1.529l-.045.03-.008.006a3.46 3.46 0 0 0-.13.088c-.033.027-.07.053-.113.083a8.442 8.442 0 0 0-.85.696c-.617.633-1.321 1.69-1.279 2.59.019.38.17.69.447.921.249.207.562.312.928.312.749 0 1.57-.431 2.131-.796a1.3 1.3 0 0 1 .107-.076l.294-.208.095-.069c.797-.566 1.62-1.152 2.553-1.493.243-.089.453-.13.647-.13.096 0 .19.01.28.032.283.069.49.24.614.506.214.467.163 1.205-.13 1.873-.4.915-1.088 1.818-2.043 2.682-.488.44-.937.781-1.337 1.01l-.036.021c-.187.11-.397.233-.62.32l-.03.013c-.065.026-.122.05-.174.067-.934.265-.366-.606-.366-.606.206-.259.416-.467.638-.684l.388-.395.03-.032c.162-.173.386-.409.373-.748-.02-.451-.45-.733-.857-.745h-.029c-.39 0-.76.244-1.001.446a3.46 3.46 0 0 0-.67.802c-.249.417-.772 1.483-.263 2.334.204.34.545.512 1.012.512.326 0 .712-.084 1.147-.25l.004-.006c.65-.248 1.167-.594 1.661-.928l.136-.088a12.615 12.615 0 0 0 1.572-1.254c1.172-1.085 1.876-2.15 2.279-3.45.164-.529.394-1.555.112-2.52a3.254 3.254 0 0 0-1.195-1.718c-.067-.06-.796-.677-2.172-.677zM7.652 14.93c-.42 0-.75.35-.75.796 0 .439.341.795.76.795a.716.716 0 0 0 .535-.239.805.805 0 0 0 .206-.561c0-.443-.33-.791-.75-.791zm13.137.61-1.183.214v4.63c0 1.097.563 1.567 1.504 1.567.2 0 .452-.05.452-.05v-.785s-.112.003-.18-.003c-.49-.04-.593-.268-.593-.648zm-6.872.007-1.21.206v4.652c0 1.042.575 1.536 1.539 1.536.231 0 .449-.047.449-.047v-.774c-.013-.001-.102-.001-.17-.004-.508-.018-.608-.316-.608-.658v-2.617h.778v-.92h-.778zm-9.426 1.284c-.564 0-1.07.168-1.59.444l-.134.07.317.75.18-.09c.367-.175.76-.292 1.114-.276.427.018.603.226.603.66v.254H4.28c-1.124 0-1.823.631-1.843 1.61 0 .932.733 1.734 1.752 1.734.822 0 1.518-.282 1.988-.78V18.55c0-1.294-.872-1.718-1.687-1.718zm6.722.013c-.517 0-1.313.16-2.029.968l-.001 4.09h1.203v-3.85c.157-.162.49-.305.807-.318.293-.012.483.052.483.052l.333-.79c-.13-.069-.437-.152-.796-.152zm5.835.026c-1.387 0-1.927 1.352-1.938 2.622-.008.802.278 1.612.801 2.072.32.281.76.436 1.272.436.28 0 .57-.043.838-.131.51-.167.887-.457.887-.457l-.333-.725a2.2 2.2 0 0 1-1.27.424h-.002c-.323 0-.542-.114-.685-.277-.211-.244-.307-.742-.28-1.272h2.544v-.125c-.023-1.764-.59-2.567-1.834-2.567zm-8.808.05-1.18.203v4.771h1.18zm8.808.88c.524 0 .602.603.602.978h-1.278c.02-.482.21-.978.676-.978M4.505 19.49h.473v1.468c-.117.086-.354.16-.613.16-.474 0-.688-.385-.68-.834.009-.371.228-.794.82-.794z"/></svg>