<svg xmlns="http://www.w3.org/2000/svg" width="192" height="192" viewBox="0 0 192 192"><path d="M89.066 26.705a23.485 23.485 0 0 0-15.789 4.743c-11.583-7.892-35.528-4.743-47.103 10.251-10.265 13.42-14.203 33.693-4.993 61.316 11.32 33.678 45.79 55.256 67.885 60.52 21.504 4.889 42.525.453 48.788-20.22a15.976 15.976 0 0 1-2.153.094 15.178 15.178 0 0 1-9.47-3.058 22.048 22.048 0 0 1-12.435 10.812c-14.475 5.528-37.618-6.831-44.201-18.941-7.365-13.42-6.054-25.78.265-27.881 2.86-.831 4.217.396 6.693 2.777a82.519 82.519 0 0 0 51.05 19.58h.14v.017a154.17 154.17 0 0 0 28.802-.39 27.879 27.879 0 0 0 18.566-33.56c-3.954-21.576-17.363-28.68-27.101-27.896a27.959 27.959 0 0 0-16.585 9.205 63.906 63.906 0 0 0-8.067-4.213 23.326 23.326 0 0 0-16.413 1.779l-.452.234A27.639 27.639 0 0 0 93.98 85.307h-.016l-.016.016a28.758 28.758 0 0 1-8.924-4.01A29.908 29.908 0 1 1 79.86 46.83a24.764 24.764 0 0 1 12.887-8.815 23.725 23.725 0 0 1 16.725 1.373 24.284 24.284 0 0 0-20.407-12.684zm10.032 13.777a21.568 21.568 0 0 0-5.492.733 20.769 20.769 0 0 0-11.639 8.067 29.956 29.956 0 0 1 4.431 28.848 21.568 21.568 0 0 0 6.725 3.495 27.719 27.719 0 0 1 12.107-12.046l.436-.25a27.959 27.959 0 0 1 13.621-2.854 21.568 21.568 0 0 0 0-10.5 20.929 20.929 0 0 0-20.189-15.493zm-38.927.67a26.713 26.713 0 0 0-3.791.032h-.281a26.681 26.681 0 1 0 29.02 24.402A26.713 26.713 0 0 0 60.17 41.153zm41.533 13.185a6.31 6.31 0 0 1 6.303 6.319 6.39 6.39 0 0 1-6.303 6.303h-.016a6.311 6.311 0 0 1 .016-12.622m-42.11 5.523a8.156 8.156 0 0 1 8.16 8.16 8.196 8.196 0 0 1-8.16 8.16 8.16 8.16 0 1 1 0-16.32zm92.723 25.509a6.369 6.369 0 1 1 1.467 12.653 6.031 6.031 0 0 1-6.834-5.258 6.367 6.367 0 0 1 5.367-7.395zm-34.044 2.902a7.19 7.19 0 0 1 7.63 6.054 6.415 6.415 0 0 1-6.304 7.114 6.87 6.87 0 0 1-7.645-6.054 6.415 6.415 0 0 1 6.319-7.114M75.601 111.58a7.876 7.876 0 0 0 2.153 9.86 7.27 7.27 0 0 0 9.673-1.763 52.722 52.722 0 0 1-11.826-8.097m12.934 9.065c-.799 2.892-.262 10.27 5.258 12.107h.016a9.961 9.961 0 0 0 12.014-5.539 87.871 87.871 0 0 1-12.81-4.462c-.359-.152-.662-.308-1.013-.468a63.906 63.906 0 0 1-2.325-1.077l-.421-.202zm18.676 7.317a9.139 9.139 0 0 0 7.115 10.734 10.225 10.225 0 0 0 10.516-8.066 84.675 84.675 0 0 1-17.63-2.668zm19.815 2.855a7.908 7.908 0 0 0 8.69 8.27 8.947 8.947 0 0 0 9.533-8.051 77.486 77.486 0 0 1-18.223-.219z"/></svg>