<svg xmlns="http://www.w3.org/2000/svg" width="24" height="24" viewBox="0 0 24 24"><path d="M21.918 11.593c-.495-2.701-2.174-3.59-3.393-3.492a3.5 3.5 0 0 0-2.075 1.153 8 8 0 0 0-1.01-.527 2.92 2.92 0 0 0-2.056.222l-.056.03a3.46 3.46 0 0 0-1.567 1.681h-.002l-.001.002a3.6 3.6 0 0 1-1.118-.502 3.744 3.744 0 1 1-.646-4.316 3.1 3.1 0 0 1 1.613-1.103 2.97 2.97 0 0 1 2.094.172 3.04 3.04 0 0 0-2.555-1.588 2.94 2.94 0 0 0-1.976.593c-1.45-.988-4.447-.593-5.896 1.284-1.285 1.68-1.779 4.217-.626 7.675 1.417 4.216 5.732 6.917 8.498 7.576 2.692.612 5.324.056 6.108-2.532a2 2 0 0 1-.27.012 1.9 1.9 0 0 1-1.186-.383 2.76 2.76 0 0 1-1.555 1.355c-1.812.692-4.71-.856-5.534-2.372-.922-1.68-.758-3.228.033-3.491.358-.104.528.05.838.348a10.33 10.33 0 0 0 6.39 2.452h.018v.001a19.3 19.3 0 0 0 3.606-.049 3.49 3.49 0 0 0 2.324-4.201m-6.95 1.087a.86.86 0 0 1-.956-.758.803.803 0 0 1 .79-.89.9.9 0 0 1 .956.758.803.803 0 0 1-.79.89m4.281-.429a.755.755 0 0 1-.856-.658.797.797 0 1 1 .856.658"/><path d="M18.18 16.385a1.12 1.12 0 0 1-1.193 1.007.99.99 0 0 1-1.089-1.035 9.7 9.7 0 0 0 2.282.028m-8.45-1.202a.91.91 0 0 0 1.211-.221 6.6 6.6 0 0 1-1.48-1.013.986.986 0 0 0 .269 1.234m2.01 1.417a1.247 1.247 0 0 0 1.504-.693 11 11 0 0 1-1.603-.56c-.045-.019-.083-.038-.127-.058a8 8 0 0 1-.292-.135l-.053-.026-.088-.044c-.1.362-.033 1.285.658 1.515m2.57.745a1.28 1.28 0 0 0 1.316-1.01A10.6 10.6 0 0 1 13.418 16a1.144 1.144 0 0 0 .89 1.344m.622-10.356a2.62 2.62 0 0 0-2.528-1.94 2.7 2.7 0 0 0-.688.092 2.6 2.6 0 0 0-1.456 1.01 3.75 3.75 0 0 1 .554 3.612 2.7 2.7 0 0 0 .842.438 3.47 3.47 0 0 1 1.515-1.509l.056-.03a3.5 3.5 0 0 1 1.705-.358 2.7 2.7 0 0 0 0-1.315m-2.203 1.376a.79.79 0 1 1 .791-.79.8.8 0 0 1-.79.79"/><path d="M10.652 8.191a3.344 3.344 0 0 0-3.598-3.055H7.02a3.34 3.34 0 1 0 3.632 3.055M7.457 9.517a1.021 1.021 0 1 1 1.021-1.02 1.026 1.026 0 0 1-1.02 1.02Z"/></svg>