<svg xmlns="http://www.w3.org/2000/svg" viewBox="0 0 24 24"><path d="M19.025 2.761c-.677 0-1.36.105-2.007.313-.91.292-1.892.784-2.44 1.224-1.04.834-1.796 2.147-2.065 3.58a3.014 3.014 0 0 1-.05.235 2.994 2.994 0 0 1-.182.145l-.175.133-.193-.026c-1.119-.153-2.543-.002-3.939.419a12.7 12.7 0 0 0-2.15.879 12.83 12.83 0 0 0-1.448.856c-.75.505-1.52 1.245-1.917 1.843-.426.641-.556 1.332-.388 2.048.045.191.216.576.311.7.218.284.473.465.816.582.482.164 1.033.15 1.592-.039.193-.065.575-.258.715-.362.48-.356.901-.823 2.088-2.32.268-.336.802-.966 1.145-1.346 1.197-1.33 2.12-2.015 2.803-2.08a1.24 1.24 0 0 1 .664.123l.105.055-.008.524c-.015.933.019 1.572.135 2.536.154 1.284.376 2.273.727 3.242.22.606.63 1.529.878 1.973.464.831 1.036 1.562 1.646 2.104 1.007.896 2.11 1.298 2.953 1.077.125-.032.453-.19.55-.264.585-.445.915-1.344.908-2.473-.008-1.152-.28-2.2-.893-3.447a13.839 13.839 0 0 0-1.195-2 14.155 14.155 0 0 0-2.617-2.85c-.94-.783-1.435-1.113-2.102-1.398l-.142-.061.038-.147c.02-.08.088-.297.152-.482l.115-.334.132-.052c.745-.294 1.614-.556 2.628-.793 1.575-.368 2.753-.685 3.547-.956.778-.265 1.446-.592 1.787-.875.336-.28.497-.62.44-.934a1.281 1.281 0 0 0-.088-.239.936.936 0 0 0-.168-.264c-.308-.352-.82-.602-1.506-.735a6.308 6.308 0 0 0-1.202-.114zm-.007.03a5.32 5.32 0 0 1 .465.017c1.11.09 1.825.36 2.247.843.114.131.222.363.235.504.03.317-.136.633-.473.902-.33.263-1 .588-1.705.828-.731.249-1.831.551-3.097.851-1.138.27-1.446.35-1.999.52-.547.167-.938.31-1.196.434-.1.049-.163.082-.14.075.04-.012.038.001-.065.3a7.871 7.871 0 0 0-.179.584c-.004.011-.022.014-.047.007-.055-.017-.04.008.02.034.915.4 1.265.627 2.354 1.53 1.102.912 2.117 2.081 2.976 3.428.56.877 1.043 1.858 1.289 2.615.306.941.424 1.912.335 2.748-.09.838-.37 1.472-.813 1.837-.476.391-1.161.464-1.913.205-1.008-.347-1.965-1.153-2.793-2.352-.53-.767-1.022-1.8-1.436-3.016-.415-1.215-.726-3.252-.745-4.871-.002-.157 0-.47.006-.697l.01-.411-.062-.037a1.163 1.163 0 0 0-.61-.17c-.422-.007-.877.196-1.47.654-.76.588-1.684 1.572-2.822 3.01-1.033 1.303-1.402 1.713-1.87 2.071-.2.154-.556.336-.803.411-.97.296-1.869.073-2.325-.575-.246-.35-.376-.841-.36-1.352.026-.773.418-1.48 1.277-2.294.647-.615 1.301-1.077 2.287-1.617a18.37 18.37 0 0 1 1.344-.632 11.772 11.772 0 0 1 3.25-.8 8.363 8.363 0 0 1 1.875.038c.053.006.058.003.239-.131.163-.122.185-.144.197-.191l.06-.281a6.232 6.232 0 0 1 1.195-2.628 4.962 4.962 0 0 1 1.44-1.271 15.66 15.66 0 0 1 1.443-.68c.272-.098.68-.223.864-.264a7.284 7.284 0 0 1 1.515-.176zm0 0a7.287 7.287 0 0 0-1.515.176 9.457 9.457 0 0 0-.864.264 15.67 15.67 0 0 0-1.443.68 4.964 4.964 0 0 0-1.44 1.271A6.23 6.23 0 0 0 12.56 7.81c-.025.125-.052.252-.059.28-.011.048-.034.07-.197.191-.18.135-.186.138-.24.132a14.74 14.74 0 0 1-.29-.035 8.357 8.357 0 0 0-1.584-.004c-1.061.098-2.19.376-3.25.8-.317.128-1.054.475-1.344.633-.986.54-1.64 1.002-2.287 1.617-.858.815-1.251 1.52-1.277 2.294-.016.51.114 1.001.36 1.351.456.65 1.356.872 2.325.576.247-.075.604-.258.804-.41.467-.36.837-.769 1.87-2.073 1.138-1.437 2.061-2.421 2.822-3.01.592-.457 1.048-.66 1.47-.652.233.004.42.056.61.169l.06.037-.01.411c-.004.227-.007.54-.005.697.02 1.618.33 3.656.745 4.871.414 1.216.906 2.249 1.436 3.016.828 1.198 1.786 2.005 2.793 2.352.752.26 1.437.186 1.912-.205.444-.365.724-.999.814-1.837.09-.836-.03-1.807-.335-2.748-.246-.757-.73-1.738-1.288-2.615-.86-1.347-1.875-2.516-2.977-3.429-1.09-.902-1.439-1.13-2.353-1.529-.06-.026-.075-.051-.02-.034.024.007.043.004.047-.007a7.888 7.888 0 0 1 .178-.584c.103-.299.106-.312.065-.3-.023.008.04-.026.14-.075.258-.125.65-.267 1.196-.434.553-.17.86-.25 2-.52 1.265-.3 2.365-.602 3.096-.851.706-.24 1.376-.565 1.705-.828.337-.269.503-.585.474-.902a1.09 1.09 0 0 0-.236-.504c-.422-.484-1.137-.752-2.247-.843a5.33 5.33 0 0 0-.465-.017z"/></svg>