<svg xmlns="http://www.w3.org/2000/svg" width="24" height="24"><path fill="#fff" d="M17.914 15.416c-.96 0-1.63-.71-1.63-1.722 0-.998.684-1.708 1.63-1.708s1.629.71 1.629 1.722c0 .985-.697 1.708-1.63 1.708zm.026-5.624c-2.47 0-4.113 1.564-4.113 3.902 0 2.393 1.577 3.93 4.074 3.93 2.47 0 4.099-1.538 4.099-3.916 0-2.34-1.616-3.916-4.06-3.916m-6.36-3.416c-.932 0-1.524.525-1.524 1.354 0 .841.605 1.366 1.564 1.366.933 0 1.524-.525 1.524-1.366s-.604-1.354-1.563-1.354zm.158 3.496h-.302c-.736 0-1.3.341-1.3 1.405v4.822c0 1.064.537 1.405 1.326 1.405h.302c.736 0 1.261-.368 1.261-1.405v-4.822c.014-1.091-.498-1.405-1.287-1.405M7.795 7.598h-.433c-.829 0-1.276.472-1.276 1.405v4.495c0 1.155-.394 1.563-1.313 1.563-.722 0-1.314-.314-1.774-.893-.039-.066-.999.394-.999 1.51 0 1.21 1.13 1.946 3.22 1.946 2.55 0 3.89-1.276 3.89-4.088V8.991c0-.933-.448-1.392-1.315-1.392z" style="fill:#000;fill-opacity:1;stroke:none;stroke-width:1.01374;stroke-miterlimit:4;stroke-dasharray:none"/></svg>