<svg xmlns="http://www.w3.org/2000/svg" width="192" height="192" viewBox="0 0 192 192"><path d="M143.31 123.33c-7.68 0-13.04-5.68-13.04-13.776 0-7.984 5.472-13.664 13.04-13.664s13.032 5.68 13.032 13.776c0 7.88-5.576 13.664-13.04 13.664zm.208-44.992c-19.76 0-32.904 12.512-32.904 31.216 0 19.144 12.616 31.44 32.592 31.44 19.76 0 32.792-12.304 32.792-31.328 0-18.72-12.928-31.328-32.48-31.328M92.638 51.01c-7.456 0-12.192 4.2-12.192 10.832 0 6.728 4.84 10.928 12.512 10.928 7.464 0 12.192-4.2 12.192-10.928S100.318 51.01 92.646 51.01zm1.264 27.968h-2.416c-5.888 0-10.4 2.728-10.4 11.24v38.576c0 8.512 4.296 11.24 10.608 11.24h2.416c5.888 0 10.088-2.944 10.088-11.24V90.218c.112-8.728-3.984-11.24-10.296-11.24M62.358 60.786h-3.464c-6.632 0-10.208 3.776-10.208 11.24v35.96c0 9.24-3.152 12.504-10.504 12.504-5.776 0-10.512-2.512-14.192-7.144-.312-.528-7.992 3.152-7.992 12.08 0 9.68 9.04 15.568 25.76 15.568 20.4 0 31.12-10.208 31.12-32.704V71.93c0-7.464-3.584-11.136-10.52-11.136z"/></svg>