<svg xmlns="http://www.w3.org/2000/svg" width="192" height="192" viewBox="0 0 192 192"><path d="M61.441 42.265c7.208-.2 26.8 28.449 38.169 59.665 10.808 29.721 8.208 44.057-.28 47.169h-.016c-8.488 3.08-19.688-6.232-30.521-35.977a224 224 0 0 1-7.392-25.12c-3.992-17.304-7.632-45.521.032-45.737z" opacity=".6"/><path d="M130.69 42.281c-7.216-.2-26.808 28.449-38.177 59.665-10.808 29.721-8.208 44.057.28 47.177h.016c8.496 3.072 19.688-6.24 30.521-35.977a224 224 0 0 0 7.392-25.12c3.992-17.312 7.632-45.537-.032-45.745" opacity=".6"/><path d="M130.69 42.289c-7.664.208-4.024 28.425-.032 45.737 1.976 8.424 4.472 17.096 7.392 25.112 10.832 29.745 22.032 39.057 30.521 35.985h.016c8.48-3.12 11.088-17.456.28-47.177-11.368-31.217-30.96-59.857-38.177-59.657m-69.377.032c-7.224-.2-26.808 28.441-38.177 59.657-10.808 29.721-8.208 44.057.28 47.177h.016c8.488 3.072 19.68-6.232 30.521-35.969 2.92-8.016 5.408-16.704 7.384-25.128 4-17.312 7.64-45.529-.024-45.737" opacity=".8"/></svg>