<svg xmlns="http://www.w3.org/2000/svg" viewBox="0 0 24 24"><path d="M7.68 5.286c.901-.025 3.35 3.556 4.771 7.458 1.351 3.715 1.026 5.507-.035 5.896h-.002c-1.061.385-2.461-.779-3.815-4.497a27.97 27.97 0 0 1-.924-3.14c-.499-2.163-.954-5.69.004-5.717z" opacity=".6"/><path d="M16.336 5.288c-.902-.025-3.351 3.556-4.772 7.458-1.351 3.715-1.026 5.507.035 5.897h.002c1.062.384 2.461-.78 3.815-4.497a27.97 27.97 0 0 0 .924-3.14c.499-2.164.954-5.692-.004-5.718" opacity=".6"/><path d="M16.336 5.289c-.958.026-.503 3.553-.004 5.717.247 1.053.559 2.137.924 3.139 1.354 3.718 2.754 4.882 3.815 4.498h.002c1.06-.39 1.386-2.182.035-5.897-1.421-3.902-3.87-7.482-4.772-7.457zm-8.672.004c-.903-.025-3.351 3.555-4.772 7.457-1.351 3.715-1.026 5.507.035 5.897h.002c1.061.384 2.46-.779 3.815-4.496.365-1.002.676-2.088.923-3.141.5-2.164.955-5.691-.003-5.717z" opacity=".8"/></svg>