<svg xmlns="http://www.w3.org/2000/svg" viewBox="0 0 24 24"><path d="M2.874 15.544c.494-1.865.933-3.51.975-3.654.194-.667 1.818-6.8 1.818-6.866 0-.064 1.164 0 8.176 0 5.43 0 8.17-.035 8.157 0-.041.107-1.83 6.817-1.845 6.918a.873.873 0 0 1-.049.184c-.081.192-1.82 6.813-1.802 6.86.014.037-2.6.01-8.103 0-5.336-.008-8.146.036-8.197 0-.05-.035.375-1.577.87-3.442zm9.991-1.922 2.335-2.468-1.165-.015c-.644-.008-1.165-.035-1.165-.061 0-.026.307-.906.682-1.955.375-1.049.675-1.914.666-1.923-.009-.01-1.23 1.267-2.714 2.836L8.805 12.89l1.165.014c.64.008 1.165.035 1.165.06 0 .027-.299.884-.664 1.906a281.734 281.734 0 0 0-.688 1.937c-.03.1.246-.185 3.082-3.184z"/></svg>