<svg xmlns="http://www.w3.org/2000/svg" viewBox="0 0 24 24"><path d="M4.464 21.941a1.85 1.85 0 0 1-.942-.615c-.417-.548-.396-.035-.396-9.324s-.021-8.776.395-9.324c.112-.149.356-.353.545-.456l.341-.188L16.811 2v16.248l-2.899.034-.473.812V17.61l-.002-1.484H7.875v2.124h-.984c-.541 0-1.091.03-1.223.067a1.3 1.3 0 0 0-.473.301c-.45.45-.472 1.07-.057 1.542.378.432-.152.403 7.296.403h6.752V2.003h1.687V22l-8.108-.007c-4.46-.003-8.195-.027-8.302-.053zm8.408-7.002c.123-.43.291-.95.373-1.157.264-.663.93-1.922 1.305-2.465l.364-.528-.637-.94a32 32 0 0 1-2.993-5.534l-.406-.968-.002 2.946V9.24l.234.12c.351.182.515.464.515.887 0 .462-.194.762-.591.913-.545.208-1.069-.002-1.298-.52-.22-.497.008-1.1.491-1.302l.21-.088V6.304c0-1.621-.016-2.93-.037-2.91s-.176.385-.346.808c-.804 2.007-2.223 4.546-3.64 6.513q-.053.078.237.472c.814 1.106 1.627 2.946 1.94 4.393l.037.173 4.02-.033z"/></svg>