<svg xmlns="http://www.w3.org/2000/svg" viewBox="0 0 24 24"><path d="M11.092 2c-.058.001-.132.028-.133.127 0 .1.104.31.098.797-.006.505-.123.847-.828 1.71L7.436 8.06c-1.617 1.98-2.716 2.885-2.721 5.046-.005 2.162 1.104 3.216 2.72 4.518s3.713 2.993 5.343 4.316c.037.03.084.062.142.061.058-.001.132-.028.133-.127 0-.1-.111-.196-.106-.682.006-.504.057-.81.766-1.67l2.934-3.556c1.626-1.973 2.633-2.857 2.638-4.992.005-2.136-1.114-3.301-2.547-4.412-1.885-1.462-4.076-3.306-5.503-4.5A.22.22 0 0 0 11.092 2zM9.651 8.42h1.578c1.02 0 1.64.958 1.64 1.49v5.502c.002 1.234.344 1.512.344 1.512s-.356.187-.918.187-1.137-.368-1.137-1.174V10.2H8.674V9.32c0-.479.46-.9.977-.9zm2.672 0h3.03v1.357c0 .23-.11.422-.398.422h-1.299c-.18 0-.352-.03-.457-.201-.104-.172-.108-.47-.27-.797-.16-.327-.498-.566-.607-.646-.026-.02-.058-.044-.058-.077 0-.032.026-.058.058-.058z"/></svg>