<svg xmlns="http://www.w3.org/2000/svg" viewBox="0 0 24 24"><path d="M6.793 2a3 3 0 0 0-.213.023 3 3 0 0 0-.483.057l-.072.022a3 3 0 0 0-.604.21l-.004.003a3 3 0 0 0-.547.326 3.14 3.14 0 0 0-.924 1.147l-.002.002-.008.022a3 3 0 0 0-.22.63 3 3 0 0 0-.024.182 3 3 0 0 0-.057.499l-.004.04v13.67a3.164 3.164 0 0 0 3.162 3.165 3.164 3.164 0 0 0 3.164-3.164v-4.319l4.731 6.218a3 3 0 0 0 .428.456l.1.1a3 3 0 0 0 .19.125 3.14 3.14 0 0 0 3.714-.043 3.14 3.14 0 0 0 1.16-1.804l.013-.067a3 3 0 0 0 .064-.566l.012-.1V5.164A3.164 3.164 0 0 0 17.205 2a3.164 3.164 0 0 0-3.164 3.164v4.342L9.533 3.581l-.002-.002a3.16 3.16 0 0 0-2.666-1.575l-.037-.002z"/></svg>