<svg xmlns="http://www.w3.org/2000/svg" viewBox="0 0 24 24"><path d="M6.793 2a3.164 3.164 0 0 0-.213.023 3.142 3.142 0 0 0-.483.057 3.164 3.164 0 0 0-.072.022 3.142 3.142 0 0 0-.604.21 3.164 3.164 0 0 0-.004.003 3.142 3.142 0 0 0-.547.326 3.142 3.142 0 0 0-.924 1.147 3.164 3.164 0 0 1-.002.002 3.164 3.164 0 0 0-.008.022 3.142 3.142 0 0 0-.22.63 3.164 3.164 0 0 0-.024.182 3.142 3.142 0 0 0-.057.499 3.164 3.164 0 0 0-.004.04v13.67a3.164 3.164 0 0 0 3.162 3.165 3.164 3.164 0 0 0 3.164-3.164v-4.319l4.731 6.218a3.164 3.164 0 0 0 .428.456 3.142 3.142 0 0 0 .1.1 3.164 3.164 0 0 0 .19.125 3.142 3.142 0 0 0 3.714-.043 3.142 3.142 0 0 0 1.16-1.804 3.164 3.164 0 0 0 .013-.067 3.142 3.142 0 0 0 .064-.566 3.164 3.164 0 0 0 .012-.1V5.164A3.164 3.164 0 0 0 17.205 2a3.164 3.164 0 0 0-3.164 3.164v4.342L9.533 3.581a3.164 3.164 0 0 1-.002-.002 3.164 3.164 0 0 0-2.666-1.575 3.142 3.142 0 0 0-.037-.002A3.164 3.164 0 0 0 6.793 2"/></svg>