<svg xmlns="http://www.w3.org/2000/svg" width="192" height="192" viewBox="0 0 192 192"><path d="M54.346 16a23.999 23.999 0 0 0-1.704.184 23.999 23.999 0 0 0-3.864.456l-.576.176a23.999 23.999 0 0 0-4.832 1.68l-.032.024a23.999 23.999 0 0 0-4.375 2.608 25.119 25.119 0 0 0-7.392 9.175l-.016.016-.064.176a23.999 23.999 0 0 0-1.76 5.04 23.999 23.999 0 0 0-.192 1.456 23.999 23.999 0 0 0-.456 3.992l-.032.32v109.36a25.311 25.311 0 0 0 25.295 25.319 25.311 25.311 0 0 0 25.311-25.311V116.12l37.847 49.742a23.999 23.999 0 0 0 3.424 3.648l.8.8a23.999 23.999 0 0 0 1.52 1 25.119 25.119 0 0 0 29.71-.344 25.119 25.119 0 0 0 9.28-14.431l.105-.536a23.999 23.999 0 0 0 .512-4.528l.096-.8V41.311a25.311 25.311 0 0 0-25.311-25.31 25.311 25.311 0 0 0-25.311 25.31v34.735L76.266 28.648l-.016-.016a25.279 25.279 0 0 0-21.327-12.6l-.296-.016z"/></svg>