<svg xmlns="http://www.w3.org/2000/svg" viewBox="0 0 24 24"><path d="M12.635 14.738c.667.316 1.037.964.951 1.655a1.6 1.6 0 0 1-1.268 1.376c-.879.187-1.77-.43-1.894-1.311-.133-.942.524-1.778 1.448-1.845.261-.019.513.019.763.125zM6.76 12.685c-.703-.624-1.304-1.32-1.722-2.16-.16-.319-.286-.65-.263-1.02.02-.315.214-.51.532-.53.298-.019.574.068.841.185.75.327 1.383.822 1.952 1.398a9.78 9.78 0 0 1 1.819 2.556c.089.18.155.381.183.58.066.461-.22.713-.679.621-.341-.069-.647-.225-.942-.4a12.534 12.534 0 0 1-1.72-1.23zm7.987-.715c.653-.96 1.418-1.797 2.392-2.426.4-.257.816-.484 1.296-.556.104-.016.214-.02.317-.005.346.053.517.315.475.705-.04.365-.179.695-.354 1.011-.486.878-1.146 1.609-1.93 2.23-.583.462-1.193.888-1.872 1.202a2.38 2.38 0 0 1-.57.18c-.406.073-.665-.182-.622-.594.04-.375.215-.7.401-1.017.144-.247.308-.482.467-.73zm-1.84-.069c-.11.326-.208.646-.329.957a1.058 1.058 0 0 1-.22.322c-.218.234-.525.244-.727-.003a2.32 2.32 0 0 1-.345-.6c-.21-.522-.3-1.076-.391-1.628a8.496 8.496 0 0 1-.103-2.162c.061-.683.171-1.356.493-1.972.084-.16.199-.31.326-.44.232-.237.531-.232.776-.007.258.237.399.545.511.867.222.635.308 1.293.332 1.962.032.915-.109 1.809-.322 2.704zm-9.401 3.262c1.126-.262 2.246-.247 3.368-.04.518.094 1.038.19 1.528.39.19.078.38.177.54.305.285.226.277.547.005.789-.238.212-.532.32-.831.402-1.016.282-2.05.459-3.108.427-.751-.023-1.49-.125-2.19-.417a1.795 1.795 0 0 1-.643-.418c-.234-.25-.234-.55.004-.798.294-.306.678-.445 1.069-.57.082-.025.165-.046.258-.07zm17.978 1.705c-.52.291-1.08.419-1.652.499-1.362.19-2.69 0-3.994-.389a3.11 3.11 0 0 1-.727-.342c-.231-.143-.32-.366-.236-.564a.897.897 0 0 1 .256-.33c.232-.19.517-.28.8-.358a11.382 11.382 0 0 1 2.363-.402 7.22 7.22 0 0 1 2.451.251c.34.098.666.227.945.45.054.044.106.092.151.144.209.234.214.522 0 .75-.102.11-.232.191-.357.29z"/></svg>