<svg xmlns="http://www.w3.org/2000/svg" viewBox="0 0 24 24"><path d="m21.63 16.907-.221-.207.04-.298-.261.144-.275-.13.058.297-.212.212.303.036.144.27.126-.274zm.338-1.705-.257-.167-.009-.302-.234.194-.294-.086.113.28-.171.252.302-.018.185.24.077-.294zM22 13.461l-.28-.117-.058-.294-.199.226-.302-.032.158.257-.127.28.293-.072.226.203.027-.298zm-.271-1.714-.293-.068-.113-.28-.158.258-.302.022.203.226-.077.293.28-.122.257.163-.027-.303zm-.564-1.646-.302-.014-.158-.257-.108.284-.298.068.24.19-.023.301.252-.162.28.113-.077-.294zM2.37 16.907l.221-.207-.04-.298.262.144.275-.13-.059.297.212.212-.302.036-.14.27-.131-.274zm-.338-1.705.257-.167.01-.302.234.194.293-.086-.113.28.172.252-.303-.018-.185.24-.076-.294zM2 13.461l.28-.117.062-.294.199.226.298-.032-.154.258.122.28-.293-.073-.226.203-.027-.298zm.27-1.714.293-.068.113-.28.158.258.302.022-.198.226.072.293-.28-.122-.257.163.027-.303zm.564-1.646.302-.014.163-.257.103.284.298.068-.239.19.023.301-.253-.162-.28.113.082-.293zm7.628 2.426v4.06q.469.1.901.306.354.144.641.393c.077-.14.555-.352.636-.393q.268-.122.55-.202zm5.372-.848v4.863h.04a4.51 4.51 0 0 0-.04-4.867zm-7.664 0a4.51 4.51 0 0 0-.04 4.867h.04zm5.372 1.719V9.866a4.6 4.6 0 0 0-2.44-.176zm2.292-3.762v.857a5.25 5.25 0 0 1 .807 6.198c.212.054.415.112.618.175.446-.842.678-1.78.676-2.733a5.89 5.89 0 0 0-2.101-4.497m-5.264-.803.13.194a5.4 5.4 0 0 1 2.86.063v-.257h1.055a5.96 5.96 0 0 0-5.191 0zm-2.4 1.66v-.857a5.9 5.9 0 0 0-2.11 4.51c-.003.953.23 1.892.676 2.734q.305-.095.618-.176a5.25 5.25 0 0 1 .807-6.211zm1.105 5.959a5.5 5.5 0 0 1 .87.063v-3.862q0-.843-.04-1.258h.014q.177.335.392.645l2.99 4.542c.4-.089.809-.132 1.218-.13q.396 0 .79.049V9.144h-1.651v4.308a9 9 0 0 0 .04 1.069h-.022a10 10 0 0 0-.393-.636l-3.103-4.74H8.486V16.5q.393-.048.79-.05zm10.93 2.002a5.5 5.5 0 0 1-.903-.248c-.681-.248-1.353-.586-2.03-.807a8.6 8.6 0 0 0-2.557-.451 4.8 4.8 0 0 0-2.089.45 2.3 2.3 0 0 0-.636.393 2.4 2.4 0 0 0-.64-.392 4.8 4.8 0 0 0-2.089-.451c-.87.02-1.732.172-2.557.45-.7.222-1.353.56-2.03.808a5.5 5.5 0 0 1-.902.248l-.298.388c1.34-.19 2.644-.798 3.938-1.073a8.7 8.7 0 0 1 2.522-.176 4.3 4.3 0 0 1 1.159.266q.258.108.496.257.218.127.401.302.184-.175.402-.302.238-.149.496-.257a4.3 4.3 0 0 1 1.182-.266 8.7 8.7 0 0 1 2.535.185c1.28.252 2.584.902 3.897 1.073zm-8.373.32a3 3 0 0 0-.36-.28 4.2 4.2 0 0 0-1.354-.581 5.5 5.5 0 0 0-2.67.135c-.902.248-1.804.523-2.67.79a7.5 7.5 0 0 1-1.534.329l-.117.153q.322.035.645.023a10.5 10.5 0 0 0 2.201-.451 17 17 0 0 1 1.565-.307 8.9 8.9 0 0 1 4.092.171q.163.054.32.122c-.027-.013-.086-.076-.118-.103zm8.936.42a8 8 0 0 1-1.53-.33c-.901-.27-1.772-.545-2.665-.793a5.5 5.5 0 0 0-2.675-.135c-.482.11-.94.304-1.353.577q-.182.12-.347.262c-.032.027-.077.09-.113.108q.157-.068.32-.122a8.9 8.9 0 0 1 4.087-.167q.793.115 1.57.311c.714.227 1.45.378 2.196.451q.322.021.645 0zm-14.65-2.089C3.854 12.57 7.35 7.285 12.41 7.592a6.6 6.6 0 0 1 4.253 1.913 6.54 6.54 0 0 1 1.223 7.6l.631.267c.5-1.002.76-2.106.758-3.225-.14-5.6-6.288-8.948-11.067-6.027a7.27 7.27 0 0 0-3.48 6.027 7.2 7.2 0 0 0 .758 3.225zm13.559-7.893-.339-.487.812-.568.33.45-.15.104-.202-.284-.18.127.184.261-.144.104-.19-.262-.184.126.211.307zm-.596-.826-.149-.166.298-.267-.275-.284-.298.271-.153-.167.74-.659.148.163-.293.266.276.302.293-.261.148.167zm-.284-1.474-.212-.185-.532.609-.167-.145.528-.609-.212-.185.117-.135.595.505zm-1.308-.046-.198-.135.045-.22-.276-.195-.18.144-.203-.144.853-.618.22.144zm-.081-.527.095-.334c0-.027.022-.054.036-.086a.3.3 0 0 1-.063.063l-.276.221zm-.46-1.002-.577.424-.158.316-.203-.1.157-.31v-.713l.23.113-.022.401v.081a.3.3 0 0 1 .059-.058l.31-.257zm-1.416.41-.23-.08v-.23l-.334-.118-.14.185-.199-.09.672-.812.253.09zm-.212-.486v-.352a.3.3 0 0 1 0-.086.5.5 0 0 1-.046.077l-.194.275zm-.912-.298a.46.46 0 0 1-.162.275.34.34 0 0 1-.284.04.5.5 0 0 1-.136-.058l.05-.203q.047.053.113.072c.099 0 .167-.04.203-.185l.135-.573.217.05zm-1.407.135h-.244l-.058-.225h-.352l-.086.216h-.239l.415-1.028h.266zm-.347-.41-.086-.338a1 1 0 0 1 0-.09.3.3 0 0 1-.023.085l-.126.33zm-.916-.627-.266 1.01h-.253l-.41-.942h.24l.256.672a.5.5 0 0 1 .027.094.5.5 0 0 1 0-.104l.176-.73zm-1.11 1.091-.581.109-.185-.97.564-.104.031.176-.338.063.04.217.32-.059.032.176-.316.063.041.221.36-.081zm-1.177-.77-.122.703.104.338-.216.063-.1-.334-.491-.518.243-.077.262.307.045.072v-.081l.04-.402zm-.73 1.267-.226.099-.153-.172-.32.145.026.225-.22.1-.077-1.047.239-.108zm-.497-.208L7.99 5.18l-.05-.073v.086l.04.352zm-.676.749-.185.126-.32-.496a2 2 0 0 1-.109-.18q.033.086.045.126l.167.69-.153.1-.56-.452-.103-.086.144.212.298.451-.172.109-.54-.821.274-.176.492.383q.057.045.104.1c0-.05-.032-.1-.045-.14l-.145-.6.266-.172zm-1.2.803-.18.158-.199-.118-.266.235.09.207-.185.163-.379-.984.199-.17zm-.532-.054-.303-.172-.067-.054a.2.2 0 0 1 .036.054l.126.339zm-.334.825-.172.194-.293-.054H4.91a.07.07 0 0 0-.077.022l-.036.046.284.248-.149.166-.744-.654.235-.266q.236-.264.45-.09a.3.3 0 0 1 .064.077.3.3 0 0 1-.005.27.1.1 0 0 1 .046 0h.108l.072-.009zm-1.02-.095.208.18.063-.071a.16.16 0 0 0 .045-.109.14.14 0 0 0-.05-.103q-.095-.087-.198.031zm-.175 1.534-.18-.126a.5.5 0 0 0 .148-.054.46.46 0 0 0 .14-.167.14.14 0 0 0 0-.054.1.1 0 0 0 0-.046.06.06 0 0 0-.027-.031.1.1 0 0 0-.05 0h-.063l-.068.036-.08.05a.4.4 0 0 1-.195.072.25.25 0 0 1-.171-.05.23.23 0 0 1-.09-.1.2.2 0 0 1-.027-.12q0-.069.027-.132a.5.5 0 0 1 .072-.13.6.6 0 0 1 .081-.122.3.3 0 0 1 .086-.072l.17.117a.14.14 0 0 0-.058.027l-.05.036-.049.04-.036.05a.2.2 0 0 0-.031.059.1.1 0 0 0 0 .054.1.1 0 0 0-.032.031l.027.032q.022.006.045 0h.054l.059-.032h.095a.4.4 0 0 1 .103-.058.4.4 0 0 1 .1-.032.2.2 0 0 1 .094 0q.051.015.095.045.061.04.1.104a.3.3 0 0 1 .026.122.5.5 0 0 1-.031.13.9.9 0 0 1-.176.253.4.4 0 0 1-.108.068m.42 8.493.238-.09c-2.532-5.215 1.262-11.283 7.06-11.29 5.802-.014 9.611 6.059 7.072 11.277l.239.09q.204.075.415.135c2.854-5.948-1.801-12.755-8.38-12.252a8.57 8.57 0 0 0-7.917 8.581 8.46 8.46 0 0 0 .821 3.68c.158-.035.298-.08.451-.13zm16.517 2.089-.104-.122c-.559 0-1.123-.036-1.678-.09a9 9 0 0 1-1.353-.208c-.823-.24-1.67-.391-2.526-.45a9.1 9.1 0 0 0-3.017.405l-.027.027a.73.73 0 0 1-1.033 0l-.014-.04a9.2 9.2 0 0 0-3.017-.406c-.856.06-1.703.21-2.526.45a9 9 0 0 1-1.353.208c-.555.054-1.119.09-1.678.09l-.185.217 8.647-.113c.031 0 .117.072.148.09q.09.043.185.064c.195.043.397.043.591 0a1 1 0 0 0 .361-.167l8.638.112z"/></svg>