<svg xmlns="http://www.w3.org/2000/svg" width="192" height="192" viewBox="0 0 192 192"><path d="M20.489 173h3.619v-8.957h6.459c.47 0 1.266-.035 1.925-.137 4.158-.659 6.262-3.816 6.262-7.87 0-4.039-2.079-7.213-6.262-7.854a17.048 17.048 0 0 0-1.925-.137H20.489zm3.619-12.388v-9.154h6.33c.445 0 1.053.034 1.575.171 2.216.522 3.045 2.567 3.045 4.406 0 1.84-.83 3.884-3.045 4.415a8.549 8.549 0 0 1-1.583.162zM43.34 173h3.764l1.814-5.63h10.24l1.856 5.63h3.764l-8.127-24.955h-5.219zm6.69-9.026 3.987-12.302 4.029 12.302zM72.479 173h3.627v-8.957h6.613L87.074 173h4.14l-4.713-9.667c2.823-1.232 4.243-3.97 4.243-7.298 0-4.038-2.079-7.212-6.254-7.853a17.048 17.048 0 0 0-1.925-.137H72.48zm3.627-12.388v-9.154h6.322a6.827 6.827 0 0 1 1.575.171c2.224.522 3.054 2.567 3.054 4.406 0 1.84-.83 3.884-3.054 4.415a8.561 8.561 0 0 1-1.575.162zM99.616 173h15.937v-3.413h-12.319v-7.709h10.24v-3.422h-10.24v-6.998h12.32v-3.413h-15.94zm24.69 0h3.67v-18.565L140.26 173h3.68v-24.955h-3.68v18.547l-12.285-18.547h-3.678zm35.29 0h3.618v-21.542h8.298v-3.413h-20.216v3.422h8.299zm10.034-55.779-1.694-1.583.308-2.284-1.993 1.112-2.105-1 .445 2.275-1.625 1.617 2.31.274 1.112 2.07.967-2.105zm2.584-13.038-1.968-1.275-.068-2.31-1.797 1.48-2.233-.65.856 2.139-1.31 1.925 2.31-.137 1.42 1.83.583-2.24zm.24-13.312-2.14-.898-.444-2.242-1.515 1.728-2.31-.24 1.198 1.969-.958 2.138 2.242-.556 1.72 1.549.213-2.276zm-2.07-13.098-2.242-.513-.856-2.14-1.206 1.96-2.31.171 1.549 1.728-.59 2.242 2.138-.941 1.968 1.249-.206-2.31zM166.08 65.18l-2.31-.103-1.206-1.967-.83 2.173-2.276.513 1.822 1.454-.17 2.31 1.933-1.24 2.139.855-.59-2.233zm-143.7 52.041 1.685-1.591-.308-2.276 2.002 1.112 2.105-1.01-.454 2.277 1.626 1.625-2.31.274-1.07 2.07-1-2.105zm-2.592-13.038 1.967-1.283.069-2.31 1.796 1.488 2.242-.65-.856 2.139 1.3 1.925-2.31-.137-1.41 1.83-.591-2.24zm-.24-13.312 2.139-.898.488-2.242 1.514 1.728 2.276-.24-1.172 1.969.932 2.138-2.241-.556-1.728 1.549-.206-2.276zm2.07-13.098 2.242-.522.855-2.139 1.215 1.968 2.31.171-1.514 1.728.547 2.233-2.138-.924-1.968 1.24.214-2.31zM25.93 65.18l2.31-.103 1.24-1.967.796 2.173 2.276.513-1.83 1.454.17 2.31-1.925-1.24-2.138.855.616-2.233zm58.311 18.556v31.029a31.127 31.127 0 0 1 6.896 2.344 17.392 17.392 0 0 1 4.902 3.003c.582-1.07 4.235-2.686 4.86-2.994a29.612 29.612 0 0 1 4.208-1.557zm41.064-6.485v37.172h.317a34.478 34.478 0 0 0-.308-37.215zm-58.585 0a34.478 34.478 0 0 0-.308 37.215h.308zm41.073 13.141V63.384a35.075 35.075 0 0 0-18.65-1.343zm17.521-28.762v6.553c12.26 12.714 14.764 31.95 6.169 47.378 1.625.42 3.173.856 4.73 1.344a44.488 44.488 0 0 0 5.168-20.892 45.001 45.001 0 0 0-16.066-34.383m-40.243-6.143 1 1.489a41.406 41.406 0 0 1 21.859.479v-1.968h8.067a45.598 45.598 0 0 0-39.687 0zM66.72 68.183V61.63a45 45 0 0 0-16.135 34.477 44.49 44.49 0 0 0 5.176 20.909 87.77 87.77 0 0 1 4.722-1.352c-8.647-15.454-6.14-34.749 6.168-47.48zm8.452 45.556a42.06 42.06 0 0 1 6.656.48l-.205-39.14 25.862 39.661a42.774 42.774 0 0 1 9.308-1c2.019 0 4.03.125 6.031.376V57.875h-12.619l.137 41.099-26.726-41.1H69.142v56.242c2.004-.245 4.02-.37 6.04-.377zm83.557 15.314a42.782 42.782 0 0 1-6.895-1.9c-5.219-1.898-10.352-4.482-15.52-6.176a65.873 65.873 0 0 0-19.556-3.448 36.785 36.785 0 0 0-15.964 3.448 17.316 17.316 0 0 0-4.868 2.994 17.964 17.964 0 0 0-4.893-2.994 36.787 36.787 0 0 0-15.964-3.448 65.874 65.874 0 0 0-19.557 3.448c-5.339 1.694-10.343 4.278-15.51 6.177a42.775 42.775 0 0 1-6.904 1.89l-2.276 2.97c10.24-1.455 20.207-6.11 30.114-8.214a66.734 66.734 0 0 1 19.275-1.343c3.028.257 6.014.941 8.854 2.036a27.838 27.838 0 0 1 3.799 1.968 15.862 15.862 0 0 1 3.063 2.31 16.341 16.341 0 0 1 3.08-2.31 27.423 27.423 0 0 1 3.79-1.968 32.123 32.123 0 0 1 9.033-2.036 66.726 66.726 0 0 1 19.377 1.42c9.796 1.925 19.762 6.896 29.797 8.205zM94.721 131.5a25.678 25.678 0 0 0-2.754-2.139 32.506 32.506 0 0 0-10.352-4.449 42.26 42.26 0 0 0-20.412 1.027c-6.896 1.9-13.791 4.004-20.412 6.04a57.328 57.328 0 0 1-11.72 2.515l-.899 1.172c1.637.177 3.28.234 4.928.171a80.419 80.419 0 0 0 16.828-3.447 126.93 126.93 0 0 1 11.977-2.345 67.93 67.93 0 0 1 31.269 1.31 28.45 28.45 0 0 1 2.447.94c-.206-.11-.65-.598-.899-.795m68.312 3.2a59.88 59.88 0 0 1-11.686-2.516c-6.895-2.07-13.55-4.175-20.378-6.074a41.92 41.92 0 0 0-20.447-1.027 31.66 31.66 0 0 0-10.352 4.415 23.749 23.749 0 0 0-2.652 2.002c-.24.205-.59.684-.864.821a32.294 32.294 0 0 1 2.447-.932 67.583 67.583 0 0 1 31.243-1.275c4.038.593 8.039 1.386 12.003 2.378a82.125 82.125 0 0 0 16.794 3.448 39.46 39.46 0 0 0 4.928 0zm-112-15.965c-17.298-34.682 9.428-75.088 48.114-72.727a50.471 50.471 0 0 1 32.51 14.621c15.391 15.29 19.168 38.76 9.35 58.106l4.825 2.036a54.717 54.717 0 0 0 5.792-24.656c-1.06-42.81-48.071-68.406-84.61-46.078a55.608 55.608 0 0 0-26.606 46.078 54.951 54.951 0 0 0 5.8 24.656zm103.66-60.348-2.583-3.721 6.202-4.346 2.524 3.448-1.138.795-1.557-2.173-1.369.967 1.403 1.993-1.095.796-1.454-2.002-1.412.967 1.626 2.344zm-4.55-6.313-1.139-1.275 2.276-2.036-2.105-2.173-2.275 2.07-1.172-1.274 5.655-5.03 1.138 1.24-2.242 2.027 2.105 2.31 2.241-1.993 1.138 1.283zm-2.174-11.276-1.625-1.412-4.064 4.654-1.275-1.103 4.038-4.654-1.625-1.412.898-1.035 4.551 3.858zm-10-.342-1.515-1.027.342-1.694-2.104-1.489-1.37 1.113-1.556-1.113 6.519-4.722 1.685 1.104zm-.617-4.038.719-2.55c0-.205.17-.41.282-.659-.14.184-.304.348-.488.488l-2.104 1.685zm-3.516-7.649-4.414 3.234-1.207 2.421-1.557-.77 1.207-2.37v-5.45l1.762.856-.171 3.08v.616c.12-.174.27-.325.445-.445l2.378-1.967zm-10.83 3.132-1.763-.616v-1.763l-2.55-.898-1.069 1.42-1.514-.693 5.133-6.202 1.933.684zm-1.626-3.722v-2.686a2.575 2.575 0 0 1 0-.659 3.42 3.42 0 0 1-.343.59l-1.48 2.096zm-6.964-2.276c-.14.83-.582 1.58-1.24 2.105a2.567 2.567 0 0 1-2.174.308 3.423 3.423 0 0 1-1.026-.445l.376-1.557c.222.268.52.462.856.556.761 0 1.283-.317 1.557-1.412l1.026-4.38 1.66.377zm-10.754 1.027h-1.865l-.445-1.711h-2.695l-.65 1.651h-1.831L99.351 19h2.036zm-2.652-3.131-.659-2.584v-.684a2.567 2.567 0 0 1-.171.65l-.967 2.515zm-7.016-4.791-2.036 7.725h-1.925l-3.14-7.212h1.823l1.968 5.133c.095.234.164.478.205.727a3.46 3.46 0 0 1 0-.787l1.36-5.586zm-8.486 8.341-4.449.83-1.411-7.417 4.311-.787.24 1.343-2.584.479.308 1.66 2.447-.454.248 1.343-2.412.488.308 1.685 2.754-.616zm-9-5.894-.924 5.38.787 2.584-1.651.488-.761-2.558-3.765-3.961 1.865-.59 2.002 2.344.343.556v-.625l.316-3.071zm-5.57 9.693-1.719.752-1.172-1.309-2.447 1.113.206 1.71-1.694.77-.582-8.007 1.822-.83zm-3.79-1.592-1.804-1.993-.377-.547v.65l.308 2.695zm-5.175 5.732-1.412.958-2.447-3.79a17.102 17.102 0 0 1-.83-1.377c.166.44.28.759.343.958l1.283 5.279-1.172.761-4.277-3.448-.796-.658 1.104 1.625 2.275 3.448-1.309.83-4.14-6.28 2.104-1.343 3.764 2.926c.29.225.553.48.787.761 0-.376-.239-.76-.342-1.069l-1.112-4.585 2.045-1.31zm-9.171 6.134-1.378 1.198-1.514-.89-2.036 1.797.685 1.583-1.412 1.24-2.892-7.511 1.515-1.318zm-4.064-.419-2.31-1.309-.513-.41c.108.123.197.261.265.41l.967 2.592zm-2.558 6.314-1.309 1.48-2.241-.411h-.83a.513.513 0 0 0-.582.171l-.273.342 2.164 1.9-1.138 1.283-5.689-5.005 1.797-2.036c1.197-1.346 2.347-1.574 3.447-.684.189.17.351.365.488.581a2.31 2.31 0 0 1-.034 2.07.857.857 0 0 1 .342 0h.83l.547-.068zm-7.785-.728 1.583 1.386.479-.556a1.2 1.2 0 0 0 .342-.83 1.027 1.027 0 0 0-.376-.787c-.48-.453-1.001-.342-1.515.24zm-1.352 11.73-1.377-.967c.4-.069.786-.208 1.138-.41 1.932-1.032 1.613-3.841-.514-2.003l-.624.377c-.443.298-.95.488-1.48.556a1.882 1.882 0 0 1-1.318-.385 1.71 1.71 0 0 1-.684-.753 1.711 1.711 0 0 1-.205-.941c.002-.341.071-.679.205-.993.137-.356.321-.693.548-1 .166-.337.376-.65.624-.933a2.61 2.61 0 0 1 .65-.548l1.31.899a.856.856 0 0 0-.446.205c-2.155 2.077-1.44 2.886-.453 2.765.802-.099 1.529-1.028 1.865-1.148.242-.12.502-.2.77-.24.237-.05.482-.05.718 0 .256.076.499.192.72.343.31.206.573.477.77.795.122.296.19.612.196.933a3.42 3.42 0 0 1-.24 1 6.844 6.844 0 0 1-1.343 1.934c-.25.21-.53.383-.83.513m3.209 64.933 1.83-.684C22.714 82.7 51.725 36.298 96.048 36.246c44.367-.111 73.488 46.326 54.068 86.21l1.831.693c1.038.382 2.093.724 3.166 1.027 21.824-45.462-13.765-97.494-64.052-93.652-34.254 2.618-60.672 31.246-60.536 65.6a64.676 64.676 0 0 0 6.279 28.146 42.76 42.76 0 0 0 3.448-1.01zm126.28 15.964-.796-.924c-4.278 0-8.59-.282-12.833-.693a68.462 68.462 0 0 1-10.335-1.59 91.543 91.543 0 0 0-19.317-3.448 70.146 70.146 0 0 0-23.064 3.105l-.214.205a5.586 5.586 0 0 1-7.896 0l-.103-.308a70.15 70.15 0 0 0-23.064-3.105 92.514 92.514 0 0 0-19.317 3.448 68.435 68.435 0 0 1-10.343 1.59c-4.243.411-8.555.685-12.833.685l-1.411 1.66 66.114-.856c.24 0 .89.548 1.137.685.449.218.923.379 1.412.479 1.48.342 3.028.342 4.517 0a7.7 7.7 0 0 0 2.755-1.275l66.045.856z"/></svg>