<svg xmlns="http://www.w3.org/2000/svg" viewBox="0 0 24 24"><path d="M3.173 21h.423v-1.047h.755c.055 0 .148-.004.225-.016.486-.077.732-.446.732-.92 0-.472-.243-.843-.732-.918a1.581 1.581 0 0 0-.225-.016H3.173zm.423-1.448v-1.07h.74c.052 0 .123.004.184.02.259.061.356.3.356.515 0 .215-.097.454-.356.516a.86.86 0 0 1-.185.019zM5.844 21h.44l.212-.658h1.197L7.91 21h.44L7.4 18.083h-.61zm.782-1.055.466-1.438.471 1.438zM9.25 21h.424v-1.047h.773L10.956 21h.484l-.551-1.13c.33-.144.496-.464.496-.853 0-.472-.243-.843-.731-.918a1.583 1.583 0 0 0-.225-.016H9.25zm.424-1.448v-1.07h.739c.053 0 .123.004.184.02.26.061.357.3.357.515 0 .215-.097.454-.357.516a.86.86 0 0 1-.184.019zM12.422 21h1.863v-.399h-1.44V19.7h1.197v-.4h-1.197v-.818h1.44v-.399h-1.863zm2.886 0h.429v-2.17L17.173 21h.43v-2.917h-.43v2.168l-1.436-2.168h-.43zm4.125 0h.423v-2.518h.97v-.399h-2.363v.4h.97zm1.173-6.52-.198-.185.036-.267-.233.13-.246-.117.052.266-.19.189.27.032.13.242.113-.246zm.302-1.524-.23-.149-.008-.27-.21.173-.261-.076.1.25-.153.225.27-.016.166.214.068-.262zm.028-1.556-.25-.105-.052-.262-.177.202-.27-.028.14.23-.112.25.262-.065.201.181.025-.266zm-.242-1.531-.262-.06-.1-.25-.141.229-.27.02.181.202-.069.262.25-.11.23.146-.024-.27zm-.503-1.472-.27-.012-.141-.23-.097.254-.266.06.213.17-.02.27.226-.145.25.1-.069-.261zM3.394 14.48l.197-.186-.036-.266.234.13.246-.118-.053.266.19.19-.27.032-.125.242-.117-.246zm-.303-1.524.23-.15.008-.27.21.174.262-.076-.1.25.152.225-.27-.016-.165.214-.069-.262zM3.063 11.4l.25-.105.057-.262.177.202.266-.028-.137.23.109.25-.262-.065-.202.181-.024-.266zm.242-1.531.262-.061.1-.25.142.23.27.02-.177.202.064.261-.25-.108-.23.145.025-.27zm.504-1.472.27-.012.145-.23.093.254.266.06-.214.17.02.27-.225-.145-.25.1.072-.261zm6.816 2.169v3.627c.279.06.55.152.806.274.21.085.403.203.573.351.068-.125.495-.314.568-.35.16-.073.324-.134.492-.182zm4.8-.758v4.345h.037a4.031 4.031 0 0 0-.036-4.35zm-6.848 0a4.03 4.03 0 0 0-.036 4.35h.036zm4.801 1.536V8.187a4.11 4.11 0 0 0-2.18-.157zm2.048-3.362v.766a4.692 4.692 0 0 1 .721 5.538c.19.049.371.1.553.157a5.198 5.198 0 0 0 .604-2.442 5.264 5.264 0 0 0-1.878-4.019zm-4.704-.718.117.174a4.836 4.836 0 0 1 2.555.056v-.23h.943a5.325 5.325 0 0 0-4.639 0zM8.577 8.748v-.766a5.264 5.264 0 0 0-1.886 4.03c-.002.852.206 1.691.605 2.444.18-.057.366-.11.552-.158a4.692 4.692 0 0 1 .721-5.55zm.988 5.325c.26-.002.52.017.778.056v-3.45c0-.503-.012-.878-.036-1.125h.012c.106.199.223.391.35.576l2.673 4.06a4.91 4.91 0 0 1 1.088-.117c.236 0 .471.015.705.044V7.543H13.66v3.85c-.007.318.005.637.036.954h-.02a9.128 9.128 0 0 0-.35-.568l-2.774-4.236H8.86v6.574a5.9 5.9 0 0 1 .706-.044zm9.767 1.79a4.916 4.916 0 0 1-.806-.222c-.61-.222-1.21-.524-1.814-.722a7.717 7.717 0 0 0-2.286-.403 4.296 4.296 0 0 0-1.866.403c-.208.085-.4.203-.569.35a2.095 2.095 0 0 0-.572-.35 4.297 4.297 0 0 0-1.866-.403 7.718 7.718 0 0 0-2.286.403c-.624.198-1.209.5-1.813.722a4.93 4.93 0 0 1-.807.221l-.266.347c1.197-.17 2.362-.714 3.52-.96a7.792 7.792 0 0 1 2.253-.157c.354.03.703.11 1.035.238.154.065.302.142.444.23.13.075.25.166.358.27.11-.104.23-.195.36-.27.14-.088.29-.165.443-.23.339-.13.694-.21 1.056-.238a7.77 7.77 0 0 1 2.265.166c1.145.225 2.31.806 3.483.959zm-7.482.286a2.918 2.918 0 0 0-.322-.25 3.75 3.75 0 0 0-1.21-.52 4.94 4.94 0 0 0-2.386.12c-.806.222-1.612.468-2.386.706a6.715 6.715 0 0 1-1.37.294l-.105.137c.191.02.384.028.576.02a9.375 9.375 0 0 0 1.967-.403c.46-.113.927-.205 1.4-.274a7.944 7.944 0 0 1 3.655.153c.097.033.194.069.286.11-.024-.013-.076-.07-.105-.093zm7.985.374a7.011 7.011 0 0 1-1.366-.294c-.806-.242-1.584-.488-2.382-.71a4.901 4.901 0 0 0-2.39-.12 3.67 3.67 0 0 0-1.21.516c-.108.07-.212.149-.31.234-.028.024-.069.08-.101.096.093-.04.19-.076.286-.109a7.93 7.93 0 0 1 3.652-.149c.472.069.94.162 1.403.278a9.628 9.628 0 0 0 1.963.403c.192.012.384.012.576 0zM6.743 14.657c-2.022-4.054 1.102-8.777 5.624-8.501a5.885 5.885 0 0 1 3.8 1.709 5.845 5.845 0 0 1 1.093 6.792l.564.238c.448-.895.68-1.882.677-2.882-.124-5.004-5.619-7.996-9.89-5.386a6.5 6.5 0 0 0-3.11 5.386c-.001 1 .23 1.987.678 2.882zM18.86 7.603l-.302-.435.725-.508.295.403-.133.093-.182-.254-.16.113.164.233-.128.093-.17-.234-.165.113.19.274zm-.532-.738-.133-.149.266-.238-.246-.254-.266.242-.137-.149.661-.588.133.145-.262.237.246.27.262-.233.133.15zm-.254-1.318-.19-.165-.475.544-.149-.129.472-.544-.19-.165.105-.121.532.451zm-1.169-.04-.177-.12.04-.198-.246-.174-.16.13-.182-.13.762-.552.197.129zm-.072-.472.084-.298c0-.024.02-.048.033-.077a.253.253 0 0 1-.057.057l-.246.197zm-.411-.894-.516.378-.141.283-.182-.09.141-.277v-.637l.206.1-.02.36a.584.584 0 0 0 0 .072.234.234 0 0 1 .052-.052l.278-.23zm-1.266.366-.206-.072v-.206l-.298-.105-.125.166-.177-.081.6-.725.226.08zm-.19-.435v-.314a.299.299 0 0 1 0-.077.412.412 0 0 1-.04.069l-.173.245zm-.814-.266a.407.407 0 0 1-.145.246.303.303 0 0 1-.254.036.418.418 0 0 1-.12-.052l.044-.182a.207.207 0 0 0 .1.065c.089 0 .15-.037.182-.165l.12-.512.194.044zm-1.257.12h-.218l-.052-.2h-.315l-.076.193h-.214l.371-.92h.238zm-.31-.366-.077-.302a.472.472 0 0 1 0-.08.271.271 0 0 1-.02.076l-.113.294zM11.765 3l-.238.903h-.225l-.367-.843h.213l.23.6a.43.43 0 0 1 .024.085.4.4 0 0 1 0-.092L11.561 3zm-.992.975-.52.097-.165-.867.504-.092.028.157-.302.056.036.194.286-.053.029.157-.282.057.036.197.322-.072zm-1.052-.689-.108.629.092.302-.193.057-.089-.299-.44-.463.218-.069.234.274.04.065a.577.577 0 0 1 0-.073l.037-.359zM9.07 4.419l-.201.088-.137-.153-.286.13.024.2-.198.09-.068-.936.213-.097zm-.443-.186L8.416 4l-.044-.064a.48.48 0 0 1 0 .076l.036.315zm-.605.67-.165.112-.286-.443a1.812 1.812 0 0 1-.097-.161c.02.052.032.088.04.112l.15.617-.137.089-.5-.403-.093-.077.129.19.266.403-.153.097-.484-.734.246-.157.44.342a.636.636 0 0 1 .092.089c0-.044-.028-.089-.04-.125l-.13-.536.239-.153zM6.95 5.62l-.161.14-.177-.104-.238.21.08.185-.165.145-.338-.878.177-.154zm-.475-.049-.27-.153-.06-.048a.18.18 0 0 1 .031.048l.113.303zm-.299.738-.153.173-.262-.048h-.097a.061.061 0 0 0-.068.02l-.032.04.253.222-.133.15-.665-.585.21-.238c.141-.157.274-.185.403-.08.022.02.041.043.057.068a.268.268 0 0 1-.004.242.098.098 0 0 1 .04 0h.097l.064-.008zm-.91-.085.185.162.056-.065a.145.145 0 0 0 .04-.097.12.12 0 0 0-.044-.092c-.056-.053-.117-.04-.177.028zm-.158 1.371-.161-.113a.408.408 0 0 0 .133-.048.412.412 0 0 0 .125-.15.129.129 0 0 0 0-.048.12.12 0 0 0 0-.04.053.053 0 0 0-.024-.028.082.082 0 0 0-.045 0H5.08l-.06.032-.073.044a.368.368 0 0 1-.173.065.221.221 0 0 1-.154-.045.209.209 0 0 1-.08-.088.179.179 0 0 1-.024-.11c0-.04.008-.079.024-.116a.46.46 0 0 1 .064-.117.518.518 0 0 1 .073-.109.286.286 0 0 1 .076-.064l.153.105a.128.128 0 0 0-.052.024l-.044.032-.045.036-.032.045a.161.161 0 0 0-.028.052.103.103 0 0 0 0 .048.114.114 0 0 0-.028.029l.024.028a.082.082 0 0 0 .04 0h.049l.052-.028h.085a.362.362 0 0 1 .092-.053.334.334 0 0 1 .09-.028.198.198 0 0 1 .084 0 .27.27 0 0 1 .084.04.276.276 0 0 1 .09.093.27.27 0 0 1 .023.109.402.402 0 0 1-.028.117.772.772 0 0 1-.157.226.387.387 0 0 1-.097.06zm.375 7.59.214-.08c-2.264-4.66 1.127-10.084 6.308-10.09 5.186-.013 8.59 5.415 6.32 10.077l.214.081c.12.044.246.085.37.12C21.46 9.979 17.3 3.897 11.422 4.346a7.658 7.658 0 0 0-7.076 7.668 7.56 7.56 0 0 0 .734 3.29 4.6 4.6 0 0 0 .403-.118zm14.761 1.866-.093-.108c-.5 0-1.004-.033-1.5-.081a7.969 7.969 0 0 1-1.208-.186 10.704 10.704 0 0 0-2.258-.403 8.169 8.169 0 0 0-2.696.363l-.025.024a.653.653 0 0 1-.923 0l-.012-.036a8.175 8.175 0 0 0-2.696-.363c-.765.054-1.522.189-2.258.403a7.934 7.934 0 0 1-1.209.186c-.496.048-1 .08-1.5.08l-.165.194 7.728-.1c.028 0 .104.064.133.08a.73.73 0 0 0 .165.056c.173.04.354.04.528 0a.854.854 0 0 0 .322-.149l7.72.1z"/></svg>