<svg xmlns="http://www.w3.org/2000/svg" viewBox="0 0 24 24"><path d="M9.939 3H5.061A2.061 2.061 0 0 0 3 5.061v4.878A2.07 2.07 0 0 0 5.061 12h4.878A2.07 2.07 0 0 0 12 9.939V5.061A2.061 2.061 0 0 0 9.939 3M9.3 8.715a2.817 2.817 0 0 1-1.998 1.629 5.031 5.031 0 0 1-1.377.117s-.081 0-.081-.063v-.981a3.339 3.339 0 0 0 1.08-.117 1.8 1.8 0 0 0 1.368-1.26.171.171 0 0 1 0-.072 2.7 2.7 0 0 1-.441.261 1.8 1.8 0 0 1-2.295-.819 2.016 2.016 0 0 1 .306-2.268 2.079 2.079 0 0 1 1.8-.738 1.899 1.899 0 0 1 1.539.828 2.493 2.493 0 0 1 .414 1.026A5.229 5.229 0 0 1 9.3 8.715M7.5 5.403a.702.702 0 0 0-.648.423 1.26 1.26 0 0 0-.063 1.035.729.729 0 0 0 .657.504.747.747 0 0 0 .9-.774 1.8 1.8 0 0 0-.171-.765.72.72 0 0 0-.675-.423zM18.939 12h-4.878A2.061 2.061 0 0 0 12 14.061v4.878A2.07 2.07 0 0 0 14.061 21h4.878A2.07 2.07 0 0 0 21 18.939v-4.878A2.061 2.061 0 0 0 18.939 12m-.378 7.479h-4.113a.252.252 0 0 1 0-.081v-.684a.198.198 0 0 1 .054-.126c.495-.459.99-.9 1.476-1.386a4.662 4.662 0 0 0 .954-1.188 1.206 1.206 0 0 0 .162-.747.81.81 0 0 0-.828-.738 1.989 1.989 0 0 0-1.17.351l-.189.126c-.126-.315-.252-.63-.369-.945 0 0 0-.063.054-.09a2.916 2.916 0 0 1 1.08-.477 2.979 2.979 0 0 1 1.539 0 1.728 1.728 0 0 1 1.242 1.62 2.556 2.556 0 0 1-.63 1.8 8.649 8.649 0 0 1-1.251 1.251l-.216.18h2.214zm-12.69-1.08a3.6 3.6 0 0 0 1.035-.099 1.8 1.8 0 0 0 1.368-1.269.261.261 0 0 1 0-.081 2.7 2.7 0 0 1-.441.261 1.8 1.8 0 0 1-2.313-.801 2.016 2.016 0 0 1 .306-2.268 2.079 2.079 0 0 1 1.8-.738 1.899 1.899 0 0 1 1.539.828 2.493 2.493 0 0 1 .414 1.026 5.229 5.229 0 0 1-.279 2.466 2.817 2.817 0 0 1-1.98 1.629 5.031 5.031 0 0 1-1.377.117s-.09 0-.081-.063v-.981zm2.43-2.799a1.8 1.8 0 0 0-.171-.765.72.72 0 0 0-.63-.423.702.702 0 0 0-.648.423 1.26 1.26 0 0 0-.063 1.035.729.729 0 0 0 .657.504.756.756 0 0 0 .855-.774zm6.597-9.594c-.126-.324-.252-.639-.369-.954 0 0 0-.063.054-.081a2.799 2.799 0 0 1 1.08-.486 3.078 3.078 0 0 1 1.539 0 1.728 1.728 0 0 1 1.242 1.62 2.592 2.592 0 0 1-.63 1.8 8.595 8.595 0 0 1-1.251 1.242c-.063.054-.135.108-.216.189h2.214v1.134h-4.113a.252.252 0 0 1 0-.081v-.684a.198.198 0 0 1 .054-.126c.495-.459.99-.9 1.476-1.386a4.779 4.779 0 0 0 .954-1.179 1.233 1.233 0 0 0 .162-.756.81.81 0 0 0-.828-.738 1.989 1.989 0 0 0-1.17.351c-.072.045-.135.081-.198.135z"/></svg>