<svg xmlns="http://www.w3.org/2000/svg" viewBox="0 0 24 24"><path d="M9.939 3H5.061A2.06 2.06 0 0 0 3 5.061v4.878A2.07 2.07 0 0 0 5.061 12h4.878A2.07 2.07 0 0 0 12 9.939V5.061A2.06 2.06 0 0 0 9.939 3M9.3 8.715a2.82 2.82 0 0 1-1.998 1.629 5 5 0 0 1-1.377.117s-.081 0-.081-.063v-.981a3.3 3.3 0 0 0 1.08-.117 1.8 1.8 0 0 0 1.368-1.26.2.2 0 0 1 0-.072 2.7 2.7 0 0 1-.441.261 1.8 1.8 0 0 1-2.295-.819 2.02 2.02 0 0 1 .306-2.268 2.08 2.08 0 0 1 1.8-.738 1.9 1.9 0 0 1 1.539.828 2.5 2.5 0 0 1 .414 1.026A5.2 5.2 0 0 1 9.3 8.715M7.5 5.403a.7.7 0 0 0-.648.423 1.26 1.26 0 0 0-.063 1.035.73.73 0 0 0 .657.504.747.747 0 0 0 .9-.774 1.8 1.8 0 0 0-.171-.765.72.72 0 0 0-.675-.423M18.939 12h-4.878A2.06 2.06 0 0 0 12 14.061v4.878A2.07 2.07 0 0 0 14.061 21h4.878A2.07 2.07 0 0 0 21 18.939v-4.878A2.06 2.06 0 0 0 18.939 12m-.378 7.479h-4.113a.3.3 0 0 1 0-.081v-.684a.2.2 0 0 1 .054-.126c.495-.459.99-.9 1.476-1.386a4.7 4.7 0 0 0 .954-1.188 1.2 1.2 0 0 0 .162-.747.81.81 0 0 0-.828-.738 2 2 0 0 0-1.17.351l-.189.126c-.126-.315-.252-.63-.369-.945 0 0 0-.063.054-.09a2.9 2.9 0 0 1 1.08-.477 3 3 0 0 1 1.539 0 1.73 1.73 0 0 1 1.242 1.62 2.56 2.56 0 0 1-.63 1.8 8.7 8.7 0 0 1-1.251 1.251l-.216.18h2.214zm-12.69-1.08a3.6 3.6 0 0 0 1.035-.099 1.8 1.8 0 0 0 1.368-1.269.3.3 0 0 1 0-.081 2.7 2.7 0 0 1-.441.261 1.8 1.8 0 0 1-2.313-.801 2.02 2.02 0 0 1 .306-2.268 2.08 2.08 0 0 1 1.8-.738 1.9 1.9 0 0 1 1.539.828 2.5 2.5 0 0 1 .414 1.026 5.2 5.2 0 0 1-.279 2.466 2.82 2.82 0 0 1-1.98 1.629 5 5 0 0 1-1.377.117s-.09 0-.081-.063v-.981zm2.43-2.799a1.8 1.8 0 0 0-.171-.765.72.72 0 0 0-.63-.423.7.7 0 0 0-.648.423 1.26 1.26 0 0 0-.063 1.035.73.73 0 0 0 .657.504.756.756 0 0 0 .855-.774m6.597-9.594c-.126-.324-.252-.639-.369-.954 0 0 0-.063.054-.081a2.8 2.8 0 0 1 1.08-.486 3.1 3.1 0 0 1 1.539 0 1.73 1.73 0 0 1 1.242 1.62 2.6 2.6 0 0 1-.63 1.8 8.6 8.6 0 0 1-1.251 1.242c-.063.054-.135.108-.216.189h2.214v1.134h-4.113a.3.3 0 0 1 0-.081v-.684a.2.2 0 0 1 .054-.126c.495-.459.99-.9 1.476-1.386a4.8 4.8 0 0 0 .954-1.179 1.23 1.23 0 0 0 .162-.756.81.81 0 0 0-.828-.738 2 2 0 0 0-1.17.351c-.072.045-.135.081-.198.135"/></svg>