<svg xmlns="http://www.w3.org/2000/svg" viewBox="0 0 24 24"><path d="M14.536 16.951a1.291 1.291 0 0 0-1.02-.527c-.139 0-.348.1-.459.175-.314.217-.442.849-.132 1.469.294.59 1.045.687 1.509.367.463-.32.384-1.061.101-1.484m6.96-9.752a65.756 65.756 0 0 1-.365-.296c-.738-.595-1.804-1.078-2.695-1.409-.6-.224-1.143-.413-1.456-.446a.793.793 0 0 0-.2-.003c-.158.026-.193.142-.19.448.007.562.224 2.52.533 4.119.096.501.116.711.079.78-.013.025-.105.06-.23.107a4.012 4.012 0 0 0-.46.193c-1.173.61-1.567.942-2.41 1.688a8.953 8.953 0 0 0-.266.243c-.172.162-.203.192-.342.19l-.233-.134a100.63 100.63 0 0 0-1.431-.815c-1.41-.79-2.144-1.19-2.686-1.24-.338-.031-.433.166-.475.302-.074.25-.108 1.723-.058 2.724.087 1.785.13 1.99.753 3.631.377.994.384 1.024.545 2.096.031.212.062.442.095.692.073.547.157 1.188.297 1.93-4.47-1.055-7.795-5.071-7.795-9.863C2.505 6.538 7.043 2 12.64 2a10.133 10.133 0 0 1 8.854 5.2m-1.434 5.422c-.252-.34-.468-.457-.844-.457a.973.973 0 0 0-.493.14c-.281.193-.45.89-.142 1.373.396.53.964.558 1.374.282.288-.193.38-.925.105-1.338"/></svg>