<svg xmlns="http://www.w3.org/2000/svg" xml:space="preserve" width="24" height="24" viewBox="0 0 24 24"><path d="M5.09 13.884a.502.502 0 0 1 .503-.502h3.518a.502.502 0 0 1 0 1.005H5.593a.502.502 0 0 1-.502-.503zM4.212 12a.502.502 0 0 1 .503-.503H9.99a.502.502 0 0 1 0 1.005H4.714A.502.502 0 0 1 4.21 12zm.88-1.885a.502.502 0 0 1 .502-.502h3.518a.502.502 0 0 1 0 1.005H5.593a.502.502 0 0 1-.502-.503z"/><path fill-rule="evenodd" d="M8.112 8.18a3.894 3.894 0 1 0 1.994 6.574.754.754 0 0 1 1.066 1.066 5.402 5.402 0 0 1-8.99-2.252 5.402 5.402 0 0 1 6.224-6.866A5.402 5.402 0 0 1 12.754 12a3.894 3.894 0 1 0 1.14-2.754.754.754 0 0 1-1.066-1.066 5.402 5.402 0 0 1 6.821-.671 5.402 5.402 0 0 1 1.99 6.558 5.402 5.402 0 0 1-9.167 1.36A5.402 5.402 0 0 1 11.246 12a3.894 3.894 0 0 0-3.134-3.82" clip-rule="evenodd"/><path fill="none" stroke="#000" stroke-linecap="round" stroke-linejoin="round" stroke-width=".74" d="m14.725 12.141 2.037.784 2.037-.784m-4.074 1.092 2.037.784 2.037-.784"/><path stroke="#000" stroke-linecap="round" stroke-linejoin="round" stroke-width=".908" d="m14.724 10.855 2.037.784 2.037-.784-2.037-.788z"/></svg>