<svg xmlns="http://www.w3.org/2000/svg" viewBox="0 0 24 24"><path d="M16.625 10.32a2.273 2.257 0 0 0-.933 4.315.124.123 0 0 0 .163-.07l.445-1.15a.124.123 0 0 0-.056-.15.79.783 0 0 1 .107-1.421.8.795 0 0 1 1.028.515.788.782 0 0 1-.373.905.124.123 0 0 0-.055.152l.444 1.149a.124.123 0 0 0 .163.07 2.273 2.257 0 0 0-.933-4.315zm-11 .062a.498.498 0 0 0-.5.5.498.498 0 0 0 .5.5h3.5a.5.5 0 0 0 0-1zm-.875 1.874a.498.498 0 0 0-.5.501.498.498 0 0 0 .501.5H10a.5.5 0 0 0 0-1.001zm.875 1.877a.498.498 0 0 0-.501.5h.002a.498.498 0 0 0 .499.5h3.5a.5.5 0 0 0 0-1z" opacity=".6"/><path d="M13.442 5.868a.301.301 0 0 0-.202.085c-.125.124-.111.335.029.474l1.364 1.357a5.373 5.373 0 0 0-1.81 1.172.75.75 0 0 0 1.062 1.061 3.875 3.875 0 1 1-1.133 2.74 5.373 5.373 0 0 0-4.328-5.272 5.373 5.373 0 0 0-.917-.101 5.375 5.375 0 0 0-5.275 6.934 5.375 5.375 0 0 0 8.944 2.24.75.75 0 0 0-1.061-1.06 3.875 3.875 0 1 1-1.986-6.542 3.875 3.875 0 0 1 3.12 3.801 5.373 5.373 0 0 0 1.221 3.411 5.375 5.375 0 0 0 9.121-1.355 5.373 5.373 0 0 0-1.98-6.526 5.373 5.373 0 0 0-1.071-.536l1.333-1.324c.14-.139.154-.35.03-.474-.126-.124-.339-.112-.479.027L17.92 7.473a.409.409 0 0 0-.049.06 5.373 5.373 0 0 0-2.585.025.396.396 0 0 0-.064-.085L13.718 5.98a.375.375 0 0 0-.276-.112m2.052 1.992a.388.385 0 0 1 .389.385.388.385 0 0 1-.389.384.388.385 0 0 1-.386-.384.388.385 0 0 1 .386-.385m2.113 0a.388.385 0 0 1 .389.385.388.385 0 0 1-.39.384.388.385 0 0 1-.388-.384.388.385 0 0 1 .389-.385"/></svg>