<svg xmlns="http://www.w3.org/2000/svg" xml:space="preserve" width="24" height="24" viewBox="0 0 24 24"><path d="M5.09 13.884a.5.5 0 0 1 .503-.502h3.518a.502.502 0 0 1 0 1.005H5.593a.5.5 0 0 1-.502-.503zM4.212 12a.5.5 0 0 1 .503-.503H9.99a.502.502 0 0 1 0 1.005H4.714A.5.5 0 0 1 4.21 12zm.88-1.885a.5.5 0 0 1 .502-.502h3.518a.502.502 0 0 1 0 1.005H5.593a.5.5 0 0 1-.502-.503z"/><path d="M7.484 6.6a5.402 5.402 0 0 0-5.3 6.968 5.402 5.402 0 0 0 8.988 2.252.754.754 0 0 0-1.066-1.066A3.894 3.894 0 1 1 8.11 8.18 3.894 3.894 0 0 1 11.246 12a5.4 5.4 0 0 0 1.227 3.428 5.402 5.402 0 0 0 9.166-1.362 5.4 5.4 0 0 0-1.99-6.558 5.4 5.4 0 0 0-6.82.672.754.754 0 0 0 1.066 1.066A3.894 3.894 0 1 1 12.755 12a5.4 5.4 0 0 0-4.349-5.299 5.4 5.4 0 0 0-.921-.101zm8.028.478a.39.387 0 0 1 .39.387.39.387 0 0 1-.39.387.39.387 0 0 1-.389-.387.39.387 0 0 1 .389-.387m2.123 0a.39.387 0 0 1 .39.387.39.387 0 0 1-.39.387.39.387 0 0 1-.39-.387.39.387 0 0 1 .39-.387"/><path d="M17.032 12.51a.792.786 0 0 0 .375-.91.804.799 0 0 0-1.034-.518.793.787 0 0 0-.108 1.428.125.124 0 0 1 .057.152l-.447 1.154a.125.124 0 0 1-.165.071 2.284 2.268 0 1 1 1.876 0 .125.124 0 0 1-.165-.07l-.445-1.154a.125.124 0 0 1 .056-.153" class="cls-3"/><rect width="2.845" height=".637" x="-10.387" y="17.395" rx=".358" ry=".358" transform="scale(-1.00355 .99643)rotate(45)"/><rect width="2.845" height=".637" x="12.997" y="-5.989" rx=".358" ry=".358" transform="scale(1.00355 .99643)rotate(45)"/></svg>