<svg xmlns="http://www.w3.org/2000/svg" viewBox="0 0 24 24"><path d="M6.355 20.977a4 4 0 0 1-1.214-.384 3.76 3.76 0 0 1-1.74-1.738 3.6 3.6 0 0 1-.397-1.714c0-.745.085-.973.387-1.033.106-.021.159-.002.273.1l.14.126-.047.467c-.079.78.03 1.326.386 1.925.211.358.775.927 1.12 1.131.563.335 1.209.47 1.866.39.446-.054.587-.016.684.187.107.223-.036.464-.306.519-.246.05-.903.063-1.152.024m9.056-.24c-.171-.144-1.344-1.467-1.41-1.59a.8.8 0 0 1-.05-.294c0-.176.02-.221.165-.366a.6.6 0 0 1 .343-.193l.178-.028v-.907c0-.857.005-.918.096-1.096.172-.336.39-.428 1.019-.428s.846.092 1.018.428c.09.178.096.24.096 1.095v.908l.165.026c.412.066.666.569.448.886-.195.285-1.348 1.574-1.447 1.62-.2.09-.472.064-.62-.06zm.998-1.181c.299-.346.543-.64.543-.654s-.154-.025-.342-.025h-.343l-.023-2.422-.482-.012-.483-.013-.043.112c-.023.063-.042.594-.042 1.221v1.11l-.673.025.622.699c.495.556.633.687.673.643zm-9.879-.168a2.3 2.3 0 0 1-1.858-1.626c-.078-.262-.092-.902-.026-1.179.085-.361.448-.483.697-.233.123.123.128.142.094.332-.02.11-.037.375-.038.587 0 .328.015.417.106.594.138.272.5.6.757.688.228.077.671.088.955.023.24-.056.41.008.502.185.086.167.045.388-.092.496-.09.072-.641.19-.805.174zm11.456-.983c-.209-.05-.356-.171-.466-.387-.09-.178-.096-.24-.096-1.096v-.908l-.203-.03c-.37-.056-.614-.458-.475-.786.074-.178 1.38-1.654 1.517-1.717.18-.082.462-.06.61.048.146.105 1.258 1.385 1.386 1.595.204.334-.033.8-.441.865l-.165.026v.908c0 .856-.005.917-.097 1.095a.67.67 0 0 1-.485.389c-.203.047-.883.046-1.085-.002m1.057-1.788.011-1.21.689-.024-.592-.694c-.325-.381-.6-.694-.613-.694-.012 0-.296.313-.632.694l-.61.694.342.012.343.013v1.137c0 .714.017 1.168.045 1.221.042.078.085.084.525.073l.48-.012zm-8.95 1.518c-.19-.096-.227-.24-.173-.679a2.93 2.93 0 0 0-.39-1.866c-.204-.345-.773-.908-1.131-1.12-.6-.355-1.146-.464-1.925-.385l-.468.047-.126-.141c-.102-.114-.12-.166-.1-.272.06-.303.288-.388 1.033-.388 2.05 0 3.681 1.529 3.86 3.616.03.35-.034.936-.117 1.069a.45.45 0 0 1-.305.174.5.5 0 0 1-.158-.055m-1.677-.092c-.164-.092-.223-.266-.17-.498.066-.284.055-.728-.023-.956-.087-.256-.416-.618-.687-.757-.177-.09-.267-.106-.594-.105a4 4 0 0 0-.588.038c-.19.034-.209.029-.332-.095-.25-.249-.128-.611.234-.697.277-.065.916-.051 1.179.027a2.28 2.28 0 0 1 1.623 2.53q-.049.328-.14.43a.435.435 0 0 1-.502.083m-1.926-.251a.66.66 0 0 1-.286-.285c-.122-.231-.124-.393-.01-.63.278-.574 1.108-.481 1.28.143.117.422-.247.87-.708.87a.8.8 0 0 1-.276-.098m10.248-7.132a3.9 3.9 0 0 1-2.508-1.35c-.604-.704-.894-1.507-.894-2.479 0-1.185.45-2.16 1.352-2.936.704-.605 1.506-.894 2.478-.894s1.775.29 2.479.894q1.352 1.16 1.352 2.936c0 .973-.29 1.775-.894 2.479a3.83 3.83 0 0 1-2.08 1.271c-.291.069-1.029.115-1.285.08zm1.215-.768c.869-.222 1.67-.885 2.063-1.707.225-.471.295-.791.295-1.355s-.07-.883-.295-1.355a3.27 3.27 0 0 0-1.498-1.496c-.468-.223-.789-.293-1.352-.293s-.883.07-1.359.297c-.301.144-.956.623-.956.7 0 .021.165.193.367.382l.367.343.266-.2c.7-.53 1.491-.616 2.247-.242a2.11 2.11 0 0 1 1.137 1.557 2.09 2.09 0 0 1-1.133 2.168c-.736.362-1.47.302-2.167-.176l-.281-.192-.358.356c-.198.197-.359.369-.359.384 0 .046.483.407.729.544a3.4 3.4 0 0 0 1.023.352c.317.05.933.018 1.263-.067zm-.166-1.815c.496-.244.772-.69.773-1.248 0-.278-.02-.362-.14-.607-.388-.787-1.316-1.031-2.051-.54-.115.078-.212.17-.215.205s.154.216.35.401c.347.33.358.336.454.268.35-.244.742.217.44.517-.093.094-.136.107-.288.087-.176-.022-.187-.016-.562.333l-.382.355.182.12q.708.469 1.439.11zM3.564 10.23c-.134-.035-.159-.209-.159-1.143 0-.753.012-.925.067-1.004.066-.094.082-.096 1.085-.096.734 0 1.032.015 1.07.052.036.037.05.335.05 1.07 0 1.003-.001 1.018-.095 1.084-.08.056-.246.066-1.018.062a15 15 0 0 1-1-.025m4.525-.035c-.095-.068-.096-.08-.096-1.087 0-.734.014-1.032.051-1.069s.335-.052 1.07-.052h1.02l.068.104c.057.088.065.246.054 1.07-.01.72-.027.98-.068 1.022-.042.041-.302.058-1.03.068-.835.01-.986.003-1.069-.057zM4.315 7.163c.012-.51.015-.525.12-.578.076-.039.387-.054 1.103-.054l.997-.001v-.21c0-.328.016-.347.3-.347s.3.019.3.346v.21l.997.002c.716 0 1.027.015 1.104.054.104.053.107.068.119.578l.012.524h-.56V7.13H4.863v.557h-.56zm1.473-1.558c-.095-.095-.101-1.97-.006-2.1.056-.077.128-.084 1.033-.096.828-.011.987-.003 1.075.054l.103.068v.988c0 .599-.017 1.02-.044 1.07-.042.08-.1.084-1.069.084-.874 0-1.034-.01-1.092-.068"/></svg>