<svg xmlns="http://www.w3.org/2000/svg" viewBox="0 0 24 24"><path d="m8.422 2.066.64 1.523c-2.741 1.115-4.667 3.75-4.667 6.825 0 4.083 3.399 7.393 7.591 7.393 4.193 0 7.592-3.31 7.592-7.393 0-3.126-1.991-5.798-4.805-6.88L15.411 2c3.448 1.325 5.887 4.598 5.887 8.427 0 5.001-4.163 9.056-9.298 9.056s-9.298-4.055-9.298-9.056c0-3.767 2.36-6.996 5.72-8.361zm1.406 3.346.661 1.576c-1.383.573-2.353 1.908-2.353 3.465 0 2.078 1.73 3.763 3.864 3.763s3.864-1.685 3.864-3.763c0-1.612-1.04-2.988-2.504-3.524l.657-1.578c2.103.789 3.595 2.776 3.595 5.102 0 3.018-2.513 5.465-5.612 5.465-3.1 0-5.611-2.447-5.611-5.465 0-2.268 1.418-4.214 3.439-5.041zm3.524 4.992a1.365 1.33 0 0 1-1.366 1.33 1.365 1.33 0 0 1-1.365-1.33 1.365 1.33 0 0 1 1.365-1.33 1.365 1.33 0 0 1 1.366 1.33m3.116 10.673a11.314 11.314 0 0 1-4.496.923c-1.577 0-3.078-.32-4.437-.898l4.45-10.698z"/></svg>