<svg xmlns="http://www.w3.org/2000/svg" width="192" height="192" viewBox="0 0 192 192"><path d="m123.28 16-5.094 12.266c22.512 8.656 38.437 30.039 38.437 55.047 0 24.728-15.593 45.901-37.719 54.734l-5.875-13.969c16.345-6.535 27.86-22.182 27.86-40.453 0-18.608-11.927-34.5-28.75-40.812l-5.266 12.625c11.712 4.288 20.03 15.291 20.03 28.187 0 12.577-7.921 23.342-19.171 27.844l-7.72-18.391a10.92 10.64 0 0 0 6.798-9.844 10.92 10.64 0 0 0-10.922-10.64 10.92 10.64 0 0 0-10.922 10.64 10.92 10.64 0 0 0 6.812 9.828l-7.64 18.36C72.954 106.89 65.09 96.154 65.09 83.623c0-12.456 7.748-23.135 18.812-27.719l-5.281-12.609C62.454 49.912 51.106 65.48 51.106 83.624c0 18.247 11.488 33.871 27.797 40.422l-5.86 14.062c-22.213-8.793-37.89-30.005-37.89-54.797 0-24.6 15.415-45.674 37.343-54.594L67.371 16.53c-26.88 10.92-45.766 36.755-45.766 66.891 0 30.32 19.14 56.276 46.281 67.078l-7.61 18.312C71.15 173.435 83.162 176 95.777 176a90.4 90.4 0 0 0 35.97-7.39l-7.61-18.126c27.125-10.809 46.25-36.755 46.25-67.062 0-30.632-19.525-56.822-47.109-67.422z"/></svg>