<svg xmlns="http://www.w3.org/2000/svg" viewBox="0 0 24 24"><path d="M16.5 7.5H21v9h-4.5v1.8a.9.9 0 0 0 .9.9h1.8V21h-2.25c-.495 0-1.35-.405-1.35-.9 0 .495-.855.9-1.35.9H12v-1.8h1.8a.9.9 0 0 0 .9-.9V5.7a.9.9 0 0 0-.9-.9H12V3h2.25c.495 0 1.35.405 1.35.9 0-.495.855-.9 1.35-.9h2.25v1.8h-1.8a.9.9 0 0 0-.9.9v1.8M3 7.5h9.9v1.8H4.8v5.4h8.1v1.8H3zm16.2 7.2V9.3h-2.7v5.4zM8.85 12a1.35 1.35 0 0 0-1.35-1.35A1.35 1.35 0 0 0 6.15 12a1.35 1.35 0 0 0 1.35 1.35A1.35 1.35 0 0 0 8.85 12m4.05-.999a1.344 1.344 0 0 0-1.908.099 1.326 1.326 0 0 0 .108 1.899c.495.468 1.287.468 1.8 0z"/></svg>