<svg xmlns="http://www.w3.org/2000/svg" viewBox="0 0 24 24"><path d="M8.132 5.765a.8.8 0 0 0-.327.071l-.007.003a1 1 0 0 0-.08.043l-.004.002a.8.8 0 0 0-.312.34l-5.317 10.82a.83.83 0 0 0 .368 1.105.8.8 0 0 0 .556.061.8.8 0 0 0 .17-.055l11.351-5.313 3.157 2.583.001.001a.8.8 0 0 0 .194.138l.001.001h.001q.003 0 .005.003l.016.007.07.03.009.003a.8.8 0 0 0 .185.042l.038.002.044.002.046-.003.05-.004a1 1 0 0 0 .131-.026l.015-.006a.81.81 0 0 0 .488-.419l2.934-5.967a.83.83 0 0 0-.369-1.104.8.8 0 0 0-.354-.086h-.022a1 1 0 0 0-.149.017l-.017.003a1 1 0 0 0-.156.053l-.005.001-6.08 2.847-6.068-4.965a.8.8 0 0 0-.166-.122q-.011-.007-.022-.012l-.013-.008a1 1 0 0 0-.085-.036q-.023-.008-.047-.015a1 1 0 0 0-.152-.03l-.04-.004q-.019-.002-.038-.003m.293 2.081 4.727 3.867-8.605 4.027zM19.45 10.54l-1.49 3.035-1.818-1.487z"/></svg>