<svg xmlns="http://www.w3.org/2000/svg" viewBox="0 0 24 24"><path d="M8.132 5.765a.795.795 0 0 0-.327.071l-.007.003a.778.778 0 0 0-.08.043l-.004.002a.816.816 0 0 0-.312.34l-5.317 10.82a.828.828 0 0 0 .368 1.105.804.804 0 0 0 .556.061.787.787 0 0 0 .17-.055l11.351-5.313 3.157 2.583.001.001c.056.054.122.101.194.138l.001.001h.001c.002 0 .004.002.005.003l.016.007a.786.786 0 0 0 .07.03l.009.003a.788.788 0 0 0 .185.042l.038.002.044.002.046-.003.05-.004a.813.813 0 0 0 .131-.026l.015-.006a.814.814 0 0 0 .488-.419l2.934-5.967a.828.828 0 0 0-.369-1.104.803.803 0 0 0-.354-.086h-.022c-.05.001-.1.007-.149.017l-.017.003a.814.814 0 0 0-.156.053l-.005.001-6.08 2.847-6.068-4.965a.813.813 0 0 0-.166-.122c-.007-.005-.015-.008-.022-.012l-.013-.008a.818.818 0 0 0-.085-.036c-.015-.006-.031-.01-.047-.015a.8.8 0 0 0-.152-.03l-.04-.004c-.013 0-.025-.003-.038-.003zm.293 2.081 4.727 3.867-8.605 4.027zM19.45 10.54l-1.49 3.035-1.818-1.487z"/></svg>