<svg version="1.1" viewBox="0 0 192 192" xmlns="http://www.w3.org/2000/svg"><path d="m129.93 19.005c-1.6164 0.10737-3.5363 1.8502-11.421 9.7807-3.3627 3.3823-7.4309 7.1641-9.0406 8.4048-1.6095 1.2407-4.9848 4.2203-7.5007 6.6205-6.3789 6.0856-5.9469 5.9575-9.3401 2.7677-1.5459-1.4533-4.0315-3.5363-5.5232-4.6288-1.4917-1.0925-4.1571-3.423-5.9231-5.1788-6.8668-6.8273-15.659-14.986-17.436-16.179-3.2513-2.1835-6.2479-1.1879-6.2479 2.0765 0 1.3381 0.66434 2.1933 5.5373 7.1282 3.0455 3.0842 7.0067 6.7785 8.8028 8.2088 5.3537 4.2631 10.73 10.205 9.9432 10.991-0.34222 0.34222-11.954 0.24537-25.231-0.21098-5.8664-0.20165-11.968-0.20833-13.561-0.01454-1.592 0.19336-6.6009 0.35437-11.131 0.35839-9.2229 0.0085-10.363 0.28986-11.534 2.849-0.58751 1.2852-0.65091 4.6755-0.4626 24.768 0.11995 12.803 0.22441 23.991 0.2322 24.862 0.0077 0.87009-0.01027 3.3111-0.04021 5.4243-0.16178 11.486 0.27694 48.743 0.58443 49.628 0.80337 2.311 2.1675 2.541 15.361 2.5982 8.5675 0.0368 12.228 0.20422 12.347 0.5615 0.09308 0.27934 0.65818 1.178 1.2554 1.9979 0.59718 0.81988 1.7126 2.5424 2.4782 3.8272 1.6006 2.6861 4.8076 5.8054 6.9092 6.7194 2.0663 0.89859 6.1324 0.83194 7.8265-0.12782 1.9839-1.124 5.6833-5.4081 7.3648-8.5293 2.2724-4.2179 2.2493-4.1991 5.502-4.2678 3.9282-0.083 13.78-0.13629 16.009-0.0866 8.0513 0.17984 13.172 0.14211 16.126-0.11918l3.4696-0.30723 1.1451 1.8143c0.62986 0.99775 1.3594 1.9466 1.6209 2.1083 0.2618 0.16161 1.1543 1.3483 1.9838 2.637 1.9895 3.0911 5.5652 6.3686 7.725 7.0814 2.1947 0.72457 6.1362 0.34727 8.0649-0.77257 1.5543-0.90209 5.4051-6.117 7.2978-9.8825l1.1565-2.3008 11.778-0.28601c12.905-0.31279 13.502-0.43077 15.244-3.0193 0.98936-1.4696 1.0434-1.874 0.79053-5.8763-0.30115-4.7606-0.34992-10.979-0.36361-45.432-5e-3 -12.927-8e-3 -24.827-0.0171-26.443-2e-3 -1.616 0.0342-7.7624 0.077-13.659 0.12833-16.712 0.14459-16.688-10.224-15.829-3.7923 0.3139-7.481 0.3684-9.4667 0.13954-1.7896-0.20628-12.214-0.26762-23.166-0.1368-11.64 0.13903-19.91 0.0693-19.906-0.16769 0.012-0.72388 2.8594-3.6925 5.8966-6.1465 3.1045-2.5083 15.563-15.195 17.762-18.086 1.0037-1.3201 1.2122-1.9623 0.97987-3.0193-0.36703-1.6724-1.0842-2.284-3.0537-2.6035-0.23528-0.0385-0.45943-0.05647-0.69043-0.04107zm-58.568 35.938c5.2896-0.02823 8.7455 9.07e-4 13.709 0.07015 4.8479 0.06673 10.442 0.09334 12.43 0.05732 1.9889-0.03593 14.397-0.05818 27.574-0.04962 13.176 0.0085 24.771-0.01626 25.765-0.0539 0.99415-0.03764 4.5362 0.10096 7.8707 0.30723 4.9014 0.30321 6.2182 0.53096 6.8766 1.1892 0.92571 0.92571 0.91655 0.27925 0.94641 61.524 0.0171 36.948 0.15828 35.218-2.8984 35.759-0.82219 0.14529-8.4107 0.27849-16.863 0.29577-18.326 0.0368-86.283-0.0906-89.5-0.16863-1.243-0.0299-5.4145 0.11353-9.2699 0.31869-3.8555 0.20518-7.1101 0.27387-7.2323 0.15366-0.12226-0.12029-3.103-0.3382-6.624-0.48475s-6.706-0.38355-7.0778-0.52626c-1.8119-0.6953-1.8312-1.2039-1.7851-48.968 0.02909-30.614 0.20131-46.332 0.5147-47.144 0.3364-0.8719 0.8944-1.2983 1.9599-1.4964 0.81919-0.15229 9.3204-0.38004 18.892-0.50589 12.299-0.16178 19.424-0.24785 24.713-0.27634zm82.594 8.3165c-0.69128 0.01454-1.5485 0.05219-2.623 0.10857-6.6999 0.35035-17.405 0.43445-52.927 0.41494-16.409-0.0094-31.054-0.01626-32.545-0.01626-1.4917 4.53e-4 -8.9132-0.02396-16.492-0.05476-11.764-0.04791-13.88 0.04278-14.465 0.62866-0.6024 0.60257-0.68188 5.4922-0.66032 40.408 0.01968 31.451 0.14425 39.866 0.5994 40.415 0.31621 0.38106 1.322 0.75477 2.2354 0.83074 0.91339 0.0761 19.358 0.0891 40.987 0.0282 21.629-0.0607 45.734-0.0701 53.565-0.0197 18.229 0.1161 25.426-0.0505 25.992-0.60299 0.29431-0.28764 0.41751-11.03 0.35164-30.818-0.0513-16.706-0.10609-34.785-0.11294-40.174-8e-3 -8.5165-0.11122-9.8979-0.76401-10.55-0.48253-0.48253-1.0658-0.64184-3.1403-0.59683zm-86.651 3.8678c7.1932-0.01198 16.451-0.0094 28.391 0 57.769 0.04363 55.112-0.08795 57.079 2.8349 1.0214 1.5179 1.0565 1.8508 0.92083 8.8148-0.077 3.9803-0.0684 19.061 0.0171 33.511 0.11465 19.032 0.0171 26.539-0.35505 27.234-0.28233 0.52796-1.0515 1.3114-1.7084 1.7419-1.0827 0.70951-3.163 0.79413-22.246 0.89782-11.578 0.0633-26.205 0.16795-32.503 0.23391-6.2983 0.0659-11.526 0.0453-11.617-0.0462-0.09095-0.0911-9.6027-0.17197-21.136-0.18009-14.017-0.0103-21.468-0.17941-22.469-0.51205-0.82356-0.27369-1.9232-1.0725-2.4437-1.7746-0.94128-1.2694-0.94616-1.4568-0.90672-34.58 0.04449-37.456-0.077-36.035 3.2215-37.471 1.1692-0.50897 4.1748-0.6711 25.755-0.7054zm65.908 15.722a7.2323 7.2323 0 0 0-7.2323 7.2323 7.2323 7.2323 0 0 0 7.2323 7.2323 7.2323 7.2323 0 0 0 7.2324-7.2323 7.2323 7.2323 0 0 0-7.2324-7.2323zm-74.951 14.575a7.2323 7.2323 0 0 0-7.2323 7.2323 7.2323 7.2323 0 0 0 7.2323 7.2323 7.2323 7.2323 0 0 0 7.2323-7.2323 7.2323 7.2323 0 0 0-7.2323-7.2323zm37.659 22.553a2.127 2.1132 0 0 0-1.5786 0.69659l-9.4342 10.384a1.0475 1.0406 0 0 0 0.77778 1.7375h20.47a1.0475 1.0406 0 0 0 0.77778-1.7375l-9.4342-10.384a2.127 2.1132 0 0 0-1.5786-0.69659zm37.612 39.868c2.5249 0.0103 4.5682 0.0667 4.6862 0.18445 0.47483 0.47201-3.3771 5.3197-5.2079 6.5535-2.3352 1.5737-3.501 1.3365-5.9566-1.2113-1.9528-2.026-3.8466-4.871-3.4802-5.2283 0.16324-0.15888 3.7456-0.26531 7.3268-0.29311 0.89525-7e-3 1.7902-8e-3 2.6318-5e-3zm-71.061 0.0727c4.9411 0 7.2323 0.15691 7.2323 0.49528 0 0.72337-1.6826 3.0681-3.7804 5.268-2.0165 2.1146-3.7808 2.4998-5.6026 1.2236-0.95052-0.66605-5.0817-6.1169-5.0817-6.7053 0-0.15494 3.2546-0.28165 7.2323-0.28165z"/></svg>
