<svg xmlns="http://www.w3.org/2000/svg" width="24" height="24" fill="none" viewBox="0 0 24 24"><path fill="#000" fill-rule="evenodd" d="M11.935 22C17.494 22 22 17.523 22 12S17.494 2 11.935 2c-.962 0-1.893.134-2.775.385a8.899 8.899 0 0 1 1.21-.082c4.84 0 8.764 3.899 8.764 8.709a8.626 8.626 0 0 1-1.173 4.355c-.045-.118-.093-.377-.117-.864-.029-.602-.01-.845.107-1.413a9.17 9.17 0 0 1 .224-.908c.197-.52.36-1.126.392-1.455.03-.308.017-.371-.107-.494-.11-.11-.189-.133-.356-.106a1.377 1.377 0 0 0-.464.211c-.259.183-.795.932-.983 1.371-.399.932-.503 1.558-.455 2.731.037.923.12 1.368.426 2.314l.087.265a8.781 8.781 0 0 1-3.028 2.055 1.582 1.582 0 0 1-.037-.123c-.086-.334-.357-.987-.58-1.398a4.651 4.651 0 0 0-.538-.718l-.365-.402.3.041c.385.053 1.169.309 1.811.592.592.261 1.1.445.987.358-.332-.256-1.854-.893-2.552-1.069l-.465-.116.148-.12c.133-.108.217-.116.813-.079.555.034 1.685.203 2.182.326.113.029.115.025.018-.036-.184-.115-1.052-.312-1.806-.41a31.414 31.414 0 0 0-.757-.094c-.022 0 .041-.085.141-.188.163-.17.222-.189.566-.189.211 0 .474.026.584.057.11.031.423.073.696.093l.495.036-.728-.154c-.4-.085-.834-.155-.964-.156-.164-.001-.237-.03-.237-.092a.35.35 0 0 1 .066-.16c.06-.082.292-.456.45-.912.097-.279.134-.55.14-1.038a16.14 16.14 0 0 0-.043-1.264l-.05-.605.288-.072c.772-.193 1.447-.703 1.965-1.484.24-.363.513-1.174.436-1.297-.02-.032-.211-.043-.426-.025a181.5 181.5 0 0 1-1.355.1c-.578.042-1.194.127-1.538.214l-.574.144-.17-.14a6.11 6.11 0 0 0-1.214-.72A5.16 5.16 0 0 0 9.94 7.62l-.025-.003c-.233-.026-.39-.044-.467-.115-.07-.065-.264-.21-.297-.21 0 0-.928-.615-1.619-.862-.427-.153-1.091-.28-1.091-.208 0 .018.082.213.182.434.185.408.347 1.094.424 1.798l.042.39-.299.31a3.94 3.94 0 0 0-.409.49c-.191.313-.367.856-.412 1.279-.078.719-.22 1.45-.315 1.623-.186.34-.283.614-.302.85l-.018.242-.316-.216c-.648-.442-1.883-.995-2.206-.988-.074.002.05.073.276.159.525.199 1.579.73 1.942.978.268.183.389.337.319.406-.018.017-.185-.05-.372-.148-.409-.217-.926-.403-1.6-.577-1.016-.262-.706-.096.47.252.624.184 1.619.653 1.67.788.023.058.027.12.009.138-.018.018-.14-.013-.27-.068-.528-.223-1.585-.43-2.117-.415-.204.006-.136.028.273.087.3.044.741.127.98.185a6.732 6.732 0 0 1 1.244.475c.04.024.137.105.205.234.172.321 1.072 1.214 1.438 1.426.265.154.296.194.264.341a3.42 3.42 0 0 1-.118.387c-.104.278-.322 1.12-.445 1.642L6.876 19A8.753 8.753 0 0 1 2 13.606C2.774 18.367 6.927 22 11.935 22M10.403 8.638c.234.11.402.364.402.61 0 .262-.16.597-.402.78-.2.151-.31.184-.656.184-.388 0-.47-.061-.655-.233a.718.718 0 0 1-.185-.518c0-.148.046-.335.103-.415l.102-.145.114.252c.184.41.552.514.818.233.13-.138.141-.195.105-.503-.023-.191-.024-.348-.003-.348s.137.046.257.103m-2.924 1.944c.055.055.1.127.1.16 0 .034-.1.164-.222.29-.237.241-.395.652-.454 1.18-.062.56.223.968.606.869.073-.02.133-.007.133.027 0 .127-.192.215-.475.22-.337.005-.56-.133-.752-.46-.093-.161-.126-.336-.128-.687-.002-.357.03-.542.134-.76.075-.159.216-.382.312-.496.163-.192.503-.44.604-.441.023 0 .087.044.142.098m.377.748c.134.203.13.623-.01.976-.21.534-.38.68-.571.49-.107-.106-.094-.728.022-1.067.095-.278.296-.554.403-.554.03 0 .1.07.156.155m3.464.175c.082.043.22.128.305.188.152.107.152.11.031.202-.125.005-.573.286-.845.717-.237.47-.234 1.222.007 1.518.11.134.264.194.487.205.271.013.387-.065.568-.269.189-.213.45-.686.45-.816 0-.035.045-.064.1-.064.083 0 .093.047.058.267-.09.561-.178.804-.374 1.03-.193.221-.22.232-.578.226a4.926 4.926 0 0 1-1.165-.227c-.46-.2-.893-.57-.958-.856-.067-.295 0-.764.161-1.146.055-.128.231-.364.391-.524.461-.458 1.005-.638 1.362-.451m.774.893a.61.61 0 0 1 .103.25c0 .051-.05.256-.111.456-.136.445-.537.9-.794.9-.258 0-.386-.243-.342-.647.044-.409.176-.672.46-.92.278-.242.54-.257.684-.039m-3.63 1.969.157.099-.189.08a1.15 1.15 0 0 1-.26.083c-.091.004-.186-.113-.244-.302-.043-.14-.034-.145.166-.104.117.024.283.089.37.143" clip-rule="evenodd"/><path fill="#000" d="m8.349 4.664.084-.185a1 1 0 0 1 .5-.496l.184-.083-.184-.082a1 1 0 0 1-.5-.497l-.084-.184-.08.177a1 1 0 0 1-.506.505L7.58 3.9l.183.081a1 1 0 0 1 .507.506zm-1.187.484a.487.487 0 0 1 .243-.242.487.487 0 0 1-.243-.242.477.477 0 0 1-.242.242l.001.001a.477.477 0 0 1 .242.241m2.07.88a.944.944 0 0 1 .471-.469.944.944 0 0 1-.471-.468.924.924 0 0 1-.469.467l-.003.001.003.002a.924.924 0 0 1 .469.467m1.471 1.017.077-.17a1 1 0 0 1 .5-.497l.17-.076-.17-.076a1 1 0 0 1-.5-.497l-.077-.17-.073.163a1 1 0 0 1-.507.505l-.168.075.168.075a1 1 0 0 1 .507.505zm-.124-2.688a.944.944 0 0 1 .47-.468.944.944 0 0 1-.47-.469.924.924 0 0 1-.469.467l-.003.002.003.001a.924.924 0 0 1 .468.467"/></svg>