<svg xmlns="http://www.w3.org/2000/svg" viewBox="0 0 24 24"><path d="M11.238 20.961c-1.072-.105-2.06-.394-3.152-.922-1.747-.844-3.233-2.352-4.08-4.14-1.024-2.164-1.165-4.485-.412-6.754.765-2.303 2.351-4.127 4.542-5.221a9.073 9.073 0 0 1 4.972-.868c.646.075.748.122.272.126-2.032.014-4.133.925-5.55 2.407C6.728 6.743 6.061 8.042 5.723 9.7c-.107.522-.106 2.173.001 2.725.24 1.23.682 2.28 1.365 3.241.3.423 1.2 1.39 1.293 1.39.092 0 1.494-1.828 1.685-2.197.061-.118.058-.126-.152-.38a3.181 3.181 0 0 1-.566-1.103c-.058-.216-.106-.724-.162-1.721-.008-.14-.084-.512-.17-.83-.274-1.027-.53-2.43-.531-2.925-.001-.26-.054-.26.612-.002.803.31 1.414.668 2.343 1.37l.414.311.29-.066a5.33 5.33 0 0 1 .606-.093c.174-.014.331-.047.35-.073.02-.025.128-.244.24-.485.294-.636.588-1.156.856-1.515.287-.383.857-.967.943-.967.085 0 .282.524.42 1.113.154.657.236 1.258.264 1.913.024.573.234 2.215.316 2.472a7.1 7.1 0 0 0 .23.537c.215.46.256.672.188.985-.122.57-.524 1.092-1.205 1.567l-.34.237-.027.432c-.015.237-.04 1.051-.055 1.808-.027 1.336-.026 1.377.052 1.377.149 0 1.003-.248 1.38-.4 1.622-.654 2.86-1.672 3.823-3.144.088-.134.28-.494.428-.798.147-.305.268-.517.269-.47.001.098-.24.89-.391 1.281a9.055 9.055 0 0 1-3.517 4.298c-.838.542-2.051 1.03-3.09 1.244a9.55 9.55 0 0 1-2.647.13zm2.71-9.801a.895.895 0 0 0 .267-.207.545.545 0 0 0 .009-.552c-.064-.097-.306-.282-.37-.282-.011 0-.012.083 0 .183.018.162.007.193-.1.277-.102.08-.158.092-.368.077-.206-.014-.265-.037-.347-.132-.054-.063-.099-.152-.099-.197 0-.04.016-.1.002-.108-.027-.018-.1.057-.148.15-.22.425.163.885.735.885.16 0 .293-.03.419-.094zm3.493-2.554a12.615 12.615 0 0 1-.065-.347c-.088-.497-.2-.693-.46-.813a2.788 2.788 0 0 0-.551-.157c-.366-.065-.358-.079.094-.153.63-.104.805-.295.91-.99.062-.411.076-.405.149.065.072.469.18.66.437.78.116.053.345.119.509.146.445.073.454.09.09.148-.785.129-.954.301-1.07 1.092a1.23 1.23 0 0 1-.043.23zm2.288-1.182a1.825 1.825 0 0 0-.106-.36c-.068-.156-.102-.183-.298-.241a1.65 1.65 0 0 0-.295-.066c-.041 0-.086-.019-.1-.042-.015-.024.018-.042.074-.042.055 0 .198-.03.317-.065.182-.054.231-.09.296-.22a1.4 1.4 0 0 0 .107-.314c.034-.183.108-.211.113-.042.01.355.224.574.607.622.27.034.266.082-.01.123-.11.017-.254.058-.32.092-.128.066-.278.343-.28.518-.003.207-.074.232-.105.037zm-3.11-2.37c-.07-.356-.21-.493-.563-.55-.207-.033-.193-.08.034-.117.36-.057.44-.14.527-.558l.051-.245.03.168c.067.372.145.513.322.584a.938.938 0 0 0 .269.067c.178 0 .155.074-.032.102-.31.046-.435.153-.526.453l-.08.265z"/></svg>