<svg version="1.1" viewBox="0 0 24 24" xmlns="http://www.w3.org/2000/svg"><path d="m11.238 20.961c-1.0723-0.10503-2.0608-0.39404-3.1523-0.92161-1.7471-0.84449-3.2331-2.3528-4.0794-4.1407-1.0241-2.1634-1.1656-4.4844-0.41186-6.754 0.76483-2.303 2.3509-4.1265 4.5413-5.2211 1.4903-0.74476 3.307-1.0617 4.9726-0.86764 0.64542 0.07521 0.7476 0.12246 0.2721 0.1258-2.0328 0.01427-4.1336 0.92554-5.55 2.4073-1.1028 1.1538-1.7692 2.4531-2.1079 4.1101-0.1067 0.52193-0.10566 2.1732 0.0017 2.7252 0.23913 1.2295 0.68132 2.2794 1.3648 3.2406 0.30071 0.4229 1.2004 1.3896 1.2932 1.3896 0.09205 0 1.4938-1.8278 1.6844-2.1963 0.06132-0.11858 0.05825-0.12629-0.15193-0.38091-0.24089-0.29182-0.46449-0.7278-0.56529-1.1022-0.05831-0.21658-0.1063-0.72449-0.16268-1.7216-0.0078-0.1387-0.08384-0.51192-0.16886-0.82938-0.27519-1.0274-0.53044-2.4303-0.53214-2.9247-9e-4 -0.26077-0.05414-0.26054 0.6123-0.0026 0.80278 0.31068 1.4144 0.66805 2.3432 1.3692l0.41341 0.31207 0.29084-0.06615c0.15996-0.03639 0.43258-0.07813 0.60581-0.09277 0.17323-0.01464 0.33098-0.04749 0.35055-0.073 0.01957-0.02551 0.12697-0.2439 0.23867-0.48533 0.29438-0.63626 0.58835-1.156 0.85664-1.5145 0.28665-0.38303 0.85661-0.9677 0.94334-0.9677 0.08456 0 0.28198 0.52393 0.41969 1.1138 0.15332 0.65676 0.23616 1.2578 0.26358 1.9124 0.02401 0.57322 0.23424 2.2148 0.3166 2.4721 0.02454 0.0767 0.1283 0.3185 0.23056 0.53735 0.21438 0.45877 0.25482 0.67118 0.18753 0.98495-0.12209 0.56928-0.52438 1.092-1.2057 1.5668l-0.34051 0.23725-0.02631 0.43169c-0.01447 0.23743-0.03911 1.0511-0.05476 1.8082-0.02761 1.3354-0.02607 1.3765 0.05158 1.3764 0.14905-1.26e-4 1.0028-0.24715 1.3807-0.39949 1.6215-0.6537 2.8594-1.6719 3.8223-3.144 0.08785-0.1343 0.28043-0.49367 0.42797-0.79858 0.14754-0.30492 0.26866-0.51657 0.26916-0.47033 0.0011 0.09894-0.24054 0.8906-0.39123 1.2819-0.66823 1.7353-1.9206 3.2661-3.5165 4.2982-0.83782 0.54185-2.0514 1.0305-3.0893 1.2439-0.7875 0.16194-1.808 0.2119-2.6479 0.12963zm2.7101-9.8013c0.10179-0.05201 0.22186-0.14509 0.26682-0.20684 0.10231-0.14051 0.10641-0.40297 0.0086-0.55221-0.06317-0.0964-0.30563-0.28121-0.36895-0.28121-0.01177 0-0.01215 0.08207-8.41e-4 0.18239 0.01832 0.16253 0.0075 0.19272-0.09973 0.2773-0.10191 0.08042-0.15818 0.09221-0.36831 0.07717-0.20601-0.01475-0.26474-0.0372-0.34675-0.13254-0.05431-0.06313-0.09874-0.15156-0.09874-0.1965 0-0.04087 0.01559-0.09962 0.0016-0.10872-0.02713-0.01773-0.09928 0.0574-0.14768 0.15101-0.2193 0.42408 0.16311 0.88473 0.73446 0.88473 0.1602 0 0.29295-0.02993 0.41945-0.09457zm3.4931-2.5534c-0.0036-0.01156-0.03279-0.16795-0.0648-0.34755-0.0885-0.4964-0.19994-0.69271-0.46114-0.81228-0.11855-0.05427-0.36634-0.1252-0.55064-0.15761-0.36594-0.06436-0.3572-0.0786 0.09389-0.15281 0.62962-0.10359 0.80565-0.29508 0.91092-0.99096 0.06206-0.41029 0.07576-0.40425 0.14846 0.06546 0.07259 0.46897 0.18001 0.66067 0.43696 0.77972 0.11605 0.05377 0.34503 0.11978 0.50884 0.14669 0.44492 0.07309 0.45467 0.0891 0.09049 0.1485-0.7856 0.12814-0.95467 0.30061-1.0699 1.0913-0.02008 0.1378-0.03946 0.24109-0.04309 0.22953zm2.2875-1.1819c-0.0164-0.10128-0.06417-0.26331-0.10615-0.36008-0.06777-0.15622-0.10115-0.18332-0.29766-0.24168-0.12173-0.03615-0.25461-0.06573-0.29528-0.06573-0.04067 0-0.08564-0.01891-0.09993-0.04203-0.01454-0.02352 0.01804-0.04203 0.07395-0.04203 0.05496 0 0.19792-0.0291 0.31768-0.06466 0.18122-0.05382 0.23091-0.09084 0.29616-0.22066 0.04312-0.0858 0.09128-0.22692 0.10701-0.31361 0.03325-0.18318 0.10738-0.21099 0.11205-0.04203 0.0098 0.35464 0.22424 0.57404 0.60789 0.62198 0.27036 0.03378 0.26605 0.08173-0.01108 0.12329-0.10978 0.01646-0.25336 0.05772-0.31905 0.0917-0.12808 0.06623-0.27806 0.34332-0.28068 0.51853-0.0031 0.20639-0.07346 0.23123-0.10491 0.03703zm-3.1103-2.3697c-0.06926-0.35692-0.20931-0.49395-0.56261-0.55045-0.20716-0.03313-0.19318-0.08039 0.03456-0.1168 0.35971-0.05752 0.43872-0.14133 0.52645-0.5584l0.05162-0.24543 0.03003 0.16812c0.06643 0.37194 0.14447 0.51375 0.32176 0.58468 0.09181 0.03674 0.21271 0.06679 0.26867 0.06679 0.17791 0 0.15495 0.07358-0.03169 0.10157-0.31108 0.04665-0.43526 0.15369-0.52605 0.45347l-0.08013 0.26456z"/></svg>
