<svg xmlns="http://www.w3.org/2000/svg" viewBox="0 0 24 24"><path d="M16.537 19.507 21 17.01V6.993l-4.463-2.496C14.083 3.124 12.041 2 12 2S9.917 3.124 7.462 4.497L3 6.993v1.963l4.462 2.496C9.917 12.825 11.96 13.95 12 13.95s1.263-.665 2.714-1.477c1.45-.812 2.649-1.477 2.662-1.477s.023.914.023 2.03l-.002 2.031-2.643 1.477c-1.454.812-2.678 1.485-2.72 1.496-.04.01-1.263-.647-2.716-1.46s-2.676-1.48-2.717-1.48c-.134 0-3.47 1.895-3.447 1.959.026.077 8.71 4.948 8.831 4.952.05.002 2.098-1.12 4.552-2.493zM10.149 8.992c-.96-.541-1.747-1-1.747-1.018 0-.06 3.49-1.98 3.598-1.98.107 0 3.598 1.92 3.598 1.98 0 .053-3.479 1.979-3.597 1.991-.058.006-.891-.432-1.852-.973z"/></svg>