<svg xmlns="http://www.w3.org/2000/svg" xml:space="preserve" width="24" height="24" fill="none" viewBox="0 0 24 24"><path fill="#000" d="M3.875 3A.873.873 0 0 0 3 3.875v16.25c0 .485.39.875.875.875h16.25c.485 0 .875-.39.875-.875V3.875A.873.873 0 0 0 20.125 3zm2 2.75h12.25a.75.75 0 0 1 .75.75.75.75 0 0 1-.75.75H5.875a.75.75 0 0 1-.75-.75.75.75 0 0 1 .75-.75m0 3h12.25a.75.75 0 0 1 .75.75.75.75 0 0 1-.75.75H5.875a.75.75 0 0 1-.75-.75.75.75 0 0 1 .75-.75m0 3h4.875a.75.75 0 0 1 .75.75.75.75 0 0 1-.75.75H5.875a.75.75 0 0 1-.75-.75.75.75 0 0 1 .75-.75" mask="url(#a)"/></svg>