<svg xmlns="http://www.w3.org/2000/svg" viewBox="0 0 24 24"><path d="M11.981 3.012a9 9 0 0 0-6.337 2.632L7.589 7.59a6.23 6.23 0 0 1 6.025-1.614 6.23 6.23 0 0 1 4.411 4.41 6.23 6.23 0 0 1-1.614 6.026l1.945 1.945a9 9 0 0 0 2.326-8.682 8.994 8.994 0 0 0-8.7-6.662z" opacity=".7"/><path d="M5.644 5.644c-3.499 3.499-3.499 9.213 0 12.712s9.213 3.499 12.712 0l-1.945-1.945a6.217 6.217 0 0 1-8.822 0 6.217 6.217 0 0 1 0-8.822z" opacity=".8"/><path d="M20.567 3.433a1.47 1.47 0 0 1 0 2.084l-15.05 15.05a1.47 1.47 0 0 1-2.084 0 1.47 1.47 0 0 1 0-2.084l15.05-15.05a1.47 1.47 0 0 1 2.084 0"/></svg>