<svg xmlns="http://www.w3.org/2000/svg" viewBox="0 0 24 24"><path d="M21.474 3.053c.292 0 .526.234.526.526V20.42a.525.525 0 1 1-1.052 0V3.579c0-.292.234-.526.526-.526m-3.158 6.315c.292 0 .526.235.526.527v4.21a.525.525 0 1 1-1.052 0v-4.21c0-.292.235-.527.526-.527m-3.158 1.053c.292 0 .527.235.527.526v2.106a.525.525 0 1 1-1.053 0v-2.106c0-.291.235-.526.526-.526M12 8.316c.292 0 .527.234.527.526v6.316a.525.525 0 1 1-1.053 0V8.842c0-.292.235-.526.526-.526M8.842 6.21c.292 0 .527.235.527.527v10.526a.525.525 0 1 1-1.053 0V6.737c0-.292.235-.527.526-.527M5.684 7.263c.292 0 .527.235.527.526v8.421a.525.525 0 1 1-1.053 0V7.79c0-.292.235-.527.526-.527M2.528 9.368c.291 0 .526.235.526.527v4.21a.525.525 0 1 1-1.053 0v-4.21c0-.292.235-.527.527-.527"/></svg>