<svg xmlns="http://www.w3.org/2000/svg" viewBox="0 0 192 192"><path d="M57.987 19.055c-9.99.007-19.976 3.802-27.562 11.385-15.172 15.165-15.189 39.929-.04 55.115l.024.014 10.42 10.414-10.408 10.402-.029.02c-15.187 15.18-15.189 39.973-.002 55.153s39.996 15.182 55.183.002l.06-.072L96 151.127l10.366 10.36.06.073c15.187 15.18 39.996 15.178 55.183-.002 15.187-15.18 15.186-39.974-.002-55.154a.496.496 0 0 0-.03-.02l-10.406-10.401 10.419-10.414.023-.014c15.15-15.186 15.133-39.95-.039-55.115-7.586-7.583-17.573-11.378-27.562-11.385-9.989-.007-19.983 3.774-27.58 11.346l-.052.063L96 40.839 85.62 30.464a5.924 5.924 0 0 0-.053-.063c-7.597-7.572-17.591-11.353-27.58-11.346zm76.033 87.889a27.049 27.037 0 0 1 27.048 27.035 27.049 27.037 0 0 1-27.048 27.037 27.049 27.037 0 0 1-27.048-27.037 27.049 27.037 0 0 1 27.048-27.035"/></svg>