<svg xmlns="http://www.w3.org/2000/svg" width="192" height="192" viewBox="0 0 192 192"><path d="M45.724 44.046c4.976 4.048 6.848 3.736 16.192 3.12l88.096-5.296c1.872 0 .32-1.864-.304-2.176l-14.64-10.576c-2.8-2.176-6.536-4.664-13.688-4.048l-85.32 6.224c-3.112.312-3.728 1.864-2.488 3.12l12.144 9.632m5.288 20.536v92.696c0 4.976 2.496 6.84 8.096 6.536l96.824-5.6c5.6-.312 6.224-3.736 6.224-7.784V58.35c0-4.032-1.552-6.216-4.984-5.904l-101.18 5.912C52.248 58.67 51 60.534 51 64.582m95.584 4.968c.624 2.8 0 5.6-2.8 5.92l-4.672.928v68.44c-4.048 2.176-7.784 3.416-10.896 3.416-4.984 0-6.24-1.552-9.968-6.216L87.736 94.134v46.344l9.656 2.184s0 5.6-7.792 5.6l-21.472 1.24c-.624-1.248 0-4.352 2.176-4.976l5.6-1.552v-61.28l-7.776-.632c-.624-2.8.928-6.84 5.288-7.152l23.04-1.552 31.76 48.528V77.958l-8.096-.928c-.624-3.432 1.864-5.92 4.976-6.224zM28.904 22.894l88.736-6.528c10.896-.936 13.696-.312 20.544 4.664l28.32 19.904c4.68 3.424 6.24 4.36 6.24 8.088v109.19c0 6.84-2.496 10.88-11.208 11.504l-103.05 6.224c-6.544.32-9.656-.616-13.08-4.976L24.534 143.9c-3.736-4.984-5.288-8.712-5.288-13.072V33.78c0-5.6 2.496-10.264 9.648-10.88z"/></svg>