<svg xmlns="http://www.w3.org/2000/svg" width="24" height="24" fill="none" viewBox="0 0 24 24"><path fill="#000" fill-rule="evenodd" d="M5.708 5.506c.622.506.856.467 2.024.39l11.012-.662c.234 0 .04-.233-.038-.272l-1.83-1.322c-.35-.272-.817-.583-1.711-.506L4.5 3.912c-.389.039-.466.233-.311.39l1.518 1.204m.661 2.567V19.66c0 .622.312.855 1.012.817l12.103-.7c.7-.039.778-.467.778-.973V7.294c0-.504-.194-.777-.623-.738l-12.647.739c-.467.039-.623.272-.623.778m11.948.621c.078.35 0 .7-.35.74l-.584.116v8.555c-.506.272-.973.427-1.362.427-.623 0-.78-.194-1.246-.777l-3.814-5.988v5.793l1.207.273s0 .7-.974.7l-2.684.155c-.078-.156 0-.544.272-.622l.7-.194v-7.66l-.972-.079c-.078-.35.116-.855.661-.894l2.88-.194 3.97 6.066V9.745l-1.012-.116c-.078-.429.233-.74.622-.778zM3.606 2.862l11.092-.816c1.362-.117 1.712-.039 2.568.583l3.54 2.488c.585.428.78.545.78 1.011v13.649c0 .855-.312 1.36-1.401 1.438l-12.881.778c-.818.04-1.207-.077-1.635-.622L3.06 17.988c-.467-.623-.661-1.089-.661-1.634V4.223c0-.7.312-1.283 1.206-1.36Z" clip-rule="evenodd"/></svg>