<svg xmlns="http://www.w3.org/2000/svg" width="24" height="24" fill="none" viewBox="0 0 24 24"><path fill="#000" d="M8.46 7.076a3 3 0 0 0-2.208.939h-.001q-.06-.003-.122-.002a3.15 3.15 0 0 0-2.774 1.692c-.231.45-.317.933-.344 1.425-.024.442 0 .89 0 1.327v4.24h2.377s.002-2.088 0-3.884c0-1.208-.009-2.285 0-2.507.042-1.045.328-1.728.861-2.287 1.77 0 2.915 1.206 2.978 3.125.015.441.02 2.798.02 2.798v2.754h2.375v-3.723c0-1.125.01-2.1-.069-2.772-.219-1.874-1.365-3.125-3.094-3.125zm6.292.225-2.374.003v3.723c0 1.126-.01 2.1.069 2.772.219 1.874 1.365 3.125 3.093 3.125a3 3 0 0 0 2.208-.939h.001q.06.003.123.002a3.14 3.14 0 0 0 2.773-1.691c.232-.45.317-.934.344-1.425.024-.443 0-.89 0-1.328v-4.24h-2.377s-.002 2.089 0 3.884c.001 1.208.009 2.285 0 2.507-.042 1.044-.328 1.728-.861 2.287-1.77 0-2.915-1.207-2.978-3.125-.015-.441-.02-1.533-.02-2.8V7.301"/></svg>