<svg xmlns="http://www.w3.org/2000/svg" viewBox="0 0 24 24"><path d="M19.957 2a4 4 0 0 0-.646.047c-.77 0-1.116.93-1.275 1.195L15.71 7.825c-.438.757-1.886 3.998-2.364 4.716-.04-.731.013-2.192.026-2.538.093-1.381.186-2.43.332-3.692.107-.983.32-2.086.12-3.069-.133-.611-.332-.651-1.209-.744-.916-.093-1.54 1.235-1.846 1.86-1.116 2.311-2.365 4.57-3.361 6.934-.292.69-.65 1.381-.956 2.059-.359.823-.691 1.634-1.076 2.444-.412.85-1.7 3.64-2.06 4.516-.398.957-.478 1.727 1.116 1.687.253 0 .81.054 1.501-.69.545-.585.651-1.13.97-1.94a210 210 0 0 1 3.202-7.611c.12-.28.398-1.09.677-1.714-.013.89-.16 1.953-.226 2.657-.212 2.577-.358 5.061-.584 7.612-.027.345-.12.757.04 1.075.159.32.557.399.876.439 1.275.159 1.408-.478 1.807-1.355.358-.784.57-1.421.89-2.218.983-2.458 2.019-4.889 3.161-7.28a46 46 0 0 1 .903-1.806c.585-1.103 1.063-2.14 1.7-3.361.479-.877.944-1.873 1.449-2.843.415-.797-.27-.956-.842-.963z"/></svg>