<svg xmlns="http://www.w3.org/2000/svg" viewBox="0 0 24 24"><path d="M19.727 14.346h-.082a6.36 6.36 0 0 1-3.636 3.736v-3.736l2.037-1.818-2.037-1.819V8.164a3.264 3.264 0 0 0 3.273-3.2c0-2.19-2.091-2.963-3.273-2.963a3.6 3.6 0 0 0-.909.1v.11h.464A1.23 1.23 0 0 1 17 3.318a1.19 1.19 0 0 1-1.24 1.14l-.05-.004c-2.037 0-4.436-1.654-7.046-1.654a3.737 3.737 0 0 0-3.927 3.482A2.6 2.6 0 0 0 6.8 8.955v-.1a1.24 1.24 0 0 1-.563-1.136A1.537 1.537 0 0 1 7.88 6.298l.028.003c2.191 0 5.727 1.818 7.918 1.818h.082v2.619l-2.037 1.818 2.037 1.818v3.791a7.8 7.8 0 0 1-2.528.391 5.63 5.63 0 0 1-3.845-1.263l3.691-1.654v-7.43l-5.163 2.273a5.45 5.45 0 0 1 2.99-3.254v-.082c-3.763.837-6.781 3.536-6.781 7.254 0 4.328 3.354 7.6 8.182 7.6 5.009 0 7.272-3.636 7.272-7.345zm-10.345 2.81a5.73 5.73 0 0 1-1.672-4.3 6.9 6.9 0 0 1 .309-2.164l1.709-.782v7.064z"/></svg>