<svg xmlns="http://www.w3.org/2000/svg" viewBox="0 0 192 192"><path d="M157.82 114.77h-.66a50.88 50.88 0 0 1-29.09 29.89v-29.89l16.3-14.54-16.3-14.56V65.31a26.11 26.11 0 0 0 26.19-25.6c0-17.52-16.73-23.7-26.19-23.7a28.8 28.8 0 0 0-7.27.8v.88h3.71a9.84 9.84 0 0 1 11.5 8.85 9.52 9.52 0 0 1-9.93 9.12l-.4-.03c-16.3 0-35.49-13.23-56.37-13.23A29.9 29.9 0 0 0 37.9 50.26a20.8 20.8 0 0 0 16.5 21.38v-.8a9.92 9.92 0 0 1-4.5-9.09A12.3 12.3 0 0 1 63.04 50.4l.22.02c17.53 0 45.82 14.54 63.35 14.54h.66v20.96l-16.3 14.54 16.3 14.54v30.33a62.4 62.4 0 0 1-20.23 3.13 45.04 45.04 0 0 1-30.76-10.1l29.53-13.24V65.67l-41.3 18.19a43.6 43.6 0 0 1 23.92-26.04v-.65c-30.1 6.7-54.25 28.29-54.25 58.03 0 34.63 26.83 60.8 65.45 60.8 40.08 0 58.18-29.09 58.18-58.76zm-82.76 22.48a45.84 45.84 0 0 1-13.38-34.4 55.2 55.2 0 0 1 2.47-17.31l13.68-6.26v56.51z"/></svg>