<svg xmlns="http://www.w3.org/2000/svg" viewBox="0 0 24 24"><path d="M12 18.034a.872.872 0 1 0 0-1.744.872.872 0 0 0 0 1.744m0-7.558v-.58h3.05v.58h-1.182v3.241h-.687v-3.24zm3.914-.58.994 3.007h.04l.992-3.007h.761l-1.347 3.821H16.5l-1.346-3.821zm-4.814 4.78H9.75v-.291l.461-.504q.15-.155.242-.258a1 1 0 0 0 .133-.19.4.4 0 0 0 .042-.183q0-.119-.067-.177a.25.25 0 0 0-.174-.06.5.5 0 0 0-.224.053 7 7 0 0 0-.324.167v-.41a1.4 1.4 0 0 1 .271-.12 1 1 0 0 1 .307-.04.7.7 0 0 1 .334.07.5.5 0 0 1 .293.467.7.7 0 0 1-.064.301 1.1 1.1 0 0 1-.19.269 6 6 0 0 1-.298.294l-.256.24v.019h.864zm-1.237-3.348q0 .525-.137.959a2 2 0 0 1-.419.74 1.8 1.8 0 0 1-.707.479 2.9 2.9 0 0 1-1.014.164q-.585 0-1.014-.165a1.85 1.85 0 0 1-.71-.48 2 2 0 0 1-.417-.742 3.2 3.2 0 0 1-.136-.961q0-.705.242-1.23.245-.524.752-.813.508-.29 1.29-.29.779 0 1.28.29.502.289.745.814.245.525.245 1.235m-3.491 0q0 .475.125.821.128.342.395.528.268.184.694.184.432.001.7-.184.27-.186.389-.528a2.4 2.4 0 0 0 .125-.82q0-.717-.281-1.127t-.926-.41q-.43 0-.701.186a1.07 1.07 0 0 0-.395.53 2.4 2.4 0 0 0-.125.82m-2.05-4.477h15.355c.794 0 1.438.644 1.438 1.438v7.035a1.44 1.44 0 0 1-1.438 1.438h-5.16a.443.443 0 1 0 0 .885h5.159A2.324 2.324 0 0 0 22 15.323V8.29a2.324 2.324 0 0 0-2.324-2.324H4.324A2.324 2.324 0 0 0 2 8.29v7.033a2.324 2.324 0 0 0 2.324 2.324h5.147a.443.443 0 1 0 0-.885H4.324a1.44 1.44 0 0 1-1.439-1.438V8.289c0-.794.644-1.438 1.438-1.438"/></svg>