<svg xmlns="http://www.w3.org/2000/svg" viewBox="0 0 24 24"><path d="M12 18.034a.872.872 0 1 0 0-1.744.872.872 0 0 0 0 1.744m0-7.558v-.58h3.05v.58h-1.182v3.241h-.687v-3.24zm3.914-.58.994 3.007h.04l.992-3.007h.761l-1.347 3.821H16.5l-1.346-3.821h.76m-4.814 4.78H9.75v-.291l.461-.504c.1-.103.181-.19.242-.258a.853.853 0 0 0 .133-.19.41.41 0 0 0 .042-.183c0-.079-.022-.138-.067-.177a.249.249 0 0 0-.174-.06.505.505 0 0 0-.224.053 6.87 6.87 0 0 0-.324.167v-.41a1.4 1.4 0 0 1 .271-.12 1.03 1.03 0 0 1 .307-.04.73.73 0 0 1 .334.07.504.504 0 0 1 .293.467.684.684 0 0 1-.064.301 1.08 1.08 0 0 1-.19.269 5.506 5.506 0 0 1-.298.294l-.256.24v.019h.864v.353m-1.237-3.348c0 .35-.045.67-.137.959a1.988 1.988 0 0 1-.419.74 1.827 1.827 0 0 1-.707.479 2.853 2.853 0 0 1-1.014.164c-.39 0-.728-.055-1.014-.165a1.85 1.85 0 0 1-.71-.48 2.015 2.015 0 0 1-.417-.742 3.161 3.161 0 0 1-.136-.961c0-.47.081-.88.242-1.23.163-.349.414-.621.752-.813.338-.193.769-.29 1.29-.29.519 0 .946.097 1.28.29.335.192.583.464.745.814.163.35.245.762.245 1.235m-3.491 0c0 .317.042.59.125.821.085.228.217.404.395.528.179.123.41.184.694.184.288 0 .521-.06.7-.184.18-.124.309-.3.389-.528a2.42 2.42 0 0 0 .125-.82c0-.478-.094-.854-.281-1.127-.188-.274-.497-.41-.926-.41-.286 0-.52.061-.701.186a1.067 1.067 0 0 0-.395.53 2.41 2.41 0 0 0-.125.82m-2.05-4.477h15.355c.794 0 1.438.644 1.438 1.438v7.035a1.438 1.438 0 0 1-1.438 1.438h-5.16a.443.443 0 1 0 0 .885h5.159A2.324 2.324 0 0 0 22 15.323V8.29a2.324 2.324 0 0 0-2.324-2.324H4.324A2.324 2.324 0 0 0 2 8.29v7.033a2.324 2.324 0 0 0 2.324 2.324h5.147a.443.443 0 1 0 0-.885H4.324a1.438 1.438 0 0 1-1.439-1.438V8.289c0-.794.644-1.438 1.438-1.438"/></svg>