<svg xmlns="http://www.w3.org/2000/svg" viewBox="0 0 24 24"><path d="M12.443 18.346a14 14 0 0 1-1.12-.24c-1.925-.494-3.416-1.503-5.123-3.466-1.697-1.952-2.311-2.394-3.606-2.599a.85.85 0 0 1-.424-.22c-.168-.18-.17-.199-.17-1.593V8.816l.206-.177c.19-.164.242-.174.67-.13a7.2 7.2 0 0 1 3.887 1.64c.369.306 1.087 1.031 1.597 1.611 1.567 1.783 2.174 2.295 3.2 2.695.569.222.87.294 1.686.405 1.107.15 1.067.08 1.067 1.835 0 1.395-.003 1.425-.164 1.576-.141.133-.238.152-.723.145a10 10 0 0 1-.983-.07m8.163-2.927c-1.912-.321-3.362-1.235-4.973-3.133-1.94-2.289-3.01-2.966-4.994-3.165-.514-.051-.672-.095-.81-.226-.172-.161-.173-.167-.173-1.584 0-1.421 0-1.422.175-1.586.168-.157.204-.162.935-.117.96.06 1.86.249 2.746.577 1.712.634 2.666 1.367 4.513 3.464.517.587 1.104 1.214 1.303 1.393.465.418 1.246.798 1.826.888.332.051.503.118.635.25.175.175.18.204.203 1.35.028 1.35-.005 1.6-.237 1.833-.192.192-.305.197-1.15.055z"/></svg>