<svg xmlns="http://www.w3.org/2000/svg" width="192" height="192" viewBox="0 0 192 192"><path d="M125.3 168.49c-2.024-1.072-13.84-7.624-69.2-38.344a16448 16448 0 0 0-32.96-18.272c-6.184-3.408-7.136-4.24-7.136-6.288 0-1.08 2.472-7.944 8.256-22.96a2032 2032 0 0 1 8.92-22.96c.832-1.912 2.184-3.536 3.496-4.216 1.232-.64 32.016-11.872 33.584-12.264 1.696-.416 3.16.392 4.024 2.208.416.88 2.136 5.392 3.824 10.032s4.2 11.512 5.584 15.256c3.168 8.584 3.288 9.8 1.08 11.104-.584.352-4.392 1.84-8.456 3.32-4.072 1.48-7.952 3.016-8.624 3.408-1.56.912-1.8 2.312-.576 3.44.48.448 8.304 4.904 17.376 9.912 25.36 13.984 23.96 13.36 25.648 11.528.832-.896 15.984-39.44 16.856-42.864.368-1.464.328-1.664-.464-2.304-1.08-.88-.928-.92-10.88 2.6-9.872 3.488-10.816 3.568-12.136.96-.696-1.376-11.32-30.56-11.984-32.912a3.28 3.28 0 0 1 1.376-3.8c.528-.352 8.264-3.32 17.184-6.6 13.24-4.864 16.616-5.96 18.336-5.992 2.224-.032 2.512.12 43.248 22.656 2.824 1.56 4.328 3.208 4.328 4.72 0 .608-10.104 27.4-22.448 59.544-17.408 45.336-22.664 58.64-23.424 59.304-1.296 1.144-2.352 1.088-4.832-.208z"/></svg>