<svg xmlns="http://www.w3.org/2000/svg" viewBox="0 0 24 24"><path d="M15.662 21.061c-.253-.134-1.73-.953-8.65-4.793a2056 2056 0 0 0-4.12-2.284c-.773-.426-.892-.53-.892-.786 0-.135.309-.993 1.032-2.87a254 254 0 0 1 1.115-2.87c.104-.239.273-.442.437-.527.154-.08 4.002-1.484 4.198-1.533.212-.052.395.049.503.276.052.11.267.674.478 1.254s.525 1.439.698 1.907c.396 1.073.411 1.225.135 1.388-.073.044-.549.23-1.057.415-.509.185-.994.377-1.078.426-.195.114-.225.289-.072.43.06.056 1.038.613 2.172 1.239 3.17 1.748 2.995 1.67 3.206 1.441.104-.112 1.998-4.93 2.107-5.358.046-.183.041-.208-.058-.288-.135-.11-.116-.115-1.36.325-1.234.436-1.352.446-1.517.12-.087-.172-1.415-3.82-1.498-4.114a.41.41 0 0 1 .172-.475c.066-.044 1.033-.415 2.148-.825 1.655-.608 2.077-.745 2.292-.749.278-.004.314.015 5.406 2.832.353.195.541.401.541.59 0 .076-1.263 3.425-2.806 7.443-2.176 5.667-2.833 7.33-2.928 7.413-.162.143-.294.136-.604-.026z"/></svg>