<svg xmlns="http://www.w3.org/2000/svg" viewBox="0 0 192 192"><path d="M95.42 18a80 80 0 0 0-14.13 1.4c-6.11 1.04-11 2.61-17.63 4a78.56 78.56 0 0 0 45.38 149.45l6.64-1.4a1.6 1.6 0 0 1 .69 0l6.98-3.15 1.23-.35 2.97-1.4a82.4 82.4 0 0 0 16.06-10.47 92 92 0 0 1-14.66 10.82l.34.18 2.97-.7s0 1.57-.18 1.23c-1.92 1.22.88 0 4.02-1.58a50.4 50.4 0 0 0 9.08-5.94 99.2 99.2 0 0 0 12.74-13.26c5.41-9.08 11.7-16.94 14.67-27.59a61.12 61.12 0 0 0 2.26-31.94 70.4 70.4 0 0 0-2.8-13.97 71.2 71.2 0 0 0-15.7-27.57 86.4 86.4 0 0 0-14.48-12.23 248 248 0 0 1-14.32-7.85c-3.15-1.75-6.81-3.84-11.7-5.24a84 84 0 0 0-17.63-2.62 72 72 0 0 0-2.8 0zm0 4.53a96 96 0 0 1 12.23.88l19.54 4.88a68.8 68.8 0 0 1 22.7 14.32 104 104 0 0 1 16.4 22.17c3.15 6.29 4.9 14.32 6.47 20.6a67.2 67.2 0 0 1 0 11c-.7-45.74-46.26-76.82-90.78-70.7A90.8 90.8 0 0 0 44.8 44.36c-4.89 3.32-7.16 9.24-12.05 14.13a66.16 66.16 0 0 0 8.2 87.28 96 96 0 0 0 9.96 8.56 68.4 68.4 0 0 1-32.64-53.07c0-7.86 1.56-15.71 3.14-23.74a79.44 79.44 0 0 1 74.01-54.99m-.17 11.52a71.6 71.6 0 0 1 31.94 6.99A69.28 69.28 0 0 1 163 90.09v19.2a69.28 69.28 0 0 1-62 58.13c17.45-2.61 32.12-12.21 44-25.49 3.49-4.7 6.1-9.24 9.07-13.96 4.02-9.77 4.02-18.33 5.07-24.44 1.74-11.17-2.28-20.24-5.24-29.68a51.2 51.2 0 0 0-23.04-25.84c-28.63-17.61-67.74-12.73-86.4 13.81l-1.58 1.92a23.2 23.2 0 0 1 7.86-11.7A85.6 85.6 0 0 1 84.96 34.4a96 96 0 0 1 10.3-.35m0 26.53c6.98 0 14.32 1.75 20.95 6.11a41.92 41.92 0 0 1 13.97 16.59l2.1 7.85a40 40 0 0 1 1.03 7.85 45.6 45.6 0 0 1-1.04 8.21c-.7 2.1-1.75 3.66-2.44 5.06-.88 1.57-1.04 3.15-2.62 6.46-2.27 2.97-4.89 5.24-6.8 6.98a34.4 34.4 0 0 1-12.93 7.34 40 40 0 0 1-6.98 1.4 32 32 0 0 1-15.19-.88c-5.24-1.4-9.25-4.36-13.44-6.46a44 44 0 0 1-6.46-5.76 20 20 0 0 1-2.96-4.19l-.88-1.74h.7c-.35-.53-1.04-.7-1.22-1.58 1.74 2.27 3.84 4.37 5.76 6.47a35.76 35.76 0 0 1-8.9-27.94 37.68 37.68 0 0 1 37.52-31.6m-1.92 1.92h-.87A37.2 37.2 0 0 0 67.32 78.4a48 48 0 0 1 4.2-4.89 34.04 34.04 0 0 1 42.59-4.2c2.27 1.75 5.58 3.33 6.98 5.6 4.02 5.23 6.99 10.47 8.73 16.23a35.78 35.78 0 0 1-34.04 41.55c1.74 0 3.84.88 5.76.7 2.97-.88 6.98-1.75 9.77-3.15a52 52 0 0 0 10.48-7.68 32 32 0 0 0 6.98-10.47l1.74-8.9c3.15-18.17-9.6-34.05-26.36-39.11a61.6 61.6 0 0 0-10.64-1.4M108.7 72.8c9.78 8.38 20.24 21.65 11.52 35.96-3.14 5.24-9.26 14.32-14.66 16.24-5.24 1.74-6.99 3.49-9.78 4.01h3.49a33.2 33.2 0 0 0 23.22-16.76 33.84 33.84 0 0 0 2.8-19.37 38.4 38.4 0 0 0-8.73-15.54c-1.76-1.4-3.15-2.97-5.76-3.5 1.74 1.23 1.21 1.05-2.1-1.03m-47.14 28.1a32.32 32.32 0 0 0 28.28 28.27h2.28c-3.84-.7-6.12-2.26-9.96-3.66l-8.03-5.07a33.2 33.2 0 0 1-12.56-19.55"/></svg>