<svg xmlns="http://www.w3.org/2000/svg" viewBox="0 0 24 24"><path d="M11.928 2.25a10 10 0 0 0-1.767.175c-.764.13-1.375.327-2.204.501a9.82 9.82 0 0 0 5.673 18.68l.83-.175a.2.2 0 0 1 .086 0l.873-.393.153-.044.371-.174a10.3 10.3 0 0 0 2.008-1.31 11.5 11.5 0 0 1-1.833 1.353l.043.022.371-.087s0 .196-.022.153c-.24.153.11 0 .502-.197a6.3 6.3 0 0 0 1.135-.742 12.4 12.4 0 0 0 1.593-1.658c.676-1.135 1.462-2.117 1.833-3.448a7.64 7.64 0 0 0 .283-3.993 8.8 8.8 0 0 0-.349-1.746 8.9 8.9 0 0 0-1.964-3.447 10.8 10.8 0 0 0-1.81-1.528 31 31 0 0 1-1.79-.982c-.393-.218-.851-.48-1.462-.654a10.5 10.5 0 0 0-2.204-.328 9 9 0 0 0-.349 0zm0 .567a12 12 0 0 1 1.528.11l2.443.61a8.6 8.6 0 0 1 2.837 1.79 12.9 12.9 0 0 1 2.051 2.771c.393.786.611 1.79.808 2.575a8.4 8.4 0 0 1 0 1.375c-.088-5.717-5.783-9.602-11.347-8.838A11.35 11.35 0 0 0 5.6 5.545c-.611.415-.895 1.156-1.506 1.767a8.27 8.27 0 0 0 1.026 10.91 12 12 0 0 0 1.244 1.07 8.55 8.55 0 0 1-4.08-6.634c0-.982.195-1.964.392-2.968a9.93 9.93 0 0 1 9.252-6.873m-.022 1.44a8.95 8.95 0 0 1 3.993.873 8.66 8.66 0 0 1 4.474 6.132v2.4a8.66 8.66 0 0 1-7.747 7.266c2.182-.327 4.015-1.527 5.5-3.186.436-.589.763-1.156 1.134-1.745.502-1.222.502-2.292.633-3.055.218-1.397-.284-2.531-.655-3.71a6.4 6.4 0 0 0-2.88-3.23C12.779 3.8 7.89 4.41 5.557 7.728l-.197.24a2.9 2.9 0 0 1 .982-1.462A10.7 10.7 0 0 1 10.62 4.3a12 12 0 0 1 1.287-.044m0 3.317c.873 0 1.79.218 2.619.764a5.24 5.24 0 0 1 1.746 2.073l.262.982a5 5 0 0 1 .13.981 5.7 5.7 0 0 1-.13 1.026c-.088.262-.219.458-.306.633-.11.196-.13.393-.327.807-.284.371-.611.655-.851.873a4.3 4.3 0 0 1-1.615.917 5 5 0 0 1-.873.174 4 4 0 0 1-1.898-.109c-.655-.175-1.157-.545-1.68-.807a5.5 5.5 0 0 1-.808-.72 2.5 2.5 0 0 1-.37-.524l-.11-.218h.087c-.043-.066-.13-.088-.152-.197.218.284.48.546.72.808a4.47 4.47 0 0 1-1.113-3.492 4.71 4.71 0 0 1 4.691-3.95m-.24.24h-.109A4.65 4.65 0 0 0 8.415 9.8a6 6 0 0 1 .524-.611 4.255 4.255 0 0 1 5.324-.524c.284.218.698.415.873.698.502.655.873 1.31 1.091 2.03a4.473 4.473 0 0 1-4.255 5.193c.218 0 .48.11.72.087.371-.109.873-.218 1.222-.393a6.5 6.5 0 0 0 1.31-.96 4 4 0 0 0 .872-1.309l.218-1.113c.393-2.27-1.2-4.255-3.295-4.888a7.7 7.7 0 0 0-1.33-.174M13.586 9.1c1.222 1.048 2.53 2.706 1.44 4.495-.393.655-1.157 1.79-1.833 2.03-.655.218-.873.436-1.222.502h.436a4.15 4.15 0 0 0 2.903-2.095 4.23 4.23 0 0 0 .349-2.422 4.8 4.8 0 0 0-1.091-1.942c-.219-.175-.393-.371-.72-.437.218.153.152.131-.262-.13m-5.892 3.512a4.04 4.04 0 0 0 3.535 3.535h.284c-.48-.087-.764-.283-1.244-.458l-1.004-.633a4.15 4.15 0 0 1-1.57-2.444"/></svg>