<svg xmlns="http://www.w3.org/2000/svg" width="192" height="192" viewBox="0 0 192 192"><path d="M95.436 18.013a79.982 79.982 0 0 0-14.127 1.4c-6.109 1.04-10.998 2.61-17.626 3.999a78.543 78.543 0 0 0 45.37 149.42l6.639-1.4a1.6 1.6 0 0 1 .69 0l6.978-3.15 1.23-.35 2.969-1.399a82.382 82.382 0 0 0 16.056-10.468 91.98 91.98 0 0 1-14.657 10.818l.34.18 2.97-.7s0 1.57-.18 1.23c-1.92 1.22.88 0 4.019-1.58a50.389 50.389 0 0 0 9.078-5.938 99.178 99.178 0 0 0 12.737-13.257c5.408-9.078 11.697-16.936 14.667-27.584a61.107 61.107 0 0 0 2.259-31.933 70.385 70.385 0 0 0-2.8-13.967 71.184 71.184 0 0 0-15.696-27.564 86.381 86.381 0 0 0-14.477-12.227 247.95 247.95 0 0 1-14.317-7.849c-3.15-1.75-6.809-3.839-11.697-5.238a83.982 83.982 0 0 0-17.626-2.62 71.984 71.984 0 0 0-2.8 0zm0 4.529a95.979 95.979 0 0 1 12.227.88l19.536 4.879a68.785 68.785 0 0 1 22.695 14.317 103.98 103.98 0 0 1 16.396 22.165c3.15 6.288 4.899 14.317 6.469 20.595a67.185 67.185 0 0 1 0 10.998c-.7-45.73-46.25-76.803-90.76-70.684a90.78 90.78 0 0 0-37.172 18.676c-4.89 3.319-7.159 9.238-12.047 14.127a66.145 66.145 0 0 0 8.198 87.26 95.979 95.979 0 0 0 9.958 8.559 68.385 68.385 0 0 1-32.633-53.058c0-7.858 1.56-15.707 3.139-23.735a79.423 79.423 0 0 1 73.994-54.978m-.17 11.517a71.584 71.584 0 0 1 31.933 6.988A69.265 69.265 0 0 1 163 90.088v19.195a69.265 69.265 0 0 1-61.986 58.117c17.446-2.61 32.113-12.207 43.99-25.484 3.49-4.699 6.099-9.238 9.068-13.957 4.019-9.767 4.019-18.326 5.069-24.435 1.74-11.168-2.28-20.236-5.239-29.673a51.189 51.189 0 0 0-23.035-25.834c-28.623-17.606-67.724-12.727-86.38 13.807l-1.58 1.92a23.195 23.195 0 0 1 7.859-11.697A85.581 85.581 0 0 1 84.978 34.41a95.979 95.979 0 0 1 10.298-.35m0 26.524c6.978 0 14.317 1.75 20.945 6.109a41.911 41.911 0 0 1 13.967 16.586l2.1 7.848a39.991 39.991 0 0 1 1.029 7.848 45.59 45.59 0 0 1-1.04 8.208c-.7 2.1-1.75 3.66-2.44 5.06-.88 1.57-1.04 3.149-2.619 6.458-2.27 2.97-4.889 5.239-6.798 6.978a34.392 34.392 0 0 1-12.927 7.339 39.991 39.991 0 0 1-6.979 1.4 31.993 31.993 0 0 1-15.187-.88c-5.239-1.4-9.248-4.36-13.437-6.459a43.99 43.99 0 0 1-6.458-5.759 19.996 19.996 0 0 1-2.96-4.189l-.88-1.74h.7c-.35-.53-1.04-.7-1.22-1.579 1.74 2.27 3.84 4.37 5.76 6.469a35.752 35.752 0 0 1-8.899-27.934 37.672 37.672 0 0 1 37.512-31.593m-1.92 1.92h-.87A37.192 37.192 0 0 0 67.343 78.4a47.989 47.989 0 0 1 4.199-4.889 34.033 34.033 0 0 1 42.581-4.199c2.27 1.75 5.579 3.33 6.978 5.6 4.02 5.228 6.989 10.467 8.729 16.225a35.772 35.772 0 0 1-34.033 41.541c1.74 0 3.839.88 5.758.7 2.97-.88 6.979-1.75 9.768-3.15a51.989 51.989 0 0 0 10.478-7.678 31.993 31.993 0 0 0 6.979-10.468l1.74-8.898c3.149-18.166-9.599-34.043-26.355-39.1a61.586 61.586 0 0 0-10.638-1.4m15.187 10.118c9.778 8.378 20.236 21.645 11.517 35.952-3.139 5.239-9.258 14.317-14.657 16.236-5.239 1.74-6.988 3.489-9.778 4.009h3.49a33.193 33.193 0 0 0 23.215-16.756 33.833 33.833 0 0 0 2.799-19.366 38.392 38.392 0 0 0-8.728-15.537c-1.76-1.4-3.15-2.97-5.759-3.5 1.74 1.23 1.21 1.05-2.1-1.03m-47.13 28.095a32.313 32.313 0 0 0 28.275 28.264h2.28c-3.84-.7-6.12-2.26-9.959-3.66l-8.028-5.068a33.193 33.193 0 0 1-12.557-19.546"/></svg>