<svg xmlns="http://www.w3.org/2000/svg" viewBox="0 0 24 24"><path d="M11.928 2.25a9.798 9.798 0 0 0-1.767.175c-.764.13-1.375.327-2.204.501a9.82 9.82 0 0 0 5.673 18.68l.83-.175a.218.218 0 0 1 .086 0l.873-.393.153-.044.371-.174a10.256 10.256 0 0 0 2.008-1.31 11.478 11.478 0 0 1-1.833 1.353l.043.022.371-.087s0 .196-.022.153c-.24.153.11 0 .502-.197a6.284 6.284 0 0 0 1.135-.742 12.394 12.394 0 0 0 1.593-1.658c.676-1.135 1.462-2.117 1.833-3.448a7.637 7.637 0 0 0 .283-3.993 8.772 8.772 0 0 0-.349-1.746 8.881 8.881 0 0 0-1.964-3.447 10.801 10.801 0 0 0-1.81-1.528 30.484 30.484 0 0 1-1.79-.982c-.393-.218-.851-.48-1.462-.654a10.539 10.539 0 0 0-2.204-.328 9.165 9.165 0 0 0-.349 0zm0 .567a12.001 12.001 0 0 1 1.528.11l2.443.61a8.576 8.576 0 0 1 2.837 1.79 12.853 12.853 0 0 1 2.051 2.771c.393.786.611 1.79.808 2.575a8.38 8.38 0 0 1 0 1.375c-.088-5.717-5.783-9.602-11.347-8.838A11.347 11.347 0 0 0 5.6 5.545c-.611.415-.895 1.156-1.506 1.767a8.27 8.27 0 0 0 1.026 10.91 11.783 11.783 0 0 0 1.244 1.07 8.554 8.554 0 0 1-4.08-6.634c0-.982.195-1.964.392-2.968a9.929 9.929 0 0 1 9.252-6.873m-.022 1.44a8.947 8.947 0 0 1 3.993.873 8.663 8.663 0 0 1 4.474 6.132v2.4a8.663 8.663 0 0 1-7.747 7.266c2.182-.327 4.015-1.527 5.5-3.186.436-.589.763-1.156 1.134-1.745.502-1.222.502-2.292.633-3.055.218-1.397-.284-2.531-.655-3.71a6.394 6.394 0 0 0-2.88-3.23C12.779 3.8 7.89 4.41 5.557 7.728l-.197.24a2.902 2.902 0 0 1 .982-1.462A10.692 10.692 0 0 1 10.62 4.3a12.198 12.198 0 0 1 1.287-.044m0 3.317c.873 0 1.79.218 2.619.764a5.237 5.237 0 0 1 1.746 2.073l.262.982a4.844 4.844 0 0 1 .13.981 5.739 5.739 0 0 1-.13 1.026c-.088.262-.219.458-.306.633-.11.196-.13.393-.327.807-.284.371-.611.655-.851.873a4.32 4.32 0 0 1-1.615.917 5.128 5.128 0 0 1-.873.174 3.971 3.971 0 0 1-1.898-.109c-.655-.175-1.157-.545-1.68-.807a5.455 5.455 0 0 1-.808-.72 2.466 2.466 0 0 1-.37-.524l-.11-.218h.087c-.043-.066-.13-.088-.152-.197.218.284.48.546.72.808a4.473 4.473 0 0 1-1.113-3.492 4.713 4.713 0 0 1 4.691-3.95m-.24.24h-.109A4.648 4.648 0 0 0 8.415 9.8a5.914 5.914 0 0 1 .524-.611 4.255 4.255 0 0 1 5.324-.524c.284.218.698.415.873.698.502.655.873 1.31 1.091 2.03a4.473 4.473 0 0 1-4.255 5.193c.218 0 .48.11.72.087.371-.109.873-.218 1.222-.393a6.459 6.459 0 0 0 1.31-.96 4.015 4.015 0 0 0 .872-1.309l.218-1.113c.393-2.27-1.2-4.255-3.295-4.888a7.66 7.66 0 0 0-1.33-.174M13.586 9.1c1.222 1.048 2.53 2.706 1.44 4.495-.393.655-1.157 1.79-1.833 2.03-.655.218-.873.436-1.222.502h.436a4.146 4.146 0 0 0 2.903-2.095 4.233 4.233 0 0 0 .349-2.422 4.8 4.8 0 0 0-1.091-1.942c-.219-.175-.393-.371-.72-.437.218.153.152.131-.262-.13m-5.892 3.512a4.037 4.037 0 0 0 3.535 3.535h.284c-.48-.087-.764-.283-1.244-.458l-1.004-.633a4.146 4.146 0 0 1-1.57-2.444"/></svg>