<svg xmlns="http://www.w3.org/2000/svg" viewBox="0 0 24 24"><path d="M8.944 7.093q1.63 0 2.58.357.968.356 1.393.985.424.61.424 1.409 0 .696-.39 1.256-.374.56-1.223.9.883.289 1.342.917.458.611.458 1.41 0 1.204-.815 1.884-.798.679-2.224.679-.475 0-.917-.068-.424-.051-.747-.119l.306-1.171q.305.067.577.118.289.051.611.051.85 0 1.29-.322.442-.34.442-1.12 0-.323-.119-.612t-.39-.51q-.272-.237-.68-.373-.39-.136-1.205-.136h-.373V11.44h.407q.526 0 1.002-.119.492-.136.78-.407.391-.374.391-.985 0-.713-.679-1.155-.679-.458-2.292-.458-1.477 0-2.597.441Q5.175 9.2 4.462 9.98q-.713.764-.968 1.766.442-.29.95-.442.527-.17 1.054-.17 1.239 0 2.003.73.764.713.764 2.038 0 1.409-.798 2.207-.781.798-2.105.798-.883 0-1.664-.442-.764-.441-1.24-1.34Q2 14.206 2 12.814q0-1.715.815-2.988.832-1.29 2.394-2.003 1.562-.73 3.735-.73zm-3.684 5.23q-.527 0-1.002.22-.475.204-.883.56.051 1.29.594 1.953.544.662 1.427.662.645 0 1.052-.441.408-.442.408-1.24 0-.832-.459-1.273-.441-.441-1.137-.441zM22 11.966q0 .985-.204 1.868-.187.883-.645 1.579t-1.222 1.103q-.748.39-1.868.39-1.155 0-1.902-.475-.747-.492-1.171-1.205-.408-.713-.56-1.392l1.477-.289q.119.459.34.968.237.51.661.866.442.34 1.138.34.9 0 1.426-.476.543-.475.781-1.307.255-.85.255-1.953 0-1.664-.56-2.682-.56-1.02-1.817-1.02-.662 0-1.104.357-.441.34-.696.832t-.373.951l-1.46-.288q.203-.714.628-1.41.441-.696 1.188-1.154.764-.476 1.919-.476 1.052 0 1.765.408.73.39 1.172 1.087.441.679.628 1.562.204.865.204 1.816z"/></svg>