<svg xmlns="http://www.w3.org/2000/svg" width="192" height="192" viewBox="0 0 192 192"><path d="M71.552 56.744q13.04 0 20.64 2.856 7.744 2.848 11.144 7.88 3.392 4.88 3.392 11.272 0 5.568-3.12 10.048-2.992 4.48-9.784 7.2 7.064 2.312 10.736 7.336 3.664 4.888 3.664 11.28 0 9.632-6.52 15.072-6.384 5.432-17.792 5.432-3.8 0-7.336-.544-3.392-.408-5.976-.952l2.448-9.368q2.44.536 4.616.944 2.312.408 4.888.408 6.8 0 10.32-2.576 3.536-2.72 3.536-8.96 0-2.584-.952-4.896t-3.12-4.08q-2.176-1.896-5.44-2.984-3.12-1.088-9.64-1.088h-2.984V91.52h3.256q4.208 0 8.016-.952 3.936-1.088 6.24-3.256 3.128-2.992 3.128-7.88 0-5.704-5.432-9.24-5.432-3.664-18.336-3.664-11.816 0-20.776 3.528Q41.4 73.6 35.696 79.84q-5.704 6.112-7.744 14.128 3.536-2.32 7.6-3.536 4.216-1.36 8.432-1.36 9.912 0 16.024 5.84 6.112 5.704 6.112 16.304 0 11.272-6.384 17.656-6.248 6.384-16.84 6.384-7.064 0-13.312-3.536-6.112-3.528-9.92-10.72Q16 113.648 16 102.512q0-13.72 6.52-23.904 6.656-10.32 19.152-16.024 12.496-5.84 29.88-5.84M42.08 98.584q-4.216 0-8.016 1.76-3.8 1.632-7.064 4.48.408 10.32 4.752 15.624 4.352 5.296 11.416 5.296 5.16 0 8.416-3.528 3.264-3.536 3.264-9.92 0-6.656-3.672-10.184-3.528-3.528-9.096-3.528M176 95.728q0 7.88-1.632 14.944-1.496 7.064-5.16 12.632t-9.776 8.824q-5.984 3.12-14.944 3.12-9.24 0-15.216-3.8-5.976-3.936-9.368-9.64-3.264-5.704-4.48-11.136l11.816-2.312q.952 3.672 2.72 7.744 1.896 4.08 5.288 6.928 3.536 2.72 9.104 2.72 7.2 0 11.408-3.808 4.344-3.8 6.248-10.456 2.04-6.8 2.04-15.624 0-13.312-4.48-21.456-4.48-8.16-14.536-8.16-5.296 0-8.832 2.856-3.528 2.72-5.568 6.656t-2.984 7.608l-11.68-2.304q1.624-5.712 5.024-11.28 3.528-5.568 9.504-9.232 6.112-3.808 15.352-3.808 8.416 0 14.12 3.264 5.84 3.12 9.376 8.696 3.528 5.432 5.024 12.496Q176 88.12 176 95.728"/></svg>