<svg xmlns="http://www.w3.org/2000/svg" viewBox="0 0 24 24"><path d="M11.965 2c-1.074.003-1.145.01-1.747.172a10 10 0 0 0-1.108.372c-2.129.9-3.724 2.868-4.227 5.214-.158.74-.134 2.082.052 2.88.162.693.439 1.432.763 2.035.121.225.913 1.43 1.76 2.676a2109 2109 0 0 1 3.784 5.586c.404.595.755 1.074.781 1.065s.412-.557.857-1.218a3247 3247 0 0 1 3.082-4.56c2.577-3.808 2.803-4.201 3.109-5.429.164-.656.202-2.07.077-2.82a7.56 7.56 0 0 0-1.296-3.082c-.864-1.174-2.213-2.143-3.594-2.581-.905-.288-1.092-.313-2.293-.31m.09 1.178q.433.004.869.074a5.95 5.95 0 0 1 3.662 2.063c1.318 1.554 1.75 3.542 1.192 5.474a6.1 6.1 0 0 1-4.273 4.16c-.428.111-.687.141-1.349.155-.45.009-.893.005-.983-.01a6.1 6.1 0 0 1-3.495-1.827c-1.18-1.234-1.726-2.695-1.65-4.411.048-1.078.339-2.004.903-2.876 1.15-1.776 3.1-2.82 5.123-2.802zm2.623 2.242c-.07-.014-6.366 4.42-6.713 4.728-.053.046-.095.111-.095.144.003.196.097.217 1.458.336 1.514.132 1.703.182 2.075.554.126.127.464.667.83 1.33.34.614.655 1.145.7 1.18.049.04.126.049.198.022.108-.04.184-.373.929-4.076.572-2.841.796-4.057.759-4.117a.25.25 0 0 0-.14-.101z"/></svg>