<svg version="1.1" viewBox="0 0 192 192" xmlns="http://www.w3.org/2000/svg"><path d="m20.589 167.26v-8.7375h150.82v17.476h-150.82zm54.552-16.441c-0.3464-0.0704-1.1611-0.21512-1.8105-0.32216-0.64935-0.10712-1.2516-0.24888-1.3382-0.31512-0.08656-0.0664-0.4408-0.17104-0.78719-0.2328-0.3464-0.0624-0.84231-0.20823-1.1021-0.32551-0.25976-0.11728-0.92063-0.39808-1.4686-0.62392-0.548-0.22583-1.4197-0.61567-1.9371-0.86631-0.51744-0.25064-1.2026-0.54007-1.5227-0.64311s-0.65271-0.24248-0.73935-0.30976c-0.20904-0.16256-1.78-0.59607-3.1488-0.86887-0.60615-0.1208-1.3854-0.29048-1.7318-0.37704-0.81903-0.2048-4.3818-0.20984-5.3708-8e-3 -2.0965 0.42864-4.3604 1.0331-5.044 1.3469-0.2728 0.12528-0.54672 0.22767-0.60855 0.22767-0.0624 0-0.65336 0.25392-1.3144 0.56424-0.66111 0.3104-1.627 0.73863-2.1466 0.95167-0.51952 0.21312-1.0863 0.45264-1.2595 0.53232-1.6829 0.77471-4.2792 1.2512-6.8391 1.2549-3.3708 5e-3 -5.3718-0.54151-10.243-2.7976-1.5798-0.73167-4.4696-1.7651-4.9357-1.7651-0.13464 0-0.42288-0.0813-0.64039-0.18024l-0.3956-0.17991c24.173-43.052 48.443-86.055 72.679-129.07 0.49016-0.87007 2.6069-1.0205 3.7312-0.55068 1.6055 0.73658 2.1524 2.5077 2.9765 3.9644l70.168 124.03c0.0272 0.048 0.18576 0.39447 0.41287 0.75423 0.38352 0.60751 0.39368 0.66807 0.14296 0.85135-0.14848 0.10856-0.56447 0.2444-0.92455 0.30192-1.4126 0.22552-3.8938 1.18-8.9991 3.4617-0.50983 0.22792-2.3513 0.74207-3.6211 1.0111-2.9974 0.63503-7.018 0.162-10.1-1.1884-0.2728-0.1196-0.536-0.21736-0.58472-0.21736-0.0488 0-0.91159-0.3896-1.9175-0.86591-1.0059-0.47632-1.9117-0.86631-2.013-0.86687-0.10128-4.9e-4 -0.39656-0.11168-0.65616-0.24712-0.48687-0.25392-1.6036-0.56552-3.3852-0.94471-0.56279-0.11984-1.3776-0.29568-1.8105-0.39096-1.7453-0.38392-5.5357-0.0104-8.8167 0.86975-1.0687 0.28656-0.88223 0.2108-3.6228 1.4715-4.5049 2.0723-8.2895 2.9263-11.366 2.5647-2.6536-0.312-3.6398-0.46864-3.9344-0.62488-0.15672-0.083-0.75887-0.29695-1.3381-0.47535-0.57927-0.1784-2.1024-0.79392-3.3849-1.3678-3.019-1.3512-3.2025-1.429-3.67-1.555-0.2164-0.0584-0.53528-0.17136-0.70848-0.25103-1.0717-0.49336-4.1044-0.93632-5.3214-0.77736-1.3815 0.18048-4.22 0.94799-5.2269 1.4133-1.1219 0.51839-2.8905 1.3066-3.88 1.7292-0.63688 0.272-1.2997 0.56336-1.4729 0.64736-1.743 0.84591-7.2175 1.6129-8.9743 1.2573zm44.127-19.69c2.2237-0.85279 3.3404-2.2676 3.3401-4.232-1.1e-4 -1.187-0.44504-2.2968-1.6541-4.1256-1.1918-1.8029-1.7457-3.3801-1.5785-4.4949 0.25592-1.7066 1.2928-3.0695 2.894-3.804 1.236-0.56696 3.3984-0.59072 4.9031-0.0536 1.0002 0.35679 2.1939 0.69071 4.567 1.2773 0.64935 0.16056 1.4996 0.37112 1.8893 0.468 1.2618 0.31368 2.7504 0.94167 4.1852 1.7657 1.6637 0.95552 3.1915 1.1513 2.896 0.6096l-42.36-77.66c-0.2624-0.4374-0.64879-0.79474-1.0317-1.0772-0.68119-0.50251-1.9239-0.54521-2.5793-0.0208-0.3944 0.31554-0.76647 0.69726-0.92879 1.0979l-42.614 78.046c-0.49448 0.9056 5.3046 2.9407 9.0671 3.4807 4.1017 0.58872 6.6863-0.0672 9.9343-2.5204 1.4867-1.123 2.6522-2.3144 3.9768-4.0649 1.1833-1.5637 2.5284-2.8364 3.5644-3.3727 0.76367-0.39527 1.0332-0.44823 2.2829-0.44823 1.2961 0 1.4907 0.0416 2.2829 0.49087 0.81631 0.4628 0.91695 0.59072 1.7573 2.2353 1.176 2.3013 1.8961 3.3669 3.0726 4.5469 2.4587 2.4661 4.9456 2.7037 9.2607 0.88511 0.51952-0.21895 1.2012-0.50359 1.5148-0.63255 1.3736-0.5648 3.6501-0.51408 5.0673 0.11288 1.0595 0.46863 1.6956 1.0801 2.6824 2.5785 1.3682 2.0774 3.6115 4.6531 5.706 6.5511 2.2443 2.0338 4.1215 2.9032 5.9688 2.764 0.60615-0.0456 1.4764-0.22656 1.9339-0.402z"/></svg>
