<svg xmlns="http://www.w3.org/2000/svg" width="192" height="192" viewBox="0 0 192 192"><path d="M95.576 16c-20.12 0-36.32 16.976-36.32 37.424V71.88h14.088V53.424c0-13.112 10.016-23.336 22.232-23.336s22.232 10.224 22.232 23.336V71.88h14.08V53.424C131.896 32.976 115.704 16 95.584 16z" opacity=".75"/><path d="M36.28 71.872a1.52 1.52 0 0 0-1.528 1.536v87.28c-.018 8.464 6.848 15.33 15.312 15.312h91.872c8.464.018 15.33-6.848 15.312-15.312v-87.28a1.52 1.52 0 0 0-1.528-1.536zM96 101.28c6.519-.004 11.804 5.281 11.8 11.8a11.76 11.76 0 0 1-7.36 10.888v13.64a4.44 4.44 0 1 1-8.88 0v-13.64a11.76 11.76 0 0 1-7.344-10.888c-.004-6.512 5.272-11.796 11.784-11.8"/></svg>