<svg version="1.1" viewBox="0 0 192 192" xmlns="http://www.w3.org/2000/svg"><path d="m83.541 175.8c-0.276-0.11279-0.728-0.45679-1.0036-0.76319-0.496-0.5512-0.5032-1.0008-0.6272-38.858l-0.2512-37.968c-0.3336-1.357-0.3448-1.2022-0.5816-1.7723-0.6864-1.6511-1.6613-2.8216-4.3616-3.9228-2.0321-0.8288-3.9204-1.5182-11.187-3.0581-3.6668-0.7768-6.0558-1.4064-6.4512-1.6998-0.85816-0.6368-1.2042-2.0725-0.7352-3.0517 0.1968-0.412 16.335-15.992 35.862-34.622 29.547-28.19 35.649-33.901 36.37-34.038 1.227-0.2328 2.5539 0.5176 2.9459 1.6671 0.4696 1.3771 0.4584 104.59-8e-3 105.7-0.4136 0.98391-11.586 11.449-12.727 11.921-0.99695 0.4128-2.2658 0.04-2.988-0.87856-0.5016-0.6384-0.5056-0.92456-0.5064-38.936-1e-3 -37.537-8e-3 -38.309-0.4912-39.096-0.5384-0.88352-1.6733-1.5809-2.5695-1.5794-0.3176 4.8e-4 -0.91576 0.2088-1.3298 0.464-0.99144 0.6096-23.599 22.216-23.804 22.75-0.2416 0.6288-0.1888 1.8525 0.1024 2.3969 0.1432 0.268 1.1373 1.3613 2.2089 2.4299 4.0434 4.0323 6.1448 8.7098 6.8056 15.149 0.324 3.1602 0.3592 64.913 0.04 65.752-0.2272 0.592-11.451 11.37-12.419 11.926-0.608 0.3488-1.5568 0.384-2.2873 0.0856z"/></svg>
