<svg xmlns="http://www.w3.org/2000/svg" viewBox="0 0 24 24"><path d="M11.947 2c-2.515 0-4.54 2.122-4.54 4.678v2.307h1.761V6.678c0-1.639 1.252-2.917 2.779-2.917s2.779 1.278 2.779 2.917v2.307h1.76V6.678C16.487 4.122 14.463 2 11.948 2z" opacity=".75"/><path d="M4.535 8.984a.19.19 0 0 0-.191.192v10.91A1.91 1.91 0 0 0 6.258 22h11.484a1.91 1.91 0 0 0 1.914-1.914V9.176a.19.19 0 0 0-.191-.192H6.258zM12 12.66a1.474 1.474 0 0 1 1.475 1.475 1.47 1.47 0 0 1-.92 1.361v1.705a.555.555 0 0 1-.555.555.555.555 0 0 1-.555-.555v-1.705a1.47 1.47 0 0 1-.918-1.361A1.474 1.474 0 0 1 12 12.66"/></svg>