<svg xmlns="http://www.w3.org/2000/svg" width="24" height="24" viewBox="0 0 24 24"><path fill="#0364b8" d="M17.748 10.42A5.782 5.782 0 0 0 7.317 8.677" style="fill:none;stroke:#000;stroke-width:1.5;stroke-miterlimit:4;stroke-dasharray:none;stroke-opacity:1"/><path d="m20.803 15.951-7.114-4.26-3.883-2.326a4.6 4.6 0 0 0-2.43-.69l-.06.002a4.625 4.625 0 0 0 .06 9.25h10.119" style="fill:none;stroke:#000;stroke-width:1.5;stroke-miterlimit:4;stroke-dasharray:none;stroke-opacity:1"/><path d="m3.582 15.946 10.107-4.255 2.55-1.075c.235-.1.743-.207 1.256-.206a3.76 3.76 0 0 1 3.308 5.542 3.76 3.76 0 0 1-3.308 1.974H10.55" style="fill:none;stroke:#000;stroke-width:1.5;stroke-miterlimit:4;stroke-dasharray:none;stroke-opacity:1"/></svg>