<svg xmlns="http://www.w3.org/2000/svg" viewBox="0 0 24 24"><path d="M14.721 6.977c-.302.815-.97 1.54-1.88 1.61-.293.017-.078.454-.143.659.068.2-.167.706.179.63h1.502c-.004 1.523.013 3.048-.018 4.571-1.05-1.336-2.068-2.697-3.101-4.046H9.912v6.622h1.418l.027-4.008q1.499 2 2.996 4.003l1.76.005c-.011-3.096.03-6.193-.032-9.288.024-.807-.797-.731-1.36-.758m2.496 3.424v1.419H22V10.4zm-11.716.01c-.003.003-.573-.004-.759.042a4 4 0 0 1-.298.058 3 3 0 0 0-.54.201 3.4 3.4 0 0 0-1.745 1.952q-.028.085-.052.172a4 4 0 0 0-.076.38 3 3 0 0 0-.028.308l-.001.014a3.5 3.5 0 0 0 .329 1.625c.423.842 1.203 1.509 2.11 1.749a2.8 2.8 0 0 0 .68.095c.086.001.172.003.258-.004.214.005.425-.018.631-.06a3.4 3.4 0 0 0 1.294-.596 3.2 3.2 0 0 1-1.294.596c-.29.063-.589.087-.89.064h-.01c1.687.169 3.312-1.191 3.492-2.863-.003.02-.01.04-.013.06l.015-.083a3 3 0 0 0 0-.802v-.002a3 3 0 0 0-.129-.584l-.01-.034a3.4 3.4 0 0 0-.285-.628l-.007-.012a4 4 0 0 0-.174-.266l-.05-.067a4 4 0 0 0-.295-.34q-.046-.049-.095-.095a4 4 0 0 0-.242-.207l-.031-.026a4 4 0 0 0-.256-.175q-.036-.025-.073-.048l-.033-.019a3 3 0 0 0-1.34-.399zm3.103 3.71-.002.023c.001-.017.006-.034.007-.051zM5.11 17.007l-.046-.004q-.017 0-.033-.002c.027.004.053.003.08.006zm.167-5.063c1.146-.057 2.057 1.155 1.745 2.243-.22.85-1.1 1.446-1.972 1.292-.968-.06-1.669-1.066-1.518-2 .069-.855.9-1.545 1.745-1.535M22 12.974q-2.377.015-4.756.028c-.002.232-.012.465-.017.698a9 9 0 0 0-.001.348q.003.174.018.347a25 25 0 0 0 1.187.047q.594.012 1.19.01l1.19-.006q.594-.004 1.19.001v-1.472zM8.54 14.452l-.004.02-.014.047zm8.796.755q.007.175.003.358l-.006.368a7 7 0 0 0 .002.359q.005.176.028.334h4.756v-1.42z"/></svg>