<svg xmlns="http://www.w3.org/2000/svg" viewBox="0 0 24 24"><path d="M14.721 6.977c-.302.815-.97 1.54-1.88 1.61-.293.017-.078.454-.143.659.068.2-.167.706.179.63h1.502c-.004 1.523.013 3.048-.018 4.571-1.05-1.336-2.068-2.697-3.101-4.046H9.912v6.622h1.418l.027-4.008c1 1.333 1.997 2.669 2.996 4.003l1.76.005c-.011-3.096.03-6.193-.032-9.288.024-.807-.797-.731-1.36-.758zm2.496 3.424v1.419H22V10.4zm-11.716.01c-.003.003-.573-.004-.759.042a3.947 3.947 0 0 1-.298.058 3.213 3.213 0 0 0-.54.201 3.402 3.402 0 0 0-1.745 1.952c-.018.057-.037.114-.052.172a3.577 3.577 0 0 0-.076.38 3.382 3.382 0 0 0-.028.308l-.001.014a3.503 3.503 0 0 0 .329 1.625c.423.842 1.203 1.509 2.11 1.749a2.816 2.816 0 0 0 .68.095c.086.001.172.003.258-.004.214.005.425-.018.631-.06a3.355 3.355 0 0 0 1.294-.596 3.2 3.2 0 0 1-1.294.596c-.29.063-.589.087-.89.064h-.01c1.687.169 3.312-1.191 3.492-2.863-.003.02-.01.04-.013.06l.015-.083a2.991 2.991 0 0 0 0-.802v-.002a3.012 3.012 0 0 0-.129-.584l-.01-.034a3.424 3.424 0 0 0-.285-.628l-.007-.012a3.506 3.506 0 0 0-.174-.266l-.05-.067a3.497 3.497 0 0 0-.295-.34c-.031-.032-.062-.065-.095-.095a3.566 3.566 0 0 0-.242-.207l-.031-.026a3.544 3.544 0 0 0-.256-.175c-.024-.016-.048-.033-.073-.048l-.033-.019a3.014 3.014 0 0 0-1.34-.399c-.027-.003-.055-.003-.083-.005zm3.103 3.71-.002.023c.001-.017.006-.034.007-.051 0 .008-.004.02-.005.028zM5.11 17.007c-.015 0-.03-.003-.046-.004-.011 0-.022 0-.033-.002.027.004.053.003.08.006zm.167-5.063c1.146-.057 2.057 1.155 1.745 2.243-.22.85-1.1 1.446-1.972 1.292-.968-.06-1.669-1.066-1.518-2 .069-.855.9-1.545 1.745-1.535zM22 12.974c-1.585.01-3.17.02-4.756.028-.002.232-.012.465-.017.698a8.769 8.769 0 0 0-.001.348c.002.116.008.232.018.347a25.298 25.298 0 0 0 1.187.047c.396.009.793.01 1.19.01l1.19-.006c.396-.002.793-.003 1.19.001v-1.472zM8.54 14.452l-.004.02-.014.047.018-.067zm8.796.755c.005.116.005.236.003.358l-.006.368a7.12 7.12 0 0 0 .002.359c.004.117.012.229.028.334h4.756v-1.42z"/></svg>