<svg xmlns="http://www.w3.org/2000/svg" viewBox="0 0 24 24"><path d="M11.086 20.987a8.9 8.9 0 0 1-3.137-.833c-.349-.167-.935-.494-.935-.521 0-.007.208-.144.462-.304l1.411-.894c.523-.332.966-.61.984-.616a.9.9 0 0 1 .243.047 5.76 5.76 0 0 0 5.964-1.797 5.84 5.84 0 0 0 1.342-3.114 8 8 0 0 0-.013-1.338 5.8 5.8 0 0 0-1.02-2.611l-.137-.19.063-.047c.066-.049 1.384-.987 1.975-1.406.188-.133.348-.243.355-.243.022 0 .422.606.564.852a8.68 8.68 0 0 1 .235 8.27 8.71 8.71 0 0 1-6.875 4.722 13 13 0 0 1-1.481.023m-7.264-.458c.194-.192.456-.443 2.292-2.195l1.602-1.532c.276-.266 1.225-1.173 2.107-2.017 1.11-1.06 1.593-1.537 1.567-1.544l-2.12-.567a126 126 0 0 1-2.097-.57c-.01-.009.185-.22.432-.47.775-.787 2.054-2.085 2.894-2.935.445-.45 1.528-1.55 2.408-2.444s1.964-1.992 2.41-2.44l.81-.815 2.423.65c1.334.357 2.424.655 2.424.663a.4.4 0 0 1-.087.073l-.648.458-4.771 3.383-1.754 1.244-1.414 1.004c-.521.37-.963.68-.982.691s-.03.025-.022.032c.01.006.558.158 1.227.337 3.43.919 3.893 1.044 3.892 1.056 0 .007-1.444.929-3.208 2.048a14080 14080 0 0 0-9.5 6.031c-.04.024.014-.04.117-.141zM4.9 17.73c-.984-1.233-1.61-2.717-1.83-4.342-.06-.44-.06-1.672 0-2.114q.336-2.492 1.845-4.382a11 11 0 0 1 1.332-1.333 8.75 8.75 0 0 1 3.316-1.653c.79-.2 1.265-.257 2.116-.256.824 0 1.277.05 2.066.232l.172.04-.266.272c-.146.15-.737.75-1.315 1.335l-1.05 1.062-.267.031a6 6 0 0 0-1.67.463 5.8 5.8 0 0 0-2.928 2.964 6 6 0 0 0-.427 1.527 7.6 7.6 0 0 0-.014 1.438c.135 1.024.53 2.002 1.12 2.776.081.106.147.197.147.201 0 .01-1.919 1.848-2.038 1.953l-.082.072z"/></svg>