<svg xmlns="http://www.w3.org/2000/svg" width="192" height="192" viewBox="0 0 192 192"><path d="M88.184 172.9a76.146 76.146 0 0 1-26.841-7.127c-2.986-1.43-8-4.227-8-4.458 0-.175 24.205-15.441 24.446-15.521a8.54 8.54 0 0 1 2.079.402 49.284 49.284 0 0 0 51.03-15.376 49.969 49.969 0 0 0 11.483-26.645 68.443 68.443 0 0 0-.111-11.448 49.63 49.63 0 0 0-8.728-22.341l-1.172-1.626 20.476-14.512c.153-.109 3.61 5.185 4.826 7.29a74.27 74.27 0 0 1 2.01 70.762 74.524 74.524 0 0 1-58.825 40.403 111.15 111.15 0 0 1-12.672.197m2.602-66.278-36.082-9.729 76.614-77.898 41.473 11.235-82.81 58.911 43.8 11.92-108.73 69.126zm-55.531 38.41c-8.42-10.55-13.776-23.248-15.658-37.152-.514-3.765-.514-14.306 0-18.088 1.916-14.215 7.178-26.713 15.787-37.494a94.153 94.153 0 0 1 11.397-11.406 74.866 74.866 0 0 1 28.373-14.144c6.76-1.711 10.824-2.2 18.105-2.19 7.05 0 10.927.427 17.678 1.985l1.471.342-22.512 22.837-2.284.265a51.337 51.337 0 0 0-14.29 3.962 49.627 49.627 0 0 0-25.052 25.36 51.337 51.337 0 0 0-3.654 13.067 65.028 65.028 0 0 0-.12 12.304c1.155 8.762 4.535 17.13 9.584 23.753.693.907 1.282 1.696 1.257 1.72l-18.14 17.327z"/></svg>