<svg xmlns="http://www.w3.org/2000/svg" width="192" height="192" viewBox="0 0 192 192"><path d="M29.256 55.24c-5.56 2.128-9.44 7.768-9.44 14.096v91.432A15.24 15.24 0 0 0 35.04 176h121.9a15.24 15.24 0 0 0 15.24-15.24V69.328a15.2 15.2 0 0 0-15.24-15.232H67.804l62.936-25.448L125.556 16zm28.648 105.52a22.824 22.824 0 0 1-22.856-22.856 22.824 22.824 0 0 1 22.856-22.856 22.824 22.824 0 0 1 22.856 22.856 22.824 22.824 0 0 1-22.856 22.856m99.048-60.96h-15.24V84.568H126.48v15.24H35.04v-30.48h121.9z"/></svg>