<svg xmlns="http://www.w3.org/2000/svg" viewBox="0 0 24 24"><path d="M19.711 10.366a4.489 4.489 0 0 0-.387-3.683 4.535 4.535 0 0 0-4.882-2.175 4.549 4.549 0 0 0-7.707 1.629 4.489 4.489 0 0 0-2.998 2.175 4.535 4.535 0 0 0 .557 5.322 4.485 4.485 0 0 0 .383 3.683 4.538 4.538 0 0 0 4.886 2.175A4.489 4.489 0 0 0 12.944 21a4.542 4.542 0 0 0 4.33-3.154 4.492 4.492 0 0 0 2.997-2.175 4.542 4.542 0 0 0-.56-5.305m-6.766 9.456a3.357 3.357 0 0 1-2.158-.78l.107-.06 3.583-2.07a.596.596 0 0 0 .295-.51v-5.053l1.515.876a.053.053 0 0 1 .028.04v4.186a3.378 3.378 0 0 1-3.37 3.371m-7.246-3.094a3.353 3.353 0 0 1-.401-2.26l.107.064L8.992 16.6a.578.578 0 0 0 .585 0l4.382-2.526v1.75a.06.06 0 0 1-.025.045l-3.63 2.094A3.374 3.374 0 0 1 5.7 16.728zm-.944-7.806a3.364 3.364 0 0 1 1.774-1.48V11.7a.575.575 0 0 0 .291.508l4.361 2.515-1.515.877a.057.057 0 0 1-.053 0L5.99 13.51a3.378 3.378 0 0 1-1.235-4.606zm12.447 2.892-4.375-2.54L14.34 8.4a.057.057 0 0 1 .053 0l3.623 2.094a3.37 3.37 0 0 1-.508 6.078v-4.258a.593.593 0 0 0-.305-.5zm1.508-2.268-.106-.064-3.58-2.086a.582.582 0 0 0-.59 0l-4.378 2.526V8.173a.05.05 0 0 1 .021-.046l3.623-2.09a3.374 3.374 0 0 1 5.01 3.495zm-9.48 3.101-1.516-.872a.06.06 0 0 1-.028-.043V7.556a3.374 3.374 0 0 1 5.532-2.59l-.107.06-3.584 2.068a.596.596 0 0 0-.294.511zm.822-1.774 1.952-1.124 1.955 1.124v2.25l-1.948 1.125-1.955-1.125z"/></svg>