<svg xmlns="http://www.w3.org/2000/svg" width="24" height="24" fill="none" viewBox="0 0 24 24"><path fill="#000" fill-rule="evenodd" d="M18.977 19.724A9.96 9.96 0 0 1 12.625 22c-5.523 0-10-4.477-10-10s4.477-10 10-10a9.96 9.96 0 0 1 6.352 2.276C17.85 3.466 16.533 3 15.125 3c-4.142 0-7.5 4.03-7.5 9s3.358 9 7.5 9c1.408 0 2.726-.466 3.852-1.276m-6.52-14.72c.826-.487 1.737-.754 2.668-.754 3.248 0 6.25 3.247 6.25 7.75s-3.002 7.75-6.25 7.75c-.931 0-1.842-.267-2.668-.754.056.003.112.004.168.004 2.761 0 5-3.134 5-7s-2.239-7-5-7a3.14 3.14 0 0 0-.168.004" clip-rule="evenodd" style="stroke-width:.909091"/></svg>