<svg xmlns="http://www.w3.org/2000/svg" data-name="Layer 1" viewBox="0 0 24 24"><path d="M18.629 4.546A9.9 9.9 0 0 0 12.027 2H12a10.001 10.001 0 0 0-.473 19.989q.235.01.473.011a9.9 9.9 0 0 0 6.626-2.543l.002-.002a10.035 10.035 0 0 0 0-14.91M11.57 21.042a9.053 9.053 0 0 1 .438-18.094h.025a9 9 0 0 1 2.311.312 7.58 7.58 0 0 0-5.823 3.066 8.86 8.86 0 0 0-1.884 5.45v.46a8.86 8.86 0 0 0 1.877 5.43 7.6 7.6 0 0 0 5.83 3.074 9 9 0 0 1-2.774.302m6.454-2.317a6.36 6.36 0 0 1-3.508 1.07 6.65 6.65 0 0 1-5.262-2.715l-.014-.018a7.88 7.88 0 0 1-1.66-4.837v-.438A7.9 7.9 0 0 1 9.255 6.92a6.65 6.65 0 0 1 5.262-2.715 6.36 6.36 0 0 1 3.508 1.07 9.08 9.08 0 0 1 0 13.449Z"/><path d="M13.823 5.7a7.47 7.47 0 0 1 2.995 6.313 7.47 7.47 0 0 1-2.996 6.312c2.265-.188 4.063-2.942 4.063-6.312s-1.798-6.123-4.063-6.312"/></svg>