<svg xmlns="http://www.w3.org/2000/svg" width="192" height="192" viewBox="0 0 192 192"><path d="M151.82 157.79a79.68 79.68 0 0 1-50.816 18.208c-44.184 0-80-35.816-80-80s35.816-80 80-80a79.68 79.68 0 0 1 50.816 18.208c-9.016-6.48-19.552-10.208-30.816-10.208-33.136 0-60 32.24-60 72s26.864 72 60 72c11.264 0 21.808-3.728 30.816-10.208M99.66 40.03c6.608-3.896 13.896-6.032 21.344-6.032 25.984 0 50 25.976 50 62s-24.016 62-50 62c-7.448 0-14.736-2.136-21.344-6.032q.672.032 1.344.032c22.088 0 40-25.072 40-56s-17.912-56-40-56a24 24 0 0 0-1.344.032"/></svg>