<svg xmlns="http://www.w3.org/2000/svg" viewBox="0 0 24 24"><path d="M4.88 17H3.022v-5.947H2V9.68h1.022v-.59c0-.763.187-1.3.56-1.617C3.956 7.155 4.453 7 5.093 7c.276 0 .48 0 .623.01.142.008.249.008.328.017v1.555H5.53a1.306 1.306 0 0 0-.373.045.355.355 0 0 0-.196.137.615.615 0 0 0-.071.254c-.009.11-.009.227-.009.382v.29H6.09v1.374H4.88zm1.831 0V7h1.867v10H6.71m7.129-4.382a2.05 2.05 0 0 0-.178-.7 1.5 1.5 0 0 0-.338-.454 1.124 1.124 0 0 0-.426-.246 1.59 1.59 0 0 0-.454-.072c-.426 0-.755.127-.986.39-.231.264-.365.619-.418 1.082h2.8m1.769 2.146c-.105.38-.277.737-.507 1.054a2.955 2.955 0 0 1-.738.691 2.845 2.845 0 0 1-.87.373c-.292.07-.59.107-.89.109a4.569 4.569 0 0 1-1.342-.191 2.547 2.547 0 0 1-1.075-.636 3.135 3.135 0 0 1-.72-1.182c-.178-.491-.267-1.1-.267-1.818.001-.186.013-.37.036-.555a4.148 4.148 0 0 1 .488-1.536c.152-.277.35-.523.587-.728.265-.23.57-.409.898-.527a3.583 3.583 0 0 1 1.28-.2c.36.005.719.057 1.066.155.388.106.744.305 1.04.582.32.281.578.672.792 1.172.213.5.31 1.146.31 1.946v.345h-4.693c.013.165.033.329.063.491.038.2.11.39.213.564.118.191.28.35.471.463.213.128.498.191.854.191.249 0 .494-.065.71-.19a.884.884 0 0 0 .445-.573h1.849M22 17h-2.284l-1.21-2.19L17.299 17h-2.231l2.382-3.71-2.293-3.563h2.24l1.182 2.118 1.155-2.118h2.178L19.6 13.291z"/></svg>