<svg xmlns="http://www.w3.org/2000/svg" viewBox="0 0 24 24"><path d="M4.88 17H3.022v-5.947H2V9.68h1.022v-.59q0-1.143.56-1.617C3.956 7.155 4.453 7 5.093 7c.276 0 .48 0 .623.01.142.008.249.008.328.017v1.555H5.53a1.3 1.3 0 0 0-.373.045.36.36 0 0 0-.196.137.6.6 0 0 0-.071.254c-.009.11-.009.227-.009.382v.29H6.09v1.374H4.88zm1.831 0V7h1.867v10H6.71m7.129-4.382a2 2 0 0 0-.178-.7 1.5 1.5 0 0 0-.338-.454 1.1 1.1 0 0 0-.426-.246 1.6 1.6 0 0 0-.454-.072c-.426 0-.755.127-.986.39-.231.264-.365.619-.418 1.082zm1.769 2.146c-.105.38-.277.737-.507 1.054a3 3 0 0 1-.738.691 2.9 2.9 0 0 1-.87.373q-.439.105-.89.109a4.6 4.6 0 0 1-1.342-.191 2.55 2.55 0 0 1-1.075-.636 3.1 3.1 0 0 1-.72-1.182c-.178-.491-.267-1.1-.267-1.818q.001-.278.036-.555a4.2 4.2 0 0 1 .488-1.536c.152-.277.35-.523.587-.728.265-.23.57-.409.898-.527a3.6 3.6 0 0 1 1.28-.2c.36.005.719.057 1.066.155.388.106.744.305 1.04.582.32.281.578.672.792 1.172.213.5.31 1.146.31 1.946v.345h-4.693q.019.248.063.491.058.301.213.564c.118.191.28.35.471.463q.32.192.854.191c.249 0 .494-.065.71-.19a.88.88 0 0 0 .445-.573zM22 17h-2.284l-1.21-2.19L17.299 17h-2.231l2.382-3.71-2.293-3.563h2.24l1.182 2.118 1.155-2.118h2.178L19.6 13.291z"/></svg>