<svg xmlns="http://www.w3.org/2000/svg" viewBox="0 0 24 24"><path fill-rule="evenodd" d="M4.612 10.57c-2.974 3.39-1.356 4.263 1.36 3.488C8.15 18.07 11.985 22 11.985 22s7.485-7.671 7.485-12.515c-.983 1.244-6.39 3.955-9.02 4.252 2.375.312 5.256-1.27 6.514-2.038-.096 3.63-4.97 4.712-8.344 2.192 2.829-1.605 3.356-5.169 7.899-3.393.26-.028 1.437-.433 2.898-1.986 2.736-2.907 1.627-4.516-1.346-3.454C16.248 2.672 13.15 2 11.986 2c-1.694 0-7.484 1.414-7.484 7.485 0 .138.048.151.048.151 1.863-1.658 7.505-4.501 8.95-4.626-1.515-.019-4.978 1.089-6.278 2.045.184-3.613 4.639-4.614 8.4-2.234-1.562.492-3.321 5.456-8.017 3.544-.432.187-.91.419-2.994 2.206m.167.898c-1.636 1.838-.847 2.538.776 1.86-.335-.542-.623-1.133-.776-1.86m14.544-3.881c1.636-1.838.847-2.538-.776-1.86.335.542.622 1.132.776 1.86"/></svg>