<svg xmlns="http://www.w3.org/2000/svg" data-name="Layer 1" viewBox="0 0 24 24"><circle cx="18.26" cy="9.385" r="1.086" style="stroke-width:.904978"/><path d="M16.496 2a5.602 5.602 0 0 0-5.43 4.354 5.765 5.765 0 0 0-.146 1.257v8.778a1.167 1.167 0 1 1-1.158-1.159 1.113 1.113 0 0 1 .308.047v-4.343a5.873 5.873 0 0 0-.308.007 5.53 5.53 0 1 0 5.511 5.756V8.652a2.299 2.299 0 0 1 2.3-2.298h2.208V2Z" style="stroke-width:.904978"/><path d="M10.07 6.353A6.425 6.425 0 0 1 13.13 2H6.378v4.353z" style="stroke-width:.904978"/></svg>