<svg xmlns="http://www.w3.org/2000/svg" viewBox="0 0 24 24"><path d="M5.75 4.046A3.75 3.75 0 0 0 2 7.796a3.744 3.744 0 0 0 3.75 3.744A3.752 3.752 0 0 0 9.5 7.782H8.145A2.395 2.395 0 1 1 5.75 5.403zm2.123.685a.957.957 0 1 0-.001 1.914.957.957 0 0 0 .001-1.914M5.756 6.136a1.66 1.66 0 0 0-1.662 1.66c0 .922.747 1.669 1.67 1.662.915 0 1.66-.74 1.66-1.662 0-.916-.746-1.66-1.668-1.66m10.893 5.404c-.584.011-.606.012-1.135.012l-.088.043c-.077.154-.165.286-.297.517-.077.11-.384.616-.45.715l.032.078c.287-.01.351-.01.615 0l.1-.045c.011 0 .605-.616.715-.726.077-.077.452-.44.53-.518zM5.194 13.147c-1.63 0-2.346.98-2.346 1.95 0 .451.198.881.54 1.168.164.143.396.264.65.396l.296.164c.496.265.552.297.717.451.088.088.319.298.319.705 0 .76-.66 1.202-1.508 1.202-.33 0-.783-.078-1.18-.342a1.072 1.072 0 0 1-.373-.363l-.088.023-.22.803.02.078c.155.121.253.207.507.307.451.176.937.265 1.422.265 1.773 0 2.466-1.17 2.466-2.072 0-.991-.791-1.43-1.232-1.672l-.266-.133c-.66-.341-1.023-.562-1.023-1.101 0-.54.463-1.069 1.344-1.069.297 0 1.013.088 1.42.606l.088-.022.242-.76-.022-.078c-.253-.154-.782-.506-1.773-.506zm7.16.143-1.576.033H9.545l-1.343-.021-.067.054-.22.694.054.066a67.642 67.642 0 0 1 2.809-.054L7.463 18.39c-.605.793-.683.88-1.047 1.343l.045.088 1.377-.021h1.575l1.519.01.066-.055.198-.715-.055-.055-1.354.034H8.08l2.995-3.944c.209-.264 1.125-1.455 1.312-1.697zm4.625.002-1.355.022h-2.247l-.066.044c-.253 1.245-.319 1.597-.66 3.106l-.32 1.441-.452 1.852.045.064 1.785-.021h1.905l.066-.055.242-.717-.045-.054-1.595.033h-1.158l.298-1.387.186-.838h1.346l1.078.012.088-.055.187-.64-.033-.067-1.223.024h-1.289l.453-1.994c.54-.011.638-.01 1.563.011.33.011.662.01.992.022l.076-.067.188-.681zm2.797.008c-.096 0-.194 0-.297.002l-.684.012-.627.01-.078.054c-.242 1.3-.341 1.742-.76 3.57l-.242 1.024-.43 1.783.055.066.96-.021.064-.067.22-1.21.264-1.19h.465c1.134-.022 2.134-.056 2.828-.926.298-.374.486-.924.486-1.42 0-.694-.264-1.155-.705-1.42-.366-.23-.85-.269-1.52-.267zm-.07.73c.356 0 .581.027.763.11.375.165.54.484.54.902 0 .374-.176 1-.837 1.32-.44.21-1.002.221-1.52.221h-.232l.387-1.738.188-.793.306-.012c.152-.005.286-.01.405-.01z"/></svg>