<svg version="1.1" viewBox="0 0 24 24" xmlns="http://www.w3.org/2000/svg"><path d="m7.5543 18.96c-0.23518-0.36835-0.41651-0.78487-0.55536-1.2335 1.0909 0.2229 2.2507 0.26446 3.2774 0.26446 1.7756 0 3.9546-0.12373 5.4808-1.0994 0.51002-0.32679 0.91899-0.73576 1.2458-1.2458 0.97565-1.5263 1.0994-3.7052 1.0994-5.4808 0-0.92749-0.03398-1.9645-0.20495-2.961 0.3419 0.12373 0.66208 0.27579 0.95204 0.46091 0.4288 0.27484 0.76976 0.61486 1.0446 1.0446 0.85854 1.344 0.99454 3.334 0.99454 5.1248 0 1.7917-0.136 3.7817-0.99454 5.1257-0.27485 0.42974-0.6158 0.76976-1.0446 1.0446-1.344 0.85854-3.334 0.99549-5.1257 0.99549-1.7907 0-3.7817-0.13695-5.1248-0.99549-0.42974-0.27485-0.76975-0.61486-1.0446-1.0446zm2.722-15.96c1.7907 0 3.7817 0.136 5.1248 0.99454 0.42974 0.27485 0.76975 0.61581 1.0446 1.0455 0.85948 1.3431 0.99549 3.3331 0.99549 5.1248 0 1.7907-0.13601 3.7808-0.99549 5.1248-0.27484 0.42974-0.61486 0.76975-1.0446 1.0446-1.3431 0.85948-3.334 0.99549-5.1248 0.99549-1.7917 0-3.7817-0.13601-5.1248-0.99549-0.42974-0.27484-0.7707-0.61486-1.0455-1.0446-0.85854-1.344-0.99454-3.334-0.99454-5.1248 0-1.7917 0.136-3.7817 0.99454-5.1248 0.27485-0.42974 0.61581-0.7707 1.0455-1.0455 1.3431-0.85854 3.3331-0.99454 5.1248-0.99454z"/></svg>
