<svg xmlns="http://www.w3.org/2000/svg" viewBox="0 0 24 24"><path d="M7.554 18.96A5 5 0 0 1 7 17.727c1.09.222 2.25.264 3.277.264 1.776 0 3.955-.124 5.481-1.1.51-.326.92-.735 1.246-1.245.976-1.527 1.1-3.705 1.1-5.481 0-.928-.035-1.965-.206-2.961.342.124.662.276.952.46.43.276.77.616 1.045 1.045.859 1.344.995 3.334.995 5.125 0 1.792-.136 3.782-.995 5.126-.275.43-.616.77-1.045 1.045-1.344.858-3.334.995-5.125.995s-3.782-.137-5.125-.995a3.4 3.4 0 0 1-1.045-1.045zM10.276 3c1.791 0 3.782.136 5.125.995.43.274.77.615 1.045 1.045.86 1.343.995 3.333.995 5.125 0 1.79-.136 3.78-.995 5.125-.275.43-.615.77-1.045 1.044-1.343.86-3.334.996-5.125.996s-3.781-.136-5.124-.996a3.4 3.4 0 0 1-1.046-1.044c-.859-1.344-.995-3.334-.995-5.125 0-1.792.136-3.782.995-5.125.275-.43.616-.77 1.046-1.045C6.495 3.136 8.485 3 10.276 3"/></svg>