<svg xmlns="http://www.w3.org/2000/svg" viewBox="0 0 24 24"><path d="M7.625 19.052c.263.385.584.696.982.949 1.348.863 3.347.999 5.145.999s3.796-.136 5.145-1a3.4 3.4 0 0 0 1.048-1.047c.863-1.35 1-3.348 1-5.146s-.137-3.797-.999-5.145a3.4 3.4 0 0 0-.812-.884c.1.866.116 1.703.116 2.415 0 1.757-.103 4.27-1.284 6.119a5.2 5.2 0 0 1-1.599 1.597c-1.848 1.183-4.361 1.284-6.118 1.284-.77 0-1.685-.02-2.625-.141m7.77-15.053c-1.349-.863-3.346-1-5.145-1s-3.796.137-5.145 1a3.4 3.4 0 0 0-1.05 1.048c-.861 1.349-.998 3.348-.998 5.146s.137 3.796.999 5.144a3.4 3.4 0 0 0 1.049 1.05c1.349.862 3.347.999 5.145.999s3.796-.137 5.145-1a3.4 3.4 0 0 0 1.048-1.048c.863-1.349 1-3.347 1-5.145s-.137-3.797-.999-5.145a3.4 3.4 0 0 0-1.049-1.05"/></svg>