<svg xmlns="http://www.w3.org/2000/svg" viewBox="0 0 24 24"><path d="M7.593 5.52c-.554 0-1.014.114-1.38.342a2.08 2.08 0 0 0-.808.949c-.178.405-.268.881-.268 1.425 0 .55.09 1.028.268 1.438.178.41.447.731.808.958.366.228.824.341 1.373.341.534 0 .981-.113 1.342-.34.361-.228.634-.546.817-.951.188-.41.28-.89.28-1.439s-.092-1.027-.28-1.432a2.077 2.077 0 0 0-.817-.95c-.361-.227-.806-.342-1.335-.342zm2.811.08 1.893 5.299h.667L14.856 5.6h-.704l-1.188 3.383c-.08.223-.145.43-.2.623s-.099.376-.134.55A8.763 8.763 0 0 0 12.297 9l-1.195-3.4zm5.172 0V10.9h.668V8.65h2.152v-.587h-2.152V6.188h2.293V5.6zm-7.983.506c.599 0 1.037.19 1.314.57.276.377.414.9.414 1.567 0 .668-.138 1.194-.414 1.58-.277.38-.718.57-1.32.57-.6 0-1.04-.19-1.321-.57-.282-.386-.424-.912-.424-1.58 0-.667.142-1.19.424-1.566.287-.381.729-.57 1.327-.57zm1.09 6.662v1.587c0 .074.005.175.015.304.015.124.026.218.031.282h-.045a1.588 1.588 0 0 0-.482-.416c-.193-.114-.443-.17-.75-.17-.495 0-.892.176-1.194.527-.296.346-.445.86-.445 1.543s.149 1.197.445 1.543c.297.341.692.513 1.187.513.311 0 .566-.06.764-.18.198-.118.356-.26.475-.429h.029l.098.534h.527v-5.638zm2.249.17c-.11 0-.2.034-.274.103-.074.065-.112.169-.112.312 0 .138.038.242.112.312.074.069.165.105.274.105a.372.372 0 0 0 .26-.105c.08-.07.118-.174.118-.312 0-.143-.039-.247-.118-.312a.37.37 0 0 0-.26-.103M2 13.108v5.298h2.96v-.586H2.667v-1.891h2.159v-.58h-2.16v-1.654H4.96v-.587zm10.831.408-.26.846-.571.26v.312h.563v2.315c0 .322.054.57.163.748.109.178.25.304.424.379.178.069.37.105.578.105.118 0 .242-.014.371-.038.129-.02.228-.047.297-.082v-.496c-.064.02-.148.038-.252.058a2.156 2.156 0 0 1-.304.023.63.63 0 0 1-.453-.172c-.114-.118-.17-.299-.17-.541v-2.299h1.15v-.505h-1.15v-.913zm3.983.839c-.569 0-1.018.178-1.35.534s-.497.864-.497 1.521c0 .44.079.815.237 1.127.158.307.374.543.646.706.277.159.591.238.942.238.57 0 1.018-.18 1.35-.542.336-.36.505-.87.505-1.529 0-.44-.079-.812-.237-1.113a1.605 1.605 0 0 0-.645-.698 1.815 1.815 0 0 0-.95-.244zm4.718 0c-.277 0-.516.079-.719.237a2.004 2.004 0 0 0-.496.565h-.03l-.075-.728h-.534v3.977h.654v-2.122c0-.267.051-.5.155-.698.11-.203.252-.358.43-.467.178-.114.37-.17.572-.17a2.101 2.101 0 0 1 .43.053l.08-.602a1.366 1.366 0 0 0-.23-.03 2.03 2.03 0 0 0-.237-.015zm-10.935.074v3.977h.652V14.43zm-3.057.467c.44 0 .742.133.906.4.163.263.244.642.244 1.136v.12c0 .465-.086.812-.259 1.045-.168.227-.463.342-.884.342-.356 0-.622-.133-.8-.395-.173-.262-.26-.63-.26-1.105 0-.47.087-.842.26-1.119.178-.282.442-.424.793-.424zm9.26.007c.405 0 .702.134.89.4.188.268.281.638.281 1.107 0 .47-.093.843-.28 1.12-.189.272-.484.41-.885.41-.405 0-.7-.138-.889-.41-.183-.277-.275-.65-.275-1.12 0-.47.092-.84.275-1.106.183-.267.477-.4.882-.4z"/></svg>