<svg xmlns="http://www.w3.org/2000/svg" viewBox="0 0 24 24"><path d="M7.593 5.52q-.831 0-1.38.342a2.1 2.1 0 0 0-.808.949q-.268.608-.268 1.425 0 .824.268 1.438.267.616.808.958.55.341 1.373.341.8 0 1.342-.34a2.14 2.14 0 0 0 .817-.951q.281-.615.28-1.439c-.001-.824-.092-1.027-.28-1.432a2.1 2.1 0 0 0-.817-.95q-.542-.341-1.335-.342zm2.811.08 1.893 5.299h.667L14.856 5.6h-.704l-1.188 3.383q-.119.334-.2.623a6 6 0 0 0-.134.55A9 9 0 0 0 12.297 9l-1.195-3.4zm5.172 0v5.3h.668V8.65h2.152v-.587h-2.152V6.188h2.293V5.6zm-7.983.506q.898 0 1.314.57.414.566.414 1.567t-.414 1.58q-.416.57-1.32.57-.9 0-1.321-.57-.424-.579-.424-1.58t.424-1.566q.43-.57 1.327-.57zm1.09 6.662v1.587q0 .11.015.304.023.186.031.282h-.045a1.6 1.6 0 0 0-.482-.416q-.29-.17-.75-.17-.742 0-1.194.527-.444.519-.445 1.543c-.001 1.024.149 1.197.445 1.543q.445.512 1.187.513.467 0 .764-.18a1.5 1.5 0 0 0 .475-.429h.029l.098.534h.527v-5.638zm2.249.17q-.164 0-.274.103-.111.098-.112.312 0 .207.112.312a.4.4 0 0 0 .274.105.37.37 0 0 0 .26-.105q.119-.105.118-.312 0-.215-.118-.312a.37.37 0 0 0-.26-.103M2 13.108v5.298h2.96v-.586H2.667v-1.891h2.159v-.58h-2.16v-1.654H4.96v-.587zm10.831.408-.26.846-.571.26v.312h.563v2.315q0 .482.163.748a.92.92 0 0 0 .424.379q.267.104.578.105.177-.001.371-.038.194-.03.297-.082v-.496q-.096.029-.252.058a2 2 0 0 1-.304.023.63.63 0 0 1-.453-.172q-.17-.177-.17-.541v-2.299h1.15v-.505h-1.15v-.913zm3.983.839q-.853 0-1.35.534c-.497.534-.497.864-.497 1.521q0 .66.237 1.127.237.461.646.706.416.238.942.238.854 0 1.35-.542.504-.54.505-1.529 0-.66-.237-1.113a1.6 1.6 0 0 0-.645-.698 1.8 1.8 0 0 0-.95-.244zm4.718 0q-.415 0-.719.237a2 2 0 0 0-.496.565h-.03l-.075-.728h-.534v3.977h.654v-2.122q0-.4.155-.698.164-.304.43-.467.268-.17.572-.17a2 2 0 0 1 .43.053l.08-.602a1.4 1.4 0 0 0-.23-.03 2 2 0 0 0-.237-.015m-10.935.074v3.977h.652V14.43zm-3.057.467q.66 0 .906.4.244.395.244 1.136v.12q0 .697-.259 1.045-.252.341-.884.342-.534-.001-.8-.395-.26-.393-.26-1.105 0-.704.26-1.119.267-.423.793-.424m9.26.007q.608 0 .89.4.281.403.281 1.107 0 .705-.28 1.12-.284.409-.885.41-.607-.001-.889-.41-.275-.415-.275-1.12t.275-1.106.882-.4z"/></svg>