<svg xmlns="http://www.w3.org/2000/svg" width="24" height="24" fill="none" viewBox="0 0 24 24"><path fill="#000" fill-rule="evenodd" d="M9.067 2.37c.916.664 2.046 2.102 3.491 4.442 1.237 2.003 1.516 2.549 1.757 3.43.27.986.382 2.71.22 3.39-.24 1.006-.755 1.669-1.915 2.469-.194.133-.194.145-.003.39.127.161.395.28.754.33 1.508.217 2.339.77 2.559 1.701.13.554.074 1.238-.125 1.511-.07.096-.268.174-.44.174-.381 0-.963-.328-2.008-1.133-.432-.333-.865-.588-.962-.566-.099.021-.22.229-.272.469-.053.237-.166.513-.252.615s-.41.24-.72.31c-.482.107-.567.168-.594.43a3.4 3.4 0 0 1-.08.468c-.04.13-.081.127-.211-.021-.09-.102-.162-.245-.162-.317 0-.273-.501-.062-.942.397-.247.256-.35.134-.113-.135.071-.082.08-.148.021-.148-.06 0-.166.066-.237.148-.1.114-.13.113-.13-.006 0-.172.517-.757.67-.757.053 0 .069-.054.033-.12-.068-.126-.63-.042-.945.142-.12.07-.188.063-.188-.018 0-.07.048-.127.108-.127.059 0 .107-.058.107-.128 0-.082-.085-.076-.242.018-.241.145-.241.144-.037-.119.253-.325.85-.52 1.507-.49.346.014.559-.046.71-.203.12-.123.217-.288.217-.366s-.135-.29-.299-.469l-.298-.326-.68.241c-.816.29-1.111.302-1.52.06-.225-.132-.322-.143-.352-.04-.082.283-.264-.025-.402-.68-.194-.928-.078-1.703.32-2.133.172-.185.812-.616 1.422-.957l1.109-.621-.015-.645c-.013-.553-.063-.697-.35-1.003-.253-.27-.336-.465-.336-.793 0-.24.042-.465.093-.501s-.046-.38-.216-.763c-.36-.816-.403-1.395-.11-1.483.182-.054.162-.187-.27-1.774-.675-2.485-.878-4.018-.606-4.572.09-.186.433-.084.934.28" clip-rule="evenodd"/></svg>