<svg xmlns="http://www.w3.org/2000/svg" viewBox="0 0 192 192"><path d="M88.449 52.985c-8.113 0-15.19 4.483-18.864 11.092-.206.37-.4.741-.583 1.122-.189.394-.364.8-.53 1.209a21.206 21.206 0 0 0-1.457 10.117c.04.423.098.84.163 1.254l-.003-.002c.072.43.154.856.248 1.279a20.973 20.973 0 0 0 .845 2.838c.152.406.322.806.5 1.2a21.609 21.609 0 0 0 2.539 4.262 32.735 32.735 0 0 1 5.016-4.679c.346-.26.699-.51 1.054-.758.355-.245.716-.482 1.079-.713a32.503 32.503 0 0 1 17.069-5.072c.14 0 .281-.012.425-.012.41 0 .812.018 1.218.032.558.02 1.113.056 1.663.104a32.527 32.527 0 0 1 10.638 2.795c.335-1.5.518-3.055.518-4.65a21.278 21.278 0 0 0-.524-4.683c-.09-.397-.191-.792-.3-1.179-2.57-8.97-10.882-15.556-20.714-15.556zm-28.122 9.914c-6.177 0-11.205 5-11.205 11.143 0 1.998.538 3.87 1.469 5.493a25.783 25.783 0 0 1 12.627-3.292l.335.002a25.473 25.473 0 0 1 .987.032 24.234 24.234 0 0 1-.081-1.877 23.606 23.606 0 0 1 2.054-9.64 11.19 11.19 0 0 0-6.186-1.86zm53.079 7.688c-.431 0-.856.017-1.28.042a23.74 23.74 0 0 1 .302 3.77 23.64 23.64 0 0 1-.716 5.775 32.736 32.736 0 0 1 12.845 12.84h.003a25.74 25.74 0 0 1 10.301-2.875c-.955-10.94-10.21-19.552-21.454-19.552zm-17.455 7.964c-.29 0-.575.014-.862.023l-.388.013a30.056 30.056 0 0 0-14.237 4.233 32.468 32.468 0 0 0-2.114 1.393 30.336 30.336 0 0 0-6.215 5.966c-.25.32-.496.648-.732.98a29.694 29.694 0 0 0-4.901 23.787c.11.505.234 1.004.372 1.497a29.694 29.694 0 0 0 4.015 8.739 30.701 30.701 0 0 0 2.525 3.24 28.777 28.777 0 0 0 2.088 2.117 30.133 30.133 0 0 0 20.451 7.976c7.885 0 14.544-2.816 19.851-7.443a28.724 28.724 0 0 0 1.79-1.69c4.414-4.53 7.403-10.43 8.257-16.99a31.027 31.027 0 0 0 .238-3.084c.006-.257.016-.513.016-.773a29.632 29.632 0 0 0-.002-.319 29.632 29.632 0 0 0-2.569-11.773 30.787 30.787 0 0 0-1.08-2.198 30.278 30.278 0 0 0-11.47-11.684 31.167 31.167 0 0 0-2.189-1.147h-.005a29.95 29.95 0 0 0-4.325-1.638 30.318 30.318 0 0 0-7.818-1.208c-.233-.006-.465-.017-.699-.017zm-32.729.118a23.358 23.358 0 0 0-12.264 3.464 23.395 23.395 0 0 0-9.934 12.478 23.051 23.051 0 0 0-1.192 7.31c0 7.547 3.636 14.262 9.254 18.512l.004.005a14.284 14.284 0 0 1 9.637-7.307 14.66 14.66 0 0 1 2.99-.318 14.333 14.333 0 0 1 1.947.134c-.2-1.445-.31-2.916-.31-4.415 0-7.198 2.376-13.853 6.384-19.24a23.954 23.954 0 0 1-2.413-3.607 21.88 21.88 0 0 1-.555-1.093c-.178-.37-.343-.744-.502-1.125a23.708 23.708 0 0 1-1.403-4.734 24.402 24.402 0 0 0-1.643-.065zm73.31 13.84-.372.008a22.51 22.51 0 0 0-1.223.052 23.3 23.3 0 0 0-9.288 2.62 31.987 31.987 0 0 1 2.869 12.061l.016.322a25.831 25.831 0 0 1 .024.963c0 .127-.008.248-.008.375l-.007.41a20.55 20.55 0 0 1-.056 1.219c-.498 8.065-3.97 15.339-9.341 20.749a23.423 23.423 0 0 0 13.592 7.42c1.237.202 2.506.307 3.8.307a23.367 23.367 0 0 0 15.531-5.887 26.336 26.336 0 0 0 .919-.854c.302-.296.594-.597.876-.91 3.292-3.612 5.462-8.256 5.953-13.379a22.69 22.69 0 0 0 .106-2.222c0-.316-.008-.631-.024-.947a22.662 22.662 0 0 0-.236-2.508c-1.643-10.917-10.945-19.372-22.277-19.777a21.426 21.426 0 0 0-.851-.022zm-98.99 3.058c-11.878 0-21.542 9.61-21.542 21.42 0 11.81 9.664 21.42 21.542 21.42l.225-.001a21.492 21.492 0 0 0 11.977-3.78 14.01 14.01 0 0 1-2.266-7.651 14.077 14.077 0 0 1 .648-4.228c-6.495-4.67-10.734-12.26-10.734-20.823a25.583 25.583 0 0 1 .798-6.34c-.215-.006-.431-.017-.648-.017m126.66 18.43c-.646 0-1.273.067-1.89.166.031.53.055 1.062.055 1.6 0 6.823-2.694 13.026-7.073 17.63a11.793 11.793 0 0 0 8.908 4.064c6.504 0 11.797-5.26 11.797-11.729 0-6.467-5.292-11.732-11.797-11.732zm-102.48 1.251c-.087 0-.172.011-.26.014a11.644 11.644 0 0 0-2.425.308 11.814 11.814 0 0 0-8.384 7.394c-.141.386-.266.78-.364 1.184-.228.91-.364 1.854-.364 2.832 0 1.69.368 3.294 1.021 4.745.218.484.468.95.746 1.398a11.61 11.61 0 0 0 1.494 1.93 11.785 11.785 0 0 0 8.536 3.656 11.787 11.787 0 0 0 4.416-.855c3-1.213 5.39-3.623 6.57-6.63l-.247-.253a32.671 32.671 0 0 1-3.327-4.045 34.063 34.063 0 0 1-1.39-2.184 31.954 31.954 0 0 1-3.621-9.249 11.826 11.826 0 0 0-2.4-.245z"/></svg>