<svg version="1.1" viewBox="0 0 192 192" xmlns="http://www.w3.org/2000/svg"><path d="m88.449 52.985c-8.1134 0-15.19 4.4834-18.864 11.092-0.2056 0.36917-0.39999 0.74129-0.58319 1.1217-0.1888 0.39453-0.36399 0.80062-0.53039 1.2093a21.206 21.206 0 0 0-1.4569 10.117c0.04 0.42271 0.0984 0.84014 0.1632 1.2544l-0.0027-0.0028c0.072 0.43117 0.1544 0.85646 0.248 1.2792a20.973 20.973 0 0 0 0.84542 2.8379c0.152 0.40583 0.32159 0.8059 0.49919 1.2005a21.609 21.609 0 0 0 2.539 4.2613c1.5049-1.7275 3.1813-3.3004 5.0159-4.6785 0.34639-0.25928 0.69919-0.50991 1.054-0.75791 0.35519-0.2452 0.71599-0.48167 1.0793-0.71279 4.9457-3.1422 10.797-4.9937 17.069-5.0725 0.1408 0 0.2816-0.01152 0.42559-0.01152 0.40879 0 0.81174 0.01728 1.2176 0.03136 0.55759 0.01976 1.1132 0.05616 1.6628 0.10403a32.527 32.527 0 0 1 10.638 2.7955c0.3352-1.4993 0.51839-3.0548 0.51839-4.6498 0-1.1864-0.10159-2.3533-0.29039-3.4891-0.064-0.40298-0.1464-0.79986-0.2336-1.1944-0.0904-0.39735-0.19119-0.79234-0.30079-1.1785-2.5703-8.9702-10.881-15.556-20.713-15.556zm-28.122 9.9142c-6.1772 0-11.205 4.9996-11.205 11.143 0 1.998 0.53839 3.8693 1.4685 5.4925 3.7368-2.091 8.0422-3.292 12.628-3.292l0.33439 0.0022a25.473 25.473 0 0 1 0.98742 0.03192c-0.048-0.61998-0.0816-1.2429-0.0816-1.8769a23.606 23.606 0 0 1 2.0547-9.6406c-1.7754-1.1723-3.9006-1.8598-6.186-1.8598zm53.079 7.6881c-0.43119 0-0.85638 0.01648-1.2792 0.04184 0.1976 1.2287 0.3016 2.4886 0.3016 3.7708a23.64 23.64 0 0 1-0.71599 5.7743c5.4051 2.9843 9.875 7.445 12.845 12.839h3e-3a25.74 25.74 0 0 1 10.301-2.8742c-0.95562-10.94-10.21-19.552-21.454-19.552zm-17.455 7.9638c-0.2904 0-0.57519 0.01408-0.86246 0.02256l-0.38799 0.0132a30.056 30.056 0 0 0-14.237 4.2332c-0.36079 0.21696-0.71599 0.44263-1.0684 0.67367-0.35519 0.23104-0.70159 0.47367-1.0452 0.71887-2.0121 1.4429-3.8358 3.1252-5.4337 5.0049-0.268 0.31559-0.52719 0.63695-0.78079 0.96102-0.2512 0.32127-0.49599 0.64831-0.73279 0.98078-3.5226 4.9063-5.6026 10.903-5.6026 17.376 0 1.7077 0.1528 3.382 0.43119 5.0137 0.08 0.46783 0.1688 0.93534 0.27039 1.3975 0.1096 0.50447 0.2344 1.0034 0.37199 1.4965a29.694 29.694 0 0 0 4.0158 8.739 30.701 30.701 0 0 0 2.5247 3.2408c0.34399 0.38607 0.69919 0.76366 1.0629 1.13 0.33279 0.33816 0.67599 0.66503 1.0254 0.9863 5.3797 4.9458 12.566 7.9754 20.451 7.9754 7.8846 0 14.544-2.8153 19.851-7.4426 0.3072-0.26487 0.60639-0.53838 0.90215-0.81734 0.30159-0.28463 0.59759-0.57479 0.88782-0.8735 4.4131-4.5286 7.4027-10.429 8.2566-16.99 0.064-0.50727 0.1184-1.0177 0.1576-1.5334 0.04-0.51287 0.064-1.0314 0.08-1.55 6e-3 -0.25648 0.016-0.51295 0.016-0.77223a29.632 29.632 0 0 0-2e-3 -0.31919 29.632 29.632 0 0 0-2.5682-11.773c-0.1688-0.37759-0.3416-0.75254-0.52479-1.1217-0.1808-0.36071-0.3632-0.72431-0.55519-1.0766-2.6659-4.8669-6.651-8.9166-11.47-11.684a31.167 31.167 0 0 0-2.1891-1.1465h-5e-3c-1.3874-0.65199-2.8325-1.2011-4.3251-1.638h-5.6e-4c-2.488-0.72829-5.1085-1.1453-7.8175-1.2087-0.2336-0.0056-0.46479-0.01648-0.69919-0.01648zm-32.729 0.11833c-4.0468 0-7.8568 1.0282-11.182 2.8346-0.36639 0.20008-0.72719 0.41159-1.0821 0.62855-0.34959 0.21696-0.69359 0.44263-1.0314 0.67367-3.7931 2.6152-6.7691 6.3152-8.4798 10.646-0.1496 0.38047-0.2904 0.76687-0.42239 1.1586a23.051 23.051 0 0 0-1.1922 7.3099c0 7.5468 3.6354 14.262 9.2542 18.512l0.0034 5e-3c1.9332-3.6776 5.4443-6.4111 9.6374-7.3072 0.39759-0.0846 0.80014-0.14904 1.2059-0.20255 0.40319-0.0504 0.80878-0.0849 1.223-0.10184 0.1864-9e-3 0.37199-0.0136 0.56079-0.0136a14.333 14.333 0 0 1 1.9473 0.13488c-0.2-1.4457-0.30959-2.9168-0.30959-4.4159 0-7.1974 2.3757-13.853 6.3831-19.239-0.90742-1.1245-1.7192-2.3309-2.4124-3.6075-0.1944-0.35791-0.38079-0.72399-0.55519-1.0931-0.1776-0.36919-0.34319-0.74406-0.50159-1.1245a23.708 23.708 0 0 1-1.4036-4.7346c-0.54399-0.03664-1.0906-0.0644-1.6429-0.0644zm73.31 13.84-0.37199 8e-3c-0.4112 0.0056-0.81719 0.0232-1.223 0.0512-3.3338 0.22544-6.4785 1.1438-9.2878 2.6205 1.6908 3.7058 2.7025 7.7782 2.8687 12.061l0.016 0.32199a25.831 25.831 0 0 1 0.024 0.9627c0 0.1268-8e-3 0.248-8e-3 0.37479l-7e-3 0.40952c-8e-3 0.40887-0.024 0.81614-0.056 1.2197-0.49839 8.0654-3.9702 15.339-9.3414 20.749 3.2127 3.555 7.5077 6.1238 12.366 7.1861 0.40479 0.0886 0.81398 0.16664 1.2263 0.23392 1.2372 0.20191 2.5066 0.30711 3.8006 0.30711 5.9575 0 11.397-2.2288 15.531-5.8866a26.336 26.336 0 0 0 0.91863-0.85422c0.30159-0.29592 0.59439-0.59703 0.87622-0.90982 3.2919-3.6124 5.4617-8.2566 5.9527-13.379 0.072-0.73175 0.1064-1.4729 0.1064-2.2225 0-0.31559-8e-3 -0.6311-0.024-0.9467a22.662 22.662 0 0 0-0.2368-2.5082c-1.6429-10.917-10.945-19.372-22.277-19.777-0.28159-0.0112-0.56639-0.0224-0.85094-0.0224zm-98.99 3.0575c-11.878 0-21.542 9.6094-21.542 21.42 0 11.811 9.6638 21.42 21.542 21.42l0.2248-1e-3a21.492 21.492 0 0 0 11.977-3.7807c-1.4316-2.2065-2.2655-4.8326-2.2655-7.6507a14.077 14.077 0 0 1 0.64799-4.2271c-6.4956-4.6696-10.734-12.261-10.734-20.823a25.583 25.583 0 0 1 0.79758-6.3407c-0.2144-0.0056-0.43119-0.0168-0.64799-0.0168zm126.66 18.43c-0.64558 0-1.2735 0.0672-1.8907 0.16623 0.032 0.52983 0.056 1.0623 0.056 1.6006 0 6.8226-2.694 13.025-7.0733 17.63 2.1643 2.4828 5.3514 4.0637 8.9078 4.0637 6.5041 0 11.797-5.2611 11.797-11.729 0-6.4675-5.2922-11.732-11.797-11.732zm-102.48 1.2511c-0.0872 0-0.172 0.0112-0.2592 0.0144-0.41119 9e-3 -0.81726 0.0392-1.2175 0.0902-0.41119 0.0504-0.81134 0.12384-1.2087 0.21688-3.4747 0.80878-6.3575 3.148-7.8961 6.262-0.18 0.36919-0.34399 0.74662-0.48799 1.1328-0.1408 0.38607-0.2656 0.78038-0.36399 1.1833-0.228 0.91023-0.36319 1.8545-0.36319 2.8324 0 1.6908 0.36719 3.2941 1.021 4.745v5.4e-4c0.2176 0.48352 0.46719 0.95023 0.74559 1.3975 0.2168 0.35223 0.45119 0.69086 0.70479 1.0149 0.248 0.31847 0.51039 0.62559 0.78958 0.9159 2.1502 2.246 5.1766 3.6547 8.5358 3.6547 1.2491 0 2.4532-0.19431 3.5831-0.55423 0.2824-0.09 0.55999-0.19031 0.83278-0.30055 3.0009-1.2126 5.3893-3.6228 6.5692-6.6296l-0.2464-0.25319c-1.2132-1.2569-2.328-2.6072-3.3267-4.0445a34.063 34.063 0 0 1-1.3893-2.184c-0.41439-0.71001-0.80214-1.4371-1.1625-2.1796v-5.5e-4c-1.081-2.228-1.9133-4.596-2.4587-7.0689-0.77519-0.16064-1.5785-0.24552-2.4014-0.24552z"/></svg>
