<svg xmlns="http://www.w3.org/2000/svg" viewBox="0 0 24 24"><path fill-rule="evenodd" d="M17.258 11.911c0 1.2-1.376 2.174-3.072 2.174s-3.072-.974-3.072-2.174 1.375-2.174 3.072-2.174 3.072.974 3.072 2.174m-.87 0c0 .243-.138.548-.533.827-.39.278-.98.477-1.67.477s-1.277-.2-1.669-.477c-.395-.278-.533-.584-.533-.827s.138-.548.532-.827c.393-.278.981-.477 1.67-.477.69 0 1.278.2 1.671.477.395.278.532.584.532.827m-9.216-1.024h1.774L7.324 13.06h-.003l-.726.961h3.763a.481.481 0 0 0 0-.962H8.562l1.647-2.173.726-.963H7.172a.481.481 0 0 0 0 .963m11.692 1.026v1.774a.481.481 0 0 1-.963 0V9.924l.963.726 2.174 1.647v-1.796a.48.48 0 0 1 .962 0v3.762l-.963-.726v-.002l-2.174-1.623m-12.516 0a2.174 2.174 0 1 1-4.348 0 2.174 2.174 0 0 1 4.348 0m-.87 0a1.304 1.304 0 1 1-2.608 0 1.304 1.304 0 0 1 2.609 0"/></svg>