<svg xmlns="http://www.w3.org/2000/svg" width="192" height="192" viewBox="0 0 192 192"><path d="m136.56 169.27-3.096-.048a24 24 0 0 1-5.472-.728l-2.24-.688.184-3.064c.104-1.68.272-3.128.36-3.224.096-.096 1.12.216 2.272.704 1.16.48 3.456 1.04 5.12 1.232l2.872.352v-16.32l-2.848-1.68c-4.288-2.416-6.576-4.52-7.76-7.104-2.984-6.576.68-14.448 7.84-16.824l2.768-.96v-6.64h4v6.448l3.832.432c5.52.68 6.36 1.144 6 3.336-.768 4.608-.608 4.392-2.624 3.552a16 16 0 0 0-4.344-.96l-2.864-.184v14.288l2.928 1.552c6.32 3.376 9.44 7.504 9.464 12.56a13.84 13.84 0 0 1-10.8 13.608c-.578.142-1.592.177-1.592.538v6.55h-4zm6.864-8.336c1.936-1.944 2.64-5.064 1.672-7.408-.68-1.64-4.536-4.904-4.536-3.904v12.904c0 .328 1.984-.72 2.864-1.6zm-6.864-33.272a8 8 0 0 0-2.504 1.44c-1.296 1.104-1.576 1.8-1.576 3.88 0 2.048.32 2.88 1.648 4.264.904.944 2.184 1.72 2.432 1.72M39.056 15.996l28.944.24c32.176.248 33.24.336 43.88 3.8 11.616 3.784 21.232 11.52 25.808 20.736 6.72 13.544 6.72 31.784-.016 45.456-4.208 8.552-13.128 16.304-23.424 20.36-9.864 3.88-17.504 4.888-37.16 4.888H62.064v63.968H39.056zm59.2 73.432c13.296-4.448 19.896-13.808 19.256-27.296-.552-11.52-8.136-19.552-22.64-23.952-4.76-1.44-5.8-1.536-18.92-1.768l-13.888-.256v55.2l15.848-.216c15.408-.216 15.976-.256 20.344-1.72"/></svg>