<svg xmlns="http://www.w3.org/2000/svg" viewBox="0 0 24 24"><path d="M17.086 21.579v-.42l-.403-.006a3 3 0 0 1-.684-.091l-.28-.086.023-.383c.013-.21.034-.391.045-.403.012-.012.14.027.284.088.145.06.432.13.64.154l.375.044v-2.04l-.372-.21c-.536-.302-.822-.565-.97-.888-.373-.822.085-1.806.98-2.103l.362-.12v-.83h.484l.021.403.021.403.437.054c.69.085.795.143.75.417-.096.576-.076.549-.328.444a2.1 2.1 0 0 0-.543-.12l-.316-.023-.04 1.786.364.194c.79.422 1.18.938 1.183 1.57a1.73 1.73 0 0 1-1.35 1.701c-.183.045-.192.067-.192.466V22h-.491zm.842-1.462c.242-.243.33-.633.209-.926-.085-.205-.375-.488-.5-.488-.033 0-.06.363-.06.807 0 .53.026.806.076.806.041 0 .165-.09.275-.2zm-.842-3.448c-.02-.4.012-.715-.016-.711a1 1 0 0 0-.313.18c-.162.138-.197.225-.197.485 0 .256.04.36.206.533.113.118.232.215.263.215s.076-.316.057-.702M4.882 2l3.618.03c4.022.031 4.155.042 5.485.475 1.452.473 2.654 1.44 3.226 2.592.84 1.693.84 3.973-.002 5.682-.526 1.069-1.641 2.038-2.928 2.545-1.233.485-2.188.611-4.645.611H7.758v7.996H4.882zm7.4 9.179c1.662-.556 2.487-1.726 2.407-3.412-.069-1.44-1.017-2.444-2.83-2.994-.595-.18-.725-.192-2.365-.221L7.758 4.52v6.9l1.981-.027c1.926-.027 1.997-.032 2.543-.215"/></svg>