<svg xmlns="http://www.w3.org/2000/svg" viewBox="0 0 24 24"><path d="M11.414 3c-1 0-1.954.192-2.832.537a8.962 8.962 0 0 0-2.465 15.728 6.5 6.5 0 0 0 1.475.877q.207.097.418.184l.084.032a8.93 8.93 0 0 0 6.75-.042 8.963 8.963 0 0 0 4.85-11.709 8.93 8.93 0 0 0-5.387-5.046A7.7 7.7 0 0 0 11.414 3m.001.56a7.18 7.18 0 0 1 7.171 7.175q0 .463-.051.903l-.001.009a4.12 4.12 0 0 0-3.388-1.237 6.47 6.47 0 0 0-6.188-2.526 6.47 6.47 0 0 0-4.68 3.705c-.447-3.955 2.502-8.016 7.136-8.016h.001zm-1.25 4.768a5.9 5.9 0 0 1 4.463 2.167 4.118 4.118 0 0 0-.38 7.892 5.9 5.9 0 0 1-4.08 1.753 5.906 5.906 0 1 1-.003-11.812m5.405 2.61a3.558 3.558 0 0 1-.002 7.116 3.558 3.558 0 1 1 .002-7.115z"/><path d="M11.415 3.56v.014l-.001-.001c-4.634 0-7.583 4.061-7.136 8.016a6.47 6.47 0 0 1 4.68-3.705 6.47 6.47 0 0 1 6.188 2.526 4.12 4.12 0 0 1 3.388 1.237v-.01a7 7 0 0 0 .052-.902 7.18 7.18 0 0 0-7.171-7.174z" opacity=".6"/><path d="M10.166 8.328a5.906 5.906 0 1 0 .002 11.812 5.9 5.9 0 0 0 4.08-1.753 4.118 4.118 0 0 1 .381-7.892 5.9 5.9 0 0 0-4.463-2.166z" opacity=".7"/><path d="M15.57 10.939a3.558 3.558 0 1 0-.002 7.116 3.558 3.558 0 0 0 .002-7.116" opacity=".8"/></svg>