<svg xmlns="http://www.w3.org/2000/svg" viewBox="0 0 24 24"><path d="M15.622 19.811c.048-.07.126-.262-.02-.616l-.443-1.19c-.06-.153.071-.245.16-.145 0 0 .836.964 1.053 1.367l.412.685c.354.023 1.333.05 2.276.05a3 3 0 0 1-.263-.304c-1.608-1.993-2.628-3.103-2.638-3.114-.326-.355-.476-.423-.725-.536l-.115-.054v.303c0 .04-.047.061-.071.02l-2.365-4.155-.008-.014a1.3 1.3 0 0 0-.423-.49l-.23-.16-1.129 2.602c.177 0 .295.18.224.34l-1.041 2.412h.956c.37 0 .736.072 1.079.212l.25.104s-.76 1.565-.76 2.39c0 .15.023.302.063.444h1.753l-.08-.495s1.055.244 2.085.344M12 4.031c-5.523 0-10 4.477-10 10 0 2.224.727 4.277 1.955 5.938.42-.182.653-.452.82-.66l1.86-2.381a.4.4 0 0 1 .15-.115l.28-.121 3.061-3.883.445-.347.912-1.27a.4.4 0 0 1 .084-.086l.4-.29a.28.28 0 0 1 .33-.002l.482.339c.257.18.465.42.605.7l1.935 3.398a.3.3 0 0 0 .152.144c.378.19.61.223 1.108.761a75 75 0 0 1 2.67 3.153c.196.266.448.49.802.652A9.96 9.96 0 0 0 22 14.03c0-5.522-4.477-10-10-10M4.697 14.583l-.649-.211-.4.552v-.682L3 14.03l.648-.21v-.682l.4.551.649-.21-.4.551zm-.154 2.23-.21.648-.211-.648H3.44l.55-.401-.21-.648.553.4.55-.4-.21.648.551.401zm.13-5.162.21.648-.55-.4-.553.4.21-.648-.55-.401h.682l.21-.648.21.648h.682zm1.094-1.466-.4-.552-.649.21.4-.55-.4-.552.649.21.4-.55v.681l.648.21-.648.211zm1.705-2.386-.21.648-.211-.648h-.682l.552-.4-.211-.649.551.4.55-.4-.21.648.552.4zm2.147-1.094-.4.551v-.68l-.649-.212.649-.21v-.681l.4.55.65-.211-.402.552.401.55zm2.722-.625.21.648-.551-.4-.552.4.21-.648-.55-.4h.682l.21-.65.21.648h.682zm2.44.496v.68l-.4-.552-.648.21.4-.55-.4-.552.648.21.4-.55v.681l.649.21zm4.523 6.904.647.21.401-.55v.681l.648.21-.648.211v.682l-.4-.552-.648.21.4-.55zm-2.565-5.033-.21-.648h-.682l.552-.4-.212-.648.552.4.552-.4-.211.648.551.4h-.681zm1.494 1.738v-.682l-.648-.21.648-.21V8.4l.4.552.648-.211-.4.552.4.55-.647-.21zm1.224 1.065.21-.648.212.648h.68l-.55.4.21.649-.552-.4-.55.4.21-.648-.551-.401zm.422 5.563-.212.648-.21-.648h-.681l.551-.4-.21-.648.55.4.552-.4-.21.647.55.401zm-10.075.225c-.1-.042-.264-.225.008-.738l.632-1.323c.02-.04-.026-.09-.055-.056l-.554.557c-.261.274-.706 1.042-.792 1.184l-.673 1.113a.09.09 0 0 1 .083.135l-.615 1.032c-.15.257.12.435.157.376.965-1.557 1.527-1.432 1.527-1.432l.322-.747a.074.074 0 0 0-.04-.101"/></svg>