<svg xmlns="http://www.w3.org/2000/svg" viewBox="0 0 24 24"><path d="M9.967 2c-.874.007-1.716.71-1.712 1.66V14.1a1.68 1.68 0 0 0 .78 1.419l.001.002 7.571 4.737c1.054.547 2.429-.205 2.488-1.391l.002-.025V8.391a1.67 1.67 0 0 0-.785-1.409l-7.49-4.74h-.002A1.56 1.56 0 0 0 9.967 2m.22 2.129 6.977 4.414v9.781l-6.977-4.365zM6.62 3.593c-.868.003-1.706.695-1.716 1.64v10.42c.003.58.307 1.116.8 1.418v.002l7.557 4.705c1.067.639 2.524-.18 2.523-1.423V9.975a1.69 1.69 0 0 0-.766-1.396l-.008-.005-7.54-4.737a1.57 1.57 0 0 0-.85-.244m.217 2.129 7.014 4.406v9.742L6.836 15.5z"/></svg>