<svg xmlns="http://www.w3.org/2000/svg" viewBox="0 0 24 24"><path d="m8.813 15.737 8.105 4.992s.79.619 1.586.235.763-1.161.763-1.263V9.424s.03-.617-.235-1.174c-.298-.63-.703-.963-1.145-1.234-.442-.27-7.664-4.727-7.664-4.727s-.642-.508-1.41-.176c-.767.331-.792 1.069-.792 1.262V14.49c.005.168.025.39.088.515.11.217.153.394.704.734zm2.584-8.721 4.493 2.76v6.254l-4.493-2.73z" opacity=".5"/><path d="M6.376 15.385c.005.167.025.404.088.529.11.217.153.395.705.734l8.105 4.992s.79.619 1.586.235c.795-.384.763-1.161.763-1.263V10.335s.03-.617-.235-1.175c-.298-.629-.704-.962-1.145-1.233C15.8 7.657 8.579 3.2 8.579 3.2s-.642-.507-1.41-.176c-.768.332-.793 1.07-.793 1.263zm3.377-7.458 4.493 2.76v6.254l-4.493-2.73z"/></svg>