<svg version="1.1" viewBox="0 0 24 24" xmlns="http://www.w3.org/2000/svg"><path d="m8.8134 15.737c0.55193 0.3386 8.1047 4.9919 8.1047 4.9919s0.78977 0.61911 1.5859 0.23512c0.79567-0.38399 0.76344-1.1611 0.76344-1.2627v-10.277s0.0295-0.61684-0.23512-1.1747c-0.29821-0.62909-0.70353-0.96225-1.1452-1.2332-0.44164-0.27097-7.6639-4.7277-7.6639-4.7277s-0.64226-0.5079-1.4093-0.17611c-0.76753 0.33179-0.79295 1.0689-0.79295 1.2627v11.114c0.00545 0.16749 0.024964 0.38989 0.088055 0.51426 0.10984 0.21741 0.15251 0.39488 0.70444 0.73394zm2.584-8.7215 4.4926 2.7601v6.2546l-4.4926-2.7311z" opacity=".5" stroke-width=".045389"/><path d="m6.376 15.385c0.00545 0.16749 0.024964 0.40396 0.088055 0.52878 0.1103 0.21741 0.15296 0.39534 0.70489 0.73394s8.1047 4.9919 8.1047 4.9919 0.78977 0.61911 1.5859 0.23512c0.79567-0.38399 0.76344-1.1611 0.76344-1.2627v-10.277s0.0295-0.61684-0.23512-1.1747c-0.29821-0.62909-0.70353-0.96225-1.1452-1.2332-0.44164-0.27097-7.6639-4.7277-7.6639-4.7277s-0.64226-0.5079-1.4093-0.17611c-0.76798 0.33179-0.7934 1.0689-0.7934 1.2627zm3.3769-7.4583 4.4926 2.7601v6.2546l-4.4926-2.7311z" stroke-width=".045389"/></svg>
