<svg xmlns="http://www.w3.org/2000/svg" viewBox="0 0 24 24"><path d="M11.926 2.933c.176 1.33.847 4.217 1.276 5.493.155.457.838 2.242.745 2.6-.083.332-.735.755-1 1.032-.475.493-.741.991-1.01 1.612-.228.53-.628 2.189-.258 2.673.116.151.218.145.372.199.618-.842 1.568-1.299 2.622-1.075l.999.325-2.622.125.198.374 1.55.625c-.51.468-.77.703-1.499.568-.563-.05-1.4-.636-1.861 0-.157.178-.239.55-.239.806.007 1.234 1.241 1.493 2.225 1.498 1.903.008 2.102-.51 3.496-1.623l-.624 1.373 2.867.154c.924-.269.804-1.72.519-2.401l-2.144-3.746c-.32-.514-1.033-1.785-1.07-2.372-.035-.524.369-.902.705-1.249.565-.585 1.32-1.237 1.352-2.122.043-1.149-1.155-2.185-2.229-2.247-.107 1.016-.6 1.658-1.623 1.872.337-.298.82-.444.995-.886.204-.515.021-1.764-.74-1.663-.352.046-.605.54-.88.801.12-.72.27-1.031 1-1.248l-.125-1.498zM9.429 17.54c0 1.266.035 1.711 1.498 1.748V17.54zm-1.748.499c.017 1.313.45 1.372 1.623 1.373l-.375-1.498zm-1.623.999c.238.681 1.162.786 1.248-.25zm5.419-16.17.013.075.53 2.75.771 2.625c.087.284.274.808.426 1.324.076.258.143.515.185.736.042.222.057.41.036.52-.054.276-.238.434-.512.664-.274.23-.629.528-.985 1.074-.921 1.417-.83 2.169-.828 3.72-.644.009-.916.068-1.125.165-.216.1-.358.23-.826.381l-.75.176-.877.345c-.53.17-1.067.337-1.433.647-.356.302-.536.75-.37 1.422-1.208.317-1.364.286-2.693.789-.16.06-.335.153-.502.207-.167.054-.317.069-.443-.006L2 20.426v.704l1.457-.59c1.06-.378 2.233-.475 3.355-.576.282-.026.442-.068.604-.098.162-.03.328-.05.637-.04.546.021.753.009.937-.025.184-.033.336-.084.783-.148h1.399c.26.028.502.152.808.281.308.13.679.261 1.192.285h.004l3.12-.244c.825 0 3.108.236 3.852.461.324.098.448.184.637.29.19.104.439.223.988.37l.036.01.191-.193-1.11-1.248-.136.408c-.277-.136-.427-.244-.492-.342-.07-.106-.065-.211-.034-.383.063-.342.228-.897-.03-1.947-.155-.625-.661-1.465-1.206-2.312-.545-.847-1.13-1.699-1.441-2.32-.11-.218-.271-.534-.4-.854-.13-.32-.225-.646-.208-.862.042-.507.473-.89.936-1.343.463-.453.953-.977 1.055-1.776.066-.522-.16-1.074-.502-1.549-.343-.474-.805-.874-1.235-1.09-.451-.226-1.019-.307-1.33-.59-.444-.399-.495-1.182-.508-1.775l-.002-.06h-3.181zm.15.124h3.61c.013.59.063 1.37.546 1.805.356.322.937.396 1.36.609.406.204.856.593 1.187 1.05.331.459.541.985.48 1.462-.095.755-.557 1.253-1.017 1.703-.46.45-.928.848-.975 1.42v.001c-.02.26.083.592.215.918.133.327.298.646.407.862.32.637.903 1.489 1.447 2.334.543.845 1.044 1.685 1.19 2.273.253 1.028.093 1.537.029 1.895-.033.178-.042.332.052.474.095.142.276.264.606.42l.064.03.114-.34.886 1-.056.056c-.516-.14-.747-.25-.926-.35-.184-.101-.327-.198-.662-.3-.789-.239-3.042-.466-3.889-.465h-.002l-3.12.244a3.17 3.17 0 0 1-1.144-.275c-.301-.128-.554-.26-.845-.291H9.76c-.457.065-.618.119-.791.15-.173.032-.367.044-.91.024a2.758 2.758 0 0 0-.666.04c-.168.032-.319.072-.592.096-1.122.101-2.305.199-3.387.584l-1.289.522v-.313c.146.048.303.023.451-.025.182-.059.36-.153.508-.209 1.35-.511 1.46-.46 2.74-.799l.061-.015-.016-.061c-.185-.676-.024-1.07.313-1.356.337-.285.862-.453 1.392-.623h.002l.873-.343.747-.178h.003c.482-.156.644-.295.842-.387.198-.092.447-.15 1.137-.156h.06v-.063c0-1.6-.112-2.295.81-3.71.345-.533.684-.817.958-1.047s.492-.414.555-.735c.028-.144.008-.34-.035-.568a8.103 8.103 0 0 0-.19-.748c-.153-.521-.34-1.049-.426-1.326l-.77-2.617z"/></svg>