<svg xmlns="http://www.w3.org/2000/svg" width="24" height="24" viewBox="0 0 24 24"><path d="M20.333 10.134c0 .447-.054.903-.14 1.356-.706 3.683-3.122 4.955-6.208 4.955h-.477a.769.769 0 0 0-.756.658l-.67 4.241a.77.77 0 0 1-.756.656h-2.28a.53.53 0 0 1-.523-.61l1.155-7.4.051-.047h1.796c4.363 0 7.09-2.181 7.894-6.306.677.678.914 1.563.914 2.497M8.487 13.678c.096-.689.382-.981 1.154-.983l1.883-.002c3.812 0 5.999-1.741 6.686-5.325C18.877 3.923 16.458 2 13.184 2h-6.12a.88.88 0 0 0-.865.75C4.28 15.114 3.724 18.258 3.668 19.217a.53.53 0 0 0 .529.56H7.52z" style="stroke-width:.833333"/></svg>