<svg xmlns="http://www.w3.org/2000/svg" viewBox="0 0 24 24"><path d="M17.956 3.508C17.03 2.453 15.356 2 13.214 2H7a.89.89 0 0 0-.88.75L3.533 19.166c-.052.323.2.616.527.616h3.837l.964-6.112-.03.191a.89.89 0 0 1 .876-.75h1.823c3.582 0 6.387-1.455 7.207-5.664a10 10 0 0 0 .063-.364q-.155-.083 0 0c.244-1.556-.002-2.615-.843-3.574"/><path d="M17.942 6.74a6 6 0 0 0-.387-.1 7 7 0 0 0-.41-.078q-.74-.119-1.608-.117h-4.872a.8.8 0 0 0-.336.077.78.78 0 0 0-.433.58L8.861 13.67l-.03.191a.886.886 0 0 1 .875-.75h1.824c3.582 0 6.387-1.456 7.206-5.665q.037-.186.064-.364a4.4 4.4 0 0 0-.674-.284zm.794.706c-.82 4.209-3.624 5.664-7.206 5.664H9.706a.886.886 0 0 0-.875.75l-1.2 7.601a.467.467 0 0 0 .461.54h3.235a.78.78 0 0 0 .769-.657l.031-.164.61-3.864.04-.214a.78.78 0 0 1 .768-.656h.484c3.133 0 5.587-1.273 6.304-4.955.299-1.539.144-2.823-.648-3.726a3.1 3.1 0 0 0-.885-.683q-.029.179-.064.364" opacity=".75"/></svg>