<svg xmlns="http://www.w3.org/2000/svg" viewBox="0 0 24 24"><path d="M21.936 10.696c-.173-.527-.644-.905-1.195-.905h-.012c-.36 0-.683.159-.914.415a1.23 1.23 0 0 0-.913-.415h-.012c-.315 0-.603.123-.825.327v-.104c-.007-.103-.087-.184-.185-.184h-.848c-.103 0-.187.089-.187.2v4.914c0 .111.084.2.187.2h.848a.19.19 0 0 0 .184-.173v-3.527l.001-.036a.32.32 0 0 1 .292-.302h.156a.3.3 0 0 1 .18.074.34.34 0 0 1 .114.263l.003 3.511c0 .111.084.201.188.201h.847c.1 0 .182-.085.186-.19V11.44a.34.34 0 0 1 .137-.283.33.33 0 0 1 .156-.056h.156c.184.018.295.166.294.339l.004 3.505c0 .111.083.2.187.2h.847c.103 0 .187-.089.187-.2v-3.772c0-.256-.027-.366-.063-.478M16.2 9.841h-.486v-.84c0-.101-.076-.183-.17-.183l-.033.003c-.537.158-.43.953-1.41 1.02h-.095a.2.2 0 0 0-.042.006.2.2 0 0 0-.146.195v.904c0 .111.083.2.188.2h.51v3.837c0 .11.083.199.185.199h.839c.101 0 .184-.089.184-.199v-3.836h.475c.103 0 .188-.091.188-.2v-.906c0-.11-.085-.2-.188-.2m-3.488-.113h-.893a.2.2 0 0 0-.197.205v1.918a.213.213 0 0 1-.209.215h-.374a.213.213 0 0 1-.21-.218l-.003-1.915a.2.2 0 0 0-.197-.205h-.894a.2.2 0 0 0-.197.205v2.103c0 .8.548 1.368 1.318 1.368 0 0 .576 0 .595.004a.214.214 0 0 1 .185.214.214.214 0 0 1-.183.215l-.015.003-1.306.004a.2.2 0 0 0-.197.206v.927c0 .113.088.205.197.205h1.46c.77 0 1.318-.569 1.318-1.368V9.932a.2.2 0 0 0-.198-.204m-8.645 1.7V12c0 .12-.093.218-.21.218H3.29V11.07h.568c.115 0 .209.098.209.219v.138m.078-1.7H2.193a.2.2 0 0 0-.194.2v5.043c0 .111.081.203.181.205h.91a.2.2 0 0 0 .198-.205l.002-1.41h.855c.715 0 1.214-.515 1.214-1.261v-1.31c0-.745-.499-1.262-1.214-1.262m3.627 3.879v.145a.2.2 0 0 1-.012.064.21.21 0 0 1-.198.14H7.19a.21.21 0 0 1-.21-.204v-.794a.207.207 0 0 1 .21-.203h.372c.117 0 .21.091.21.205zM7.63 9.733H6.39a.195.195 0 0 0-.198.193v.87c0 .112.094.204.21.204h1.18a.21.21 0 0 1 .178.196v.12c-.01.105-.084.182-.173.191h-.585c-.776 0-1.33.536-1.33 1.29v1.078c0 .75.476 1.282 1.248 1.282h1.619a.52.52 0 0 0 .527-.51v-3.52c0-.855-.425-1.394-1.436-1.394"/></svg>