<svg xmlns="http://www.w3.org/2000/svg" viewBox="0 0 24 24"><path d="M6.43 6.919h.117v1.47h-.18V7.245a1 1 0 0 1-.17.123 1 1 0 0 1-.19.093v-.173q.152-.072.264-.172a.7.7 0 0 0 .16-.196zm1.5.402q.032.127.032.346 0 .257-.053.416a.5.5 0 0 1-.158.244.4.4 0 0 1-.266.087.4.4 0 0 1-.333-.152q-.144-.182-.144-.595 0-.26.052-.418a.5.5 0 0 1 .159-.244.4.4 0 0 1 .266-.086.4.4 0 0 1 .353.184q.06.09.091.218zm-.152.346q0-.363-.085-.481-.084-.118-.21-.118a.23.23 0 0 0-.198.105q-.093.134-.093.494c0 .36.028.4.084.48q.085.12.21.12.122 0 .207-.12t.085-.48m1.289-.346q.033.127.032.346 0 .257-.052.416a.5.5 0 0 1-.159.244.4.4 0 0 1-.265.087.4.4 0 0 1-.333-.152q-.145-.182-.145-.595 0-.26.053-.418a.5.5 0 0 1 .16-.244.4.4 0 0 1 .264-.086.4.4 0 0 1 .354.184.7.7 0 0 1 .09.218zm-.152.346q0-.363-.085-.481-.084-.118-.21-.118a.23.23 0 0 0-.198.105q-.093.134-.093.494c0 .36.028.4.084.48q.085.12.209.12t.208-.12q.086-.12.085-.48m1.29-.346q.033.127.033.346 0 .257-.053.416a.5.5 0 0 1-.158.244.4.4 0 0 1-.266.087.4.4 0 0 1-.333-.152q-.145-.182-.145-.595 0-.26.053-.418a.5.5 0 0 1 .16-.244.4.4 0 0 1 .264-.086q.119 0 .207.047a.4.4 0 0 1 .147.136.8.8 0 0 1 .091.219m-.152.346q0-.363-.084-.481-.085-.118-.211-.118a.23.23 0 0 0-.198.105q-.093.134-.093.494c0 .36.028.4.084.48q.085.12.209.12t.209-.12q.084-.12.084-.48m.696-.3a1 1 0 0 1-.19.093v-.173q.15-.072.264-.172a.7.7 0 0 0 .16-.196h.116v1.47h-.18V7.243a1 1 0 0 1-.17.124m1.22-.448h.115v1.47h-.18V7.245a1 1 0 0 1-.17.123q-.105.063-.189.093v-.173q.15-.072.264-.172a.7.7 0 0 0 .16-.196zm1.497.402q.033.127.033.346 0 .257-.053.416a.5.5 0 0 1-.16.244.4.4 0 0 1-.264.087.4.4 0 0 1-.334-.152q-.144-.182-.144-.595 0-.26.053-.418a.5.5 0 0 1 .16-.244.4.4 0 0 1 .264-.086.4.4 0 0 1 .354.184.7.7 0 0 1 .091.218m-.15.346q-.001-.363-.085-.481-.085-.119-.21-.118a.23.23 0 0 0-.198.105q-.093.134-.094.494c-.001.36.029.4.085.48q.085.12.208.12.124 0 .209-.12t.085-.48M6.43 9.374h.116v1.47h-.18V9.7a1 1 0 0 1-.17.123 1 1 0 0 1-.19.093v-.173q.151-.072.264-.172a.7.7 0 0 0 .16-.196zm1.498.403q.032.127.033.345 0 .257-.054.416a.5.5 0 0 1-.158.245.4.4 0 0 1-.265.087.4.4 0 0 1-.334-.153q-.144-.182-.144-.595 0-.259.053-.417a.5.5 0 0 1 .159-.245.4.4 0 0 1 .266-.086.39.39 0 0 1 .353.184q.06.09.09.219zm-.151.344q0-.363-.085-.481t-.21-.118a.23.23 0 0 0-.198.105q-.093.134-.093.494 0 .361.084.48.085.12.21.12.122 0 .207-.12t.085-.48m1.044.723h-.18V9.7a1 1 0 0 1-.17.123 1 1 0 0 1-.189.093v-.173q.15-.072.263-.172a.7.7 0 0 0 .16-.196h.116zm.636-1.021q-.105.061-.19.093v-.174q.152-.072.264-.172a.7.7 0 0 0 .16-.196h.116v1.47h-.18V9.7a1 1 0 0 1-.17.124zm1.733-.046q.034.127.033.345 0 .257-.053.416a.5.5 0 0 1-.158.245.4.4 0 0 1-.265.087.4.4 0 0 1-.334-.153q-.144-.182-.144-.595 0-.259.053-.417a.5.5 0 0 1 .16-.245.4.4 0 0 1 .264-.086.39.39 0 0 1 .353.184q.059.09.091.219m-.152.344q0-.363-.084-.481-.085-.117-.21-.118a.23.23 0 0 0-.198.105q-.093.134-.093.494 0 .361.084.48.084.12.209.12t.208-.12.084-.48m.93-.747h.115v1.47h-.18V9.7a1 1 0 0 1-.17.123q-.105.063-.19.093v-.173a1.1 1.1 0 0 0 .265-.172.7.7 0 0 0 .16-.196zm1.497.403q.033.127.033.345 0 .257-.054.416a.5.5 0 0 1-.159.245.4.4 0 0 1-.265.087.4.4 0 0 1-.333-.153q-.145-.182-.145-.595 0-.259.053-.417a.53.53 0 0 1 .16-.245.4.4 0 0 1 .265-.086.4.4 0 0 1 .354.184q.059.09.09.219zm-.15.344q-.001-.363-.085-.481-.085-.117-.21-.118a.23.23 0 0 0-.198.105q-.094.134-.094.494 0 .361.085.48.085.12.208.12t.208-.12.085-.48zm.927-.747h.115v1.47h-.18V9.7a1.2 1.2 0 0 1-.359.217v-.174q.151-.072.265-.172a.7.7 0 0 0 .159-.196zM6.43 11.83h.116v1.47h-.18v-1.146a1.2 1.2 0 0 1-.36.217v-.173q.153-.072.265-.172a.7.7 0 0 0 .16-.196zm1.498.403q.034.127.034.345 0 .258-.054.417a.5.5 0 0 1-.158.244.4.4 0 0 1-.265.087.4.4 0 0 1-.334-.152q-.144-.183-.144-.595 0-.26.053-.419a.5.5 0 0 1 .159-.243.4.4 0 0 1 .266-.086.39.39 0 0 1 .353.184.7.7 0 0 1 .09.218m-.15.345q0-.361-.085-.48-.086-.12-.21-.12a.23.23 0 0 0-.199.106q-.092.134-.092.494t.084.48q.085.12.209.12t.208-.12.084-.48zm1.288-.345q.034.127.033.345 0 .257-.052.417a.5.5 0 0 1-.159.244.4.4 0 0 1-.265.087.4.4 0 0 1-.333-.152q-.145-.183-.145-.595 0-.26.053-.419a.5.5 0 0 1 .16-.243.4.4 0 0 1 .264-.086.4.4 0 0 1 .354.184.7.7 0 0 1 .09.218m-.151.345q0-.361-.085-.48-.086-.12-.21-.12a.23.23 0 0 0-.198.106q-.093.134-.093.494t.084.48q.085.12.209.12t.208-.12.085-.48m1.29-.345q.033.127.033.345 0 .257-.053.417a.5.5 0 0 1-.158.244.4.4 0 0 1-.266.087.4.4 0 0 1-.333-.152q-.145-.183-.145-.595 0-.26.053-.419a.5.5 0 0 1 .159-.243.4.4 0 0 1 .265-.086q.118 0 .207.047a.4.4 0 0 1 .147.137.8.8 0 0 1 .091.218m-.152.345q0-.361-.085-.48-.084-.12-.21-.12a.23.23 0 0 0-.198.106q-.093.134-.093.494t.084.48q.085.12.209.12t.208-.12.085-.48m.93-.748h.115v1.47h-.18v-1.146a1.2 1.2 0 0 1-.36.217v-.173q.151-.072.264-.172a.7.7 0 0 0 .16-.196zm.985 0h.116v1.47h-.18v-1.146a1.2 1.2 0 0 1-.36.217v-.173q.151-.072.265-.172a.7.7 0 0 0 .16-.196zm1.498.403q.033.127.033.345 0 .257-.054.417a.5.5 0 0 1-.159.244.4.4 0 0 1-.265.087.4.4 0 0 1-.333-.152q-.145-.183-.145-.595 0-.26.053-.419a.5.5 0 0 1 .16-.243.4.4 0 0 1 .265-.086.4.4 0 0 1 .354.184q.058.088.09.218zm-.15.345q-.001-.361-.085-.48-.085-.12-.21-.12a.23.23 0 0 0-.198.106q-.094.134-.094.494 0 .361.085.48.085.12.208.12t.208-.12.085-.48zm-3.457 3.85a6.72 6.72 0 0 1-6.714-6.714A6.72 6.72 0 0 1 9.86 3a6.72 6.72 0 0 1 6.713 6.713 6.72 6.72 0 0 1-6.713 6.714zM5.027 8.34c.051.059.11.095.182.095q.122 0 .208-.12t.085-.48q0-.355-.083-.476a5 5 0 0 0-.392.98zm9.217 3.657h-.002zm0 0h.086a5 5 0 0 0 .495-1.552q-.007-.074-.008-.155.001-.26.054-.418l.006-.011c.002-.05.008-.098.008-.148 0-.8-.193-1.555-.528-2.228v.904h-.18V7.243a1.2 1.2 0 0 1-.359.217v-.174q.152-.072.264-.172.025-.022.044-.045a5.02 5.02 0 0 0-4.268-2.383A5.03 5.03 0 0 0 5.5 7.215c.02.02.044.031.06.055a.8.8 0 0 1 .09.219q.034.128.033.345 0 .258-.052.417a.5.5 0 0 1-.16.244.4.4 0 0 1-.265.087.4.4 0 0 1-.226-.068 5 5 0 0 0-.145 1.079.5.5 0 0 1 .106-.133.4.4 0 0 1 .265-.086.39.39 0 0 1 .354.184q.058.09.09.218.034.127.034.346 0 .257-.053.416a.5.5 0 0 1-.16.244.4.4 0 0 1-.265.087.4.4 0 0 1-.263-.096c.097.448.254.873.462 1.268l.008.004a.4.4 0 0 1 .148.136.8.8 0 0 1 .09.219c.006.023.01.055.014.083a5.03 5.03 0 0 0 4.192 2.258c1.8 0 3.378-.953 4.266-2.38-.035.029-.067.057-.115.085q-.105.06-.189.093v-.174q.15-.072.264-.172a.7.7 0 0 0 .16-.196zM5 10.601q.085.12.209.12t.208-.12.085-.48-.085-.48-.21-.119a.23.23 0 0 0-.199.105q-.092.134-.092.494 0 .361.084.48m9.213 5.242 1.484-1.484 5.157 5.157L19.37 21z"/></svg>