<svg xmlns="http://www.w3.org/2000/svg" viewBox="0 0 24 24"><path d="M6.43 6.919h.117v1.47h-.18V7.245a.915.915 0 0 1-.17.123 1.17 1.17 0 0 1-.19.093v-.173c.101-.048.189-.105.264-.172a.67.67 0 0 0 .16-.196zm1.5.402c.021.085.032.2.032.346 0 .171-.018.31-.053.416a.517.517 0 0 1-.158.244.4.4 0 0 1-.266.087.404.404 0 0 1-.333-.152c-.096-.121-.144-.32-.144-.595 0-.173.017-.313.052-.418a.523.523 0 0 1 .159-.244.406.406 0 0 1 .266-.086.395.395 0 0 1 .353.184c.04.06.07.132.091.218zm-.152.346c0-.242-.028-.402-.085-.481-.056-.079-.126-.118-.21-.118a.23.23 0 0 0-.198.105c-.062.089-.093.254-.093.494s.028.4.084.48c.057.08.126.12.21.12.081 0 .15-.04.207-.12.057-.08.084-.24.085-.48m1.289-.346c.022.085.032.2.032.346 0 .171-.017.31-.052.416a.521.521 0 0 1-.159.244.4.4 0 0 1-.265.087.403.403 0 0 1-.333-.152c-.097-.121-.145-.32-.145-.595 0-.173.018-.313.053-.418a.52.52 0 0 1 .16-.244.402.402 0 0 1 .264-.086.396.396 0 0 1 .354.184.74.74 0 0 1 .09.218zm-.152.346c0-.242-.028-.402-.085-.481-.056-.079-.126-.118-.21-.118a.23.23 0 0 0-.198.105c-.062.089-.093.254-.093.494s.028.4.084.48c.057.08.126.12.209.12.083 0 .152-.04.208-.12.058-.08.085-.24.085-.48m1.29-.346c.022.085.033.2.033.346 0 .171-.017.31-.053.416a.52.52 0 0 1-.158.244.4.4 0 0 1-.266.087.404.404 0 0 1-.333-.152c-.097-.121-.145-.32-.145-.595 0-.173.018-.313.053-.418a.52.52 0 0 1 .16-.244.403.403 0 0 1 .264-.086c.079 0 .148.015.207.047a.402.402 0 0 1 .147.136.76.76 0 0 1 .091.219m-.152.346c0-.242-.028-.402-.084-.481-.057-.079-.127-.118-.211-.118a.23.23 0 0 0-.198.105c-.062.089-.093.254-.093.494s.028.4.084.48c.057.08.126.12.209.12.083 0 .152-.04.209-.12.056-.08.084-.24.084-.48m.696-.3a1.17 1.17 0 0 1-.19.093v-.173c.1-.048.189-.105.264-.172a.69.69 0 0 0 .16-.196h.116v1.47h-.18V7.243a.958.958 0 0 1-.17.124m1.22-.448h.115v1.47h-.18V7.245a.915.915 0 0 1-.17.123c-.07.042-.133.073-.189.093v-.173c.1-.048.188-.105.264-.172a.687.687 0 0 0 .16-.196zm1.497.402c.022.085.033.2.033.346 0 .171-.018.31-.053.416a.518.518 0 0 1-.16.244.398.398 0 0 1-.264.087.404.404 0 0 1-.334-.152c-.096-.121-.144-.32-.144-.595 0-.173.018-.313.053-.418a.515.515 0 0 1 .16-.244.402.402 0 0 1 .264-.086.4.4 0 0 1 .354.184.74.74 0 0 1 .091.218m-.15.346c0-.242-.03-.402-.085-.481-.057-.08-.126-.118-.21-.118a.23.23 0 0 0-.198.105c-.062.089-.094.254-.094.494s.029.4.085.48c.057.08.126.12.208.12.083 0 .152-.04.209-.12.056-.08.084-.24.085-.48M6.43 9.374h.116v1.47h-.18V9.7a.897.897 0 0 1-.17.123 1.17 1.17 0 0 1-.19.093v-.173c.101-.048.189-.105.264-.172a.681.681 0 0 0 .16-.196zm1.498.403c.021.085.033.2.033.345 0 .171-.018.31-.054.416a.517.517 0 0 1-.158.245.402.402 0 0 1-.265.087.403.403 0 0 1-.334-.153c-.096-.121-.144-.32-.144-.595 0-.172.018-.312.053-.417a.522.522 0 0 1 .159-.245.408.408 0 0 1 .266-.086.392.392 0 0 1 .353.184c.04.06.07.132.09.219zm-.151.344c0-.242-.029-.402-.085-.481-.057-.078-.126-.118-.21-.118a.231.231 0 0 0-.198.105c-.062.09-.093.254-.093.494 0 .241.028.401.084.48.057.08.126.12.21.12.081 0 .15-.04.207-.12.056-.08.084-.24.085-.48m1.044.723h-.18V9.7a.915.915 0 0 1-.17.123 1.15 1.15 0 0 1-.189.093v-.173c.1-.048.188-.105.263-.172a.682.682 0 0 0 .16-.196h.116zm.636-1.021c-.07.041-.133.072-.19.093v-.174c.101-.048.19-.105.264-.172a.68.68 0 0 0 .16-.196h.116v1.47h-.18V9.7a.934.934 0 0 1-.17.124zm1.733-.046c.023.085.033.2.033.345 0 .171-.017.31-.053.416a.52.52 0 0 1-.158.245.403.403 0 0 1-.265.087.402.402 0 0 1-.334-.153c-.096-.121-.144-.32-.144-.595 0-.172.018-.312.053-.417a.523.523 0 0 1 .16-.245.405.405 0 0 1 .264-.086.39.39 0 0 1 .353.184c.039.06.07.132.091.219m-.152.344c0-.242-.028-.402-.084-.481-.056-.078-.127-.118-.21-.118a.23.23 0 0 0-.198.105c-.062.09-.093.254-.093.494 0 .241.027.401.084.48.056.08.126.12.209.12.082 0 .152-.04.208-.12.056-.08.084-.24.084-.48m.93-.747h.115v1.47h-.18V9.7a.897.897 0 0 1-.17.123c-.07.042-.133.073-.19.093v-.173a1.13 1.13 0 0 0 .265-.172.7.7 0 0 0 .16-.196zm1.497.403c.022.085.033.2.033.345 0 .171-.018.31-.054.416a.518.518 0 0 1-.159.245.4.4 0 0 1-.265.087.403.403 0 0 1-.333-.153c-.096-.121-.145-.32-.145-.595 0-.172.018-.312.053-.417a.527.527 0 0 1 .16-.245.405.405 0 0 1 .265-.086.397.397 0 0 1 .354.184c.038.06.07.132.09.219zm-.15.344c0-.242-.03-.402-.085-.481-.057-.078-.126-.118-.21-.118a.23.23 0 0 0-.198.105c-.063.09-.094.254-.094.494 0 .241.029.401.085.48.056.08.126.12.208.12.082 0 .151-.04.208-.12.057-.08.085-.24.085-.48zm.927-.747h.115v1.47h-.18V9.7a1.187 1.187 0 0 1-.359.217v-.174c.1-.048.19-.105.265-.172a.675.675 0 0 0 .159-.196zM6.43 11.83h.116v1.47h-.18v-1.146a1.21 1.21 0 0 1-.36.217v-.173c.102-.048.19-.106.265-.172a.672.672 0 0 0 .16-.196zm1.498.403c.022.084.034.2.034.345 0 .172-.018.311-.054.417a.517.517 0 0 1-.158.244.404.404 0 0 1-.265.087.403.403 0 0 1-.334-.152c-.096-.122-.144-.32-.144-.595 0-.174.018-.312.053-.419a.517.517 0 0 1 .159-.243.406.406 0 0 1 .266-.086.393.393 0 0 1 .353.184.66.66 0 0 1 .09.218m-.15.345c0-.24-.029-.402-.085-.48-.057-.08-.127-.12-.21-.12a.231.231 0 0 0-.199.106c-.061.089-.092.254-.092.494 0 .241.027.4.084.48.057.08.126.12.209.12.082 0 .151-.041.208-.12.056-.08.084-.24.084-.48zm1.288-.345c.023.084.033.2.033.345 0 .172-.017.31-.052.417a.52.52 0 0 1-.159.244.405.405 0 0 1-.265.087.401.401 0 0 1-.333-.152c-.097-.122-.145-.32-.145-.595 0-.174.018-.312.053-.419a.517.517 0 0 1 .16-.243.402.402 0 0 1 .264-.086.394.394 0 0 1 .354.184.712.712 0 0 1 .09.218m-.151.345c0-.24-.029-.402-.085-.48-.057-.08-.127-.12-.21-.12a.23.23 0 0 0-.198.106c-.062.089-.093.254-.093.494 0 .241.028.4.084.48.057.08.126.12.209.12.082 0 .151-.041.208-.12.057-.08.085-.24.085-.48m1.29-.345c.022.084.033.2.033.345 0 .172-.018.31-.053.417a.52.52 0 0 1-.158.244.405.405 0 0 1-.266.087.402.402 0 0 1-.333-.152c-.097-.122-.145-.32-.145-.595 0-.174.018-.312.053-.419a.517.517 0 0 1 .159-.243.403.403 0 0 1 .265-.086c.079 0 .148.016.207.047a.4.4 0 0 1 .147.137.756.756 0 0 1 .091.218m-.152.345c0-.24-.029-.402-.085-.48-.056-.08-.126-.12-.21-.12a.23.23 0 0 0-.198.106c-.062.089-.093.254-.093.494 0 .241.028.4.084.48.057.08.126.12.209.12.082 0 .152-.041.208-.12.056-.08.085-.24.085-.48m.93-.748h.115v1.47h-.18v-1.146a1.21 1.21 0 0 1-.36.217v-.173c.1-.048.19-.106.264-.172a.684.684 0 0 0 .16-.196zm.985 0h.116v1.47h-.18v-1.146a1.208 1.208 0 0 1-.36.217v-.173c.101-.048.189-.106.265-.172a.69.69 0 0 0 .16-.196zm1.498.403c.022.085.033.2.033.345 0 .172-.018.31-.054.417a.518.518 0 0 1-.159.244.402.402 0 0 1-.265.087.402.402 0 0 1-.333-.152c-.096-.122-.145-.32-.145-.595 0-.174.018-.312.053-.419a.515.515 0 0 1 .16-.243.402.402 0 0 1 .265-.086.398.398 0 0 1 .354.184c.038.059.07.131.09.218zm-.15.345c0-.24-.03-.402-.085-.48-.057-.08-.126-.12-.21-.12a.23.23 0 0 0-.198.106c-.063.089-.094.254-.094.494 0 .242.029.4.085.48.056.08.126.12.208.12.082 0 .151-.041.208-.12.057-.08.085-.24.085-.48zm-3.457 3.85a6.721 6.721 0 0 1-6.714-6.714A6.722 6.722 0 0 1 9.86 3a6.72 6.72 0 0 1 6.713 6.713 6.721 6.721 0 0 1-6.713 6.714zM5.027 8.34c.051.059.11.095.182.095.082 0 .15-.04.208-.12.057-.08.085-.24.085-.48 0-.237-.028-.395-.083-.476a4.992 4.992 0 0 0-.392.98zm9.217 3.657h-.002zm0 0h.086a4.963 4.963 0 0 0 .495-1.552c-.004-.05-.008-.1-.008-.155 0-.173.02-.312.054-.418l.006-.011c.002-.05.008-.098.008-.148 0-.8-.193-1.555-.528-2.228v.904h-.18V7.243a1.19 1.19 0 0 1-.359.217v-.174c.1-.048.19-.105.264-.172.018-.015.03-.03.044-.045a5.024 5.024 0 0 0-4.268-2.383A5.027 5.027 0 0 0 5.5 7.215c.02.02.044.031.06.055a.77.77 0 0 1 .09.219c.023.085.033.2.033.345 0 .172-.017.311-.052.417a.518.518 0 0 1-.16.244.401.401 0 0 1-.265.087.417.417 0 0 1-.226-.068 5.007 5.007 0 0 0-.145 1.079.456.456 0 0 1 .106-.133.405.405 0 0 1 .265-.086.393.393 0 0 1 .354.184c.038.06.069.132.09.218.023.085.034.2.034.346 0 .171-.018.31-.053.416a.518.518 0 0 1-.16.244.401.401 0 0 1-.265.087.405.405 0 0 1-.263-.096c.097.448.254.873.462 1.268l.008.004a.393.393 0 0 1 .148.136.76.76 0 0 1 .09.219c.006.023.01.055.014.083a5.026 5.026 0 0 0 4.192 2.258c1.8 0 3.378-.953 4.266-2.38-.035.029-.067.057-.115.085-.07.04-.133.072-.189.093v-.174c.1-.048.188-.105.264-.172a.674.674 0 0 0 .16-.196zM5 10.601c.057.08.126.12.209.12.082 0 .151-.04.208-.12.057-.08.085-.24.085-.48 0-.241-.029-.401-.085-.48-.057-.079-.126-.119-.21-.119a.23.23 0 0 0-.199.105c-.061.09-.092.254-.092.494 0 .241.028.401.084.48m9.213 5.242 1.484-1.484 5.157 5.157L19.37 21z"/></svg>