<svg xmlns="http://www.w3.org/2000/svg" viewBox="0 0 24 24"><path d="M7.033 19.901c-.237-.162-.087-.76.296-1.178l.262-.288.39.384c.214.21.39.416.39.455 0 .1-.468.473-.73.582-.23.096-.504.116-.608.045m1.528-1.69-.429-.432.096-.323c.216-.727.999-2.039 1.87-3.135.223-.279 2.078-2.246 4.122-4.371l3.717-3.863.387.363c1.026.964 2.017 1.971 1.995 2.027-.043.106-7.151 7.453-7.623 7.88-.543.49-1.602 1.292-2.163 1.637-.484.298-1.25.647-1.423.648-.071 0-.296-.176-.55-.43zm-2.045-4.789c-.018-.137-.129-.443-.246-.68-.283-.574-.73-.987-1.237-1.144-.35-.109-.359-.116-.189-.158.807-.2 1.497-.978 1.694-1.91l.071-.339.077.37c.16.773.762 1.547 1.372 1.765l.372.132c.056.02.02.047-.096.073-.75.17-1.415.887-1.635 1.763-.097.389-.143.421-.183.128m2.747-3.816c-.011-.482-.602-1.273-1.018-1.364-.225-.05-.217-.127.018-.18.277-.06.775-.583.897-.941a2 2 0 0 0 .103-.414c.002-.068.059.037.125.232.195.577.544.977.986 1.13l.215.073-.224.093c-.516.216-.82.576-.992 1.18-.079.276-.106.324-.11.191m-4.906-.341C4.15 8.18 3.167 7.067 2.23 6.86L2 6.81l.266-.075C3.25 6.46 4.118 5.5 4.346 4.437c.096-.45.147-.496.192-.17.054.395.294.94.606 1.377.396.555.881.892 1.626 1.13.05.015-.06.075-.242.132-.92.288-1.655 1.126-1.954 2.226-.07.26-.133.48-.138.486a3 3 0 0 1-.08-.353zM20.94 7.38c-.216-.089-1.882-1.696-1.964-1.894-.24-.579.459-1.282 1.034-1.041.118.049.6.472 1.1.964.874.862.89.882.889 1.132 0 .308-.12.555-.342.714-.205.145-.531.203-.717.125"/></svg>