<svg xmlns="http://www.w3.org/2000/svg" viewBox="0 0 24 24"><path d="M9.035 5.5C7.9 5.492 6.619 5.83 5.21 6.743c0 0 .422 1.04-.46 2.134l.023.011c.856-.46 4.933-3.928 9.354.22 0 0 6.979-.592 5.128 5.303 0 0 2.468.86 2.17 4.088 0 0 .028.002.03 0 .103-.206 1.548-3.022-.736-4.324 0 0 .923-2.077-.8-4-.878-.98-2.485-1.915-5.428-1.522 0 0-2.053-3.128-5.456-3.153M2 5.62v.028c.388.198 2.745 1.57.102 3.207l1.637 6.453s2.296-1.705 4.202-.925c1.216.498 1.53 1.873 1.297 4.012 0 0 .035.002.036 0 .175-.375 2.428-4.208-1.004-5.369-.648-.22-1.56-.288-3.198.263L3.554 9.3S5.964 6.307 2 5.62m14.344 8.052a3.16 3.16 0 0 0-2.062.92c-2.031-1.818-3.825.175-3.825.175 1.32 1.212.68 3.732.68 3.732s.03.002.03 0c1.097-1.64.964-3.256.964-3.256 1.096-.307 1.745.793 1.745.793 1.37-1.378 2.743-1.467 3.49-1.04 1.855 1.06 1.22 3.4 1.22 3.4h.035c1.553-2.758.145-4.06-.825-4.456a3.4 3.4 0 0 0-1.452-.268"/></svg>