<svg xmlns="http://www.w3.org/2000/svg" width="192" height="192" viewBox="0 0 192 192"><path d="M72.28 44.001c-9.08-.064-19.328 2.64-30.6 9.944 0 0 3.376 8.32-3.68 17.072l.184.088c6.848-3.68 39.464-31.424 74.831 1.76 0 0 55.832-4.736 41.024 42.424 0 0 19.744 6.88 17.36 32.704 0 0 .224.016.24 0 .824-1.648 12.384-24.176-5.888-34.592 0 0 7.384-16.616-6.4-32-7.024-7.84-19.88-15.32-43.424-12.176 0 0-16.424-25.024-43.648-25.224m-56.28.96v.224c3.104 1.584 21.96 12.56.816 25.656l13.096 51.624s18.368-13.64 33.616-7.4c9.728 3.984 12.24 14.984 10.376 32.096 0 0 .28.016.288 0 1.4-3 19.424-33.664-8.032-42.952-5.184-1.76-12.48-2.304-25.584 2.104L28.431 74.401S47.711 50.457 16 44.961m114.75 64.415a25.28 25.28 0 0 0-16.496 7.36c-16.248-14.544-30.6 1.4-30.6 1.4 10.56 9.696 5.44 29.856 5.44 29.856s.24.016.24 0c8.776-13.12 7.712-26.048 7.712-26.048 8.768-2.456 13.96 6.344 13.96 6.344 10.96-11.024 21.944-11.736 27.92-8.32 14.84 8.48 9.76 27.2 9.76 27.2h.28c12.424-22.064 1.16-32.48-6.6-35.648a27.2 27.2 0 0 0-11.616-2.144"/></svg>