<svg xmlns="http://www.w3.org/2000/svg" viewBox="0 0 24 24"><path d="m4.381 15.041 4.629 2.516 2.84 1.087c.73-.703.731-1.534.5-2.493-.084-.345-.261-.753-.432-1.11-.086.486-.122.912-.467 1.21-.435.377-1.02.554-1.642.554-1.098 0-2.214-.813-2.869-2.03-.542-1.01-.788-2.323-.475-3.79a6.434 6.434 0 0 0-.38.299c-.646.549-1.332 1.356-1.598 2.437-.027.369-.064.82-.106 1.32a5.962 5.962 0 0 0 .356 1.718c.644 1.413 1.946 2.348 3.346 2.692 1.41.345 2.847.08 3.767-.807l-2.84-1.087-4.63-2.516m7.646-12.247c0-.28.057-.543.143-.794-1.244.734-3.83 2.6-3.83 5.444 0 2.648 1.17 3.893 2.184 4.97l.83.945c1.645 2.003 2.707 4.443.997 6.091-2.056 1.98-6.228 1.104-7.689-1.893C5.723 20.235 8.571 22 11.918 22c4.253 0 7.702-3.206 7.702-7.16 0-4.358-2.98-6.864-5.158-8.696-.842-.709-1.564-1.317-1.95-1.893a2.448 2.448 0 0 1-.486-1.457"/></svg>