<svg xmlns="http://www.w3.org/2000/svg" width="192" height="192" viewBox="0 0 192 192"><path d="M165.32 63.264h-15.404V16.451L99.853 58.812V17.051H92.15v41.311L45.937 16v47.264H26.683v69.317h19.255V176l46.213-42.394v41.337h7.703V134.63l46.212 41.205v-43.253h19.255V63.264zm-23.105-30.207v30.207h-35.7zm-88.575.45 32.461 29.757H53.64zM34.385 124.88V70.967h52.317l-40.766 40.765v13.149zm19.255 33.603v-43.561l38.51-38.508v46.74zm84.724.165-38.511-34.339V76.412l38.511 38.511zm19.255-33.768h-11.553v-13.149l-40.765-40.765h52.319z"/></svg>