<svg xmlns="http://www.w3.org/2000/svg" width="24" height="24" fill="none" viewBox="0 0 24 24"><path fill="#000" fill-rule="evenodd" d="M14.779 7.2V4.77a2.771 2.771 0 0 0-5.543 0V7.2L7.132 5.986a2.758 2.758 0 0 0-1.39-.372 2.77 2.77 0 0 0-1.395 5.171L6.451 12l-2.104 1.215a2.771 2.771 0 0 0 2.771 4.8l2.118-1.224v2.438a2.771 2.771 0 1 0 5.543 0v-2.43l2.103 1.215a2.771 2.771 0 0 0 2.771-4.8L17.549 12l2.103-1.215a2.771 2.771 0 1 0-2.771-4.8zm-3.543 8.437v3.592a.771.771 0 1 0 1.543 0v-4.483zm1.542-6.383V4.77a.771.771 0 0 0-1.542 0v3.592zm2.77 1.591-1.541-.89 3.874-2.237a.771.771 0 1 1 .771 1.335zm-1.541 3.2 1.542-.89 3.104 1.792a.771.771 0 1 1-.771 1.335zM10.45 12 5.347 9.053a.771.771 0 1 1 .771-1.335L13.535 12l-7.417 4.282a.771.771 0 0 1-.771-1.335z" clip-rule="evenodd"/><path d="m4.675 7.512 2.593-.588 8.16 4.974-9.043 5.488-1.93-.695-.552-1.86 4.415-2.95-3.263-1.735-.95-1.338Z" style="fill:#000;stroke:none;stroke-width:1px;stroke-linecap:butt;stroke-linejoin:miter;stroke-opacity:1;fill-opacity:1"/></svg>