<svg xmlns="http://www.w3.org/2000/svg" width="24" height="24" fill="none" viewBox="0 0 24 24"><path fill="#000" fill-rule="evenodd" d="M13.22 22.198a1.179 1.179 0 0 1-1.056-.76c-.207-.49-.127-.966.263-1.353l1.79-1.744c.2-.183.223-.293.017-.49l-2.757-2.684c-.207-.207-.32-.166-.503.017l-1.786 1.744c-.764.696-1.94.333-2.147-.657a1.098 1.098 0 0 1 .31-1.053l2.98-2.907a1.196 1.196 0 0 1 1.694.007l5.143 5.013c.476.466.476 1.163.006 1.64l-2.98 2.906c-.233.227-.537.33-.973.32v.001m7.376-13.502c-.016 1.284-.35 2.48-1.073 3.54-.2.294-.15.437.087.64.35.3.666.64.993.967.51.524.527 1.237.057 1.744-.463.483-1.256.553-1.756.093l-2.3-2.243c-.484-.496-.42-1.203.12-1.733a4.264 4.264 0 0 0 1.287-2.52c.31-2.223-1.407-4.403-3.664-4.646-1.463-.157-2.71.26-3.76 1.3L4.284 11.98c-.317.316-.683.506-1.137.453-.51-.063-.89-.324-1.067-.823-.176-.5-.057-.944.317-1.307l3.21-3.127 3.44-3.34c3.782-3.53 10.07-1.72 11.35 3.264.13.522.197 1.058.2 1.596" clip-rule="evenodd"/></svg>