<svg xmlns="http://www.w3.org/2000/svg" viewBox="0 0 24 24"><path d="M19.5 8.707c0-.567-.53-1.054-1.147-1.054h-2.118l-4.853-5.106c-.44-.486-1.147-.648-1.853-.486l-1.676.486c-.265.08-.353.405-.177.567l5.295 4.62H4.94c-.265 0-.441.163-.441.406v.81c0 .568.53 1.054 1.147 1.054h1.235v3.89c0 2.919 1.677 4.62 4.5 4.62.883 0 1.589-.08 2.47-.405v2.594c0 .73.619 1.297 1.413 1.297H16.5c.265 0 .53-.243.53-.486V9.923h2.029c.264 0 .441-.162.441-.405v-.81m-5.647 6.97c-.53.244-1.235.325-1.765.325-1.411 0-2.117-.648-2.117-2.107v-3.89h3.882v5.673"/></svg>