<svg xmlns="http://www.w3.org/2000/svg" width="192" height="192" viewBox="0 0 192 192"><path d="M156.01 69.659c0-4.54-4.24-8.44-9.18-8.44h-16.94L91.069 20.368c-3.52-3.88-9.18-5.18-14.83-3.88l-13.4 3.88c-2.13.64-2.83 3.24-1.42 4.54l42.36 36.961H39.53c-2.12 0-3.53 1.3-3.53 3.25v6.48c0 4.54 4.24 8.43 9.18 8.43h9.88v31.12c0 23.35 13.41 36.961 36 36.961 7.06 0 12.71-.64 19.76-3.24v20.75c0 5.84 4.95 10.38 11.3 10.38h9.89c2.12 0 4.24-1.95 4.24-3.89V79.38h16.23c2.11 0 3.53-1.3 3.53-3.24zm-45.181 55.761c-4.24 1.95-9.88 2.6-14.12 2.6-11.29 0-16.93-5.19-16.93-16.86V80.04h31.05z"/></svg>