<svg xmlns="http://www.w3.org/2000/svg" viewBox="0 0 24 24"><path d="M8.299 15.259c0 .048.024.072.072.072h.966c.048 0 .073-.024.073-.072v-2.585c.168 0 .253.012.507.012 1.473 0 2.682-.712 2.682-2.355 0-1.268-.786-2.246-2.585-2.246-.64 0-1.244.012-1.654.037-.048 0-.06.036-.06.072zm1.123-6.134c.12-.012.362-.024.627-.024.87 0 1.401.423 1.401 1.244 0 1.026-.724 1.291-1.497 1.291-.253 0-.374 0-.531-.012v-2.5zm6.98 2.016c.06.024.096-.012.096-.06v-.894a.157.157 0 0 0-.06-.133c-.218-.097-.64-.181-1.195-.181-1.136 0-1.788.7-1.788 1.534 0 .748.387 1.195 1.304 1.642.652.338.81.544.81.786 0 .29-.219.507-.725.507a2.61 2.61 0 0 1-1.365-.386c-.048-.037-.073-.012-.073.048v.954c0 .048.013.084.048.109.278.156.821.277 1.389.277 1.075 0 1.872-.555 1.872-1.594 0-.7-.327-1.171-1.341-1.666-.689-.35-.809-.519-.809-.749 0-.217.169-.47.689-.47.399-.002.858.107 1.147.276zm-4.396 9.854c-.423 0-.833-.156-1.16-.47L3.48 13.157a1.626 1.626 0 0 1 0-2.307l7.366-7.367c.64-.64 1.679-.64 2.307 0l7.367 7.367c.64.64.64 1.679 0 2.307l-7.367 7.367a1.61 1.61 0 0 1-1.147.47zm0-17.63a1.27 1.27 0 0 0-.906.374l-7.367 7.367a1.275 1.275 0 0 0 0 1.8l7.367 7.366a1.275 1.275 0 0 0 1.8 0l7.367-7.367a1.275 1.275 0 0 0 0-1.8L12.9 3.74a1.222 1.222 0 0 0-.894-.375z"/></svg>