<svg xmlns="http://www.w3.org/2000/svg" viewBox="0 0 24 24"><path d="M6.772 11.151c0-.924.253-1.785.684-2.532A5.04 5.04 0 0 0 4.924 13a5.06 5.06 0 0 0 5.063 5.063 5.06 5.06 0 0 0 4.38-2.531 5.05 5.05 0 0 1-2.531.683 5.06 5.06 0 0 1-5.064-5.063z" opacity=".2"/><path d="M13.696 14.354a5.06 5.06 0 0 1-5.063-5.063c0-.924.253-1.785.683-2.532a5.05 5.05 0 0 0-1.86 1.86 5.05 5.05 0 0 0-.684 2.532 5.06 5.06 0 0 0 5.063 5.064 5.05 5.05 0 0 0 2.532-.684 5.05 5.05 0 0 0 1.86-1.86 4.9 4.9 0 0 1-2.531.683" opacity=".4"/><path d="M15.556 12.494a5.06 5.06 0 0 1-5.063-5.063c0-.924.253-1.785.683-2.532a5.05 5.05 0 0 0-1.86 1.86 5.05 5.05 0 0 0-.684 2.532 5.06 5.06 0 0 0 5.063 5.064 5.05 5.05 0 0 0 2.532-.684 5.05 5.05 0 0 0 1.86-1.86 4.96 4.96 0 0 1-2.531.683" opacity=".6"/><path d="M11.937 3.899a5 5 0 0 0-.76 1.012 5.05 5.05 0 0 0-.683 2.532 5.06 5.06 0 0 0 5.063 5.063 5.05 5.05 0 0 0 2.532-.683 5.4 5.4 0 0 0 1.013-.76V3.9z" opacity=".8"/><path d="M15.556 9.86a2.431 2.431 0 1 1 2.43-2.43 2.44 2.44 0 0 1-2.43 2.43m0-3.847c-.785 0-1.418.633-1.418 1.417 0 .785.633 1.418 1.418 1.418s1.418-.633 1.418-1.418-.646-1.417-1.418-1.417M4.405 2c-.835 0-1.519.684-1.519 1.519v16.962c0 .835.684 1.519 1.519 1.519h15.19c.835 0 1.519-.684 1.519-1.519V3.519c0-.835-.684-1.519-1.519-1.519zm.506 1.899h14.177v14.304H4.911v-.127z"/></svg>