<svg xmlns="http://www.w3.org/2000/svg" viewBox="0 0 24 24"><path d="M11.957 2a5.965 5.965 0 0 0-5.965 5.965V9.16a1.415 1.415 0 0 0-1.156 1.357 2 2 0 0 0-.276 1.017v7.648a2.01 2.01 0 0 0 1.488 1.94A1.47 1.47 0 0 0 7.394 22h1.671a1.47 1.47 0 0 0 1.315-.807h3.066a1.47 1.47 0 0 0 1.315.807h1.673a1.48 1.48 0 0 0 1.326-.833 2.006 2.006 0 0 0 1.68-1.984v-7.65a2 2 0 0 0-.262-.996v-.007a1.41 1.41 0 0 0-1.026-1.35V7.964A5.965 5.965 0 0 0 12.187 2zm.025 2.132h.18a3.735 3.735 0 0 1 3.735 3.735V9.12h-.84a1.4 1.4 0 0 0-.979.4H9.94a1.4 1.4 0 0 0-.987-.4h-.706V7.867a3.735 3.735 0 0 1 3.735-3.735m1.688 1.995a.677.677 0 1 0 .677.676.677.677 0 0 0-.677-.676m-3.19.017a.677.677 0 1 0-.15 1.336.676.676 0 0 0 .677-.677.68.68 0 0 0-.527-.66zm2.606 1.732a.18.18 0 0 0-.145.045 1.405 1.405 0 0 1-1.881 0 .176.176 0 0 0-.239.259 1.72 1.72 0 0 0 2.359 0 .176.176 0 0 0-.094-.304m-1.089 4.165h.001a1.645 1.645 0 0 1 .924 3.007.26.26 0 0 0-.108.249l.405 2.745a.26.26 0 0 1-.061.208.26.26 0 0 1-.193.088h-1.931a.26.26 0 0 1-.193-.088.26.26 0 0 1-.062-.208l.405-2.745a.25.25 0 0 0-.108-.247 1.647 1.647 0 0 1 .734-2.999 2 2 0 0 1 .187-.01"/></svg>