<svg xmlns="http://www.w3.org/2000/svg" width="192" height="192" viewBox="0 0 192 192"><path d="M59.552 144.59c-2.032 8.72-1.232 21.008-.352 29l6.904 2.408c4.112-6.704 10.272-17.704 12.552-26.472 1.224-4.72 6.288-24 6.288-24 3.296 6.28 12.912 11.6 23.144 11.6 30.456 0 52.4-28.016 52.4-62.808 0-33.36-27.224-58.32-62.256-58.32-43.568 0-66.72 29.248-66.72 61.104 0 14.8 7.888 33.248 20.504 39.12 1.912.88 2.936.496 3.376-1.36.336-1.4 2.04-8.256 2.8-11.44a3.04 3.04 0 0 0-.696-2.904c-4.176-5.056-7.52-14.36-7.52-23.04 0-22.272 16.864-43.816 45.6-43.816 24.8 0 42.176 16.896 42.176 41.072 0 27.32-13.8 46.24-31.744 46.24-9.912 0-17.328-8.192-14.952-18.24 2.848-12.008 8.36-24.96 8.36-33.624 0-7.76-4.16-14.224-12.776-14.224-10.128 0-18.264 10.48-18.264 24.52 0 8.944 3.016 14.992 3.016 14.992s-10 42.312-11.84 50.192"/></svg>