<svg xmlns="http://www.w3.org/2000/svg" viewBox="0 0 24 24"><path d="M7.444 18.074c-.254 1.09-.154 2.626-.044 3.625l.863.301c.514-.838 1.284-2.213 1.569-3.309.153-.59.786-3 .786-3 .412.785 1.614 1.45 2.893 1.45 3.807 0 6.55-3.502 6.55-7.851 0-4.17-3.403-7.29-7.782-7.29-5.446 0-8.34 3.656-8.34 7.638 0 1.85.986 4.156 2.563 4.89.239.11.367.062.422-.17.042-.175.255-1.032.35-1.43a.377.377 0 0 0-.087-.363c-.522-.632-.94-1.795-.94-2.88 0-2.784 2.108-5.477 5.7-5.477 3.1 0 5.272 2.112 5.272 5.134 0 3.415-1.725 5.78-3.968 5.78-1.239 0-2.166-1.024-1.869-2.28.356-1.501 1.045-3.12 1.045-4.203 0-.97-.52-1.778-1.597-1.778-1.266 0-2.283 1.31-2.283 3.065 0 1.118.377 1.874.377 1.874s-1.25 5.289-1.48 6.274z"/></svg>