<svg xmlns="http://www.w3.org/2000/svg" viewBox="0 0 24 24"><path d="M13.885 3.002c-.376-.018-.717.07-1.007.157-.387.115-.706.222-.989.226-.283.004-.605-.096-.994-.2-.39-.105-.87-.212-1.397-.064-.527.149-.88.49-1.158.783-.278.293-.5.546-.744.69-.243.145-.571.22-.961.324-.39.104-.859.251-1.241.644-.383.392-.518.864-.612 1.257-.094.392-.16.722-.298.97-.139.246-.386.475-.671.76-.286.285-.618.647-.753 1.178-.135.531-.016 1.008.099 1.395.114.387.222.706.226.989.003.283-.096.604-.201.994-.105.39-.212.87-.063 1.397s.49.88.783 1.158c.293.278.546.5.69.743s.22.572.324.962c.104.39.251.858.643 1.24.393.383.865.518 1.257.612.393.095.723.16.97.299.247.138.476.385.761.671.285.286.647.618 1.178.753.53.135 1.007.016 1.394-.099s.706-.222.99-.226c.282-.004.604.096.994.2.39.105.87.212 1.396.064.528-.149.88-.49 1.158-.783.278-.293.5-.546.744-.69.243-.145.572-.22.962-.324.39-.104.858-.251 1.24-.644.383-.392.518-.864.612-1.257.094-.392.16-.723.299-.97.138-.246.385-.475.67-.76.286-.285.619-.647.754-1.178.135-.531.016-1.008-.1-1.395-.114-.387-.222-.706-.225-.989-.004-.283.095-.604.2-.994.105-.39.212-.87.063-1.397-.148-.527-.49-.88-.783-1.158-.292-.278-.545-.5-.69-.743-.145-.243-.22-.572-.323-.962-.105-.39-.252-.858-.644-1.24s-.865-.518-1.257-.612c-.393-.095-.723-.16-.97-.3-.247-.137-.476-.384-.76-.67-.286-.286-.648-.618-1.179-.753a1.946 1.946 0 0 0-.387-.058zm-.056 1.055a.888.888 0 0 1 .183.027c.24.06.437.22.69.475.255.255.546.596.993.846s.89.321 1.24.405c.35.084.589.168.766.34s.267.41.36.758c.093.347.174.788.436 1.229.262.44.61.722.872.97.26.247.426.44.493.678.067.238.027.488-.067.836-.093.347-.243.77-.237 1.282.007.512.168.931.27 1.276.102.345.149.594.088.834s-.22.436-.475.69-.596.545-.847.992-.32.89-.404 1.24c-.084.35-.168.589-.34.766-.174.177-.41.268-.758.36-.347.093-.788.175-1.229.437-.44.261-.722.61-.97.871-.247.261-.44.426-.678.493-.238.067-.489.027-.836-.066s-.77-.244-1.282-.237c-.513.007-.931.167-1.276.27-.345.102-.594.148-.834.087-.24-.06-.436-.22-.69-.475s-.546-.596-.993-.846-.89-.32-1.24-.405c-.35-.083-.588-.168-.765-.34-.178-.173-.268-.41-.36-.757-.094-.348-.175-.79-.437-1.23s-.61-.722-.871-.97-.426-.44-.493-.678c-.067-.238-.027-.488.066-.835s.243-.77.237-1.283c-.007-.512-.168-.931-.27-1.276-.102-.345-.149-.594-.088-.834s.221-.436.476-.69c.254-.254.596-.545.846-.992.25-.447.32-.89.404-1.24.084-.35.169-.589.341-.766.173-.177.41-.268.757-.36.348-.093.789-.175 1.23-.437.44-.261.722-.61.97-.871.247-.261.44-.426.677-.493.239-.067.489-.027.836.066.347.094.77.244 1.283.237.512-.006.93-.167 1.275-.27.26-.076.464-.122.651-.114zm.834 3.333c-1.145 0-2.084.94-2.084 2.084 0 1.145.94 2.085 2.084 2.085 1.145 0 2.085-.94 2.085-2.085s-.94-2.084-2.085-2.084zm0 1.056a1.02 1.02 0 0 1 1.028 1.028c0 .574-.454 1.028-1.028 1.028s-1.028-.454-1.028-1.028a1.02 1.02 0 0 1 1.028-1.028m-6.56-1.049a.715.715 0 0 0-.705.704v2.746c0 .38.323.704.704.704h2.746a.715.715 0 0 0 .704-.704V8.1a.715.715 0 0 0-.704-.704zm.351 1.056h2.042v2.042H8.454zm1.278 4.49a.229.229 0 0 0-.093.03c-.048.028-.238.303-.421.609l-.334.556-.357-.587c-.3-.495-.38-.591-.508-.606-.198-.023-.53.224-.53.393 0 .066.222.45.494.85l.496.73v.49c0 .372.02.511.086.577.052.052.182.086.327.086.343 0 .412-.118.412-.714v-.47l.46-.688c.253-.379.477-.743.498-.81.064-.202-.293-.471-.53-.446zm2.253.013a1.47 1.47 0 0 0-.997.37c-.395.348-.544.705-.537 1.292.007.589.42 1.18.974 1.397.957.374 1.962-.293 2.047-1.358.035-.43-.05-.74-.292-1.074a1.501 1.501 0 0 0-1.195-.627zm-.016.81c.357.005.691.312.69.765 0 .312-.088.485-.324.645-.727.49-1.478-.602-.837-1.216a.66.66 0 0 1 .47-.194zm2.205-.776c-.413 0-.436.036-.404 1.15.026.935.066.977.164 1.216.162.394.469.596.755.687.503.162 1.094.007 1.411-.368.32-.38.378-.6.401-1.544.026-1.04-.009-1.141-.39-1.14-.396.001-.394 0-.425 1.004-.023.741-.045.925-.127 1.05-.14.213-.326.286-.576.224-.335-.083-.397-.277-.397-1.235 0-.957-.035-1.044-.412-1.044z"/></svg>