<svg xmlns="http://www.w3.org/2000/svg" viewBox="0 0 24 24"><path d="M10.403 14.601v.986h-.986v1.039h1.433a.6.6 0 0 0 .592-.592v-1.433zm3.483-11.599c-.377-.018-.717.07-1.007.157-.387.114-.706.222-.99.226-.282.004-.604-.096-.994-.201s-.87-.212-1.396-.063c-.528.148-.88.49-1.159.783-.277.293-.5.546-.743.69-.243.145-.572.22-.962.324s-.858.251-1.24.643c-.383.393-.518.865-.612 1.258-.094.392-.16.722-.299.969s-.385.476-.67.761-.619.647-.754 1.178-.016 1.007.1 1.394c.114.387.222.706.225.99.004.282-.096.604-.2.994s-.212.869-.063 1.396c.148.528.49.88.782 1.158s.546.5.69.744c.145.243.22.572.324.962s.252.858.644 1.24c.392.383.864.518 1.257.612s.723.16.97.299c.246.138.476.385.76.67.286.286.648.619 1.178.754.531.135 1.008.016 1.395-.1.387-.114.706-.222.989-.225s.605.096.994.2c.39.105.87.212 1.397.064.527-.149.88-.49 1.158-.783s.5-.546.744-.69c.243-.145.571-.22.961-.324s.859-.252 1.241-.644.518-.865.612-1.257c.094-.393.16-.723.298-.97.139-.246.386-.475.671-.76s.618-.648.753-1.178c.135-.531.016-1.008-.099-1.395-.114-.387-.222-.706-.226-.989s.096-.605.2-.994c.106-.39.213-.87.064-1.397s-.49-.88-.783-1.158-.546-.5-.69-.744c-.145-.243-.22-.571-.324-.961s-.251-.859-.643-1.241-.865-.518-1.258-.612c-.392-.094-.722-.16-.97-.298-.246-.139-.475-.386-.76-.671s-.647-.618-1.178-.753a2 2 0 0 0-.387-.058m-.056 1.055a1 1 0 0 1 .183.026c.24.061.436.221.69.476.255.254.546.596.993.846s.89.32 1.24.404.588.169.765.341.268.41.36.757c.094.348.175.789.437 1.23s.61.722.871.97c.261.247.426.44.493.677.067.239.027.489-.066.836s-.244.77-.237 1.283.168.93.27 1.275.149.594.088.834-.221.437-.476.691-.596.545-.846.992-.32.89-.404 1.24-.169.589-.341.766-.41.267-.757.36-.789.174-1.23.436-.722.61-.97.872c-.247.26-.44.426-.677.493-.239.067-.489.027-.836-.067s-.77-.243-1.283-.236-.93.167-1.276.27c-.344.102-.593.148-.833.087-.24-.06-.437-.22-.69-.475-.255-.255-.546-.596-.993-.847-.447-.25-.89-.32-1.24-.404s-.589-.168-.766-.34c-.177-.174-.267-.41-.36-.758-.093-.347-.174-.788-.436-1.229-.262-.44-.61-.722-.872-.97-.26-.247-.426-.44-.493-.678s-.027-.488.067-.836.243-.77.237-1.282-.168-.931-.27-1.276-.149-.594-.088-.834.22-.436.475-.69.596-.546.847-.993c.25-.447.32-.89.404-1.24s.168-.588.34-.765c.174-.178.41-.268.758-.36.347-.094.788-.175 1.229-.437.44-.262.722-.61.97-.871s.44-.426.678-.493.488-.027.836.066.77.244 1.282.237c.513-.007.931-.168 1.276-.27.259-.077.463-.122.65-.114zm.834 3.332c-1.145 0-2.085.94-2.085 2.085s.94 2.084 2.085 2.084 2.084-.94 2.084-2.084a2.093 2.093 0 0 0-2.084-2.085m-6.561.008a.715.715 0 0 0-.705.704v2.746c0 .381.324.704.705.704h2.745a.715.715 0 0 0 .705-.704V8.101a.715.715 0 0 0-.705-.704zm6.561 1.05a1.02 1.02 0 0 1 1.028 1.027c0 .574-.454 1.028-1.028 1.028s-1.028-.454-1.028-1.028a1.02 1.02 0 0 1 1.028-1.028m-6.21.006h2.042v2.042H8.455zm.976 4.135q-.056 0-.11.003a2.02 2.02 0 0 0-1.763 2.789 2.02 2.02 0 0 0 1.865 1.246v-1.038a.98.98 0 0 1-.906-.606.98.98 0 0 1 .213-1.069.98.98 0 0 1 1.069-.212.98.98 0 0 1 .605.906h1.038a2.02 2.02 0 0 0-2.01-2.019zm4.542.053a1.22 1.22 0 0 0-1.212 1.212v1.385c0 .662.55 1.211 1.212 1.211h1.384a1.22 1.22 0 0 0 1.212-1.211v-1.385a1.22 1.22 0 0 0-1.212-1.212zm0 1.039h1.384c.105 0 .173.068.173.173v1.385c0 .104-.068.173-.173.173h-1.384c-.105 0-.173-.069-.173-.173v-1.385c0-.105.068-.173.173-.173"/></svg>