<svg xmlns="http://www.w3.org/2000/svg" width="192" height="192" viewBox="0 0 192 192"><path d="M76.448 145.37a13.68 13.68 0 0 1-8.96-8.176c-1.848-5.008-.912-22.784-1.048-32.88-.286-35.377 1.945-36.569 2.576-38.912 1.944-4.28 4.24-7.512 7.472-10.528 6.816-6.376 15.272-9.288 24.32-8.376 10.832 1.088 20.456 8.432 25.424 19.392 3.224 7.12 3.232 18.112.016 25.76-2.128 5.072-6.864 11.176-10.744 13.84-5.408 3.728-13 6.192-19.056 6.192-4.792 0-4.584-.488-4.424 10.664.152 10.24-.072 12.08-1.896 15.808-2.672 5.44-8.528 8.536-13.68 7.216m23.168-59.08a8.64 8.64 0 0 0 4.352-3.76c.32-.624.592-2.136.592-3.368a6.96 6.96 0 0 0-7.04-7.048c-5.008-.04-8.272 3.96-7.328 9 .36 1.92 2.072 3.92 4.168 4.864 1.952.888 3.288.968 5.256.312M176 94.858c0 10.093-8.18 18.276-18.272 18.28-10.096 0-18.28-8.184-18.28-18.28.004-10.09 8.182-18.268 18.272-18.272 10.093 0 18.276 8.18 18.28 18.272m-123.45 0c0 10.093-8.18 18.276-18.272 18.28-10.096 0-18.28-8.184-18.28-18.28.004-10.093 8.187-18.272 18.28-18.272 10.09.004 18.268 8.183 18.272 18.272"/></svg>