<svg xmlns="http://www.w3.org/2000/svg" viewBox="0 0 24 24"><path d="M9.556 18.171a1.714 1.714 0 0 1-1.12-1.022c-.231-.626-.114-2.848-.131-4.11-.06-4.38-.026-4.1.322-4.864.243-.535.53-.939.934-1.316.852-.797 1.909-1.161 3.04-1.047 1.354.136 2.557 1.054 3.178 2.424.403.89.404 2.264.002 3.22-.266.634-.858 1.397-1.343 1.73-.676.466-1.625.774-2.382.774-.599 0-.573-.061-.553 1.333.019 1.28-.009 1.51-.237 1.976-.334.68-1.066 1.067-1.71.902zm2.896-7.385c.206-.069.44-.272.544-.47.04-.078.074-.267.074-.421a.87.87 0 0 0-.88-.881c-.626-.005-1.034.495-.916 1.125.045.24.259.49.521.608.244.111.411.121.657.039M22 11.857a2.285 2.285 0 0 1-2.284 2.285 2.285 2.285 0 0 1-2.285-2.285 2.285 2.285 0 0 1 2.284-2.284A2.285 2.285 0 0 1 22 11.857m-15.431 0a2.285 2.285 0 0 1-2.284 2.285A2.285 2.285 0 0 1 2 11.857a2.285 2.285 0 0 1 2.285-2.284 2.285 2.285 0 0 1 2.284 2.284"/></svg>