<svg xmlns="http://www.w3.org/2000/svg" width="192" height="192" viewBox="0 0 192 192"><path d="M114.58 36.236a12.816 12.608 0 0 0-1.6.16 12.816 12.608 0 0 0-10.576 12.496 12.816 12.608 0 1 0 25.632 0 12.816 12.608 0 0 0-13.456-12.656m.44 39.936c-21.92 0-43.632 26.592-65.12 79.6H176v-12.336c-20.504-44.784-40.832-67.264-60.984-67.264m-5.6 16 .52 1.248 1.28.448 1.176-.64 1.28 1.176-.504 1.248c.24.496.344.752.576 1.248l1.28.4c.056.864.048.872.096 1.744l-1.216.512-.456 1.304.632 1.184c-.576.648-.568.664-1.144 1.312l-1.232-.512-1.24.592-.376 1.296-1.712.096-.52-1.256-1.28-.448-1.168.64-1.28-1.176.496-1.248c-.24-.496-.344-.752-.576-1.248l-1.28-.392-.096-1.752 1.232-.512.44-1.296-.624-1.192 1.136-1.312 1.232.52 1.24-.6.376-1.296zm-.608 4.76a1.56 1.56 0 0 0-.424 3.032 1.52 1.52 0 0 0 1.96-.952 1.56 1.56 0 0 0-1.536-2.08m-7.92 3.584 2.376.856v1.968l1.488 1.36 1.936-.2c.544 1.152.536 1.152 1.072 2.312l-1.368 1.384.104 2.016 1.52 1.256-.848 2.416h-1.952l-1.328 1.504.2 1.968-2.264 1.096-1.376-1.392-1.984.096-1.232 1.544-2.376-.856v-1.984c-.592-.544-.896-.8-1.48-1.344l-1.944.2-1.072-2.32 1.376-1.4-.112-2.016-1.52-1.248.848-2.4h1.936l1.328-1.504-.184-1.968 2.264-1.12 1.376 1.416 1.984-.112zm-1.952 6.808a2.24 2.24 0 0 0-1.544.752 2.32 2.32 0 0 0 .168 3.216 2.24 2.24 0 0 0 3.176-.168 2.32 2.32 0 0 0-.176-3.224 2.24 2.24 0 0 0-1.624-.576"/><path d="M76.064 65.796c-20.192 0-40.208 21.784-60.064 65.152v24.832h131.94c-24.184-59.92-48.144-89.984-71.872-89.984m33.36 26.376.512 1.248 1.28.456 1.176-.64 1.28 1.168-.504 1.248.584 1.248 1.28.4.096 1.744-1.224.52-.448 1.296.624 1.184c-.576.648-.568.664-1.144 1.312l-1.232-.512-1.232.592-.376 1.296-1.72.096-.52-1.256-1.28-.448-1.168.64-1.28-1.176.496-1.248c-.24-.496-.344-.752-.576-1.248l-1.28-.392-.096-1.752 1.232-.512.44-1.296-.624-1.192c.576-.648.56-.656 1.136-1.312l1.24.52c.48-.24.744-.36 1.232-.592l.376-1.304zm-.608 4.76a1.56 1.56 0 0 0-.424 3.032 1.52 1.52 0 0 0 1.952-.952 1.56 1.56 0 0 0-1.528-2.08m-7.92 3.584 2.368.856v1.968l1.488 1.36 1.936-.2 1.08 2.312-1.376 1.392.104 2.016 1.52 1.248-.848 2.424h-1.952l-1.328 1.496.208 1.968-2.272 1.096-1.368-1.392-1.984.096-1.24 1.544-2.376-.856v-1.984c-.584-.544-.888-.8-1.48-1.344l-1.936.2-1.08-2.312 1.376-1.408-.112-2.016-1.52-1.248.848-2.4h1.936l1.328-1.504-.184-1.968 2.264-1.112 1.376 1.408 1.984-.112zm-1.96 6.808a2.24 2.24 0 0 0-1.544.752 2.32 2.32 0 0 0 .168 3.216 2.24 2.24 0 0 0 3.176-.168 2.32 2.32 0 0 0-.176-3.224 2.24 2.24 0 0 0-1.624-.576" opacity=".7"/></svg>