<svg xmlns="http://www.w3.org/2000/svg" viewBox="0 0 24 24"><path d="M10.831 2.343a4.77 4.77 0 0 1 2.713-.25 4.76 4.76 0 0 1 2.19 1.091 4.74 4.74 0 0 1 1.456 4.672 4.6 4.6 0 0 1-1.064 2.015 4.66 4.66 0 0 1-2.08 1.353c-.85.28-1.778.296-2.642.066a4.7 4.7 0 0 1-1.412-.64v7.206a2.29 2.29 0 0 1 1.173 1.61 2.27 2.27 0 0 1-.409 1.742c-.268.367-.65.644-1.08.792v-1.808a.33.33 0 0 0-.219-.305c-.072-.027-.148-.023-.225-.023H8.53a.355.355 0 0 0-.327.35V22a2.27 2.27 0 0 1-1.383-1.337c-.282-.733-.152-1.606.346-2.211a2.3 2.3 0 0 1 .714-.596V6.764a4.8 4.8 0 0 1 .514-2.188 4.78 4.78 0 0 1 2.438-2.233m1.208 2.14c-.535.546-1.08 1.08-1.617 1.626.209.732.393 1.474.596 2.206q1.103.295 2.215.59.812-.81 1.621-1.622c-.195-.737-.393-1.479-.593-2.216-.744-.19-1.48-.398-2.222-.584"/></svg>