<svg xmlns="http://www.w3.org/2000/svg" viewBox="0 0 24 24"><path d="M14.322 4.53a1.602 1.576 0 0 0-.2.02A1.602 1.576 0 0 0 12.8 6.112a1.602 1.576 0 1 0 3.204 0 1.602 1.576 0 0 0-1.682-1.582zm.055 4.992c-2.74 0-5.454 3.324-8.14 9.95H22V17.93c-2.563-5.598-5.104-8.408-7.623-8.408m-.7 2 .065.156.16.056.147-.08.16.147-.063.156c.03.062.043.094.072.156l.16.05c.007.108.006.109.012.218l-.152.064-.057.163.079.148c-.072.081-.071.083-.143.164l-.154-.064-.155.074-.047.162-.214.012-.065-.157-.16-.056-.146.08-.16-.147.062-.156c-.03-.062-.043-.094-.072-.156l-.16-.049-.012-.219.154-.064.055-.162-.078-.149.142-.164.154.065.155-.075.047-.162.214-.011zm-.076.595a.195.195 0 0 0-.053.379.19.19 0 0 0 .245-.119.195.195 0 0 0-.192-.26m-.99.448.297.107v.246l.186.17.242-.025c.068.144.067.144.134.289l-.171.173.013.252.19.157-.106.302h-.244l-.166.188.025.246-.283.137-.172-.174-.248.012-.154.193-.297-.107v-.248c-.074-.068-.112-.1-.185-.168l-.243.025-.134-.29.172-.175-.014-.252-.19-.156.106-.3h.242l.166-.188-.023-.246.283-.14.172.177.248-.014zm-.244.851a.277.277 0 0 0-.193.094.289.289 0 0 0 .021.402.278.278 0 0 0 .397-.021.289.289 0 0 0-.022-.403.279.279 0 0 0-.203-.072z"/><path fill-opacity=".75" d="M9.508 8.225c-2.524 0-5.026 2.723-7.508 8.144v3.104h16.492c-3.023-7.49-6.018-11.248-8.984-11.248zm4.17 3.297.064.156.16.057.147-.08.16.146-.063.156.073.156.16.05.012.218-.153.065-.056.162.078.148c-.072.081-.071.083-.143.164l-.154-.064-.154.074-.047.162-.215.012-.065-.157-.16-.056-.146.08-.16-.147.062-.156c-.03-.062-.043-.094-.072-.156l-.16-.049-.012-.219.154-.064.055-.162-.078-.149c.072-.081.07-.082.142-.164l.155.065c.06-.03.093-.045.154-.074l.047-.163.215-.011zm-.076.595a.195.195 0 0 0-.053.379.19.19 0 0 0 .244-.119.195.195 0 0 0-.191-.26m-.99.448.296.107v.246l.186.17.242-.025.135.289-.172.174.013.252.19.156-.106.303h-.244l-.166.187.026.246-.284.137-.171-.174-.248.012-.155.193-.297-.107v-.248c-.073-.068-.111-.1-.185-.168l-.242.025-.135-.289.172-.176-.014-.252-.19-.156.106-.3h.242l.166-.188-.023-.246.283-.139.172.176.248-.014zm-.245.851a.277.277 0 0 0-.193.094.289.289 0 0 0 .021.402.278.278 0 0 0 .397-.021.289.289 0 0 0-.022-.403.279.279 0 0 0-.203-.072z"/></svg>