<svg xmlns="http://www.w3.org/2000/svg" width="24" height="24" fill="none" viewBox="0 0 24 24"><g stroke="#000"><path stroke-width=".466" d="m11.51 6.488 5.304 8.55a.699.699 0 0 1-.594 1.067H5.612a.699.699 0 0 1-.593-1.067l5.304-8.55a.699.699 0 0 1 1.187 0z" style="fill:#000;fill-opacity:1" transform="translate(-4.245 -2.846)scale(1.33333)"/><path stroke-width="10" d="m17.676 12.418 1.668 2.612a.699.699 0 0 1-.589 1.075H15.42a.699.699 0 0 1-.588-1.075l1.668-2.612a.699.699 0 0 1 1.177 0z" style="fill:#000;fill-opacity:1;stroke-width:.465748;stroke-miterlimit:4;stroke-dasharray:none" transform="translate(-4.245 -2.846)scale(1.33333)"/></g></svg>