<svg xmlns="http://www.w3.org/2000/svg" width="192" height="192" viewBox="0 0 192 192"><path d="M105.55 24.216c-53.304 0-89.552 40.864-89.552 40.864l10.208 16.104s5.664.48 2.672-9.016c2.584-4.848 7.632-11.376 17.512-18.904v107.27c-4.256 1.192-9.888 3.44-6.056 7.248h29.36c3.872-3.848-2.24-6.168-5.952-7.248v-25.312s20.12 7.848 41.808 7.848c19.056 0 36.4-5.632 49.296-15.8 12.896-10.112 21.2-25.224 21.152-42.48a56.8 56.8 0 0 0-19.84-43.368c-12.56-10.912-30.16-17.2-50.608-17.2zm-1.792 9.04c16.2.016 28.92 6.096 37.52 15.32 8.584 9.28 13.272 21.608 13.312 35.936-.056 13.96-5.064 25.472-13.984 34.288-8.92 8.744-21.888 14.272-36.848 14.264-16.688 0-30.736-3.2-40.016-7.744V44.84c10.176-7.184 26.688-11.6 40.016-11.576z"/></svg>