<svg xmlns="http://www.w3.org/2000/svg" viewBox="0 0 24 24"><path d="M13.194 3.027C6.531 3.027 2 8.135 2 8.135l1.276 2.013s.708.06.334-1.127c.323-.606.954-1.422 2.189-2.363v13.409c-.532.149-1.236.43-.757.906h3.67c.484-.481-.28-.771-.744-.906v-3.164s2.515.981 5.226.981c2.382 0 4.55-.704 6.162-1.975 1.612-1.264 2.65-3.153 2.644-5.31a7.097 7.097 0 0 0-2.48-5.421c-1.57-1.364-3.77-2.15-6.326-2.15zm-.224 1.13c2.025.002 3.615.762 4.69 1.915 1.073 1.16 1.659 2.701 1.664 4.492-.007 1.745-.633 3.184-1.748 4.286-1.115 1.093-2.736 1.784-4.606 1.783-2.086 0-3.842-.4-5.002-.968V5.605c1.272-.898 3.336-1.45 5.002-1.447z"/></svg>