<svg xmlns="http://www.w3.org/2000/svg" viewBox="0 0 24 24"><path d="M12.15 3.921c-4.408 0-7.982 3.617-7.982 8.078 0 4.463 3.573 8.08 7.982 8.08s7.983-3.617 7.982-8.08c0-4.461-3.574-8.078-7.982-8.078m-3.488 3.1q.125 0 .238.045c.602.247-.348.944-.84 2.172-.491 1.227-.337 2.522-.94 2.275-.602-.247-.692-1.442-.2-2.67.43-1.074 1.162-1.819 1.742-1.822M7.16 12.052c.252.01.48.3.521.68.044.404-.14.757-.412.787s-.528-.274-.572-.678.14-.757.412-.787l.05-.002zm10.859 2.975q.015.003.011.043c-.092.456-.838 1.658-3.084 2.818-2.806 1.45-4.726.516-5.152.268-.277-.162-.145-.434.53-.66 1.42-.316 1.18.32 3.224.076 2.044-.246 3.123-1.1 3.666-1.66.38-.394.735-.906.805-.885" opacity=".75"/><path d="M8.662 7.021c-.58.004-1.313.747-1.743 1.821-.49 1.228-.4 2.423.203 2.67.602.247.447-1.047.938-2.275.492-1.228 1.443-1.924.84-2.171a.6.6 0 0 0-.238-.045M7.16 12.053a.3.3 0 0 0-.05.002c-.273.03-.458.382-.414.787.045.404.3.708.573.677s.457-.383.413-.787c-.041-.379-.27-.67-.522-.68zm10.86 2.974c-.07-.021-.426.492-.806.885-.542.561-1.62 1.415-3.665 1.66-2.044.246-1.804-.393-3.225-.077-.674.226-.807.498-.53.66.426.25 2.346 1.182 5.153-.267 2.245-1.16 2.992-2.362 3.084-2.818q.004-.04-.012-.043z" opacity=".5"/><path d="M11.859 3.328a8.5 8.5 0 0 0-4.142 1.246 8.67 8.67 0 0 0-3.845 5.174 8.77 8.77 0 0 0 .506 5.91c.133.29.486.392.765.236a.61.61 0 0 0 .245-.784 7.6 7.6 0 0 1-.411-5.061 7.5 7.5 0 0 1 3.332-4.484 7.35 7.35 0 0 1 5.47-.901 7.42 7.42 0 0 1 4.229 2.709.61.61 0 0 0 .818.15.545.545 0 0 0 .145-.781 8.56 8.56 0 0 0-4.94-3.208 8.5 8.5 0 0 0-2.172-.206m8.17 2.192a7.5 7.5 0 0 0-1.003.086.304.304 0 0 0-.215.453.32.32 0 0 0 .342.153c.735-.141 1.22-.097 1.369.165.331.584-1.103 2.108-3.517 3.898-.482.357-1.132.339-1.73.339-1.12 0-2.027.917-2.027 2.05a.19.19 0 0 1-.09.165q-.245.147-.495.294c-4.841 2.844-9.171 4.435-9.672 3.553-.156-.274.078-.757.622-1.377a.33.33 0 0 0 .042-.378.312.312 0 0 0-.515-.046c-.975 1.221-1.374 2.263-1.002 2.92.909 1.6 6.06.304 11.507-2.896.432-.253.964-.232 1.463-.191q.082.006.166.006c1.119 0 2.025-.918 2.025-2.05a.4.4 0 0 1 .15-.32c3.231-2.495 5.088-4.949 4.414-6.138-.27-.476-.916-.696-1.833-.686zm.086 5.67c-.315.032-.544.316-.536.636a7.6 7.6 0 0 1-.844 3.659 7.5 7.5 0 0 1-2.978 3.089 7.36 7.36 0 0 1-4.164.923 7.4 7.4 0 0 1-3.515-1.21.605.605 0 0 0-.816.125.55.55 0 0 0 .111.793 8.5 8.5 0 0 0 4.133 1.448 8.5 8.5 0 0 0 4.807-1.066 8.63 8.63 0 0 0 3.435-3.565 8.76 8.76 0 0 0 .972-4.317.54.54 0 0 0-.605-.515m-4.84.448a1.013 1.025 0 0 1 1.011 1.026 1.013 1.025 0 0 1-1.012 1.025 1.013 1.025 0 0 1-1.013-1.025 1.013 1.025 0 0 1 1.013-1.026"/></svg>