<svg xmlns="http://www.w3.org/2000/svg" viewBox="0 0 24 24"><path d="M12.878 14.355h.013c.134-.002.244-.055.244-.12V3.322c0-.067-.113-.12-.252-.12-.135 0-.246.053-.248.119v10.914c0 .065.108.118.242.119m-.885.813h.013c.135-.002.243-.065.243-.142v-8.55c0-.08-.112-.143-.25-.143-.136 0-.247.063-.25.141v8.553c.002.077.11.139.244.14m-.885-.811h.013c.134-.002.242-.055.242-.12v-9.85c0-.068-.111-.121-.249-.121-.137 0-.248.052-.25.119v9.856c.002.063.11.116.244.117m-.886-.473h.013c.135-.002.243-.062.243-.134V6.7c0-.073-.113-.134-.249-.134-.137 0-.248.06-.25.133v7.049c0 .072.11.13.243.132m-.886-.094h.013c.135-.002.243-.073.243-.161V6.16c0-.09-.113-.163-.249-.163-.137 0-.248.071-.25.16v7.47c0 .087.11.158.243.158m-.885-.037h.013c.135-.001.242-.06.242-.131V7.53c0-.072-.112-.131-.249-.131s-.248.058-.25.13v6.09c.003.07.11.128.244.129m-.885 0h.013c.134-.001.242-.06.242-.13V5.68c0-.07-.112-.128-.25-.128-.136 0-.247.056-.249.128v7.94c.002.07.11.127.243.128m-.887.04h.015c.134-.003.242-.062.242-.135V8.037c0-.075-.112-.136-.25-.136-.136 0-.248.06-.249.134v5.62c.001.072.11.13.242.133m-.885-.04h.013c.135-.001.244-.06.244-.131v-2.685c0-.072-.113-.132-.25-.132-.136 0-.248.059-.249.13v2.687c0 .071.11.129.242.129m-.885-.097h.013c.134 0 .243-.051.243-.112V8.75c0-.062-.112-.113-.25-.113-.136 0-.247.05-.249.112v4.789c0 .061.11.11.243.11m-1.129.255c.002.077.11.139.243.14h.013c.134 0 .243-.064.243-.142v-1.866c0-.079-.112-.144-.25-.144-.136 0-.247.065-.249.142m1.215 2.27L3.21 15.545l8.817 3.09 8.816-3.105-1.743-1.229c-1.81.306-3.913-.235-5.358.441l-.006.002a2.252 2.252 0 0 0-.606.399c-.321.288-.587.682-.78 1.22l-.323 1.483-.313-1.436c-.23-.674-.572-1.127-.992-1.43l-.02-.015a2.444 2.444 0 0 0-.081-.055c-1.427-.926-3.684-.281-5.626-.609M22 16.81l-.261-.75-8.745 3.057.17.49c-.992.534-1.284.528-2.327 0l.17-.49-8.745-3.057-.261.75 8.35 2.92-.186.516c1.794.74 1.794.74 3.641-.006l-.178-.507m6.337-5.689h.012c.135 0 .243-.054.243-.12v-3.389c0-.066-.113-.12-.25-.12-.135 0-.246.053-.248.118v3.391c0 .067.107.12.244.12m-.888-.394h.013c.134 0 .243-.048.243-.107V8.744c0-.06-.112-.107-.249-.107s-.248.048-.25.106v4.8c.002.059.11.105.243.106m-.886.099h.014c.135-.001.243-.06.243-.131V7.563c0-.074-.112-.132-.25-.132-.135 0-.248.058-.25.129v6.058c.001.071.11.129.244.129m-.886.04h.013c.133 0 .244-.047.244-.105v-5.35c0-.057-.113-.105-.25-.105-.134 0-.248.047-.25.105v5.352c.001.058.11.104.243.105m-.885-.041h.012c.134-.001.244-.05.244-.11V5.322c0-.061-.113-.11-.252-.11-.135 0-.248.049-.248.108v8.319c0 .06.11.108.244.109m-.885 0h.013c.133-.001.242-.047.242-.101V6.435c0-.057-.113-.103-.249-.103-.138 0-.248.046-.25.102v7.213c.001.055.11.099.244.1m-.888.04h.013c.135-.001.245-.059.245-.13V8.769c0-.072-.114-.132-.252-.132-.134 0-.246.06-.248.13v4.89c.001.072.109.13.242.13m-.885.095h.014c.134-.002.242-.05.242-.11v-8.73c0-.06-.113-.11-.249-.11s-.248.05-.25.108v8.736c.002.06.11.106.243.107"/></svg>