<svg xmlns="http://www.w3.org/2000/svg" viewBox="0 0 24 24"><path d="M3.232 21.942a.53.53 0 0 1-.162-.22c-.088-.211-.145-1.058-.097-1.444.036-.288.046-.303.469-.719.516-.507.818-1.013 1.053-1.762.223-.71.23-.722.38-.76.167-.042.331.129.426.443.107.353.076 1.624-.05 2.087-.413 1.515-1.433 2.716-2.02 2.375zm17.043-.747c-.542-.385-2.8-2.902-3.272-3.647-.171-.269-.162-.38.033-.38.214 0 1.59.488 2.059.73 1.375.71 2.08 1.718 1.93 2.756-.103.703-.311.854-.75.541m-11.093-.94c-.248-.18-.654-.717-1.147-1.516-.425-.691-.477-.81-.399-.905.129-.155.818-.035 1.373.238.43.212.684.444.846.775.119.243.138.343.137.709-.002.781-.32 1.054-.81.699m4.788-.003c-.116-.058-.344-.247-.507-.422-.492-.526-1.35-1.778-1.35-1.97 0-.248.76-.213 1.333.061.388.186.892.649 1.079.992.235.432.23 1.091-.01 1.308-.15.134-.32.144-.545.031m-5.198-3.397c-.261-.176-.36-.417-.691-1.679-.447-1.704-.87-3.16-1.036-3.569a4.5 4.5 0 0 0-.585-1.03c-.23-.32-.237-.541-.02-.63.178-.075 1.38-.041 1.6.044.137.053.742-.004 2.337-.22l.629-.084.52-.63c1.355-1.637 2.18-2.73 2.18-2.883 0-.064-.053-.07-.36-.034-.199.023-.926.044-1.617.048l-1.257.007-.486.424C8.16 8.211 5.926 9.607 5.412 9.48c-.093-.024-.12-.064-.12-.175 0-.121.053-.183.335-.384.808-.576 1.898-1.501 2.745-2.333 1.012-.993 1.497-1.544 1.953-2.224.466-.692.65-1.116.705-1.628.066-.61.076-.646.195-.71.216-.115.78.177 1.351.7.52.477.537.66.096 1.036-.221.189-1.336 1.467-1.466 1.681-.045.074.795-.001 1.406-.126.634-.129 1.238-.319 1.61-.506.397-.2.68-.227 1.045-.099.602.213 1.527.855 1.527 1.061 0 .133-.216.277-.588.393-.43.134-1.02.51-1.702 1.083-.492.413-2.27 2.189-2.232 2.228.026.026 1.488-.223 2.38-.405.343-.07.825-.197 1.072-.282.768-.266.97-.223 2.082.444.702.422.88.591.88.836 0 .155-.047.232-.328.53-.402.43-.584.802-1.042 2.137-.798 2.33-1.484 3.685-1.865 3.685-.073 0-.221-.108-.412-.299q-.298-.299-.418-.298c-.246 0-5.017.562-5.278.622-.065.015-.12.078-.14.162-.04.161-.162.361-.22.361a.8.8 0 0 1-.211-.114zm1.576-1.305c.574-.1 1.071-.192 1.105-.202.048-.015.063-.26.063-1.01v-.99l-.66.005c-.555.005-.715-.012-1.008-.105-.371-.118-.673-.28-.673-.36 0-.062.252-.128.872-.226.585-.093 1.314-.258 1.416-.322.062-.039.064-.172.015-.953-.032-.499-.08-.93-.106-.956-.032-.032-.287-.011-.737.06-.378.059-1.032.15-1.452.201s-.77.102-.778.11c-.008.01.161 1.115.376 2.457s.392 2.46.393 2.483c0 .023.03.031.067.017s.534-.107 1.108-.208zm2.836-.448c.722-.087 1.153-.093 1.442-.02.294.073.388.012.568-.367.383-.807 1.017-3.937.919-4.54a.7.7 0 0 0-.145-.302c-.1-.108-.158-.125-.429-.125-.463 0-2.731.335-2.811.415-.014.014.002.075.034.136.064.12.055.247-.072.993-.044.26-.092.542-.105.626l-.025.153.362-.098c.25-.068.532-.1.913-.103.51-.005.564.004.732.119.348.237.364.458.048.634-.24.133-.89.327-1.566.467l-.534.11-.025.204c-.013.112-.038.556-.055.988-.03.74-.026.784.06.783.05 0 .36-.033.689-.073"/></svg>