<svg xmlns="http://www.w3.org/2000/svg" viewBox="0 0 24 24"><path d="M12.044 3.001a9 9 0 0 0-3.4.803 9 9 0 0 0-2.762 1.929 8.9 8.9 0 0 0-1.83 2.832 8.9 8.9 0 0 0-.674 3.43q0 1.83.715 3.494a9.1 9.1 0 0 0 1.924 2.873 9.1 9.1 0 0 0 2.873 1.922 8.8 8.8 0 0 0 3.494.716 8.8 8.8 0 0 0 4.848-1.425 8.86 8.86 0 0 0 3.324-3.805q.094-.211.053-.445a.73.73 0 0 0-.206-.399q-.363-.363-.843-.152a6.3 6.3 0 0 1-2.674.597 6.23 6.23 0 0 1-3.2-.855 6.36 6.36 0 0 1-2.323-2.322 6.23 6.23 0 0 1-.856-3.202q0-1.347.534-2.562a6.2 6.2 0 0 1 1.542-2.128q.387-.363.176-.844-.2-.48-.715-.457m-1.818 1.806a7.7 7.7 0 0 0-1.22 4.186q0 2.133 1.056 3.952a7.8 7.8 0 0 0 2.873 2.872 7.73 7.73 0 0 0 3.95 1.055q.659 0 1.29-.105a7.5 7.5 0 0 1-2.584 2.01 7.4 7.4 0 0 1-3.207.721 7.3 7.3 0 0 1-2.914-.597 7.6 7.6 0 0 1-2.393-1.6 7.6 7.6 0 0 1-1.6-2.393 7.3 7.3 0 0 1-.598-2.913q0-2.521 1.495-4.503t3.852-2.685m-1.658 8.397a2.062 2.062 0 0 0 0 4.121c1.136 0 2.06-.924 2.06-2.06s-.924-2.06-2.06-2.06m0 .434c.897 0 1.626.73 1.626 1.627s-.73 1.626-1.626 1.626c-.897 0-1.627-.73-1.627-1.626s.73-1.627 1.627-1.627m0 .294a.184.184 0 0 0-.185.185v.967a.354.354 0 1 0 .486.486h.805a.184.184 0 1 0 0-.369h-.805a.4.4 0 0 0-.117-.117v-.967a.184.184 0 0 0-.184-.185"/></svg>