<svg xmlns="http://www.w3.org/2000/svg" width="192" height="192" viewBox="0 0 192 192"><path d="m96.008 16-.922.031c-38.519.638-68.912 31.747-69 69.875 0 51.432 53.072 88.678 69 90.094v-20.234c21.654 1.695 70.828-17.867 70.828-69.859-.004-38.609-31.297-69.902-69.906-69.906zm-3.687 44.156h7.374a3.68 3.68 0 0 1 3.672 3.688v14.718h14.72a3.68 3.68 0 0 1 3.687 3.672v7.36a3.693 3.693 0 0 1-3.688 3.687h-14.719v14.72a3.68 3.68 0 0 1-3.672 3.687h-7.374A3.68 3.68 0 0 1 88.649 108V93.281h-14.72a3.693 3.693 0 0 1-3.687-3.687v-7.36a3.68 3.68 0 0 1 3.688-3.672h14.719V63.845a3.68 3.68 0 0 1 3.672-3.688"/></svg>