<svg xmlns="http://www.w3.org/2000/svg" width="24" height="24" fill="none" viewBox="0 0 24 24"><path d="m12 2-.115.008v-.005q-.544.009-1.072.082l-.106.015a9 9 0 0 0-1.136.247l-.066.02q-.571.17-1.108.412l-.057.027a9 9 0 0 0-1.034.564l-.065.043a9 9 0 0 0-.93.696l-.07.062a9 9 0 0 0-.818.817l-.056.066a9 9 0 0 0-.706.942l-.026.042q-.326.51-.582 1.065l-.005.013A8.7 8.7 0 0 0 3.35 9.49l-.002.014a9 9 0 0 0-.088 1.235c0 6.429 6.633 11.084 8.624 11.261v-2.53l.115.009a8.74 8.74 0 0 0 8.74-8.74A8.74 8.74 0 0 0 12 2m-.46 5.52h.92a.46.46 0 0 1 .46.46v1.84h1.84a.46.46 0 0 1 .46.46v.92a.46.46 0 0 1-.46.46h-1.84v1.84a.46.46 0 0 1-.46.46h-.92a.46.46 0 0 1-.46-.46v-1.84H9.24a.46.46 0 0 1-.46-.46v-.92a.46.46 0 0 1 .46-.46h1.84V7.98a.46.46 0 0 1 .46-.46" style="opacity:1;fill:#000;stroke-width:.229983;stroke-linecap:round;stroke-linejoin:round"/></svg>