<svg xmlns="http://www.w3.org/2000/svg" width="24" height="24" fill="none" viewBox="0 0 24 24"><path d="M12 2a8.74 8.74 0 0 0-.115.008v-.005c-.363.005-.72.034-1.072.082a8.74 8.74 0 0 0-.106.015 8.69 8.69 0 0 0-1.136.247 8.74 8.74 0 0 0-.066.02c-.381.113-.75.25-1.108.412a8.74 8.74 0 0 0-.057.027 8.72 8.72 0 0 0-1.034.564 8.74 8.74 0 0 0-.065.043 8.767 8.767 0 0 0-.93.696 8.74 8.74 0 0 0-.07.062 8.76 8.76 0 0 0-.818.817 8.74 8.74 0 0 0-.056.066 8.764 8.764 0 0 0-.706.942 8.74 8.74 0 0 0-.026.042c-.217.34-.412.695-.582 1.065a8.74 8.74 0 0 0-.005.013A8.668 8.668 0 0 0 3.35 9.49a8.74 8.74 0 0 0-.002.014 8.8 8.8 0 0 0-.088 1.235c0 6.429 6.633 11.084 8.624 11.261v-2.53a8.74 8.74 0 0 0 .115.009 8.74 8.74 0 0 0 8.74-8.74A8.74 8.74 0 0 0 12 2m-.46 5.52h.92a.46.46 0 0 1 .46.46v1.84h1.84a.46.46 0 0 1 .46.46v.92a.46.46 0 0 1-.46.46h-1.84v1.84a.46.46 0 0 1-.46.46h-.92a.46.46 0 0 1-.46-.46v-1.84H9.24a.46.46 0 0 1-.46-.46v-.92a.46.46 0 0 1 .46-.46h1.84V7.98a.46.46 0 0 1 .46-.46" style="opacity:1;fill:#000;stroke-width:.229983;stroke-linecap:round;stroke-linejoin:round"/></svg>