<svg xmlns="http://www.w3.org/2000/svg" viewBox="0 0 24 24"><path d="M20.978 11.978c0-4.95-4.027-8.977-8.977-8.977s-8.978 4.027-8.978 8.977c0 2.205.81 4.23 2.115 5.783.248 1.305 1.103 2.542 2.363 2.992.247.09.562.18.922.225l-1.935-6.817c-.427.27-.787.675-1.035 1.147a7.119 7.119 0 0 1-.81-3.307c.045-4.05 3.33-7.335 7.358-7.335A7.336 7.336 0 0 1 19.336 12c0 1.327-.36 2.565-.99 3.645a2.968 2.968 0 0 0-1.283-1.53l-1.935 6.862c.135-.022.27-.022.383-.045 1.417-.157 2.497-1.35 2.902-2.655a8.973 8.973 0 0 0 2.565-6.3zM7.687 13.391c.477.013.978.384 1.118.904l1.485 5.288C10.583 20.685 9.818 21 8.963 21l-2.025-7.2a.83.83 0 0 1 .749-.41zm8.246.004a.84.84 0 0 1 .747.293l-2.07 7.29c-.81 0-1.53-.225-1.215-1.373l1.485-5.31c.141-.492.598-.852 1.053-.9z"/></svg>