<svg xmlns="http://www.w3.org/2000/svg" viewBox="0 0 24 24"><path d="M12.058 3c4.698 0 8.55 3.637 8.942 8.272h-5.588C15.08 9.679 13.68 8.478 12 8.478s-3.08 1.2-3.412 2.794H3.116C3.512 6.637 7.364 3 12.058 3m1.867 8.272c.082.227.128.47.128.726h.004c0 .256-.045.499-.129.726a2.052 2.052 0 0 1-1.924 1.346 2.058 2.058 0 0 1-2.054-2.072h-.004c0-.256.046-.5.128-.726A2.052 2.052 0 0 1 12 9.926a2.06 2.06 0 0 1 1.926 1.346M11.94 21c-4.698 0-8.55-3.636-8.942-8.272h5.588c.333 1.593 1.733 2.794 3.413 2.794s3.08-1.2 3.412-2.794h5.475C20.492 17.358 16.639 21 11.941 21"/></svg>