<svg xmlns="http://www.w3.org/2000/svg" viewBox="0 0 24 24"><path d="M7.195 21.876c-.29-.165-.442-.406-.513-.817-.032-.188-.623-3.954-1.313-8.37-1.381-8.84-1.32-8.294-.97-8.652.095-.096.232-.198.306-.226.074-.028 1.708-.296 3.632-.595l5.776-.901c1.994-.312 2.308-.349 2.508-.295a.979.979 0 0 1 .642.628c.123.43 2.628 16.651 2.598 16.821-.05.28-.317.598-.583.694-.13.047-1.121.221-2.202.387-1.081.167-3.622.561-5.647.877-2.025.316-3.758.574-3.85.573a.982.982 0 0 1-.384-.124zm6.245-1.758a612.49 612.49 0 0 0 5.442-.86c.021-.022-2.518-16.25-2.547-16.278-.02-.018-11.2 1.707-11.223 1.732-.007.008 2.46 15.807 2.52 16.134.031.171.044.18.207.15a1696.1 1696.1 0 0 1 5.601-.878zm-.95-3.146c-1.882-.145-3.547-1.417-4.31-3.292-.356-.875-.422-2.195-.159-3.172.108-.403.495-1.243.725-1.579 1.089-1.581 3.12-2.466 4.918-2.14.845.152 1.638.626 1.638.98 0 .152-.502 1.212-.619 1.304-.16.128-.386.12-.776-.024-.468-.174-1.488-.172-1.963.003-.889.328-1.62 1.117-1.856 2.002-.125.468-.115 1.224.022 1.665.385 1.241 1.57 2.127 2.844 2.127.572 0 1.374-.277 1.78-.614.235-.196.375-.257.587-.257.17 0 .238.051.618.466.47.512.543.645.487.87-.052.207-.572.74-.98 1.006-.77.5-1.852.74-2.956.655zm-.137-3.571a1.66 1.66 0 0 1-.809-.764c-.193-.365-.206-1.013-.028-1.4.268-.583.82-.94 1.465-.943 1.42-.008 2.147 1.626 1.215 2.728-.406.479-1.262.655-1.843.379m1.062-.711c.426-.203.61-.843.349-1.222-.29-.423-.72-.548-1.16-.335-.823.398-.548 1.64.363 1.64.15 0 .35-.037.448-.083M5.49 21.4a.553.553 0 0 1-.206-.18c-.058-.089-.305-1.526-.74-4.303-.36-2.294-.654-4.216-.654-4.27 0-.16.296-.42.48-.42.204 0 .43.177.471.37.086.4 1.287 8.19 1.287 8.345 0 .326-.35.578-.638.459zm-1.763-1.637a.585.585 0 0 1-.137-.232c-.07-.3-.746-4.729-.747-4.9-.002-.21.204-.438.397-.438.151 0 .411.142.451.246.036.095.8 4.944.8 5.08 0 .046-.061.145-.135.218-.169.17-.473.182-.629.026zm15.627-8.056a.6.6 0 0 1-.176-.287c-.067-.239-1.312-8.213-1.312-8.403 0-.356.56-.538.816-.265.114.12.185.513.774 4.272.356 2.276.648 4.216.648 4.31.001.357-.45.583-.75.373zm1.09-1.992a.577.577 0 0 1-.15-.232c-.094-.386-.776-4.928-.75-5.001.119-.339.512-.443.754-.2.074.073.134.16.134.193s.173 1.165.385 2.514c.29 1.85.37 2.48.327 2.56-.147.274-.495.357-.7.166z"/></svg>