<svg xmlns="http://www.w3.org/2000/svg" viewBox="0 0 24 24"><path d="M6.775 17.226v-3.738H3l.019-5.207.018-5.207 14.188-.037v7.476H21l-.019 5.207-.018 5.207-14.188.037zm13.499-1.488v-4.5H7.5v9h12.773zM8.096 19.022l.022-.345 7.194-.038.14-.815c.178-1.03.183-2.255.011-2.812-.193-.626-.203-.633-.588-.407-.42.246-.675.62-.785 1.151l-.086.417h-.699l.044-.308c.092-.654.284-1.076.706-1.556.128-.146.172-.24.112-.24-.265.001-.67.178-.993.432l-.357.283-.23-.238-.23-.237.303-.274c.482-.435 1.023-.65 1.643-.65.51-.002.522-.006.428-.149-.186-.284-.691-.609-1.025-.659l-.327-.049v-.354c0-.411.034-.424.653-.24.428.127.61.23 1.07.599l.31.247.299-.271a2.35 2.35 0 0 1 1.206-.58l.309-.05v.722l-.321.048c-.39.058-.742.285-.971.623l-.17.252.495.049c.74.072 1.237.282 1.748.739l.164.147-.228.236-.229.236-.407-.284c-.396-.276-1.044-.51-1.14-.414-.027.026-.01.203.038.393.256 1.013.231 2.483-.058 3.525l-.135.49h3.391v.726H8.074zm-1.32-7.384v-1.125H16.5v-6.75H3.727v9h3.048zM5.178 8.48v-.363h4.427v.725H5.179zm0-1.38v-.36h4.427v.726H5.179zm7.62-1.052V4.634h2.903v2.83h-2.903zm2.177 0v-.762h-1.451V6.81h1.451z"/></svg>