<svg xmlns="http://www.w3.org/2000/svg" viewBox="0 0 24 24"><path fill-rule="evenodd" d="M10.812 3.228A4.828 4.828 0 0 1 12 3.093c.42 0 .843.044 1.188.135 2.355.616 4.602 2.86 6.903 6.866.98 1.705 1.55 3.03 1.798 4.194.066.308.105.794.11 1.27.006.478-.023.931-.084 1.18a4.142 4.142 0 0 1-.98 1.765c-1.103 1.173-2.725 1.819-5.435 2.186l-.207.03h-.005c-.657.09-1.25.174-2.933.188a34.109 34.109 0 0 1-2.803-.106c-3.244-.284-5.26-.992-6.487-2.299-.464-.491-.829-1.147-.98-1.764-.06-.249-.09-.702-.084-1.18.005-.476.043-.962.11-1.27.249-1.162.846-2.548 1.826-4.25 2.283-3.96 4.534-6.197 6.875-6.81m-3.404 6.863v-.002l.026-.083-.406-.192-.033.113c-.268.931-.283 1.576-.137 2.017.148.448.458.674.8.77.336.096.7.066.975.016a3.355 3.355 0 0 0 .44-.111l.027-.01.007-.002.003-.001.086-.033-.123-.456-.102.036c-.657.232-1.06.204-1.305.065-.245-.139-.364-.404-.407-.723a3.193 3.193 0 0 1 .042-.943 4.687 4.687 0 0 1 .098-.43l.007-.025.002-.007m2.814-4.644c.792 0 1.457.49 1.778 1.186.321-.697.986-1.186 1.778-1.186 1.117 0 1.991.967 1.991 2.128 0 1.16-.874 2.128-1.991 2.128-.792 0-1.457-.49-1.778-1.186-.321.697-.986 1.186-1.778 1.186-1.117 0-1.992-.967-1.992-2.128s.875-2.128 1.992-2.128m-1.136.888c.303-.326.712-.508 1.136-.508s.833.182 1.136.509a1.87 1.87 0 0 1 .351 1.911 1.758 1.758 0 0 1-.35.567 1.626 1.626 0 0 1-.523.378 1.501 1.501 0 0 1-1.228 0 1.608 1.608 0 0 1-.522-.378 1.765 1.765 0 0 1-.352-.567 1.879 1.879 0 0 1-.123-.672c0-.466.172-.912.475-1.239m1.136 1.879a.64.64 0 0 0 .642-.639.64.64 0 0 0-.642-.639.64.64 0 0 0-.642.64.64.64 0 0 0 .642.638m2.42-1.88c.302-.326.711-.508 1.136-.508s.833.182 1.136.509c.303.327.475.773.475 1.24 0 .23-.043.458-.125.671-.08.212-.2.405-.35.567-.15.161-.327.29-.522.378a1.501 1.501 0 0 1-1.229 0 1.608 1.608 0 0 1-.522-.378 1.765 1.765 0 0 1-.35-.567 1.877 1.877 0 0 1-.125-.672c0-.466.172-.912.475-1.239m1.136 1.879a.64.64 0 0 0 .643-.639.64.64 0 0 0-.643-.639.64.64 0 0 0-.642.64.64.64 0 0 0 .642.638"/></svg>