<svg xmlns="http://www.w3.org/2000/svg" width="192" height="192" viewBox="0 0 192 192"><path d="M26.324 118.93V25.066c0-2.57.907-4.725 2.72-6.464 1.813-1.733 3.933-2.6 6.36-2.6.757 0 1.552.115 2.384.344s1.624.568 2.376 1.016l73.92 46.936c1.355.907 2.373 2.04 3.056 3.4.677 1.36 1.016 2.795 1.016 4.304s-.339 2.947-1.016 4.312-1.699 2.499-3.064 3.4l-73.912 46.92c-.752.453-1.544.795-2.376 1.024s-1.627.341-2.384.336c-2.416 0-4.53-.87-6.344-2.608-1.813-1.733-2.72-3.885-2.72-6.456zm108.64-22.928c-6.8 0-12.664 2.816-16.32 7.392s-5.192 10.504-5.192 16.896v6.56c-5.088 0-9.216 4.128-9.216 9.208v30.72c0 5.096 4.128 9.224 9.216 9.224h43.008c5.088 0 9.216-4.136 9.216-9.216v-30.72c0-5.088-4.128-9.224-9.216-9.224h-33.792v-6.56c0-4.848 1.2-8.656 3.168-11.128s4.64-3.936 9.12-3.936c4.496 0 7.152 1.384 9.12 3.84 1.583 1.985 2.27 4.382 2.504 5.384l9.4-.024-.264-1.336a23.68 23.68 0 0 0-4.536-9.784c-3.656-4.576-9.44-7.296-16.216-7.296m0 46.2a6.16 6.16 0 0 1 6.144 6.152 6.08 6.08 0 0 1-3.072 5.28v7.008c-.199 3.897-5.953 3.897-6.152 0v-7.008a6.08 6.08 0 0 1-3.072-5.28 6.16 6.16 0 0 1 6.152-6.144"/></svg>