<svg xmlns="http://www.w3.org/2000/svg" viewBox="0 0 24 24"><path d="M3.29 14.866V3.133q0-.482.34-.808Q3.97 2 4.425 2q.142 0 .298.043.156.042.297.127l9.24 5.867q.254.17.382.425.127.255.127.538t-.127.539q-.128.255-.383.425L5.02 15.829q-.141.085-.297.128-.156.042-.298.042-.453 0-.793-.326-.34-.325-.34-.807zM16.87 12c-.85 0-1.583.352-2.04.924-.457.572-.649 1.313-.649 2.112v.82c-.636 0-1.152.516-1.152 1.151v3.84c0 .637.516 1.153 1.152 1.153h5.376c.636 0 1.152-.517 1.152-1.152v-3.84c0-.636-.516-1.153-1.152-1.153h-4.224v-.82c0-.606.15-1.082.396-1.391.247-.309.58-.492 1.14-.492.562 0 .894.173 1.14.48.13.163.234.375.303.63l.01.043 1.175-.003a3.705 3.705 0 0 0-.033-.167 2.958 2.958 0 0 0-.567-1.223C18.44 12.34 17.717 12 16.87 12zm0 5.775a.768.768 0 0 1 .768.769.762.762 0 0 1-.384.66v.876a.385.385 0 0 1-.769 0v-.876a.762.762 0 0 1-.384-.66.768.768 0 0 1 .769-.768"/></svg>