<svg xmlns="http://www.w3.org/2000/svg" xml:space="preserve" width="24" height="24" fill="none" viewBox="0 0 24 24"><path fill="#000" d="M15.055 17.405H8.947a1 1 135 0 0-1 1v2.324a1 1 45 0 0 1 1h6.108a1 1 135 0 0 1-1v-2.324a1 1 45 0 0-1-1"/><path fill="#000" d="M3 9.892a1 1 0 0 0-1 1v7.595a1 1 0 0 0 1 1h1.785a1 1 0 0 0 1-1v-3.54a1 1 0 0 1 1-1h10.432a1 1 0 0 1 1 1v3.54a1 1 0 0 0 1 1H21a1 1 0 0 0 1-1v-7.595a1 1 0 0 0-1-1zm16.945 1.132a1.124 1.124 0 0 1 1.123 1.123 1.124 1.124 0 0 1-1.123 1.123 1.124 1.124 0 0 1-1.123-1.123 1.124 1.124 0 0 1 1.123-1.123M6.46 3.27v4.487a1 1 45 0 0 1 1h9.216a1 1 135 0 0 1-1V3.271a1 1 45 0 0-1-1H7.46a1 1 135 0 0-1 1z"/></svg>