<svg xmlns="http://www.w3.org/2000/svg" width="192" height="192" viewBox="0 0 192 192"><path d="M96 16 30.544 45.096v43.64C30.544 129.096 58.48 166.84 96 176c37.536-9.16 65.456-46.912 65.456-87.264v-43.64zm-.056 30.136A49.896 49.896 0 0 1 145.864 96a49.896 49.896 0 0 1-49.92 49.864A49.84 49.84 0 0 1 46.136 96a49.84 49.84 0 0 1 49.808-49.864M96 56.304a70.4 70.4 0 0 0-9.52 19.752h19.056a70.4 70.4 0 0 0-9.52-19.752zm-12.92 2a40 40 0 0 0-21.584 17.752H76.2a78.4 78.4 0 0 1 6.88-17.752m25.84 0c2.984 5.536 5.28 11.52 6.88 17.752h14.704a40 40 0 0 0-21.584-17.752M57.4 86.024c-.8 3.192-1.296 6.536-1.296 9.976s.496 6.784 1.296 9.976h16.856c-.4-3.296-.696-6.592-.696-9.976s.296-6.68.696-9.976zm26.936 0c-.456 3.24-.8 6.592-.8 9.976s.344 6.68.8 9.976h23.328c.456-3.296.8-6.592.8-9.976s-.344-6.736-.8-9.976zm33.408 0c.4 3.296.696 6.592.696 9.976s-.296 6.68-.696 9.976H134.6c.8-3.192 1.296-6.536 1.296-9.976s-.496-6.784-1.296-9.976zm-56.248 29.92a39.76 39.76 0 0 0 21.584 17.752 78.4 78.4 0 0 1-6.88-17.752zm24.984 0c2.144 7.136 5.384 13.76 9.52 19.752a70.4 70.4 0 0 0 9.52-19.752zm29.32 0a78.4 78.4 0 0 1-6.88 17.752 40 40 0 0 0 21.584-17.752z"/></svg>