<svg xmlns="http://www.w3.org/2000/svg" viewBox="0 0 24 24"><path d="M12 2 3.818 5.637v5.455C3.818 16.137 7.31 20.855 12 22c4.692-1.145 8.182-5.864 8.182-10.908V5.637zm-.007 3.767A6.237 6.237 0 0 1 18.233 12a6.237 6.237 0 0 1-6.24 6.233A6.23 6.23 0 0 1 5.767 12a6.23 6.23 0 0 1 6.226-6.233M12 7.038a8.762 8.762 0 0 0-1.19 2.469h2.382a8.806 8.806 0 0 0-1.19-2.469zm-1.615.25a4.985 4.985 0 0 0-2.698 2.219h1.838c.2-.779.487-1.527.86-2.219m3.23 0c.373.692.66 1.44.86 2.219h1.838a5 5 0 0 0-2.698-2.219zm-6.44 3.465c-.1.399-.162.817-.162 1.247s.062.848.162 1.247h2.107c-.05-.412-.087-.824-.087-1.247s.037-.835.087-1.247zm3.367 0c-.057.405-.1.824-.1 1.247s.043.835.1 1.247h2.916c.057-.412.1-.824.1-1.247s-.043-.842-.1-1.247zm4.176 0c.05.412.087.824.087 1.247s-.037.835-.087 1.247h2.107c.1-.399.162-.817.162-1.247s-.062-.848-.162-1.247zm-7.031 3.74a4.97 4.97 0 0 0 2.698 2.219 9.816 9.816 0 0 1-.86-2.219zm3.123 0c.268.892.673 1.72 1.19 2.469a8.762 8.762 0 0 0 1.19-2.469zm3.665 0a9.814 9.814 0 0 1-.86 2.219 5.006 5.006 0 0 0 2.698-2.219z"/></svg>