<svg xmlns="http://www.w3.org/2000/svg" viewBox="0 0 24 24"><path d="M11.431 21.97c-1.537-.15-2.574-.497-3.67-1.226-1.755-1.168-3.114-3.344-3.714-5.948-.194-.845-.24-2.42-.096-3.393.313-2.128 1.117-4.081 2.366-5.743.57-.76 1.695-1.93 2.262-2.359 1.161-.874 2.792-1.418 3.84-1.28.958.127 2.187.646 3.029 1.28.537.405 1.659 1.563 2.192 2.264 1.142 1.5 1.904 3.183 2.318 5.12.153.72.173.953.176 2.104.003 1.13-.016 1.38-.149 1.972-.522 2.336-1.648 4.322-3.14 5.544-1.183.967-2.44 1.477-4.045 1.64-.653.066-.902.07-1.369.025zm2.262-1.961c2.173-.629 3.76-2.48 4.487-5.235.187-.71.2-.826.201-1.953.002-.999-.02-1.306-.14-1.854-.578-2.662-2.17-5.093-4.242-6.477-1.364-.91-2.393-.954-3.722-.155-2.174 1.307-3.96 3.982-4.52 6.773-.166.827-.165 2.584.001 3.3.397 1.708 1.029 2.982 1.987 4.005.763.817 1.836 1.432 2.902 1.665.777.17 2.343.134 3.046-.07zm-2.521-2.334c-.157-.584.278-1.1.929-1.1.45 0 1.094-.23 1.465-.522.182-.144.457-.459.611-.7.195-.303.347-.466.494-.527.437-.18.904-.039 1.13.343.281.477.033 1.084-.776 1.894-.794.796-1.63 1.183-2.655 1.232-.685.044-1.033-.062-1.198-.62z"/></svg>