<svg xmlns="http://www.w3.org/2000/svg" viewBox="0 0 24 24"><path d="M4.111 4.293a6.96 6.96 0 0 0-.348.462C2.391 6.66 2.14 9.75 3.238 11.195c.09.119.316.314.5.434l.337.217-.307.1c-.751.243-1.392.803-1.63 1.424-.194.503-.183 1.24.027 1.862.301.89.894 1.706 1.647 2.267.906.676 1.802.953 2.651.821.633-.098.945-.29 1.69-1.038.693-.696 1.06-.979 1.444-1.114.39-.138.392-.137.3.328-.105.519-.059.787.173 1.004.253.236.526.227.78-.027.153-.153.213-.287.295-.653.072-.324.15-.514.266-.643.09-.1.176-.17.192-.154.016.016.268.518.561 1.115.62 1.264.973 1.773 1.454 2.096.392.262.587.348.957.42 1.123.219 2.617-.254 3.806-1.206.479-.383 1.052-1.066 1.296-1.543.343-.673.382-1.49.098-2.07-.147-.3-.644-.834-.975-1.047-.144-.093-.143-.094.224-.159 1.017-.179 1.816-.876 2.384-2.079.616-1.304.766-2.976.38-4.225l-.12-.392h-.726c-1.807 0-3.586.583-5.347 1.753-.721.48-1.77 1.303-2.838 2.229-.338.293-.642.525-.674.514-.108-.035-.097-.38.02-.607.063-.123.21-.38.324-.57.251-.415.364-.729.289-.804-.033-.032-.209.205-.449.607-.47.788-.694 1.073-.808 1.029-.045-.018-.224-.438-.397-.933-.316-.909-.54-1.42-.65-1.488-.095-.059-.076.014.228.85.285.783.447 1.42.407 1.601-.01.051-.297-.387-.634-.974-1.13-1.962-1.827-2.927-2.744-3.8a8.515 8.515 0 0 0-3.025-1.864c-.285-.1-.525-.183-.533-.183z"/></svg>