<svg xmlns="http://www.w3.org/2000/svg" viewBox="0 0 24 24"><path d="M14.56 15.743V20.5h-1.839v-1.871a2 2 0 0 1 .482-1.302zm3.195 2.781c-.24 0-.453-.04-.64-.123a1.091 1.091 0 0 1-.442-.344.863.863 0 0 1-.165-.507h.7c.004.08.03.151.078.212.05.06.114.107.196.14a.72.72 0 0 0 .274.05c.106 0 .2-.02.281-.057a.462.462 0 0 0 .191-.155.393.393 0 0 0 .069-.23.384.384 0 0 0-.074-.233.472.472 0 0 0-.208-.16.81.81 0 0 0-.321-.058h-.307v-.51h.307a.666.666 0 0 0 .277-.055.448.448 0 0 0 .19-.15.392.392 0 0 0 .067-.228.394.394 0 0 0-.223-.365.637.637 0 0 0-.502-.002.452.452 0 0 0-.188.144.376.376 0 0 0-.076.218h-.666a.855.855 0 0 1 .163-.5c.104-.145.246-.258.423-.34.179-.082.38-.123.605-.123.227 0 .425.041.596.124.17.082.302.193.396.333.095.14.142.296.141.469a.64.64 0 0 1-.172.46.78.78 0 0 1-.447.235v.026c.242.03.425.114.552.251.127.136.19.306.19.51a.801.801 0 0 1-.163.5c-.108.145-.257.26-.448.343-.19.084-.408.125-.654.125m3.193-3.331v3.287h-.694v-2.628h-.02l-.752.472v-.616l.813-.515zM2 18.5v-12h14a2 2 0 0 1 2 2v4.445h-1.44c-.635 0-1.201.297-1.568.759l-.03.034-2.519 2.938a3 3 0 0 0-.722 1.953V20.5H4a2 2 0 0 1-2-2m2-15a2 2 0 0 0-2 2h14a3 3 0 0 1 3 3v4.445h3V5.5a2 2 0 0 0-2-2z"/></svg>