<svg xmlns="http://www.w3.org/2000/svg" xml:space="preserve" width="24" height="24" fill="none" viewBox="0 0 24 24"><path fill="url(#a)" d="M3 17.586V6.414c0-1.029.834-1.862 1.862-1.862h3.492c.353 0 .696.112.98.32l1.168.859c.285.208.628.32.98.32h7.656c1.028 0 1.862.834 1.862 1.863v9.672a1.86 1.86 0 0 1-1.862 1.862H4.862A1.86 1.86 0 0 1 3 17.586m13.222 1.862h.95V9.473c0-.803-.653-1.452-1.457-1.448l-7.05.04a1.44 1.44 0 0 1-.848-.267L6.247 6.68a1.45 1.45 0 0 0-.84-.268H3v.95h2.158c.3 0 .594.094.84.268l1.57 1.116c.247.176.543.27.847.268l6.35-.04a1.45 1.45 0 0 1 1.457 1.448z" style="display:inline;fill:#000;fill-opacity:1;stroke-width:.0517241"/><defs><linearGradient id="a" x1="276.25" x2="303.22" y1="-13.77" y2="365.775" gradientTransform="translate(-2.276 -2.276)scale(.05172)" gradientUnits="userSpaceOnUse"><stop offset=".989" stop-color="#6D4AFF" style="stop-color:#000;stop-opacity:1"/></linearGradient></defs></svg>