<svg xmlns="http://www.w3.org/2000/svg" viewBox="0 0 24 24"><path d="M11.995 3.005A8.99 8.99 0 0 0 3 12a8.99 8.99 0 0 0 8.995 8.995C16.967 20.985 20.99 16.962 21 12a9 9 0 0 0-.98-4.075.207.207 0 0 0-.278-.092.207.207 0 0 0-.093.278A8.64 8.64 0 0 1 20.577 12a8.576 8.576 0 0 1-8.582 8.582A8.58 8.58 0 0 1 3.413 12c0-4.735 3.847-8.582 8.582-8.572a8.4 8.4 0 0 1 3.868.918c.103.052.227.01.279-.093a.207.207 0 0 0-.093-.278 8.9 8.9 0 0 0-4.054-.97m-2.816 4.88c-.217 0-.433.01-.66.01s-.444.01-.64.01-.381.01-.557.01c-.175.01-.288.01-.412.01-.052 0-.073.032-.073.083v7.51c0 .061.021.092.083.092h1.424c.051 0 .092-.051.082-.103v-2.352c.144 0 .248.01.32.01.062.011.185.011.36.011a4.7 4.7 0 0 0 1.651-.248 2.4 2.4 0 0 0 1.176-.887c.289-.412.434-.928.434-1.557 0-.33-.052-.65-.166-.95a2.3 2.3 0 0 0-.536-.825 2.6 2.6 0 0 0-.98-.598 4.4 4.4 0 0 0-1.506-.227zm.15 1.422c.252.004.504.055.747.145.217.083.392.227.516.413.124.196.186.423.176.65 0 .32-.073.577-.227.753-.155.185-.361.32-.599.392a2.6 2.6 0 0 1-.846.134h-.391c-.083 0-.176 0-.279-.01V9.327c.052 0 .155-.01.3-.01.144-.01.309-.01.494-.01q.054-.002.109-.001zm5.945.38a2.8 2.8 0 0 0-1.123.26c-.31.145-.578.382-.763.67a1.7 1.7 0 0 0-.073 1.63c.135.248.33.455.557.62.32.216.67.402 1.042.526.258.082.495.196.722.34a.4.4 0 0 1 .176.299.33.33 0 0 1-.196.31 1.4 1.4 0 0 1-.609.103 4 4 0 0 1-.856-.114 3.2 3.2 0 0 1-.908-.36c-.01-.021-.041-.021-.062-.011s-.03.041-.03.062v1.269c0 .061.03.113.082.144.237.113.485.186.743.237.32.062.66.093.99.093.454.01.897-.072 1.32-.237.33-.134.609-.361.815-.65.186-.289.289-.63.279-.97 0-.258-.062-.516-.176-.753a1.8 1.8 0 0 0-.577-.608 5 5 0 0 0-1.125-.537 3.3 3.3 0 0 1-.516-.237.9.9 0 0 1-.247-.196.3.3 0 0 1-.072-.186c0-.062.02-.134.061-.196a.38.38 0 0 1 .228-.144c.144-.041.299-.052.443-.052.268 0 .547.031.815.093a2.7 2.7 0 0 1 .701.248c.031.01.062.01.114 0a.1.1 0 0 0 .03-.072V10.08c0-.03 0-.062-.01-.092-.01-.031-.04-.052-.072-.062a2.2 2.2 0 0 0-.629-.176 7 7 0 0 0-.908-.062 3 3 0 0 0-.166-.002z"/></svg>