<svg xmlns="http://www.w3.org/2000/svg" viewBox="0 0 24 24"><path d="M18.667 2H5.509a12.2 12.2 0 0 0-1.842 2.385l5.167-.003-2.078 16.8c.93.408 1.906.683 2.903.818l.475-4.983.417-.376h6.602l1.735-1.642 1.445-10.903A12 12 0 0 0 18.666 2zm-2.573 11.015-.418.376h-4.707l-.289-.376.964-7.355.386-.376h4.706l.321.376zM18.667 2H5.509a12.2 12.2 0 0 0-1.842 2.385l5.167-.003-2.078 16.8c.93.408 1.906.683 2.903.818l.475-4.983.417-.376h6.602l1.735-1.642 1.445-10.903A12 12 0 0 0 18.666 2zm-2.573 11.015-.418.376h-4.707l-.289-.376.964-7.355.386-.376h4.706l.321.376z"/></svg>