<svg xmlns="http://www.w3.org/2000/svg" width="192" height="192" viewBox="0 0 192 192"><path d="M171.33 88.58a7.743 7.743 0 0 0 0-14.215l-55.307-23.862a6.4 6.4 0 0 0-5.063 11.743l44.548 19.23-44.549 19.23a6.391 6.391 0 1 0 5.064 11.735zm-88.872 46.716a6.4 6.4 0 1 0 12.791 0v-47.7h12.143a6.111 6.111 0 0 0 0-12.223H70.315a6.111 6.111 0 0 0 0 12.223h12.143v47.716m-60.067 6.4a6.4 6.4 0 0 1-6.391-6.4V81.773a6.4 6.4 0 0 1 6.399-6.4h16.742c7.095 0 13.175 2.376 17.598 6.864 4.192 4.256 6.495 10.143 6.495 16.566 0 13.039-10.455 23.238-23.806 23.238H28.79v13.271a6.4 6.4 0 0 1-6.399 6.4m16.47-31.318c6.72 0 11.591-4.88 11.591-11.59 0-5.696-3.144-11.776-11.967-11.776H28.79v23.358z"/></svg>