<svg xmlns="http://www.w3.org/2000/svg" viewBox="0 0 24 24"><path d="M21.417 11.093a.968.968 0 0 0 0-1.777l-6.914-2.983a.8.8 0 0 0-.633 1.468l5.569 2.404-5.569 2.404a.799.799 0 1 0 .633 1.467zm-11.11 5.84a.8.8 0 1 0 1.599 0V10.97h1.518a.764.764 0 0 0 0-1.528H8.789a.764.764 0 0 0 0 1.528h1.518v5.965m-7.509.8a.8.8 0 0 1-.799-.8v-6.693a.8.8 0 0 1 .8-.8h2.093c.887 0 1.647.297 2.2.858.524.532.812 1.268.812 2.071 0 1.63-1.307 2.905-2.976 2.905h-1.33v1.659a.8.8 0 0 1-.8.8m2.059-3.915c.84 0 1.449-.61 1.449-1.449 0-.712-.393-1.472-1.496-1.472H3.598v2.92z"/></svg>