<svg xmlns="http://www.w3.org/2000/svg" width="24" height="24"><path d="m7.366 8.354.674.666v3.217l-.674.665H6.217v2.744H4.95v-2.744h-.145v-1.166h.145V8.354zm-.675 3.382V9.539h-.547v2.197zm4.995-3.382v6.626l-.666.666H9.143l-.666-.666V8.354h1.267v6.107h.675V8.354zm3.144 0 .665.666v2.488l-.428.428.428.429v2.615l-.665.666h-2.506v-3.09h-.174v-1.23h.174V8.354zm-.693 1.185H13.5v1.796h.638zm-.638 4.922h.638v-1.932H13.5zm5.031-6.107.665.666v1.576H17.92V9.54h-.701v4.922h.701v-1.814h-.41v-1.185h1.686v3.518l-.665.666h-1.914l-.665-.666V9.02l.665-.666ZM3.097 6.152a.387.387 0 0 0-.385.386v1.715H2v1.172h.712v5.24H2v1.082h.712v1.715c0 .213.173.386.385.386h17.797a.387.387 0 0 0 .386-.386V15.68H22v-1.083h-.72V9.272H22v-1.03h-.72V6.538a.387.387 0 0 0-.386-.385H3.097Zm.75 1.088h16.298v9.525H3.847Z"/></svg>