<svg xmlns="http://www.w3.org/2000/svg" viewBox="0 0 24 24"><path d="M11.14 20.953a9.01 9.01 0 0 1-6.718-4.088c-.785-1.21-1.368-2.935-1.386-4.1-.005-.361.01-.429.144-.668a.96.96 0 0 1 .42-.42l.27-.153h2.067c1.538 0 2.129.017 2.31.065.31.082.637.307.777.533.06.096.284.74.5 1.432.215.69.392 1.234.394 1.207.002-.028.371-1.787.822-3.909.818-3.855.82-3.859.977-4 .133-.12.188-.138.338-.114.101.016.226.08.285.148.07.082.308.838.741 2.367l.637 2.246h2.473l.218-.218c.274-.274.566-.353.94-.256a.95.95 0 0 1 .478 1.548c-.393.448-.964.477-1.404.072l-.209-.193-2.535-.031-.269-.15c-.457-.253-.668-.69-1.128-2.333-.137-.493-.203-.663-.231-.597-.021.05-.396 1.784-.832 3.85-.745 3.525-.802 3.766-.925 3.872a.457.457 0 0 1-.596 0c-.108-.093-.237-.47-.798-2.323-.367-1.216-.687-2.23-.71-2.252-.023-.023-.97-.025-2.106-.005l-2.064.037.009.423c.01.5.213 1.347.489 2.048a8.01 8.01 0 0 0 3.834 4.176c1.195.596 2.267.846 3.627.846.868 0 1.407-.068 2.172-.275 2.39-.645 4.433-2.513 5.353-4.895.645-1.67.69-3.646.12-5.36-.404-1.214-1.012-2.187-1.96-3.14-1.15-1.156-2.382-1.846-3.91-2.192-3.916-.886-7.941 1.294-9.307 5.041-.18.492-.295.615-.577.615-.178 0-.236-.026-.343-.154-.162-.191-.161-.297 0-.752.466-1.309 1.408-2.691 2.48-3.638 3.759-3.318 9.487-2.944 12.76.833 1.537 1.774 2.277 3.883 2.192 6.242-.03.827-.104 1.326-.308 2.072-.653 2.397-2.384 4.492-4.649 5.627-1.05.526-2.036.805-3.244.918a7.16 7.16 0 0 1-1.618-.003z"/></svg>