<svg xmlns="http://www.w3.org/2000/svg" viewBox="0 0 24 24"><path d="M21.871 4.507c-.347-.444-.955-.089-1.222.066-1.904 1.122-2.185 3.097-2.848 4.231-.522.909-1.377 1.575-2.15 1.627-.572.04-1.192-.07-1.807-.338-1.506-.65-2.316-1.493-2.514-1.641-.406-.309-3.525-3.346-6.067-3.47 0 0-.31-.625-.387-.636-.185-.02-.375.376-.513.417-.125.045-.345-.426-.471-.405-.128.016-.252.488-.5.73-.184.178-.405.167-.531.386-.043.08-.028.221-.078.35-.105.267-.459.295-.462.581 0 .318.297.378.557.6.207.177.221.302.462.384.215.074.527-.156.803-.073.231.067.453.117.502.352.045.214 0 .549-.283.511-.094-.012-.499-.145-.999-.091-.604.064-1.294.257-1.361.925-.034.372.428.808.879.721.309-.059.163-.421.332-.596.223-.225 1.477.786 2.644.786.494 0 .859-.125 1.222-.504.034-.024.078-.085.13-.092a.5.5 0 0 1 .162.074c.942.747 1.653 2.25 5.108 2.267.485.006 1.042.233 1.497.648.4.36.637.937.864 1.52.349.878.968 1.725 1.91 2.67.05.056.825.65.884.694.01.008.07.14.044.212-.017.575-.103 2.225 1.137 2.295.305.016.23-.193.23-.342-.005-.284-.055-.57.094-.867.21-.398-.439-.59-.425-1.463.016-.653-.537-.542-.82-1.042-.158-.286-.306-.443-.291-.788.06-1.983-.431-3.29-.671-3.606-.19-.245-.353-.336-.173-.45 1.034-.68 1.271-1.312 1.271-1.312.55-1.284 1.047-2.454 1.73-2.975.138-.1.49-.366.71-.466.635-.302.977-.482 1.156-.657.297-.28.53-.877.245-1.233"/></svg>