<svg xmlns="http://www.w3.org/2000/svg" width="192" height="192" viewBox="0 0 192 192"><path d="M174.97 36.055c-2.776-3.552-7.64-.712-9.776.528-15.232 8.976-17.48 24.776-22.784 33.848-4.176 7.272-11.016 12.6-17.2 13.016-4.576.32-9.536-.56-14.456-2.704-12.048-5.2-18.528-11.944-20.112-13.128-3.248-2.472-28.2-26.768-48.536-27.76 0 0-2.48-5-3.096-5.088-1.48-.16-3 3.008-4.104 3.336-1 .36-2.76-3.408-3.768-3.24-1.024.128-2.016 3.904-4 5.84-1.472 1.424-3.24 1.336-4.248 3.088-.344.64-.224 1.768-.624 2.8-.84 2.136-3.672 2.36-3.696 4.648 0 2.544 2.376 3.024 4.456 4.8 1.656 1.416 1.768 2.416 3.696 3.072 1.72.592 4.216-1.248 6.424-.584 1.848.536 3.624.936 4.016 2.816.36 1.712 0 4.392-2.264 4.088-.752-.096-3.992-1.16-7.992-.728-4.832.512-10.352 2.056-10.888 7.4-.272 2.976 3.424 6.464 7.032 5.768 2.472-.472 1.304-3.368 2.656-4.768 1.784-1.8 11.816 6.288 21.152 6.288 3.952 0 6.872-1 9.776-4.032.272-.192.624-.68 1.04-.736a4 4 0 0 1 1.296.592c7.536 5.976 13.224 18 40.864 18.136 3.88.048 8.336 1.864 11.976 5.184 3.2 2.88 5.096 7.496 6.912 12.16 2.792 7.024 7.744 13.8 15.28 21.36.4.448 6.6 5.2 7.072 5.552.08.064.56 1.12.352 1.696-.136 4.6-.824 17.8 9.096 18.36 2.44.128 1.84-1.544 1.84-2.736-.04-2.272-.44-4.56.752-6.936 1.68-3.184-3.512-4.72-3.4-11.704.128-5.224-4.296-4.336-6.56-8.336-1.264-2.288-2.448-3.544-2.328-6.304.48-15.864-3.448-26.32-5.368-28.848-1.52-1.96-2.824-2.688-1.384-3.6 8.272-5.44 10.168-10.496 10.168-10.496 4.4-10.272 8.376-19.632 13.84-23.8 1.104-.8 3.92-2.928 5.68-3.728 5.08-2.416 7.816-3.856 9.248-5.256 2.376-2.24 4.24-7.016 1.96-9.864"/></svg>