<svg xmlns="http://www.w3.org/2000/svg" viewBox="0 0 24 24"><path d="M7.743 20.964c-.878-.146-1.774-1-1.913-1.822-.032-.192-.043-.203-.165-.172-.734.188-1.077.21-1.503.1-.892-.233-1.372-.999-1.782-2.84-.497-2.238-.508-6.132-.023-8.395.333-1.552.802-2.382 1.548-2.74.381-.183 1.064-.229 1.553-.103.172.044.317.074.323.067a4 4 0 0 0 .069-.254c.095-.39.342-.82.643-1.121.465-.466 1.008-.686 1.692-.687.451 0 .78.095 2.023.587 3.946 1.562 8.164 4.07 10.677 6.345 1.073.973 1.365 1.895.906 2.86-.511 1.074-2.188 2.51-4.828 4.133-2.6 1.599-4.856 2.737-7.256 3.662-1.075.414-1.39.475-1.963.38zm1.114-5.948c.263-.097 1.057-.46 1.763-.806 2.4-1.177 3.48-1.87 3.48-2.231 0-.24-.583-.688-1.831-1.407-1.291-.744-3.204-1.625-3.908-1.8-.566-.142-.666.214-.712 2.544-.04 1.99.061 3.45.261 3.765.103.163.377.144.947-.065"/></svg>