<svg xmlns="http://www.w3.org/2000/svg" width="192" height="192" viewBox="0 0 192 192"><path d="M27.556 19C23.278 19 19 23.278 19 27.556v47.056c0 4.277 4.278 8.555 8.556 8.555h47.056c4.278 0 8.556-4.278 8.556-8.555V27.556c0-4.278-4.278-8.556-8.556-8.556zm89.833 0c-4.278 0-8.556 4.278-8.556 8.556v47.056c0 4.277 4.278 8.555 8.556 8.555h47.056c4.278 0 8.556-4.278 8.556-8.555V27.556c0-4.278-4.278-8.556-8.556-8.556zM36.111 36.111h29.944v29.944H36.111zm89.833 0h29.944v29.944h-29.944zm-98.389 72.722c-4.278 0-8.556 4.278-8.556 8.556v47.056c0 4.277 4.278 8.555 8.556 8.555h47.056c4.278 0 8.556-4.278 8.556-8.555v-47.056c0-4.278-4.278-8.556-8.556-8.556zm89.833 4.278c-2.139 0-4.278 2.139-4.278 4.278v14.839h19.116v-19.116zm14.839 19.116v18.13h18.13v-18.13zm18.13 0h18.364v-14.84c0-2.138-2.139-4.277-4.278-4.277h-14.087zm0 18.13v18.364h14.087c2.139 0 4.278-2.14 4.278-4.278v-14.087zm-18.13 0h-19.116v14.087c0 2.139 2.139 4.278 4.278 4.278h14.839zm-96.116-24.413h29.944v29.944H36.111z"/></svg>