<svg xmlns="http://www.w3.org/2000/svg" xml:space="preserve" width="24" height="24" viewBox="0 0 24 24"><path d="M4 3h5.5c.5 0 1 .5 1 1v5.5c0 .5-.5 1-1 1H4c-.5 0-1-.5-1-1V4c0-.5.5-1 1-1m1 5.5V5h3.5v3.5ZM14.5 3H20c.5 0 1 .5 1 1v5.5c0 .5-.5 1-1 1h-5.5c-.5 0-1-.5-1-1V4c0-.5.5-1 1-1m1 5.5V5H19v3.5zM4 13.5h5.5c.5 0 1 .5 1 1V20c0 .5-.5 1-1 1H4c-.5 0-1-.5-1-1v-5.5c0-.5.5-1 1-1M5 19v-3.5h3.5V19Zm9-2.765V14.5c0-.25.25-.5.5-.5h1.735v2.235zm6.5 0V14.5c0-.25-.25-.5-.5-.5h-1.647v2.235zM14 18.353V20c0 .25.25.5.5.5h1.735v-2.147zm6.5 0V20c0 .25-.25.5-.5.5h-1.647v-2.147zm-4.265 0v-2.118h2.118v2.118z" style="fill:#000;fill-rule:evenodd;stroke-width:.0529412"/></svg>