<svg xmlns="http://www.w3.org/2000/svg" viewBox="0 0 24 24"><path d="M12.705 19.424a2.2 2.2 0 0 1-.88-.526c-.112-.125-.227-.15-.668-.15-.32 0-.584-.04-.664-.098-.158-.115-.136-.451.03-.473.061-.008.304-.036.539-.062l.427-.047v-.534c.001-.411.044-.624.187-.931.101-.219.185-.411.185-.427s-.596-.03-1.324-.03c-1.44 0-1.61-.041-1.563-.376.025-.178.042-.182.917-.227.49-.025 1.293-.05 1.784-.057.832-.01.921-.026 1.33-.233.372-.189.522-.222 1.004-.222.86 0 1.408.34 1.72 1.065.208.483.174 1.175-.083 1.722-.498 1.06-1.96 1.858-2.941 1.606m-6.118-.784c-.142-.171-.066-.446.13-.474.344-.049.535.348.243.504-.193.104-.267.098-.373-.03m1.6-.009c-.141-.141-.144-.189-.022-.356.077-.106.189-.125.613-.107.477.02.52.036.543.194.04.286-.111.386-.586.386-.293 0-.469-.038-.548-.117m-.89-4.9c-.155-.166-.231-.186-.726-.186-.629 0-.833-.097-.793-.376.024-.172.064-.186.727-.256.8-.085.709.022.891-1.04.05-.287.107-.613.128-.725.03-.166.01-.204-.108-.204-.193 0-.33-.175-.3-.387.02-.132.092-.185.322-.234.164-.035.387-.11.495-.168.165-.086 1.31-.103 6.936-.103 4.608 0 6.785.025 6.886.078.263.141.303.404.175 1.14-.065.372-.17.978-.232 1.346-.127.748-.224.945-.569 1.155-.23.14-.428.145-6.949.145H7.468zm-3.124-.303c-.225-.225-.059-.511.27-.465.197.028.273.303.13.475-.115.139-.254.136-.4-.01m-1.99-2.535c-.182-.048-.246-.314-.11-.451.09-.09.376-.121 1.33-.15 1.08-.033 1.232-.023 1.344.09.158.157.161.294.01.445-.097.097-.313.115-1.282.108-.64-.005-1.222-.024-1.292-.042M14.66 8.925c-.356-.052-.94-.368-.94-.51 0-.045-.468-.075-1.208-.08-.664-.003-1.375-.028-1.58-.055-.316-.042-.375-.075-.396-.225-.014-.097.012-.213.057-.258.05-.05.593-.097 1.4-.121l1.318-.04.012-.511c.012-.47.17-1.071.338-1.286.067-.086-.134-.134-.796-.19-.173-.016-.228-.06-.248-.201-.043-.3.157-.376.976-.376.62 0 .77-.024.947-.15.598-.426 1.6-.522 2.206-.21 1.217.626 1.303 2.304.175 3.402-.657.64-1.46.928-2.26.811zm-8.031-.68c-.191-.14-.129-.441.104-.506.3-.083 2.3-.074 2.458.011.081.044.144.155.144.258s-.063.213-.144.257c-.22.118-2.397.1-2.562-.02m4.315-2.64c-.159-.176-.155-.258.02-.416.113-.103.173-.112.297-.046.198.105.204.417.011.52-.186.1-.184.1-.328-.058"/></svg>