<svg xmlns="http://www.w3.org/2000/svg" viewBox="0 0 24 24"><path d="M11.024 3.054c-.227.026-.611.086-.853.135a9.244 9.244 0 0 0-.934.252c-.273.09-.714.262-.98.382-.267.12-.683.34-.925.49-.242.151-.594.39-.78.53a10.328 10.328 0 0 0-1.641 1.63c-.18.237-.45.625-.599.865a9.375 9.375 0 0 0-.488.919c-.12.266-.291.707-.382.98a9.9 9.9 0 0 0-.25.907c-.047.227-.115.74-.152 1.14a6.734 6.734 0 0 0 0 1.459c.036.4.106.914.153 1.14.047.228.172.669.277.982.104.312.31.81.455 1.105.146.296.358.684.473.861.113.18.36.522.549.765a9.964 9.964 0 0 0 1.594 1.575c.182.139.498.354.702.479.204.125.57.327.814.45.243.122.646.295.894.383.248.088.648.209.89.268.243.059.626.139.853.179.227.038.82.07 1.32.07.499 0 1.092-.032 1.32-.07a11.165 11.165 0 0 0 1.705-.428c.226-.08.467-.203.535-.276a.485.485 0 0 0 .124-.306c0-.149-.127-.3-.948-1.13-.522-.528-1.028-.993-1.124-1.034-.15-.065-.256-.063-.743.011a5.54 5.54 0 0 1-1.171.056 6.646 6.646 0 0 1-1.071-.15 7.634 7.634 0 0 1-.894-.299 6.637 6.637 0 0 1-.897-.493 7.723 7.723 0 0 1-.8-.617 6.828 6.828 0 0 1-.66-.745 6.723 6.723 0 0 1-.53-.831 9.198 9.198 0 0 1-.325-.735 7.507 7.507 0 0 1-.225-.742c-.066-.278-.095-.634-.096-1.17-.002-.543.027-.906.098-1.234a7.04 7.04 0 0 1 .282-.922 7.848 7.848 0 0 1 .45-.911c.187-.316.45-.635.873-1.058.419-.419.741-.685 1.05-.869a7.8 7.8 0 0 1 .853-.43c.223-.091.616-.218.874-.283.369-.091.64-.117 1.292-.118.606-.002.932.023 1.225.093a7.65 7.65 0 0 1 .742.225c.19.072.519.219.734.327.216.108.59.346.831.529.243.183.578.48.745.66.168.181.446.54.618.8.17.258.393.661.492.897.1.235.234.637.3.894.066.257.132.736.15 1.07a5.49 5.49 0 0 1-.057 1.173c-.074.486-.075.592-.011.743.042.096.507.6 1.035 1.123.83.822.98.948 1.129.948a.486.486 0 0 0 .306-.123c.073-.068.197-.31.275-.536a11.12 11.12 0 0 0 .429-1.705c.038-.227.07-.82.07-1.32 0-.5-.032-1.094-.07-1.32a15.027 15.027 0 0 0-.178-.853 10.997 10.997 0 0 0-.269-.89 9.603 9.603 0 0 0-.383-.894 13.688 13.688 0 0 0-.45-.815 9.85 9.85 0 0 0-.48-.7 9.962 9.962 0 0 0-1.575-1.595 11.92 11.92 0 0 0-.763-.55 11.492 11.492 0 0 0-.861-.472 10.585 10.585 0 0 0-1.106-.456 10.402 10.402 0 0 0-.98-.274 12.785 12.785 0 0 0-.948-.142A9.973 9.973 0 0 0 11.92 3a11.52 11.52 0 0 0-.895.054m4.206 9.451c-.06.027-.702.644-1.426 1.37-1.228 1.233-1.318 1.336-1.318 1.52 0 .175.06.256.575.774.315.318.631.592.7.61.07.018.237-.01.372-.062a4.779 4.779 0 0 0 .67-.37 6.67 6.67 0 0 0 .804-.642 6.174 6.174 0 0 0 .694-.838c.175-.261.36-.588.414-.727.052-.14.081-.31.063-.378-.017-.07-.286-.378-.596-.687-.315-.312-.628-.573-.704-.59a.483.483 0 0 0-.248.02m2.045 2.052-.341.563c-.177.293-.46.633-.848 1.017-.428.425-.72.66-1.104.886-.33.194-.526.347-.537.412-.011.074.297.416 1.02 1.136.948.942 1.053 1.031 1.229 1.031.147 0 .297-.077.657-.34a10.94 10.94 0 0 0 1.02-.894c.304-.304.707-.762.893-1.017.263-.36.338-.506.338-.657 0-.176-.084-.279-1.028-1.227-.567-.569-1.073-1.035-1.126-1.035-.054 0-.132.057-.173.124m2.54 3.162c-.19.264-.631.766-.98 1.116-.35.349-.85.79-1.116.98-.317.227-.48.381-.48.45 0 .064.047.117.123.133.068.015.879.164 1.801.33 1.582.284 1.683.295 1.771.206.09-.089.078-.189-.207-1.772a171.4 171.4 0 0 0-.33-1.8c-.015-.076-.067-.124-.131-.124-.07 0-.224.164-.451.48"/></svg>