<svg xmlns="http://www.w3.org/2000/svg" xml:space="preserve" width="24" height="24" fill="none" viewBox="0 0 24 24"><path fill="#000" stroke="#000" stroke-linecap="round" stroke-linejoin="round" stroke-width="1.508" d="M14.863 15.039c.482-1.035.712-2.433.712-4.166 0-4.327-2.812-5.677-4.567-5.677-1.755 0-4.513 1.35-4.513 5.677 0 .987.294 2.395.884 3.32 2.309-2.151 5.9-1.443 7.484.846m-4.412 3.863c-3.952-.33-7.747-3.473-7.747-8.029 0-4.858 3.824-8.169 8.304-8.169s8.336 3.287 8.336 8.17c0 2.715-1.282 4.922-3.146 6.348.602.892 1.222 1.484 2.085 1.484.942 0 1.352-.648 2.029-1.213 1.763 0 1.337 3.803-2.817 3.803-4.718 0-4.528-6.655-8.452-5.211 1.081 1.28 1.456 2.165 1.408 2.817"/></svg>