<svg xmlns="http://www.w3.org/2000/svg" viewBox="0 0 24 24"><path d="M10.439 20.962a1.392 1.392 0 0 1-.562-.323c-.3-.28-.418-.551-.536-1.231-.016-.095-.017-.096-.107-.08-.5.085-1.337.118-1.666.065-.845-.136-1.373-.656-1.57-1.55a5.497 5.497 0 0 1-.1-.962c0-.099-.01-.18-.02-.18-.03 0-.128.074-.339.256-.261.227-.392.287-.62.287-.432.001-.795-.234-1.078-.697a1.478 1.478 0 0 1-.207-.699c-.029-.444.07-.865.395-1.675l.108-.27-.178-.078c-.205-.09-.286-.142-.498-.325-.328-.284-.46-.606-.46-1.13-.002-.313.03-.501.148-.864.075-.234.327-.77.476-1.011l.106-.172-.045-.137c-.063-.196-.076-.593-.025-.82.077-.344.292-.755.654-1.25.352-.478.32-.413.294-.607-.027-.201.006-.504.083-.767.1-.338.102-.342.337-.476 2.058-1.177 4.438-2.092 7.263-2.793.566-.14.733-.154.943-.076.131.05.256.156.315.27.047.093.034.385-.026.582-.061.199-.259.588-.425.84-.194.291-.484.64-1.011 1.214-.09.099-.263.297-.382.44-.12.144-.22.25-.225.238-.017-.05.151-.43.271-.614.188-.288.313-.44.724-.884.478-.514.692-.77.73-.87a.44.44 0 0 0-.11-.455c-.098-.082-.21-.095-.598-.07-.585.038-1.02.14-2.033.482a29.43 29.43 0 0 1-.752.245c-.11.032-.388.132-.62.223-.23.092-.552.216-.715.277-.163.061-.33.125-.37.143-.041.018-.208.084-.37.148-.54.21-1.007.411-1.494.642-.459.216-1.061.54-1.2.643l-.064.048.145.1a804.338 804.338 0 0 1 1.748 1.217c.244.168.434.3.692.48.108.077.32.223.469.327l.772.538c.19.135.208.142.259.11.096-.063.454-.191.715-.256.19-.048.344-.067.617-.077.243-.01.364-.023.364-.041 0-.055-.101-.447-.244-.948-.244-.857-.32-1.235-.34-1.709-.013-.275-.008-.36.028-.481.049-.17.156-.407.183-.407.01 0 .15.269.31.598l.315.643c.021.042.018.042-.072.004a1.653 1.653 0 0 0-.219-.085c-.022 0-.009.244.027.481.091.608.297 1.208.54 1.575.176.264.536.61.822.79.092.058.106.08.132.207.034.16.02.546-.024.658l-.027.07-.1-.09a2.49 2.49 0 0 0-1.029-.524c-.341-.084-.879-.046-1.17.082l-.09.04.337.273c.483.391 1.477 1.216 1.61 1.335.061.056.183.162.271.237.189.16.593.52.715.636.22.209.767.573.86.573.038 0 .04.027-.072-1.049a83.63 83.63 0 0 0-.26-2.16 93.989 93.989 0 0 1-.344-2.939c-.016-.179-.013-.196.07-.376a1.12 1.12 0 0 1 .101-.19c.018 0 .316.505.423.717.132.264.247.56.305.79.029.114.052.216.052.228 0 .012-.083-.048-.185-.132s-.19-.15-.195-.144c-.011.012.083.846.183 1.627.2 1.561.395 3.129.421 3.401.034.344.035.345.254.368.26.027.738-.16.982-.384l.13-.119-.07-.627c-.069-.632-.114-.98-.545-4.194l-.26-1.95c-.06-.476-.107-.793-.187-1.277-.131-.8-.137-.872-.082-1.08a2.2 2.2 0 0 1 .092-.278l.045-.101.212.374c.239.421.357.652.447.873.066.164.15.475.133.492a.867.867 0 0 1-.187-.126 1.601 1.601 0 0 0-.192-.136c-.01 0-.01.164-.001.364.014.33.07.787.313 2.549.452 3.276.617 4.54.617 4.718 0 .388-.15.82-.365 1.048-.204.219-.494.395-.885.538l-.247.091.001.783c.001.85-.028 1.133-.167 1.609-.13.443-.13.443-.146-.226-.02-.855-.148-2.16-.215-2.194l-.259-.122c-.408-.188-.681-.39-1.21-.892-.915-.868-1.387-1.29-1.764-1.58-.544-.417-.687-.47-.4-.15.569.64.82 1.179.82 1.762-.002.636-.211.903-1.033 1.314a9.06 9.06 0 0 1-1 .383c-.904.306-1.055.362-1.374.515a4.762 4.762 0 0 0-.795.491 4.695 4.695 0 0 0-.474.484l-.07.093.013.314c.028.642.184 1.054.53 1.403.185.185.535.37.87.46.187.05.267.055.728.055.45-.001.547-.008.734-.055.334-.085.377-.108.422-.232.208-.571.31-.832.399-1.02l.105-.223-.219-.225c-.12-.124-.219-.238-.219-.253 0-.066.11-.253.22-.376l.12-.133.184.088.106-.087c.163-.134.532-.503.668-.668.128-.156.295-.405.279-.415a.856.856 0 0 0-.077-.036c-.104-.045-.167-.167-.167-.328 0-.206.063-.388.173-.498.157-.157.302-.116.41.114.065.141.074.282.032.525-.027.154-.027.156.05.248.05.06.076.12.076.172 0 .186-.07.205-.2.054l-.089-.103-.38.39c-.21.214-.467.462-.572.55l-.191.162.173.179c.095.098.173.198.173.222 0 .059-.1.224-.275.458a2.48 2.48 0 0 0-.463 1.046.934.934 0 0 0-.017.155c.017.017.698-.29 1.1-.496.629-.321 1.287-.773 1.699-1.164l.224-.214-.072-.194c-.112-.304-.25-.619-.521-1.189-.138-.29-.299-.637-.359-.772l-.108-.245.04-.202c.04-.2.12-.38.175-.399.034-.011.925.98.907 1.01-.024.037-.154.02-.242-.031a.274.274 0 0 0-.136-.044c-.049.008-.048.012.013.194.034.101.144.351.243.555.219.446.28.62.313.893.09.743-.406 1.447-1.514 2.145a12.18 12.18 0 0 1-1.703.83c-.095.036-.145.07-.154.104-.028.106-.013.359.034.54.091.358.244.597.466.727.096.057.143.068.288.067a.591.591 0 0 0 .34-.085c.197-.1.527-.343.713-.525.176-.172.386-.413.8-.92.411-.502.621-.726.858-.918.097-.078.182-.149.19-.156.027-.029.267-.192.406-.275.26-.156.677-.357 1.198-.576.622-.262.61-.257.982-.437.238-.115.3-.156.29-.188a8.857 8.857 0 0 1-.163-.892c-.104-.913.243-1.63.791-1.63.22 0 .305.036.438.186.214.239.371.63.414 1.025.03.287-.067.689-.252 1.041a2.65 2.65 0 0 1-.476.595c-.096.08-.088.112.068.288.443.497 1.337.452 1.965-.1l.08-.07-.03-.316a98.668 98.668 0 0 0-.256-2.427l-.246-1.95a12932.7 12932.7 0 0 1-.67-5.307c-.069-.536-.12-1.017-.113-1.068.006-.052.052-.18.102-.283.07-.147.095-.182.114-.154.303.453.633 1.211.726 1.67.014.07.01.077-.036.065a.658.658 0 0 1-.177-.152l-.124-.14.015.247c.008.136.037.497.063.803l.074.864c.014.17.036.386.048.48.013.096.04.318.061.495l.1.826.617 5.135c.04.332.017.87-.05 1.177-.09.42-.34.805-.638.98-.255.15-.601.24-.921.24-.506.001-.79-.186-1.118-.736-.137-.228-.156-.25-.205-.231-.48.184-.94.374-1.325.546-.395.177-1.272.622-1.408.715-.357.242-.666.543-1.19 1.16-.75.878-1.105 1.231-1.375 1.364a.673.673 0 0 1-.346.084 1.222 1.222 0 0 1-.297-.027zm-5.417-4.309c.146-.073.244-.158.653-.57.893-.897 1.25-1.107 3.024-1.785.884-.337 1.276-.524 1.724-.822.282-.188.276-.157.103-.52-.305-.637-.836-1.216-1.914-2.085l-.112-.09-.22.148c-.306.208-.76.58-1.124.924-.324.305-.611.575-.84.787-.648.603-1.246 1.018-1.774 1.23l-.159.063-.117.255a5.04 5.04 0 0 0-.346 1.017c-.041.2-.05.307-.04.534.013.315.062.482.204.703.16.248.285.313.58.303a.684.684 0 0 0 .358-.092zm-.103-.891c-.092-.027-.145-.1-.184-.256-.037-.145 0-.404.103-.713.065-.196.189-.45.21-.43.003.003-.02.103-.053.22a3.51 3.51 0 0 0-.082.37c-.035.245.026.515.115.515.036 0 .177-.145.18-.185.001-.014.012.008.025.049.044.148-.044.373-.17.43a.303.303 0 0 1-.062.024 4.768 4.768 0 0 0-.082-.024m1.613-.986c-.022-.085-.221-.412-.322-.527-.07-.08-.09-.091-.13-.07-.074.04-.172.008-.268-.088-.078-.079-.087-.102-.087-.218 0-.163.077-.274.175-.249.092.023.25.17.444.414.178.222.22.256.22.177 0-.14.054-.625.077-.697.044-.14.126-.247.19-.247.084 0 .19.063.253.15.048.067.052.092.033.192-.03.148-.084.16-.192.042-.044-.048-.098-.088-.118-.088-.05 0-.087.174-.119.556-.028.337-.058.513-.106.632-.034.082-.034.083-.05.021zm2.182-1.542a2.611 2.611 0 0 0-.294-.235c-.018 0-.168.183-.339.413-.043.058-.22-.055-.463-.292l-.216-.213.103-.182c.137-.242.216-.368.233-.368.028 0 .236.154.434.321.237.201.215.207.421-.102.101-.15.143-.194.188-.194.041 0 .144.085.352.29l.294.29-.112.185c-.116.193-.234.321-.294.321-.02 0-.158-.105-.307-.234zm8.153 2.883a2.09 2.09 0 0 0 .366-.258c.113-.113.117-.123.117-.26 0-.508-.414-1.064-.73-.984-.103.025-.296.23-.328.347-.042.15-.033.396.023.628.048.201.248.667.286.667.01 0 .13-.063.266-.14zm-5.632-1.322c.03-.085-.065-.25-.156-.273-.134-.035-.082.191.063.274.064.037.08.036.093 0zm-6.778-1.562c.478-.263.863-.54 1.453-1.046.297-.255.383-.335 1.11-1.029.272-.259.588-.557.704-.662.115-.105.212-.199.215-.208.003-.009-.713-.563-1.592-1.232L4.75 7.841l-.044.055a7.52 7.52 0 0 0-.5.772c-.158.335-.201.652-.123.91.047.156.076.188.167.188.059 0 .102-.03.2-.134.14-.147.238-.211.238-.155 0 .065-.084.279-.163.412a2.292 2.292 0 0 1-.528.576c-.124.098-.201.18-.232.248-.34.738-.437 1-.502 1.365a1.086 1.086 0 0 0-.01.445c.082.572.359.837.846.812a.644.644 0 0 0 .358-.102zm.274-1.635c.662-.658.954-.981 1.12-1.242.04-.062.04-.065-.043-.131-.243-.194-.298-.52-.128-.762.057-.08.146-.13.273-.154.08-.016.1-.008.168.06l.077.077-.017.303-.018.304.079.085c.115.123.174.252.174.38 0 .145-.033.143-.18-.012-.066-.068-.133-.123-.152-.123s-.092.091-.165.203c-.341.523-.817.977-1.656 1.58a3.332 3.332 0 0 1-.28.191c-.008 0 .328-.341.748-.759zM6.04 9.81c-.006-.084-.021-.112-.076-.142-.079-.044-.15-.015-.162.066-.009.06.123.18.196.18.042 0 .048-.014.042-.104zm7.352 10.84c-.159-.125-.154-.594.012-1.153.029-.099.062-.18.074-.18.03 0 .028.012-.043.376-.039.2-.057.358-.048.41.021.11.112.296.153.312.039.014.116-.063.187-.19.029-.05.062-.093.074-.093.036 0-.009.228-.069.346-.112.22-.213.272-.34.172zm-4.865-.136c-.065-.07-.113-.23-.113-.378 0-.202.111-.645.162-.645.01 0 .01.12 0 .268-.02.298.002.387.119.495l.065.06.081-.078a.364.364 0 0 1 .102-.079c.037 0-.012.208-.075.315-.058.099-.068.105-.172.105-.088 0-.124-.014-.17-.063zm6.742-.433c-.144-.303-.273-.443-.45-.49l-.165-.043c-.062-.016-.141-.158-.158-.283-.017-.122.039-.293.095-.293.08 0 .299.138.399.253.06.068.173.233.252.366.08.133.148.239.152.234.004-.004.023-.169.042-.366.02-.197.052-.4.074-.453.056-.133.156-.231.236-.231.095 0 .226.097.28.206.044.091.044.096 0 .178-.025.047-.053.085-.063.085a.712.712 0 0 1-.13-.087c-.123-.094-.222-.11-.257-.043a2.907 2.907 0 0 0-.036.438c-.014.378-.069.691-.132.755-.013.012-.072-.084-.14-.226zm1.464-.562c-.087-.086-.112-.226-.092-.52.013-.192.136-.746.174-.784.045-.045.04.044-.02.354-.04.209-.06.372-.05.424.02.11.111.295.152.31.039.016.116-.062.187-.189.029-.05.063-.092.075-.092.038 0-.007.223-.069.344-.119.233-.23.28-.357.153zM5.429 18.362c-.152-.055-.222-.27-.175-.537.039-.224.093-.379.167-.477.034-.045.066-.078.072-.072a.878.878 0 0 1-.052.19c-.076.223-.08.402-.013.513.055.089.093.097.197.044.067-.035.07-.034.085.024.02.08-.037.213-.121.28-.07.054-.095.06-.16.036zm2.963-.278c-.206-.357-.351-.494-.523-.494-.08 0-.1-.011-.132-.073-.044-.085-.047-.152-.012-.279.022-.08.036-.092.097-.092.106 0 .262.133.457.389.136.178.177.218.19.184.009-.023.018-.165.02-.314.003-.452.08-.704.214-.704.082 0 .215.082.279.171.039.055.044.085.027.145-.046.16-.052.162-.2.055a.709.709 0 0 0-.164-.098c-.051-.001-.06.086-.034.394.027.34.002.64-.07.801l-.042.1zm-1.26-1.026c-.118-.11-.124-.123-.124-.244 0-.157.094-.36.206-.445a4.22 4.22 0 0 1 .498-.235 99.095 99.095 0 0 0 1.16-.494c.732-.325.906-.398.918-.386.026.026-.044.155-.136.25-.096.1-.284.195-.832.42-.727.3-1.557.693-1.617.766-.018.021 0 .068.063.16.068.101.086.152.08.22-.01.128-.07.124-.216-.012zm4.005-.221-.086-.087.017-.19c.017-.191.065-.44.114-.593.032-.098.084-.103.283-.028.17.063.3.174.36.306.1.219.022.419-.236.608-.078.057-.121.07-.23.07-.121 0-.144-.008-.222-.086zm.455-.249a.524.524 0 0 0 .12-.086c.029-.047-.24-.283-.355-.312-.123-.032-.144-.01-.154.166-.013.214-.002.271.057.296.078.032.21.007.332-.064m6.567-.086c-.09-.052-.127-.172-.126-.405.002-.31.109-.798.217-.993l.039-.069-.015.074c-.008.041-.03.135-.05.21-.02.075-.042.227-.05.338-.019.24.015.386.115.505.058.068.078.078.114.056.024-.015.053-.062.064-.105.028-.108.068-.098.068.018 0 .26-.21.467-.376.37zm-3.462-.487c.184-.241.178-.216.09-.333-.121-.161-.157-.239-.14-.304.029-.117.252-.32.4-.365.08-.025.132.044.132.172 0 .092-.008.11-.048.11-.027 0-.064-.023-.083-.05l-.035-.05-.103.054c-.117.063-.127.112-.045.208.081.094.254.107.482.038.21-.064.202-.063.202-.005 0 .085-.126.2-.33.302a2.13 2.13 0 0 0-.3.18c-.124.1-.145.111-.236.138l-.075.02zm5.559-.416a42.286 42.286 0 0 1-.104-1.354c-.08-1.139-.109-1.4-.32-2.912a733.5 733.5 0 0 1-.358-2.58c-.057-.414-.119-.782-.138-.818-.062-.116-.044-.299.053-.534.05-.118.092-.218.096-.222.009-.009.509.836.588.994.116.233.27.729.228.729-.008 0-.095-.067-.193-.148-.155-.128-.179-.14-.186-.097-.016.1.1 1.068.243 2.022.318 2.127.382 2.797.365 3.826-.01.63-.01.626-.193 1.057l-.067.157zm-2.913-2.647-.28-.245-.158.21a3.44 3.44 0 0 1-.188.234c-.043.036-.232-.082-.428-.267-.252-.238-.25-.222-.072-.533l.153-.265.09.05c.048.028.192.138.32.245.13.11.245.19.264.182.019-.007.096-.107.171-.222.076-.114.153-.214.171-.221.019-.007.066.003.104.023.07.037.564.522.564.555 0 .01-.047.096-.104.194-.105.177-.228.304-.292.304-.02 0-.16-.11-.315-.244zm-3.323-.377c.004-.11.073-.175.393-.368.4-.24.712-.405.73-.387.007.007-.004.056-.026.109-.036.09-.07.114-.55.378l-.53.29c-.01.006-.018-.004-.017-.022zm2.926-.725a18.843 18.843 0 0 0-.128-1.381c-.037-.213-.11-.53-.122-.53-.004 0-.133.09-.287.2-.154.11-.357.238-.453.285l-.173.087.437-.429.437-.428-.035-.284-.137-1.11a50.605 50.605 0 0 0-.458-3.135c-.064-.35-.084-.517-.073-.61.016-.14.08-.322.158-.45l.048-.08.195.354c.324.59.538 1.1.588 1.403l.018.111-.07-.061a7.362 7.362 0 0 1-.188-.171c-.064-.061-.122-.105-.129-.098-.012.012.132 1.045.37 2.65.062.421.12.824.128.896.009.079.025.127.042.121.03-.01.19-.213.237-.3.025-.048.013-.08-.09-.248-.104-.167-.12-.211-.12-.323 0-.107.013-.145.075-.224.095-.118.265-.21.34-.183.07.025.158.155.192.283.035.126.014.355-.046.534a.632.632 0 0 0-.036.237c.011.114-.018.149-.092.109-.056-.03-.037-.048-.308.291l-.165.206.038.313c.108.902.057 1.682-.142 2.15-.035.083-.036.08-.05-.185zm.626-3.41c.001-.088-.053-.18-.113-.195-.137-.035-.15.102-.02.231.094.094.133.084.133-.036m-5.101 3.597c-.134-.081-.168-.176-.165-.457.002-.189.019-.299.068-.463.06-.203.161-.449.177-.433.004.004-.02.135-.052.29-.032.157-.058.34-.059.408 0 .137.062.295.144.369.053.047.054.047.134-.031.095-.093.116-.097.116-.026a.47.47 0 0 1-.141.319c-.098.086-.118.088-.222.024zm8.214-.278c-.186-.19-.196-.636-.028-1.278l.049-.185-.012.235c-.006.129-.018.324-.026.434-.018.23.025.42.122.54l.06.073.125-.146.017.069c.01.038.011.109.003.157-.03.19-.176.238-.31.101zm-3.048-.076c-.095-.095-.121-.238-.106-.585.013-.314.093-.705.175-.855.05-.094.049-.044-.01.258-.089.459-.056.74.104.887l.06.056.056-.099c.03-.054.067-.099.082-.099.043 0 0 .27-.062.381-.047.086-.068.102-.147.108-.07.006-.105-.006-.152-.052zm-3.337-1.09c-.3-.129-.39-.884-.171-1.41.021-.05.044-.086.05-.08a2.05 2.05 0 0 1-.027.319c-.047.369-.035.531.049.674.054.093.178.207.199.184.004-.004.03-.061.058-.126.028-.064.063-.117.078-.117.07 0 .096.232.046.398-.047.157-.15.216-.282.159zm-2.174-1.691c-.25-.346-.41-.47-.607-.47a.276.276 0 0 1-.134-.037c-.069-.048-.115-.189-.094-.286.016-.072.022-.075.107-.06.172.032.358.146.553.339.215.213.2.217.228-.079.028-.299.138-.572.26-.648.06-.037.217.04.249.122.024.063.016.22-.012.247-.006.006-.06-.017-.12-.052-.237-.139-.25-.111-.265.576l-.013.557zm-3.142.049c-.265-.519-.375-.642-.574-.642a.235.235 0 0 1-.172-.07c-.07-.064-.08-.089-.09-.23-.012-.194.025-.25.151-.227.192.034.357.19.628.59.05.074.083.105.09.083.006-.019.022-.185.036-.368.03-.388.07-.525.2-.664.102-.112.176-.127.298-.064.128.066.157.187.082.344l-.041.086-.096-.087c-.076-.068-.114-.085-.175-.08-.12.012-.143.114-.163.712-.015.429-.026.523-.068.617l-.05.111zm6.6-1.281c-.175-.107-.244-.434-.174-.83.021-.122.06-.283.088-.357l.05-.136-.018.173c-.01.095-.018.278-.017.407.001.252.028.333.144.442.062.058.066.058.114.015.027-.025.05-.059.05-.075s.015-.044.035-.06c.03-.024.038-.015.052.059a.4.4 0 0 1-.078.334c-.073.086-.139.094-.247.028zm-8.816-.063c-.131-.11-.164-.374-.093-.746.042-.217.177-.642.212-.663.038-.024.024.186-.027.408-.064.279-.063.474.001.607.076.156.107.175.21.125.11-.052.11-.052.11.022 0 .249-.24.393-.413.247m1.65-.402c-.15-.078-.181-.172-.167-.513a1.9 1.9 0 0 1 .09-.551c.041-.14.097-.296.123-.346l.048-.09v.111c.001.061-.022.206-.05.321-.07.285-.072.525-.004.656.082.157.113.173.213.111.1-.062.117-.04.084.11-.04.185-.188.269-.338.191zm5.107-.923a.284.284 0 0 1-.186-.23c-.018-.12.025-.472.078-.637.044-.135.06-.14.29-.076a.525.525 0 0 1 .361.317c.07.21-.064.474-.298.593-.131.067-.154.07-.245.033zm.247-.284c.162-.064.194-.18.08-.285-.097-.09-.162-.119-.273-.119h-.098l-.012.179c-.01.156-.006.184.037.222.061.054.137.055.266.003zm-2.538.071c-.083-.117-.128-.293-.128-.502 0-.204.053-.49.115-.625.033-.07.034-.06.016.134a5.58 5.58 0 0 0-.02.413c0 .197.002.205.082.284l.081.08.075-.092c.084-.104.12-.101.12.008a.411.411 0 0 1-.147.3c-.1.085-.134.085-.194 0zM6.885 4.59c.12-.213.177-.25.825-.535.516-.228 2.747-1.067 2.771-1.043.018.018-.07.135-.181.242-.076.071-.207.134-.638.303-.299.117-.606.24-.682.274a79.133 79.133 0 0 0-2.136.85c-.006 0 .012-.041.041-.092z"/></svg>