<svg xmlns="http://www.w3.org/2000/svg" viewBox="0 0 24 24"><path d="M13.835 12.545c-.085.56-.365.855-.702.855-.213 0-.336-.155-.3-.395l.118-.76c.046-.283.21-.504.5-.504.323 0 .47.228.384.804m-1.152 1.117c.046 0 .155.198.51.198.754 0 1.185-.564 1.303-1.291.149-.898-.273-1.306-.805-1.306-.25 0-.436.023-.573.097l.205-1.233h-.626l-.622 3.688h.47s.07-.152.143-.152h-.005zm6.668-1.572c.095-.56-.105-.832-.691-.832-.437 0-.609.199-.771.368l.016-.311-.58.004-.046.46-.335 2.037h.636l.204-1.323c.073-.454.377-.802.664-.802.318 0 .314.187.263.474l-.276 1.651h.63zM22 11.262h-.741l-.851.933-.012-.004.34-2.063h-.617l-.623 3.686h.627l.064-.369.127-.807c.331 0 .518.037.663.718l.1.458h.64s-.16-.697-.264-.97c-.109-.286-.227-.475-.482-.527zm-18.206.904a1.04 1.04 0 0 0 .76-.736c.164-.685-.131-1.22-.977-1.21l-.968-.001L2 13.815h.632l.249-1.444c.582-.017.654.13.764.831l.1.613h.654c-.077-.372-.127-.72-.19-1.003-.069-.296-.175-.527-.447-.637zm.127-.855c-.055.319-.295.543-.59.543H2.96l.193-1.136h.338c.402 0 .48.272.43.592m2.854.68c.091-.546-.19-.733-.758-.733-.709 0-1.018.347-1.018.347l.218.38s.23-.277.687-.277c.254 0 .26.134.236.277l-.05.325c-.914-.024-1.382.179-1.486.798-.085.507.283.753.696.753a.8.8 0 0 0 .594-.221c.041.12.114.186.196.2.13.027.359-.005.427-.057-.005-.074 0-.266.077-.718zm-.748.662c-.102.741-.197.816-.542.816-.237 0-.325-.168-.285-.387.055-.3.274-.429.827-.429m10.768-.663c.091-.545-.19-.732-.76-.732-.709 0-1.018.347-1.018.347l.22.38s.228-.277.685-.277c.255 0 .26.134.236.277l-.05.325c-.914-.024-1.38.179-1.486.798-.086.507.282.753.695.753a.8.8 0 0 0 .595-.221c.04.12.114.186.196.2.13.027.358-.005.426-.057-.004-.074 0-.266.078-.718zm-.75.663c-.1.741-.196.816-.542.816-.237 0-.324-.168-.285-.387.055-.3.275-.429.827-.429m-8 1.208c.754 0 1.185-.565 1.303-1.292.15-.897-.273-1.306-.805-1.306-.25 0-.43.023-.57.098l.204-1.234h-.628l-.624 3.688h.473s.068-.152.136-.152c.047 0 .156.198.51.198m.263-2.119c.324 0 .46.225.385.803-.079.59-.366.855-.707.855-.213 0-.336-.155-.295-.395l.118-.76c.045-.282.208-.503.495-.503h.005zm1.306 1.027c.097-.94.506-1.52 1.48-1.52.723 0 .962.57.865 1.183-.155.98-.525 1.442-1.452 1.442-.6 0-.956-.505-.893-1.105m1.685-.291c.047-.26.096-.764-.336-.764-.291 0-.562.203-.684.917-.074.436.006.786.344.786.245 0 .546-.21.676-.94"/></svg>