<svg xmlns="http://www.w3.org/2000/svg" width="192" height="192" viewBox="0 0 192 192"><path d="M110.68 100.36c-.68 4.48-2.92 6.84-5.616 6.84-1.704 0-2.688-1.24-2.4-3.16l.944-6.08c.368-2.264 1.68-4.032 4-4.032 2.584 0 3.76 1.824 3.072 6.432m-9.216 8.936c.368 0 1.24 1.584 4.08 1.584 6.032 0 9.48-4.512 10.424-10.328 1.192-7.184-2.184-10.448-6.44-10.448-2 0-3.488.184-4.584.776l1.64-9.864h-5.008L96.6 110.52h3.76s.56-1.216 1.144-1.216h-.04zm53.344-12.576c.76-4.48-.84-6.656-5.528-6.656-3.496 0-4.872 1.592-6.168 2.944l.128-2.488-4.64.032-.368 3.68-2.68 16.296h5.088l1.632-10.584c.584-3.632 3.016-6.416 5.312-6.416 2.544 0 2.512 1.496 2.104 3.792l-2.208 13.208h5.04zM176 90.096h-5.928l-6.808 7.464-.096-.032 2.72-16.504h-4.936l-4.984 29.488h5.016l.512-2.952 1.016-6.456c2.648 0 4.144.296 5.304 5.744l.8 3.664h5.12s-1.28-5.576-2.112-7.76c-.872-2.288-1.816-3.8-3.856-4.216zM30.35 97.328a8.32 8.32 0 0 0 6.08-5.888c1.312-5.48-1.048-9.76-7.816-9.68l-7.744-.008-4.872 28.768h5.056l1.992-11.552c4.656-.136 5.232 1.04 6.112 6.648l.8 4.904h5.232c-.616-2.976-1.016-5.76-1.52-8.024-.552-2.368-1.4-4.216-3.576-5.096zm1.016-6.84c-.44 2.552-2.36 4.344-4.72 4.344h-2.968l1.544-9.088h2.704c3.216 0 3.84 2.176 3.44 4.736m22.832 5.44c.728-4.368-1.52-5.864-6.064-5.864-5.672 0-8.144 2.776-8.144 2.776l1.744 3.04s1.84-2.216 5.496-2.216c2.032 0 2.08 1.072 1.888 2.216l-.4 2.6c-7.312-.192-11.056 1.432-11.888 6.384-.68 4.056 2.264 6.024 5.568 6.024a6.4 6.4 0 0 0 4.752-1.768c.328.96.912 1.488 1.568 1.6 1.04.216 2.872-.04 3.416-.456-.04-.592 0-2.128.616-5.744zm-5.984 5.296c-.816 5.928-1.576 6.528-4.336 6.528-1.896 0-2.6-1.344-2.28-3.096.44-2.4 2.192-3.432 6.616-3.432m86.144-5.304c.728-4.36-1.52-5.856-6.08-5.856-5.672 0-8.144 2.776-8.144 2.776l1.76 3.04s1.824-2.216 5.48-2.216c2.04 0 2.08 1.072 1.888 2.216l-.4 2.6c-7.312-.192-11.04 1.432-11.888 6.384-.688 4.056 2.256 6.024 5.56 6.024a6.4 6.4 0 0 0 4.76-1.768c.32.96.912 1.488 1.568 1.6 1.04.216 2.864-.04 3.408-.456-.032-.592 0-2.128.624-5.744zm-6 5.304c-.8 5.928-1.568 6.528-4.336 6.528-1.896 0-2.592-1.344-2.28-3.096.44-2.4 2.2-3.432 6.616-3.432m-64 9.664c6.032 0 9.48-4.52 10.424-10.336 1.2-7.176-2.184-10.448-6.44-10.448-2 0-3.44.184-4.56.784l1.632-9.872H60.39l-4.992 29.504h3.784s.544-1.216 1.088-1.216c.376 0 1.248 1.584 4.08 1.584m2.104-16.952c2.592 0 3.68 1.8 3.08 6.424-.632 4.72-2.928 6.84-5.656 6.84-1.704 0-2.688-1.24-2.36-3.16l.944-6.08c.36-2.256 1.664-4.024 3.96-4.024h.04zm10.448 8.216c.776-7.52 4.048-12.16 11.84-12.16 5.784 0 7.696 4.56 6.92 9.464-1.24 7.84-4.2 11.536-11.616 11.536-4.8 0-7.648-4.04-7.144-8.84m13.48-2.328c.376-2.08.768-6.112-2.688-6.112-2.328 0-4.496 1.624-5.472 7.336-.592 3.488.048 6.288 2.752 6.288 1.96 0 4.368-1.68 5.408-7.52"/></svg>