<svg xmlns="http://www.w3.org/2000/svg" viewBox="0 0 24 24"><path d="m2 12 1.25-1.25 1.719 1.719L4.938 12q-.094-1.531.5-2.781.593-1.25 1.53-2.188 1.735-1.734 4.126-2.047t4.5.922L14.28 7.22q-1.531-.719-3.195-.43-1.664.29-2.867 1.492-.703.703-1.102 1.633-.398.93-.398 2.055v.312l1.53-1.531L9.5 12l-3.75 3.75zm6.406 6.094L9.72 16.78q1.53.72 3.195.43 1.664-.29 2.867-1.492.703-.703 1.102-1.633.398-.93.398-2.055v-.312L15.75 13.25 14.5 12l3.75-3.75L22 12l-1.25 1.25-1.719-1.719.031.469q0 1.531-.546 2.781T17.03 16.97q-1.734 1.734-4.125 2.047t-4.5-.922z"/></svg>