<svg xmlns="http://www.w3.org/2000/svg" width="192" height="192" viewBox="0 0 192 192"><path d="m16 95.996 10-10 13.752 13.752-.248-3.752q-.752-12.248 4-22.248 4.744-10 12.24-17.504 13.88-13.872 33.008-16.376t36 7.376L114.24 57.756q-12.248-5.752-25.56-3.44-13.312 2.32-22.936 11.936-5.624 5.624-8.816 13.064-3.184 7.44-3.184 16.44v2.496l12.24-12.248L76 95.996l-30 30zm51.248 48.752 10.512-10.512q12.24 5.76 25.56 3.44t22.936-11.936q5.624-5.624 8.816-13.064 3.184-7.44 3.184-16.44V93.74L126 105.996l-10-10 30-30 30 30-10 10-13.752-13.752.248 3.752q0 12.248-4.368 22.248t-11.888 17.512q-13.872 13.872-33 16.376t-36-7.376z"/></svg>