<svg xmlns="http://www.w3.org/2000/svg" viewBox="0 0 24 24"><path d="M6.322 2c-.699 0-1.265.522-1.265 1.166s.566 1.166 1.265 1.166c.256 0 .493-.071.692-.191l1.875 1.69h-2.49a.63.63 0 0 0-.633.632c0 .35.282.633.633.633h2.855a.631.631 0 0 0 .416-1.108L7.32 3.875a1.1 1.1 0 0 0 .268-.709C7.588 2.522 7.021 2 6.322 2m11.355 0c-.699 0-1.265.522-1.265 1.166 0 .257.095.506.265.709l-2.351 2.111c.006.004-.213.161-.213.477 0 .35.282.633.633.633H17.6c.35 0 .633-.283.633-.633a.63.63 0 0 0-.633-.633h-2.49l1.873-1.687c.206.124.447.189.693.189.7 0 1.266-.522 1.266-1.166S18.375 2 17.676 2zM12 3.52c-.988 0-1.79.738-1.79 1.65s.802 1.65 1.79 1.65c.987 0 1.787-.738 1.787-1.65s-.8-1.65-1.787-1.65m-1.83 4.238c-1.12 0-2.022.901-2.022 2.021v5.971c0 1.012.737 1.843 1.705 1.994v-2.342c0-1.067.958-1.925 2.147-1.925s2.146.858 2.146 1.925v2.342a2.014 2.014 0 0 0 1.705-1.994V9.78c0-1.12-.901-2.022-2.021-2.022zM12 14.463a1.22 1.22 0 0 0-1.225 1.223v5.09c0 .678.546 1.224 1.225 1.224.678 0 1.224-.546 1.224-1.225v-5.09A1.22 1.22 0 0 0 12 14.464z"/></svg>