<svg xmlns="http://www.w3.org/2000/svg" viewBox="0 0 24 24"><path d="M4.79 3c-.953 0-1.754.801-1.754 1.753v4.61c0 .952.801 1.753 1.753 1.753h4.574c.952 0 1.753-.801 1.753-1.753v-4.61c0-.952-.801-1.753-1.753-1.753zm9.847 0c-.952 0-1.753.801-1.753 1.753v4.61c0 .952.801 1.753 1.753 1.753h4.574c.952 0 1.753-.801 1.753-1.753v-4.61c0-.952-.801-1.753-1.753-1.753zM5.28 5.244h3.592v3.628H5.28zm9.848 0h3.592v3.628h-3.592zm-10.34 7.64c-.951 0-1.753.801-1.753 1.753v4.61c0 .952.802 1.753 1.754 1.753h4.574c.951 0 1.753-.801 1.753-1.753v-4.61c0-.952-.802-1.753-1.753-1.753zm9.848 0c-.951 0-1.753.801-1.753 1.753v4.61c0 .952.802 1.753 1.753 1.753h4.574c.952 0 1.753-.801 1.753-1.753v-4.61c0-.952-.8-1.753-1.753-1.753zM5.28 15.128h3.593v3.628H5.279zm9.848 0h3.593v3.628h-3.593z"/></svg>