<svg xmlns="http://www.w3.org/2000/svg" viewBox="0 0 24 24"><path d="M6.289 6.675c-.676 0-1.34.078-1.989.234-.65.156-1.273.39-1.871.702a.671.671 0 0 0-.322.291.835.835 0 0 0-.107.41v9.395c0 .3.127.526.38.682s.516.163.79.02c.48-.26.984-.462 1.51-.604a6.11 6.11 0 0 1 1.608-.215c.78 0 1.534.138 2.262.41a7.48 7.48 0 0 1 2.027 1.15A7.477 7.477 0 0 1 12.604 18a6.391 6.391 0 0 1 2.261-.41c.546 0 1.082.072 1.609.215a7.06 7.06 0 0 1 1.51.604.75.75 0 0 0 .79-.02.753.753 0 0 0 .38-.682v-6.68h-5.388v-1.03h5.388v-.515h-5.388V8.453h5.388v-.142a.83.83 0 0 0-.09-.373h-5.298v-1.03h3.088a8.492 8.492 0 0 0-4.202.06 8.4 8.4 0 0 0-2.075.876 8.399 8.399 0 0 0-4.289-1.17zm0 2.728a6.839 6.839 0 0 1 2.729.546v1.326a6.286 6.286 0 0 0-1.307-.516 5.403 5.403 0 0 0-1.423-.186c-.35 0-.685.03-1.003.088a5.547 5.547 0 0 0-.946.264V9.677c.311-.078.631-.143.956-.195.325-.052.656-.079.993-.079zm0 2.145a6.839 6.839 0 0 1 2.729.546v1.325a6.286 6.286 0 0 0-1.307-.516 5.403 5.403 0 0 0-1.423-.186c-.35 0-.685.03-1.003.089a5.547 5.547 0 0 0-.946.263V11.82c.311-.078.631-.143.956-.195.325-.051.656-.078.993-.078zm0 2.144a6.839 6.839 0 0 1 2.729.546v1.325a5.399 5.399 0 0 0-1.307-.526 5.686 5.686 0 0 0-1.423-.176 5.547 5.547 0 0 0-1.95.352v-1.248c.312-.078.632-.142.957-.194.325-.052.656-.079.993-.079z" opacity=".75"/><path d="M19.942 11.026h-6.175v-1.03h6.175zm0-1.544h-6.175v-1.03h6.175zm0-1.544h-6.175V6.91h6.175zm1.03 5.146q.424 0 .726-.302t.302-.727V5.88q0-.425-.302-.727-.302-.303-.727-.303h-8.234q-.424 0-.727.303-.302.302-.302.727v9.263l2.058-2.059z"/></svg>