<svg xmlns="http://www.w3.org/2000/svg" viewBox="0 0 24 24"><path d="M6.289 6.675q-1.015 0-1.989.234t-1.871.702a.67.67 0 0 0-.322.291.84.84 0 0 0-.107.41v9.395q0 .449.38.682c.38.233.516.163.79.02q.72-.39 1.51-.604a6.1 6.1 0 0 1 1.608-.215q1.17.001 2.262.41a7.5 7.5 0 0 1 2.027 1.15A7.5 7.5 0 0 1 12.604 18a6.4 6.4 0 0 1 2.261-.41q.819 0 1.609.215a7 7 0 0 1 1.51.604.75.75 0 0 0 .79-.02.75.75 0 0 0 .38-.682v-6.68h-5.388v-1.03h5.388v-.515h-5.388V8.453h5.388v-.142a.8.8 0 0 0-.09-.373h-5.298v-1.03h3.088a8.5 8.5 0 0 0-4.202.06 8.4 8.4 0 0 0-2.075.876 8.4 8.4 0 0 0-4.289-1.17zm0 2.728a6.8 6.8 0 0 1 2.729.546v1.326a6.3 6.3 0 0 0-1.307-.516 5.4 5.4 0 0 0-1.423-.186q-.526 0-1.003.088a5.6 5.6 0 0 0-.946.264V9.677q.468-.117.956-.195.487-.079.993-.079zm0 2.145a6.8 6.8 0 0 1 2.729.546v1.325a6.3 6.3 0 0 0-1.307-.516 5.4 5.4 0 0 0-1.423-.186q-.526 0-1.003.089a5.6 5.6 0 0 0-.946.263V11.82q.468-.117.956-.195.487-.077.993-.078zm0 2.144a6.8 6.8 0 0 1 2.729.546v1.325a5.4 5.4 0 0 0-1.307-.526 5.7 5.7 0 0 0-1.423-.176 5.6 5.6 0 0 0-1.95.352v-1.248q.469-.116.957-.194.487-.079.993-.079z" opacity=".75"/><path d="M19.942 11.026h-6.175v-1.03h6.175zm0-1.544h-6.175v-1.03h6.175zm0-1.544h-6.175V6.91h6.175zm1.03 5.146q.424 0 .726-.302t.302-.727V5.88q0-.425-.302-.727-.302-.303-.727-.303h-8.234q-.424 0-.727.303-.302.302-.302.727v9.263l2.058-2.059z"/></svg>