<svg xmlns="http://www.w3.org/2000/svg" width="192" height="192" viewBox="0 0 192 192"><path d="M34.319 19c-8.153 0-15.006 6.853-15.006 14.998v39.441c0 8.145 6.853 14.998 14.998 14.998h39.133c8.145 0 14.998-6.853 14.998-14.998V33.998C88.442 25.853 81.589 19 73.444 19zm84.247 0c-8.145 0-14.998 6.853-14.998 14.998v39.441c0 8.145 6.853 14.998 14.998 14.998h39.133c8.145 0 14.998-6.853 14.998-14.998V33.998c0-8.145-6.853-14.998-14.998-14.998zM38.512 38.199h30.732v31.04H38.512zm84.255 0h30.732v31.04h-30.732zm-88.464 65.364c-8.136 0-14.998 6.853-14.998 14.998v39.441c0 8.145 6.862 14.998 15.006 14.998h39.133c8.136 0 14.998-6.853 14.998-14.998v-39.441c0-8.145-6.862-14.998-14.998-14.998zm84.255 0c-8.136 0-14.998 6.853-14.998 14.998v39.441c0 8.145 6.862 14.998 14.998 14.998h39.133c8.145 0 14.998-6.853 14.998-14.998v-39.441c0-8.145-6.844-14.998-14.998-14.998zm-80.046 19.199h30.74v31.04H38.503zm84.255 0h30.74v31.04h-30.74z"/></svg>