<svg xmlns="http://www.w3.org/2000/svg" viewBox="0 0 24 24"><path stroke="#000" stroke-width=".6" d="M13.069 21.5h2.894a.05.05 0 0 0 .048-.035l1.979-6.431c.003-.01-.009-.017-.016-.011L14 18.5l-.978 2.934a.05.05 0 0 0 .047.066Z"/><path fill="none" stroke="#000" stroke-width="3" d="M12 6.5a5.507 5.507 0 0 0-3.233 1.05A5.501 5.501 0 1 0 12 6.5Z"/><path stroke="#000" stroke-width=".6" d="M10.931 2.5H8.037a.05.05 0 0 0-.048.035L6.01 8.966c-.003.01.009.017.017.011L10 5.5l.978-2.934a.05.05 0 0 0-.047-.066Z"/></svg>