<svg xmlns="http://www.w3.org/2000/svg" width="192" height="192" viewBox="0 0 192 192"><path d="M75.128 31.652a5.2 5.2 0 0 1 5.216 5.224v118.25a5.2 5.2 0 0 1-5.216 5.224 5.2 5.2 0 0 1-5.216-5.224V36.886a5.2 5.2 0 0 1 5.216-5.224zm57.4 27.832a5.2 5.2 0 0 1 5.216 5.216v59.128a5.2 5.2 0 0 1-5.216 5.224 5.2 5.2 0 0 1-5.224-5.224V64.7a5.2 5.2 0 0 1 5.224-5.216m-38.264 0A5.2 5.2 0 0 1 99.48 64.7v59.128a5.2 5.2 0 0 1-5.216 5.224 5.2 5.2 0 0 1-5.224-5.224V64.7a5.2 5.2 0 0 1 5.224-5.216m-36.528 0A5.2 5.2 0 0 1 62.96 64.7v59.128a5.2 5.2 0 0 1-5.224 5.224 5.2 5.2 0 0 1-5.216-5.224V64.7a5.2 5.2 0 0 1 5.216-5.216m93.92 22.608a5.2 5.2 0 0 1 5.216 5.216V104.7a5.2 5.2 0 0 1-5.216 5.216 5.2 5.2 0 0 1-5.216-5.216V87.308a5.2 5.2 0 0 1 5.216-5.216m-38.264 0a5.2 5.2 0 0 1 5.216 5.216V104.7a5.2 5.2 0 0 1-5.216 5.216 5.2 5.2 0 0 1-5.216-5.216V87.308a5.2 5.2 0 0 1 5.216-5.216m-74.784 0a5.2 5.2 0 0 1 5.216 5.216V104.7a5.2 5.2 0 0 1-5.216 5.216 5.2 5.2 0 0 1-5.216-5.216V87.308a5.2 5.2 0 0 1 5.216-5.216m137.39 13.912a5.2 5.2 0 0 1-5.216 5.208 5.2 5.2 0 0 1-5.216-5.216 5.2 5.2 0 0 1 5.216-5.216 5.2 5.2 0 0 1 5.216 5.224m-149.57 0a5.2 5.2 0 0 1-5.216 5.208 5.2 5.2 0 0 1-5.216-5.208 5.2 5.2 0 0 1 5.216-5.216 5.2 5.2 0 0 1 5.216 5.216"/></svg>