<svg xmlns="http://www.w3.org/2000/svg" width="24" height="24" fill="none" viewBox="0 0 24 24"><path d="M9.391 3.956a.65.65 0 0 1 .652.653V19.39a.65.65 0 0 1-.652.653.65.65 0 0 1-.652-.653V4.61a.65.65 0 0 1 .652-.653zm7.175 3.479a.65.65 0 0 1 .652.652v7.391a.65.65 0 0 1-.652.653.65.65 0 0 1-.653-.653V8.087a.65.65 0 0 1 .653-.652m-4.783 0a.65.65 0 0 1 .652.652v7.391a.65.65 0 0 1-.652.653.65.65 0 0 1-.653-.653V8.087a.65.65 0 0 1 .653-.652m-4.566 0a.65.65 0 0 1 .653.652v7.391a.65.65 0 0 1-.653.653.65.65 0 0 1-.652-.653V8.087a.65.65 0 0 1 .652-.652m11.74 2.826a.65.65 0 0 1 .652.652v2.174a.65.65 0 0 1-.652.652.65.65 0 0 1-.652-.652v-2.174a.65.65 0 0 1 .652-.652m-4.783 0a.65.65 0 0 1 .652.652v2.174a.65.65 0 0 1-.652.652.65.65 0 0 1-.652-.652v-2.174a.65.65 0 0 1 .652-.652m-9.348 0a.65.65 0 0 1 .652.652v2.174a.65.65 0 0 1-.652.652.65.65 0 0 1-.652-.652v-2.174a.65.65 0 0 1 .652-.652M22 12a.652.652 0 0 1-.652.651.652.652 0 0 1-.652-.652.652.652 0 0 1 .652-.652A.652.652 0 0 1 22 12M3.304 12a.652.652 0 0 1-.652.651A.652.652 0 0 1 2 12a.652.652 0 0 1 .652-.652.652.652 0 0 1 .652.652" style="fill:#000;stroke-width:1.21741"/></svg>