<svg xmlns="http://www.w3.org/2000/svg" width="192" height="192" viewBox="0 0 192 192"><path d="M96 19a77 77 0 0 0-67.563 40.468c10.703 10.241 21.218 20.704 31.81 31.091l65.972-65.364a77 77 0 0 0-30.218-6.194m34.102 7.982c-10.592 10.335-21.072 20.8-31.596 31.22l68.231 67.964A77 77 0 0 0 173.001 96a77 77 0 0 0-42.898-69.018m-34.393 34-32.64 32.34 35.73 35.061 32.648-31.81zm-69.197 2.002A77 77 0 0 0 19 96.008a77 77 0 0 0 42.555 68.701c11.422-11.242 22.937-22.39 34.419-33.572zm107.72 36.387L65.3 166.532A77 77 0 0 0 95.998 173a77 77 0 0 0 68.949-43c-10.207-10.232-20.473-20.422-30.714-30.629"/></svg>