<svg xmlns="http://www.w3.org/2000/svg" viewBox="0 0 24 24"><path d="M20.936 7.13c-.5-.916-1.143-1.44-1.833-1.51-6.476-.608-14.737.832-16.427 2.392-.738.678-.87 2.273-.405 4.88.321 1.822.821 3.452.833 3.524l.107.357 2.06-.226a2.321 2.321 0 0 0 4.618-.345c0-.06 0-.108-.011-.167l4.88-.56v.048a2.324 2.324 0 0 0 2.321 2.321 2.324 2.324 0 0 0 2.322-2.32c0-.191-.024-.382-.072-.56l2.083-.238.108-.227c.833-1.714.547-5.297-.584-7.368zM7.568 17.607c-.774 0-1.405-.631-1.405-1.405s.631-1.405 1.405-1.405 1.405.631 1.405 1.405-.631 1.405-1.405 1.405m9.5-.667c-.774 0-1.405-.63-1.405-1.404s.63-1.405 1.404-1.405c.774 0 1.405.63 1.405 1.405s-.631 1.404-1.405 1.404m3.713-3.059-1.892.214a2.157 2.157 0 0 0-.512-.476 2.247 2.247 0 0 0-1.31-.405c-.714 0-1.369.334-1.785.846-.131.142-.25.309-.37.488l-5.285.595a2.099 2.099 0 0 0-.166-.274c-.012-.012-.012-.024-.024-.036a2.344 2.344 0 0 0-1.869-.952c-.595 0-1.13.226-1.536.583a2.465 2.465 0 0 0-.761 1.155l-1.405.155c-.75-2.607-1.393-6.333-.571-7.095 1.13-1.047 6.928-2.297 12.594-2.297 1.059 0 2.107.047 3.118.142.381.048.786.417 1.131 1.048.929 1.702 1.226 4.773.643 6.309zM5.377 10.44a.886.886 0 0 0-.535-.155c-.143 0-.262.024-.37.06a.917.917 0 0 0-.25.166v1.881h-.785V9.606l.786-.047v.274l.25-.155c.083-.048.166-.083.273-.12a.845.845 0 0 1 .286-.047c.095 0 .167 0 .214.012.06.012.096.024.131.036zm2.238.31a.79.79 0 0 0-.238-.477.623.623 0 0 0-.44-.155c-.203 0-.357.06-.465.179a.823.823 0 0 0-.19.464h1.333zm.738.368h-2.06c.048.226.132.393.263.488.13.096.297.155.488.155.154 0 .321-.024.512-.071.19-.048.333-.107.44-.179v.702c-.107.072-.25.131-.464.167-.203.036-.37.06-.488.06-.488 0-.881-.131-1.155-.405s-.417-.631-.417-1.083.143-.822.429-1.096c.286-.273.63-.416 1.06-.416s.761.155 1.011.452c.25.298.381.714.381 1.226zm2.25.417v-1.226a.484.484 0 0 0-.214-.143.909.909 0 0 0-.322-.06c-.214 0-.38.06-.476.19-.107.132-.155.334-.155.608 0 .286.06.488.167.63.107.144.262.203.452.203a.909.909 0 0 0 .322-.06.614.614 0 0 0 .226-.142zm.774.857h-.595l-.167-.262-.417.226a.396.396 0 0 1-.154.048c-.072.012-.12.012-.167.012-.405 0-.714-.131-.929-.417-.214-.274-.321-.619-.321-1.035 0-.453.13-.81.38-1.072.263-.262.596-.393 1.013-.393.119 0 .226.012.321.024a.718.718 0 0 1 .262.107V8.404h.774zm2.666-1.262c0-.202-.06-.357-.166-.452a.654.654 0 0 0-.44-.143h-.548v1.19h.619c.178 0 .321-.047.404-.154.084-.096.131-.25.131-.44zM13.9 9.618a.521.521 0 0 0-.142-.38.53.53 0 0 0-.393-.143h-.476v1.07h.523c.155 0 .274-.047.357-.142.096-.107.131-.238.131-.405zm1.024 1.62c0 .345-.107.63-.333.833-.226.214-.512.31-.857.31h-1.702V8.415h1.666c.31 0 .571.083.762.262.202.178.297.417.297.726 0 .25-.06.44-.178.595-.12.155-.298.238-.536.274.238.036.44.143.62.31.178.166.261.38.261.654zm3.095 1.154h-.786v-.31l-.333.191c-.095.048-.19.095-.286.119a1.395 1.395 0 0 1-.32.048c-.275 0-.489-.084-.656-.25-.154-.167-.238-.393-.238-.679V9.618h.786v1.715c0 .107.036.19.107.273.071.084.19.12.333.12a.662.662 0 0 0 .357-.084.74.74 0 0 0 .227-.167V9.607h.785v2.785zm2.738-.952a.948.948 0 0 1-.321.738 1.233 1.233 0 0 1-.81.274c-.155 0-.333-.012-.536-.048a1.93 1.93 0 0 1-.559-.179v-.702c.13.071.274.131.44.19.167.048.346.084.572.084.155 0 .274-.024.369-.06.095-.047.143-.119.143-.238a.216.216 0 0 0-.12-.19c-.083-.048-.214-.084-.416-.095-.357-.024-.595-.12-.738-.262-.143-.143-.214-.334-.214-.572 0-.274.107-.488.321-.666.214-.179.488-.262.798-.262.143 0 .285.012.44.035.155.024.286.048.405.096v.714a1.993 1.993 0 0 0-.405-.131 2.495 2.495 0 0 0-.44-.048.656.656 0 0 0-.298.06c-.071.047-.107.095-.107.143 0 .107.048.178.155.202.095.036.202.06.321.06.333.023.595.107.762.25a.825.825 0 0 1 .238.607z"/></svg>