<svg xmlns="http://www.w3.org/2000/svg" viewBox="0 0 24 24"><path d="M16.573 3.256a2.082 2.082 0 0 0-2.039 1.66 3.36 3.36 0 0 0-2.998 3.339v.01c-1.83.077-3.503.598-4.83 1.42a2.894 2.894 0 0 0-1.78-.61 2.914 2.914 0 0 0-1.238 5.558c.096 3.386 3.785 6.11 8.324 6.11 4.537 0 8.232-2.727 8.324-6.116a2.916 2.916 0 1 0-3.027-4.947c-1.338-.829-3.03-1.347-4.879-1.417v-.008a2.465 2.465 0 0 1 2.117-2.437 2.08 2.08 0 1 0 2.026-2.562m-8.415 8.716c.816 0 1.44.859 1.392 1.917-.049 1.058-.658 1.442-1.476 1.442s-1.533-.43-1.484-1.488c.05-1.059.751-1.87 1.567-1.87zm7.708 0c.817 0 1.519.812 1.567 1.87.049 1.058-.667 1.489-1.484 1.489-.816 0-1.427-.383-1.476-1.442-.049-1.058.574-1.916 1.392-1.916zm-3.854 4.178a28.881 28.881 0 0 1 2.882.14.231.231 0 0 1 .191.317 3.33 3.33 0 0 1-3.073 2.045 3.33 3.33 0 0 1-3.074-2.045.231.231 0 0 1 .191-.317c.898-.09 1.869-.14 2.883-.14"/></svg>