<svg xmlns="http://www.w3.org/2000/svg" width="24" height="24" fill="none" viewBox="0 0 24 24"><path fill="#000" d="M22 12.143a2.184 2.184 0 0 0-2.186-2.186 2.2 2.2 0 0 0-1.524.61c-1.505-1.076-3.566-1.775-5.86-1.864l1.004-4.696 3.261.7a1.56 1.56 0 1 0 1.56-1.63 1.554 1.554 0 0 0-1.398.876l-3.638-.77a.381.381 0 0 0-.287.054.348.348 0 0 0-.161.25L11.659 8.72c-2.33.072-4.426.771-5.95 1.864a2.201 2.201 0 0 0-1.523-.61 2.184 2.184 0 0 0-.896 4.177c-.036.215-.053.43-.053.663 0 3.369 3.924 6.11 8.763 6.11s8.763-2.723 8.763-6.11c0-.215-.017-.448-.053-.663A2.207 2.207 0 0 0 22 12.143m-15.018 1.56a1.56 1.56 0 0 1 3.118 0 1.56 1.56 0 0 1-1.559 1.559c-.86.018-1.559-.7-1.559-1.56m8.728 4.14c-1.076 1.075-3.119 1.146-3.71 1.146-.61 0-2.652-.09-3.71-1.147a.4.4 0 0 1 0-.573.4.4 0 0 1 .574 0c.68.68 2.114.914 3.136.914 1.022 0 2.473-.233 3.136-.914a.4.4 0 0 1 .574 0 .436.436 0 0 1 0 .573zm-.287-2.563a1.56 1.56 0 0 1 0-3.119c.86 0 1.56.7 1.56 1.56 0 .842-.7 1.559-1.56 1.559" style="stroke-width:.909091"/></svg>