<svg xmlns="http://www.w3.org/2000/svg" viewBox="0 0 24 24"><path d="m2.868 2 9.44.2h.002c3.132.002 5.385 2.324 5.271 4.906v.002c-.032 1.47-.457 2.471-1.122 3.254-.665.784-1.576 1.35-2.586 1.927l-.07.04.042.068c1.61 2.632 3.092 5.663 5.446 7.864.383.35.769.724 1.662.97a1.5 1.5 0 0 1-.076.288 2 2 0 0 0-.084.297c-1.37.074-2.682-.01-3.555-.405-.883-.48-1.559-.84-3.197-3.24h-.001l-.002-.003-2.375-3.98-.002-.002c-.469-.65-1.133-1.043-2.007-1.068H8.367v5.165c.022.71-.084 1.378.214 1.888.149.255.401.462.804.6.384.131.93.195 1.647.2v.873H3.024v-.802c.66-.013 1.179-.086 1.553-.227.393-.148.653-.363.817-.627.329-.526.28-1.217.277-1.943L5.654 4.68c-.027-.73-.261-1.17-.588-1.42-.326-.251-.73-.31-1.09-.315h-.953v-.866l-.078.079zm0 0v1.099h1.107c.343.005.711.064.997.283.285.22.5.602.526 1.3l.018 13.563c.002.732.038 1.392-.253 1.86-.146.234-.373.426-.74.564-.369.14-.879.221-1.578.228h-.077V22h8.32v-1.173h-.079c-.76 0-1.298-.074-1.675-.203-.376-.13-.59-.31-.72-.53-.257-.443-.168-1.087-.19-1.813v-5.007h1.125c.83.023 1.44.385 1.885 1.003l2.374 3.977.001.002c1.65 2.418 2.373 2.812 3.258 3.294l.003.001.003.001c.93.421 2.28.5 3.682.421l.064-.004.01-.062c.025-.163.057-.24.093-.331s.074-.195.1-.38l.01-.069-.067-.016c-.934-.238-1.267-.596-1.668-.963v-.001c-2.307-2.156-3.78-5.14-5.38-7.765.985-.565 1.89-1.13 2.561-1.919.686-.808 1.125-1.852 1.158-3.35V7.11c.117-2.675-2.217-5.065-5.426-5.067zm7.402 1.03c-.51-.005-.977.061-1.328.225-.35.164-.59.439-.602.821v8.2h2.16a4.47 4.47 0 0 0 2.536-.885c.84-.635 1.522-1.67 1.595-3.244v-.002l-.005-1.236c-.048-1.449-.768-2.79-1.93-3.391l-.003-.002-.003-.002a7 7 0 0 0-2.42-.484m-.002.156c.77.007 1.655.187 2.36.471 1.099.57 1.795 1.858 1.842 3.256l.005 1.226c-.07 1.534-.725 2.517-1.533 3.128-.807.61-1.77.842-2.443.852H8.496V4.082c.01-.323.195-.538.512-.686s.764-.215 1.26-.21M2.946 2.078v.943h1.029c.702.012 1.549.232 1.601 1.66l.018 13.564c.004 1.457.17 2.704-2.648 2.73v.946h8.164v-1.017c-3.058.001-2.62-1.186-2.665-2.624v-5.084h1.207c.851.024 1.488.4 1.945 1.034l2.377 3.982c1.647 2.412 2.345 2.787 3.23 3.27.908.41 2.25.492 3.647.413.052-.339.144-.354.194-.71-.949-.24-1.303-.616-1.701-.981-2.34-2.188-3.82-5.211-5.433-7.848 2.022-1.157 3.682-2.277 3.747-5.247.116-2.628-2.178-4.985-5.349-4.986zm7.323 1.03c.782.008 1.676.19 2.392.478 1.131.586 1.84 1.9 1.887 3.325l.005 1.231c-.144 3.11-2.676 4.035-4.054 4.055H8.418V4.08c.023-.705.845-.982 1.85-.971z"/></svg>