<svg version="1.1" viewBox="0 0 192 192" xmlns="http://www.w3.org/2000/svg"><path d="m159.39 139.73c8.5855-12.421 13.614-27.489 13.614-43.731 0-42.526-34.474-77-77-77-42.526 0-77 34.474-77 77 0 42.526 34.474 77 77 77 16.243 0 31.31-5.0289 43.731-13.614l-15.184-17.657c-8.2778 5.1787-18.062 8.1716-28.546 8.1716-29.768 0-53.9-24.132-53.9-53.9 0-29.768 24.132-53.9 53.9-53.9s53.9 24.132 53.9 53.9c0 10.484-2.993 20.269-8.1716 28.546zm-63.386-74.531a30.8 30.8 0 0 0-30.8 30.8 30.8 30.8 0 0 0 30.8 30.8 30.8 30.8 0 0 0 30.8-30.8 30.8 30.8 0 0 0-30.8-30.8z"/></svg>
