<svg xmlns="http://www.w3.org/2000/svg" width="192" height="192" viewBox="0 0 192 192"><path d="M159.39 139.73c8.586-12.421 13.614-27.489 13.614-43.731 0-42.526-34.474-77-77-77s-77 34.474-77 77 34.474 77 77 77c16.243 0 31.31-5.029 43.731-13.614l-15.184-17.657c-8.278 5.179-18.062 8.172-28.546 8.172-29.768 0-53.9-24.132-53.9-53.9s24.132-53.9 53.9-53.9 53.9 24.132 53.9 53.9c0 10.484-2.993 20.269-8.172 28.546zM96.004 65.199a30.8 30.8 0 0 0-30.8 30.8 30.8 30.8 0 0 0 30.8 30.8 30.8 30.8 0 0 0 30.8-30.8 30.8 30.8 0 0 0-30.8-30.8"/></svg>