<svg xmlns="http://www.w3.org/2000/svg" viewBox="0 0 24 24"><path d="M3.74 7.89A1.74 1.74 0 0 0 2 9.63a1.74 1.74 0 0 0 1.74 1.74 1.74 1.74 0 0 0 1.74-1.74 1.74 1.74 0 0 0-1.74-1.74m16.52 0a1.74 1.74 0 0 0-1.74 1.74 1.74 1.74 0 0 0 1.74 1.74A1.74 1.74 0 0 0 22 9.63a1.74 1.74 0 0 0-1.74-1.74m-9.795 3.866c-3.107.003-3.026.037-3.261.386-.182.27-.171 1.03.02 1.448 1.503 3.295 7.991 3.423 9.554 0 .19-.417.2-1.179.02-1.448-.236-.349-.155-.383-3.262-.386zm1.536 2.177a2.182 1 0 0 1 2.181 1 2.182 1 0 0 1-2.181 1 2.182 1 0 0 1-2.182-1 2.182 1 0 0 1 2.182-1"/><path d="M14.182 14.933a2.182 1 0 0 1-2.182 1 2.182 1 0 0 1-2.182-1 2.182 1 0 0 1 2.182-1 2.182 1 0 0 1 2.182 1" opacity=".6"/></svg>