<svg xmlns="http://www.w3.org/2000/svg" width="192" height="192" viewBox="0 0 192 192"><path d="M29.92 63.122A13.92 13.92 0 0 0 16 77.042a13.92 13.92 0 0 0 13.92 13.92 13.92 13.92 0 0 0 13.92-13.92 13.92 13.92 0 0 0-13.92-13.92m132.16 0a13.92 13.92 0 0 0-13.92 13.92 13.92 13.92 0 0 0 13.92 13.92A13.92 13.92 0 0 0 176 77.042a13.92 13.92 0 0 0-13.92-13.92M83.72 94.05c-24.856.024-24.208.296-26.088 3.088-1.456 2.16-1.368 8.24.16 11.584 12.024 26.36 63.928 27.384 76.432 0 1.52-3.336 1.6-9.432.16-11.584-1.888-2.792-1.24-3.064-26.096-3.088zm12.288 17.416a17.456 8 0 0 1 17.448 8 17.456 8 0 0 1-17.448 8 17.456 8 0 0 1-17.456-8 17.456 8 0 0 1 17.456-8"/><path d="M113.46 119.47a17.456 8 0 0 1-17.456 8 17.456 8 0 0 1-17.456-8 17.456 8 0 0 1 17.456-8 17.456 8 0 0 1 17.456 8" opacity=".6"/></svg>