<svg xmlns="http://www.w3.org/2000/svg" viewBox="0 0 24 24"><path d="m6.715 16.052.025.995h1.184v.785H5.99v-1.78zm2.786.282c.01.01-.023.414-.023.414-.04.376-.038.395.048.415.049.012 1.689.26 3.644.553 2.372.355 3.566.516 3.585.484.015-.027.074-.38.13-.783.057-.405.116-.759.133-.786l.697.133-.145 1.145c-.09.658-.17 1.2-.177 1.208-.016.016-8.731-1.284-8.769-1.31-.015-.009.12-1.115.177-1.518l.7.045m6.397-5.542-.33-.726-.726-.33.726-.33.33-.726.33.726.725.33-.726.33-.329.726m5.45-.459a.628.628 0 1 0 0-1.255.628.628 0 0 0 0 1.255m-13.243.98c.658.219 1.04.775 1.082 1.578l.023.41H6.683c-.014.037.023.172.06.247l.017.03c.155.318.553.488.97.417.276-.048.39-.104.567-.28l.132-.13.264.208c.144.116.303.24.35.277.086.067.079.078-.182.34-.393.391-.592.493-1.266.497-.508.001-.585-.017-.86-.159a1.862 1.862 0 0 1-.82-.836c-.113-.245-.16-.308-.16-.823 0-.478.052-.581.137-.778.385-.875 1.316-1.295 2.213-.997m-.998.826c-.181.088-.387.382-.387.493h1.51a.833.833 0 0 0-.085-.243c-.18-.311-.664-.427-1.038-.25m2.53 2.786h.964l.01-1.173c.013-.975.025-1.142.094-1.274.207-.401.765-.453.964-.088.038.07.061.455.077 1.28l.017 1.253h.957v-1.148c.015-1.224.046-1.368.318-1.544.167-.106.455-.112.591-.011.211.154.24.326.26 1.531v1.173h.917l.015-1.245c0-1.292-.034-1.557-.24-1.9-.398-.665-1.333-.758-1.875-.187l-.207.218-.141-.184a1.186 1.186 0 0 0-.366-.294.977.977 0 0 0-.488-.108c-.355.005-.497.055-.716.253l-.185.166v-.33h-.966v3.612m5.789 0h.956l.021-3.612h-.968l-.01 3.612m1.636 0h.92l.01-1.128c.014-1.016.02-1.086.115-1.272.134-.266.321-.38.617-.38.199 0 .253.019.358.13.193.202.22.399.22 1.547v1.103h.95l.008-1.023c.015-1.132-.034-1.638-.19-1.974a1.256 1.256 0 0 0-.67-.636c-.209-.076-.654-.09-.846-.029a1.09 1.09 0 0 0-.448.272l-.12.118v-.341h-.924zm3.822 0h.923v-3.612h-.923v3.612M4.095 9.836c.517.088.913.392 1.112.853.078.18.1.316.1.625 0 .347-.014.42-.126.635-.137.262-.282.398-.607.572l-.209.112.833 1.085c.459.598.834 1.101.835 1.12a.588.588 0 0 1 .063.087H4.917l-.86-1.115c-.702-.916-.829-1.062-.933-1.062l-.12-.001v2.178h-.99l-.011-2.549c-.007-1.36-.002-2.5.01-2.53.026-.075 1.665-.081 2.082-.01m-1.092.912v1.082h.85a.408.408 0 0 0 .34-.182c.212-.25.15-.658-.121-.797-.072-.036-.326-.07-.597-.083l-.472-.02m16.103-4.51c-.01-.01-1.942-.308-4.293-.662a735.88 735.88 0 0 1-4.39-.668l-.114-.026-.294 2.21c-.162 1.215-.312 2.373-.325 2.44 0 0 .383.053.757.11.01-.01.127-.868.26-1.907.135-1.04.254-1.9.266-1.913.02-.02 7.23 1.051 7.267 1.08.007.006-.06.597-.15 1.311-.088.715-.154 1.31-.143 1.32.029.03.695.13.717.108.027-.028.463-3.382.442-3.403m-9.844.013.026-.81H5.99v4.161h.753s-.006-1.732-.006-2.308V6.251z"/></svg>