<svg xmlns="http://www.w3.org/2000/svg" width="192" height="192" viewBox="0 0 192 192"><path d="M32.423 173.64c-2.04-2.04-2.536-3.304-3.632-9.28-4.344-23.601-5.84-50.226-3.744-66.658 2.792-21.81 8.752-36.465 19.56-48.082 12.145-13.056 25.09-21.561 44.787-29.377 15.04-5.969 30.849-5.633 44.458.96 6.736 3.256 15.609 12.312 19.169 19.553 5.256 10.72 7.32 23.777 5.28 33.425-3.768 17.857-18.601 31.857-44.634 42.16-3.76 1.48-6 2.769-6 3.44 0 1.713 12.032 15.89 16.977 20.002 9.176 7.64 13.856 8.104 25.08 2.464 8.385-4.208 11.36-4.4 15.122-.952 5.36 4.92 3.512 13.488-4.496 20.809-4.112 3.76-7.68 5.16-14.496 5.696-12.2.96-29.025-11.92-47.482-36.369l-5.16-6.84h-8.593c-7.216 0-9.472-.28-14.112-1.816-6.92-2.28-11.872-5.64-13.76-9.329-1.888-3.712-1.824-6.48.216-9.52 7.168-10.64 36.857-10.536 42.385.152 1.04 2 1.424 2.208 3.472 1.8 6.376-1.264 20.953-12.84 26.721-21.225 6.24-9.08 8.04-21.737 4.128-29.169-2.352-4.48-5.36-7.04-11.096-9.464-14.472-6.104-27.017-6.064-40.129.12-9.648 4.552-14.649 10.6-22.8 27.601-8.177 17.033-12.673 30.697-14.922 45.37-1.232 8.032-1.424 27.841-.344 35.073 2.112 14.072-.48 21.817-7.304 21.817-1.6 0-2.984-.696-4.64-2.36z"/></svg>