<svg xmlns="http://www.w3.org/2000/svg" viewBox="0 0 24 24"><path d="M4.053 21.704c-.255-.255-.317-.413-.454-1.16-.543-2.95-.73-6.278-.468-8.332.349-2.726 1.094-4.558 2.445-6.01C7.094 4.57 8.712 3.507 11.174 2.53c1.88-.746 3.856-.704 5.557.12.842.407 1.951 1.539 2.396 2.444.657 1.34.915 2.972.66 4.178-.471 2.232-2.325 3.982-5.579 5.27-.47.185-.75.346-.75.43 0 .214 1.504 1.986 2.122 2.5 1.147.955 1.732 1.013 3.135.308 1.048-.526 1.42-.55 1.89-.119.67.615.439 1.686-.562 2.601-.514.47-.96.645-1.812.712-1.525.12-3.628-1.49-5.935-4.546l-.645-.855h-1.074c-.902 0-1.184-.035-1.764-.227-.865-.285-1.484-.705-1.72-1.166-.236-.464-.228-.81.027-1.19.896-1.33 4.607-1.317 5.298.019.13.25.178.276.434.225.797-.158 2.619-1.605 3.34-2.653.78-1.135 1.005-2.717.516-3.646-.294-.56-.67-.88-1.387-1.183-1.809-.763-3.377-.758-5.016.015-1.206.569-1.831 1.325-2.85 3.45-1.022 2.129-1.584 3.837-1.865 5.671-.154 1.004-.178 3.48-.043 4.384.264 1.759-.06 2.727-.913 2.727-.2 0-.373-.087-.58-.295z"/></svg>