<svg xmlns="http://www.w3.org/2000/svg" viewBox="0 20 24 24"><path d="M13.193 22.01a1.579 1.579 0 0 0-.94.451l-1.222 1.22-.006-.003a.197.197 0 0 0-.28 0l-.898.9a.195.195 0 0 0 0 .278l3.244 3.245a.197.197 0 0 0 .28 0l.332-.332a6.33 6.33 0 0 1 .767.246 5.627 5.627 0 0 1 .514.233c.041.021.08.046.121.068a5.627 5.627 0 0 1 .363.213l.11.072a5.748 5.748 0 0 1 .841.694 9.548 9.548 0 0 1 .776.884l.094.116.015.021a.31.31 0 0 1 .028.035l.04.06c.053.079.107.163.159.249a5.747 5.746 0 0 1 .285.516c.085.174.163.36.232.537a5.71 5.71 0 0 1 .184.556 6.554 6.554 0 0 1 .008 3.486 6.423 6.423 0 0 1-.043.145 6.554 6.554 0 0 1-.074.232 5.8 5.8 0 0 1-.163.428 6.554 6.554 0 0 1-.011.027 6.487 6.487 0 0 1-4.365 3.705 6.468 6.468 0 0 1-2.008.178 6.48 6.48 0 0 1-.25-.02 6.471 6.471 0 0 1-.826-.142 6.48 6.48 0 0 1-.227-.055 6.5 6.5 0 0 1-.752-.26 6.48 6.48 0 0 1-.242-.103 6.49 6.49 0 0 1-.734-.404 6.48 6.48 0 0 1-.184-.116 6.476 6.476 0 0 1-.56-.43 6.48 6.48 0 0 1-.292-.257 6.486 6.486 0 0 1-.32-.328 6.48 6.48 0 0 1-.422-.52 6.48 6.48 0 0 1-.197-.285 6.48 6.48 0 0 1-.356-.615 6.494 6.494 0 0 1-.14-.297 6.48 6.48 0 0 1-.27-.713c-.03-.096-.053-.193-.078-.29a6.48 6.48 0 0 1-.158-.794c-.007-.056-.01-.112-.016-.168a6.48 6.48 0 0 1-.033-.906l.006-.094a6.48 6.48 0 0 1 .125-.976l.025-.111a6.5 6.5 0 0 1 .059-.243c.016-.058.031-.118.049-.177a6.527 6.527 0 0 1 .178-.522c.021-.055.045-.11.068-.164a6.35 6.35 0 0 1 .182-.394c.02-.04.043-.08.064-.12a6.35 6.35 0 0 1 .232-.402l.041-.064a6.49 6.489 0 0 1 .297-.424l.037-.05a6.49 6.489 0 0 1 .364-.427 5.82 5.82 0 0 1 .418-.414c.107-.094.211-.188.312-.283l.125-.115 1.711-1.572.967.967a97.41 97.41 0 0 0-2.381 2.337c-2.073 2.137-1.784 5.471.31 7.281l.008.006a5.123 5.123 0 0 0 .018.02 5.054 5.054 0 0 0 .129.1c.042.033.085.068.129.1a5.054 5.054 0 0 0 1.388.772 4.945 4.945 0 0 0 1.66.285c.078 0 .157 0 .23-.006a5.006 5.005 0 0 0 1.859-.457 5.073 5.073 0 0 0 2.572-2.736 4.957 4.957 0 0 0 .265-.923c.03-.156.05-.316.065-.475a3.7 3.7 0 0 0 .016-.48 5.242 5.242 0 0 0-.063-.499 5.242 5.242 0 0 0 0-.002 4.96 4.96 0 0 0-.031-.244 5.242 5.242 0 0 0-.053-.293 5.013 5.013 0 0 0-1.676-2.794 4.855 4.855 0 0 0-1.164-.76 4.544 4.543 0 0 0-.912-.297 4.612 4.612 0 0 0-.115-.014 5.01 5.01 0 0 0-.594-.09l.627-.626a.194.194 0 0 0 0-.276l-3.25-3.248a.192.192 0 0 0-.273 0l-.905.903a.194.194 0 0 0 0 .275l.026.025c-.758.69-1.549 1.514-2.336 2.307A7.994 7.994 0 1 0 14.7 26.48l.785-.786a1.578 1.578 0 0 0 0-2.232l-1.002-1.002a1.579 1.579 0 0 0-1.291-.45zm-4.469 4.117 1.028 1.027L7.74 29a6.544 6.544 0 0 0-1.486 1.824 6.581 6.581 0 0 0 0 .002 6.56 6.56 0 0 0-.336.701 6.581 6.581 0 0 0-.006.014l-.006.015a7.003 7.003 0 0 0-.193.545l-.004.018a6.593 6.593 0 0 0-.143.56l-.031.168a6.58 6.58 0 0 0-.104 1.006 5.35 5.35 0 0 0 0 .008 6.725 6.724 0 0 0 .002.047c-.002.173 0 .346.012.52a6.725 6.724 0 0 0 .014.162 6.6 6.6 0 0 0 .04.369 6.725 6.724 0 0 0 .01.09 6.647 6.647 0 0 0 .032.132c.039.214.083.43.144.64a6.647 6.647 0 0 0 .125.386c.042.118.086.235.135.351a6.647 6.647 0 0 0 1.856 2.563 6.493 6.493 0 0 0 4.187 1.533c.079 0 .158-.002.24-.01a6.394 6.393 0 0 0 2.319-.531 6.695 6.695 0 0 0 1.043-.57 6.923 6.923 0 0 0 .922-.744 6.76 6.76 0 0 0 .67-.76c.047-.062.092-.125.138-.188a6.76 6.76 0 0 0 .358-.553c.052-.09.104-.179.152-.271a6.76 6.76 0 0 0 .08-.143 6.47 6.47 0 0 0 .078-.187c.037-.082.072-.165.106-.248a6.47 6.47 0 0 0 .382-1.352c.01-.06.02-.12.028-.18a6.47 6.47 0 0 0 .049-.316 6.927 6.927 0 0 0 .002-1.193 6.668 6.667 0 0 0-.213-1.166 7.335 7.335 0 0 0-.428-1.118 6.182 6.182 0 0 0-.445-.775l-.043-.062a.647.647 0 0 0-.03-.041l-.017-.02-.094-.117a9.772 9.771 0 0 0-.014-.015 6.593 6.593 0 0 0-.685-.786 9.772 9.771 0 0 0-.084-.095 5.857 5.856 0 0 0-.924-.758 5.787 5.787 0 0 0-1.063-.547 9.274 9.274 0 0 0-.568-.19l-.152-.04.476-.477a.197.197 0 0 0 0-.28l-.008-.005.37-.37a7.908 7.908 0 0 1-3.34 15.337 7.91 7.91 0 0 1-4.906-13.452c.789-.794 1.582-1.617 2.337-2.304zm2.139 2.146.027.02.998.996a.192.192 0 0 0 .274 0l.176-.174a4.51 4.51 0 0 1 .726.08 4.904 4.904 0 0 1 2.1 1.037 4.766 4.765 0 0 1 .379.362 5.292 5.292 0 0 1 1.017 1.58 5.158 5.158 0 0 1 .25.779c.074.34.114.693.114 1.054v.127c-.088 3.447-3.589 5.732-6.772 4.446a4.933 4.933 0 0 1-.453-.213c-.062-.033-.124-.064-.184-.098l-.011-.008a4.933 4.933 0 0 1-.704-.508 5.051 5.05 0 0 1-1.15-1.48 4.933 4.933 0 0 1 .555-5.332 4.74 4.74 0 0 1 .312-.36c.105-.107.213-.219.332-.339.202-.203.423-.421.676-.67.427-.423.866-.848 1.338-1.299m1.035 2.319a3.42 3.42 0 0 0-3.021 4.802A3.416 3.416 0 0 0 12 37.424a3.415 3.415 0 0 0 3.42-3.286v-.128a3.416 3.416 0 0 0-3.522-3.418zm.002.084a3.33 3.33 0 0 1 3.435 3.334v.127A3.33 3.33 0 0 1 12 37.34a3.33 3.33 0 0 1-2.473-5.566v-.003c.059-.065.122-.127.188-.185v-.002a3.332 3.332 0 0 1 2.185-.908zm-.83 1.64-.754.752.93.93-.93.93.754.753.928-.93.93.93.751-.754-.927-.93.927-.929-.751-.752-.93.93z"/></svg>