<svg xmlns="http://www.w3.org/2000/svg" viewBox="0 20 24 24"><path d="M13.193 22.01a1.58 1.58 0 0 0-.94.451l-1.222 1.22-.006-.003a.197.197 0 0 0-.28 0l-.898.9a.195.195 0 0 0 0 .278l3.244 3.245a.197.197 0 0 0 .28 0l.332-.332a6 6 0 0 1 .767.246 6 6 0 0 1 .514.233l.121.068a6 6 0 0 1 .363.213l.11.072a6 6 0 0 1 .841.694 10 10 0 0 1 .776.884l.094.116.015.021.028.035.04.06q.08.12.159.249a6 6 0 0 1 .285.516c.085.174.163.36.232.537a6 6 0 0 1 .184.556 6.55 6.55 0 0 1 .008 3.486l-.043.145a7 7 0 0 1-.074.232 6 6 0 0 1-.163.428l-.011.027a6.49 6.49 0 0 1-4.365 3.705 6.5 6.5 0 0 1-2.008.178 7 7 0 0 1-.25-.02 7 7 0 0 1-.826-.142l-.227-.055a7 7 0 0 1-.752-.26 7 7 0 0 1-.242-.103 7 7 0 0 1-.734-.404l-.184-.116a7 7 0 0 1-.56-.43 7 7 0 0 1-.292-.257 7 7 0 0 1-.32-.328 7 7 0 0 1-.422-.52 7 7 0 0 1-.197-.285 7 7 0 0 1-.356-.615 7 7 0 0 1-.14-.297 7 7 0 0 1-.27-.713c-.03-.096-.053-.193-.078-.29a7 7 0 0 1-.158-.794l-.016-.168a6.5 6.5 0 0 1-.033-.906l.006-.094a6.5 6.5 0 0 1 .125-.976l.025-.111a7 7 0 0 1 .059-.243q.023-.088.049-.177a7 7 0 0 1 .178-.522q.033-.083.068-.164a6 6 0 0 1 .182-.394l.064-.12a6 6 0 0 1 .232-.402l.041-.064a6.49 6.489 0 0 1 .297-.424l.037-.05a6.49 6.489 0 0 1 .364-.427 6 6 0 0 1 .418-.414q.16-.14.312-.283l.125-.115 1.711-1.572.967.967a97 97 0 0 0-2.381 2.337c-2.073 2.137-1.784 5.471.31 7.281l.008.006.018.02.129.1.129.1a5 5 0 0 0 1.388.772 5 5 0 0 0 1.66.285q.119.002.23-.006a5.006 5.005 0 0 0 1.859-.457 5.07 5.07 0 0 0 2.572-2.736 5 5 0 0 0 .265-.923q.044-.235.065-.475a4 4 0 0 0 .016-.48 5 5 0 0 0-.063-.499v-.002a5 5 0 0 0-.031-.244 5 5 0 0 0-.053-.293 5 5 0 0 0-1.676-2.794 4.9 4.9 0 0 0-1.164-.76 4.5 4.5 0 0 0-.912-.297l-.115-.014a5 5 0 0 0-.594-.09l.627-.626a.194.194 0 0 0 0-.276l-3.25-3.248a.19.19 0 0 0-.273 0l-.905.903a.194.194 0 0 0 0 .275l.026.025c-.758.69-1.549 1.514-2.336 2.307A7.994 7.994 0 1 0 14.7 26.48l.785-.786a1.58 1.58 0 0 0 0-2.232l-1.002-1.002a1.58 1.58 0 0 0-1.291-.45zm-4.469 4.117 1.028 1.027L7.74 29a6.5 6.5 0 0 0-1.486 1.824v.002a7 7 0 0 0-.336.701l-.006.014-.006.015a7 7 0 0 0-.193.545l-.004.018a7 7 0 0 0-.143.56l-.031.168a6.6 6.6 0 0 0-.104 1.006v.008l.002.047q-.004.26.012.52l.014.162a7 7 0 0 0 .04.369l.01.09.032.132c.039.214.083.43.144.64a7 7 0 0 0 .125.386q.062.177.135.351a6.65 6.65 0 0 0 1.856 2.563 6.5 6.5 0 0 0 4.187 1.533q.118.001.24-.01a6.394 6.393 0 0 0 2.319-.531 6.7 6.7 0 0 0 1.043-.57 7 7 0 0 0 .922-.744 7 7 0 0 0 .67-.76q.07-.093.138-.188a7 7 0 0 0 .358-.553q.079-.134.152-.271l.08-.143.078-.187q.055-.123.106-.248a6.5 6.5 0 0 0 .382-1.352q.016-.09.028-.18a7 7 0 0 0 .049-.316 7 7 0 0 0 .002-1.193 6.668 6.667 0 0 0-.213-1.166 7.3 7.3 0 0 0-.428-1.118 6 6 0 0 0-.445-.775l-.043-.062-.03-.041-.017-.02-.094-.117-.014-.015a6.6 6.6 0 0 0-.685-.786l-.084-.095a5.857 5.856 0 0 0-.924-.758 5.8 5.8 0 0 0-1.063-.547 9 9 0 0 0-.568-.19l-.152-.04.476-.477a.197.197 0 0 0 0-.28l-.008-.005.37-.37a7.908 7.908 0 0 1-3.34 15.337 7.91 7.91 0 0 1-4.906-13.452c.789-.794 1.582-1.617 2.337-2.304m2.139 2.146.027.02.998.996a.19.19 0 0 0 .274 0l.176-.174a4.5 4.5 0 0 1 .726.08 4.9 4.9 0 0 1 2.1 1.037 4.766 4.765 0 0 1 .379.362 5.3 5.3 0 0 1 1.017 1.58 5 5 0 0 1 .25.779q.113.511.114 1.054v.127c-.088 3.447-3.589 5.732-6.772 4.446a5 5 0 0 1-.453-.213q-.094-.048-.184-.098l-.011-.008a5 5 0 0 1-.704-.508 5.051 5.05 0 0 1-1.15-1.48 4.93 4.93 0 0 1 .555-5.332 5 5 0 0 1 .312-.36c.105-.107.213-.219.332-.339.202-.203.423-.421.676-.67.427-.423.866-.848 1.338-1.299m1.035 2.319a3.42 3.42 0 0 0-3.021 4.802A3.42 3.42 0 0 0 12 37.424a3.415 3.415 0 0 0 3.42-3.286v-.128a3.416 3.416 0 0 0-3.522-3.418m.002.084a3.33 3.33 0 0 1 3.435 3.334v.127A3.33 3.33 0 0 1 12 37.34a3.33 3.33 0 0 1-2.473-5.566v-.003q.089-.098.188-.185v-.002a3.33 3.33 0 0 1 2.185-.908m-.83 1.64-.754.752.93.93-.93.93.754.753.928-.93.93.93.751-.754-.927-.93.927-.929-.751-.752-.93.93z"/></svg>