<svg xmlns="http://www.w3.org/2000/svg" viewBox="0 0 24 24"><path d="M3.127 3.566c.188-.811.884-1.43 1.732-1.558.137-.014.472-.01.604.013.202.042.413.11.578.193.11.055 13.9 8.018 13.988 8.082.444.293.756.76.861 1.283a2.07 2.07 0 0 1-.156 1.31 2.1 2.1 0 0 1-.71.82c-.096.064-7.45 4.307-7.473 4.316-.018 0-.055-.06-1.026-1.732q-.55-.948-.536-.962l.138-.096a4.98 4.98 0 0 0 2.07-4.188 4.8 4.8 0 0 0-.256-1.475 5.1 5.1 0 0 0-1.333-2.062 5.1 5.1 0 0 0-2.543-1.269l-.069-.009-.105-.018c-.248-.042-.5-.042-2.57-.046H3.066V5.04c0-1.191 0-1.246.055-1.476zm-.06 10.523V8.266H4.47l1.645 2.84 1.681 2.915.037.069H5.45zm3.83-5.818c0 .009 3.024 5.232 3.029 5.232.018.01.206-.151.339-.284a2.94 2.94 0 0 0 .82-1.686 4 4 0 0 0-.01-.756 2.9 2.9 0 0 0-.989-1.81A3 3 0 0 0 8.85 8.34c-.298-.065-.311-.07-1.159-.074h-.793zm-1.145 7.917c2.703 0 2.84 0 3.102-.046l.133-.01c.023 0 .077.092.472.78.155.265.366.623.55.948l.302.522c.229.385.403.706.398.706-.023.027-4.618 2.671-4.714 2.717a2 2 0 0 1-.797.192 1.7 1.7 0 0 1-.56-.055 2.08 2.08 0 0 1-1.291-.957 2.05 2.05 0 0 1-.27-.816q-.009-.11-.01-2.048v-1.933h2.69z"/></svg>