<svg xmlns="http://www.w3.org/2000/svg" width="24" height="24" fill="none" viewBox="0 0 24 24"><path fill="#FFF1C0" fill-rule="evenodd" d="m21.353 10.272-13.84-7.99c-1.38-.797-3.102.199-3.102 1.793v1.72h5.18a5.402 5.402 0 0 1 2.874 9.976l.067.117h-.002l.932 1.615.393.685 7.498-4.33c1.38-.797 1.38-2.789 0-3.586m-9.389 4.632a4.402 4.402 0 0 0-2.373-8.109h-2.31l4.683 8.109M6.127 6.795l4.937 8.55H4.41v-8.55h1.716m-1.716 9.55h6.315c.225 0 .45-.02.67-.057.059-.021.116-.043.173-.065l1.026 1.778.394.687-5.473 3.16c-1.38.797-3.105-.199-3.105-1.793v-3.71" clip-rule="evenodd"/></svg>