<svg xmlns="http://www.w3.org/2000/svg" viewBox="0 0 24 24"><path d="M3.127 3.566c.188-.811.884-1.43 1.732-1.558.137-.014.471-.01.604.014.202.04.413.11.578.192.11.055 13.9 8.018 13.987 8.082.445.293.756.76.862 1.283.091.449.036.902-.156 1.31a2.081 2.081 0 0 1-.71.82c-.096.064-7.45 4.307-7.473 4.316-.018 0-.055-.06-1.026-1.732-.367-.632-.545-.953-.536-.962l.137-.096a4.978 4.978 0 0 0 2.07-4.188 4.844 4.844 0 0 0-.255-1.475 5.075 5.075 0 0 0-1.334-2.062 5.115 5.115 0 0 0-2.543-1.269l-.068-.009-.106-.018c-.247-.042-.499-.042-2.57-.046H3.067V5.04c0-1.191 0-1.246.055-1.476zm-.06 10.523V8.266H4.47l1.645 2.84 1.681 2.915.037.068H5.45zm3.83-5.818c0 .009 3.024 5.232 3.029 5.232.018.01.206-.151.339-.284a2.938 2.938 0 0 0 .82-1.686 3.799 3.799 0 0 0-.01-.756 2.903 2.903 0 0 0-.989-1.81A2.968 2.968 0 0 0 8.85 8.34c-.298-.065-.311-.07-1.159-.074h-.793zm-1.145 7.917c2.703 0 2.84 0 3.102-.046l.133-.01c.023 0 .077.092.472.78.155.265.366.623.55.948l.302.522c.229.385.403.706.398.706-.023.027-4.618 2.671-4.714 2.717a1.963 1.963 0 0 1-.797.192 1.72 1.72 0 0 1-.56-.055 2.082 2.082 0 0 1-1.291-.957 2.045 2.045 0 0 1-.27-.816c-.005-.073-.01-.756-.01-2.048v-1.933h2.69z"/></svg>