<svg xmlns="http://www.w3.org/2000/svg" width="24" height="24" viewBox="0 0 6.35 6.35"><path d="m3.046 1.65-.209 1.448c.252 0 .829.099.957-.73.105-.68-.368-.748-.748-.718" style="fill-rule:evenodd;stroke-width:.227006"/><path d="M5.249 4.97a.49.49 0 0 1-.21.607 1.7 1.7 0 0 1-.386.153 3.3 3.3 0 0 1-.674.092 1.1 1.1 0 0 1-.896-.466.77.77 0 0 1-.448.35c-.166.049-.362.116-.773.116a.84.84 0 0 1-.693-.306.9.9 0 0 1-.166-.7v-.012c.141-.7.331-1.963.417-2.601v-.007c.025-.177.05-.355.061-.533a4 4 0 0 0 .019-.264l-.006-.258c0-.08.012-.16.049-.233A.53.53 0 0 1 1.83.663a2 2 0 0 1 .4-.074 11 11 0 0 1 .417-.043A7 7 0 0 1 3.15.528c.295 0 .583.006.865.061.295.061.583.178.816.38.154.135.283.307.368.497a1.6 1.6 0 0 1 .142.479 2 2 0 0 1-.031.724 1.6 1.6 0 0 1-.209.49 2 2 0 0 1-.43.467c.111.313.393.933.578 1.337ZM2.003 1.172a3.5 3.5 0 0 1-.025.712l-.043.355-.006.037-.16 1.105c-.06.392-.122.779-.196 1.165-.024.178-.098.411 0 .577.08.153.295.178.448.16.546-.062.632-.178.632-.178-.11-.123-.018-.67.092-1.412h.387l.41 1.228s.124.386.449.368c.43-.025.736-.123.785-.178-.129-.074-.503-1.013-.712-1.7a3 3 0 0 0 .289-.196 1.5 1.5 0 0 0 .325-.356 1.04 1.04 0 0 0 .166-.503 1.4 1.4 0 0 0-.092-.644 1 1 0 0 0-.375-.43 2 2 0 0 0-.92-.208 6 6 0 0 0-1.03.03c-.038 0-.43.037-.424.068" style="fill-rule:evenodd;stroke-width:.227006"/></svg>