<svg xmlns="http://www.w3.org/2000/svg" viewBox="0 0 24 24"><path d="M5.603 2v3.217h9.148c1.448 0 2.647 1.137 2.674 2.535.013.7-.248 1.362-.739 1.861-.49.5-1.146.776-1.845.776h-3.565a.231.231 0 0 0-.23.23v2.858a.23.23 0 0 0 .043.134L17.136 22h4.427l-6.06-8.412c3.052-.153 5.508-2.718 5.508-5.791C21.01 4.6 18.408 2 15.208 2zm0 4.936V15h3.724V6.935zM10.543 17c-.378 0-.707.056-.974.162-.273.112-.484.258-.625.455a1.15 1.15 0 0 0-.21.68c0 .294.078.526.24.708.16.183.364.315.609.385a1.303 1.303 0 0 0-.709.4c-.19.21-.28.485-.28.829 0 .42.168.757.505 1.01s.814.37 1.445.37c.617 0 1.1-.126 1.437-.378.337-.253.512-.582.512-1.002 0-.351-.098-.626-.287-.836a1.33 1.33 0 0 0-.701-.399 1.27 1.27 0 0 0 .601-.392 1.04 1.04 0 0 0 .246-.696c0-.252-.076-.483-.216-.68-.14-.196-.351-.342-.618-.454a2.7 2.7 0 0 0-.974-.163zm-3.743.048v.422a.63.63 0 0 1-.106.377.323.323 0 0 1-.289.154h-.693v1.004h1.066v2.952h1.235v-4.909zm3.744.785a.64.64 0 0 1 .428.155.48.48 0 0 1 .168.379.499.499 0 0 1-.168.392.594.594 0 0 1-.428.155.602.602 0 0 1-.436-.155.493.493 0 0 1-.16-.392.48.48 0 0 1 .168-.38.626.626 0 0 1 .428-.154zm-5.273.442-2.834 1.13v1.122l2.834 1.129v-1.164l-1.487-.526 1.487-.527zm5.273 1.592c.196 0 .364.063.504.19.14.125.21.288.21.47s-.07.337-.21.463a.72.72 0 0 1-.504.181.728.728 0 0 1-.512-.181c-.14-.126-.203-.28-.203-.463s.063-.345.203-.47a.733.733 0 0 1 .512-.19"/></svg>