<svg xmlns="http://www.w3.org/2000/svg" xml:space="preserve" viewBox="0 0 24 24"><path d="M2.554 7.438a.554.554 0 0 0 0 1.108l4.324.007c.887 0 1.604.743 1.56 1.64-.041.839-.765 1.483-1.605 1.483h-1.43l2.142 2.423H9.03l-1.296-1.436a2.353 2.353 0 0 0 1.85-2.298V9.79c0-1.3-1.053-2.354-2.353-2.354Zm.751 2.133c-.47 0-.882.268-1.077.699-.197.435-.123.927.193 1.285l2.256 2.553h1.445l-2.07-2.342-.984-1.11h.216a.138.138 0 0 1 .021-.002h3.666a.541.541 0 0 0 0-1.083zm16.282-.031c-1.235 0-2.24.89-2.24 2.411 0 1.33 1.005 2.412 2.24 2.412.498 0 .958-.176 1.33-.473v.689c0 .496-.518.9-1.156.9-.473 0-.907-.233-1.08-.58l-.97.482c.358.718 1.162 1.181 2.05 1.181 1.225 0 2.223-.876 2.238-1.958H22V9.548h-1.083v.465a2.124 2.124 0 0 0-1.33-.474m0 1.082c.637 0 1.156.596 1.156 1.33 0 .732-.519 1.329-1.156 1.329-.638 0-1.156-.597-1.156-1.33 0-.733.518-1.329 1.156-1.329m-4.768-1.097c-.622 0-1.13.308-1.482.808v-.784h-1.083v4.53h1.083v-2.141c0-.734.632-1.4 1.157-1.438.537-.052 1.156.218 1.156 1.33v2.25h1.083v-2.266c-.005-1.322-.684-2.289-1.914-2.289m-4.514.024h1.083v4.53h-1.083zm.538-.551a.705.705 0 0 1-.504-.208.692.692 0 0 1-.207-.503.695.695 0 0 1 .436-.656.704.704 0 0 1 .275-.055.7.7 0 0 1 .507.208.679.679 0 0 1 .212.503c0 .197-.07.365-.212.503a.7.7 0 0 1-.507.208"/></svg>