<svg version="1.1" viewBox="0 0 24 24" xmlns="http://www.w3.org/2000/svg"><path d="m2.554 7.439a0.554 0.554 0 0 0 0 1.108l4.324 7e-3c0.887 0 1.604 0.743 1.56 1.64-0.041 0.839-0.765 1.483-1.605 1.483h-1.43l2.142 2.423h1.485l-1.296-1.436a2.35 2.35 0 0 0 1.85-2.298v-0.575c0-1.3-1.053-2.354-2.353-2.354zm0.751 2.133c-0.47 0-0.882 0.268-1.077 0.699-0.197 0.435-0.123 0.927 0.193 1.285l2.256 2.553h1.445l-2.07-2.342-0.984-1.11h0.216l0.021-2e-3h3.666a0.5415 0.5415 0 0 0 0-1.083zm16.282-0.031c-1.235 0-2.24 0.89-2.24 2.411 0 1.33 1.005 2.412 2.24 2.412 0.498 0 0.958-0.176 1.33-0.473v0.689c0 0.496-0.518 0.9-1.156 0.9-0.473 0-0.907-0.233-1.08-0.58l-0.97 0.482c0.358 0.718 1.162 1.181 2.05 1.181 1.225 0 2.223-0.876 2.238-1.958h1e-3v-5.056h-1.083v0.465a2.12 2.12 0 0 0-1.33-0.474m0 1.082c0.637 0 1.156 0.596 1.156 1.33 0 0.732-0.519 1.329-1.156 1.329-0.638 0-1.156-0.597-1.156-1.33s0.518-1.329 1.156-1.329m-4.768-1.097c-0.622 0-1.13 0.308-1.482 0.808v-0.784h-1.083v4.53h1.083v-2.141c0-0.734 0.632-1.4 1.157-1.438 0.537-0.052 1.156 0.218 1.156 1.33v2.25h1.083v-2.266c-5e-3 -1.322-0.684-2.289-1.914-2.289m-4.514 0.024h1.083v4.53h-1.083zm0.538-0.551a0.7 0.7 0 0 1-0.504-0.208 0.7 0.7 0 0 1-0.207-0.503 0.695 0.695 0 0 1 0.436-0.656 0.7 0.7 0 0 1 0.275-0.055 0.7 0.7 0 0 1 0.507 0.208 0.68 0.68 0 0 1 0.212 0.503q0 0.296-0.212 0.503a0.7 0.7 0 0 1-0.507 0.208"/></svg>
