<svg xmlns="http://www.w3.org/2000/svg" viewBox="0 0 24 24"><path d="M6 2v10.141c-1.72.45-3 2.23-3 3.86s1.28 3.409 3 3.859V22h2v-2.14c1.72-.45 3-2 3-3.86s-1.28-3.409-3-3.859V2zm1 11.674a2.249 2.249 0 0 1 2.248 2.248A2.249 2.249 0 0 1 7 18.172a2.249 2.249 0 0 1-2.248-2.25A2.249 2.249 0 0 1 7 13.674M16 2v2.14c-1.72.45-3 2-3 3.86s1.28 3.41 3 3.86V22h2V11.86c1.72-.45 3-2 3-3.86s-1.28-3.41-3-3.86V2zm.977 3.75a2.249 2.249 0 0 1 2.248 2.248 2.249 2.249 0 0 1-2.248 2.248 2.249 2.249 0 0 1-2.25-2.248 2.249 2.249 0 0 1 2.25-2.248"/></svg>