<svg xmlns="http://www.w3.org/2000/svg" width="192" height="192" viewBox="0 0 192 192"><path d="M48 16v81.128c-13.76 3.6-24 17.84-24 30.88s10.24 27.272 24 30.872V176h16v-17.12c13.76-3.6 24-16 24-30.88s-10.24-27.272-24-30.872V16zm8 93.392a18 18 0 0 1 17.984 17.984 18 18 0 0 1-17.984 18 18 18 0 0 1-17.984-18A18 18 0 0 1 56 109.392M128 16v17.12c-13.76 3.6-24 16-24 30.88s10.24 27.28 24 30.88V176h16V94.88c13.76-3.6 24-16 24-30.88s-10.24-27.28-24-30.88V16zm7.816 30A18 18 0 0 1 153.8 63.984a18 18 0 0 1-17.984 17.984 18 18 0 0 1-18-17.984 18 18 0 0 1 18-17.984"/></svg>