<svg version="1.1" viewBox="0 0 192 192" xmlns="http://www.w3.org/2000/svg"><path d="m73.362 16.004c-12.09 0.21888-23.078 10.221-23.078 24.155v112.98c0 12.505 10.353 22.859 22.859 22.859h44.405c18.571 0 29.443-22.849 17.734-37.265l-29.796-36.671 24.499-14.547c15.64-9.3062 15.64-32.49 0-41.796l-44.53-26.452c-3.9102-2.3183-8.063-3.3385-12.093-3.2655zm2.2968 80.422 44.405 54.671c2.136 2.6296 0.8563 5.3124-2.5155 5.3124h-44.405c-1.9268 0-3.2655-1.3387-3.2655-3.2655v-54.624c0-3.3419 3.765-4.5777 5.7811-2.0937z"/></svg>
