<svg xmlns="http://www.w3.org/2000/svg" viewBox="0 0 24 24"><path d="m11.154 20.975-.5-.071c-1.998-.283-4.065-1.415-5.406-2.96-2.69-3.1-2.977-7.549-.708-10.95a8.852 8.852 0 0 1 3.536-3.077c3.534-1.72 7.705-.976 10.44 1.862 1.2 1.245 1.958 2.696 2.332 4.461.121.57.135.74.137 1.71.002.69-.02 1.21-.064 1.45-.333 1.866-.945 3.135-2.277 4.722l-.12.142-.394-.34a33.102 33.102 0 0 0-.411-.35c-.01-.006.123-.176.294-.378a8.185 8.185 0 0 0 1.81-3.77c.143-.727.152-2.012.019-2.747-.607-3.353-3.186-5.928-6.506-6.495-.797-.136-2.249-.109-2.957.055-3.39.784-5.808 3.432-6.233 6.828-.081.651-.034 1.85.1 2.506.32 1.572 1.01 2.846 2.175 4.008.747.745 1.304 1.147 2.145 1.55 1.145.55 2.147.78 3.414.781.83.001 1.247-.047 2.018-.232a7.64 7.64 0 0 1 .577-.124c.08 0 .341.964.273 1.007-.113.07-1.163.302-1.673.37-.487.065-1.695.09-2.02.042zm-2.78-4.216a1.21 1.21 0 0 1-.556-.592c-.053-.128-.067-.686-.066-2.728.001-2.863-.008-2.782.356-3.126.246-.233.38-.266 1.098-.266h.647v-.591c0-1.003.144-1.477.601-1.977.795-.87 2.15-.909 3.02-.087.517.49.683.972.683 1.99v.665h.678c.715 0 .858.035 1.116.269.14.127.282.394.33.62l.036.162H8.802v5.755h-.113a1.044 1.044 0 0 1-.314-.094zm4.682-7.389c0-.899-.102-1.143-.576-1.387-.46-.237-1.07-.069-1.365.374-.13.198-.137.237-.152.948l-.016.742h2.109zm-2.953 6.96v-.528h5.103l.027-3.378h1.05v3.654l-.134.228a1.43 1.43 0 0 1-.346.376l-.212.146-5.488.028zm1.601-1.525c-.282-.086-.485-.236-1.017-.755l-.559-.544.775-.78.514.512c.283.282.549.513.59.513s.424-.35.848-.777l.771-.777.366.363c.201.2.36.379.353.398-.007.02-.39.418-.85.887-.756.77-.863.86-1.098.93-.278.082-.49.091-.693.03z"/></svg>