<svg xmlns="http://www.w3.org/2000/svg" xml:space="preserve" width="24" height="24" viewBox="0 0 24 24"><path d="M13.361 10.088c-.099.004-.185.003-.28.006l1.681.914c.717.39.737 1.413.035 1.83l-1.902 1.132h.862c1.316.264 2.04 1.646.855 2.634L9.215 22h5.528l3.028-3.028c.988-.988 1.184-1.776 1.316-3.553 0-3.62-2.764-5.265-5.726-5.33zM9.58 2 6.56 4.882c-1.244 1.5-1.647 2.334-1.647 3.982 0 3.188 2.25 4.894 4.331 5.505L9.24 9.994c0-.143.028-.277.075-.399-.579-.6-.289-1.448.677-2.31L15.277 2z"/><path d="M9.838 10.154a.81.81 0 0 1 1.197-.712l3.22 1.751a.81.81 0 0 1 .026 1.407l-3.216 1.914a.81.81 0 0 1-1.224-.695z"/></svg>