<svg xmlns="http://www.w3.org/2000/svg" viewBox="0 0 24 24"><path d="M4.302 13.983q-.8 0-1.357-.299-.55-.307-.945-.76l1.002-.79q.226.387.557.597.331.202.735.202.218 0 .38-.065.17-.064.282-.17.122-.112.178-.258.057-.145.057-.299 0-.185-.105-.315-.105-.129-.275-.218-.17-.097-.396-.17-.218-.072-.452-.145-.299-.097-.598-.21-.299-.113-.541-.299-.234-.194-.388-.468-.145-.283-.145-.703 0-.355.145-.662.146-.307.404-.533.267-.235.622-.364.355-.13.784-.13.355 0 .638.065.29.065.525.178.242.113.436.275.202.153.38.34l-.905.686q-.38-.566-1.066-.566-.404 0-.614.194-.21.194-.21.477 0 .177.097.299.097.12.258.218.17.088.388.161l.46.154q.3.097.598.226.307.121.55.323.25.194.403.485t.154.71q0 .348-.138.679-.137.331-.395.59-.259.25-.639.412-.38.153-.864.153zm2.536-6.058h1.09v1.817q.243-.307.599-.484.363-.178.815-.178.88 0 1.374.533.5.533.5 1.486v2.803h-1.114V11.22q0-.557-.267-.872-.266-.323-.8-.323-.234 0-.436.089-.194.08-.347.25-.145.162-.234.404-.081.234-.081.541v2.593H6.838zm7.294 6.074q-.508 0-.96-.186-.445-.194-.776-.525-.331-.339-.525-.783-.186-.453-.186-.961 0-.517.186-.962.194-.452.525-.783.33-.331.775-.525.453-.194.961-.194.51 0 .954.194.444.194.775.525.34.331.525.783.194.445.194.962 0 .508-.194.96-.186.445-.525.784-.331.331-.775.525-.445.186-.954.186m0-1.026q.291 0 .542-.113.25-.113.436-.307t.29-.452q.106-.267.106-.557 0-.3-.105-.558-.105-.266-.291-.46t-.436-.307q-.25-.113-.542-.113t-.549.113q-.25.113-.436.307-.178.194-.283.46-.105.259-.105.558 0 .29.105.557.105.258.283.452.186.194.436.307.259.113.55.113M19.682 14q-.485 0-.889-.17t-.654-.484v2.73h-1.083V9.177h1.083v.63q.25-.331.646-.525.404-.202.889-.202.444 0 .864.17.42.161.743.476.323.315.517.776.202.452.202 1.042 0 .581-.202 1.042-.202.452-.533.767-.323.315-.743.485-.412.161-.84.161zm-.178-1.002q.299 0 .557-.113t.453-.307q.194-.201.299-.468.113-.275.113-.582t-.113-.573q-.105-.267-.3-.46t-.452-.308q-.258-.113-.557-.113-.307 0-.565.113-.259.114-.445.316-.185.193-.29.46t-.106.565q0 .307.106.574t.29.468q.186.202.445.315.258.113.565.113z"/></svg>