<svg xmlns="http://www.w3.org/2000/svg" viewBox="0 0 24 24"><path d="M19.841 15.376q-.868 0-1.438-.335a2.23 2.23 0 0 1-.884-.965l1.118-.519c.127.24.295.417.508.544q.318.19.752.188c.434-.002.523-.061.67-.183s.224-.27.224-.442a.3.3 0 0 0-.102-.229.8.8 0 0 0-.269-.152 2 2 0 0 0-.391-.112c-.147-.03-.305-.06-.462-.096a7 7 0 0 1-.666-.168 2.1 2.1 0 0 1-.584-.27 1.35 1.35 0 0 1-.422-.441 1.3 1.3 0 0 1-.162-.67q0-.306.147-.595c.097-.193.239-.36.417-.508q.268-.222.65-.345a2.6 2.6 0 0 1 .843-.127q.785 0 1.31.3c.351.197.626.472.829.817l-1.026.503a1.1 1.1 0 0 0-.447-.427 1.34 1.34 0 0 0-.66-.157q-.429 0-.636.168-.204.165-.203.386 0 .252.305.365c.203.071.503.153.894.234a6 6 0 0 1 .65.163q.328.099.595.274c.177.117.325.259.431.442q.168.267.168.67a1.57 1.57 0 0 1-.518 1.113 2.1 2.1 0 0 1-.666.411q-.402.16-.965.158m-4.72 0q-.866 0-1.437-.335a2.23 2.23 0 0 1-.884-.966l1.118-.518c.127.239.295.417.508.544q.318.19.752.188c.434-.002.523-.061.67-.183a.56.56 0 0 0 .224-.442q-.002-.137-.102-.229c-.1-.092-.157-.111-.269-.152a2 2 0 0 0-.391-.112c-.147-.03-.305-.06-.462-.096a7 7 0 0 1-.666-.168 2.1 2.1 0 0 1-.584-.27 1.35 1.35 0 0 1-.422-.441 1.3 1.3 0 0 1-.162-.67q0-.306.147-.595c.097-.193.239-.36.417-.508q.267-.222.65-.346a2.6 2.6 0 0 1 .843-.127q.785.002 1.31.3.526.299.829.818l-1.026.503a1.1 1.1 0 0 0-.448-.427 1.34 1.34 0 0 0-.66-.157q-.428 0-.635.167c-.207.167-.203.24-.203.387q0 .252.305.365c.203.071.503.153.894.234a6 6 0 0 1 .65.163q.328.099.594.274c.178.117.325.259.432.442q.168.267.168.67a1.57 1.57 0 0 1-.518 1.113 2.1 2.1 0 0 1-.666.411q-.404.16-.965.158m-5.75 0c-.316 0-.625-.061-.935-.183a2.6 2.6 0 0 1-.828-.528 2.6 2.6 0 0 1-.59-.849q-.222-.503-.223-1.143c-.001-.64.07-.818.218-1.153q.221-.504.58-.848c.238-.234.518-.407.832-.529s.635-.182.96-.182q.52.001.956.193.437.191.721.528V9.96h1.204v5.395h-1.204v-.767a2 2 0 0 1-.732.569q-.449.207-.965.208m.198-1.143q.343 0 .625-.122.288-.12.493-.34a1.62 1.62 0 0 0 .447-1.118q0-.325-.122-.605a1.6 1.6 0 0 0-.325-.497 1.5 1.5 0 0 0-.493-.336 1.6 1.6 0 0 0-.625-.122 1.62 1.62 0 0 0-1.123.452 1.5 1.5 0 0 0-.335.493q-.12.289-.121.615a1.6 1.6 0 0 0 .457 1.123 1.6 1.6 0 0 0 1.123.457M2 8.625h2.235a2.3 2.3 0 0 1 1.682.7q.31.32.492.763c.117.29.178.604.178.934s-.06.646-.178.94a2.4 2.4 0 0 1-.492.767 2.33 2.33 0 0 1-1.692.701H3.214v1.93H2zm1.214 1.163v2.484h.93q.265.002.492-.096a1.15 1.15 0 0 0 .386-.27 1.3 1.3 0 0 0 .34-.879 1.26 1.26 0 0 0-.34-.873 1.2 1.2 0 0 0-.879-.36h-.929z"/></svg>