<svg xmlns="http://www.w3.org/2000/svg" viewBox="0 0 24 24"><path d="M11.109 21.643a22.715 22.715 0 0 1-2.869-1.63c-2.523-1.667-3.912-3.264-4.386-5.042-.137-.517-.138-.523-.138-5.5V4.488l.776-.04a15.004 15.004 0 0 0 6.934-2.105L12 2l.574.343a15.002 15.002 0 0 0 6.934 2.105l.776.04v4.983c0 4.977 0 4.983-.138 5.5-.461 1.732-1.807 3.305-4.233 4.95-1.248.846-3.59 2.087-3.926 2.08-.077-.003-.472-.163-.878-.358zm3.842-5.177c.353-.12.804-.511.974-.843.183-.36.22-.995.078-1.367-.15-.39-.572-.828-.961-.995-.43-.185-1.071-.152-1.461.075l-.266.156-1.528-.816c-.84-.449-1.535-.838-1.544-.865-.01-.027.783-.527 1.759-1.112l1.774-1.063.259.085c.623.207 1.333.046 1.784-.405.345-.345.49-.708.485-1.22 0-.506-.107-.775-.431-1.135-.662-.734-1.894-.74-2.533-.012-.251.286-.42.661-.421.938-.001.132-.044.257-.109.312-.276.238-3.532 2.133-3.618 2.105-.053-.017-.22-.076-.37-.132-.353-.13-.92-.093-1.268.085-.6.306-.952.874-.952 1.537 0 .509.16.883.533 1.245.472.458 1.171.592 1.816.347l.314-.12 3.401 1.799.103.319c.287.89 1.288 1.387 2.182 1.082z"/></svg>