<svg xmlns="http://www.w3.org/2000/svg" data-name="Layer 1" viewBox="0 0 24 24"><path d="M20.339 10.962A8.47 8.47 0 0 0 6.09 5.56c-2.727.18-3.635 1.39-3.922 2.144-.274.719-.42 2.123 1.245 3.946a8.498 8.498 0 0 0 6.203 8.269c.117.032.235.063.353.09a1.588 1.588 0 0 1-.039-.35v-.69l-.047-.013a7.502 7.502 0 0 1-5.423-6.321 20.835 20.835 0 0 0 5.771 3.243 1.588 1.588 0 0 1 1.288-.66h7.683a1.592 1.592 0 0 1 1.557 1.27 2.783 2.783 0 0 0 1.071-1.319c.287-.753.433-2.256-1.492-4.206m-1.23 2.785a7.606 7.606 0 0 1-.318.896 5.765 5.765 0 0 1-1.549.18 18.073 18.073 0 0 1-6.034-1.28 18.07 18.07 0 0 1-5.36-3.048 5.805 5.805 0 0 1-1.038-1.16 7.485 7.485 0 0 1 14.3 4.412Z"/><path d="M12.644 18.494a.362.362 0 0 0-.242-.081h-.513v.613h.513a.365.365 0 0 0 .244-.08.274.274 0 0 0 .094-.222.285.285 0 0 0-.096-.23m-.107-.54a.276.276 0 0 0 .094-.22.269.269 0 0 0-.091-.219.373.373 0 0 0-.247-.076h-.404v.596h.404a.36.36 0 0 0 .244-.08"/><path d="M19.203 15.714H11.52a1.093 1.093 0 0 0-1.092 1.093v2.851a1.093 1.093 0 0 0 1.092 1.093h7.683a1.093 1.093 0 0 0 1.093-1.093v-2.851a1.093 1.093 0 0 0-1.093-1.093M13.16 19.04a.57.57 0 0 1-.162.197.75.75 0 0 1-.247.124 1.084 1.084 0 0 1-.314.043h-1.02v-2.341h.933a1.108 1.108 0 0 1 .313.041.711.711 0 0 1 .24.12.528.528 0 0 1 .153.186.555.555 0 0 1 .053.246.5.5 0 0 1-.101.318.82.82 0 0 1-.26.215.814.814 0 0 1 .343.218.53.53 0 0 1 .127.368.585.585 0 0 1-.058.265m1.97-1.6h-1.1v.603h.9v.378h-.9v.606h1.1v.377h-1.574v-2.341h1.573Zm1.443 1.964h-.483V17.44h-.712v-.377h1.907v.377h-.712Zm2.226 0-.199-.573h-.848l-.198.573h-.494l.878-2.341h.493l.878 2.341Z"/><path d="M17.874 18.453h.603l-.302-.871z"/></svg>