<svg xmlns="http://www.w3.org/2000/svg" width="24" height="24" fill="none" viewBox="0 0 24 24"><path fill="#FFF1C0" d="M2 9h1.063l1.034 3.826L5.242 9h1.003l1.139 3.811L8.409 9h1.026l-1.542 5.466H6.882L5.736 10.61l-1.145 3.856H3.557zm9.349 5.556a2.5 2.5 0 0 1-.943-.172 2.3 2.3 0 0 1-.734-.487 2.3 2.3 0 0 1-.472-.719 2.4 2.4 0 0 1-.165-.89q0-.48.173-.9a2.3 2.3 0 0 1 1.205-1.212q.42-.18.899-.18a2.3 2.3 0 0 1 .898.172 2.1 2.1 0 0 1 1.183 1.183q.172.412.172.899v.382h-3.564q.105.464.457.748.352.285.891.285a1.3 1.3 0 0 0 .741-.21q.315-.21.472-.561l.831.479q-.285.531-.801.86-.51.323-1.243.323m-.037-3.67q-.458 0-.794.248-.33.247-.464.651h2.486q-.113-.441-.435-.666-.321-.232-.793-.232m4.72 3.669q-.396 0-.786-.15a2.22 2.22 0 0 1-1.183-1.16 2.4 2.4 0 0 1-.187-.966q0-.547.18-.966.188-.427.486-.72a2.1 2.1 0 0 1 .697-.44q.39-.159.808-.158.435 0 .802.165.366.165.606.449v-.524h1.01v4.38h-1.01v-.57q-.24.309-.614.488-.374.172-.809.172m.165-.929a1.27 1.27 0 0 0 1.206-.83 1.35 1.35 0 0 0 .105-.532q0-.278-.105-.524a1.3 1.3 0 0 0-.69-.72 1.3 1.3 0 0 0-.516-.104q-.285 0-.524.105a1.33 1.33 0 0 0-.704.711 1.4 1.4 0 0 0-.097.532q0 .284.097.539.105.248.285.434a1.3 1.3 0 0 0 .943.389m2.881-3.541h1.004v.651q.3-.651 1.123-.651a1.6 1.6 0 0 1 .771.187l-.382.958a1 1 0 0 0-.255-.12 1 1 0 0 0-.351-.052q-.443 0-.674.255-.225.247-.225.816v2.336h-1.01z"/></svg>