<svg xmlns="http://www.w3.org/2000/svg" data-name="Layer 1" viewBox="0 0 24 24"><path d="M20.339 10.962A8.47 8.47 0 0 0 6.09 5.56c-2.727.18-3.635 1.39-3.922 2.144-.274.719-.42 2.123 1.245 3.946a8.5 8.5 0 0 0 6.203 8.269q.176.049.353.09a1.6 1.6 0 0 1-.039-.35v-.69l-.047-.013a7.5 7.5 0 0 1-5.423-6.321 20.8 20.8 0 0 0 5.771 3.243 1.59 1.59 0 0 1 1.288-.66h7.683a1.59 1.59 0 0 1 1.557 1.27 2.8 2.8 0 0 0 1.071-1.319c.287-.753.433-2.256-1.492-4.206m-1.23 2.785a8 8 0 0 1-.318.896 5.8 5.8 0 0 1-1.549.18 18.1 18.1 0 0 1-6.034-1.28 18.1 18.1 0 0 1-5.36-3.048 5.8 5.8 0 0 1-1.038-1.16 7.485 7.485 0 0 1 14.3 4.412Z"/><path d="M12.644 18.494a.36.36 0 0 0-.242-.081h-.513v.613h.513a.37.37 0 0 0 .244-.08.27.27 0 0 0 .094-.222.28.28 0 0 0-.096-.23m-.107-.54a.28.28 0 0 0 .094-.22.27.27 0 0 0-.091-.219.37.37 0 0 0-.247-.076h-.404v.596h.404a.36.36 0 0 0 .244-.08"/><path d="M19.203 15.714H11.52a1.093 1.093 0 0 0-1.092 1.093v2.851a1.093 1.093 0 0 0 1.092 1.093h7.683a1.093 1.093 0 0 0 1.093-1.093v-2.851a1.093 1.093 0 0 0-1.093-1.093M13.16 19.04a.6.6 0 0 1-.162.197.8.8 0 0 1-.247.124 1 1 0 0 1-.314.043h-1.02v-2.341h.933a1.1 1.1 0 0 1 .313.041.7.7 0 0 1 .24.12.5.5 0 0 1 .153.186.56.56 0 0 1 .053.246.5.5 0 0 1-.101.318.8.8 0 0 1-.26.215.8.8 0 0 1 .343.218.53.53 0 0 1 .127.368.6.6 0 0 1-.058.265m1.97-1.6h-1.1v.603h.9v.378h-.9v.606h1.1v.377h-1.574v-2.341h1.573Zm1.443 1.964h-.483V17.44h-.712v-.377h1.907v.377h-.712Zm2.226 0-.199-.573h-.848l-.198.573h-.494l.878-2.341h.493l.878 2.341Z"/><path d="M17.874 18.453h.603l-.302-.871z"/></svg>