<svg xmlns="http://www.w3.org/2000/svg" viewBox="0 0 24 24"><path d="M6.004 3.199h-.002v.002a.007.007 0 0 0-.005.004L4.12 15.65l-2.107-2.99h-.004l-.002-.002-.003.002-.002.002v.003H2l1.066 8.129c0 .003.003.005.007.006h4.663l.002-.001h.002v-.002h.001l.001-.003v-.001l.8-5.593 1.186 5.593v.001l.001.001.002.003h.001l.003.001h4.933a.007.007 0 0 0 .003-.004l1.727-4.118.925 4.116v.001c.002.003.004.005.007.005h4.663a.007.007 0 0 0 .007-.008L19.335 8.933a.007.007 0 0 0-.007-.005h-4.665l-.001.001-.002.002-.001.001-1.696 3.805-2.022-9.533a.007.007 0 0 0-.007-.006z"/></svg>