<svg xmlns="http://www.w3.org/2000/svg" viewBox="0 0 24 24"><path d="M12.045 2c-.742-.003-1.377.273-2.038.629-.157.084-.32.177-.492.275l3.357 1.938 5.144 2.995c.302.2.443.358.492.445.05.086.114.288.127.894.013.607-.025 1.535-.031 2.854-.002.543.002.98.006 1.394l2.499-1.442c.007-1.238.045-2.122.03-2.859-.016-.75-.088-1.44-.456-2.084-.368-.644-.926-1.056-1.564-1.45-.638-.395-1.43-.814-2.53-1.456-1.1-.642-1.853-1.124-2.511-1.486-.658-.361-1.29-.644-2.033-.647zM7.429 4.12c-1.075.613-1.86 1.022-2.49 1.404-.642.389-1.203.796-1.577 1.437-.374.64-.452 1.33-.475 2.08-.022.75.01 1.644.005 2.918-.006 1.273-.047 2.167-.031 2.918.016.75.088 1.44.456 2.084.368.644.925 1.056 1.564 1.45.16.1.332.202.515.308l-.022-3.952c-.023-.55.016-1.478.022-2.797.006-1.319-.024-2.248-.005-2.854.018-.606.084-.808.134-.893.05-.086.193-.243.712-.557.519-.315 1.342-.746 2.487-1.4.471-.27.847-.492 1.205-.703zm2.756 4.659c-1.312 0-2.327 1.367-2.072 2.791.18 1.01 1.067 2.208 2.48 3.353.49.396 1.408 1.04 1.53 1.073.123-.034 1.041-.677 1.53-1.073 1.414-1.145 2.3-2.343 2.48-3.353.255-1.424-.76-2.791-2.072-2.791-.657 0-1.424.427-1.755.978l-.183.306-.183-.306c-.33-.55-1.097-.978-1.755-.978zm10.935 5.617-3.356 1.938-.009.005-5.157 2.952c-.324.162-.532.205-.631.205-.1 0-.307-.046-.838-.338-.532-.292-1.317-.79-2.456-1.454-.457-.266-.825-.473-1.18-.674v2.886c1.05.614 1.791 1.086 2.43 1.437.658.361 1.29.643 2.032.647.743.003 1.378-.273 2.039-.629.66-.355 1.42-.83 2.525-1.463s1.9-1.043 2.542-1.432c.642-.39 1.203-.796 1.577-1.437.374-.64.452-1.33.475-2.08.005-.178.007-.366.008-.563z"/></svg>