<svg xmlns="http://www.w3.org/2000/svg" viewBox="0 0 24 24"><path d="M10.923 19.088c-3.38-.425-6.198-2.133-7.982-4.836-.506-.766-.86-1.505-.923-1.923-.105-.7.27-1.669 1.11-2.866 1.631-2.322 4.03-3.86 6.933-4.442.961-.193 3.079-.176 4.05.032 2.262.486 3.97 1.405 5.547 2.985 1.609 1.613 2.46 3.192 2.329 4.318-.095.811-1.104 2.368-2.328 3.59-1.577 1.577-3.316 2.515-5.514 2.975-.677.141-2.623.242-3.222.167zm2.39-2.347a6.31 6.31 0 0 0 .971-.379c2.189-1.073 3.239-3.652 2.432-5.972-.255-.733-.567-1.21-1.22-1.864-.97-.973-2.02-1.41-3.395-1.413-.863 0-1.293.092-2.06.447-1.17.542-1.955 1.352-2.463 2.544-1.123 2.63.282 5.664 3.038 6.564.803.262 1.85.29 2.698.073zm-1.746-3.914c-.6-.367-.576-1.378.043-1.697.453-.235 1.092-.073 1.367.347.172.264.152.795-.042 1.066-.3.423-.927.553-1.368.284"/></svg>