<svg xmlns="http://www.w3.org/2000/svg" viewBox="0 0 24 24"><path d="M8.34 5.72a6.26 6.26 0 0 0-5.835 3.788 6.26 6.26 0 0 0 1.278 6.837 6.26 6.26 0 0 0 6.809 1.425 6.26 6.26 0 0 0 3.912-5.752L12 12a3.741 3.741 0 0 1 2.346-3.448c1.411-.57 3.017-.234 4.082.854s1.366 2.7.766 4.1a3.741 3.741 0 0 1-3.498 2.27l-.036 2.504c2.53.035 4.838-1.463 5.835-3.788s.491-5.03-1.278-6.837A6.26 6.26 0 0 0 13.41 6.23a6.26 6.26 0 0 0-3.913 5.752L12 12a3.741 3.741 0 0 1-2.345 3.448 3.741 3.741 0 0 1-4.083-.854 3.741 3.741 0 0 1-.766-4.1 3.741 3.741 0 0 1 3.498-2.27z"/></svg>