<svg xmlns="http://www.w3.org/2000/svg" width="24" height="24" fill="none" viewBox="0 0 24 24"><path fill="#FFF1C0" d="M16.432 16.313a1.542 1.542 0 0 1-.752.176c-.284 0-.534-.059-.751-.176a1.29 1.29 0 0 1-.505-.495 1.464 1.464 0 0 1-.18-.732c0-.281.061-.53.184-.746.125-.218.296-.39.513-.513a1.44 1.44 0 0 1 .74-.19c.278 0 .524.063.738.19.215.124.385.295.51.513.125.216.188.465.188.746 0 .276-.062.52-.184.732-.12.21-.287.374-.501.495m-.112-4.34c-.187.111-.4.167-.64.167s-.452-.056-.639-.167a1.17 1.17 0 0 1-.438-.46 1.411 1.411 0 0 1-.159-.68c0-.254.052-.476.155-.666.106-.193.252-.343.438-.451.187-.111.401-.167.643-.167.245 0 .46.056.643.167.184.108.329.258.435.451.105.19.158.412.158.666 0 .256-.053.483-.158.68-.106.196-.252.35-.439.46"/><path fill="#FFF1C0" fill-rule="evenodd" d="M8.5 5a2.5 2.5 0 0 0 2.45-3h2.1a2.5 2.5 0 1 0 4.9 0H19a3 3 0 0 1 3 3v14a3 3 0 0 1-3 3H5a3 3 0 0 1-3-3V5a3 3 0 0 1 3-3h1.05A2.5 2.5 0 0 0 8.5 5M5.084 16.384v1.483h6.096v-1.683H7.589v-.066l1.248-1.393c.588-.608 1.043-1.13 1.366-1.563.323-.438.547-.835.672-1.193.128-.358.192-.721.192-1.089 0-.56-.126-1.058-.38-1.492A2.654 2.654 0 0 0 9.622 8.37C9.17 8.124 8.636 8 8.023 8c-.596 0-1.122.128-1.578.385-.457.257-.812.62-1.065 1.088-.253.47-.38 1.022-.38 1.66h1.716c0-.311.053-.58.159-.804.106-.225.256-.398.45-.518.196-.12.424-.18.686-.18.25 0 .474.056.672.17.198.111.353.271.468.48a1.5 1.5 0 0 1 .17.737c0 .257-.045.496-.137.718a2.968 2.968 0 0 1-.405.67c-.175.228-.393.485-.651.77zm8.88 1.26c.501.237 1.073.356 1.716.356s1.214-.119 1.712-.357a2.92 2.92 0 0 0 1.178-.983c.284-.415.427-.886.43-1.412a2.533 2.533 0 0 0-.255-1.117 2.405 2.405 0 0 0-.668-.85 2.033 2.033 0 0 0-.931-.438v-.066a1.844 1.844 0 0 0 1.102-.756c.287-.4.432-.867.435-1.402a2.405 2.405 0 0 0-.393-1.34 2.69 2.69 0 0 0-1.069-.937c-.45-.228-.964-.342-1.54-.342-.577 0-1.092.114-1.546.342a2.67 2.67 0 0 0-1.065.932 2.389 2.389 0 0 0-.388 1.345c0 .532.142 1 .426 1.402.284.4.654.651 1.11.756v.066c-.347.063-.662.21-.943.437a2.405 2.405 0 0 0-.668.851 2.565 2.565 0 0 0-.242 1.117c0 .526.142.997.426 1.412a2.93 2.93 0 0 0 1.173.983" clip-rule="evenodd"/></svg>