<svg xmlns="http://www.w3.org/2000/svg" width="192" height="192" viewBox="0 0 192 192"><path d="m68.911 140.17-2.12.48c-3.512.8-7.976.584-11.345-.528-10.721-3.552-16.61-14.401-13.793-25.409.984-3.84 2.56-6.504 5.68-9.6 6.32-6.249 15.441-7.817 23.665-4.065l1.912.88 1.024-1.488c2.537-3.664 7.825-7.376 12.841-9 3.729-1.216 10-1.392 13.81-.392 5.576 1.48 11.056 5.224 14.216 9.728l1.84 2.632c.057.072 1.08-.48 2.289-1.224 6.104-3.76 14.2-4.096 20.76-.848 3.417 1.688 7.553 5.945 9.225 9.489 1.584 3.344 2 5.744 2.12 9.52.32 9.977-5.64 17.041-16.177 20.321-3.784 1.184-7.4.592-10.16-.096-1.376-.336-3.408-.88-3.408-.88v36.314H68.911s.312-19.553 0-35.842zm.536-62.331c-2.136-.664-3.72-2.32-4.96-4.44-1.288-2.2-.608-12.081-.912-18.113 0-16.321.024-16.49 2.872-19.097 2.296-2.112 23.985-18.601 25.577-19.45 1.032-.56 2.08-.735 4.16-.735 2.464 0 2.96.12 4.464 1.104 4.056 2.656 25.337 19.24 26.081 20.32 1.752 2.561 1.808 3.113 1.824 18.37.016 15.945-.112 17.065-2.264 19.52-.64.72-1.824 1.665-2.656 2.113-1.504.8-1.528.8-27.105.88-21.52.048-25.809-.08-27.08-.472m18.616-32.562H74.44v13.625h13.625z"/></svg>