<svg xmlns="http://www.w3.org/2000/svg" viewBox="0 0 24 24"><path d="M2 9.219h1.064l1.036 3.83 1.146-3.83H6.25l1.14 3.815L8.417 9.22h1.027L7.9 14.69H6.888l-1.148-3.86-1.146 3.86H3.559zm9.36 5.562a2.503 2.503 0 0 1-.944-.172 2.303 2.303 0 0 1-.735-.487 2.303 2.303 0 0 1-.472-.72 2.403 2.403 0 0 1-.166-.891q0-.481.174-.902a2.303 2.303 0 0 1 1.206-1.213q.42-.18.9-.18a2.303 2.303 0 0 1 .9.172 2.103 2.103 0 0 1 1.184 1.184q.172.413.172.9v.383H10.01q.106.464.458.749.352.285.892.285a1.302 1.302 0 0 0 .742-.21q.315-.21.473-.562l.832.48q-.286.531-.802.86-.511.324-1.245.324m-.037-3.674q-.458 0-.795.248-.33.247-.464.652h2.489q-.114-.442-.436-.667-.321-.232-.794-.232m4.726 3.673q-.397 0-.787-.15a2.223 2.223 0 0 1-1.185-1.161 2.403 2.403 0 0 1-.187-.967q0-.548.18-.968.189-.427.487-.72a2.103 2.103 0 0 1 .698-.441q.39-.16.809-.158.435 0 .803.165.366.165.607.45v-.525h1.01v4.385h-1.01v-.57q-.24.309-.615.488-.375.172-.81.172m.165-.93a1.272 1.272 0 0 0 1.207-.83 1.352 1.352 0 0 0 .106-.533q0-.279-.106-.525a1.302 1.302 0 0 0-.69-.721 1.302 1.302 0 0 0-.517-.104q-.285 0-.525.105a1.332 1.332 0 0 0-.705.712 1.402 1.402 0 0 0-.097.533q0 .284.097.54.106.248.286.434a1.302 1.302 0 0 0 .944.39m2.884-3.546h1.006v.652q.3-.652 1.124-.652a1.602 1.602 0 0 1 .772.187l-.382.96a1.001 1.001 0 0 0-.256-.12 1.001 1.001 0 0 0-.351-.053q-.444 0-.675.255-.225.248-.225.817v2.34H19.1z"/></svg>