<svg xmlns="http://www.w3.org/2000/svg" viewBox="0 0 24 24"><path d="M12 2c-.68 0-1.04.088-1.434.352l-.013.007c-.63.356-1.078.962-1.258 1.744-.14.604-.044 1.094.78 3.989l.333 1.17-1.71-1.67c-.942-.918-1.914-1.744-2.16-1.834l-.022-.008c-1.233-.44-2.454.043-3.153.928-.577.73-.799 1.73-.38 2.713l.001.007.012.026c.408.933 1.065 1.344 3.053 1.853.367.1.78.203 1.24.31.772.2 1.327.366 1.365.413-.038.047-.592.212-1.363.412-.46.107-.875.211-1.242.31-1.987.509-2.643.921-3.051 1.854l-.014.025-.002.008c-.418.982-.196 1.984.381 2.713.703.89 1.935 1.374 3.174.92.247-.09 1.22-.916 2.16-1.834l1.711-1.67-.332 1.17c-.824 2.895-.92 3.383-.78 3.988.18.783.628 1.389 1.257 1.745l.013.007c.394.264.754.352 1.434.352.086 0 .17-.003.254-.01a2.74 2.74 0 0 0 1.496-.55 2.5 2.5 0 0 0 .457-.464 2.9 2.9 0 0 0 .506-1.097c.076-.32.075-.622-.053-1.223-.127-.651-.39-1.609-.844-3.14l-.029-.096a17 17 0 0 0-.13-.451c-.045-.13.694.518 1.64 1.437.889.865 1.803 1.649 2.113 1.813.02.01.038.018.053.023 1.318.483 2.625-.092 3.299-1.09.482-.71.641-1.636.255-2.543l-.044-.101c-.44-.948-1.184-1.348-3.463-1.897a57 57 0 0 1-1.051-.263c-.642-.173-1.087-.31-1.115-.348.028-.038.473-.175 1.115-.348.312-.082.67-.171 1.05-.263 2.28-.55 3.023-.949 3.464-1.897l.035-.08.006-.012.004-.01a2.628 2.628 0 0 0-.256-2.543c-.674-.998-1.981-1.572-3.3-1.09l-.038.018c-.298.15-1.226.942-2.127 1.819-.946.92-1.685 1.566-1.64 1.437.015-.046.061-.21.13-.451l.03-.096c.452-1.532.716-2.49.843-3.14.128-.601.129-.903.053-1.223a2.9 2.9 0 0 0-.506-1.098C13.71 2.371 12.937 2 12 2zm0 7.813c1.231 0 2.229.979 2.229 2.187S13.23 14.188 12 14.188 9.772 13.208 9.772 12 10.77 9.813 12 9.813"/></svg>