<svg xmlns="http://www.w3.org/2000/svg" width="24" height="24" fill="none" viewBox="0 0 24 24"><path fill="#000" d="m8.027 16.04.463-1.125-.904-2.096h.543l.613 1.485.582-1.485h.533l-1.314 3.22h-.516m-1.869-.971c-.53 0-1.084-.427-1.084-1.146 0-.732.535-1.149 1.092-1.149.29 0 .551.12.71.309v-.264h.507v2.205h-.508v-.287a.917.917 0 0 1-.717.332m-3.154-.045v-2.75h.943c.57 0 .99.436.99.979a.973.973 0 0 1-.994.984h-.425v.787h-.514m3.236-.422c.377 0 .66-.305.66-.685a.663.663 0 1 0-1.326 0c0 .384.29.685.666.685m-2.722-.841h.39a.496.496 0 0 0 .514-.508.495.495 0 0 0-.514-.504h-.39v1.012m.417-3.048c-.483 0-.935-.172-.935-.746v-.199h.69l.002.25c0 .14.097.233.257.233.172 0 .23-.088.25-.174a.33.33 0 0 0-.003-.19c-.133-.332-1.047-.484-1.16-1.01a.894.894 0 0 1-.005-.347c.068-.42.442-.57.899-.57.364 0 .867.086.867.646v.181h-.64v-.16c0-.14-.09-.232-.24-.232-.162 0-.217.092-.235.174a.326.326 0 0 0 .001.135c.074.3 1.05.461 1.159 1 .01.054.033.2.002.421-.061.43-.443.588-.908.588m8.366-.013c-.479 0-.926-.17-.926-.738v-.197h.684v.246c0 .138.096.232.255.232.17 0 .227-.088.248-.172a.328.328 0 0 0-.003-.188c-.131-.33-1.037-.48-1.147-1.002a.875.875 0 0 1-.006-.343c.067-.416.439-.565.891-.565.36 0 .857.086.857.641v.18h-.634v-.159c0-.139-.087-.23-.236-.23-.16 0-.217.09-.235.172a.328.328 0 0 0 .004.132c.071.299 1.038.458 1.146.99.011.055.033.2.002.419-.06.425-.439.582-.9.582m2.418-.01c-.473 0-.854-.157-.899-.637a2.073 2.073 0 0 1-.006-.168V8.04h.65v1.903c0 .033 0 .07.006.098.013.063.07.186.249.186.178 0 .233-.123.246-.186a.548.548 0 0 0 .006-.098V8.04h.65v1.845c0 .056-.002.112-.006.168-.045.48-.423.637-.896.637m5.367-.028c-.456 0-.861-.165-.904-.634a1.864 1.864 0 0 1-.01-.17V8.776c0-.046.006-.127.011-.17.058-.48.447-.635.903-.635s.855.153.902.635c.008.082.006.17.006.17v.086h-.648v-.145s0-.06-.008-.098c-.012-.056-.061-.187-.258-.187-.187 0-.242.124-.255.187a.604.604 0 0 0-.01.122v1.175a.537.537 0 0 0 .005.098c.012.069.078.187.264.187s.25-.118.262-.187a.548.548 0 0 0 .006-.098v-.373h-.264v-.375H21v.69c0 .048-.002.084-.01.17-.042.469-.448.634-.904.634m-14.809-.048.477-2.574h1.145l.474 2.574h-.691L6.34 8.278l-.015.002-.353 2.334zm2.61 0 .056-2.574h1.05l.315 1.968h.016L9.64 8.04h1.05l.056 2.574h-.643L10.088 8.3h-.015l-.43 2.313H8.99l-.43-2.312h-.013l-.016 2.312h-.644m8.451-.027V8.04h.955l.592 2.02h.014l-.036-2.02h.639v2.547h-.916l-.637-2.09h-.013l.035 2.09h-.633"/></svg>