<svg xmlns="http://www.w3.org/2000/svg" viewBox="0 0 24 24"><path d="M11.157 20.855c-3.195-.29-5.956-2.206-7.306-5.068A8.6 8.6 0 0 1 3 11.962c.005-2.73 1.188-5.214 3.282-6.895a8 8 0 0 1 1.824-1.136c1.269-.598 2.293-.82 3.782-.815 1.159.003 1.908.119 2.831.437.72.248 1.745.758 1.967.98.321.32.366.78.112 1.153-.204.3-.376.394-.726.395-.277.001-.376-.031-.832-.278A7.01 7.01 0 0 0 8.72 5.7c-3.093 1.56-4.603 5.16-3.535 8.427 1.24 3.797 5.254 5.786 9.056 4.487.645-.22.923-.195 1.225.107.39.39.39.924.002 1.31-.156.155-.322.236-.793.39-1.167.38-2.418.534-3.518.434m6.71-1.749a.85.85 0 0 1-.556-.4c-.07-.126-.099-.353-.12-.925l-.026-.758-.795-.027c-.689-.024-.814-.042-.942-.137-.486-.364-.44-1.13.086-1.426.18-.101.29-.115.937-.115h.733l.017-.775c.017-.72.027-.79.151-.97a.854.854 0 0 1 1.379-.024c.097.133.115.254.139.947l.027.795.787.027c.845.029.982.07 1.166.351a.865.865 0 0 1-.11 1.106l-.194.194-.716.014c-1.058.022-.95-.076-.97.875-.016.775-.023.813-.153.952-.234.25-.543.359-.84.296m-6.634-3.664-.643-.58c-.521-.472-.71-.64-1.544-1.384-1.163-1.036-1.334-1.204-1.414-1.392-.31-.73.36-1.518 1.12-1.314.244.066.932.64 2.446 2.043.142.131.28.23.305.22.026-.01.945-.896 2.043-1.97 3.35-3.28 3.759-3.673 3.918-3.774.2-.127.63-.13.89-.008.391.186.568.573.492 1.079-.042.28.098.127-1.984 2.166-3.44 3.37-5.26 5.144-5.298 5.158-.023.009-.172-.101-.33-.244z"/></svg>