<svg xmlns="http://www.w3.org/2000/svg" viewBox="0 0 24 24"><path d="M12.225 5.324a6.586 6.586 0 0 0-6.486 5.453 3.953 3.953 0 0 0 .213 7.899h12.537A3.51 3.51 0 0 0 22 15.162a3.51 3.51 0 0 0-3.191-3.498 6.587 6.587 0 0 0-6.584-6.34M8.477 8.45l3.09.567v3.14L10.5 10.875h-.002a2.415 2.415 0 0 0 1.125 4.23l-.146 1.602a4 4 0 0 1-2.522-1.402A4.02 4.02 0 0 1 9.47 9.64l-.992-1.192zm4.09.479a4.02 4.02 0 0 1 2.293 7.191l.95 1.225-3.067-.672.105-3.139 1.023 1.317a2.413 2.413 0 0 0-1.505-4.317l.2-1.605z"/><path d="M10.498 10.876a2.413 2.413 0 0 0 1.123 4.228l-.145 1.603a4 4 0 0 1-2.522-1.402 4.02 4.02 0 0 1 .514-5.665l-.992-1.19 3.09.565v3.142z" opacity=".5"/></svg>