<svg xmlns="http://www.w3.org/2000/svg" viewBox="0 0 24 24"><path d="M16.845 12.556a1.177 1.177 0 0 0-1.092 1.127 1.177 1.177 0 1 0 2.352.002 1.177 1.177 0 0 0-1.26-1.129zm-3.05 3.293a.896.896 0 1 0 0 1.791h6.27a.896.896 0 1 0 0-1.791zm3.136 2.78a1.177 1.177 0 0 0-.004 2.35h.002a1.177 1.177 0 1 0 .002-2.35z" opacity=".5"/><path d="M7.03 3.02a.895.895 0 0 0-.896.894V6.15H3.895a.896.896 0 0 0 0 1.791h2.237v2.237a.896.896 0 0 0 1.793 0V7.94h2.24a.895.895 0 1 0 0-1.789h-2.24V3.914a.895.895 0 0 0-.895-.895zm6.764 2.927c-.495 0-.895.4-.895.895a.895.895 0 0 0 .895.894h6.271a.895.895 0 1 0 0-1.789zM4.31 13.478a.898.898 0 0 0-.63.272.894.894 0 0 0 .024 1.267l2.09 2.016-1.99 2.063a.896.896 0 0 0 1.287 1.242l1.992-2.063 2.03 1.96a.896.896 0 0 0 1.243-1.29l-2.029-1.957 1.93-1.994a.896.896 0 0 0-1.29-1.244L7.04 15.746l-2.092-2.018a.898.898 0 0 0-.639-.25z"/></svg>