<svg xmlns="http://www.w3.org/2000/svg" viewBox="0 0 24 24"><path d="M11.99 3.007c-5.404 0-5.63.004-6.107.126a3.746 3.746 0 0 0-1.747 1.009 3.747 3.747 0 0 0-1.01 1.747C3.006 6.366 3 6.594 3 12.03c0 5.508.003 5.656.131 6.119a3.777 3.777 0 0 0 1.476 2.114c.52.368.727.468 1.264.609.429.112.782.12 6.093.122 6.188.002 6.04.01 6.83-.38 1.075-.534 1.835-1.477 2.102-2.61.14-.593.139-11.414-.001-12.008a3.972 3.972 0 0 0-2.095-2.61c-.798-.384-.664-.377-6.81-.378zM6.83 4.933a1.905 1.905 0 0 1 1.906 1.905 1.905 1.905 0 0 1-1.905 1.905 1.905 1.905 0 0 1-1.905-1.905A1.905 1.905 0 0 1 6.83 4.933m5.094 0a1.905 1.905 0 0 1 1.905 1.905 1.905 1.905 0 0 1-1.905 1.905 1.905 1.905 0 0 1-1.905-1.905 1.905 1.905 0 0 1 1.905-1.905m4.237.197c.25-.003.503.088.713.284.112.104.223.19.248.19.024 0 .124-.083.22-.185.333-.347.94-.374 1.379-.061.371.264.545.997.347 1.467-.111.264-.556.755-1.222 1.347-.73.649-.755.647-1.61-.119-.364-.325-.741-.695-.839-.823-.363-.477-.448-.915-.263-1.358.197-.471.609-.737 1.027-.742zm-9.33 4.896a1.905 1.905 0 0 1 1.905 1.905 1.905 1.905 0 0 1-1.905 1.905 1.905 1.905 0 0 1-1.905-1.905 1.905 1.905 0 0 1 1.905-1.905zm5.093 0a1.905 1.905 0 0 1 1.905 1.905 1.905 1.905 0 0 1-1.905 1.905 1.905 1.905 0 0 1-1.905-1.905 1.905 1.905 0 0 1 1.905-1.905m5.094.069A1.905 1.905 0 0 1 18.923 12a1.905 1.905 0 0 1-1.905 1.905A1.905 1.905 0 0 1 15.113 12a1.905 1.905 0 0 1 1.905-1.905M6.828 15.19h10.287a1.9 1.9 0 0 1 1.9 1.9 1.9 1.9 0 0 1-1.9 1.901H6.828a1.9 1.9 0 0 1-1.9-1.9 1.9 1.9 0 0 1 1.9-1.901"/></svg>