<svg xmlns="http://www.w3.org/2000/svg" width="24" height="24" fill="none" viewBox="0 0 24 24"><path fill="#FFF1C0" d="M2 9h1.063l1.034 3.826L5.242 9h1.003l1.139 3.811L8.409 9h1.026l-1.542 5.466H6.882L5.736 10.61l-1.145 3.856H3.557zm9.349 5.556a2.5 2.5 0 0 1-.943-.172 2.27 2.27 0 0 1-.734-.487 2.273 2.273 0 0 1-.472-.719 2.414 2.414 0 0 1-.165-.89c0-.32.058-.62.173-.9a2.29 2.29 0 0 1 1.205-1.212c.28-.12.58-.18.899-.18a2.3 2.3 0 0 1 .898.172 2.093 2.093 0 0 1 1.183 1.183c.115.275.172.574.172.899v.382h-3.564c.07.309.222.559.457.748.235.19.532.285.891.285a1.3 1.3 0 0 0 .741-.21c.21-.14.367-.327.472-.561l.831.479c-.19.354-.457.641-.801.86-.34.215-.754.323-1.243.323m-.037-3.67c-.305 0-.57.083-.794.248-.22.165-.375.382-.464.651h2.486c-.075-.294-.22-.516-.435-.666-.214-.155-.479-.232-.793-.232m4.72 3.669c-.264 0-.526-.05-.786-.15a2.216 2.216 0 0 1-1.183-1.16 2.382 2.382 0 0 1-.187-.966c0-.365.06-.687.18-.966.125-.285.287-.524.486-.72a2.09 2.09 0 0 1 .697-.44c.26-.106.529-.158.808-.158.29 0 .557.055.802.165.244.11.446.26.606.449v-.524h1.01v4.38h-1.01v-.57c-.16.206-.364.368-.614.488-.25.114-.519.172-.809.172m.165-.929a1.274 1.274 0 0 0 1.206-.83 1.35 1.35 0 0 0 .105-.532c0-.185-.035-.36-.105-.524a1.295 1.295 0 0 0-.69-.72 1.274 1.274 0 0 0-.516-.104c-.19 0-.364.035-.524.105a1.332 1.332 0 0 0-.704.711 1.437 1.437 0 0 0-.097.532c0 .19.032.369.097.539.07.165.165.31.285.434a1.294 1.294 0 0 0 .943.389m2.881-3.541h1.004v.651c.2-.434.574-.651 1.123-.651a1.588 1.588 0 0 1 .771.187l-.382.958a1 1 0 0 0-.255-.12.987.987 0 0 0-.351-.052c-.295 0-.52.085-.674.255-.15.164-.225.437-.225.816v2.336h-1.01v-4.38"/></svg>