<svg version="1.1" viewBox="0 0 24 24" xmlns="http://www.w3.org/2000/svg"><path d="m2 6.5056v8.0251h1.499v-2.297h1.2425a2.8394 2.8394 0 0 0 2.9011-2.8726c0-1.5846-1.2263-2.8555-2.8897-2.8555zm1.499 1.385h1.1399a1.4445 1.4445 0 0 1 1.499 1.4705 1.4474 1.4474 0 0 1-1.499 1.4819h-1.1399zm11.872 0.20518h1.5845l1.7897 4.3374 1.6985-4.3374h1.556l-3.8359 9.3987h-1.5047l1.3508-3.283zm-4.1425-0.1312c-1.6254 0-3.1861 1.2153-3.1861 3.3514 0 2.0982 1.6166 3.3457 3.1633 3.3457a2.6848 2.6848 0 0 0 2.0918-0.96894v0.83785h1.4819v-6.4349h-1.4762v0.76945c-0.464-0.55154-1.2284-0.90054-2.0747-0.90054zm-0.22228 1.4477a1.9348 1.9348 0 0 1 2.3653 1.8866c0 1.1089-0.82631 2.0006-1.9265 2.0006-1.0972 0-1.9436-0.87998-1.9436-2.0006a1.9348 1.9348 0 0 1 1.5047-1.8866z"/></svg>
