<svg xmlns="http://www.w3.org/2000/svg" width="24" height="24" fill="none" viewBox="0 0 24 24"><path fill="#FFF1C0" d="M16.432 16.313a1.54 1.54 0 0 1-.752.176q-.426 0-.751-.176a1.3 1.3 0 0 1-.505-.495 1.46 1.46 0 0 1-.18-.732q0-.422.184-.746.188-.328.513-.513a1.44 1.44 0 0 1 .74-.19q.417 0 .738.19.322.186.51.513.188.324.188.746 0 .414-.184.732-.18.314-.501.495m-.112-4.34q-.28.167-.64.167c-.36 0-.452-.056-.639-.167a1.17 1.17 0 0 1-.438-.46 1.4 1.4 0 0 1-.159-.68q0-.381.155-.666.159-.29.438-.451.28-.167.643-.167.368 0 .643.167.276.162.435.451.158.285.158.666 0 .384-.158.68-.159.294-.439.46"/><path fill="#FFF1C0" fill-rule="evenodd" d="M8.5 5a2.5 2.5 0 0 0 2.45-3h2.1a2.5 2.5 0 1 0 4.9 0H19a3 3 0 0 1 3 3v14a3 3 0 0 1-3 3H5a3 3 0 0 1-3-3V5a3 3 0 0 1 3-3h1.05A2.5 2.5 0 0 0 8.5 5M5.084 16.384v1.483h6.096v-1.683H7.589v-.066l1.248-1.393q.882-.913 1.366-1.563.485-.656.672-1.193.192-.537.192-1.089 0-.84-.38-1.492A2.65 2.65 0 0 0 9.622 8.37Q8.943 8 8.023 8q-.894 0-1.578.385-.686.386-1.065 1.088-.38.704-.38 1.66h1.716q0-.467.159-.804.159-.338.45-.518.293-.18.686-.18.375 0 .672.17.296.167.468.48a1.5 1.5 0 0 1 .17.737q0 .385-.137.718a3 3 0 0 1-.405.67q-.263.342-.651.77zm8.88 1.26q.752.356 1.716.356c.964 0 1.214-.119 1.712-.357a2.9 2.9 0 0 0 1.178-.983q.426-.623.43-1.412a2.5 2.5 0 0 0-.255-1.117 2.4 2.4 0 0 0-.668-.85 2.03 2.03 0 0 0-.931-.438v-.066a1.84 1.84 0 0 0 1.102-.756q.43-.6.435-1.402a2.4 2.4 0 0 0-.393-1.34 2.7 2.7 0 0 0-1.069-.937Q16.546 8 15.681 8t-1.546.342a2.67 2.67 0 0 0-1.065.932 2.4 2.4 0 0 0-.388 1.345q0 .798.426 1.402.426.6 1.11.756v.066q-.521.096-.943.437a2.4 2.4 0 0 0-.668.851 2.6 2.6 0 0 0-.242 1.117q0 .79.426 1.412a2.93 2.93 0 0 0 1.173.983" clip-rule="evenodd"/></svg>