<svg xmlns="http://www.w3.org/2000/svg" width="24" height="24" fill="none" viewBox="0 0 24 24"><path fill="#FFF1C0" d="M6.489 2a.997.997 0 0 0-.998.997v2.49H2.998a.997.997 0 1 0 0 1.994H5.49v2.491a.997.997 0 0 0 1.995 0V7.481H9.98a.997.997 0 1 0 0-1.993H7.486V2.997A.997.997 0 0 0 6.49 2M2.76 13.949a.998.998 0 0 1 1.41-.025l2.33 2.247 2.147-2.222a.998.998 0 0 1 1.435 1.385l-2.148 2.221 2.259 2.179a.996.996 0 1 1-1.386 1.434l-2.259-2.18-2.217 2.295A.998.998 0 0 1 2.896 19.9l2.217-2.295-2.328-2.246a.996.996 0 0 1-.025-1.409m10.263-7.695c0-.55.446-.996.997-.996h6.983a.997.997 0 1 1 0 1.993H14.02a.997.997 0 0 1-.997-.997m.997 10.032a.997.997 0 1 0 0 1.993h6.983a.997.997 0 1 0 0-1.993zm4.801-2.411a1.31 1.31 0 1 1-2.618-.001 1.31 1.31 0 0 1 2.618.001M17.511 22a1.31 1.31 0 1 0 .002-2.618A1.31 1.31 0 0 0 17.51 22"/></svg>