<svg xmlns="http://www.w3.org/2000/svg" viewBox="0 0 24 24"><path d="m8.614 17.521-.265.06c-.439.1-.997.073-1.418-.066-1.34-.444-2.076-1.8-1.724-3.176.123-.48.32-.813.71-1.2.79-.781 1.93-.977 2.958-.508l.239.11.128-.186c.317-.458.978-.922 1.605-1.125.466-.152 1.25-.174 1.726-.049.697.185 1.382.653 1.777 1.216l.23.329c.007.009.135-.06.286-.153.763-.47 1.775-.512 2.595-.106.427.211.944.743 1.153 1.186.198.418.25.718.265 1.19.04 1.247-.705 2.13-2.022 2.54-.473.148-.925.074-1.27-.012-.172-.042-.426-.11-.426-.11V22H8.614s.039-2.444 0-4.48zm.067-7.791c-.267-.083-.465-.29-.62-.555-.161-.275-.076-1.51-.114-2.264 0-2.04.003-2.061.359-2.387.287-.264 2.998-2.325 3.197-2.431.129-.07.26-.092.52-.092.308 0 .37.015.558.138.507.332 3.167 2.405 3.26 2.54.219.32.226.389.228 2.296.002 1.993-.014 2.133-.283 2.44-.08.09-.228.208-.332.264-.188.1-.191.1-3.388.11-2.69.006-3.226-.01-3.385-.059zm2.327-3.218V5.66H9.305v1.703h1.703z"/></svg>