<svg xmlns="http://www.w3.org/2000/svg" viewBox="0 0 24 24"><path d="M4.271 14.984h1.164l1.905 2.647 1.983-2.647h1.112v6.293H9.263v-4.414l-1.931 2.604-1.888-2.56v4.37H4.27zm6.888 1.25h1.173v5.043h-1.173zm-.146-1.233q0-.327.198-.526.198-.207.535-.207.344 0 .534.207.198.199.198.526t-.198.526q-.19.198-.534.198-.354 0-.543-.198t-.19-.526m2.026 1.233h1.155v.62q.25-.327.63-.525.387-.198.879-.198.94 0 1.465.569.535.568.535 1.586v2.991h-1.181v-2.87q0-.587-.285-.923-.284-.345-.853-.345-.5 0-.845.354-.336.353-.336 1.017v2.767h-1.164zm5.37 0h1.173v5.043H18.41zm-.146-1.233q0-.327.199-.526.198-.207.534-.207.345 0 .535.207.198.199.198.526t-.198.526q-.19.198-.535.198-.353 0-.543-.198t-.19-.526M2 2.722h2.771q.632 0 1.164.233.532.222.92.61t.61.92q.221.52.221 1.12t-.221 1.13q-.222.532-.61.92t-.931.62q-.532.222-1.164.222H3.508v2.317H2zM3.508 4.12V7.1H4.66q.333 0 .61-.11.277-.122.477-.322.2-.21.31-.476.11-.278.11-.588t-.11-.576q-.11-.277-.31-.477t-.477-.31q-.277-.122-.61-.122zm7.689 6.828q-.588 0-1.164-.222-.565-.233-1.02-.665-.454-.432-.731-1.053-.277-.632-.277-1.43 0-.81.266-1.43.277-.632.72-1.064.454-.432 1.03-.654.577-.233 1.198-.233.643 0 1.186.244t.898.665V4.33h1.496v6.484h-1.496v-.842q-.355.455-.91.72-.553.256-1.196.256m.244-1.375q.41 0 .764-.155.366-.155.621-.432t.4-.643q.154-.366.154-.787 0-.41-.155-.776-.144-.366-.399-.632-.255-.277-.62-.432-.355-.155-.765-.155-.422 0-.776.155t-.621.421-.421.632q-.144.366-.144.787t.144.798q.155.366.421.643.266.266.62.42.355.156.777.156m6.536.92-2.66-6.163h1.596l1.807 4.367 1.706-4.367H22l-3.868 9.477h-1.518z"/></svg>