<svg xmlns="http://www.w3.org/2000/svg" viewBox="0 0 24 24"><path d="M5.7 3A2.7 2.7 0 0 0 3 5.7v12.6A2.7 2.7 0 0 0 5.7 21h12.6a2.7 2.7 0 0 0 2.7-2.7V5.7A2.7 2.7 0 0 0 18.3 3h-.946a2.25 2.25 0 1 1-4.408 0h-1.892A2.25 2.25 0 0 1 8.85 5.7 2.25 2.25 0 0 1 6.646 3zm2.721 5.4c.552 0 1.03.11 1.438.332a2.385 2.385 0 0 1 .96.918c.228.391.34.839.34 1.343 0 .331-.056.657-.171.979-.113.322-.314.68-.605 1.074-.29.39-.7.858-1.229 1.406l-1.123 1.253v.06h3.23v1.515H5.777v-1.334l2.74-2.888c.233-.257.428-.487.585-.693a2.7 2.7 0 0 0 .364-.602c.083-.2.123-.416.123-.647a1.35 1.35 0 0 0-.153-.663 1.08 1.08 0 0 0-.42-.432 1.195 1.195 0 0 0-.604-.153 1.16 1.16 0 0 0-.62.161 1.062 1.062 0 0 0-.403.466 1.686 1.686 0 0 0-.143.724H5.7c0-.573.115-1.071.343-1.494.227-.42.546-.747.958-.979.41-.23.884-.346 1.42-.346zm6.893 0c.518 0 .98.102 1.385.308a2.43 2.43 0 0 1 .961.843 2.16 2.16 0 0 1 .355 1.206 2.134 2.134 0 0 1-.392 1.262 1.656 1.656 0 0 1-.991.68v.06a1.827 1.827 0 0 1 .837.394 2.16 2.16 0 0 1 .6.765 2.25 2.25 0 0 1 .231 1.005 2.22 2.22 0 0 1-.387 1.271 2.61 2.61 0 0 1-1.06.884c-.448.215-.674.322-1.541.322-.579 0-1.092-.106-1.544-.32v-.002a2.637 2.637 0 0 1-1.056-.884 2.196 2.196 0 0 1-.383-1.27 2.34 2.34 0 0 1 .218-1.006 2.16 2.16 0 0 1 .6-.767 1.87 1.87 0 0 1 .85-.392v-.06a1.644 1.644 0 0 1-1-.68 2.134 2.134 0 0 1-.383-1.262 2.16 2.16 0 0 1 .35-1.21 2.403 2.403 0 0 1 .957-.84 3.061 3.061 0 0 1 1.393-.307zm-.002 1.394c-.218 0-.41.05-.579.151a1.03 1.03 0 0 0-.393.406c-.093.171-.14.37-.14.598a1.26 1.26 0 0 0 .143.613 1.053 1.053 0 0 0 .394.413c.168.1.25.152.575.152.215 0 .407-.052.575-.152h.001c.168-.1.299-.237.394-.413.095-.177.142-.383.142-.613a1.21 1.21 0 0 0-.142-.598 1.046 1.046 0 0 0-.392-.406 1.092 1.092 0 0 0-.578-.151zm.002 3.679a1.296 1.296 0 0 0-.667.17c-.195.112-.35.266-.462.463-.11.194-.165.418-.165.671a1.314 1.314 0 0 0 .161.66 1.17 1.17 0 0 0 .456.444c.195.106.42.158.675.158a1.386 1.386 0 0 0 .677-.158c.192-.108.343-.256.451-.445.11-.19.166-.41.166-.659 0-.253-.056-.477-.17-.671a1.234 1.234 0 0 0-.458-.462 1.28 1.28 0 0 0-.664-.171z"/></svg>