<svg xmlns="http://www.w3.org/2000/svg" viewBox="0 0 24 24"><path d="M11.12 21.761c-.816-.292-1.84-.822-2.511-1.3-.69-.491-1.83-1.602-2.36-2.3a11.924 11.924 0 0 1-2.338-5.557c-.08-.566-.095-1.237-.08-3.834l.017-3.147 3.59-1.601c1.975-.88 3.807-1.696 4.072-1.812l.48-.21 4.047 1.802c2.226.991 4.068 1.832 4.093 1.867.066.095.055 5.29-.013 6.224-.296 4.033-2.732 7.728-6.215 9.426-.71.345-1.68.685-1.945.68-.098-.002-.475-.109-.837-.238zm1.703-6.819a202.278 202.278 0 0 0 2.272-2.821c.287-.405.231-.422-1.395-.422-1.236 0-1.4-.012-1.367-.096.149-.388 1.225-3.77 1.225-3.85 0-.133-.18-.197-.292-.104-.088.073-4.106 5.022-4.388 5.405-.123.167-.134.217-.068.297.068.081.295.096 1.484.096 1.166 0 1.399.015 1.371.086-.142.37-1.23 3.79-1.23 3.865 0 .1.108.172.22.146.034-.008 1.01-1.178 2.168-2.602z"/></svg>