<svg xmlns="http://www.w3.org/2000/svg" viewBox="0 0 24 24"><path d="M2 6.506v8.025h1.499v-2.297h1.243a2.84 2.84 0 0 0 2.9-2.873c0-1.585-1.226-2.855-2.89-2.855zM3.499 7.89h1.14a1.445 1.445 0 0 1 1.499 1.47 1.447 1.447 0 0 1-1.5 1.482H3.5zm11.872.205h1.585l1.79 4.337 1.698-4.337H22l-3.836 9.398h-1.505l1.35-3.283zm-4.142-.131c-1.626 0-3.187 1.215-3.187 3.351 0 2.098 1.617 3.346 3.164 3.346a2.685 2.685 0 0 0 2.092-.97v.839h1.481V8.096h-1.476v.77c-.464-.552-1.228-.901-2.075-.901zm-.223 1.447a1.935 1.935 0 0 1 2.366 1.887c0 1.109-.827 2-1.927 2-1.097 0-1.944-.88-1.944-2a1.935 1.935 0 0 1 1.505-1.887z"/></svg>