<svg xmlns="http://www.w3.org/2000/svg" xml:space="preserve" width="24" height="24"><path fill="none" stroke="#000" d="M4.197 10a7.99 7.99 0 0 0 5.554 9.84 7.99 7.99 0 0 0 9.84-5.555 7.99 7.99 0 0 0-5.555-9.839A7.99 7.99 0 0 0 4.197 10"/><path d="M6.765 5.927c-3.278 0-4.285 1.366-4.595 2.18-.31.813-.461 2.5 1.99 4.68 1.512 1.34 3.691 2.59 6.143 3.52 2.453.928 4.911 1.444 6.932 1.444 3.284 0 4.292-1.366 4.595-2.179.31-.813.461-2.5-1.99-4.68q-.031-.025-.063-.052c.218 1.308.1 2.61-.299 3.81-.002.009 0 .023-.003.03-.002.005-.009.01-.011.015l-.001.003h-.001c-.1.176-.75.528-2.22.528-1.694 0-3.897-.467-6.034-1.28-2.137-.808-4.091-1.924-5.36-3.047-1.135-1.008-1.377-1.724-1.31-1.894.004-.012.018-.027.029-.04A8 8 0 0 1 6.87 5.93z"/></svg>