<svg xmlns="http://www.w3.org/2000/svg" width="192" height="192" viewBox="0 0 192 192"><path d="M48.032 25.6h-.016v.016l-.04.032-15.016 99.56-16.856-23.92h-.032l-.016-.016-.024.016-.016.016v.024H16l8.528 65.032q0 .04.056.048h37.304l.016-.008h.016v-.016h.008l.008-.024v-.008l6.4-44.744 9.488 44.744v.008l.008.008.016.024h.008l.024.008h39.464l.024-.032 13.816-32.944 7.4 32.928v.008q.024.04.056.04h37.304a.08.08 0 0 0 .056-.064l-21.32-94.864-.056-.04h-37.32l-.032.032-13.568 30.44L87.528 25.64a.08.08 0 0 0-.056-.048z"/></svg>