<svg xmlns="http://www.w3.org/2000/svg" viewBox="0 0 24 24"><path d="M13.603 2.118c.85.238 1.716.91 2.047 1.587.186.384.187.385.215 1.384.027.96.033 1.007.16 1.145.128.14.132.168.098.698-.059.916-.287 1.582-.6 1.748-.093.05-.322.08-.61.08h-.46l-.229 1.202-.228 1.203.231.194c.127.106.467.438.755.737.633.656.913 1.16.999 1.8.036.267.038 1.153.004 2.574a83 83 0 0 0-.035 2.185c.009.01.575-.41 1.259-.934.764-.585 1.267-1.01 1.305-1.1.049-.117.038-.279-.052-.764a8 8 0 0 1-.114-.75c0-.277.178-.528.548-.773.655-.435 1.075-.469 1.42-.114l.184.188v2.26l-.157.22c-.086.121-.93 1.04-1.875 2.04-2.192 2.317-2.604 2.624-3.837 2.852-1.439.266-3.67.296-4.477.06-1.156-.337-1.8-.724-4.274-2.57-1.944-1.452-2.077-1.563-2.221-1.845-.201-.395-.213-.93-.028-1.293.069-.134 1.215-1.429 2.582-2.916 2.113-2.3 2.505-2.7 2.792-2.858.476-.26.941-.369 1.471-.345l.442.02.05-.17c.091-.3.067-1.217-.04-1.529-.12-.35-.517-1.06-.581-1.036-.026.01-.525.565-1.107 1.235-1.158 1.33-1.452 1.595-1.914 1.733-.448.133-1.107.086-1.503-.108-.343-.169-1.146-.944-.865-.836.085.033.22.043.3.023.081-.02.503-.392.95-.836C7.454 7.277 8.01 7.006 9.39 6.961l.78-.026-.164-.36c-.234-.513-.32-.89-.32-1.413-.003-2.105 1.924-3.603 3.917-3.044m-6.18 13.474c-.53.451-.965.842-.965.868 0 .045 3.077 2.714 3.13 2.714.022 0-1.159-4.366-1.188-4.393-.006-.005-.446.36-.977.81"/></svg>