<svg xmlns="http://www.w3.org/2000/svg" viewBox="0 0 24 24"><path d="M5.7 3A2.7 2.7 0 0 0 3 5.7v12.6A2.7 2.7 0 0 0 5.7 21h12.6a2.7 2.7 0 0 0 2.7-2.7V5.7A2.7 2.7 0 0 0 18.3 3h-.946a2.25 2.25 0 1 1-4.408 0h-1.892A2.25 2.25 0 0 1 8.85 5.7 2.25 2.25 0 0 1 6.646 3zm2.721 5.4q.827 0 1.438.332a2.4 2.4 0 0 1 .96.918q.341.587.34 1.343 0 .496-.171.979-.169.483-.605 1.074-.435.585-1.229 1.406l-1.123 1.253v.06h3.23v1.515H5.777v-1.334l2.74-2.888q.35-.385.585-.693a2.7 2.7 0 0 0 .364-.602q.124-.3.123-.647a1.35 1.35 0 0 0-.153-.663 1.1 1.1 0 0 0-.42-.432 1.2 1.2 0 0 0-.604-.153 1.16 1.16 0 0 0-.62.161 1.06 1.06 0 0 0-.403.466 1.7 1.7 0 0 0-.143.724H5.7q0-.86.343-1.494.34-.63.958-.979.615-.345 1.42-.346m6.893 0q.777 0 1.385.308a2.43 2.43 0 0 1 .961.843 2.16 2.16 0 0 1 .355 1.206 2.13 2.13 0 0 1-.392 1.262 1.66 1.66 0 0 1-.991.68v.06a1.8 1.8 0 0 1 .837.394 2.16 2.16 0 0 1 .6.765 2.25 2.25 0 0 1 .231 1.005 2.2 2.2 0 0 1-.387 1.271 2.6 2.6 0 0 1-1.06.884c-.448.215-.674.322-1.541.322q-.867 0-1.544-.32v-.002a2.64 2.64 0 0 1-1.056-.884 2.2 2.2 0 0 1-.383-1.27 2.34 2.34 0 0 1 .218-1.006 2.16 2.16 0 0 1 .6-.767 1.9 1.9 0 0 1 .85-.392v-.06a1.64 1.64 0 0 1-1-.68 2.13 2.13 0 0 1-.383-1.262 2.16 2.16 0 0 1 .35-1.21 2.4 2.4 0 0 1 .957-.84 3.06 3.06 0 0 1 1.393-.307m-.002 1.394q-.326 0-.579.151a1.03 1.03 0 0 0-.393.406q-.14.256-.14.598a1.26 1.26 0 0 0 .143.613 1.05 1.05 0 0 0 .394.413c.168.1.25.152.575.152q.323-.001.575-.152h.001q.252-.15.394-.413a1.3 1.3 0 0 0 .142-.613 1.2 1.2 0 0 0-.142-.598 1.05 1.05 0 0 0-.392-.406 1.1 1.1 0 0 0-.578-.151m.002 3.679a1.3 1.3 0 0 0-.667.17q-.293.168-.462.463-.165.291-.165.671a1.3 1.3 0 0 0 .161.66 1.17 1.17 0 0 0 .456.444q.293.159.675.158a1.4 1.4 0 0 0 .677-.158q.288-.162.451-.445.166-.285.166-.659a1.3 1.3 0 0 0-.17-.671 1.23 1.23 0 0 0-.458-.462 1.3 1.3 0 0 0-.664-.171"/></svg>