<svg xmlns="http://www.w3.org/2000/svg" viewBox="0 0 24 24"><path d="M19.841 15.376c-.58 0-1.057-.112-1.438-.335a2.234 2.234 0 0 1-.884-.965l1.118-.519c.127.24.295.417.508.544.213.127.462.188.752.188s.523-.061.67-.183.224-.27.224-.442a.3.3 0 0 0-.102-.229.797.797 0 0 0-.269-.152 2.133 2.133 0 0 0-.391-.112c-.147-.03-.305-.06-.462-.096a7.08 7.08 0 0 1-.666-.168 2.124 2.124 0 0 1-.584-.27 1.35 1.35 0 0 1-.422-.441 1.285 1.285 0 0 1-.162-.67c0-.204.05-.402.147-.595.097-.193.239-.36.417-.508.178-.147.396-.264.65-.345a2.6 2.6 0 0 1 .843-.127c.523 0 .96.101 1.31.3.351.197.626.472.829.817l-1.026.503a1.097 1.097 0 0 0-.447-.427 1.337 1.337 0 0 0-.66-.157c-.285 0-.499.056-.636.168-.137.111-.203.238-.203.386 0 .167.102.29.305.365.203.071.503.153.894.234a6.4 6.4 0 0 1 .65.163c.219.066.417.157.595.274.177.117.325.259.431.442.112.178.168.401.168.67a1.57 1.57 0 0 1-.518 1.113 2.057 2.057 0 0 1-.666.411c-.269.107-.589.158-.965.158m-4.72 0c-.578 0-1.056-.112-1.437-.335a2.234 2.234 0 0 1-.884-.966l1.118-.518c.127.239.295.417.508.544.213.127.462.188.752.188s.523-.061.67-.183a.558.558 0 0 0 .224-.442c0-.091-.036-.168-.102-.229s-.157-.111-.269-.152a2.133 2.133 0 0 0-.391-.112c-.147-.03-.305-.06-.462-.096a7.08 7.08 0 0 1-.666-.168 2.124 2.124 0 0 1-.584-.27 1.35 1.35 0 0 1-.422-.441 1.285 1.285 0 0 1-.162-.67c0-.204.05-.402.147-.595.097-.193.239-.36.417-.508.177-.147.396-.264.65-.346a2.6 2.6 0 0 1 .843-.127c.523 0 .96.102 1.31.3.351.198.626.473.829.818l-1.026.503a1.097 1.097 0 0 0-.448-.427 1.337 1.337 0 0 0-.66-.157c-.284 0-.498.056-.635.167s-.203.24-.203.387c0 .167.101.29.305.365.203.071.503.153.894.234a6.4 6.4 0 0 1 .65.163c.218.066.417.157.594.274.178.117.325.259.432.442.112.178.168.401.168.67a1.57 1.57 0 0 1-.518 1.113 2.057 2.057 0 0 1-.666.411c-.27.107-.59.158-.965.158m-5.75 0c-.316 0-.625-.061-.935-.183a2.643 2.643 0 0 1-.828-.528 2.616 2.616 0 0 1-.59-.849c-.147-.335-.223-.716-.223-1.143s.07-.818.218-1.153c.148-.335.34-.62.58-.848.238-.234.518-.407.832-.529s.635-.182.96-.182c.346 0 .666.066.956.193.29.127.533.304.721.528V9.96h1.204v5.395h-1.204v-.767a2.034 2.034 0 0 1-.732.569c-.3.137-.62.208-.965.208m.198-1.143c.229 0 .437-.04.625-.122.193-.081.356-.193.493-.34a1.618 1.618 0 0 0 .447-1.118c0-.218-.04-.417-.122-.605a1.594 1.594 0 0 0-.325-.497 1.462 1.462 0 0 0-.493-.336 1.594 1.594 0 0 0-.625-.122 1.615 1.615 0 0 0-1.123.452 1.514 1.514 0 0 0-.335.493c-.08.193-.121.397-.121.615a1.588 1.588 0 0 0 .457 1.123 1.592 1.592 0 0 0 1.123.457M2 8.625h2.235a2.3 2.3 0 0 1 1.682.7c.208.214.37.468.492.763.117.29.178.604.178.934 0 .33-.06.646-.178.94a2.368 2.368 0 0 1-.492.767 2.325 2.325 0 0 1-1.692.701H3.214v1.93H2zm1.214 1.163v2.484h.93c.177 0 .34-.03.492-.096a1.15 1.15 0 0 0 .386-.27 1.292 1.292 0 0 0 .34-.879 1.256 1.256 0 0 0-.34-.873 1.202 1.202 0 0 0-.879-.36h-.929z"/></svg>