<svg xmlns="http://www.w3.org/2000/svg" width="192" height="192" viewBox="0 0 192 192"><path d="M16 52.052v64.2h11.992V97.876h9.944a22.72 22.72 0 0 0 23.2-22.984c0-12.68-9.808-22.84-23.12-22.84zm11.992 11.072h9.12a11.56 11.56 0 0 1 11.992 11.76 11.576 11.576 0 0 1-12 11.856H28zm94.976 1.64h12.68l14.32 34.696 13.584-34.696H176l-30.688 75.184h-12.04l10.8-26.264zm-33.136-1.048c-13.008 0-25.496 9.72-25.496 26.808 0 16.784 12.936 26.768 25.312 26.768a21.52 21.52 0 0 0 16.736-7.76v6.712h11.848V64.772h-11.808v6.16c-3.712-4.416-9.824-7.208-16.6-7.208zm-1.784 11.576a15.48 15.48 0 0 1 18.928 15.096c0 8.872-6.616 16-15.416 16-8.776 0-15.552-7.04-15.552-16a15.48 15.48 0 0 1 12.04-15.096"/></svg>