<svg xmlns="http://www.w3.org/2000/svg" width="24" height="24" fill="none" viewBox="0 0 24 24"><path fill="#FFF1C0" fill-rule="evenodd" d="m10.566 2.352-.013.008c-.63.356-1.078.96-1.258 1.743-.139.604-.043 1.093.78 3.988l.334 1.17-1.712-1.67c-.941-.918-1.913-1.743-2.16-1.833l-.021-.008c-1.233-.44-2.453.042-3.152.927-.577.73-.8 1.731-.382 2.713l.003.008.011.025c.408.933 1.065 1.346 3.053 1.855q.551.149 1.24.31c.772.199 1.328.365 1.366.412-.038.047-.594.213-1.365.413q-.69.16-1.241.309c-1.987.508-2.644.921-3.052 1.854l-.012.026-.003.008c-.418.982-.195 1.984.382 2.713.703.89 1.934 1.373 3.173.919.247-.09 1.219-.915 2.16-1.833l1.712-1.67-.333 1.17c-.824 2.895-.92 3.383-.78 3.988.18.783.628 1.387 1.257 1.743l.013.008c.394.264.754.352 1.434.352q.129 0 .254-.01a2.74 2.74 0 0 0 1.495-.55 2.5 2.5 0 0 0 .458-.463 2.9 2.9 0 0 0 .506-1.098c.076-.32.075-.622-.053-1.223-.127-.651-.39-1.608-.843-3.14l-.029-.097a17 17 0 0 0-.132-.45c-.044-.13.694.518 1.64 1.437.889.865 1.805 1.648 2.115 1.812q.03.016.052.024c1.318.483 2.624-.092 3.298-1.09.482-.71.643-1.635.257-2.542l-.046-.103c-.44-.948-1.183-1.346-3.462-1.895a57 57 0 0 1-1.052-.264c-.642-.173-1.086-.31-1.114-.348.028-.038.472-.175 1.114-.348.312-.082.671-.172 1.052-.264 2.28-.55 3.021-.947 3.462-1.895l.036-.08.006-.013.004-.01c.386-.907.225-1.832-.257-2.542-.674-.998-1.98-1.573-3.298-1.09l-.04.017c-.298.15-1.226.942-2.127 1.819-.946.92-1.684 1.566-1.64 1.437.016-.046.063-.209.132-.45l.029-.097c.453-1.532.716-2.489.843-3.14.128-.601.129-.903.053-1.223a2.9 2.9 0 0 0-.506-1.098C13.71 2.371 12.937 2 12 2c-.68 0-1.04.088-1.434.352m1.433 11.836c1.231 0 2.229-.98 2.229-2.188s-.998-2.187-2.229-2.187c-1.23 0-2.228.979-2.228 2.187s.997 2.188 2.228 2.188" clip-rule="evenodd"/></svg>