<svg xmlns="http://www.w3.org/2000/svg" viewBox="0 0 24 24"><path d="M6.105 14.899c-.206-.754-.247-1.136-.214-2.001.039-1.012.174-1.585.572-2.424.796-1.68 2.262-2.866 4.146-3.355.762-.197 2.059-.201 2.834-.009 2.62.652 4.476 2.773 4.747 5.424.056.547.044 1.098-.032 1.467-.028.135-.058.11-.289-.244a5.766 5.766 0 0 0-7.965-1.72c-.472.302-1.211 1.015-1.567 1.511a7 7 0 0 0-.526.92c-.336.716-.44.79-1.092.79h-.515zm-3.748-1.011c-.174-.156-.204-.225-.204-.468 0-.228.034-.32.173-.459.166-.166.204-.174.884-.194.96-.028 1.238.117 1.238.646 0 .514-.26.657-1.197.657-.674 0-.694-.004-.894-.182m17.577-.353c-.22-.12-.299-.273-.299-.577 0-.28.2-.546.46-.611.087-.022.455-.03.818-.018.623.02.668.03.832.195.139.138.173.23.173.458 0 .243-.03.312-.204.468-.2.179-.217.182-.907.18-.497-.002-.752-.03-.873-.095M4.04 9.593c-.67-.385-.84-.602-.759-.97.056-.255.365-.495.638-.495.255 0 1.27.547 1.425.769.255.364-.016.953-.469 1.018-.183.027-.32-.026-.835-.322m14.741-.115c-.4-.18-.501-.732-.188-1.026.295-.277 1.126-.7 1.376-.7.502 0 .797.617.485 1.014-.147.186-1.066.73-1.304.771a.8.8 0 0 1-.369-.06zM7.358 6.688c-.2-.158-.794-1.17-.794-1.355 0-.56.675-.902 1.072-.543.065.059.259.349.43.644.38.655.408.918.129 1.198a.636.636 0 0 1-.837.056m8.362-.12c-.203-.086-.4-.375-.4-.587 0-.274.604-1.341.823-1.454.497-.258 1.077.127.972.646-.042.213-.57 1.151-.726 1.293-.14.126-.488.18-.669.102m-4.23-1.04c-.262-.142-.298-.273-.298-1.091 0-.756.001-.76.183-.942.254-.255.61-.256.893-.003.197.176.202.193.227.806.03.754-.046 1.038-.324 1.207-.234.143-.447.15-.68.023z" opacity=".5"/><path d="M4.123 20.6c-.522-.14-.85-.32-1.243-.685-1.135-1.05-1.177-2.709-.096-3.799.722-.728 1.186-.857 3.064-.857 1.645 0 1.58.026 1.963-.792a5.9 5.9 0 0 1 2.874-2.853c1.455-.66 3.251-.658 4.71.004 1.211.55 2.243 1.568 2.835 2.8.362.752.42.798 1.058.847.65.051 1.059.185 1.544.51 1.73 1.155 1.494 3.79-.415 4.644-.63.283-.605.282-8.463.278-6.386-.004-7.537-.018-7.83-.097z"/></svg>