<svg xmlns="http://www.w3.org/2000/svg" viewBox="0 0 24 24"><path d="m13.009 3 2.428 2.428 1.949-1.947a.282.282 0 0 0-.2-.481zm-6.195.001a.281.281 0 0 0-.2.48l2.4 2.4L12 8.866l2.94 2.94.2.2-.2.2L12 15.144 6.625 20.52a.281.281 0 0 0 .2.48h5.177a.28.28 0 0 0 .2-.082l2.785-2.786 3.14-3.139 2.786-2.788a.28.28 0 0 0 0-.398L18.126 9.02l-3.14-3.138-2.796-2.798a.28.28 0 0 0-.19-.08L11.991 3zm1.749 3.33L5.875 9.02l-2.787 2.787a.28.28 0 0 0 0 .398l2.787 2.788 2.688 2.688 2.986-2.987-2.489-2.489-.2-.2.2-.2 2.489-2.486zm6.875 12.251L13.021 21h4.155a.282.282 0 0 0 .2-.48z"/></svg>