<svg xmlns="http://www.w3.org/2000/svg" width="192" height="192" viewBox="0 0 192 192"><path d="M74.416 16c-1.936 0-3.84.592-6.432 1.832-4.8 2.304-7.552 6.872-7.536 12.52 0 4.16 1.888 8.36 4.864 10.808 2.136 1.76 10.048 5.16 16.896 7.256l3.392 1.04H46.8A20.08 20.08 0 0 0 26.736 69.52v92.064c0 7.936 6.48 14.416 14.424 14.416h109.68c7.936 0 14.424-6.48 14.424-14.416V69.52a20.08 20.08 0 0 0-20.08-20.072h-38.24c0-.24 5.344-2.056 6.96-2.6 8.776-2.944 12.928-5.2 14.936-8.128 7.44-10.8-1.736-24.976-14.448-22.336-6.976 1.448-10.128 5.888-15.552 21.888-1.232 3.664-2.4 7.04-2.56 7.504-.184.464-1.672-3.048-3.312-7.816-5.488-15.88-7.896-19.344-14.872-21.368a12.8 12.8 0 0 0-3.68-.592m-.064 6.056c2.192-.072 4.4.888 6.272 2.896 1.76 1.888 7.52 15.52 7.52 17.824 0 .4-.32.728-.704.72-1.416-.04-12.664-3.984-15.696-5.496-5.488-2.744-7.072-8.432-3.536-12.64 1.792-2.128 3.96-3.232 6.144-3.304m42.704.04c2.64-.12 5.328 1.16 7.168 3.888 1.096 1.624 1.288 2.52 1.096 4.96-.392 4.872-2.88 6.72-14.16 10.52-5.648 1.896-7.752 2.4-7.752 1.816 0-.928 5.488-14.528 6.72-16.64 1.68-2.888 4.28-4.416 6.928-4.544M46.816 55.68H85.6v.008l-5.384 3.88c-4.328 2.832-5.08 3.552-5.08 4.856 0 2.04 1.776 3.64 3.456 3.104.696-.216 4.816-2.784 9.144-5.704 4.336-2.912 8.04-5.296 8.224-5.296s4.256 2.592 9.04 5.76c8.488 5.648 8.72 5.76 10.192 4.936 1.096-.624 1.504-1.296 1.504-2.52 0-1.472-.592-2.08-4.8-4.944-2.648-1.8-4.904-3.536-5.016-3.856-.032-.096.448-.16 1.16-.224h30.504c1.32.024 2.624.056 3.664.096v-.096h2.984a13.76 13.76 0 0 1 13.848 13.84v92.064c0 4.6-3.6 8.2-8.2 8.2H41.16c-4.6 0-8.208-3.6-8.208-8.2V69.52a13.76 13.76 0 0 1 13.856-13.84zm49.2 16.112a42.528 42.528 0 0 0-4.36 84.808v-30.88a12.224 12.224 0 1 1 8.68 0v30.88a42.536 42.536 0 0 0-4.32-84.808"/></svg>