<svg xmlns="http://www.w3.org/2000/svg" viewBox="0 0 24 24"><path d="M9.302 2c-.242 0-.48.074-.804.229-.6.288-.944.859-.942 1.565 0 .52.236 1.045.608 1.351.267.22 1.256.645 2.112.907l.424.13H5.85A2.512 2.512 0 0 0 3.342 8.69v11.508c0 .992.81 1.802 1.803 1.802h13.71c.992 0 1.803-.81 1.803-1.802V8.69a2.512 2.512 0 0 0-2.51-2.509h-4.78c0-.03.668-.257.87-.325 1.097-.368 1.616-.65 1.867-1.016.93-1.35-.217-3.122-1.806-2.792-.872.181-1.266.736-1.944 2.736-.154.458-.3.88-.32.938-.023.058-.209-.381-.414-.977-.686-1.985-.987-2.418-1.859-2.671A1.606 1.606 0 0 0 9.302 2m-.008.757c.274-.009.55.111.784.362.22.236.94 1.94.94 2.228 0 .05-.04.091-.088.09-.177-.005-1.583-.498-1.962-.687-.686-.343-.884-1.054-.442-1.58.224-.266.495-.404.768-.413zm5.338.005c.33-.015.666.145.896.486.137.203.161.315.137.62-.049.609-.36.84-1.77 1.315-.706.237-.969.3-.969.227 0-.116.686-1.816.84-2.08.21-.361.535-.552.866-.568zM5.852 6.96H10.7v.001l-.673.485c-.541.354-.635.444-.635.607 0 .255.222.455.432.388.087-.027.602-.348 1.143-.713.542-.364 1.005-.662 1.028-.662.024 0 .532.324 1.13.72 1.061.706 1.09.72 1.274.617.137-.078.188-.162.188-.315 0-.184-.074-.26-.6-.618-.331-.225-.613-.442-.627-.482-.004-.012.056-.02.145-.028h3.813c.165.003.328.007.458.012V6.96h.373a1.72 1.72 0 0 1 1.731 1.73v11.508c0 .575-.45 1.025-1.025 1.025H5.145c-.575 0-1.026-.45-1.026-1.025V8.69a1.72 1.72 0 0 1 1.732-1.73zm6.15 2.014a5.316 5.316 0 0 0-.545 10.601v-3.86a1.528 1.528 0 1 1 1.085 0v3.86a5.317 5.317 0 0 0-.54-10.601z"/></svg>