<svg xmlns="http://www.w3.org/2000/svg" viewBox="0 0 24 24"><path d="M12 4.305a5.379 5.379 0 0 0-5.378 5.389 5.373 5.373 0 0 0 4.824 5.355V11.14a1.548 1.548 0 0 1-.994-1.446c0-.859.69-1.548 1.548-1.548.847 0 1.548.69 1.548 1.548 0 .655-.418 1.22-.994 1.446v3.91a5.373 5.373 0 0 0 4.824-5.356c-.011-2.983-2.418-5.39-5.378-5.39zm9.356 10.744c.004.065.02.432.02 1.03a5.297 5.297 0 0 0-.443-.065 2.377 2.377 0 0 0-.913.078 1.514 1.514 0 0 0-.697.432c-.346.383-.448.953-.42 1.454.025.4.143.856.4 1.17.257.313.64.476 1.035.517.02 0 .134.012.17.012.099.008.196.008.294.008a3.245 3.245 0 0 0 .542-.065c.045-.012.09-.025.135-.04.016-.005.105-.042.126-.054a.787.787 0 0 0 .297-.228.488.488 0 0 0 .098-.29v-3.96zm-17.975.762c-.35 0-.676.114-.908.317-.24.208-.371.493-.371.803 0 .306.118.55.359.75.203.17.456.277.7.383.334.142.624.269.624.489 0 .167-.114.35-.436.35-.46 0-.827-.35-.831-.354l-.07-.07L2 19.1l.045.048c.004.004.122.135.338.261.2.118.526.257.958.257.374 0 .696-.114.924-.334.216-.204.335-.49.335-.799a.924.924 0 0 0-.355-.766c-.208-.17-.473-.28-.709-.379-.326-.134-.607-.248-.607-.464 0-.094.045-.18.122-.245a.548.548 0 0 1 .33-.101c.408 0 .73.289.734.289l.077.073.359-.676-.041-.045c-.016-.016-.395-.407-1.129-.407zm1.577.053v3.748h1.381c.367 0 .685-.094.917-.269.265-.2.403-.497.403-.856 0-.2-.053-.395-.155-.554a.833.833 0 0 0-.334-.305c.22-.175.342-.444.342-.754s-.118-.57-.342-.75c-.212-.17-.505-.26-.847-.26zm3.072.004v3.748h.84v-3.748zm3.777.126a2.097 2.097 0 0 0-.66.09 1.47 1.47 0 0 0-.677.432c-.338.383-.436.953-.407 1.454.02.4.138.856.387 1.17.248.313.62.476 1.002.517.387.044.766 0 1.145-.098.147-.037.29-.086.432-.139l.016-.004-.008-.012a1.42 1.42 0 0 1-.224-.603l-.004-.016-.098.049a2.918 2.918 0 0 1-.513.191c-.265.07-.554.098-.819.02a.883.883 0 0 1-.436-.301c-.212-.281-.257-.68-.236-1.027.016-.269.073-.554.236-.774a.876.876 0 0 1 .436-.301c.375-.11.766-.02 1.12.102.119.04.253.093.404.158l.126-.696a4.662 4.662 0 0 0-1.222-.212zm3.116.004c-.64.004-1.242.224-1.242.224l-.086.68.139-.06a3.61 3.61 0 0 1 .57-.192 2.15 2.15 0 0 1 .521-.065c.233 0 .392.028.493.094.09.053.135.138.139.26a.29.29 0 0 1-.11.245c-.057.053-.196.138-.53.26l-.753.273c-.29.106-.497.24-.624.396-.13.163-.191.37-.183.619.008.29.126.525.346.697.086.065.192.122.29.163.146.057.317.085.472.097.387.033.75-.081 1.035-.31l-.025.237h.783v-.676l.016-1.7c.008-.024.004-.272.004-.272-.008-.347-.114-.6-.318-.754-.195-.147-.505-.216-.937-.216zm3.255.004a4.7 4.7 0 0 0-.167 0c-.448.008-.765.086-.97.232-.207.155-.317.408-.33.75l-.003.273v2.359h.79l-.012-.122c-.012-.106-.029-.4-.029-.4-.004-.052-.004-.105-.004-.167l-.048-1.462c-.004-.15-.004-.31.012-.448a.49.49 0 0 1 .159-.281c.403-.339 1.108-.013 1.108-.013a.521.521 0 0 1 .04-.102c.057-.097.127-.187.204-.273.065-.077.147-.146.232-.211a3.803 3.803 0 0 0-.521-.102 4.292 4.292 0 0 0-.46-.033zm-12.43.567h.562c.253 0 .4.142.4.387 0 .248-.13.374-.387.374h-.196v.689h.26c.143 0 .262.045.343.13.086.09.122.176.122.302 0 .285-.179.464-.464.464h-.64zm14.862.025c.252.005.5.08.747.158l.004 2.017c0 .118-.139.191-.228.228a1.392 1.392 0 0 1-.367.073 1.154 1.154 0 0 1-.501-.028.932.932 0 0 1-.257-.123.803.803 0 0 1-.191-.179c-.22-.281-.265-.68-.245-1.027.016-.269.073-.554.245-.774.053-.065.118-.126.191-.179a.991.991 0 0 1 .602-.166zm-5.153 1.209-.028 1.043c0 .016-.126.073-.147.081a2.13 2.13 0 0 1-.513.143 1.928 1.928 0 0 1-.216.012c-.18 0-.314-.032-.403-.102a.34.34 0 0 1-.135-.277.384.384 0 0 1 .09-.28c.06-.078.187-.151.37-.22l.722-.274c.106-.045.179-.077.24-.114.008-.004.016-.008.02-.012z"/></svg>