<svg xmlns="http://www.w3.org/2000/svg" width="192" height="192" viewBox="0 0 192 192"><path d="M121.67 36.111v34.222h34.222V36.111zm-85.556 0v34.222h34.222V36.111zm0 85.556v34.222h34.222v-34.222z" opacity=".5"/><path d="M87.444 19v68.444H19V19zM36.111 36.111v34.222h34.222V36.111zM173.001 19v68.444h-68.444V19zm-51.333 17.111v34.222h34.222V36.111zm-102.67 68.444h68.444v68.444H18.998zm51.333 51.333v-34.222H36.109v34.222zm85.556 0v17.111h17.111v-17.111zm-51.333-51.333v17.111h17.111v-17.111zm17.111 17.111v17.111h17.111v-17.111zm17.111-17.111v17.111h17.111v-17.111zm17.111 17.111v17.111h17.111v-17.111zm-17.111 17.111v17.111h17.111v-17.111zm-34.222 0v17.111h17.111v-17.111zm17.111 17.111v17.111h17.111v-17.111z"/></svg>