<svg version="1.1" viewBox="0 0 24 24" xmlns="http://www.w3.org/2000/svg"><path d="m15 5.0002v3.9996h4v-3.9996h-3.9996m-10 0v3.9996h3.9996v-3.9996zm0 9.9997v4h3.9996v-3.9996h-3.9996" opacity=".5"/><path d="m11 3v7.9999h-7.9999v-7.9999zm-5.9998 2.0002v3.9996h3.9996v-3.9996zm16-2.0002v7.9999h-7.9999v-7.9999zm-6.0001 2.0002v3.9996h4v-3.9996h-3.9996m-12 7.9999h7.9999v7.9999h-7.9999zm6.0001 5.9998v-3.9996h-4v3.9996h3.9996m10 0v2.0002h2.0002v-2.0002zm-5.9998-5.9998v1.9998h1.9998v-1.9998zm1.9998 1.9998v2.0002h2.0002v-2.0002zm2.0002-1.9998v1.9998h1.9998v-1.9998zm1.9998 1.9998v2.0002h2.0002v-2.0002zm-1.9998 2.0002v1.9998h1.9998v-1.9998zm-4 0v1.9998h1.9998v-1.9998zm1.9998 1.9998v2.0002h2.0002v-2.0002z"/></svg>
