<svg xmlns="http://www.w3.org/2000/svg" width="192" height="192" font-family="Arial" font-size="15" style="stroke:none;stroke-linecap:butt;stroke-linejoin:miter;stroke-width:1;stroke-dasharray:none;fill:#000;fill-opacity:1;fill-rule:evenodd" viewBox="0 0 192 192"><path d="M150 150.25v14.25h14.5v-14.25zm-15.25 0v14.25H149v-14.25zm-76.5 0v14.25h75.5v-14.25zm-15.5 0v14.25h14.5v-14.25zm-15.25 0v14.25h14.25v-14.25zm122.5-15.5v14.5h14.5v-14.5zm-15.25 0v14.5H149v-14.5zm-76.5 0v14.5h75.5v-14.5zm-15.5 0v14.5h14.5v-14.5zm-15.25 0v14.5h14.25v-14.5zM150 58.25v75.5h14.5v-75.5zm-15.25 0v75.5H149v-75.5zm-76.5 0v75.5h75.5v-75.5zm-15.5 0v75.5h14.5v-75.5zm-15.25 0v75.5h14.25v-75.5zM150 43v14.25h14.5V43zm-15.25 0v14.25H149V43zm-76.5 0v14.25h75.5V43zm-15.5 0v14.25h14.5V43zM27.5 43v14.25h14.25V43zM150 27.5V42h14.5V27.5zm-15.25 0V42H149V27.5zm-76.5 0V42h75.5V27.5zm-15.5 0V42h14.5V27.5zm-15.25 0V42h14.25V27.5zM26.5 0h1v26.5h14.25V0h1v26.5h14.5V0h1v26.5h75.5V0h1v26.5H149V0h1v26.5h14.5V0h1v26.5H192v1h-26.5V42H192v1h-26.5v14.25H192v1h-26.5v75.5H192v1h-26.5v14.5H192v1h-26.5v14.25H192v1h-26.5V192h-1v-26.5H150V192h-1v-26.5h-14.25V192h-1v-26.5h-75.5V192h-1v-26.5h-14.5V192h-1v-26.5H27.5V192h-1v-26.5H0v-1h26.5v-14.25H0v-1h26.5v-14.5H0v-1h26.5v-75.5H0v-1h26.5V43H0v-1h26.5V27.5H0v-1h26.5z" style="stroke:#000"/><path d="M104.333 76.556v11.11h11.111v-11.11h-11.11m-27.778 0v11.11h11.11v-11.11zm0 27.777v11.111h11.11v-11.11h-11.11" style="stroke-width:2.381;fill:none;fill-opacity:0"/><path d="M93.222 71v22.222H71V71zm-16.666 5.556v11.11h11.11v-11.11zM121 71v22.222H98.778V71zm-16.667 5.556v11.11h11.111v-11.11h-11.11M71 98.778h22.222V121H71zm16.667 16.666v-11.11H76.556v11.11h11.11m27.778 0V121H121v-5.556zM98.778 98.778v5.555h5.555v-5.555zm5.555 5.555v5.556h5.556v-5.556zm5.556-5.555v5.555h5.555v-5.555zm5.555 5.555v5.556H121v-5.556zM109.889 109.889v5.555h5.555v-5.555zm-11.111 0v5.555h5.555v-5.555zm5.555 5.555V121h5.556v-5.556z" style="stroke-width:2.381"/></svg>