<svg xmlns="http://www.w3.org/2000/svg" viewBox="0 0 24 24"><path d="M12 22a6.4 6.4 0 0 1-3.361-.917 6.87 6.87 0 0 1-2.417-2.416h-3.11v-2.222h2.332a11 11 0 0 1-.096-1.098 37 37 0 0 1-.015-1.125H3.111V12h2.222q0-.75.015-1.237.013-.485.097-.985H3.11V7.556h3.111q.39-.667.876-1.21a5.6 5.6 0 0 1 1.124-.957L6.444 3.556 8 2l2.389 2.39q.638-.223 1.583-.223c.945 0 1.158.074 1.583.222L16 2l1.555 1.556-1.833 1.833a6.4 6.4 0 0 1 2.056 2.167h3.11v2.222h-2.333q.085.639.098 1.055.013.417.013 1.167h2.223v2.222h-2.223q0 .667-.013 1.125-.015.458-.098 1.097h2.334v2.223h-3.111a6.86 6.86 0 0 1-2.417 2.416A6.4 6.4 0 0 1 12 22M9.778 12h4.444V9.778H9.778zm0 4.444h4.444v-2.222H9.778z"/></svg>