<svg xmlns="http://www.w3.org/2000/svg" viewBox="0 0 24 24"><path d="M12 22a6.411 6.411 0 0 1-3.361-.917 6.866 6.866 0 0 1-2.417-2.416h-3.11v-2.222h2.332a11.184 11.184 0 0 1-.096-1.098 36.593 36.593 0 0 1-.015-1.125H3.111V12h2.222c0-.5.005-.912.015-1.237.009-.323.04-.652.097-.985H3.11V7.556h3.111c.26-.445.551-.848.876-1.21a5.641 5.641 0 0 1 1.124-.957L6.444 3.556 8 2l2.389 2.39c.425-.149.953-.223 1.583-.223s1.158.074 1.583.222L16 2l1.555 1.556-1.833 1.833a6.406 6.406 0 0 1 2.056 2.167h3.11v2.222h-2.333c.056.425.09.778.098 1.055.009.278.013.667.013 1.167h2.223v2.222h-2.223c0 .445-.004.82-.013 1.125-.01.305-.042.672-.098 1.097h2.334v2.223h-3.111a6.864 6.864 0 0 1-2.417 2.416A6.411 6.411 0 0 1 12 22M9.778 12h4.444V9.778H9.778zm0 4.444h4.444v-2.222H9.778z"/></svg>