<svg xmlns="http://www.w3.org/2000/svg" viewBox="0 0 24 24"><path d="M21.401 9.122v.166a.072.072 0 0 1-.067.066h-4.459s-.033 0-.066-.033l-.034-.499c-.033-.166-.066-.3-.166-.433-.233-.466-.566-.865-1.032-1.098a5.17 5.17 0 0 0-1.697-.599c-.233-.033-.532-.1-.932-.133a10.113 10.113 0 0 0-.998-.066c-.3.033-.599.133-.865.332-.233.2-.366.466-.333.766 0 .3.133.599.5.832.365.266.798.466 1.197.632.466.166.965.333 1.431.466.4.1.799.233 1.165.366.4.166.799.333 1.131.499.333.166.633.366.932.532.266.167.566.367.832.533.266.166.532.366.832.532.532.366.998.932 1.398 1.73.399.833.599 1.764.599 2.73 0 .632-.1 1.23-.3 1.83-.2.5-.466.932-.799 1.364a6.012 6.012 0 0 1-1.098.965c-.4.267-.832.466-1.264.666a11.492 11.492 0 0 1-3.495.732c-.732 0-1.464-.1-2.163-.3a7.09 7.09 0 0 1-1.63-.698c-.4-.233-.766-.5-1.098-.832-.2-.2-.4-.4-.566-.666l-.5 1.597c-.033.034-.066.1-.066.1 0 .034-.133.034-.333.034H2.932c-.1 0-.167 0-.267-.034-.033-.033-.033-.1-.033-.266v-3.561c0-.366-.033-.765-.033-1.131s-.033-.699-.033-.965v-.632c0-.034.033-.067.133-.067h4.459c.033 0 .033 0 .033.033.033.233.067.4.067.5.033.166.1.299.133.465a2.53 2.53 0 0 0 1.031 1.099 7.708 7.708 0 0 0 1.73.632c.234.033.533.1.933.133.332.033.665.067.998.067.333 0 .632-.134.898-.333.233-.2.366-.466.333-.766 0-.3-.166-.599-.532-.832a6.159 6.159 0 0 0-1.232-.632 18.835 18.835 0 0 0-1.464-.466c-.366-.1-.765-.233-1.131-.366a12.612 12.612 0 0 1-1.132-.499 22.562 22.562 0 0 1-.931-.5 16.638 16.638 0 0 1-.799-.532c-.233-.166-.532-.366-.832-.599-.3-.2-.532-.432-.765-.732-.267-.3-.466-.665-.633-1.031-.2-.4-.332-.832-.432-1.265-.1-.466-.167-.932-.133-1.43 0-.9.166-1.665.532-2.33A5.348 5.348 0 0 1 5.128 3.63c.5-.4 1.065-.7 1.664-.932a13.8 13.8 0 0 1 1.664-.5A8.75 8.75 0 0 1 9.753 2h.533c1.032 0 1.864.133 2.529.333.566.166 1.098.366 1.597.665.333.2.633.466.866.799.2.266.332.5.432.666l.533-1.631c.033-.033.033-.1.066-.133.1-.033.2-.033.3-.033h4.758c.034 0 .034.1.034.3v1.929c0 .3 0 .566.033.766v3.028z"/></svg>