<svg xmlns="http://www.w3.org/2000/svg" viewBox="0 0 24 24"><path d="M20.622 20.084v-1.52h-1.917a1.916 1.916 0 0 1-1.916 1.916 1.914 1.914 0 0 1-.748 1.52h2.664a1.916 1.916 0 0 0 1.916-1.916m.001-4.79v1.355H3.377v-1.355a13.597 13.597 0 0 0 8.103-1.628l.52-.288.519.288a13.593 13.593 0 0 0 8.102 1.628m-15.327 3.27H3.377v1.52c0 1.058.858 1.916 1.916 1.916h2.665a1.914 1.914 0 0 1-.75-1.52 1.916 1.916 0 0 1-1.915-1.916M12 4.756a8.623 8.623 0 0 0-.76.034 1.15 1.15 0 0 1-.862 1.317l-2.376.574-1.556 1.884a1.151 1.151 0 0 1-1.672.108 8.623 8.623 0 0 0-1.396 4.705h17.243a8.623 8.623 0 0 0-4.079-7.33l1.99-2.73a.479.479 0 1 0-.784-.549l-2.05 2.818A8.621 8.621 0 0 0 12 4.755M9.126 9.547a.958.958 0 1 1-1.916 0 .958.958 0 0 1 1.916 0m7.664 0a.958.958 0 1 1-1.916 0 .958.958 0 0 1 1.916 0M3.648 5.135a.191.191 0 0 1 .117-.287l2.686-.649 1.76-2.13a.191.191 0 0 1 .31.02l1.75 2.799a.191.191 0 0 1-.118.288l-2.686.648-1.76 2.13a.19.19 0 0 1-.14.07.19.19 0 0 1-.17-.09l-1.75-2.8m2.27-1.79-.52.126-.103-.15a.48.48 0 0 1 .785-.55l.14.206-.302.367"/></svg>