<svg xmlns="http://www.w3.org/2000/svg" viewBox="0 0 24 24"><path d="M11.869 4.229a4.757 4.757 0 0 0-2.13.437c-2.13.974-3.063 3.12-2.87 6.586.03.554.045 1.018.031 1.031-.047.047-.837-.422-1.513-.896-.917-.644-1.574-1.166-2.733-2.174l-.623-.541-.016 3.898a252.402 252.402 0 0 0 0 3.91c.009.008.178-.006.374-.03 1.796-.23 4.638-.284 5.341-.1.746.194 1.362.535 1.85 1.023.24.24.435.475.435.523 0 .048-.152-.068-.34-.255-.373-.374-1.08-.76-1.706-.934-.728-.203-3.013-.165-5.58.092l-.358.035-.016 1.47L2 19.775h7.79l-.04-.313c-.04-.315-.16-.817-.238-1.008-.024-.057-.017-.105.015-.105.09 0 .31.58.385 1.023l.068.402h5.659c3.111 0 5.658-.013 5.658-.029 0-.068-.374-.957-.54-1.285-.1-.198-.169-.372-.154-.387.042-.041.477.783.67 1.27l.172.43.555.001-.053-.181c-.144-.502-.84-1.86-1.322-2.578-.705-1.051-1.143-1.536-3.104-3.418-.888-.853-1.239-1.617-1.24-2.698 0-.915.078-1.08.979-2.017 1.159-1.206 1.942-2.082 1.988-2.227.086-.272-.215-.351-1.336-.357-.44-.003-.99-.027-1.219-.053-.403-.047-.44-.065-1.084-.549-1.25-.94-2.519-1.433-3.74-1.467zm.33 1.423c.332-.015.67.088.926.326.349.324.42.814.13.887-.177.045-.365-.051-.605-.308-.209-.225-.444-.262-.73-.114-.204.106-.242.195-.242.569 0 .23-.026.307-.131.38-.18.126-.362.117-.49-.025-.134-.148-.144-.655-.018-.951.2-.468.675-.742 1.16-.764"/></svg>