<svg xmlns="http://www.w3.org/2000/svg" viewBox="0 0 24 24"><path d="M19.437 12.975A8.04 8.04 0 0 0 19.5 12c0-.337-.025-.662-.075-.975l2.112-1.65a.517.517 0 0 0 .125-.637l-2-3.463a.508.508 0 0 0-.612-.225l-2.488 1a7.323 7.323 0 0 0-1.687-.975l-.375-2.65A.499.499 0 0 0 14 2h-4a.486.486 0 0 0-.488.425l-.375 2.65a7.519 7.519 0 0 0-1.687.975l-2.488-1a.495.495 0 0 0-.612.225l-2 3.463a.484.484 0 0 0 .125.637l2.112 1.65c-.05.313-.087.65-.087.975 0 .325.025.663.075.975l-2.113 1.65a.517.517 0 0 0-.125.638l2 3.462c.125.225.388.3.613.225l2.487-1a7.323 7.323 0 0 0 1.688.975l.375 2.65c.05.25.25.425.5.425h4c.25 0 .462-.175.487-.425l.375-2.65a7.52 7.52 0 0 0 1.688-.975l2.487 1c.225.088.488 0 .613-.225l2-3.463a.484.484 0 0 0-.125-.637zM12 15.75A3.76 3.76 0 0 1 8.25 12 3.761 3.761 0 0 1 12 8.25 3.761 3.761 0 0 1 15.75 12 3.761 3.761 0 0 1 12 15.75"/></svg>