<svg xmlns="http://www.w3.org/2000/svg" viewBox="0 0 24 24"><path d="M19.513 7.008V2a13.6 13.6 0 0 0-9.65 10.017h5.11a8.62 8.62 0 0 1 4.54-5.008M9.496 22h5.008v-5.009H9.496zm7.58-20H4.486v5.008h6.645A14.67 14.67 0 0 1 17.074 2m-3.873 10.785-.367 2.237-.034.4v.034h-.033v-.034l-.034-.4-.367-2.237H11.4l.801 3.539h1.202l.801-3.54zm1.269 3.539h2.003v-.701h-1.035v-.768h1.035v-.668h-1.035v-.668h1.035v-.734H14.47zm-5.343 0h2.004v-.701h-1.035v-.768h1.035v-.668h-1.035v-.668h1.035v-.734H9.128zm-4.64 0h1.97v-.701H5.455v-.768h1.001v-.668h-1v-.668h1.001v-.734h-1.97zm3.305-.768h1.002v.768h-1.97v-3.54h.968zm10.785-2.771c-.3 0-.501.133-.701.3l-.134.2-.033-.033.167-.267v-.167h-1.069v3.54h.969V14.12c0-.367.233-.467.4-.5.167-.034.367.066.367.266v2.471h.969V13.92c0-.768-.334-1.135-.935-1.135"/></svg>