<svg xmlns="http://www.w3.org/2000/svg" width="192" height="192" viewBox="0 0 192 192"><path d="M156.11 56.064V16a108.8 108.8 0 0 0-77.2 80.136h40.88a68.96 68.96 0 0 1 36.32-40.064m-80.136 119.93h40.064V135.93H75.974zm60.64-160H35.894v40.064h53.16a117.36 117.36 0 0 1 47.544-40.064m-30.984 86.28-2.936 17.896-.272 3.2v.272h-.264v-.272l-.272-3.2-2.936-17.896h-7.728l6.408 28.312h9.616l6.408-28.32zm10.152 28.312h16.024v-5.608h-8.28v-6.144h8.28v-5.344h-8.28v-5.344h8.28v-5.872h-16.024zm-42.744 0h16.032v-5.608h-8.28v-6.144h8.28v-5.344h-8.28v-5.344h8.28v-5.872H73.03zm-37.12 0h15.76v-5.608h-8.016v-6.144h8.008v-5.344h-8v-5.344h8.008v-5.872h-15.76zm26.44-6.144h8.016v6.144h-15.76v-28.32h7.744zm86.28-22.168c-2.4 0-4.008 1.064-5.608 2.4l-1.072 1.6-.264-.264 1.336-2.136v-1.336h-8.552v28.32h7.752v-17.904c0-2.936 1.864-3.736 3.2-4 1.336-.272 2.936.528 2.936 2.128v19.768h7.752v-19.496c0-6.144-2.672-9.08-7.48-9.08"/></svg>