<svg xmlns="http://www.w3.org/2000/svg" viewBox="0 0 24 24"><path d="M7.115 7.01a5.3 5.3 0 0 1 1.53.186 6.3 6.3 0 0 1 1.213.565c.328.206.82.63 1.093.924.273.304.623.793.765 1.087.142.304.448 1.054.688 1.685.23.63.492 1.217.569 1.304.087.087.295.456.48.815.175.359.492.815.69 1.022.207.195.666.522 1.026.706.601.305.744.326 1.694.326.81 0 1.148-.054 1.53-.228.274-.12.689-.37.93-.543a3.9 3.9 0 0 0 .797-.913c.24-.402.405-.87.514-1.511.131-.729.142-1.033.055-1.413a4 4 0 0 0-.383-.924 4.8 4.8 0 0 0-.678-.837 5.6 5.6 0 0 0-1.016-.707c-.535-.271-.721-.304-1.64-.304-.622 0-1.245.065-1.551.163-.481.152-.525.152-.743-.054-.12-.12-.23-.316-.23-.435 0-.12.088-.294.197-.402.11-.098.47-.25.798-.348S16.415 7 16.863 7s1.093.076 1.421.174.853.315 1.148.478a5.8 5.8 0 0 1 1.027.783c.262.26.623.685.798.956.175.272.415.805.535 1.196S22 11.609 22 12s-.087 1.022-.208 1.413a5.8 5.8 0 0 1-.535 1.196 7 7 0 0 1-.798.956 5.8 5.8 0 0 1-1.027.783c-.295.163-.82.38-1.148.478s-.983.174-1.442.174c-.503 0-1.104-.076-1.476-.196a6.2 6.2 0 0 1-1.224-.565 6.7 6.7 0 0 1-1.093-.924 7.2 7.2 0 0 1-.874-1.304 25 25 0 0 1-.689-1.63c-.175-.479-.36-.892-.404-.925-.044-.032-.251-.423-.459-.869-.219-.446-.557-.978-.765-1.185a4.8 4.8 0 0 0-.995-.674 4.1 4.1 0 0 0-1.311-.38 5 5 0 0 0-1.344.065 4 4 0 0 0-1.3.587 3.6 3.6 0 0 0-1.05 1.098c-.284.478-.426.88-.536 1.522-.109.684-.109.978-.01 1.358.065.272.24.685.382.924.142.24.448.62.678.837s.688.533 1.016.696c.448.217.82.315 1.42.348.558.032 1.017-.011 1.454-.13.34-.099.722-.153.842-.12.12.032.273.152.328.271s.087.316.054.435c-.032.13-.273.315-.568.457-.372.163-.82.25-1.508.282-.732.033-1.148 0-1.64-.141a7 7 0 0 1-1.202-.49 6.3 6.3 0 0 1-1.027-.782 7 7 0 0 1-.798-.956 5.8 5.8 0 0 1-.535-1.196A5.7 5.7 0 0 1 2 12c0-.391.087-1.022.208-1.413.12-.391.371-.935.557-1.217.175-.294.536-.729.798-.968a5.3 5.3 0 0 1 .95-.728c.274-.163.766-.37 1.094-.478.36-.109.961-.185 1.508-.185"/></svg>