<svg xmlns="http://www.w3.org/2000/svg" viewBox="0 0 24 24"><path d="M21.284 12.677a6.935 6.935 0 0 0-2.442-4.809 6.779 6.779 0 0 0-8.68.1c-.89.763-1.85 1.824-1.9 1.874a1.676 1.676 0 0 0 2.467 2.268s.912-.986 1.652-1.652a3.445 3.445 0 0 1 4.267-.05A3.583 3.583 0 0 1 17.93 12.9a3.26 3.26 0 0 1-.864 2.417c-1.282 1.43-3.748 3.773-3.773 3.798a1.675 1.675 0 0 0-.05 2.366 1.643 1.643 0 0 0 1.209.519 1.732 1.732 0 0 0 1.16-.47c.1-.098 2.565-2.465 3.946-3.97a6.466 6.466 0 0 0 1.726-4.883m-5.549 1.505a1.676 1.676 0 0 0-2.466-2.269s-.912.987-1.652 1.652a3.412 3.412 0 0 1-4.266.05 3.583 3.583 0 0 1-1.284-2.49 3.26 3.26 0 0 1 .864-2.418c1.282-1.43 3.748-3.775 3.772-3.798a1.675 1.675 0 1 0-2.318-2.416c-.124.097-2.565 2.465-3.946 3.97a6.633 6.633 0 0 0-1.727 4.883 6.935 6.935 0 0 0 2.442 4.808 6.675 6.675 0 0 0 4.292 1.53 6.5 6.5 0 0 0 4.389-1.628c.889-.764 1.85-1.825 1.9-1.874"/></svg>