<svg xmlns="http://www.w3.org/2000/svg" data-name="Layer 1" viewBox="0 0 24 24"><path d="M20.482 5.824h-4.114C16.264 3.144 14.346 1 12 1 9.652 1 7.74 3.143 7.637 5.824H3.52a.38.38 0 0 0-.37.385v.03h-.005l.584 12.933c0 .035.007.07.007.113l.001.026v.02l.005.006a1.746 1.746 0 0 0 1.63 1.656V21h13.122v-.007a1.79 1.79 0 0 0 1.713-1.665l.004-.017v-.026c0-.027.007-.043.007-.07l.637-12.988V6.21a.38.38 0 0 0-.373-.385M12 2.171a3.51 3.51 0 0 1 3.173 3.653H8.831A3.5 3.5 0 0 1 12 2.171m3.243 13.795a2.58 2.58 0 0 1-1.591 2.117 4.1 4.1 0 0 1-1.716.294A5.7 5.7 0 0 1 9.6 17.77a7 7 0 0 1-.934-.64c-.073-.069-.086-.103-.033-.175.024-.042.075-.119.182-.274.162-.23.18-.26.197-.29a.138.138 0 0 1 .213-.022l.018.017a.2.2 0 0 0 .04.035c.03.024.053.035.058.048a4.5 4.5 0 0 0 2.6.99c1.27-.017 2.182-.588 2.35-1.47.173-.96-.584-1.799-2.063-2.266a16 16 0 0 1-1.856-.737 2.43 2.43 0 0 1-1.421-2.341 2.744 2.744 0 0 1 2.914-2.34 5.3 5.3 0 0 1 2.064.425 5 5 0 0 1 .812.446q.13.094.05.21c-.017.047-.068.118-.157.268a4 4 0 0 0-.159.25q-.069.108-.2.027a4.3 4.3 0 0 0-2.393-.744 1.816 1.816 0 0 0-1.961 1.557c-.011.8.586 1.382 1.879 1.82 2.63.848 3.633 1.837 3.442 3.401Z"/></svg>