<svg xmlns="http://www.w3.org/2000/svg" viewBox="0 0 24 24"><path d="m9.84 3.263.202.819a8.2 8.2 0 0 0-2.261.934l-.432-.724a8.9 8.9 0 0 1 2.49-1.03m4.32 0-.201.819a8.2 8.2 0 0 1 2.26.935l.438-.724a9 9 0 0 0-2.496-1.03zM4.294 7.346A9 9 0 0 0 3.263 9.84l.819.203a8.2 8.2 0 0 1 .934-2.262zM3.844 12q0-.616.091-1.222l-.833-.128a9 9 0 0 0 0 2.698l.833-.125A8 8 0 0 1 3.843 12m12.808 7.705-.432-.72a8.1 8.1 0 0 1-2.258.935l.202.819a9 9 0 0 0 2.488-1.034M20.157 12q0 .615-.092 1.223l.833.126a9 9 0 0 0 0-2.699l-.833.128A8 8 0 0 1 20.157 12m.58 2.159-.819-.203a8.2 8.2 0 0 1-.935 2.264l.724.434a9 9 0 0 0 1.03-2.495m-7.515 5.906a8.2 8.2 0 0 1-2.444 0l-.126.834a9 9 0 0 0 2.695 0zm5.344-3.227a8.1 8.1 0 0 1-1.728 1.726l.5.68a9 9 0 0 0 1.909-1.9zM16.838 5.434a8.2 8.2 0 0 1 1.729 1.728l.68-.506a9 9 0 0 0-1.903-1.902zM5.432 7.162a8.2 8.2 0 0 1 1.729-1.728l-.506-.68a9 9 0 0 0-1.903 1.902zm14.274.185-.724.434a8.1 8.1 0 0 1 .936 2.258l.819-.202a9 9 0 0 0-1.031-2.49m-8.93-3.412a8.2 8.2 0 0 1 2.444 0l.126-.833a9 9 0 0 0-2.696 0zM5.865 19.47l-1.742.405.407-1.742-.82-.192-.407 1.742a.843.843 0 0 0 1.012 1.015l1.742-.401zm-1.982-2.28.824.189.281-1.207a8 8 0 0 1-.908-2.214l-.819.201c.185.746.464 1.466.83 2.14zm3.939 1.825-1.207.282.191.823.888-.207a9 9 0 0 0 2.14.828l.202-.819a8.1 8.1 0 0 1-2.207-.912zM12 4.687a7.315 7.315 0 0 0-7.311 7.316 7.33 7.33 0 0 0 1.123 3.887l-.704 3.002 3-.703a7.315 7.315 0 0 0 10.085-2.291 7.315 7.315 0 0 0-2.289-10.085A7.33 7.33 0 0 0 12 4.688z"/></svg>