<svg xmlns="http://www.w3.org/2000/svg" viewBox="0 0 24 24"><path d="M12.002 13.974a2.98 2.98 0 0 0 2.985-2.992l.011-5.99A2.99 2.99 0 0 0 12.006 2a2.99 2.99 0 0 0-2.992 2.993v5.989a2.99 2.99 0 0 0 2.992 2.992zm5.289-2.992c0 2.992-2.535 5.09-5.289 5.09s-5.296-1.967-5.296-4.963c0 0 0-1.019-.828-1.01-.828.003-.864.883-.864.883 0 3.402 2.714 6.22 5.99 6.709v3.207S10.9 21.984 12.005 22c1.09.012.99-1.102.99-1.102v-3.207c3.276-.478 5.99-3.295 5.99-6.71 0 0 .004-.887-.816-.875-.84.012-.88.876-.88.876z"/></svg>