<svg xmlns="http://www.w3.org/2000/svg" viewBox="0 0 24 24"><path d="M8.571 2.224c-.164.123-.288 2.178-.288 4.521 0 4.152 0 4.234-.945 4.234-.535 0-1.316.37-1.727.822-.616.699-.657.987-.287 1.85.493 1.028 1.932 1.85 3.288 1.85 1.644-.041 1.932-.658 2.138-4.892l.205-4.11 2.672 1.356 2.672 1.398.329 2.384c.164 1.356.246 2.672.205 2.96-.082.287-2.055 1.397-4.44 2.507-2.342 1.068-4.48 2.26-4.685 2.63-.576.905.123 2.097 1.315 2.261.864.124 8.55-2.22 9.455-2.918.37-.288.493-1.891.41-6.33l-.123-5.96-4.603-2.426c-4.769-2.466-5.139-2.63-5.59-2.137z"/></svg>