<svg xmlns="http://www.w3.org/2000/svg" data-name="Layer 1" viewBox="0 0 24 24"><path d="M11.11 21.943a4.296 4.296 0 0 0 4.405-2.737c.998-2.662-.978-4.916-3.515-5.624a11.092 11.092 0 0 1-4.615-2.318 6.975 6.975 0 0 1-2.41-4.178 7.308 7.308 0 0 1-.079-2.142 10 10 0 0 0 6.213 17Zm2.045-19.886A3.874 3.874 0 0 0 9.09 4.418c-.841 1.885.454 4.34 3.362 5.145a10.935 10.935 0 0 1 4.471 2.181 7.196 7.196 0 0 1 2.68 4.204 9.792 9.792 0 0 1 .093 2.42A9.959 9.959 0 0 0 22 11.981c0-5.842-5.187-9.844-8.845-9.925"/></svg>