<svg xmlns="http://www.w3.org/2000/svg" width="192" height="192" viewBox="0 0 192 192"><path d="M68.566 17.788c-1.312.984-2.304 17.425-2.304 36.169 0 33.217 0 33.873-7.56 33.873-4.28 0-10.528 2.96-13.817 6.576-4.929 5.592-5.257 7.897-2.296 14.801 3.944 8.225 15.456 14.801 26.304 14.801 13.153-.328 15.457-5.264 17.105-39.137l1.64-32.88 42.755 22.032 2.632 19.073c1.312 10.848 1.968 21.377 1.64 23.681-.656 2.296-16.441 11.176-35.521 20.057-18.737 8.545-35.841 18.081-37.481 21.041-4.608 7.24.984 16.777 10.52 18.09 6.912.991 68.403-17.762 75.643-23.346 2.96-2.304 3.944-15.129 3.28-50.642l-.984-47.682-36.825-19.409C75.144 15.157 72.183 13.846 68.575 17.79z"/></svg>