<svg xmlns="http://www.w3.org/2000/svg" viewBox="0 0 24 24"><path d="M8.872 18.359h6.534v2.638H8.872zm4.66 0h2.635c.425 0 .768.217.768.487v1.668c0 .27-.343.486-.768.486h-2.634c-.426 0-.768-.217-.768-.486v-1.668c0-.27.342-.487.768-.487zm-5.776 0h2.37c.384 0 .692.217.692.487v1.668c0 .27-.308.486-.691.486h-2.37c-.384 0-.692-.217-.692-.486v-1.668c0-.27.308-.487.691-.487m10.638-3.614h1.669c.27 0 .486.217.486.486V16.9c0 .27-.217.487-.486.487h-1.669a.485.485 0 0 1-.486-.487v-1.668c0-.27.217-.486.486-.486zm-3.614 0h1.668c.27 0 .487.217.487.486V16.9c0 .27-.217.487-.487.487H14.78a.485.485 0 0 1-.487-.487v-1.668c0-.27.217-.486.487-.486zm-3.614 0h1.668c.27 0 .486.217.486.486V16.9c0 .27-.217.487-.486.487h-1.668a.486.486 0 0 1-.487-.487v-1.668c0-.27.217-.486.487-.486m-3.615 0H9.22c.27 0 .487.217.487.486V16.9c0 .27-.217.487-.487.487H7.551a.486.486 0 0 1-.486-.487v-1.668c0-.27.217-.486.486-.486m-3.614 0h1.668c.27 0 .486.217.486.486V16.9c0 .27-.217.487-.486.487H3.937a.485.485 0 0 1-.487-.487v-1.668c0-.27.217-.486.487-.486m14.458-3.615h1.668c.27 0 .486.217.486.487v1.668c0 .27-.217.487-.486.487h-1.668a.486.486 0 0 1-.487-.487v-1.668c0-.27.217-.487.487-.487m-3.615 0h1.669c.269 0 .486.217.486.487v1.668c0 .27-.217.487-.486.487H14.78a.485.485 0 0 1-.486-.487v-1.668c0-.27.217-.487.486-.487m-3.614 0h1.668c.27 0 .487.217.487.487v1.668c0 .27-.217.487-.487.487h-1.668a.485.485 0 0 1-.487-.487v-1.668c0-.27.217-.487.487-.487m-3.614 0H9.22c.27 0 .486.217.486.487v1.668c0 .27-.217.487-.486.487H7.552a.485.485 0 0 1-.487-.487v-1.668c0-.27.217-.487.487-.487m-3.615 0h1.668c.27 0 .487.217.487.487v1.668c0 .27-.217.487-.487.487H3.937a.486.486 0 0 1-.486-.487v-1.668c0-.27.217-.487.486-.487M4.15 3h15.7c.542 0 .978.447.978 1.003V9.15a.99.99 0 0 1-.978 1.002H4.15a.99.99 0 0 1-.977-1.002V4.003A.99.99 0 0 1 4.15 3"/></svg>