<svg xmlns="http://www.w3.org/2000/svg" width="192" height="192" viewBox="0 0 192 192"><path d="M89.154 172.6a33.076 33.076 0 0 0 33.916-21.073c7.684-20.496-7.53-37.85-27.063-43.301a85.463 85.463 0 0 1-35.533-17.847 53.742 53.742 0 0 1-18.555-32.168 56.205 56.205 0 0 1-.608-16.492 76.994 76.994 0 0 0 47.836 130.89zm15.745-153.11a29.827 29.827 0 0 0-31.298 18.178c-6.475 14.513 3.496 33.415 25.885 39.613a83.923 83.923 0 0 1 34.424 16.792 55.435 55.435 0 0 1 20.634 32.368 75.454 75.454 0 0 1 .716 18.632 76.686 76.686 0 0 0 17.739-49.176c0-44.98-39.937-75.793-68.101-76.416"/></svg>