<svg version="1.1" viewBox="0 0 192 192" xmlns="http://www.w3.org/2000/svg"><path d="m93.601 175.89c-2.208-0.224-4.776-1.168-14.272-5.224-17.592-7.52-26.048-12.816-35.424-22.192-10.04-10.04-15.6-19.888-18.104-32.112-0.392-1.92-0.456-6.44-0.56-36.304-0.072-20.928-0.016-34.976 0.16-36.344 0.488-4.12 3.04-7.872 6.48-9.5519 1.44-0.704 54.544-16.8 58.504-17.736 2.408-0.56 8.4479-0.568 11.056 0 3.448 0.744 57.048 16.96 58.648 17.736 3.304 1.616 5.968 5.416 6.456 9.2239 0.336 2.616 0.32 63.92-0.016 68.864a48 48 0 0 1-5.192 18.32c-1.08 2.152-4.184 7.28-5.4 8.9359-7.056 9.5599-17.712 18.664-28.32 24.184-6.592 3.432-23.376 10.744-26.92 11.736-1.928 0.536-4.632 0.72-7.096 0.464m8.264-29.52c3.32-0.87999 6.792-2.792 9.1759-5.04 3.864-3.64 5.488-7.312 5.488-12.456 8e-3 -4.808-1.392-8.352-4.56-11.496-2.368-2.36-4.608-3.656-10.616-6.104-8.5119-3.48-10.408-5.136-10.408-9.0879 0-7.328 12.096-9.1199 21.12-3.12 0.86399 0.56 1.68 0.992 2.024 0.93599 0.344-0.056 0.16-8.6799-0.048-11.024l-1.68-0.90399c-7.4-4-17.496-4.16-24.64-0.4-2.896 1.52-6.456 5.144-7.8 7.944-3.856 8.016-1.464 16.68 5.976 21.632 1.056 0.69599 4.48 2.416 7.6 3.808 8.416 3.76 9.9039 4.952 10.24 8.16 0.4 3.848-2.048 6.36-7.024 7.232-4.8 0.832-10.456-0.87999-16.296-4.92-1.456-1.008-2.776-1.76-2.92-1.672-0.16 0.096-0.272 2.44-0.272 5.584v5.416l1.336 0.976c2.72 1.984 7.256 3.92 11.264 4.816 2.504 0.55999 9.5439 0.392 12.04-0.28m58.16-90.079c-0.072-12.176-0.096-12.704-0.656-13.784-0.75999-1.48-2.656-2.72-5.2-3.424a4848 4848 0 0 1-27.808-8.3199c-17.296-5.2-26.52-7.84-28.072-8.048-3.872-0.504-5.416-0.152-24.28 5.52-9.5519 2.88-22.136 6.648-27.968 8.3999-11.448 3.416-12.368 3.816-13.44 5.872-0.56 1.08-0.592 1.56-0.664 13.784l-0.08 12.672h128.25z"/></svg>
