<svg xmlns="http://www.w3.org/2000/svg" viewBox="0 0 24 24"><path d="M11.7 21.986c-.276-.028-.597-.146-1.784-.653-2.199-.94-3.256-1.602-4.428-2.774-1.255-1.255-1.95-2.486-2.263-4.014-.049-.24-.057-.805-.07-4.538-.009-2.616-.002-4.372.02-4.543.061-.515.38-.984.81-1.194.18-.088 6.818-2.1 7.313-2.217.301-.07 1.056-.071 1.382 0 .431.093 7.131 2.12 7.331 2.217.413.202.746.677.807 1.153.042.327.04 7.99-.002 8.608a6 6 0 0 1-.649 2.29c-.135.269-.523.91-.675 1.117-.882 1.195-2.214 2.333-3.54 3.023-.824.429-2.922 1.343-3.365 1.467-.241.067-.579.09-.887.058m1.033-3.69c.415-.11.849-.349 1.147-.63.483-.455.686-.914.686-1.557.001-.601-.174-1.044-.57-1.437-.296-.295-.576-.457-1.327-.763-1.064-.435-1.301-.642-1.301-1.136 0-.916 1.512-1.14 2.64-.39.108.07.21.124.253.117s.02-1.085-.006-1.378l-.21-.113c-.925-.5-2.187-.52-3.08-.05-.362.19-.807.643-.975.993-.482 1.002-.183 2.085.747 2.704.132.087.56.302.95.476 1.052.47 1.238.619 1.28 1.02.05.481-.256.795-.878.904-.6.104-1.307-.11-2.037-.615-.182-.126-.347-.22-.365-.209-.02.012-.034.305-.034.698v.677l.167.122c.34.248.907.49 1.408.602.313.07 1.193.049 1.505-.035m7.27-11.26c-.009-1.522-.012-1.588-.082-1.723-.095-.185-.332-.34-.65-.428a606 606 0 0 1-3.476-1.04c-2.162-.65-3.315-.98-3.509-1.006-.484-.063-.677-.019-3.035.69-1.194.36-2.767.831-3.496 1.05-1.431.427-1.546.477-1.68.734-.07.135-.074.195-.083 1.723l-.01 1.584h16.031z"/></svg>