<svg xmlns="http://www.w3.org/2000/svg" viewBox="0 0 24 24"><path d="M16.287 3.027a.4.4 0 0 0-.136.06c-.019.02-.042.034-.056.034-.033 0-.207.192-.259.286-.037.07-.042.211-.051 1.638-.005 1.422-.005 1.572.037 1.671a.6.6 0 0 0 .07.14c.015.015.057.062.095.1.164.178.258.21.633.21.268 0 .324-.009.413-.05a.9.9 0 0 0 .357-.362c.042-.07.042-.197.042-1.653 0-1.77.01-1.666-.187-1.868a.6.6 0 0 0-.338-.201 1.7 1.7 0 0 0-.615 0zm-9.021.005a.8.8 0 0 0-.512.394c-.047.094-.052.145-.052 1.67 0 1.766-.01 1.658.183 1.869.202.216.545.296.906.202a.73.73 0 0 0 .484-.371l.07-.127V5.087c0-1.243-.005-1.586-.033-1.596-.018-.004-.033-.032-.033-.056 0-.056-.225-.29-.347-.357-.066-.037-.15-.047-.347-.056-.146-.005-.296 0-.329.005zM3.858 4.519c-.394.127-.714.442-.817.803-.042.15-.06 14.588-.014 14.752.047.174.146.399.207.465.014.014.051.056.08.089.136.155.328.272.549.333.131.038.844.038 8.171.033 6.792-.005 8.045-.014 8.14-.042a.5.5 0 0 0 .126-.052.5.5 0 0 1 .113-.066c.155-.08.37-.305.45-.474.146-.319.136.146.136-7.618 0-7.374 0-7.364-.093-7.543l-.061-.126c-.09-.197-.526-.535-.69-.535-.029 0-.061-.01-.066-.024-.01-.014-.38-.023-1.037-.023h-1.019l-.01 1.215c-.004.84-.018 1.235-.037 1.268-.014.028-.051.108-.084.173-.061.132-.324.413-.385.413-.019 0-.038.01-.038.024s-.014.023-.033.023a.4.4 0 0 0-.108.038.4.4 0 0 1-.122.037.14.14 0 0 0-.084.033c-.047.047-.883.043-1.005-.004-.154-.061-.399-.188-.399-.207 0-.01-.014-.019-.032-.019-.029 0-.09-.065-.268-.272-.028-.033-.052-.075-.052-.094s-.009-.033-.023-.033-.024-.014-.024-.033a.4.4 0 0 0-.037-.107.4.4 0 0 1-.038-.127c0-.028-.009-.061-.023-.07s-.024-.418-.024-1.137V4.486h-6.27v1.065c0 1.16-.005 1.216-.146 1.507a1.28 1.28 0 0 1-.591.587c-.057.023-.118.056-.141.066-.024.009-.15.032-.282.047-.319.037-.694 0-.877-.09a1 1 0 0 0-.146-.06c-.01 0-.028-.015-.052-.034-.018-.018-.08-.065-.131-.107a1.6 1.6 0 0 1-.324-.414c-.127-.267-.117-.183-.127-1.417l-.009-1.155-1.089.005c-.634 0-1.122.014-1.164.028zM19.82 9.143c.019.023.028 1.44.023 5.35l-.004 5.319-7.825.004c-6.243.005-7.829 0-7.843-.023-.024-.038-.028-10.584-.005-10.645.014-.038.728-.038 7.825-.038 6.538 0 7.815.005 7.838.033zm-7.294 1.469-.07.023v1.005c0 .746.009 1.014.028 1.032.023.024.31.029 1.13.029 1.07 0 1.104 0 1.146-.052.038-.047.042-.136.042-1.005 0-.812-.004-.962-.037-1.004-.038-.047-.07-.052-1.103-.056-.68-.005-1.09.004-1.136.018zm3.393-.014c-.037.004-.07.028-.07.047s-.01.037-.023.037c-.015 0-.024.333-.024.948 0 .831.005.958.042 1.01l.043.06h2.234l.028-.065c.019-.047.028-.343.028-1.005 0-.774-.005-.952-.037-.99-.033-.047-.076-.047-1.094-.052-.582 0-1.09 0-1.127.01M5.758 13.616l-.065.06v.963c0 .93 0 .962.051 1.014.047.047.085.051 1.132.051 1.018 0 1.084-.004 1.121-.046.038-.043.043-.15.043-1.038v-.99l-.076-.038c-.06-.033-.23-.037-1.107-.037H5.824zm3.366 0-.061.06v.958c0 .902.004.963.047 1.014.047.052.051.052 1.13.052.926 0 1.09-.005 1.132-.038.047-.037.052-.07.056-.93.005-.487 0-.938-.009-.999-.028-.183-.01-.183-1.197-.183l-1.037.005zm3.403-.024-.07.038v1c0 .924.004 1.004.042 1.032.032.028.262.033 1.117.033h1.075l.056-.056c.052-.057.056-.066.056-1.023v-.963l-.07-.051c-.07-.052-.099-.052-1.103-.052-.868 0-1.042.005-1.103.038zm3.389-.009c-.113.066-.113.066-.113 1.047 0 .915 0 .943.052 1.004l.051.066h1.08c1.051 0 1.08 0 1.136-.052.056-.051.056-.056.056-.995 0-.52-.005-.962-.014-.986-.042-.107-.103-.112-1.173-.112-.718 0-1.033.01-1.07.028zM5.745 16.606c-.052.051-.052.084-.052 1.023v.967l.07.051c.07.052.104.052 1.099.052 1.023 0 1.103-.005 1.154-.084.01-.014.02-.465.02-1.005 0-.915-.005-.98-.048-1.018-.042-.038-.155-.043-1.121-.043-1.075 0-1.075 0-1.127.057zm3.374-.005-.056.047v1.953l.066.051c.066.052.09.052 1.098.052 1.155 0 1.164 0 1.192-.155.01-.047.01-.488.01-.986-.005-.845-.01-.906-.057-.957-.046-.052-.06-.052-1.121-.052-1.014 0-1.08.005-1.132.047m3.38-.005c-.038.043-.042.15-.042 1.038v.99l.075.038c.06.032.23.037 1.103.037 1 0 1.028 0 1.098-.051l.07-.052v-1.953l-.056-.047c-.051-.042-.117-.047-1.131-.047-1.01 0-1.08 0-1.117.047m3.356.02c-.052.065-.052.093-.052 1.008v.944l.132.131h2.112l.066-.06.065-.062v-.939c0-.934-.004-1.013-.084-1.065-.014-.01-.512-.019-1.108-.019h-1.08z"/></svg>