<svg version="1.1" viewBox="0 0 24 24" xmlns="http://www.w3.org/2000/svg">
 <path d="m12.002 13.974c1.6554 0 2.9845-1.337 2.9845-2.9924l0.01194-5.9888c0-1.6554-1.337-2.9924-2.9924-2.9924-1.6554 0-2.9924 1.337-2.9924 2.9924v5.9888c0 1.6554 1.337 2.9924 2.9924 2.9924zm5.2885-2.9924c0 2.9924-2.5348 5.0895-5.2885 5.0895-2.7537 0-5.2964-1.9658-5.2964-4.9622 0 0 0-1.0187-0.82769-1.0107-0.82769 4e-3 -0.86351 0.8834-0.86351 0.8834 0 3.4023 2.7139 6.2196 5.9888 6.7091v3.2073s-0.10346 1.0863 1.0028 1.1023c1.0903 0.01194 0.99084-1.1023 0.99084-1.1023v-3.2073c3.275-0.47752 5.9888-3.2949 5.9888-6.7091 0 0 4e-3 -0.88738-0.81575-0.87544-0.83963 0.01194-0.87942 0.87544-0.87942 0.87544z"/>
</svg>
