<svg xmlns="http://www.w3.org/2000/svg" viewBox="0 0 24 24"><path d="M9.321 19.169c-3.303-.246-4.804-1.135-5.207-3.083-.226-1.095.002-2.563.574-3.7 2.078-4.126 8.058-5.46 12.177-2.718 1.678 1.117 2.822 2.87 3.066 4.695.074.557.032 1.535-.085 1.969-.446 1.652-1.798 2.475-4.584 2.791-.654.074-5.1.109-5.941.046m3.804-3.956a4.2 4.2 0 0 0 1.419-.659c.3-.214.327-.247.26-.325l-.577-.652-.502-.567.165-.187c.187-.214.118-.21 1.162-.06.372.054.688.086.704.07.015-.015.025-.278.023-.583-.006-.653-.104-.97-.479-1.538-.428-.651-1.258-1.204-2.174-1.45-.609-.163-1.654-.163-2.267 0-1.446.386-2.485 1.401-2.672 2.611-.142.917.295 1.94 1.096 2.569a4.3 4.3 0 0 0 1.995.868c.49.076 1.36.03 1.848-.097zm-1.645-2.05c-1.312-.37-1.613-1.787-.526-2.478.935-.596 2.244-.314 2.69.578.454.913-.314 1.907-1.509 1.952a2.6 2.6 0 0 1-.655-.052m-8.11-1.96a3.6 3.6 0 0 1-.537-.186C2.39 10.787 2 10.239 2 9.844c0-.1.032-.304.072-.452.515-1.935 2.978-3.609 6.271-4.262 1.102-.219 1.803-.292 3.095-.325 3.367-.086 6.164.589 8.306 2.004.664.439 1.478 1.247 1.786 1.774.301.514.5 1.113.466 1.408-.07.63-.912 1.2-1.905 1.292-.543.05-.684-.016-1.032-.493-.457-.623-1.271-1.394-1.952-1.848a9.28 9.28 0 0 0-10.23 0c-.592.395-1.456 1.204-1.89 1.77-.165.215-.37.427-.456.472-.245.126-.733.134-1.16.018z"/></svg>