<svg xmlns="http://www.w3.org/2000/svg" width="192" height="192" viewBox="0 0 192 192"><path d="M166.91 101.83c3.56 5.45 5.68 12.115 5.68 20.319-.23 30.304-25.306 50.854-79.266 50.854-33.752 0-70.831-10.267-73.92-49.477v-1.95h50.563l-11.2 32.998 36.91-25.65 36.909 25.65-9.582-28.353c-1.497-2.926-5.339-4.534-5.339-4.534-20.148-11.191-93.683-5.108-93.683-54.584.009-37.251 39.107-48.1 69.753-48.1 32.083 0 69.736 7.23 73.124 45.859v1.497h-56.937L95.805 24.805 81.688 66.36H36.027l25.496 17.565c7.452-2.994 15.434-4.303 23.408-5.168q12.842-1.377 25.778-.513 10.866.667 21.466 3.157c6.374 1.489 12.859 3.157 18.651 6.314 6.485 3.55 12.175 8.085 16.076 14.117z"/></svg>