<svg xmlns="http://www.w3.org/2000/svg" width="24" height="24" fill="none" viewBox="0 0 24 24"><path fill="#000" fill-rule="evenodd" d="M11.015 2.878a5.85 5.85 0 0 0-7.213.827 5.81 5.81 0 0 0-.95 6.987 9.2 9.2 0 0 0 .604 4.879 9.2 9.2 0 0 0 2.005 2.99 9.25 9.25 0 0 0 6.54 2.7q.555 0 1.103-.065a5.856 5.856 0 0 0 7.094-.901 5.82 5.82 0 0 0 1.71-4.117 5.8 5.8 0 0 0-.748-2.852 9.2 9.2 0 0 0-.614-4.81 9.2 9.2 0 0 0-2.005-2.99 9.25 9.25 0 0 0-6.54-2.7q-.496 0-.986.052m-2.526 7.884c.226.386.538.715.911.961a9 9 0 0 0 1.572.817q.921.386 1.43.653c.287.141.547.33.77.56a.96.96 0 0 1 .261.66 1.09 1.09 0 0 1-.417.904c-.365.245-.8.362-1.238.33a3.3 3.3 0 0 1-1.31-.257q-.243-.105-.665-.316a1.6 1.6 0 0 0-.733-.189.9.9 0 0 0-.628.222.8.8 0 0 0-.243.613 1 1 0 0 0 .185.603c.151.191.347.343.57.442a6.4 6.4 0 0 0 2.766.524 5.7 5.7 0 0 0 2.029-.331 2.87 2.87 0 0 0 1.35-1.002 2.77 2.77 0 0 0 .483-1.659 2.6 2.6 0 0 0-.349-1.376 3.2 3.2 0 0 0-.965-.99 9 9 0 0 0-1.568-.806 1.3 1.3 0 0 0-.182-.073 22 22 0 0 1-1.266-.559 2.3 2.3 0 0 1-.676-.483.9.9 0 0 1-.25-.635 1 1 0 0 1 .482-.904 2.2 2.2 0 0 1 1.21-.309c.325-.003.65.037.965.12a8 8 0 0 1 1.002.367c.132.06.275.093.42.094a.75.75 0 0 0 .567-.236.86.86 0 0 0 .225-.62.9.9 0 0 0-.214-.596 1.7 1.7 0 0 0-.693-.442 4.6 4.6 0 0 0-.886-.229 7.5 7.5 0 0 0-1.278-.098 5.7 5.7 0 0 0-1.92.323 3.4 3.4 0 0 0-1.466.98 2.4 2.4 0 0 0-.563 1.608c-.013.463.094.92.312 1.329" clip-rule="evenodd" style="stroke-width:.909091"/></svg>