<svg xmlns="http://www.w3.org/2000/svg" width="24" height="24" fill="none" viewBox="0 0 24 24"><path fill="#000" fill-rule="evenodd" d="M11.015 2.878a5.853 5.853 0 0 0-7.213.827 5.81 5.81 0 0 0-.95 6.987 9.186 9.186 0 0 0 .604 4.879 9.217 9.217 0 0 0 2.005 2.99 9.25 9.25 0 0 0 6.54 2.7c.37 0 .738-.022 1.103-.065a5.856 5.856 0 0 0 7.094-.901 5.821 5.821 0 0 0 1.71-4.117 5.806 5.806 0 0 0-.748-2.852 9.187 9.187 0 0 0-.614-4.81 9.217 9.217 0 0 0-2.005-2.99 9.25 9.25 0 0 0-6.54-2.7c-.33 0-.66.017-.986.052zm-2.526 7.884c.226.386.538.715.911.961a8.863 8.863 0 0 0 1.572.817c.614.257 1.091.475 1.43.653.287.141.547.33.77.56a.96.96 0 0 1 .261.66 1.09 1.09 0 0 1-.417.904c-.365.245-.8.362-1.238.33a3.287 3.287 0 0 1-1.31-.257c-.162-.07-.384-.176-.665-.316a1.605 1.605 0 0 0-.733-.189.896.896 0 0 0-.628.222.787.787 0 0 0-.243.613.995.995 0 0 0 .185.603c.151.191.347.343.57.442a6.393 6.393 0 0 0 2.766.524 5.69 5.69 0 0 0 2.029-.331 2.87 2.87 0 0 0 1.35-1.002 2.768 2.768 0 0 0 .483-1.659 2.613 2.613 0 0 0-.349-1.376 3.161 3.161 0 0 0-.965-.99 9.004 9.004 0 0 0-1.568-.806 1.324 1.324 0 0 0-.182-.073 21.865 21.865 0 0 1-1.266-.559 2.287 2.287 0 0 1-.676-.483.908.908 0 0 1-.25-.635 1.006 1.006 0 0 1 .482-.904 2.203 2.203 0 0 1 1.21-.309c.325-.003.65.037.965.12a7.63 7.63 0 0 1 1.002.367c.132.06.275.093.42.094a.75.75 0 0 0 .567-.236.863.863 0 0 0 .225-.62.897.897 0 0 0-.214-.596 1.718 1.718 0 0 0-.693-.442 4.612 4.612 0 0 0-.886-.229 7.456 7.456 0 0 0-1.278-.098 5.663 5.663 0 0 0-1.92.323 3.387 3.387 0 0 0-1.466.98 2.388 2.388 0 0 0-.563 1.608c-.013.463.094.92.312 1.329" clip-rule="evenodd" style="stroke-width:.909091"/></svg>