<svg xmlns="http://www.w3.org/2000/svg" xml:space="preserve" id="Layer_1" width="24" height="24" x="0" y="0" version="1.1" viewBox="0 0 24 24"><style id="style2" type="text/css">.st0{fill:#e01e5a}.st1{fill:#36c5f0}.st2{fill:#2eb67d}.st3{fill:#ecb22e}</style><g id="g28" style="fill:#000;fill-opacity:1" transform="translate(-9.987 -9.987)scale(.16287)"><g id="g8" style="fill:#000;fill-opacity:1"><path id="path4" d="M99.4 151.2c0 7.1-5.8 12.9-12.9 12.9-7.1 0-12.9-5.8-12.9-12.9 0-7.1 5.8-12.9 12.9-12.9h12.9z" class="st0" style="fill:#000;fill-opacity:1"/><path id="path6" d="M105.9 151.2c0-7.1 5.8-12.9 12.9-12.9 7.1 0 12.9 5.8 12.9 12.9v32.3c0 7.1-5.8 12.9-12.9 12.9-7.1 0-12.9-5.8-12.9-12.9z" class="st0" style="fill:#000;fill-opacity:1"/></g><g id="g14" style="fill:#000;fill-opacity:1"><path id="path10" d="M118.8 99.4c-7.1 0-12.9-5.8-12.9-12.9 0-7.1 5.8-12.9 12.9-12.9 7.1 0 12.9 5.8 12.9 12.9v12.9z" class="st1" style="fill:#000;fill-opacity:1"/><path id="path12" d="M118.8 105.9c7.1 0 12.9 5.8 12.9 12.9 0 7.1-5.8 12.9-12.9 12.9H86.5c-7.1 0-12.9-5.8-12.9-12.9 0-7.1 5.8-12.9 12.9-12.9z" class="st1" style="fill:#000;fill-opacity:1"/></g><g id="g20" style="fill:#000;fill-opacity:1"><path id="path16" d="M170.6 118.8c0-7.1 5.8-12.9 12.9-12.9 7.1 0 12.9 5.8 12.9 12.9 0 7.1-5.8 12.9-12.9 12.9h-12.9z" class="st2" style="fill:#000;fill-opacity:1"/><path id="path18" d="M164.1 118.8c0 7.1-5.8 12.9-12.9 12.9-7.1 0-12.9-5.8-12.9-12.9V86.5c0-7.1 5.8-12.9 12.9-12.9 7.1 0 12.9 5.8 12.9 12.9z" class="st2" style="fill:#000;fill-opacity:1"/></g><g id="g26" style="fill:#000;fill-opacity:1"><path id="path22" d="M151.2 170.6c7.1 0 12.9 5.8 12.9 12.9 0 7.1-5.8 12.9-12.9 12.9-7.1 0-12.9-5.8-12.9-12.9v-12.9z" class="st3" style="fill:#000;fill-opacity:1"/><path id="path24" d="M151.2 164.1c-7.1 0-12.9-5.8-12.9-12.9 0-7.1 5.8-12.9 12.9-12.9h32.3c7.1 0 12.9 5.8 12.9 12.9 0 7.1-5.8 12.9-12.9 12.9z" class="st3" style="fill:#000;fill-opacity:1"/></g></g></svg>