<svg xmlns="http://www.w3.org/2000/svg" width="24" height="24" fill="none" viewBox="0 0 24 24"><g style="fill:#000"><path fill-rule="evenodd" d="M15.016-5.573a4 4 0 0 1 5.457 1.489l10.278 17.986C38.337 10.063 46.916 7.9 56 7.9s17.663 2.163 25.25 6.002L91.527-4.084a4 4 0 1 1 6.946 3.969l-10.36 18.131C102.556 28.144 112 44.92 112 63.9v52H0v-52c0-18.981 9.443-35.756 23.888-45.884L13.528-.115a4 4 0 0 1 1.488-5.458M56 15.9c26.51 0 48 21.49 48 48H8c0-26.51 21.49-48 48-48zm10 74-10-18-10 18L8 75.03v32.87h12V87.726l8 3.13V107.9h13V95.943l5 1.957 3 1.2v8.8h14v-8.8l3-1.2 5-1.957V107.9h13V90.856l8-3.13V107.9h12V75.03Zm-33-39c6.325 0 11.594-4.517 12.76-10.5a13.02 13.02 0 0 1 .24 2.5c0 7.18-5.82 13-13 13s-13-5.82-13-13c0-.855.082-1.691.24-2.5 1.166 5.983 6.435 10.5 12.76 10.5m58.76-10.5C90.594 46.383 85.325 50.9 79 50.9s-11.594-4.517-12.76-10.5c-.157.809-.24 1.645-.24 2.5 0 7.18 5.82 13 13 13s13-5.82 13-13a13.155 13.155 0 0 0-.24-2.5" clip-rule="evenodd" style="fill:#000;stroke-width:.999999" transform="translate(2.82 2)scale(.16393)"/></g></svg>