<svg xmlns="http://www.w3.org/2000/svg" width="192" height="192" viewBox="0 0 192 192"><path d="M130.38 17.681c-2.376 2.64-2.28 7.04.192 8.36 1.072.575 4.608 1.055 7.847 1.071 11 .04 20.007 6.88 23.103 17.511 1.728 5.944 4.424 8.128 8.28 6.704 6.456-2.392 1.904-16.775-8.272-26.158-6.423-5.92-12.559-8.455-21.775-9-6.583-.391-7.839-.183-9.375 1.52M83.535 36.672c-1.68.768-15.783 10.471-31.358 21.56C28.018 75.43 23.515 79.037 21.54 82.79c-2.312 4.36-2.328 4.664-2.328 43.59 0 39.061.008 39.205 2.296 42.636 4.824 7.216 2.496 6.984 69.116 6.984s64.292.24 69.116-6.984c2.288-3.431 2.296-3.575 2.296-42.58 0-38.59-.024-39.207-2.272-43.622-2-3.911-5.872-7.031-30.638-24.615-15.599-11.07-29.838-20.775-31.63-21.567-4.08-1.791-10-1.775-13.959.04m45.741.384c-3.584 3.952-.88 7.664 6.248 8.56 5.175.656 7.783 2.736 9.335 7.44 1.28 3.88 4.136 5.863 7.088 4.927 7.295-2.32 2.623-15.783-7.216-20.799-5.104-2.608-13.159-2.672-15.455-.128m13.44 54.365c.014 21.777.047 43.555.08 65.332H38.456c.033-21.777.076-43.555.12-65.332L90.62 54.735"/></svg>