<svg xmlns="http://www.w3.org/2000/svg" viewBox="0 0 24 24"><path d="M9.9 4.1C5.55 4.1 2 7.649 2 12s3.55 7.9 7.9 7.9q.126-.002.25-.007v.007h10.27a1.58 1.58 0 0 0 0-3.16 1.58 1.58 0 0 0 0-3.16 1.58 1.58 0 0 0 0-3.16 1.58 1.58 0 0 0 0-3.16 1.58 1.58 0 0 0 0-3.159H10.15v.006q-.124-.005-.25-.006zm0 1.967A5.916 5.916 0 0 1 15.832 12 5.916 5.916 0 0 1 9.9 17.931a5.92 5.92 0 0 1-5.933-5.932A5.92 5.92 0 0 1 9.9 6.067m0 1.91a.574.574 0 0 0-.576.575v2.873H7.89a.573.573 0 1 0 0 1.148H9.9q.03 0 .059-.002a.574.574 0 0 0 .516-.572V8.552a.573.573 0 0 0-.575-.574z"/></svg>