<svg xmlns="http://www.w3.org/2000/svg" viewBox="0 0 24 24"><path d="M12.02 2c-.562 0-1.102.11-1.582.347l-.022.01-5.119 2.91c-2.39 1.36-3.274 4.434-1.883 6.809a4.998 4.998 0 0 0 1.822 1.826l-.013.014.003.001.008.005.038.022.142.083.514.295.108.062-1.563.894a1.663 1.663 0 0 0-.63 2.275c.127.232.328.475.61.635l5.938 3.406v.001l.008.004c.496.278 1.055.401 1.647.401.593 0 1.152-.123 1.652-.397l.006-.004.008-.004c.536-.307 1.34-.777 2.388-1.388h.001c.764-.446 1.657-.967 2.668-1.555 1.583-.907 2.451-2.56 2.477-4.244h.002l-.002-.052a4.906 4.906 0 0 0-.647-2.477 4.921 4.921 0 0 0-1.845-1.826l-.885-.5 1.61-.927.01-.006.01-.006c.449-.278.874-.821.874-1.472 0-.744-.54-1.317-1.07-1.58l.038.02-5.623-3.168-.016-.01A3.71 3.71 0 0 0 12.02 2m0 1.654c.328 0 .624.071.929.225l5.598 3.155.019.01c.19.095.152.079.152.098 0 .017.04-.016-.09.064-.019.01-3.062 1.774-6.743 3.852-1.575.889-2.204 2.298-2.127 3.528l-1.149-.657-2.535-1.453-.005-.003a3.346 3.346 0 0 1-1.227-1.234c-.922-1.575-.344-3.613 1.273-4.533l5.06-2.876c.228-.11.497-.176.845-.176zm4.153 6.866 1.662.941.028.015c.351.182.658.42.921.723a2.894 2.894 0 0 0-1.189.46l-4.827 2.769-.009.005a1.4 1.4 0 0 1-.51.15h-.068c-.028.003-.041-.014-.068-.012-.207-.018-.637-.366-.721-.983-.087-.632.105-1.411 1.307-2.09 1.345-.76 2.41-1.37 3.474-1.978zm2.91 3.318a.49.49 0 0 1 .228.065c.14.08.245.221.278.507-.027 1.117-.604 2.212-1.644 2.808l-.005.002c-1.022.594-1.919 1.118-2.683 1.564a418.55 418.55 0 0 1-2.36 1.371c-.22.119-.494.191-.85.191-.358 0-.627-.074-.836-.19l-5.912-3.39-.005-.008-.008-.018a.129.129 0 0 1-.005-.014v.008l-.001-.013.001.004.001-.001v-.002l.005-.003.005-.003 2.405-1.376c1.132.652 2.333 1.343 2.652 1.524.496.284 1.097.395 1.64.393.538-.003 1.129-.117 1.605-.395l4.846-2.779.024-.014.023-.015c.251-.167.445-.222.595-.216z"/></svg>