<svg xmlns="http://www.w3.org/2000/svg" width="192" height="192" viewBox="0 0 192 192"><path d="M96 84.648h-.528c-12.672 0-22.968-10.56-22.968-23.496 0-12.944 10.296-23.504 22.968-23.504a23 23 0 0 1 22.968 22.184h-6.6l17.688 19.008 16.904-19.008h-5.808C139.568 35.536 120.024 16 95.736 16c-24.816 0-44.88 20.328-44.88 45.68S71.176 107.36 96 107.36z" opacity=".5"/><path d="M96 107.35h.528c12.672 0 22.968 10.56 22.968 23.496S109.2 154.35 96.528 154.35a23 23 0 0 1-22.968-22.184h6.6l-17.688-19.008-16.904 19.008h5.808c1.056 24.296 20.6 43.832 44.888 43.832 24.816 0 44.88-20.328 44.88-45.68S120.824 84.638 96 84.638z"/></svg>