<svg xmlns="http://www.w3.org/2000/svg" width="24" height="24" viewBox="0 0 24 24"><path fill="#fff" d="M19.808 15.81c0-3.584-2.48-4.966-6.202-5.936-3.226-.826-3.878-1.2-3.878-2.225v-.053c0-.838.849-1.38 2.161-1.38 1.76 0 3.319.489 4.766 1.492l.222.156 2.46-3.565-.197-.158C17.322 2.681 15.036 2 11.944 2c-4.056 0-6.89 2.457-6.89 5.974v.054c0 4.062 2.931 5.14 6.472 6.045 3.364.863 3.608 1.386 3.608 2.144v.054c0 .947-.92 1.513-2.46 1.513-2.055 0-3.795-.647-5.476-2.035l-.207-.171-2.799 3.353.194.174C6.507 20.998 9.346 22 12.593 22c4.384 0 7.215-2.41 7.215-6.135z" style="display:inline;fill:#000;stroke-width:1.17"/></svg>