<svg xmlns="http://www.w3.org/2000/svg" viewBox="0 0 24 24"><path d="M12 10.581h-.066c-1.584 0-2.871-1.32-2.871-2.937 0-1.618 1.287-2.938 2.871-2.938a2.875 2.875 0 0 1 2.871 2.773h-.825l2.211 2.376 2.113-2.376h-.726C17.446 4.442 15.003 2 11.967 2c-3.102 0-5.61 2.541-5.61 5.71s2.54 5.71 5.643 5.71z" opacity=".5"/><path d="M12 13.419h.066c1.584 0 2.871 1.32 2.871 2.937 0 1.617-1.287 2.938-2.871 2.938a2.875 2.875 0 0 1-2.871-2.773h.825l-2.211-2.376-2.113 2.376h.726C6.554 19.558 8.997 22 12.033 22c3.102 0 5.61-2.541 5.61-5.71s-2.54-5.71-5.643-5.71z"/></svg>