<svg xmlns="http://www.w3.org/2000/svg" width="192" height="192" viewBox="0 0 192 192"><path d="M158.46 126.48c0-28.672-19.84-39.728-49.616-47.488-25.808-6.608-31.024-9.6-31.024-17.8v-.424c0-6.704 6.792-11.04 17.288-11.04 14.08 0 26.552 3.912 38.128 11.936l1.776 1.248 19.68-28.52-1.576-1.264C138.572 21.448 120.284 16 95.548 16c-32.448 0-55.12 19.656-55.12 47.792v.432c0 32.496 23.448 41.12 51.776 48.36 26.912 6.904 28.864 11.088 28.864 17.152v.432c0 7.576-7.36 12.104-19.68 12.104-16.44 0-30.36-5.176-43.808-16.28l-1.656-1.368-22.392 26.824 1.552 1.392C52.052 167.984 74.764 176 100.74 176c35.072 0 57.72-19.28 57.72-49.08z"/></svg>