<svg xmlns="http://www.w3.org/2000/svg" width="24" height="24" fill="none" viewBox="0 0 24 24"><path fill="#000" fill-rule="evenodd" d="M16.997 2.21c-.297.33-.285.88.024 1.045.134.072.576.132.981.134 1.375.005 2.501.86 2.888 2.189.216.743.553 1.016 1.035.838.807-.299.238-2.097-1.034-3.27-.803-.74-1.57-1.057-2.722-1.125-.823-.049-.98-.023-1.172.19m-5.856 2.373c-.21.096-1.973 1.309-3.92 2.695-3.02 2.15-3.583 2.601-3.83 3.07-.289.545-.291.583-.291 5.449 0 4.883.001 4.901.287 5.33.603.902.312.873 8.64.873 8.329 0 8.037.03 8.64-.873.286-.429.287-.447.287-5.323 0-4.824-.003-4.901-.284-5.453-.25-.489-.734-.879-3.83-3.077-1.95-1.384-3.73-2.597-3.954-2.696-.51-.224-1.25-.222-1.745.005m5.718.048c-.448.494-.11.958.781 1.07.647.082.973.342 1.167.93.16.485.517.733.886.616.912-.29.328-1.973-.902-2.6-.638-.326-1.645-.334-1.932-.016m-.88 5 2.56 1.796.004 4.084.006 4.083H5.506l.007-4.083.008-4.084 3.253-2.293 3.253-2.293.697.497c.383.274 1.848 1.306 3.255 2.293" clip-rule="evenodd"/></svg>