<svg xmlns="http://www.w3.org/2000/svg" width="24" height="24" fill="none" viewBox="0 0 24 24"><path d="M11.989 2.113c-1.595-.012-3.22.606-4.27 1.833-.933.989-1.286 2.391-1.239 3.723-.004.684.005 1.368.007 2.052-.653-.163-1.316-.618-2.008-.393-.59.176-.836.947-.48 1.442.384.503.98.79 1.478 1.164.244.2.575.344.757.601 0 .617-.323 1.189-.63 1.709-.746 1.176-1.912 2.075-3.16 2.696-.32.138-.613.554-.33.868.515.484 1.243.639 1.893.867.272.085.677.179.651.546.045.39.294.81.732.812 1.05.121 2.172.07 3.113.633.922.535 1.872 1.132 2.967 1.197 1.092.103 2.217-.118 3.153-.702.697-.385 1.377-.865 2.194-.943.687-.161 1.427-.02 2.091-.277.426-.183.368-.7.547-1.043.338-.234.77-.26 1.146-.415.491-.196 1.11-.347 1.369-.857.153-.406-.309-.628-.594-.785-1.518-.785-2.884-1.994-3.483-3.633-.066-.26-.304-.646.011-.836.66-.558 1.522-.879 2.069-1.566.414-.519.125-1.41-.552-1.512-.657-.104-1.27.253-1.887.417-.054-1.14.067-2.302-.104-3.44-.324-1.845-1.802-3.361-3.575-3.891a6.1 6.1 0 0 0-1.866-.267" style="display:inline;fill:#000;fill-opacity:1;stroke:none;stroke-width:.0971193;stroke-linecap:round;stroke-miterlimit:0;stroke-opacity:.664336"/></svg>