<svg xmlns="http://www.w3.org/2000/svg" viewBox="0 0 24 24"><path d="M16.585 7.66c-.175-.043-.28-.046-.46-.075-.878-.143-1.733-.021-2.578.217a2.15 2.15 0 0 1-.554.093 2.242 2.242 0 0 1-.554-.093c-.845-.238-1.7-.36-2.577-.217-.18.03-.286.03-.46.074-.16.04-.2.297-.147.771.024.217.088.427.13.641.043.215.096.427.21.617.108.18.267.308.463.369a2.33 2.33 0 0 0 1.359.037c.384-.109.691-.334.885-.686.143-.263.257-.54.384-.814.018-.042.034-.084.055-.127.059-.116.133-.167.255-.167.119 0 .193.048.254.167.021.043.037.085.056.127.127.273.24.551.384.814.19.355.5.58.884.686a2.33 2.33 0 0 0 1.36-.037.819.819 0 0 0 .463-.369c.114-.19.167-.4.21-.617.039-.214.105-.424.129-.64.053-.475.013-.732-.146-.772zm2.731 4.116h-1.658v-1.317h-.003l.003-.161a7.298 7.298 0 1 0-14.593.161h-.003v8.003c0 .784.358 1.526.973 2.013l.315.249c.485.368 1.245.365 1.727 0l.49-.37c.188-.144.556-.144.744 0l.49.37c.485.368 1.243.368 1.727 0l.49-.37a.624.624 0 0 1 .691 0l.49.37c.486.365 1.24.365 1.725 0l.49-.37c.188-.144.554-.144.742 0l.49.37c.482.365 1.24.365 1.724 0l.316-.25a2.566 2.566 0 0 0 .972-2.01v-3.12h1.658c.895 0 1.621-.797 1.621-1.783 0-.985-.726-1.782-1.62-1.782zm-2.633-1.314v8.217c0 .434-.204.845-.548 1.107l-.255.193c-.188.143-.553.143-.741 0l-.49-.37c-.482-.366-1.24-.366-1.725 0l-.49.37c-.188.143-.553.143-.741 0l-.49-.37a1.42 1.42 0 0 0-.832-.273h-.008a1.431 1.431 0 0 0-.835.275l-.49.371c-.188.143-.556.143-.744 0l-.49-.37c-.485-.366-1.242-.366-1.727 0l-.49.37c-.188.143-.557.143-.742 0l-.257-.196a1.389 1.389 0 0 1-.55-1.107v-8.214h.002c-.003-.053-.003-.11-.003-.162a6.322 6.322 0 1 1 12.646 0c0 .053 0 .109-.003.162h.003zm2.633 3.91h-1.658V12.75h1.658c.405 0 .736.363.736.81 0 .448-.33.81-.736.81zM8.289 11.776h-1.46a.488.488 0 0 0 0 .975h1.46c.405 0 .736.362.736.81 0 .448-.33.81-.736.81h-1.46a.488.488 0 0 0 0 .976h1.46c.895 0 1.621-.798 1.621-1.783 0-.986-.726-1.783-1.621-1.783z"/></svg>