<svg xmlns="http://www.w3.org/2000/svg" xml:space="preserve" width="24" height="24" fill="none" viewBox="0 0 24 24"><path fill="#000" d="M12 1.947A10.044 10.052 0 0 0 1.956 12 10.044 10.052 0 0 0 12 22.052 10.044 10.052 0 0 0 22.044 12 10.044 10.052 0 0 0 12 1.947m-.166 1.547A8.48 8.48 0 0 1 16.85 5.02a8.55 8.55 0 0 1 3.065 3.897 8.6 8.6 0 0 1 .398 4.95c-.358 1.655-1.194 3.09-2.502 4.341a.436.436 0 0 1-.617-.014.436.436 0 0 1 .013-.617c1.203-1.15 1.931-2.41 2.252-3.894a7.73 7.73 0 0 0-.356-4.449 7.7 7.7 0 0 0-2.753-3.498 7.6 7.6 0 0 0-8.481-.15v-.002a7.67 7.67 0 0 0-2.874 3.398 7.73 7.73 0 0 0-.513 4.434c.263 1.468 1.184 3.14 2.3 4.154a.436.436 0 0 1 .03.616.436.436 0 0 1-.617.029c-1.285-1.168-2.269-2.953-2.573-4.646a8.6 8.6 0 0 1 .572-4.933 8.54 8.54 0 0 1 3.2-3.784 8.47 8.47 0 0 1 4.439-1.358zm.05 2.634a5.87 5.87 0 0 1 3.476 1.057 5.9 5.9 0 0 1 2.12 2.696 5.95 5.95 0 0 1 .275 3.426 5.7 5.7 0 0 1-1.632 2.935.436.436 0 0 1-.618-.01.436.436 0 0 1 .01-.617 4.78 4.78 0 0 0 1.386-2.492 5.1 5.1 0 0 0-.234-2.924 5.05 5.05 0 0 0-1.809-2.3v.002a4.99 4.99 0 0 0-5.573-.1 5.04 5.04 0 0 0-1.888 2.232 5.1 5.1 0 0 0-.337 2.914c.172.96.74 1.955 1.436 2.68a.436.436 0 0 1-.013.616.436.436 0 0 1-.617-.013c-.804-.837-1.454-1.95-1.666-3.128a5.95 5.95 0 0 1 .396-3.415 5.9 5.9 0 0 1 2.215-2.62 5.87 5.87 0 0 1 3.072-.94zM12 9.6a2.4 2.4 0 1 1-1.697 4.098h-.001A2.4 2.4 0 0 1 9.599 12v-.002A2.4 2.4 0 0 1 12 9.6m0 .872a1.529 1.529 0 0 0 0 3.056 1.527 1.527 0 0 0 0-3.056"/></svg>