<svg xmlns="http://www.w3.org/2000/svg" data-name="Layer 1" viewBox="0 0 24 24"><path d="M20.297 10.667h-4.556q.053.574.053 1.158a12.2 12.2 0 0 1-1.062 5.091 11.7 11.7 0 0 1-2.337 3.374A12.7 12.7 0 0 1 10.303 22h9.994a1.07 1.07 0 0 0 1.066-1.066v-9.2a1.07 1.07 0 0 0-1.066-1.067m-17.66 1.158a10.9 10.9 0 0 0 3.157 7.907 11.8 11.8 0 0 0 2.658 2.03v-4.839L2.657 11.13q-.02.346-.02.696M3.83 6.828a10.6 10.6 0 0 0-1.072 3.322l5.694 5.693V9.691L5.588 6.828Zm2.298-.54 2.324 2.323V2a13 13 0 0 0-2.324 1.78ZM9.216 2v6.611L12.728 5.1a13 13 0 0 0-3.512-3.098m3.966 3.723L9.216 9.691v6.152l5.693-5.693a10.6 10.6 0 0 0-1.727-4.425"/><path d="M11.873 19.732a10.9 10.9 0 0 0 3.157-7.907q0-.35-.02-.696l-5.794 5.794v4.839a11.8 11.8 0 0 0 2.657-2.03"/></svg>