<svg xmlns="http://www.w3.org/2000/svg" viewBox="0 0 24 24"><path d="M17.107 11.307a2.5 2.5 0 0 1-.756-.127l-.83.678v8.89h2.284V11.19a2.5 2.5 0 0 1-.698.116zm-4.73 3.102v6.338h2.286v-8.2zm-9.19 3.443a1 1 0 0 1-.203.115v2.78H5.27v-4.59zm11.802-8.374-6 4.89-1.667-2.043a.5.5 0 0 0-.07-.069.48.48 0 0 0-.307-.111.47.47 0 0 0-.305.109l-.03.029-4.43 3.609a.482.482 0 0 0 .307.857.48.48 0 0 0 .304-.108l4.087-3.334 1.676 2.056a.48.48 0 0 0 .373.177h.047a.5.5 0 0 0 .266-.108l6.46-5.265a2.6 2.6 0 0 1-.71-.689zm4.49-3.389 1.32-.82a.36.36 0 0 1 .19-.055.364.364 0 0 1 .194.666l-1.32.818a.36.36 0 0 1-.5-.116.36.36 0 0 1 .116-.493m2.517 2.64a.364.364 0 0 1-.36.311h-.05l-1.539-.222a.362.362 0 0 1 .052-.722h.05l1.538.222a.36.36 0 0 1 .31.411zm-2.629 1.334a.36.36 0 0 0-.27-.123.364.364 0 0 0-.27.607l1.036 1.158a.364.364 0 0 0 .542-.485zm-5.253-1.074-1.522.32a.4.4 0 0 1-.074 0 .362.362 0 0 1-.075-.718l1.522-.32a.4.4 0 0 1 .076 0 .362.362 0 0 1 .073.718m-1.451-3.342a.364.364 0 0 1 .49-.15l1.372.734a.364.364 0 0 1-.173.685.34.34 0 0 1-.172-.045l-1.369-.733a.364.364 0 0 1-.148-.491m3.389-.158a.364.364 0 0 1-.474-.2L15 3.845a.367.367 0 0 1 .203-.472.36.36 0 0 1 .473.203l.578 1.442a.36.36 0 0 1-.202.471m2.566-2.218a.3.3 0 0 0-.113-.02.37.37 0 0 0-.347.251l-.484 1.476a.36.36 0 0 0 .222.458.3.3 0 0 0 .113.02.36.36 0 0 0 .345-.251l.484-1.476a.364.364 0 0 0-.22-.458m-1.51 2.862a1.909 1.909 0 1 0 1.908 1.91 1.91 1.91 0 0 0-1.909-1.91zM8.046 16.485l-1.27-1.555-.666.54v5.28h2.285v-3.978a1.2 1.2 0 0 1-.35-.287zm1.589.16a1.2 1.2 0 0 1-.39.196v3.907h2.285v-5.65z"/></svg>