<svg xmlns="http://www.w3.org/2000/svg" data-name="Layer 1" viewBox="0 0 24 24"><path d="m9.724 3.401.756.959h8.43v1.731h1.716v1.731h.566V4.085a1.338 1.338 0 0 0-1.337-1.337H4.481a1.54 1.54 0 0 0-1.264.657l.12-.004Zm-.336 6.08a2.859 2.859 0 0 0-3.411 4.178Z"/><path d="m12.843 8.586-3.489-4.42H3.337A1.335 1.335 0 0 0 2 5.558l.617 14.413a1.334 1.334 0 0 0 1.335 1.28h16.224a1.334 1.334 0 0 0 1.335-1.28L22 8.586ZM8.416 7.07a5.094 5.094 0 0 1 4.233 2.256l-6.171 7.56A5.1 5.1 0 0 1 8.416 7.07m0 13.49a5.102 5.102 0 0 1-4.941-3.836l.549-.673a5.895 5.895 0 0 0 2.164 1.54l.524.216 5.052-6.19a5.098 5.098 0 0 1-3.348 8.943"/><path d="M19.862 7.822v-.967h-7.413l.764.967zm-8.779-2.698.763.967h6.3v-.967z"/></svg>