<svg xmlns="http://www.w3.org/2000/svg" style="-ms-transform:rotate(360deg);-webkit-transform:rotate(360deg)" viewBox="0 0 192 192"><path d="M87.296 135.957A37.333 37.333 0 0 1 21.333 112c0-17.088 12.16-28.085 28.373-42.752C63.85 56.448 81.088 40.853 96 16c14.912 24.853 32.149 40.448 46.293 53.248 16.213 14.667 28.373 25.664 28.373 42.752a37.333 37.333 0 0 1-65.962 23.957 212.5 212.5 0 0 0 16.874 31.008c2.464 3.734-.213 9.035-4.672 9.035H75.093c-4.47 0-7.147-5.301-4.672-9.035a212.5 212.5 0 0 0 16.875-31.008"/></svg>