<svg xmlns="http://www.w3.org/2000/svg" width="24" height="24" fill="none" viewBox="0 0 24 24"><path d="M9 33c-4.347 0-8.474.929-12.202 2.593C-4.211 36.043-5 37.364-5 38.47V87a2 2 45 0 0 2 2h33s7.58-.015 12 0c9.389 0 17-7.611 17-17s-7.611-17-17-17a16.998 16.998 0 0 0-3.955.508C34.628 42.26 22.68 33.002 9 33" style="opacity:1;fill:#010000;fill-opacity:1;stroke:none;stroke-width:6.8;stroke-linejoin:round" transform="translate(12.78 .783)scale(.17323)"/><path d="M-9.025 69c-.115 7.832-.566 14.515-1.194 18.414-.341 2.115-2.22 2.114-2.562 0-.628-3.9-1.079-10.582-1.195-18.414-.032-2.21-.032-5.791 0-8 .116-7.832.567-14.515 1.195-18.414.341-2.115 2.22-2.115 2.562 0 .628 3.9 1.079 10.582 1.195 18.414.032 2.209.032 5.79 0 8zm-9.008 3.5c-.124 6.243-.534 11.594-1.104 14.92-.36 2.106-2.365 2.106-2.726 0-.57-3.326-.98-8.677-1.104-14.92a242.51 242.51 0 0 1 0-8c.124-6.243.534-11.595 1.104-14.92.36-2.106 2.365-2.106 2.726 0 .57 3.326.98 8.677 1.104 14.92a242.44 242.44 0 0 1 0 8m-8.997-1c-.122 6.694-.544 12.424-1.132 15.919-.355 2.108-2.321 2.108-2.676 0-.588-3.495-1.01-9.225-1.132-15.92-.04-2.208-.04-5.79 0-7.999.122-6.694.544-12.424 1.132-15.919.355-2.108 2.321-2.108 2.676 0 .588 3.495 1.01 9.225 1.132 15.92.04 2.208.04 5.79 0 7.999zm-9.004 1.5c-.126 6.018-.53 11.181-1.09 14.422-.364 2.104-2.388 2.104-2.752 0-.56-3.24-.964-8.404-1.09-14.422a231.51 231.51 0 0 1 0-8c.126-6.018.53-11.181 1.09-14.422.364-2.104 2.388-2.104 2.752 0 .56 3.24.964 8.404 1.09 14.422.046 2.209.046 5.791 0 8m-9.018 4c-.135 4.243-.48 7.917-.95 10.432-.393 2.09-2.603 2.09-2.995 0-.472-2.515-.816-6.189-.95-10.433-.07-2.208-.07-5.79 0-7.998.134-4.244.478-7.918.95-10.433.392-2.09 2.602-2.09 2.994 0 .472 2.515.816 6.189.95 10.433.07 2.208.07 5.79 0 7.998zm-9.008-1c-.135 3.808-.462 7.114-.907 9.435-.4 2.087-2.666 2.087-3.066 0-.445-2.32-.772-5.628-.908-9.436-.079-2.208-.079-5.79 0-7.998.136-3.809.463-7.116.908-9.436.4-2.087 2.666-2.087 3.066 0 .445 2.32.772 5.627.908 9.436.079 2.207.079 5.79 0 7.998zm-9.066-.004c-.13 1.7-.34 3.22-.61 4.459-.447 2.06-3.082 2.06-3.529 0-.269-1.24-.48-2.759-.609-4.459-.168-2.202-.168-5.79 0-7.992.13-1.7.34-3.22.609-4.459.448-2.06 3.082-2.06 3.53 0 .269 1.24.48 2.76.609 4.459.168 2.202.168 5.79 0 7.992" style="opacity:1;fill:#010000;fill-opacity:1;stroke:none;stroke-width:10.2062;stroke-linejoin:round" transform="translate(12.78 .783)scale(.17323)"/></svg>