<svg xmlns="http://www.w3.org/2000/svg" viewBox="0 0 24 24"><path d="M6.57 2.104c.042.046.162.228.266.404l.19.32.021-.166c.026-.201.18-.357.31-.316q.185.06.336.286c.126.19.344.468.446.568.048.047.17.142.27.21s.29.21.423.315c.278.22.75.477.946.514.083.015.28-.005.511-.054.207-.044.48-.09.607-.104s.438-.05.691-.082c.36-.045.513-.048.692-.015.127.023.464.068.75.1.284.032.63.078.768.103.427.078.561.06.908-.124.172-.09.448-.276.614-.411.165-.136.327-.247.36-.247.06 0 .553-.573.69-.8a.6.6 0 0 1 .19-.184c.09-.046.136-.05.207-.018.115.053.22.227.22.367 0 .087.034.048.193-.218.265-.444.323-.5.514-.5a.5.5 0 0 1 .202.03c.131.084.197.636.132 1.099a3.4 3.4 0 0 1-.336 1.045c-.07.143-.13.274-.13.292s.06.025.131.017c.096-.012.153.006.212.065.105.106.106.354.004.757-.042.165-.067.339-.055.386.016.065-.044.167-.25.43-.15.19-.283.382-.295.427-.014.053.041.208.158.44.537 1.077.864 2.083.864 2.658 0 .093.02.248.044.345.035.139.03.285-.023.718-.086.703-.238 1.219-.465 1.58a.7.7 0 0 0-.094.2c0 .027.071.17.16.32.443.758.69 1.37.997 2.493.032.115.05.488.05 1.102.003.863-.003.95-.087 1.246-.098.346-.217.514-.364.514-.08 0-.1.027-.139.18-.068.274-.298.847-.476 1.188a3 3 0 0 1-.31.477c-.13.148-.167.17-.26.15-.097-.02-.117-.004-.19.142-.126.25-.5.8-.6.878-.047.039-.29.134-.538.212s-.504.16-.567.182a3 3 0 0 1-.288.075c-.095.02-.25.053-.346.075s-.497.079-.892.127c-.54.066-.964.09-1.71.097-1.526.015-2.924-.136-3.718-.4l-.615-.2q-.421-.136-.525-.238c-.11-.11-.557-.791-.595-.907-.018-.054-.048-.064-.13-.046-.086.019-.127 0-.222-.102-.252-.272-.695-1.194-.824-1.715-.043-.173-.06-.194-.177-.218-.07-.015-.145-.05-.163-.08-.166-.26-.265-.877-.263-1.645.002-.613.05-.94.215-1.496.26-.866.435-1.278.864-2.038.103-.184.188-.354.188-.38 0-.024-.068-.17-.15-.324-.227-.423-.315-.742-.43-1.56a1.8 1.8 0 0 1-.002-.58c.022-.146.052-.378.066-.516.038-.378.21-1.017.427-1.586.053-.138.21-.48.347-.76.18-.368.244-.535.227-.6a1 1 0 0 0-.18-.264A5 5 0 0 1 6.291 6a.55.55 0 0 1-.126-.348 2 2 0 0 0-.067-.39 1.8 1.8 0 0 1-.063-.414c0-.16.018-.22.087-.285s.116-.077.23-.06l.146.024-.15-.3a6 6 0 0 1-.257-.61c-.088-.25-.112-.394-.125-.75q-.016-.441.033-.6a1 1 0 0 1 .078-.191c.037-.044.268-.092.35-.072a.4.4 0 0 1 .141.1m.914 5.603c.15.155.293.32.317.367.024.048.054.23.066.406.03.428.135.838.304 1.188.193.399.584.79.984.983.382.185.875.293 1.337.294.34 0 .37.007.47.104.06.057.115.096.124.087.01-.01-.023-.14-.072-.288a7 7 0 0 1-.25-.873 1 1 0 0 0-.096-.29c-.05-.071-.056-.07-.146.015a.7.7 0 0 1-.224.125c-.187.055-.559.046-.798-.018a1 1 0 0 1-.61-.418c-.095-.148-.107-.208-.125-.604l-.02-.44-.268-.19c-.287-.2-1.183-.728-1.235-.728-.017 0 .092.126.242.28m8.945.015c-.508.298-.977.615-.982.664-.002.015-.006.2-.01.414-.006.317-.023.416-.093.549-.108.204-.282.338-.567.437-.368.127-.93.085-1.08-.082-.035-.04-.08-.073-.096-.073-.049 0-.136.195-.165.368-.015.085-.096.37-.18.633-.084.264-.146.485-.139.493.008.007.072-.03.143-.083.114-.084.17-.096.445-.096.433 0 1.008-.126 1.348-.295.338-.168.715-.508.892-.803.071-.12.18-.37.243-.556.083-.248.121-.454.144-.777l.03-.44.321-.324c.177-.178.304-.324.283-.323-.02 0-.262.133-.537.294m-4.916 4.612c-.017.052.058.207.25.513.15.24.288.455.307.474.022.022.063.01.107-.03.114-.103.55-.874.537-.946-.01-.057-.085-.066-.595-.076-.548-.01-.584-.006-.606.065m-.745 1.622c-.045.087-.084.253-.12.509-.037.255.055.846.142.916a.14.14 0 0 0 .12.024c.035-.012.275-.124.534-.25.26-.123.54-.236.625-.25.128-.021.18-.007.312.08.204.136.966.449 1.004.412.053-.051.148-.486.15-.68 0-.267-.116-.755-.185-.782-.03-.012-.203.028-.382.088-.21.07-.383.157-.486.246-.148.128-.177.137-.386.13-.178-.008-.25-.03-.342-.11-.162-.136-.27-.187-.636-.3-.29-.09-.32-.093-.35-.034"/></svg>