<svg xmlns="http://www.w3.org/2000/svg" viewBox="0 0 24 24"><path d="M9.995 21.676a707 707 0 0 0-2.59-.404c-.474-.071-.584-.104-.702-.21-.125-.11-.143-.162-.165-.468l-.024-.344.207.031c.114.017 1.46.206 2.99.419l2.784.388-.003.347c-.003.317-.014.356-.132.458-.071.061-.176.109-.233.107s-1.016-.148-2.132-.324m.306-1.138a1651 1651 0 0 1-7.067-.964.35.35 0 0 1-.247-.18c-.09-.146-.092-.274-.093-4.766l.004-4.64c.028-.251.31-.258.5-.253.125.002 3.295-.18 7.045-.394 7.418-.426 7.021-.418 7.203-.14.082.125.086.395.086 6.012 0 4.94-.01 5.9-.066 6.003-.06.113-.317.277-.413.263zm.33-1.259c0-.02-.18-.586-.4-1.26-.218-.673-.388-1.234-.377-1.245s.324 0 .694.024c.37.025.678.043.683.041.008-.003-3.322-4.913-3.536-5.214-.08-.11-.083-.008-.083 2.415v2.532l.248.025c.136.014.407.038.602.054l.354.028.794 2.531.405.046c.554.062.617.064.616.023M17 16.09v-.394l-.324-.03c-.459-.042-1.09-.232-1.595-.48-1.725-.844-2.872-2.629-3.02-4.696l-.03-.426-.575.028.015.354a6.55 6.55 0 0 0 .665 2.618c.609 1.258 1.507 2.195 2.677 2.793.654.334 1.252.507 2.152.623.019.003.035-.172.035-.39m0-1.846v-.401h-.205c-.112 0-.365-.041-.561-.091-1.466-.375-2.54-1.723-2.704-3.394l-.034-.337h-.6v.186c0 .33.098.91.221 1.299.51 1.616 1.773 2.787 3.304 3.064.623.113.579.138.579-.326m0-1.811v-.373l-.28-.05a2.5 2.5 0 0 1-.543-.177c-.298-.146-.719-.56-.87-.857-.122-.239-.241-.682-.241-.894 0-.144-.012-.155-.154-.155a3 3 0 0 0-.33.03c-.16.027-.177.043-.176.177.002.303.145.82.335 1.204.408.828 1.292 1.442 2.106 1.463l.153.004zm1.533 4.15-.377-.027-.024-3.68c-.01-1.368.087-3.106-.128-3.877-.09-.322-.353-.412-.72-.432-.17-.01-1.534.062-3.032.158-1.499.096-2.757.162-2.796.147-.06-.023-.07-.204-.068-1.244.003-1.316.03-1.507.233-1.599.065-.03 1.784-.238 3.82-.463 3.663-.405 3.701-.408 3.82-.32.065.05.133.14.151.203s.034 2.508.036 5.435c.006 5.797.015 5.593-.255 5.696a.6.6 0 0 1-.203.038c-.044-.005-.25-.02-.457-.036zM15.352 7.14a.5.5 0 0 0 .162-.186c.198-.383-.074-.785-.443-.657-.429.15-.39.891.048.891a.6.6 0 0 0 .233-.048m4.515 4.363c-.02-.02-.035-1.43-.035-3.131 0-2.852-.007-3.107-.083-3.259-.11-.217-.356-.378-.581-.378-.098 0-.977.096-1.952.212-.976.117-1.795.213-1.82.213-.029 0-.046-.384-.046-1.017 0-1.166.022-1.258.318-1.34.168-.047 5.016-.805 5.145-.804.034 0 .113.052.177.116l.116.115v9.002l-.116.125a.36.36 0 0 1-.252.125c-.076 0-.294.013-.486.029s-.365.012-.385-.008m-1.486-7.9c.17-.188.176-.43.014-.592-.064-.064-.158-.116-.21-.116-.4 0-.63.511-.355.786.155.155.365.125.55-.079z"/></svg>