<svg xmlns="http://www.w3.org/2000/svg" width="192" height="192" viewBox="0 0 192 192"><path d="M37.264 86.576v77.152c0 6.8 5.472 12.272 12.272 12.272h92.928a12.24 12.24 0 0 0 12.272-12.272V86.576zm29.976 31.736h57.52a.17.17 0 0 1 .168.176v6.664c0 .096-.08.176-.168.176H67.24a.16.16 0 0 1-.168-.176v-6.664c0-.096.08-.176.168-.176m0 14.56h57.52a.16.16 0 0 1 .168.168v6.664c0 .096-.08.176-.168.176H67.24a.16.16 0 0 1-.168-.176v-6.664c0-.096.08-.176.168-.176m0 14.544h57.52a.17.17 0 0 1 .168.176v6.664c0 .096-.08.176-.168.176H67.24a.16.16 0 0 1-.168-.176v-6.664c0-.096.08-.176.168-.176" opacity=".6"/><path d="M49.536 16a12.24 12.24 0 0 0-12.272 12.272v100.38L66.04 99.284h76.424a12.24 12.24 0 0 0 12.272-12.272V28.268a12.24 12.24 0 0 0-12.264-12.272zM66.76 41.56h25.424v25.424a10.52 10.52 0 0 1-10.52 10.52v-10.52H66.76zm32.92 0h25.424v25.424a10.52 10.52 0 0 1-10.52 10.52v-10.52H99.68z"/></svg>