<svg xmlns="http://www.w3.org/2000/svg" width="192" height="192" viewBox="0 0 192 192"><path d="M95.648 27.376c-44.8 0-79.648 36.272-79.648 80.36 0 18.488 6.4 36.984 18.488 51.2l4.976 5.68 9.248-9.232-3.56-4.984c-9.952-12.096-14.936-27.024-14.936-42.664A66.776 66.776 0 0 1 97.072 40.88a66.776 66.776 0 0 1 66.848 66.856c0 15.64-5.696 30.568-14.944 42.664l-3.544 4.984 9.24 9.24 4.976-5.68c9.96-14.936 16.352-32.72 16.352-51.208 0-44.088-35.552-80.36-80.352-80.36m29.152 44.8L80 107.736l15.648 15.64 35.552-44.8z"/></svg>