<svg xmlns="http://www.w3.org/2000/svg" width="24" height="24" fill="none" viewBox="0 0 24 24"><path d="M48.224-.34c-5.6 0-9.956 4.534-9.956 10.045 0 2.311.8 4.623 2.311 6.4l.622.71 1.156-1.154-.445-.623c-1.244-1.512-1.867-3.378-1.867-5.333a8.347 8.347 0 0 1 8.357-8.357 8.347 8.347 0 0 1 8.356 8.357c0 1.955-.712 3.821-1.868 5.333l-.443.623 1.155 1.155.622-.71c1.245-1.867 2.044-4.09 2.044-6.401 0-5.511-4.444-10.045-10.044-10.045m3.644 5.6-5.6 4.445 1.956 1.955 4.444-5.6z" style="fill:#000;fill-opacity:1;fill-rule:evenodd;stroke:none;stroke-width:.0793614" transform="translate(-36.268 2.34)"/></svg>