<svg xmlns="http://www.w3.org/2000/svg" width="192" height="192" viewBox="0 0 192 192"><path d="M90.184 174.48c-17.28-5.792-31.792-17.36-42.824-34.16-7.864-11.96-12.344-23.664-14.72-38.496-.504-3.144-.632-8.48-.752-32.864l-.152-29.104L96 16l64.264 23.856-.144 29.296c-.12 25.52-.224 29.8-.792 33.24-2.344 14.264-6.992 26.352-14.464 37.624-9.44 14.24-20.192 24-33.648 30.568-5.256 2.56-13.344 5.424-15.328 5.416-.664 0-3.232-.688-5.712-1.52zm10.08-16.88c7.904-3.112 14.4-7.416 20.952-13.896a76.64 76.64 0 0 0 22.48-47.888c.216-2.272.384-13.28.384-24.456V51.032L95.944 32.976 47.92 50.992v19.632c0 21.24.288 26.864 1.704 33.888 4.512 22.384 19.52 42.552 38.288 51.44 3.6 1.712 7.112 3.072 8.016 3.12.28.016 2.224-.64 4.32-1.472zM59.192 96.184l11.472-11.448 16.888 16.528 33.992-33.608L133 79.104l-45.44 45.44z"/></svg>