<svg xmlns="http://www.w3.org/2000/svg" viewBox="0 0 24 24"><path d="M11.273 21.81c-2.16-.724-3.974-2.17-5.353-4.27-.983-1.495-1.543-2.958-1.84-4.812-.063-.393-.079-1.06-.094-4.108l-.019-3.638L7.95 3.491C10.139 2.67 11.962 2 12 2s1.862.67 4.051 1.49l3.982 1.492-.018 3.662c-.015 3.19-.028 3.725-.099 4.155-.293 1.783-.874 3.294-1.808 4.703-1.18 1.78-2.524 3-4.206 3.821-.657.32-1.668.678-1.916.677-.083 0-.404-.086-.714-.19zm1.26-2.11c.988-.389 1.8-.927 2.619-1.737a9.58 9.58 0 0 0 2.81-5.986c.027-.284.048-1.66.048-3.057V6.379l-6.017-2.257-2.754 1.034L5.99 6.374v2.454c0 2.655.036 3.358.213 4.236.564 2.798 2.44 5.319 4.786 6.43.45.214.889.384 1.002.39.035.002.278-.08.54-.184zm-3.361-5.904-1.773-1.773.717-.715.717-.716 1.032 1.033c.567.568 1.053 1.033 1.079 1.033s.992-.945 2.148-2.1l2.101-2.101 1.432 1.431-5.68 5.68z"/></svg>