<svg xmlns="http://www.w3.org/2000/svg" viewBox="0 0 24 24"><path d="M4.18 21.912c-.332-.118-.676-.426-.867-.777-.342-.627-.34-.585-.338-6.243l.001-5.188.31.593c.936 1.795 1.988 2.72 3.57 3.14.836.223 1.803.706 2.279 1.138 1.56 1.417 1.44 3.416-.323 5.375-.246.274-.523.46-1.601 1.077-.717.41-1.473.799-1.68.863-.44.138-.999.147-1.35.022zm6.382-2.842c0-.011.052-.108.115-.216.196-.337.466-1.078.563-1.548.246-1.191-.028-2.294-.775-3.119-.614-.679-1.395-1.124-2.512-1.433-1.131-.313-1.854-.7-2.608-1.399-1.003-.929-1.88-2.547-2.226-4.112-.127-.574-.19-2.867-.095-3.478.126-.814.45-1.332 1.003-1.604.29-.142.407-.165.813-.16.634.006.85.097 2.56 1.072.777.443 1.419.81 1.426.816a3 3 0 0 1-.13.429c-.22.653-.284 1.086-.26 1.75.021.535.047.661.212 1.01.486 1.035 1.246 1.558 3.174 2.186 1.534.5 2.509.992 3.276 1.653.74.637 1.297 1.502 1.514 2.352.134.52.152 1.57.037 2.067l-.069.295-.652.379c-1.758 1.02-5.366 3.078-5.366 3.06m7.143-4.187c.023-.076.057-.45.074-.83.04-.867-.067-1.394-.43-2.117-.333-.668-.817-1.238-1.465-1.73-.892-.677-1.827-1.104-3.573-1.629-1.463-.44-2.49-1.107-2.857-1.855-.15-.306-.167-.4-.167-.962 0-.625.155-1.423.276-1.423.067 0 10.114 5.757 10.458 5.992.318.216.7.637.868.955.107.203.136.353.136.703 0 .874-.415 1.345-1.983 2.256-.571.331-1.115.642-1.21.691-.168.087-.17.086-.128-.05z"/></svg>