<svg xmlns="http://www.w3.org/2000/svg" width="192" height="192" viewBox="0 0 192 192"><path d="M33.44 175.3c-2.656-.944-5.408-3.408-6.936-6.216-2.736-5.016-2.72-4.68-2.704-49.945l.008-41.505 2.48 4.744c7.488 14.36 15.904 21.76 28.56 25.121 6.689 1.784 14.425 5.648 18.233 9.104 12.48 11.336 11.52 27.33-2.584 43.001-1.968 2.192-4.184 3.68-12.808 8.616-5.736 3.28-11.784 6.393-13.44 6.905-3.52 1.104-7.992 1.176-10.8.176zm51.057-22.736c0-.088.416-.864.92-1.728 1.568-2.696 3.728-8.624 4.504-12.384 1.968-9.528-.224-18.352-6.2-24.953-4.912-5.432-11.16-8.992-20.096-11.464-9.048-2.504-14.832-5.6-20.864-11.192-8.024-7.432-15.04-20.376-17.808-32.897-1.016-4.592-1.52-22.936-.76-27.825 1.008-6.512 3.6-10.656 8.024-12.832 2.32-1.136 3.256-1.32 6.504-1.28 5.072.048 6.8.776 20.48 8.576 6.216 3.544 11.352 6.48 11.408 6.528a24 24 0 0 1-1.04 3.432c-1.76 5.224-2.272 8.689-2.08 14 .168 4.28.376 5.288 1.696 8.08 3.888 8.28 9.968 12.465 25.393 17.489 12.272 4 20.072 7.936 26.21 13.224 5.92 5.096 10.375 12.016 12.111 18.816 1.072 4.16 1.216 12.56.296 16.536l-.552 2.36-5.216 3.032c-14.064 8.16-42.929 24.625-42.929 24.48m57.145-33.496c.184-.608.456-3.6.592-6.64.32-6.937-.536-11.152-3.44-16.936-2.664-5.344-6.536-9.905-11.72-13.84-7.136-5.417-14.616-8.833-28.585-13.032-11.704-3.52-19.92-8.857-22.856-14.84-1.2-2.449-1.336-3.2-1.336-7.697 0-5 1.24-11.384 2.208-11.384.536 0 80.914 46.057 83.666 47.937 2.544 1.728 5.6 5.096 6.944 7.64.856 1.625 1.088 2.825 1.088 5.625 0 6.992-3.32 10.76-15.864 18.048-4.568 2.648-8.92 5.136-9.68 5.528-1.344.696-1.36.688-1.024-.4z"/></svg>