<svg xmlns="http://www.w3.org/2000/svg" width="24" height="24" fill="none" viewBox="0 0 24 24"><path fill="#000" d="M20.686 10.638c-.294 0-.475-.073-.73-.22C15.924 8.01 8.716 7.432 4.05 8.735c-.204.056-.459.147-.73.147C2.571 8.883 2 8.3 2 7.546c0-.77.476-1.206.985-1.353 1.993-.583 4.225-.86 6.654-.86 4.133 0 8.465.86 11.63 2.706.442.255.731.606.731 1.28 0 .77-.623 1.32-1.314 1.32m-1.755 4.315c-.295 0-.493-.13-.697-.238-3.539-2.095-8.816-2.939-13.51-1.665-.272.074-.42.148-.674.148A1.1 1.1 0 0 1 2.951 12.1c0-.606.295-1.008.878-1.172 1.574-.442 3.182-.77 5.538-.77 3.675 0 7.225.912 10.023 2.576.458.272.64.623.64 1.116a1.097 1.097 0 0 1-1.1 1.104zm-1.523 3.715c-.238 0-.385-.074-.606-.204-3.534-2.13-7.645-2.22-11.705-1.388-.22.057-.51.148-.673.148a.882.882 0 0 1-.895-.895c0-.583.345-.86.77-.951 4.638-1.025 9.377-.935 13.42 1.483.346.221.55.42.55.935a.856.856 0 0 1-.861.872" style="stroke-width:.833333"/></svg>