<svg xmlns="http://www.w3.org/2000/svg" viewBox="0 0 24 24"><path d="M12.906 6.96c-.079-.014-.459-.078-.905-.078s-.827.064-.905.078c-.045.008-.063-.036-.029-.062.032-.023.934-.71.934-.71l.933.71c.035.026.018.07-.028.062m-1.558 4.459s-.048.017-.06.06c.189.144.318.475.713.475s.525-.33.713-.477c-.012-.042-.06-.058-.06-.058s-.247.058-.653.058-.653-.058-.653-.058m.653-.557c-.11 0-.134-.04-.209-.04-.07 0-.209.056-.239.109a.12.12 0 0 0 .032.07c.159.024.231.113.416.113s.257-.089.417-.112a.12.12 0 0 0 .03-.071c-.03-.053-.167-.11-.239-.11-.075 0-.099.041-.208.041m8.99 1.703a9 9 0 0 1-.057.64c-1.02.168-1.384-.74-2.428-.694q.093.332.152.677c.861 0 1.208.805 2.166.686q-.075.37-.181.728c-.758.075-1.024-.678-1.9-.657q.01.186.01.378l-.003.21 1.702.65a9 9 0 0 1-.297.71c-.512-.028-.688-.684-1.467-.632a7 7 0 0 1-.088.499c.676-.048.821.575 1.305.625a9 9 0 0 1-.398.658c-.286-.154-.535-.617-1.08-.646a7 7 0 0 0 .147-.525 2.25 2.25 0 0 1-1.497-.609c.15-.855-1.176-1.724-1.176-2.35 0-.68.344-1.055.344-1.97 0-.68-.33-1.418-.828-1.922a1.7 1.7 0 0 0-.308-.247c.457.565.808 1.236.808 2.013 0 .863-.401 1.318-.401 2.115 0 .795 1.165 1.484 1.165 2.305 0 .322-.104.637-.444 1.258.522.522 1.203.807 1.642.807.142 0 .22-.044.27-.156a7 7 0 0 0 .126-.293c.472.018.69.448.952.62q-.216.29-.453.56c-.176-.195-.412-.522-.758-.613a7 7 0 0 1-.195.355c.297.08.5.38.658.578a9 9 0 0 1-.53.507c-.115-.18-.294-.406-.495-.528a6 6 0 0 1-.23.293c.17.116.32.324.419.493q-.319.256-.66.484c-.113-.915-1.36-1.541-1.024-2.603-.11.188-.242.421-.242.703 0 .768.817 1.377.883 2.14a9 9 0 0 1-.52.288c-.03-.84-.895-1.757-.895-2.445 0-.769 1.007-1.541 1.007-2.448 0-.908-1.162-1.537-1.162-2.333s.494-1.255.494-2.276c0-.748-.355-1.505-.904-1.988a1.5 1.5 0 0 0-.308-.214c.518.62.818 1.185.818 2.039 0 .96-.567 1.492-.567 2.433s1.14 1.462 1.14 2.34c0 .876-1.06 1.614-1.06 2.514 0 .82.934 1.637.949 2.608a9 9 0 0 1-.625.244c.12-.981-.934-1.994-.934-2.795 0-.875 1.1-1.628 1.1-2.572s-1.118-1.384-1.118-2.354c0-.969.686-1.505.686-2.576a2.61 2.61 0 0 0-1.014-2.05l-.038-.029c-.057-.042-.103.009-.063.059.426.532.654 1.07.654 1.867 0 .979-.789 1.775-.789 2.724 0 1.12 1.06 1.44 1.06 2.359s-1.136 1.654-1.136 2.629c0 .904 1.074 1.908.89 2.952a9 9 0 0 1-.656.144c.202-1.3-.852-2.233-.852-3.084 0-.92 1.176-1.741 1.176-2.641 0-.848-.844-1.126-.955-1.994-.015-.119-.11-.207-.242-.185-.171.032-.391.144-.736.144s-.565-.112-.736-.144c-.131-.022-.226.066-.241.185-.111.868-.956 1.145-.956 1.994 0 .9 1.176 1.72 1.176 2.64 0 .852-1.053 1.785-.852 3.085a9 9 0 0 1-.656-.144c-.184-1.044.89-2.047.89-2.953 0-.975-1.135-1.71-1.135-2.628s1.059-1.24 1.059-2.359c0-.95-.788-1.744-.788-2.724 0-.797.227-1.335.654-1.868.04-.05-.007-.1-.064-.058l-.038.029A2.6 2.6 0 0 0 9.3 10.276c0 1.07.686 1.607.686 2.577 0 .969-1.119 1.408-1.119 2.353 0 .944 1.1 1.696 1.1 2.572 0 .801-1.052 1.814-.932 2.796a9 9 0 0 1-.625-.245c.014-.972.949-1.79.949-2.608 0-.9-1.06-1.639-1.06-2.515s1.138-1.4 1.138-2.34-.565-1.473-.565-2.433c0-.855.3-1.417.817-2.038a1.5 1.5 0 0 0-.307.214 2.73 2.73 0 0 0-.905 1.987c0 1.022.495 1.48.495 2.276 0 .797-1.162 1.425-1.162 2.333s1.006 1.68 1.006 2.448c0 .689-.866 1.607-.895 2.445a9 9 0 0 1-.52-.287c.065-.763.884-1.372.884-2.14 0-.282-.132-.516-.243-.702.336 1.06-.912 1.687-1.024 2.601a9 9 0 0 1-.66-.484c.098-.168.249-.377.42-.492a6 6 0 0 1-.231-.294c-.201.123-.38.35-.495.528a9 9 0 0 1-.53-.506c.157-.198.361-.498.658-.579a7 7 0 0 1-.196-.354c-.345.091-.582.418-.757.612a9 9 0 0 1-.452-.56c.262-.172.478-.601.951-.62q.06.149.126.293c.05.113.127.156.27.156.44 0 1.12-.285 1.642-.807-.34-.62-.442-.934-.442-1.258 0-.82 1.164-1.509 1.164-2.305s-.402-1.25-.402-2.113c0-.778.351-1.449.809-2.015a1.7 1.7 0 0 0-.31.248c-.496.505-.827 1.242-.827 1.922 0 .916.344 1.292.344 1.972 0 .625-1.326 1.494-1.176 2.348-.463.422-1.015.61-1.498.61a7 7 0 0 0 .147.525c-.544.029-.792.492-1.08.645a9 9 0 0 1-.398-.657c.485-.05.63-.673 1.307-.625a7 7 0 0 1-.089-.5c-.778-.052-.955.605-1.467.633a9 9 0 0 1-.297-.71l1.702-.651-.004-.21q0-.192.01-.379c-.875-.02-1.142.732-1.9.658a9 9 0 0 1-.18-.727c.956.117 1.304-.687 2.165-.687a7 7 0 0 1 .152-.678c-1.044-.045-1.408.863-2.427.694a9 9 0 0 1-.057-.639c1.185.132 1.628-.841 2.707-.722a6 6 0 0 1 .353-.748c-1.352-.238-1.811.893-3.07.72a9.004 9.004 0 0 1 9-8.746 9.003 9.003 0 0 1 9 8.747c-1.259.174-1.717-.957-3.07-.72q.2.36.353.748c1.079-.12 1.523.855 2.708.722M8.13 8.789c-.663-.271-1.466-.209-2.151.232-.107-.638-.453-1.205-.945-1.546-.069-.047-.139-.003-.133.076.104 1.347-.684 2.517-1.652 3.546.998.3 1.848-.985 3.142-.537a6.8 6.8 0 0 1 1.74-1.77M12 7.974c-.836 0-1.537.472-1.72 1.083-.015.047.005.078.059.053q.227-.101.508-.1c.34 0 .64.125.819.343.078.26.084.635-.004.849-.14-.032-.191-.14-.329-.14-.136 0-.243.096-.475.096-.233 0-.26-.11-.413-.11-.18 0-.213.186-.213.395 0 .931.857 2.212 1.767 2.212s1.766-1.281 1.766-2.212c0-.21-.043-.388-.23-.413a.57.57 0 0 1-.395.128c-.232 0-.296-.096-.433-.096-.165 0-.149.349-.345.368-.132-.314-.138-.718-.029-1.077.178-.218.478-.343.819-.343.186 0 .358.033.507.1.054.025.073-.006.06-.053-.184-.61-.884-1.083-1.72-1.083m1.33 1.336c-.2 0-.434.061-.582.226a.23.23 0 0 0 .006.156c.364-.125.684-.13.84.043.082-.075.108-.142.108-.22 0-.121-.123-.205-.371-.205m-2.924.425c.176-.175.546-.168.929-.026.017-.19-.325-.4-.666-.4-.248 0-.371.084-.371.206 0 .078.026.146.108.22m5.76-3.152a2.98 2.98 0 0 0-1.696.651 6.7 6.7 0 0 1 .764-1.52c-.84.09-1.543.397-2.055.922l-.402-1.052.891-.786-1.192-.085L12 3.604l-.476 1.11-1.192.084.89.787-.4 1.052c-.514-.525-1.215-.833-2.055-.922a6.7 6.7 0 0 1 .762 1.52 2.98 2.98 0 0 0-1.696-.652c.396.51.747 1.052 1.006 1.635.03.066.093.088.16.053a6.7 6.7 0 0 1 3-.702c1.08 0 2.097.254 3.001.702.069.035.132.013.16-.052a8 8 0 0 1 1.008-1.635zm1.442 3.978c1.294-.449 2.144.836 3.142.537-.968-1.03-1.756-2.199-1.651-3.547.006-.078-.066-.123-.133-.076-.493.342-.84.909-.945 1.546-.686-.44-1.488-.502-2.151-.232a6.8 6.8 0 0 1 1.738 1.772"/></svg>