<svg xmlns="http://www.w3.org/2000/svg" viewBox="0 0 24 24"><path d="M6.054 21.468a1.17 1.17 0 0 1-.672-1.033c0-.127.201-1.408.448-2.847.246-1.439.448-2.675.448-2.747 0-.135.004-.13-3.056-3.139-.664-.652-1.072-1.093-1.131-1.22-.107-.23-.12-.55-.036-.831.081-.273.396-.614.652-.707.115-.043 1.409-.248 2.874-.456s2.727-.403 2.805-.433c.115-.044.197-.17.455-.705.66-1.37 2.172-4.378 2.267-4.512.055-.077.216-.198.358-.268.48-.24 1.037-.143 1.37.236.09.102.706 1.287 1.4 2.69.68 1.378 1.265 2.523 1.3 2.544.033.02 1.297.216 2.808.434 3.06.442 3.14.462 3.415.841.28.385.317.822.107 1.234-.06.116-.89.962-2.105 2.144-1.103 1.074-2.022 1.993-2.04 2.043s.177 1.32.435 2.823.47 2.81.47 2.906c-.001.249-.205.654-.42.83a1.2 1.2 0 0 1-.783.265c-.269 0-.42-.072-2.771-1.312-.968-.51-1.769-.928-1.78-.928s-.022.04-.022.09c0 .168-.35.41-.686.474-.385.073-1.007-.217-1.007-.47 0-.052-.017-.094-.04-.094s-.98.497-2.128 1.105c-2.028 1.074-2.098 1.106-2.412 1.122-.242.012-.374-.008-.523-.079m2.63-1.837c1.476-.78 2.096-1.083 2.215-1.083h.165l-.03-.224c-.076-.575-.52-5.15-.5-5.168.01-.012.083.021.16.074.688.468 1.775.485 2.55.04.12-.07.223-.12.229-.113s-.109 1.178-.255 2.602a279 279 0 0 0-.267 2.67q.001.08.16.108c.09.015 1.081.51 2.204 1.102 1.2.63 2.097 1.074 2.177 1.074q.136.001.22-.127c.08-.123.065-.24-.398-2.95-.515-3.023-.516-3.027-.297-3.397.044-.075.984-1.014 2.09-2.089s2.022-2.004 2.038-2.067c.043-.172-.059-.313-.267-.37-.102-.029-1.373-.222-2.825-.43-1.451-.208-2.706-.407-2.788-.441-.392-.164-.438-.241-1.732-2.866-.682-1.383-1.275-2.554-1.318-2.602-.1-.112-.34-.112-.437.001-.04.048-.613 1.174-1.27 2.502-.659 1.328-1.25 2.496-1.317 2.596-.24.366-.356.394-3.406.836-2.092.303-2.781.42-2.85.483-.106.095-.121.312-.03.423.034.041.956.947 2.05 2.013 1.385 1.352 2.013 1.999 2.077 2.138.05.11.09.302.091.428s-.2 1.403-.446 2.838c-.247 1.435-.448 2.674-.448 2.754 0 .182.126.328.285.328.067 0 1.043-.488 2.17-1.083m2.847-6.491c-.629-.128-1.317-.632-1.609-1.179-.509-.956-.378-1.999.348-2.775.937-1.002 2.434-1.026 3.405-.055.565.567.808 1.335.656 2.08-.183.894-.712 1.52-1.548 1.829a2.7 2.7 0 0 1-1.252.1m.7 3.12c.117-.118.121-.149.121-.774s-.004-.657-.122-.774c-.15-.151-.308-.156-.46-.014-.11.103-.115.141-.115.796 0 .622.01.698.1.788.135.135.327.126.475-.022z"/></svg>