<svg xmlns="http://www.w3.org/2000/svg" width="192" height="192" viewBox="0 0 192 192"><path d="M87.04 32.048c-7.2 0-13.168 5.968-13.16 13.168v101.58c0 7.2 5.96 13.168 13.16 13.16h18.912c7.2 0 13.16-5.968 13.152-13.168V45.208c0-7.2-5.96-13.16-13.152-13.16zm56.888 57.384c-7.2 0-13.16 5.976-13.152 13.168v43.712c0 7.184 5.96 13.144 13.152 13.144h18.904c7.2.016 13.168-5.952 13.168-13.144v-43.72c0-7.2-5.96-13.168-13.16-13.16zM29.158 65.12c-7.2 0-13.16 5.96-13.16 13.152v68.52c0 7.2 5.96 13.168 13.16 13.16h18.92c7.2 0 13.16-5.968 13.152-13.168V78.272c0-7.192-5.96-13.152-13.152-13.152z"/></svg>