<svg xmlns="http://www.w3.org/2000/svg" xml:space="preserve" width="24" height="24" viewBox="0 0 24 24"><path d="M10.88 4.006c-.9 0-1.646.746-1.645 1.646v12.697c0 .9.745 1.646 1.645 1.645h2.364c.9 0 1.645-.746 1.644-1.646V5.651c0-.9-.745-1.645-1.644-1.645zm7.111 7.173c-.9 0-1.645.747-1.644 1.646v5.464c0 .898.745 1.643 1.644 1.643h2.363c.9.002 1.646-.744 1.646-1.643v-5.465c0-.9-.745-1.646-1.645-1.645zM3.645 8.14C2.745 8.14 2 8.885 2 9.784v8.565c0 .9.745 1.646 1.645 1.645H6.01c.9 0 1.645-.746 1.644-1.646V9.784c0-.899-.745-1.644-1.644-1.644H3.646z" color="#000" style="-inkscape-stroke:none"/></svg>