<svg xmlns="http://www.w3.org/2000/svg" width="192" height="192" font-family="Arial" font-size="15" style="stroke:none;stroke-linecap:butt;stroke-linejoin:miter;stroke-width:1;stroke-dasharray:none;fill:#000;fill-opacity:1;fill-rule:evenodd" viewBox="0 0 192 192"><path d="m150.592 72.524-16.864 10.497.022 30.503.004 4.235-3.667 2.121-30.388 17.575-3.666 2.12-3.67-2.115-27.302-15.735-16.245 10.11 47.231 27.223 54.586-31.57-.041-54.964M95.98 69.367 72.925 82.701l.02 26.633 23.075 13.299 23.055-13.334-.02-26.633zm-.027-36.425-54.586 31.57.04 54.652 16.865-10.496-.022-30.192-.004-4.235 3.667-2.12 30.388-17.576 3.666-2.12 3.67 2.115 27.042 15.586 16.245-10.112-46.971-27.072M95.94 16l3.67 2.115 61.972 35.718 3.67 2.115.003 4.236.054 71.529.003 4.235-3.667 2.12-61.919 35.811L96.06 176l-3.67-2.115-61.972-35.718-3.67-2.115-.003-4.236-.054-71.529-.003-4.235 3.667-2.12L92.274 18.12z"/><path d="M96 85.157c2.943 0 5.365 2.422 5.365 5.365a5.349 5.349 0 0 1-1.579 3.786l-1.558 1.054 2.498 11.482-9.452-.035 2.506-11.441-1.566-1.06a5.349 5.349 0 0 1-1.58-3.786c0-2.943 2.423-5.366 5.366-5.366"/></svg>