<svg xmlns="http://www.w3.org/2000/svg" width="24" height="24" fill="none" viewBox="0 0 24 24"><path fill="#1A1918" d="M11.983 2C6.72 2 2.409 6.05 2 11.198l5.369 2.216a2.82 2.82 0 0 1 1.754-.488l2.388-3.455v-.049a3.779 3.779 0 0 1 7.555 0 3.78 3.78 0 0 1-3.778 3.772l-.086-.001-3.405 2.425.003.134a2.836 2.836 0 0 1-5.615.558l-3.84-1.585A10.02 10.02 0 0 0 11.983 22C17.515 22 22 17.522 22 12S17.515 2 11.983 2M8.277 17.173l-1.23-.507c.218.453.596.832 1.096 1.04a2.13 2.13 0 0 0 2.783-1.143c.218-.523.22-1.1.003-1.626a2.126 2.126 0 0 0-2.718-1.176l1.272.525a1.563 1.563 0 0 1 .843 2.045 1.567 1.567 0 0 1-2.049.842m9.528-7.75a2.52 2.52 0 0 0-2.516-2.514 2.52 2.52 0 0 0-2.518 2.514 2.518 2.518 0 0 0 5.034 0m-4.403-.005a1.89 1.89 0 0 1 1.89-1.887 1.89 1.89 0 0 1 1.891 1.887 1.89 1.89 0 0 1-1.89 1.888 1.89 1.89 0 0 1-1.891-1.888"/></svg>