<svg xmlns="http://www.w3.org/2000/svg" data-name="Layer 1" viewBox="0 0 24 24"><path d="M7.035 14.708a1.46 1.46 0 0 0-1.48 1.51 1.11 1.11 0 0 0 .775 1.075 1.12 1.12 0 0 0 1.18-.44c.086-.108.105-.357.266-.307.187.057.18.299.2.479a1 1 0 0 1-.017.275c-.145.79-.454 1.073-1.353 1.247a2.22 2.22 0 0 1-2.53-1.4 4.2 4.2 0 0 1 0-2.634 4.8 4.8 0 0 1 1.617-2.444.829.829 0 1 0-1.012-1.312 6.28 6.28 0 0 0-2.463 5.007 4.8 4.8 0 0 0 .074.967 3.76 3.76 0 0 0 2.178 3.044 4.38 4.38 0 0 0 3.11.122 2.51 2.51 0 0 0 1.818-1.94 2.98 2.98 0 0 0-.116-2.01 2.45 2.45 0 0 0-2.247-1.239m10.615 1.304q-1.888-1.07-3.759-2.171a.988.988 0 0 0-1.548.836c.012.74-.004 4.128.003 4.51a.964.964 0 0 0 1.442.862c.356-.185 2.934-1.693 3.884-2.23a.99.99 0 0 0 .561-.93 1.02 1.02 0 0 0-.583-.877M7.164 10.379a1.68 1.68 0 0 0 1.716-.726c.16-.253.277-.532.415-.799a1.28 1.28 0 0 1 .861-.692 2.8 2.8 0 0 1 1.133-.022 18 18 0 0 0 1.795.347c.748.044 1.162-.236 1.074-.926a1.1 1.1 0 0 0-.32-.602 4.1 4.1 0 0 0-1.927-1.102 3.44 3.44 0 0 0-1.645-.058c-.198.04-.46.088-.451.347.008.274.268.347.493.414.054.017.116.007.172.019a5.6 5.6 0 0 1 .911.195c.077.03.174.054.163.149-.013.11-.121.081-.197.082q-.365.002-.728 0a6.45 6.45 0 0 0-3.115.65 1.97 1.97 0 0 0-1.099 1.31 1.077 1.077 0 0 0 .749 1.414m7.753-4.002a.9.9 0 0 0 .738-.394c.558-.656 1.136-.604 1.88-.164a1.51 1.51 0 0 1 .729 1.082c.156.804.537 1.182 1.174 1.185a1.87 1.87 0 0 0 1.143-.437c.506-.383.501-.823.002-1.224a6.7 6.7 0 0 0-1.408-.793 5.6 5.6 0 0 1-1.409-.988 20 20 0 0 1-1.384-1.541c-.327-.373-.621-.357-.885.062a2.2 2.2 0 0 0-.217.433 16 16 0 0 1-.746 1.86 1 1 0 0 0-.099.435c0 .342.135.482.482.484m7.032 2.071c-.119-.112-.253-.23-.426-.18-.19.057-.194.242-.199.403a1.24 1.24 0 0 1-.548.994 3.65 3.65 0 0 1-2.693.63 2.8 2.8 0 0 1-1.153-.443.35.35 0 0 0-.474.047c-.133.14-.036.282.029.415a1.4 1.4 0 0 0 .13.204 2.47 2.47 0 0 0 2.138.922 4.93 4.93 0 0 0 2.708-.926 1.7 1.7 0 0 0 .707-1.036 1 1 0 0 0-.22-1.03m-10.617 3.925a2 2 0 0 0-.37.08 2.18 2.18 0 0 1-2.202-.127.2.2 0 0 0-.064-.025.8.8 0 0 0-.838.285.655.655 0 0 0-.136.765c.157.334.44.22.662.23.804-.038 1.049.128 1.278.847.123.383.369.58.66.526.33-.06.51-.337.494-.76-.02-.497.07-.607.558-.682a2 2 0 0 0 .203-.04.52.52 0 0 0 .414-.62.597.597 0 0 0-.659-.479m1.757-2.633c-.084.22.068.367.197.516a1.032 1.032 0 0 1-.005 1.565c-.28.329-.298.608-.056.86.243.25.523.243.858-.03a.6.6 0 0 1 .398-.183c.262.007.401.203.563.364.307.308.571.33.839.068a.604.604 0 0 0-.05-.863 3.6 3.6 0 0 0-.503-.474 1.71 1.71 0 0 1-.76-1.502.82.82 0 0 0-.936-.751.67.67 0 0 0-.545.43"/></svg>