<svg xmlns="http://www.w3.org/2000/svg" viewBox="0 0 24 24"><path d="M19.467 3.167c-.353 0-.637.261-.637.585 0 .324.284.585.637.585.346 0 .636-.261.636-.585 0-.324-.29-.585-.636-.585M2.963 4.517c-.533 0-.964.395-.964.884 0 .49.43.885.964.885.523 0 .963-.395.963-.885s-.44-.884-.963-.884m12.178 1.047a7.703 7.703 0 0 1 1.503 7.57c-1.387 4.04-5.81 6.204-9.882 4.834a7.782 7.782 0 0 1-2.875-1.735 8.121 8.121 0 0 0 4.726 4.166c4.277 1.443 8.924-.832 10.377-5.077 1.31-3.81-.397-7.909-3.848-9.758zm6.149.541c-.4 0-.724.297-.724.665 0 .355.324.652.724.652.387 0 .71-.296.71-.652 0-.368-.323-.665-.71-.665m-15.01.816c-.29 0-.524.214-.524.48 0 .258.234.472.524.472.28 0 .513-.214.513-.472 0-.266-.233-.48-.513-.48m-.122 3.921c-.281 0-.514.215-.514.472-.001.267.233.48.514.48.29 0 .523-.214.523-.48 0-.258-.234-.472-.523-.472"/></svg>