<svg xmlns="http://www.w3.org/2000/svg" viewBox="0 0 24 24"><path d="M18.271 2c-.296 0-.535.219-.535.49 0 .272.239.49.535.49.29 0 .535-.218.535-.49 0-.271-.245-.49-.535-.49M4.411 3.133c-.448 0-.809.332-.809.743s.361.742.809.742c.44 0 .809-.33.809-.742s-.37-.743-.809-.743m10.227.88a6.47 6.47 0 0 1 1.263 6.357c-1.165 3.393-4.88 5.21-8.3 4.06a6.5 6.5 0 0 1-2.414-1.458 6.82 6.82 0 0 0 3.97 3.498c3.59 1.212 7.493-.698 8.714-4.262 1.1-3.2-.334-6.642-3.233-8.196zm5.163.454c-.336 0-.607.248-.607.557 0 .3.271.548.607.548.326 0 .597-.249.597-.548 0-.308-.272-.557-.597-.557M7.195 5.15c-.243 0-.44.18-.44.405 0 .216.197.395.44.395.236 0 .432-.179.432-.395 0-.224-.197-.405-.432-.405m-.1 3.293c-.237 0-.434.181-.434.397 0 .224.197.403.433.403.243 0 .44-.18.44-.403 0-.216-.197-.397-.44-.397m8.365 10.565a.93.93 0 0 0-.167.555q-.001.735.904.926l.528.112q.298.063.418.16c.202.152.267.72-.6.72-.79 0-.956-.354-1.15-.274-.18.072-.229.366-.01.505.4.258.93.289 1.16.289 1 0 1.344-.571 1.336-1.02 0-.41-.227-.74-.943-.895l-.523-.11c-.161-.032-.524-.111-.51-.438 0-.56.89-.642 1.46-.318.366.209.506-.269.267-.424-.337-.277-1.626-.526-2.17.212m-3.352-.485q-.308 0-.308.313v1.726q0 .713.366 1.078.372.36 1.069.36.702 0 1.062-.36.36-.365.36-1.078v-1.726q0-.312-.302-.313-.309 0-.31.313v1.72q0 .915-.811.915-.4 0-.61-.224-.207-.232-.206-.69v-1.72q0-.314-.31-.314m-2.543.024q-.309 0-.309.314v2.773q0 .319.313.319h1.698q.27-.001.27-.265 0-.26-.27-.26H9.872V18.86q0-.313-.308-.313m-3.13.015q-.313 0-.313.312v2.8q0 .317.308.317.307 0 .307-.317v-.99h.856q.559 0 .861-.28.303-.283.304-.784c.001-.501-.102-.593-.304-.779s-.49-.279-.86-.279zm.302.486h.76q.664 0 .664.572 0 .577-.665.577h-.76z"/></svg>