<svg xmlns="http://www.w3.org/2000/svg" width="192" height="192" viewBox="0 0 192 192"><path d="M155.74 25.34c-2.824 0-5.096 2.088-5.096 4.68 0 2.592 2.272 4.68 5.096 4.68 2.768 0 5.088-2.088 5.088-4.68 0-2.592-2.32-4.68-5.088-4.68M23.71 36.139c-4.264 0-7.712 3.16-7.712 7.072 0 3.92 3.44 7.08 7.712 7.08 4.184 0 7.704-3.16 7.704-7.08s-3.52-7.072-7.704-7.072m97.419 8.376a61.597 61.597 0 0 1 12.023 60.557c-11.095 32.318-46.478 49.63-79.052 38.67a62.397 62.397 0 0 1-22.999-13.88 64.957 64.957 0 0 0 37.806 33.327c34.214 11.543 71.388-6.656 83.012-40.614 10.479-30.478-3.176-63.27-30.782-78.06zm49.19 4.327c-3.2 0-5.792 2.376-5.792 5.32 0 2.84 2.592 5.216 5.792 5.216 3.096 0 5.68-2.368 5.68-5.216 0-2.944-2.584-5.32-5.68-5.32M50.249 55.37c-2.32 0-4.192 1.712-4.192 3.84 0 2.064 1.872 3.776 4.192 3.776 2.24 0 4.104-1.712 4.104-3.776 0-2.128-1.864-3.84-4.104-3.84m-.976 31.366c-2.248 0-4.112 1.72-4.112 3.776-.008 2.136 1.864 3.84 4.112 3.84 2.32 0 4.184-1.712 4.184-3.84 0-2.064-1.872-3.776-4.184-3.776"/></svg>