<svg xmlns="http://www.w3.org/2000/svg" data-name="Layer 1" viewBox="0 0 24 24"><path d="M7.035 14.708a1.462 1.462 0 0 0-1.48 1.51 1.11 1.11 0 0 0 .775 1.075 1.119 1.119 0 0 0 1.18-.44c.086-.108.105-.357.266-.307.187.057.18.299.2.479a.951.951 0 0 1-.017.275c-.145.79-.454 1.073-1.353 1.247a2.221 2.221 0 0 1-2.53-1.4 4.208 4.208 0 0 1 0-2.634 4.793 4.793 0 0 1 1.617-2.444.829.829 0 1 0-1.012-1.312 6.275 6.275 0 0 0-2.463 5.007 4.787 4.787 0 0 0 .074.967 3.764 3.764 0 0 0 2.178 3.044 4.382 4.382 0 0 0 3.11.122 2.508 2.508 0 0 0 1.818-1.94 2.975 2.975 0 0 0-.116-2.01 2.446 2.446 0 0 0-2.247-1.239m10.615 1.304q-1.888-1.07-3.759-2.171a.988.988 0 0 0-1.548.836c.012.74-.004 4.128.003 4.51a.964.964 0 0 0 1.442.862c.356-.185 2.934-1.693 3.884-2.23a.992.992 0 0 0 .561-.93 1.018 1.018 0 0 0-.583-.877M7.164 10.379a1.682 1.682 0 0 0 1.716-.726c.16-.253.277-.532.415-.799a1.276 1.276 0 0 1 .861-.692 2.797 2.797 0 0 1 1.133-.022 17.558 17.558 0 0 0 1.795.347c.748.044 1.162-.236 1.074-.926a1.085 1.085 0 0 0-.32-.602 4.106 4.106 0 0 0-1.927-1.102 3.437 3.437 0 0 0-1.645-.058c-.198.04-.46.088-.451.347.008.274.268.347.493.414.054.017.116.007.172.019a5.624 5.624 0 0 1 .911.195c.077.03.174.054.163.149-.013.11-.121.081-.197.082-.243.002-.486 0-.728 0a6.452 6.452 0 0 0-3.115.65 1.968 1.968 0 0 0-1.099 1.31 1.077 1.077 0 0 0 .749 1.414m7.753-4.002a.907.907 0 0 0 .738-.394c.558-.656 1.136-.604 1.88-.164a1.514 1.514 0 0 1 .729 1.082c.156.804.537 1.182 1.174 1.185a1.87 1.87 0 0 0 1.143-.437c.506-.383.501-.823.002-1.224a6.734 6.734 0 0 0-1.408-.793 5.616 5.616 0 0 1-1.409-.988 19.634 19.634 0 0 1-1.384-1.541c-.327-.373-.621-.357-.885.062a2.217 2.217 0 0 0-.217.433 15.89 15.89 0 0 1-.746 1.86.965.965 0 0 0-.099.435c0 .342.135.482.482.484m7.032 2.071c-.119-.112-.253-.23-.426-.18-.19.057-.194.242-.199.403a1.235 1.235 0 0 1-.548.994 3.654 3.654 0 0 1-2.693.63 2.774 2.774 0 0 1-1.153-.443.349.349 0 0 0-.474.047c-.133.14-.036.282.029.415a1.348 1.348 0 0 0 .13.204 2.465 2.465 0 0 0 2.138.922 4.927 4.927 0 0 0 2.708-.926 1.704 1.704 0 0 0 .707-1.036 1 1 0 0 0-.22-1.03m-10.617 3.925a2.002 2.002 0 0 0-.37.08 2.178 2.178 0 0 1-2.202-.127.174.174 0 0 0-.064-.025.804.804 0 0 0-.838.285.655.655 0 0 0-.136.765c.157.334.44.22.662.23.804-.038 1.049.128 1.278.847.123.383.369.58.66.526.33-.06.51-.337.494-.76-.02-.497.07-.607.558-.682a1.48 1.48 0 0 0 .203-.04.52.52 0 0 0 .414-.62.597.597 0 0 0-.659-.479m1.757-2.633c-.084.22.068.367.197.516a1.032 1.032 0 0 1-.005 1.565c-.28.329-.298.608-.056.86.243.25.523.243.858-.03a.6.6 0 0 1 .398-.183c.262.007.401.203.563.364.307.308.571.33.839.068a.604.604 0 0 0-.05-.863 3.609 3.609 0 0 0-.503-.474 1.711 1.711 0 0 1-.76-1.502.818.818 0 0 0-.936-.751.671.671 0 0 0-.545.43"/></svg>