<svg xmlns="http://www.w3.org/2000/svg" viewBox="0 0 24 24"><path d="m12.722 21.424.015-.576.484-.04a5.838 5.838 0 0 0 3.543-1.588 5.34 5.34 0 0 0 1.209-1.65c.928-1.873.782-4.065-.387-5.834-.247-.373-.898-1.06-1.28-1.352-.894-.68-1.975-1.1-3.027-1.175l-.463-.033V8.013l.516.034c1.941.129 3.835 1.18 5.043 2.801.576.773.942 1.557 1.195 2.564.13.516.142.651.142 1.595 0 .94-.012 1.079-.14 1.589-.344 1.361-.952 2.437-1.914 3.387a6.873 6.873 0 0 1-4.434 1.987l-.517.03zm.042-2.373v-.608l.25-.001c.869-.003 2.03-.642 2.556-1.407.372-.54.55-1.012.628-1.66.129-1.082-.28-2.153-1.115-2.927-.55-.509-1.208-.796-2.07-.905l-.253-.032.015-.565.015-.565.317.017c1.634.088 3.186 1.18 3.894 2.743.48 1.06.506 2.446.066 3.57-.343.875-1.14 1.807-1.951 2.28-.465.271-1.224.538-1.67.587-.157.018-.375.043-.484.057l-.198.025zm0-2.074v-.578l.277-.064c.468-.108.772-.39.894-.832.166-.603-.38-1.337-1-1.34l-.172-.002v-1.177l.341.027c.69.056 1.452.576 1.768 1.208.725 1.451-.185 3.093-1.83 3.3l-.278.035zM10.2 15.928c-2.56-.39-4.776-2.27-5.574-4.727A7.216 7.216 0 0 1 4.6 6.918a7.085 7.085 0 0 1 2.37-3.405c1.181-.915 2.304-1.336 3.956-1.482L11.283 2v1.16l-.224.027c-.124.015-.376.042-.56.06-1.052.099-2.34.712-3.234 1.54-1.814 1.68-2.331 4.497-1.24 6.757.873 1.809 2.612 3.027 4.647 3.256l.559.063v1.148l-.278-.005a7.379 7.379 0 0 1-.753-.078zm.112-2.382a4.428 4.428 0 0 1-2.187-1.148 4.582 4.582 0 0 1-1.316-2.133c-.124-.41-.14-.555-.141-1.232 0-.614.02-.845.11-1.167.53-1.935 2.13-3.284 4.109-3.463l.396-.036v1.167l-.367.037a3.8 3.8 0 0 0-1.58.575c-.644.43-1.093 1.024-1.362 1.804-.2.582-.212 1.441-.029 2.035.285.923.935 1.704 1.757 2.109.434.213 1.01.373 1.357.375h.171v1.163l-.277-.004a4.022 4.022 0 0 1-.641-.082zm.496-2.31a2.27 2.27 0 0 1-1.573-1.24c-.193-.392-.198-.418-.198-.988 0-.56.008-.6.181-.954.344-.697 1.05-1.216 1.743-1.279l.322-.03V7.91l-.22.03c-.482.065-.89.547-.89 1.052 0 .57.357 1.006.899 1.097l.185.03v.58c0 .66.017.64-.45.537z"/></svg>