<svg xmlns="http://www.w3.org/2000/svg" width="192" height="192" viewBox="0 0 192 192"><path d="m101.78 171.39.12-4.608 3.872-.32a46.72 46.72 0 0 0 28.344-12.704 42.4 42.4 0 0 0 9.672-13.2c7.424-14.984 6.256-32.52-3.096-46.672-1.976-2.984-7.184-8.48-10.24-10.816-7.152-5.44-15.8-8.8-24.216-9.4l-3.704-.264v-9.304l4.128.272c15.528 1.032 30.68 9.44 40.344 22.408 4.608 6.184 7.536 12.456 9.56 20.512 1.04 4.128 1.136 5.208 1.136 12.76 0 7.52-.096 8.632-1.12 12.712-2.752 10.888-7.616 19.496-15.312 27.096a54.96 54.96 0 0 1-35.472 15.896l-4.136.24zm.336-18.984v-4.864l2-.008c6.952-.024 16.24-5.136 20.448-11.256 2.976-4.32 4.4-8.096 5.024-13.28 1.032-8.656-2.24-17.224-8.92-23.416-4.4-4.072-9.664-6.368-16.56-7.24l-2.024-.256.24-9.04 2.536.136c13.072.704 25.488 9.44 31.152 21.944 3.84 8.48 4.048 19.568.528 28.56-2.744 7-9.12 14.456-15.608 18.24-3.72 2.168-9.792 4.304-13.36 4.696-1.256.144-3 .344-3.872.456l-1.584.2zm0-16.592v-4.624l2.216-.512c3.744-.864 6.176-3.12 7.152-6.656 1.328-4.824-3.04-10.696-8-10.72l-1.376-.016v-9.416l2.728.216c5.52.448 11.616 4.608 14.144 9.664 5.8 11.608-1.48 24.744-14.64 26.4l-2.224.28zm-20.512-8.392c-20.48-3.12-38.208-18.16-44.592-37.816a57.6 57.6 0 0 1-.208-34.264 56.8 56.8 0 0 1 18.96-27.24c9.448-7.32 18.432-10.688 31.648-11.856l2.856-.248v9.28l-1.792.216c-.992.12-3.008.336-4.48.48-8.416.792-18.72 5.696-25.872 12.32-14.512 13.44-18.648 35.976-9.92 54.056 6.984 14.472 20.896 24.216 37.176 26.048l4.472.504v9.184l-2.224-.04a56 56 0 0 1-6.024-.624m.896-19.056a35.44 35.44 0 0 1-17.496-9.184 36.8 36.8 0 0 1-10.528-17.064c-.992-3.28-1.12-4.44-1.128-9.856 0-4.912.16-6.76.88-9.336 4.24-15.48 17.04-26.272 32.872-27.704l3.168-.288v9.336l-2.936.296a30.4 30.4 0 0 0-12.64 4.6c-5.152 3.44-8.744 8.192-10.896 14.432-1.6 4.656-1.696 11.528-.232 16.28 2.28 7.384 7.48 13.632 14.056 16.872 3.472 1.704 8.08 2.984 10.856 3h1.368v9.304l-2.216-.032a32 32 0 0 1-5.128-.656m3.968-18.48a18.16 18.16 0 0 1-12.584-9.92C72.34 76.83 72.3 76.622 72.3 72.062c0-4.48.064-4.8 1.448-7.632 2.752-5.576 8.4-9.728 13.944-10.232l2.576-.24v9.32l-1.76.24c-3.856.52-7.12 4.376-7.12 8.416 0 4.56 2.856 8.048 7.192 8.776l1.48.24v4.64c0 5.28.136 5.12-3.6 4.296z"/></svg>