<svg xmlns="http://www.w3.org/2000/svg" viewBox="0 0 24 24"><path d="M12 3.319c-4.78 0-8.667 3.885-8.667 8.666 0 4.78 3.887 8.667 8.667 8.667 4.78 0 8.667-3.887 8.667-8.667 0-4.78-3.886-8.666-8.667-8.666zm0 1a7.66 7.66 0 0 1 7.667 7.666A7.66 7.66 0 0 1 12 19.652a7.66 7.66 0 0 1-7.667-7.667A7.66 7.66 0 0 1 12 4.318z" opacity=".5"/><path d="M12.674 8.972c.141.177.24.488.197.797a548.95 548.95 0 0 0-.39 3.098l1.184 1.314c.182.202.321.44.408.698l.655 1.945a.622.622 0 1 1-1.181.394l-.595-1.783a1.37 1.37 0 0 0-.342-.546l-1.397-1.395a1.494 1.494 0 0 1-.433-1.186l.17-1.957-.426.34a.498.498 0 0 0-.182.32l-.194 1.351a.498.498 0 0 1-.985-.14l.193-1.353c.054-.376.249-.717.545-.955l1.373-1.098a.996.996 0 0 1 1.4.156zm-1.99 4.614.001.001 1.128 1.103-.002.024a1.618 1.618 0 0 1-.543 1.04l-1.7 1.487a.622.622 0 0 1-.82-.937l1.7-1.487a.373.373 0 0 0 .125-.24zm2.465-2.742 1.46.754a.498.498 0 1 1-.446.89l-1.155-.606zm-.755-4.526a.996.996 0 1 1 0 1.992.996.996 0 0 1 0-1.992M12 3.75c0-.422.343-.768.764-.732a9 9 0 1 1-8.468 4.314c.218-.361.7-.436 1.041-.187s.414.725.202 1.09a7.47 7.47 0 1 0 7.224-3.68C12.343 4.51 12 4.172 12 3.75"/></svg>