<svg xmlns="http://www.w3.org/2000/svg" viewBox="0 0 24 24"><path d="M10.875 4.617c-.86 0-1.516.814-1.516 1.767s.657 1.767 1.516 1.767c.86 0 1.516-.814 1.516-1.767s-.657-1.767-1.516-1.767m0 .465c.559 0 1.051.56 1.051 1.302s-.492 1.302-1.051 1.302-1.051-.56-1.051-1.302c0-.743.492-1.302 1.051-1.302m5.585 6.16c-.416-.01-.806.34-.67.89.076.31.29.608.878 1.221l.52.542.506-.519c.28-.285.55-.572.601-.638.56-.714.382-1.493-.342-1.493-.312 0-.53.142-.686.447l-.07.137-.07-.137c-.16-.304-.418-.442-.667-.45zM4.593 3.17a.046.046 0 0 0-.047.047v9.024h-1.5a.046.046 0 0 0-.046.047v.349c0 .025.02.046.046.046h1.5v3.012c0 .025.021.046.047.046h.349c.025 0 .046-.02.046-.046v-3.012h1.5c.026 0 .047-.02.047-.046v-.349a.047.047 0 0 0-.047-.047h-1.5V3.217a.047.047 0 0 0-.046-.047zm8.003 5.63a.046.046 0 0 0-.046.046v.349c0 .026.02.046.046.046h6.316c.025 0 .046-.02.046-.046v-.349a.046.046 0 0 0-.046-.046zM8.758 9.956a.22.22 0 0 0-.202.137l-1.85 4.545a.22.22 0 1 0 .41.167l1.85-4.545a.22.22 0 0 0-.208-.304m1.926 0a.019.019 0 0 0-.02.018v4.976c0 .01.01.02.02.02h.404c.01 0 .019-.01.019-.02V9.974a.019.019 0 0 0-.019-.018zm2.743.055c-.073-.003-.139.064-.132.12.013.095.164.225.51.62.2.228.547.833.6 1.342.024.244.024.528 0 .773-.053.509-.4 1.114-.6 1.342-.346.395-.497.525-.51.62-.008.064.08.142.164.115.086-.028.247-.146.37-.25.47-.39.726-.812.908-1.37a2.89 2.89 0 0 0 0-1.687c-.182-.558-.439-.98-.907-1.37-.043-.036-.304-.252-.403-.255zm6.138 0c-.073-.003-.14.064-.132.12.012.095.163.225.51.62.199.228.546.833.599 1.342.025.244.025.528 0 .773-.053.509-.4 1.114-.6 1.342-.345.395-.497.525-.509.62-.008.064.08.142.164.115.086-.028.247-.146.37-.25.469-.39.726-.812.907-1.37a2.89 2.89 0 0 0 0-1.687c-.18-.558-.438-.98-.907-1.37-.042-.036-.304-.252-.402-.255zm-4.379 5.405a.047.047 0 0 0-.046.046v.349c0 .026.02.046.046.046h3.628c.026 0 .046-.02.046-.046v-.349a.047.047 0 0 0-.046-.046zm-6.425.428a.22.22 0 0 0-.205.137l-1.85 4.544a.22.22 0 1 0 .41.167l1.85-4.544a.22.22 0 0 0-.205-.304zm4.238 0a.221.221 0 0 0-.205.304l1.85 4.544a.22.22 0 1 0 .41-.167l-1.85-4.544a.22.22 0 0 0-.206-.137z"/></svg>