<svg xmlns="http://www.w3.org/2000/svg" viewBox="0 0 24 24"><path d="M3.288 5.991C2.574 5.991 2 6.566 2 7.28v9.442c0 .713.574 1.288 1.288 1.288h17.425c.713 0 1.287-.575 1.287-1.288V7.28c0-.713-.574-1.288-1.287-1.288zm.93 1.488h10.128a.6.6 0 0 1 .601.601v.773a.6.6 0 0 1-.6.6H4.216a.6.6 0 0 1-.6-.6V8.08a.6.6 0 0 1 .6-.6m12.846 2.547h2.747a.6.6 0 0 1 .601.6v2.747a.6.6 0 0 1-.6.601h-2.748a.6.6 0 0 1-.6-.6v-2.747a.6.6 0 0 1 .6-.601M3.788 14.535h9.528c.095 0 .172.077.172.172v.343a.17.17 0 0 1-.172.172H3.788a.17.17 0 0 1-.171-.172v-.343c0-.095.076-.172.171-.172m-.085 1.528h4.764c.047 0 .085.038.085.086v.515a.086.086 0 0 1-.085.086H3.703a.086.086 0 0 1-.086-.086v-.515c0-.048.038-.086.086-.086"/><path d="M3.702 16.063h4.764c.048 0 .086.038.086.086v.515a.086.086 0 0 1-.086.086H3.702a.086.086 0 0 1-.085-.086v-.515c0-.048.038-.086.085-.086" opacity=".8"/><path d="M3.788 14.535h9.528c.095 0 .172.077.172.172v.343a.17.17 0 0 1-.172.172H3.788a.17.17 0 0 1-.171-.172v-.343c0-.095.076-.172.171-.172" opacity=".6"/><path d="M4.217 7.48h10.13a.6.6 0 0 1 .6.6v.773a.6.6 0 0 1-.6.6H4.216a.6.6 0 0 1-.6-.6V8.08a.6.6 0 0 1 .6-.6" opacity=".4"/><path d="M17.064 10.026h2.747a.6.6 0 0 1 .6.6v2.748a.6.6 0 0 1-.6.6h-2.747a.6.6 0 0 1-.6-.6v-2.747a.6.6 0 0 1 .6-.601" opacity=".2"/></svg>