<svg xmlns="http://www.w3.org/2000/svg" data-name="Layer 1" viewBox="0 0 24 24"><path d="M10.176 4.353A1.353 1.353 0 0 0 8.823 3H4.431a1.353 1.353 0 0 0-1.353 1.353v13.084a3.55 3.55 0 1 0 7.098-.045Zm-3.55 14.784a1.7 1.7 0 1 1 1.701-1.7 1.7 1.7 0 0 1-1.7 1.7Zm4.517-2.402 5.109-8.849a1.353 1.353 0 0 0-.496-1.848l-3.804-2.196a1.35 1.35 0 0 0-.909-.161 2.3 2.3 0 0 1 .1.672Zm9.089-4.606-2.196-3.804a1.34 1.34 0 0 0-.697-.59 2.3 2.3 0 0 1-.25.634l-6.181 10.705 8.829-5.097a1.353 1.353 0 0 0 .495-1.848m.536 2.246a2.3 2.3 0 0 1-.548.439L9.535 20.983h10.19a1.353 1.353 0 0 0 1.353-1.353v-4.393a1.35 1.35 0 0 0-.31-.862"/></svg>