<svg xmlns="http://www.w3.org/2000/svg" viewBox="0 0 24 24"><path d="m9.702 8.97-.006-.002.009.003.007.003.006.002.025.01.008.002h.001l-.004-.001a.1.1 0 0 1-.028-.018l-.006-.005-.003-.003.007.007.01.009.017.01.016.008-.003-.001.008.004.02.008.005.001h-.003L9.776 9l-.006-.003.01.006.008.003.003.002.012.005.016.009.02.01.017.007.008.004h.002-.003l.014.004-.005-.002.005.002.01.004c.192.055.27-.216.079-.272.006.002-.01-.003.004.002l.004.001-.007-.003h-.003l.008.003-.005-.002h.002l-.003-.001h-.002.002s-.001 0 0 0l.003.002-.002-.002-.004-.002-.014-.007-.022-.01-.018-.01.001.001-.005-.002h.002l.004.003-.009-.005-.02-.008h.001l.003.001c-.006-.002-.004-.001-.003 0-.002-.002.002 0-.005-.003l.002.001-.005-.002.01.005.013.009.009.007.005.004-.004-.003-.007-.007a.2.2 0 0 0-.038-.023l-.006-.003-.023-.008-.021-.008-.004-.001-.005-.002.005.002c.001 0 .016.007 0 0-.185-.076-.292.185-.107.261zm3.197-5.783a1.6 1.6 0 0 0-.491.077c-.281.092-.528.209-.528.25 0 .022-.025.04-.056.04s-.057.02-.057.047-.034.073-.075.103c-.042.03-.076.076-.076.102 0 .027-.025.049-.056.049s-.057.024-.057.053c0 .03-.012.06-.028.066-.093.042-.273.584-.273.825 0 .098-.012.114-.066.093-.222-.088-.503-.158-.52-.13-.011.018-.053.013-.092-.012-.056-.034-.125-.033-.31.006-.13.028-.266.054-.302.058a.2.2 0 0 0-.091.032c-.014.015-.054.026-.088.026s-.13.05-.21.112a.7.7 0 0 1-.187.114c-.082.005-.424.37-.514.547a8 8 0 0 1-.17.32c-.087.152-.123.28-.153.546-.021.186-.01.472.004.585.013.105.047.07-.128.17a.7.7 0 0 1-.187.093c-.021 0-.039.016-.039.034s-.042.044-.093.057a.3.3 0 0 0-.155.117c-.034.052-.08.094-.1.094s-.058.026-.082.058c-.023.032-.092.062-.154.067-.072.005-.126.038-.153.091a.6.6 0 0 1-.142.162c-.055.044-.1.104-.1.133s-.042.063-.094.076c-.051.013-.153.094-.227.18-.25.293-.285.326-.34.326-.03 0-.056.024-.056.054s-.05.085-.113.121c-.062.037-.113.076-.113.087 0 .036-.291.34-.325.34-.018.001-.067.052-.108.114s-.088.113-.104.113c-.015 0-.028.022-.028.048s-.055.136-.122.242c-.068.106-.14.222-.162.258a.17.17 0 0 1-.119.07c-.1.005-.217.15-.267.331-.003.01-.013.028-.017.04.004.023.004.046-.006.056q-.01.009-.015-.005a1.5 1.5 0 0 1-.124.227.8.8 0 0 0-.12.242c.007.025.006.052-.005.064-.005.004-.008 0-.012-.004a.26.26 0 0 1-.104.14l.008.002c.012.012-.01.021-.05.02l-.025.013c-.036.014-.066.054-.066.09 0 .006-.006.017-.008.026.004.021.003.042-.007.052-.004.004-.008 0-.01-.004a.4.4 0 0 1-.051.072c-.088.093-.216.41-.267.658-.053.258-.072.302-.13.302-.035 0-.054.04-.054.11 0 .06-.03.14-.065.175-.065.064-.091.135-.092.243 0 .032-.048.085-.108.12-.103.059-.107.07-.101.338.004.216-.013.317-.079.455a.9.9 0 0 0-.083.29c0 .06-.017.121-.038.134-.05.032-.048.235.004.252.042.014.007.108-.151.406-.066.124-.083.43-.03.517.012.02-.001.103-.03.184-.028.082-.042.186-.031.233s.008.114-.007.15c-.054.13-.073.445-.04.656.017.106.008.143-.039.16q-.063.024-.024.071c.058.074.09.664.04.756a.5.5 0 0 0 .018.417 1 1 0 0 1 .043.082c.003.002.006 0 .01.01a.1.1 0 0 1 .005.03c.026.078.034.151.01.182-.066.084-.068.236-.003.276.04.025.074.113.09.23.015.119.048.204.088.226.03.016.04.034.04.058.002.02.001.04-.008.05-.002.002-.004-.003-.006-.003-.004.01-.002.014-.007.027-.036.077-.034.107.01.151.044.043.047.078.016.16-.036.096-.028.116.078.202.086.07.123.138.138.25.013.092.004.165-.02.18-.055.034-.012.133.114.265a1 1 0 0 1 .08.096l.005.001a.044.044 0 0 1 .01.052q-.005.028-.054.058c-.048.028.033.038.301.04.219 0 .368-.015.368-.037 0-.02-.056-.074-.125-.119-.122-.08-.213-.257-.227-.44a.2.2 0 0 0-.072-.136.17.17 0 0 1-.066-.122.2.2 0 0 0-.041-.114c-.023-.023-.04-.16-.039-.307s-.015-.277-.036-.29-.034-.1-.03-.193c.006-.108-.009-.18-.04-.2q-.05-.03-.025-.132c.038-.15-.006-.254-.094-.226-.098.031-.097-.092.003-.219.083-.105.098-.178.036-.178-.022 0-.036-.03-.03-.066a.6.6 0 0 0-.04-.21c-.026-.079-.038-.154-.026-.166.01-.01.003-.033-.011-.057a.1.1 0 0 1-.029-.05c-.012-.031-.014-.066-.003-.076.002-.003.006.003.01.005.003-.016.003-.03.01-.049.077-.203.084-.3.026-.35-.045-.036-.052-.102-.034-.314.03-.358.027-.406-.037-.508-.012-.02-.008-.072.001-.133-.013.009-.017.004-.002-.034q.005-.012.011-.02c.018-.081.048-.173.083-.24.018-.035.051-.17.074-.302.052-.304.052-.305.086-.357.015-.025.01-.055-.01-.068-.024-.015-.016-.058.022-.116.055-.084.055-.093 0-.115-.046-.017-.062-.068-.056-.124q-.002-.01-.002-.026c.001-.035.008-.04.016-.03a.2.2 0 0 1 .052-.076c.04-.037.063-.095.053-.134a.24.24 0 0 1 .023-.146c.03-.055.03-.085.001-.102q-.04-.025.019-.09c.032-.036.049-.076.036-.088s0-.088.027-.167a.6.6 0 0 0 .038-.212c-.007-.048.01-.065.059-.056.054.009.068-.013.068-.102 0-.019.006-.042.01-.064-.016.02-.027.027-.027.008a.3.3 0 0 1 .056-.13l.01-.011v-.002a.3.3 0 0 0 .043-.15c-.012-.121.003-.16.06-.16.03 0 .056-.015.056-.035s.02-.083.043-.141a.4.4 0 0 0 .037-.139c-.004-.018.018-.072.05-.121a.4.4 0 0 0 .058-.184q0-.095.062-.096c.108 0 .21-.156.19-.288-.017-.102-.007-.123.071-.142.072-.018.092-.048.092-.137 0-.07.037-.154.094-.216a.6.6 0 0 0 .118-.178.2.2 0 0 1 .052-.094 1.2 1.2 0 0 0 .126-.215c.021-.042.052-.09.083-.135l-.032.03.071-.1a.3.3 0 0 1 .067-.072c.013-.015.027-.036.038-.047a.7.7 0 0 0 .152-.204c.013-.042.118-.176.233-.298a1.8 1.8 0 0 0 .263-.341c.06-.137.115-.182.222-.182.052 0 .1-.054.16-.177.046-.097.118-.195.16-.218s.077-.072.077-.11c0-.098.12-.22.247-.252.12-.03.205-.099.205-.166l.005-.006-.002-.016q.003-.067.023-.023l.001.008c.071-.107.434-.451.487-.452.02 0 .056-.034.088-.075l.014-.017q0-.002.003-.003c.033-.052.084-.094.111-.094.028 0 .108-.057.18-.126a.53.53 0 0 1 .28-.15l.153-.025.087.273c.048.15.098.281.11.291a.4.4 0 0 1 .062.08c.16.255.26.375.419.504.101.082.192.158.203.17.044.05.356.282.366.273a.5.5 0 0 1 .147.047.8.8 0 0 0 .18.057c.025 0 .061.014.081.03.037.033.245.098.498.164q.035 0 .057.007.011.005.006.009c.086.022.17.042.261.062q.035-.007.052.007l-.002.004.178.038c.164.033.308.065.32.072s.099.024.192.036c.23.031.333.053.373.077.035.022.41.048 1.101.079.547.024.679-.031.768-.321.004-.017.021-.055.03-.08.003-.012.004-.022.01-.043.008-.026.021-.044.033-.067.046-.111.1-.237.157-.353a.5.5 0 0 0 .053-.173c0-.035.012-.075.026-.089.05-.05.464-1.287.464-1.389 0-.077.04-.087.102-.026.028.028.091.03.206.006a.1.1 0 0 1 .031-.004c.112-.022.162-.02.193.018a.15.15 0 0 0 .1.052c.034 0 .082.035.126.08.02.005.042.016.052.033.017.027.014.034 0 .03.031.044.057.089.057.122 0 .04.017.074.038.074s.055.042.075.094c.03.08.06.094.202.094q.166 0 .187.054c.012.03.068.06.126.066a.14.14 0 0 1 .06.006q.019.008.005.013c.037.02.058.059.081.142.033.116.07.161.175.207.132.058.37.24.37.284 0 .012.102.125.227.25q.229.23.287.206.062-.025.038.033c-.012.03.008.085.043.12a.23.23 0 0 1 .064.138c0 .043.048.099.114.135.062.033.109.086.103.117s.057.123.14.203.152.174.152.209c0 .034.05.08.11.104a.2.2 0 0 1 .05.025c-.007-.012 0-.01.038.02.063.05.083.08.052.08-.002 0-.01-.01-.012-.012.014.022.03.04.042.068.029.069.068.117.094.121h.003l.001.001.007.002c.081-.028.138.056.08.115-.088.088.05.359.284.555.072.06.118.134.118.19q0 .093.094.135c.1.046.115.091.059.18-.019.029-.013.076.008.128l.002.004.004.014c.027.058.072.12.13.173.044.04.08.1.08.134 0 .035.042.103.094.152.052.048.094.128.094.176q.001.064.034.139a.6.6 0 0 0 .107.167.2.2 0 0 1 .047.103c0 .028.028.067.062.086a.1.1 0 0 1 .031.029c.003.002.005 0 .009.009l.003.02.002.013v.013a.5.5 0 0 1-.002.125c-.014.123-.004.186.033.218.034.028.05.104.045.207v.018c-.003.113.015.17.079.238.074.08.081.108.047.205-.03.084-.027.117.008.13.022.009.057.097.083.199a.1.1 0 0 1 .026.051c.009.036.009.055.005.066.024.098.05.207.064.254.019.06.02.125.002.142-.017.018-.018.129 0 .248q.03.216-.013.298c-.036.072-.026.102.076.218.13.148.139.173.078.234-.03.03-.025.066.017.13a.33.33 0 0 1 .053.165 1 1 0 0 0 .022.213c.017.088.011.148-.015.164s-.032.08-.017.174c.015.083.009.168-.012.194-.053.064-.068.26-.026.328.057.092.046.653-.013.7-.026.02-.045.124-.052.232a.5.5 0 0 1 0 .11.4.4 0 0 0 .02.152c.025.04-.083.549-.123.578a.6.6 0 0 0-.094.188 1 1 0 0 1-.049.098c-.036.066-.031.093.032.161.069.074.071.094.027.218a.5.5 0 0 1-.055.105c.024-.017.027-.015-.009.03q-.058.075-.075.064a.3.3 0 0 0-.094.154c-.014.072-.045.112-.087.112-.05 0-.054.01-.022.044.033.032.026.066-.03.137a.36.36 0 0 0-.073.182c0 .084.013.09.222.09.237 0 .263-.021.29-.232.021-.157.085-.296.147-.32.031-.012.057-.052.057-.09s.023-.076.052-.087c.03-.011.042-.052.034-.104a.3.3 0 0 1-.003-.053q.002-.084.015-.054a.8.8 0 0 1 .071-.168c.085-.153.096-.203.07-.337-.04-.207-.023-.335.051-.392.048-.036.061-.124.064-.418.003-.256.02-.392.056-.435q.052-.062.03-.22a.5.5 0 0 1 .008-.174c-.023.026-.025.023.007-.045.007-.014.009-.014.014-.026l.006-.02c.03-.058.045-.124.032-.145s-.005-.06.018-.088c.03-.036.025-.087-.02-.193-.054-.13-.054-.146 0-.176.033-.019.06-.076.06-.128 0-.055-.016-.085-.039-.07-.024.014-.038-.031-.036-.121a4 4 0 0 0-.021-.366c-.007-.06-.005-.081-.006-.113q-.009-.009-.008-.045c.001-.029.006-.037.012-.034q.01-.018.038-.007c.043.016.06 0 .06-.053 0-.041-.023-.084-.05-.095-.033-.012-.045-.055-.033-.118.016-.082.008-.094-.047-.073-.056.022-.063.01-.042-.072.02-.078.009-.102-.053-.118-.094-.025-.094-.031 0-.163.066-.093.068-.112.02-.161l-.013-.011q-.024-.03-.02-.042a.2.2 0 0 1-.026-.093c0-.162-.107-.603-.162-.666a.3.3 0 0 1-.038-.062l-.003.008c-.013.013-.022-.01-.02-.05 0-.005.001-.004.002-.009-.026-.073-.038-.149-.015-.172.015-.014.022-.085.016-.156q-.012-.131.038-.13.054-.001.007-.029a.8.8 0 0 1-.13-.197.8.8 0 0 0-.127-.19q-.012.005-.04-.039-.017-.021-.018-.038c0-.02-.027-.1-.06-.177a1 1 0 0 1-.047-.148c-.013-.001-.024-.059-.024-.14l-.001-.003c-.02-.248-.038-.314-.113-.397-.062-.067-.064-.084-.017-.113.048-.03.048-.048-.003-.14-.032-.057-.095-.11-.141-.116s-.084-.036-.084-.066-.017-.054-.037-.054-.038-.04-.038-.088c0-.098-.182-.36-.252-.363-.029 0-.043-.057-.04-.153.005-.12-.014-.17-.095-.246a.5.5 0 0 1-.123-.185c-.003.002-.005-.008-.008-.02-.028-.104-.096-.188-.153-.188-.02 0-.065-.044-.1-.098-.06-.091-.06-.101 0-.168.095-.105.018-.27-.156-.333a.4.4 0 0 1-.177-.12c-.024-.04-.063-.073-.085-.073q-.006-.001-.012-.005-.029-.003-.022-.011a.5.5 0 0 1-.114-.192q-.018-.003-.036-.044c-.017-.044-.012-.048.01-.03a.24.24 0 0 1-.01-.109c.017-.07.002-.111-.061-.162a2 2 0 0 1-.144-.134c-.032-.037-.08-.066-.105-.066a.4.4 0 0 1-.152-.09.5.5 0 0 0-.201-.105c-.049-.006-.073-.022-.085-.055l-.004.013c-.013.013-.022-.01-.02-.05.001-.029.006-.036.013-.033-.006-.216-.017-.239-.127-.277a.4.4 0 0 1-.081-.054q-.01.028-.073-.047c-.026-.032-.026-.04-.014-.04-.014-.018-.032-.033-.044-.051-.056-.084-.125-.154-.153-.154a.05.05 0 0 1-.052-.05c0-.018-.029-.046-.065-.073l-.006-.005a.4.4 0 0 0-.163-.076 1 1 0 0 1-.179-.166c-.021-.023-.036-.037-.055-.056-.002.016-.018.01-.042-.028q-.006-.012-.008-.022-.045-.042-.047-.034c0 .013-.034.005-.075-.017-.042-.022-.076-.061-.076-.086 0-.058-.204-.253-.264-.253-.054 0-.277-.121-.295-.16-.007-.016-.036-.029-.066-.029s-.053-.017-.053-.037c0-.021-.019-.038-.041-.038-.042 0-.106-.026-.476-.19-.164-.071-.194-.1-.179-.165.01-.043.027-.196.044-.331.042-.338.026-.625.024-.953-.018-.591-.082-.863-.272-1.17a5 5 0 0 1-.163-.281 1.2 1.2 0 0 0-.17-.225.7.7 0 0 1-.124-.158c0-.036-.27-.213-.546-.36a1.7 1.7 0 0 0-.81-.19zm.056 2.242c.093.001.183.061.243.163q.008.011.013.023.015.032.026.068a.3.3 0 0 1 .016.053l.003.007.004.033c.007.051.008.098-.011.116h-.002a.45.45 0 0 1-.293.209h-.028l.006.005c.009.006-.008.01-.037.009-.02 0-.051-.025-.082-.056l-.021-.023-.023-.025-.072-.102.032.027a.4.4 0 0 1-.05-.216l-.001-.019q0-.063.013-.056a.3.3 0 0 1 .114-.164c.003-.004.001-.004.007-.01.022-.022.045-.03.059-.027a.2.2 0 0 1 .083-.015zm-.34 1.124c.01 0 .02.009.03.014q.01.003.02.01c.03.03.04.074.04.122q.003.013.004.027-.001.056-.042.125a.5.5 0 0 1-.075.103l-.012.013-.03.032-.075.078.033-.042q-.038.036-.077.066.012.008-.023.032a.2.2 0 0 1-.094.037c-.005 0-.003-.004-.005-.005l-.019.007c-.173.05-.27.046-.352-.014-.005-.004-.005-.007-.01-.01-.005.018-.016.014-.035-.036l-.001-.008q-.004-.013-.003-.024l.001-.028.002-.005q.003-.016.012-.027.015-.014.023.002a.17.17 0 0 1 .096-.01c.112.016.306-.092.415-.204a.1.1 0 0 1 .028-.024q.053-.062.055-.113l.002-.01-.001-.004c0-.031.017-.057.04-.075l.003-.006.004-.001.017-.008c.01-.006.02-.014.03-.014zm-1.618.166c.009 0 .022.006.033.009a.26.26 0 0 1 .174.092c.04.033.073.066.073.088q0 .008-.01.004.015.027.029.057a.4.4 0 0 1 .033.11c.013-.012.022-.017.022-.002 0 .02-.016.063-.036.094l-.004.005q-.007.018-.019.04c-.007.015-.02.027-.03.04.014-.007.013-.001-.018.038-.048.06-.078.08-.08.053l-.003.002c-.04.01-.072.034-.072.053 0 .04-.045.04-.097.023h-.002a.3.3 0 0 1-.065-.03l-.014.002c-.021 0-.062-.03-.09-.066-.032-.04-.032-.045-.016-.036a.2.2 0 0 1-.022-.038c-.051-.13-.062-.225-.038-.306q-.03.029-.033.015c0-.032.045-.088.1-.138l.004-.006a.3.3 0 0 1 .093-.068l.026-.013.017-.006c.015-.006.033-.016.045-.016m-1.23 2.137.01.004c.014.002.08.027.157.06l.018.005-.008-.002a2 2 0 0 0-.165-.062l-.003-.001-.006-.003zm5.69 5.865-.02.001c-.102.015-.263.15-.337.292-.066.129-.036.41.045.41.028 0 .052.018.052.04s.02.062.047.09.09.046.141.038c.317-.047.372-.062.421-.121.032-.038.058-.16.063-.292.008-.197-.004-.239-.088-.33-.054-.056-.127-.103-.162-.103a.7.7 0 0 1-.162-.025m-6.561.452-.044.001c-.16.009-.215.028-.272.092.025-.032.024-.036-.026.003-.036.028-.066.058-.066.066 0 .027.027.009.067-.038a.3.3 0 0 0-.067.12c0 .022-.03.09-.065.154-.055.095-.058.127-.019.182a1 1 0 0 1 .087.165c.035.089.122.154.25.19a.1.1 0 0 0-.033.006q-.045.02.022.023c.04.002.062-.007.05-.02q-.008-.005-.021-.007c.079.011.373-.131.45-.22.146-.168.1-.596-.075-.69a.7.7 0 0 0-.238-.027m3.66 1.123a.1.1 0 0 0-.042.007c-.03.012-.02.02.022.023-.048-.001-.075-.005-.152-.003-.398.012-.69.038-.735.065-.018.012-.033.086-.033.166 0 .17.138.36.319.437.12.052.334.04.53-.03.13-.048.307-.234.295-.307.003.003.006.008.01.004.012-.013.014-.045.003-.073-.004-.009-.007-.008-.01-.01a.2.2 0 0 1 .017-.05c.029-.053.026-.092-.011-.142-.032-.044-.102-.055-.23-.057.038 0 .06-.008.047-.02a.04.04 0 0 0-.03-.01"/></svg>