<svg xmlns="http://www.w3.org/2000/svg" viewBox="0 0 24 24"><path d="M9.776 3.538a.652.652 0 0 0-.462.192l-6.321 6.309a3.38 3.38 0 0 0 0 4.785l2.168 2.164a3.395 3.395 0 0 0 4.794 0l6.876-6.863a.651.651 0 0 0 0-.922.654.654 0 0 0-.925 0l-6.875 6.862a2.086 2.086 0 0 1-2.946 0l-2.168-2.163a2.077 2.077 0 0 1 0-2.941l6.32-6.31a.651.651 0 0 0-.461-1.113zm2.114 2.077a.647.647 0 0 0-.46.19l-6.316 6.313a.652.652 0 0 0-.001.921.649.649 0 0 0 .919.002l6.316-6.313a.652.652 0 0 0 .001-.921.647.647 0 0 0-.46-.192zM16.439 6a3.38 3.38 0 0 0-2.399.993l-7.002 6.995a.653.653 0 1 0 .925.924l7.002-6.996a2.086 2.086 0 0 1 2.948 0l2.169 2.167a2.08 2.08 0 0 1 0 2.945l-6.325 6.318a.653.653 0 1 0 .925.924l6.325-6.318a3.386 3.386 0 0 0 0-4.793l-2.17-2.167A3.383 3.383 0 0 0 16.44 6zm1.834 5a.648.648 0 0 0-.46.19l-6.083 6.08a.654.654 0 0 0-.002.923.65.65 0 0 0 .921.001l6.083-6.079a.654.654 0 0 0-.46-1.115z"/></svg>