<svg xmlns="http://www.w3.org/2000/svg" viewBox="0 0 24 24"><path d="M12.405 3.847a8.23 8.23 0 0 0-5.833 2.42l.768.768c1.296-1.296 3.087-2.098 5.065-2.098s3.769.802 5.065 2.098l.767-.768a8.23 8.23 0 0 0-5.832-2.42m0 2.18c-1.674 0-3.192.68-4.293 1.78l.77.77a4.97 4.97 0 0 1 3.523-1.461 4.97 4.97 0 0 1 3.523 1.461l.77-.77a6.06 6.06 0 0 0-4.293-1.78m0 2.18a3.88 3.88 0 0 0-2.754 1.141l.77.77a2.804 2.804 0 0 1 3.966 0h.002l.77-.77a3.9 3.9 0 0 0-2.754-1.14zm1.377 3.215c-1.235.01-2.384.057-3.042.169-.558.095-.872.23-1.42.559-.546.33-2.443 1.94-2.443 1.94-.845.064-1.957.173-2.622.335-1.182.287-1.87.815-1.998.998-.205.285-.272 1.08-.254 1.557.02.564.095 1.375.318 1.64.16.188.299.248.539.248h.355c-.017-.114-.038-.24-.038-.358a2.262 2.262 0 1 1 4.524 0c0 .118-.017.231-.035.345l9.084-.009c-.016-.11-.033-.222-.033-.336a2.26 2.26 0 0 1 2.262-2.262c1.25 0 2.174.94 2.247 2.121.026-.001.047-.003.047 0l.333-.036s.337-.789.39-1.35c.046-.501-.262-2.197-.91-3.256v-.001c-.5-.817-1.026-1.436-1.433-1.782-.249-.211-.398-.333-.852-.38-.665-.067-2.962-.157-5.02-.142zm-.47.64c1.765-.014 3.735.071 4.306.136.389.044.546.14.812.404.374.372 1.045 1.631 1.045 1.631l-11.5.098v.002-.002c.004-.004.998-1.177 1.51-1.571.473-.363.741-.445 1.218-.535.565-.108 1.55-.153 2.609-.162zm-8.897 2.933s-.436.848-.89 1.16c-.501.346-.999.453-.999.453s.035-.71.182-.941c.14-.222.43-.392.84-.522.311-.098.867-.15.867-.15m1.024 1.83a1.663 1.663 0 1 0 0 3.328 1.663 1.663 0 0 0 0-3.327m13.52 0a1.663 1.663 0 1 0 0 3.328 1.663 1.663 0 0 0 0-3.327"/></svg>