<svg xmlns="http://www.w3.org/2000/svg" viewBox="0 0 24 24"><path d="M12.028 22c-.313-.342-1.729-2.153-3.291-4.594-.456-.763-.751-1.358-.695-1.512.149-.4 2.796-.619 3.611-.256.249.11.242.255.242.34 0 .367-.018 1.35-.018 1.35a.368.368 0 1 0 .735-.002l-.004-2.45c0-.212-.231-.265-.276-.274a562.29 562.29 0 0 0-2.217-.005c-2.048 0-2.505.085-2.853-.143-.753-.492-1.985-3.814-2.014-5.682-.04-2.635 1.521-4.918 3.72-6.049A6.775 6.775 0 0 1 12.022 2a6.775 6.775 0 0 1 6.729 6.008v.009c.07.817-4.434.99-5.324.753-.137-.037-.172-.177-.172-.237l-.005-2.37a.368.368 0 0 0-.737.002l.008 3.222a.275.275 0 0 0 .223.266h2.795c1.492 0 2.118.172 2.535.49.278.211.384.615.29 1.141-.837 4.679-6.137 10.474-6.336 10.716"/></svg>