<svg xmlns="http://www.w3.org/2000/svg" viewBox="0 0 24 24"><path d="M11.747 20.977a2.385 2.385 0 0 1-2.046-1.78c-.05-.191-.059-.272-.059-.57 0-.3.009-.38.06-.573a2.388 2.388 0 0 1 1.3-1.573 2.364 2.364 0 1 1 1.217 4.498 3.252 3.252 0 0 1-.26.02l-.212-.022zm-6.827-6.66A2.373 2.373 0 0 1 3.24 13c-.347-.734-.305-1.542.12-2.253.129-.216.46-.565.667-.704a2.368 2.368 0 0 1 3.49.95c.4.855.25 1.858-.387 2.583-.264.301-.74.591-1.156.703-.237.065-.824.084-1.055.036zm6.63 0a2.392 2.392 0 0 1-1.23-.665 2.359 2.359 0 0 1-.284-2.984 2.92 2.92 0 0 1 .26-.312 2.357 2.357 0 0 1 3.12-.256 2.367 2.367 0 0 1 .235 3.583 2.486 2.486 0 0 1-1.047.597c-.237.065-.823.085-1.054.036zm6.723.017c-.83-.164-1.435-.62-1.776-1.34a2.36 2.36 0 0 1 1.555-3.296c.202-.054.277-.062.58-.062.302 0 .378.008.58.062.273.072.638.244.836.393.178.135.435.405.55.577.138.21.266.498.332.749.05.192.06.285.062.545.002.436-.055.695-.239 1.078-.16.333-.466.689-.77.896a3.02 3.02 0 0 1-.748.345c-.146.04-.263.052-.545.058a4.453 4.453 0 0 1-.417-.005zM11.735 7.72a2.336 2.336 0 0 1-1.38-.662 2.167 2.167 0 0 1-.5-.693 2.38 2.38 0 0 1 .189-2.335 2.82 2.82 0 0 1 .649-.636c.809-.524 1.807-.526 2.597-.005a2.358 2.358 0 0 1 .36 3.668 2.427 2.427 0 0 1-1.166.626c-.209.043-.562.06-.75.037z"/></svg>