<svg xmlns="http://www.w3.org/2000/svg" viewBox="0 0 24 24"><path d="M13.795 2.676A1.026 1.026 0 0 0 12.769 3.7v14.36a1.026 1.026 0 0 0 1.026 1.025 1.026 1.026 0 0 0 1.026-1.026V3.701a1.026 1.026 0 0 0-1.026-1.025m-3.59 2.238A1.026 1.026 0 0 0 9.18 5.94v14.359a1.026 1.026 0 0 0 1.026 1.025 1.026 1.026 0 0 0 1.026-1.026V5.94a1.026 1.026 0 0 0-1.026-1.026m7.18 1.454a1.026 1.026 0 0 0-1.026 1.026v9.231a1.026 1.026 0 0 0 1.026 1.025 1.026 1.026 0 0 0 1.025-1.025V7.394a1.026 1.026 0 0 0-1.025-1.026m-10.77.513A1.026 1.026 0 0 0 5.59 7.907v8.205a1.026 1.026 0 0 0 1.026 1.026 1.026 1.026 0 0 0 1.025-1.026V7.907A1.026 1.026 0 0 0 6.615 6.88zm-3.59 2.564A1.026 1.026 0 0 0 2 10.471v3.077a1.026 1.026 0 0 0 1.026 1.025 1.026 1.026 0 0 0 1.026-1.025V10.47a1.026 1.026 0 0 0-1.026-1.026zm17.949 1.026a1.026 1.026 0 0 0-1.025 1.026v1.025a1.026 1.026 0 0 0 1.025 1.026A1.026 1.026 0 0 0 22 12.522v-1.025a1.026 1.026 0 0 0-1.026-1.026"/></svg>