<svg xmlns="http://www.w3.org/2000/svg" data-name="Layer 1" viewBox="0 0 24 24"><path d="M22.169 8.51a1.923 1.923 0 0 0-2.159-2.514A9.996 9.996 0 0 0 2.02 12c0 .206.008.41.02.613a1.883 1.883 0 0 0-.684.672 1.91 1.91 0 0 0 1.584 2.898 9.987 9.987 0 0 0 13.965 4.538 1.923 1.923 0 0 0 2.845-2.385 9.97 9.97 0 0 0 1.899-9.028 1.912 1.912 0 0 0 .52-.798m-10.15-5.225a8.703 8.703 0 0 1 6.866 3.357 1.921 1.921 0 0 0-.336 1.927l-3.667 3.046a1.901 1.901 0 0 0-2.007.042 1.863 1.863 0 0 0-.825 1.132l-7.314.676a1.957 1.957 0 0 0-.747-.844 1.951 1.951 0 0 0-.676-.24 8.786 8.786 0 0 1-.01-.38 8.725 8.725 0 0 1 8.716-8.716M4.172 15.79a1.87 1.87 0 0 0 .69-1.048l7.304-.674a1.946 1.946 0 0 0 .131.244 1.925 1.925 0 0 0 2.12.82l1.996 2.876a1.888 1.888 0 0 0-.347.95 1.934 1.934 0 0 0 .077.717 8.71 8.71 0 0 1-11.97-3.885ZM20.734 12a8.67 8.67 0 0 1-1.885 5.403 1.955 1.955 0 0 0-.685-.2 1.99 1.99 0 0 0-.699.07l-1.994-2.875a1.916 1.916 0 0 0 .243-1.804L19.38 9.55a1.922 1.922 0 0 0 1.076.258 8.701 8.701 0 0 1 .28 2.192"/></svg>