<svg xmlns="http://www.w3.org/2000/svg" width="24" height="24" fill="none" viewBox="0 0 24 24"><path fill="#000" d="M10.156 3.978c.022.422.044.97.059 1.23l.03.466-3.164-.022C5.348 5.637 3.867 5.6 3.8 5.563c-.126-.06-.133.044-.133 1.511v1.57l.17-.044c.489-.14 2.467-.193 8.052-.193 5.585 0 7.563.052 8.06.193l.162.044v-1.57c0-1.467-.007-1.57-.126-1.511-.074.037-1.555.074-3.289.089l-3.163.022.03-.467c.015-.259.037-.807.06-1.23l.029-.755h-3.526l.03.756M6.91 9.459c-.77.29-1.392.57-1.392.615 0 .052.103.319.23.6.592 1.311 1.525 4.556 1.784 6.193.045.318.119.577.163.577.045 0 .77-.237 1.623-.525 1.103-.386 1.533-.563 1.533-.645 0-.237-1.319-4.518-1.94-6.296-.282-.785-.4-1.052-.497-1.045-.067 0-.74.237-1.504.526"/><path fill="#000" d="M14.94 9.496c-.244 1.556-1.155 4.563-2.133 7.037l-.51 1.282H3v2.963h18v-2.963h-2.748c-2.17 0-2.74-.022-2.711-.097.022-.044.2-.436.392-.866.186-.43.556-1.356.815-2.067.496-1.363 1.585-4.763 1.585-4.963 0-.096-.34-.207-1.57-.51-.867-.216-1.615-.386-1.66-.386-.044 0-.118.26-.162.57"/></svg>