<svg xmlns="http://www.w3.org/2000/svg" xml:space="preserve" width="24" height="24" viewBox="0 0 24 24"><path d="M11.204 3.375c3.586-.044 4.485 1.499 5.76 2.323.672.258.551.507.815.893.078.109.172.156.296.233.942.566-.336 1.232-.877 1.254.22-.143.41-.184.55-.386h-.028v-.028c-.454-.124-.413.274-.908.193.109-.013.392-.18.386-.414-.37-.224-.983-.473-1.459-.441l-.006.024c1.129.753.8 1.783 1.465 1.985-.361-.016-.184.065 0 .22-.454-.093-.501-.597-.716-1.044-.242-.402-.479-.887-.743-.909-.062.287.062 1.755.457 1.45-.31.382.137.224.342.146-.743.591-1.091.43-1.33-.43a32.518 32.518 0 0 1-.607-1.449 1.29 1.29 0 0 0-.423-.556c-1.3-.97-2.265-1.036-3.637-.812-.345-.666-.855-1.257-1.21-1.926.647-.155 1.176-.32 1.873-.326M6.196 6.292c2.547 4.924 5.244 3.32 9.135 5.189 3.4 2.112 2.607 6.619-.936 8.015v-2.64c1.443-1.403.644-3.487-1.154-3.889-2.14-.466-4.529-.917-5.963-1.944-1.561-1.175-1.916-3.15-1.082-4.73zm3.465 11.03c.003.79.06 1.677-.028 2.42-2.93-.8-5.054-3.213-3.879-5.997v.442c.268 1.872 1.87 2.886 3.907 3.135"/><path d="m4.13 2 4.321 1.154L12 8.74l1.487-2.255c1.073.451 1.15 2.66 1.732 2.999l-.715 1.073c-3.22-.877-5.994-1.033-7.13-3.372L4.132 2zm11.061 1.789c.504.298 1.03.615 1.446 1.02.234.224.464.382.787.569.122.068.146.065.243.146L19.869 2l-4.264 1.154zM12.028 22l1.925-1.568.028-6.603s-.14-.355-2.65-.793c-.532-.094-.924-.224-.927-.224l-.382-.112.056 7.73z"/></svg>