<svg xmlns="http://www.w3.org/2000/svg" width="192" height="192" viewBox="0 0 192 192"><path d="m79.975 20.905.25 6.467c.189 3.61.374 8.286.502 10.51l.25 3.995-27.07-.184c-14.826-.129-27.482-.452-28.055-.769-1.078-.513-1.137.383-1.137 12.934v13.435l1.454-.384c4.184-1.198 21.096-1.655 68.88-1.655 47.782 0 64.71.448 68.961 1.655l1.387.384V53.858c0-12.551-.068-13.438-1.086-12.934-.633.317-13.304.64-28.14.769l-27.054.183.25-3.993c.129-2.216.322-6.909.519-10.527l.25-6.45zm42.577 48.793c-.385 0-1.01 2.227-1.387 4.88h-.017c-2.088 13.311-9.88 39.04-18.247 60.205l-4.361 10.962H19v25.35h154v-25.35h-23.511c-18.566 0-23.442-.177-23.194-.818.188-.377 1.716-3.74 3.358-7.42 1.592-3.679 4.753-11.596 6.969-17.679 4.243-11.66 13.551-40.749 13.551-42.46 0-.821-2.894-1.769-13.418-4.361-7.417-1.848-13.819-3.309-14.204-3.309zm-57.232.067c-.573 0-6.33 2.022-12.867 4.495-6.588 2.48-11.914 4.879-11.914 5.264 0 .444.885 2.725 1.972 5.13 5.065 11.216 13.04 38.982 15.256 52.988.385 2.72 1.027 4.929 1.403 4.929s6.589-2.014 13.886-4.478c9.437-3.303 13.117-4.83 13.117-5.531 0-2.028-11.297-38.645-16.61-53.857-2.412-6.716-3.414-9-4.244-8.94z"/></svg>