<svg version="1.1" viewBox="0 0 192 192" xmlns="http://www.w3.org/2000/svg"><path d="m50.042 86.893h-21.434v25.83c0 2.1058 1.6978 3.7642 3.784 3.7642h6.3111l-0.0132 6.2979h-7.5153c-5.6464 0-10.114-4.475-10.114-10.069v-25.823h-5.0607v-6.2913h5.1067v-10.095l7.5154-2.5205v12.615h21.421zm2.5007-6.3045h13.886c5.6135 0 10.055 4.5145 10.055 9.74v32.43h-7.5417v-3.1127s-2.5007 3.7774-8.8512 3.7774c-7.568 0-15.097-5.1989-15.097-13.918 0-8.7392 7.5483-13.873 15.11-13.873h8.8048v-5.1331c0-1.7571-1.2964-3.6063-3.6524-3.6063h-12.701v-6.3176zm16.373 21.401h-8.8048c-2.5139 0-7.568 1.9545-7.568 7.568 0 6.2979 5.1067 7.568 7.5548 7.568 6.3439 0 8.8184-3.751 8.8184-7.0942v-8.048zm69.375-21.388c11.878 0 18.847 9.1736 18.847 21.585 0 12.78-6.9362 21.848-18.847 21.848-12.056 0-18.9-9.1144-18.9-21.848 0-12.451 6.8441-21.585 18.9-21.585zm0 37.116c7.535 0 11.346-7.9628 11.346-15.412 0-7.4693-3.8827-15.334-11.346-15.334-7.568 0-11.385 7.8641-11.385 15.373 0 7.6141 3.8827 15.386 11.385 15.386zm-21.5-15.334v-34.398h-7.568v16.36c-3.047-2.277-6.2978-3.751-11.24-3.751-12.089 0-18.887 9.1016-18.887 21.782 0 11.951 6.798 21.651 18.887 21.651 11.878 0 18.782-9.74 18.808-21.651zm-18.814 15.353c-8.2064 0-11.306-7.9234-11.306-15.373 0-7.5416 3.7182-15.438 11.299-15.438 7.6075 0 11.214 7.8971 11.214 15.438 0 7.4495-3.6655 15.373-11.207 15.373zm67.935-49.771c-5.574 0-10.102 4.5145-10.102 10.089 0 5.5806 4.5276 10.095 10.102 10.095 5.574 0 10.089-4.5145 10.089-10.095 0-5.574-4.5145-10.089-10.089-10.089zm0 17.657c-4.1854 0-7.568-3.3891-7.568-7.568 0-4.1722 3.3826-7.568 7.568-7.568 4.1789 0 7.568 3.3957 7.568 7.568 0 4.1788-3.3891 7.568-7.568 7.568z"/></svg>
