<svg xmlns="http://www.w3.org/2000/svg" viewBox="0 0 24 24"><path fill-rule="evenodd" d="M14.5 5.5a2.5 2.5 0 1 1-5 0 2.5 2.5 0 0 1 5 0m6.5 0a2.5 2.5 0 1 1-5 0 2.5 2.5 0 0 1 5 0m-13 13a2.5 2.5 0 1 1-5 0 2.5 2.5 0 0 1 5 0m0-13a2.5 2.5 0 1 1-5 0 2.5 2.5 0 0 1 5 0m13 13a2.5 2.5 0 1 1-5 0 2.5 2.5 0 0 1 5 0m-15.5-4a2.5 2.5 0 1 0 0-5 2.5 2.5 0 0 0 0 5M7 12a1.5 1.5 0 1 1-3 0 1.5 1.5 0 0 1 3 0m7.5 0a2.5 2.5 0 1 1-5 0 2.5 2.5 0 0 1 5 0m-1 0a1.5 1.5 0 1 1-3 0 1.5 1.5 0 0 1 3 0m7.5 0a2.5 2.5 0 1 1-5 0 2.5 2.5 0 0 1 5 0m-1 0a1.5 1.5 0 1 1-3 0 1.5 1.5 0 0 1 3 0m-8 9a2.5 2.5 0 1 0 0-5 2.5 2.5 0 0 0 0 5m1.5-2.5a1.5 1.5 0 1 1-3 0 1.5 1.5 0 0 1 3 0"/></svg>