<svg xmlns="http://www.w3.org/2000/svg" viewBox="0 0 24 24"><path d="M11.931 3c-2.32 0-4.43.914-5.977 2.39-.281-.21-.492-.421-.633-.702l-.141-.212-.14.212s-.634.843-.563 1.616c.07.352.281.634.563.845.843.562 1.757.563 2.6.633h.564c.14 0 .35 0 .491.07.07 0 .212.07.282.07 0 0 .492.211.703.281 0 0 .211.14.282.14.14.07.21.141.351.282.14.14.211.281.352.352 0 0 .211.35.281.421.07.07.14.423.21.493 0 .07.142.562.142.773a2.971 2.971 0 0 1-2.954 2.953 2.97 2.97 0 0 1-2.953-2.953c0-1.195.703-2.25 1.758-2.672-.844.14-1.688.282-2.672-.14-.07 0-.14-.071-.21-.142a8.708 8.708 0 0 0-.915 3.868c0 4.078 2.882 7.523 6.75 8.437V21h1.617v-.773h.564V21h1.616v-.985c3.867-.844 6.75-4.289 6.75-8.437-.07-1.336-.421-2.6-.984-3.796-.07.07-.14.07-.211.07-.914.422-1.829.28-2.673.14 1.055.492 1.758 1.477 1.758 2.672 0 1.618-1.335 2.953-2.952 2.953s-2.953-1.335-2.953-2.953c0-.14 0-.352.07-.493 0-.07.07-.42.14-.491 0-.07.071-.211.142-.282.07-.14.21-.421.28-.421.07-.07.281-.352.281-.352.07-.07.211-.211.352-.281.07-.07.141-.07.141-.14 0 0 .492-.282.774-.352.07 0 .21-.07.281-.07.14 0 .28-.072.492-.072h.563c.844 0 1.757.002 2.6-.631.352-.211.494-.493.564-.845.14-.773-.493-1.546-.563-1.616l-.14-.212-.142.212c-.14.281-.422.492-.703.703C16.36 3.915 14.251 3 11.931 3zm0 1.758c1.617 0 3.024.562 4.219 1.476-.422.14-1.477.07-2.11.352-.773.351-2.039 1.617-2.109 1.828-.14-.282-1.547-1.547-2.11-1.758-.562-.281-1.687-.422-2.109-.492 1.195-.914 2.602-1.406 4.219-1.406zM8.204 8.414a2.342 2.342 0 0 0-2.321 2.32c.07 1.266 1.055 2.321 2.32 2.321a2.342 2.342 0 0 0 2.322-2.32 2.342 2.342 0 0 0-2.321-2.321m7.453 0a2.34 2.34 0 0 0-2.32 2.32c0 1.266 1.054 2.321 2.32 2.321s2.32-1.055 2.32-2.32a2.342 2.342 0 0 0-2.32-2.321zM8.204 9.68c.562 0 1.055.492 1.055 1.054 0 .563-.493 1.055-1.055 1.055a1.081 1.081 0 0 1-1.055-1.055c0-.562.492-1.054 1.055-1.054m7.383 0c.633 0 1.054.492 1.054 1.054 0 .563-.492 1.055-1.054 1.055s-1.055-.492-1.055-1.055c0-.562.492-1.054 1.055-1.054m-4.36 4.359.704.633.703-.633c.774.703 1.828 1.196 2.953 1.196 1.054 0 1.969-.352 2.742-.985a6.84 6.84 0 0 1-6.398 4.36c-2.953 0-5.485-1.828-6.47-4.43a4.417 4.417 0 0 0 2.813.985c1.125 0 2.18-.423 2.954-1.126z"/></svg>