<svg xmlns="http://www.w3.org/2000/svg" viewBox="0 0 24 24"><path d="M11 7a.996.996 0 0 0-.707.293A.996.996 0 0 0 10 8v10l-3.199-1.723h-.223a.994.994 0 0 0-.738.325l-.738.765L10 21.57c.262.282.621.43 1 .43h6.5a1.554 1.554 0 0 0 1.5-1.5v-4.359c0-.578-.32-1.114-.852-1.352l-4.937-2.187L12 12.473V8a.996.996 0 0 0-.293-.707A.996.996 0 0 0 11 7m0-3a4.003 4.003 0 0 1 4 4c0 1.5-.801 2.77-2 3.461v-1.223a3.006 3.006 0 0 0 .598-3.738A2.966 2.966 0 0 0 12.5 5.402a2.995 2.995 0 0 0-3.621.477A2.995 2.995 0 0 0 8 8c0 .891.391 1.691 1 2.238v1.223A3.96 3.96 0 0 1 7 8a4.003 4.003 0 0 1 4-4m0-2a6.001 6.001 0 0 1 6 6 6.04 6.04 0 0 1-1.84 4.332l-1-.453A5.012 5.012 0 0 0 16 8a4.993 4.993 0 0 0-1.465-3.535 4.993 4.993 0 0 0-7.07 0A4.993 4.993 0 0 0 6 8a4.983 4.983 0 0 0 3 4.578v1.082A6.015 6.015 0 0 1 5 8a6.002 6.002 0 0 1 6-6"/></svg>