<svg xmlns="http://www.w3.org/2000/svg" data-name="Layer 1" viewBox="0 0 24 24"><path d="M20.258 6.777h-5.924a.325.325 0 0 1-.325-.324V2.706a.325.325 0 0 1 .325-.324h.281A9.72 9.72 0 0 0 4.072 17.459l-1.455 3.859a.504.504 0 0 0 .755.595l3.129-2.12A9.716 9.716 0 0 0 20.916 8.12a9.621 9.621 0 0 0-.658-1.343M8.088 9.938l3.42-4.392a.243.243 0 0 1 .435.149v2.68h2.225c.287 0 .287 2.129 0 2.129H8.364a.35.35 0 0 1-.276-.566m6.565 8.24a6.94 6.94 0 0 1-3.834-.186 2.958 2.958 0 0 1-1.5-2.553v-3.886l2.623-.538v3.62s-.042 1.109.71 1.426a3.875 3.875 0 0 0 1.733-.05 4.313 4.313 0 0 1 .268 2.168zm3.414-14.423h-.404v.734h.406a.417.417 0 0 0 .294-.096.346.346 0 0 0 .104-.266.369.369 0 0 0-.098-.272.407.407 0 0 0-.302-.1z"/><path d="M14.406 2.779V6.38h6.078l.115.195q.23.39.426.801l.759-.895a.077.077 0 0 0 .018-.05V2.778Zm2.162 1.944a1.024 1.024 0 0 1-.68.207h-.442v.861h-.504V3.348h.954a1.104 1.104 0 0 1 .484.1.746.746 0 0 1 .321.286.802.802 0 0 1 .113.423.702.702 0 0 1-.246.566zm2.495 1.068h-.54l-.459-.894h-.401v.894h-.503V3.348h.907a1.026 1.026 0 0 1 .668.193.665.665 0 0 1 .235.545.755.755 0 0 1-.108.417.74.74 0 0 1-.328.266l.529.999zm2.297-1.166a1.474 1.474 0 0 1-.127.633.962.962 0 0 1-.365.42 1.079 1.079 0 0 1-1.087.001.971.971 0 0 1-.37-.417 1.434 1.434 0 0 1-.132-.624v-.12a1.466 1.466 0 0 1 .13-.636.97.97 0 0 1 .368-.421 1.077 1.077 0 0 1 1.086 0 .975.975 0 0 1 .368.421 1.467 1.467 0 0 1 .13.634z"/><path d="M20.32 3.73a.448.448 0 0 0-.391.198 1.01 1.01 0 0 0-.14.578v.119a1.04 1.04 0 0 0 .138.58.482.482 0 0 0 .786.008 1.036 1.036 0 0 0 .137-.58v-.119a1.028 1.028 0 0 0-.137-.584.449.449 0 0 0-.393-.2m-4.412.025h-.462v.767h.45a.442.442 0 0 0 .304-.093.341.341 0 0 0 .105-.269.402.402 0 0 0-.106-.29.395.395 0 0 0-.291-.115"/></svg>