<svg xmlns="http://www.w3.org/2000/svg" data-name="Layer 1" viewBox="0 0 24 24"><path d="M20.258 6.777h-5.924a.325.325 0 0 1-.325-.324V2.706a.325.325 0 0 1 .325-.324h.281A9.72 9.72 0 0 0 4.072 17.459l-1.455 3.859a.504.504 0 0 0 .755.595l3.129-2.12A9.716 9.716 0 0 0 20.916 8.12a9.6 9.6 0 0 0-.658-1.343M8.088 9.938l3.42-4.392a.243.243 0 0 1 .435.149v2.68h2.225c.287 0 .287 2.129 0 2.129H8.364a.35.35 0 0 1-.276-.566m6.565 8.24a6.94 6.94 0 0 1-3.834-.186 2.96 2.96 0 0 1-1.5-2.553v-3.886l2.623-.538v3.62s-.042 1.109.71 1.426a3.9 3.9 0 0 0 1.733-.05 4.3 4.3 0 0 1 .268 2.168zm3.414-14.423h-.404v.734h.406a.42.42 0 0 0 .294-.096.35.35 0 0 0 .104-.266.37.37 0 0 0-.098-.272.4.4 0 0 0-.302-.1"/><path d="M14.406 2.779V6.38h6.078l.115.195q.23.39.426.801l.759-.895a.1.1 0 0 0 .018-.05V2.778Zm2.162 1.944a1.02 1.02 0 0 1-.68.207h-.442v.861h-.504V3.348h.954a1.1 1.1 0 0 1 .484.1.75.75 0 0 1 .321.286.8.8 0 0 1 .113.423.7.7 0 0 1-.246.566m2.495 1.068h-.54l-.459-.894h-.401v.894h-.503V3.348h.907a1.03 1.03 0 0 1 .668.193.67.67 0 0 1 .235.545.76.76 0 0 1-.108.417.74.74 0 0 1-.328.266l.529.999zm2.297-1.166a1.5 1.5 0 0 1-.127.633.96.96 0 0 1-.365.42 1.08 1.08 0 0 1-1.087.001.97.97 0 0 1-.37-.417 1.4 1.4 0 0 1-.132-.624v-.12a1.5 1.5 0 0 1 .13-.636.97.97 0 0 1 .368-.421 1.08 1.08 0 0 1 1.086 0 1 1 0 0 1 .368.421 1.5 1.5 0 0 1 .13.634z"/><path d="M20.32 3.73a.45.45 0 0 0-.391.198 1 1 0 0 0-.14.578v.119a1.04 1.04 0 0 0 .138.58.482.482 0 0 0 .786.008 1.04 1.04 0 0 0 .137-.58v-.119a1.03 1.03 0 0 0-.137-.584.45.45 0 0 0-.393-.2m-4.412.025h-.462v.767h.45a.44.44 0 0 0 .304-.093.34.34 0 0 0 .105-.269.4.4 0 0 0-.106-.29.4.4 0 0 0-.291-.115"/></svg>