<svg xmlns="http://www.w3.org/2000/svg" viewBox="0 0 24 24"><path d="M12.105 2.362c-2.155-.01-4.114.41-4.654.485H7.45c-.427.11-1.112.33-1.12.36-1.203.416-1.952.936-2.85 1.702-.538.528-1.053 1.185-1.203 1.923-.375 1.855-.41 2.75.164 4.976.183.5.491 1.04.836 1.473.724.883 1.495 1.293 2.474 1.709.983.33 1.984.364 3.012.322.61-.05 3.439-1.247 6.298-2.168 3.773-1.067 3.573-.682 4.179-2.75a7.5 7.5 0 0 0 .156-1.775c-.025-1.096-.186-1.88-.566-2.747-.217-.497-.596-1.097-.89-1.418-1.324-1.643-3.677-2.082-5.834-2.092zm2.806 3.146.137.03.287.119a.915.915 0 0 1 .357.508.613.613 0 0 1-.187.59c-.146.132-.177.138-1.105.253-1.74.218-2.42.292-2.527.28-.316-.04-.536-.355-.44-.63.023-.09.03-.103.033-.113.005-.01.007-.019.055-.086a.218.218 0 0 1 .123-.078l.014-.006 3.126-.853a.703.703 0 0 1 .127-.014zm-9.094 1.65v.003c1.314.31 1.923.428 3.199.75.072.033.162.049.177.101.048.045.07.101.104.158.039.073.043.1.043.244 0 .146-.004.174-.045.258a.579.579 0 0 1-.344.291s-.075.032-.115.037a1.78 1.78 0 0 1-.357-.03 4.259 4.259 0 0 0-.366-.02c-.003.002 0 .304.01.667.016.736.013.767-.082.906a.595.595 0 0 1-.31.221c-.305.097-.625-.024-.758-.287-.046-.092-.19-.803-.3-1.486l-.03-.18-.1-.011c-1.01-.125-1.026-.126-1.129-.174a.644.644 0 0 1-.287-.256.68.68 0 0 1-.115-.408.737.737 0 0 1 .19-.502.735.735 0 0 1 .615-.281zm7.782.227c.16 0 .18.005.283.055a.727.727 0 0 1 .402.543c.042.268.12 1.013.143 1.388a.69.69 0 0 1-.016.264.713.713 0 0 1-.443.44.907.907 0 0 1-.398.032.668.668 0 0 1-.44-.32c-.035-.067-.047-.123-.066-.342a56.723 56.723 0 0 0-.072-.736c-.072-.673-.075-.746-.032-.875a.684.684 0 0 1 .188-.29c.03-.028.053-.054.049-.061l.002-.002a.37.37 0 0 0 .119-.045c.1-.048.12-.05.281-.05zm4.218 5.22c-.314.065-.627.136-.94.211-2.38.611-4.723 1.545-7.04 2.351a.62.62 0 0 0-.253.178c-.2.22-.145.457-.242.996v.078c.009.238.045.514.113.855.111.56.28 1.068.494 1.494a4.423 4.423 0 0 0-.064-.113c-.26-.545-.472-1.32-.543-1.994-.014-.095-.039-.206 0-.242v-.078c0-1.027-.05-.792-1.32-.83-1.243.028-2.895-.672-4.338 1.348a2.84 2.84 0 0 0-.229.703c-.042.236-.05.634-.017.9.093.76.34 1.332.757 1.754.51.514 1.28.8 2.408.9.127.01.755-.005.899-.022.077-.01.279-.028.449-.048.378-.04.654-.096.99-.192.748-.218 1.483-.617 1.748-.953l.048-.062-.119-.123a.213.213 0 0 0 .059.045c.006 0 .016.006.027.011l.004.008c-.014-.014-.016-.013-.008.01.006.016.015.024.02.02v-.012c.047.068.338.304.574.463.598.402 1.4.751 2.234.978.771.187 1.026.198 1.8.31.64.09.772.096 1.31.084.85-.018 1.718-.153 2.386-.378 1.443-.487 1.916-1.24 2.453-2.135a6.673 6.673 0 0 0 .453-1.537 4.84 4.84 0 0 0-.102-2.101 4.036 4.036 0 0 0-2.072-2.549 3.315 3.315 0 0 0-.964-.322 4.218 4.218 0 0 0-.975-.006zm-3.687 2.58a.706.706 0 0 1 .195.017c.365.13.435.363.678.602l.436.478c.126.14.38.409.566.598.318.324.339.35.35.42a.308.308 0 0 1-.084.244 5.365 5.365 0 0 1-.309.185c-.152.088-.461.273-.683.41-.152.1-.309.191-.47.276a.628.628 0 0 1-.757-.293.39.39 0 0 1-.05-.228.428.428 0 0 1 .138-.354c.097-.097.186-.13.613-.236.207-.052.38-.1.389-.108.024-.02-.015-.056-.186-.173a24.986 24.986 0 0 1-.865-.616 6.183 6.183 0 0 1-.369-.29c-.306-.29-.196-.764.211-.909a.727.727 0 0 1 .197-.023zm6.298.918c.266 0 .461.376.375.714-.08.31-.213.421-.967.8-.235.117-.394.206-.398.222-.003.015.056.078.156.164.3.253.346.304.375.404.077.266-.089.606-.365.74a.46.46 0 0 1-.332.022c-.094-.042-.13-.089-.246-.32a6.077 6.077 0 0 0-.537-.89c-.06-.083-.066-.106-.066-.187 0-.076.008-.107.046-.166a.386.386 0 0 1 .104-.103c.51-.293.94-.63 1.45-1.133.229-.223.296-.266.405-.265zM8.471 17.136c.148.016.27.151.272.33 0 .105-.03.176-.143.312-.053.063-.1.124-.107.135s.053.078.156.17c.188.17.208.193.209.281 0 .048-.012.076-.055.123-.052.057-.063.063-.144.063-.08 0-.1-.011-.282-.127a3.564 3.564 0 0 0-.224-.135c-.02-.009-.077.036-.2.152a1.486 1.486 0 0 1-.216.18c-.11.043-.242 0-.291-.094-.046-.088-.035-.12.123-.328a2.4 2.4 0 0 0 .144-.203c-.331-.235-.381-.291-.382-.451a.298.298 0 0 1 .283-.309c.119-.008.167.017.32.155l.113.103.073-.11c.094-.142.146-.199.213-.226a.28.28 0 0 1 .074-.02.285.285 0 0 1 .064-.001zm-2.927.312c.07-.005.095 0 .14.031.094.065.124.118.131.24.008.146-.023.216-.168.385a1.04 1.04 0 0 0-.103.131c.047.034.336.303.351.328.057.098-.006.238-.125.274-.078.024-.12.005-.35-.147l-.177-.117-.062.072a4.84 4.84 0 0 0-.141.172.625.625 0 0 1-.105.115c-.094.051-.226-.01-.262-.125-.027-.082-.014-.128.09-.31.049-.09.09-.172.09-.184a.684.684 0 0 0-.12-.148c-.138-.144-.17-.22-.154-.371.017-.16.132-.283.262-.283.095 0 .142.034.232.16a.93.93 0 0 0 .09.115c.004 0 .053-.06.107-.133.122-.165.164-.197.274-.205z"/></svg>