<svg xmlns="http://www.w3.org/2000/svg" width="192" height="192" viewBox="0 0 192 192"><path d="M126.79 42.664a12.182 12.182 0 0 0 2.703-16.895l-1.257-1.745a11.891 11.891 0 0 0-16.741-2.72L84.18 41.21a24.124 24.124 0 0 0-9.633 15.765 24.381 24.381 0 0 0 4.235 18.016l1.257 1.754zm23.867 69.455a11.917 11.917 0 0 0 16.759-2.626l1.258-1.745a12.148 12.148 0 0 0-2.61-16.905l-27.204-20.05a23.825 23.825 0 0 0-33.517 5.252l-1.266 1.745zm-57.615 44.33a12.233 12.233 0 0 0 .693 9.239 12.054 12.054 0 0 0 6.963 6.031l2.036.676a11.891 11.891 0 0 0 12.832-3.619 12.014 12.014 0 0 0 2.302-4.106l10.488-32.302a24.381 24.381 0 0 0-7.16-25.895 23.953 23.953 0 0 0-8.153-4.637l-2.028-.675zm-60.011-41.182a11.976 11.976 0 0 0-8.503 3.525 12.148 12.148 0 0 0-3.525 8.554v2.164a12.233 12.233 0 0 0 3.49 8.564 11.976 11.976 0 0 0 8.47 3.567l33.697.085a23.953 23.953 0 0 0 16.972-7.04 24.284 24.284 0 0 0 7.057-17.092v-2.164zm19.915-70.054a12.148 12.148 0 0 0-5.937-7.058 11.976 11.976 0 0 0-9.153-.752l-2.036.658a11.976 11.976 0 0 0-6.998 5.989 12.249 12.249 0 0 0-.744 9.239l10.325 32.354a24.295 24.295 0 0 0 11.89 14.115 23.953 23.953 0 0 0 18.29 1.505l2.037-.659z"/></svg>