<svg xmlns="http://www.w3.org/2000/svg" viewBox="0 0 24 24"><path d="m9.537 20.955-.328-2.626 2.367-1.883a4.478 4.478 0 0 0 4.984-3.973s.027-.222.022-.324c-.002-.085.002-.222.002-.222a4.471 4.471 0 0 0-1.79-3.51l1.1-1.91 2.643-1.11L21 9.65l-2.306 1.746c.015.105.022.205.022.302v.604c0 .098-.014.198-.044.303l2.306 1.746-2.463 4.254-2.642-1.12a6.127 6.127 0 0 1-.515.337 4.42 4.42 0 0 1-.537.268l-.358 2.866H9.537M14.79 5.671l.03.24c.194.074.377.164.549.269.172.104.34.216.503.335l.02-.009.763-1.324.683-1.217zm-2.344 1.864a4.443 4.443 0 0 1 2.346.883l-1.297 2.252 2.91 1.164c.072.029.132.06.18.094a4.864 4.864 0 0 1-.025.546 1.285 1.285 0 0 1-.112.1l-4.872 3.873a4.457 4.457 0 0 1-2.303-.98l1.23-2.136-2.87-1.148c-.002-.06 0 .045 0-.016l.048-.843zM7.68 11.323a4.479 4.479 0 0 1 4.764-3.788l2.346-1.864-.328-2.627H9.536L9.178 5.91a4.42 4.42 0 0 0-.537.269 6.36 6.36 0 0 0-.515.335L5.463 5.395 3 9.65l2.306 1.746a2.135 2.135 0 0 0-.022.302v.604c0 .098.008.198.022.303L3 14.35l2.463 4.254 2.644-1.11-.763 1.324-.61 1.241 2.475-1.73-.03-.24a3.377 3.377 0 0 1-.549-.268 7.338 7.338 0 0 1-.504-.336l-.02.009 1.167-2.028a4.469 4.469 0 0 1-1.639-3.284l-.042-.016a5.14 5.14 0 0 1 .041.016c-.003-.13.048-.86.048-.86"/></svg>