<svg xmlns="http://www.w3.org/2000/svg" viewBox="0 0 24 24"><path d="M15.6 5.765a1.424 1.424 0 0 0 .316-1.975l-.147-.204a1.392 1.392 0 0 0-1.957-.318l-3.193 2.327a2.82 2.82 0 0 0-1.126 1.843 2.852 2.852 0 0 0 .495 2.106l.147.205zm2.79 8.119a1.393 1.393 0 0 0 1.959-.307l.147-.204a1.42 1.42 0 0 0-.305-1.976l-3.18-2.344a2.785 2.785 0 0 0-3.918.614l-.148.204zm-6.735 5.182a1.43 1.43 0 0 0 .081 1.08c.168.334.461.588.814.705l.238.079a1.39 1.39 0 0 0 1.5-.423c.12-.14.212-.304.269-.48l1.226-3.776a2.851 2.851 0 0 0-.837-3.027 2.797 2.797 0 0 0-.953-.542l-.237-.079zM4.64 14.252a1.391 1.391 0 0 0-.994.412 1.415 1.415 0 0 0-.412 1v.253a1.426 1.426 0 0 0 .408 1.001 1.401 1.401 0 0 0 .99.417l3.939.01a2.791 2.791 0 0 0 1.984-.823c.527-.53.824-1.248.825-1.998v-.253zm2.328-8.189a1.418 1.418 0 0 0-.694-.825 1.392 1.392 0 0 0-1.07-.088l-.238.077a1.406 1.406 0 0 0-.818.7c-.17.335-.2.723-.087 1.08l1.207 3.782a2.836 2.836 0 0 0 1.39 1.65 2.785 2.785 0 0 0 2.138.176l.238-.077z"/></svg>