<svg xmlns="http://www.w3.org/2000/svg" viewBox="0 0 24 24"><path d="M3.958 9.947H2v-.825h4.79v.825H4.83v4.932h-.873zm3.235 4.932 1.237-2.975 1.156-2.782h.87l1.171 2.848c.64 1.555 1.195 2.909 1.172 2.909h-.915l-.952-2.377c-.902-2.254-.955-2.37-1.01-2.224-.383.996-1.031 2.47-1.068 2.558-.043.1-.054.09.392.09.287 0 .54.028.644.071.169.071.557.545.442.545H8.609l-.257.668-.256.669zm6.721 0c1.618-2.18 1.584-2.2 1.618-2.18.097.06.248.44.248.624 0 .163-.078.308-.473.876l-.474.68zm2.077-2.802c-1.05-1.54-1.987-2.955-1.94-2.955h.967l.62 1.002c.333.541.654 1.058.698 1.157.066.148.083.162.101.077.02-.1 1.217-2.036 1.338-2.233.003-.005.014-.003.029-.003h.213c.292 0 .745-.003.745 0 0 .015-.405.641-.899 1.357s-.912 1.339-.93 1.384c-.02.054.305.576.95 1.527.54.795.994 1.49.981 1.49h-.962zm5.096-.064.013-2.891h.9v5.757h-.926z"/></svg>