<svg xmlns="http://www.w3.org/2000/svg" width="192" height="192" viewBox="0 0 192 192"><path d="M31.664 79.568H16v-6.6h38.32v6.6H38.64v39.456h-6.984zm25.88 39.456 19.144-46.056h6.96l18.744 46.056h-7.32L79.376 82.216l-8.544 20.464c-.344.8-.432.72 3.136.72 2.296 0 4.32.224 5.152.568 1.352.568 4.456 4.36 3.536 4.36H68.872l-4.104 10.696zm53.768 0c12.944-17.44 12.672-17.6 12.944-17.44.776.48 1.984 3.52 1.984 4.992 0 1.304-.624 2.464-3.784 7.008l-3.792 5.44zm1.096-46.056h7.736l11.113 18.293L142.2 72.992l7.896-.024-14.632 21.928 15.448 24.136h-7.696zm56.392 0h7.2v46.056h-7.408z"/></svg>