<svg xmlns="http://www.w3.org/2000/svg" width="24" height="24" fill="none" viewBox="0 0 24 24"><path fill="#000" d="M1.226 10.933s8.846-3.63 11.914-4.908c1.175-.511 5.164-2.148 5.164-2.148s1.84-.715 1.687 1.023c-.051.716-.46 3.221-.87 5.931-.613 3.835-1.278 8.028-1.278 8.028s-.102 1.176-.971 1.38c-.87.205-2.3-.716-2.557-.92-.204-.154-3.834-2.454-5.164-3.58-.358-.306-.767-.92.051-1.636a194.598 194.598 0 0 0 5.37-5.113c.613-.613 1.226-2.045-1.33-.306-3.63 2.505-7.21 4.857-7.21 4.857s-.818.511-2.352.051c-1.534-.46-3.323-1.074-3.323-1.074s-1.227-.767.87-1.585z" style="stroke-width:.95238"/></svg>