<svg xmlns="http://www.w3.org/2000/svg" width="192" height="192" viewBox="0 0 192 192"><path d="M92.064 85.555c-4-4-3.144-11.44 2-16.296 5.152-5.008 12.44-5.72 16.448-1.72 4 4 3.144 11.44-2 16.304-5.152 5-12.448 5.712-16.448 1.712m51.328 22.16 3.152-4.72c14.44 0 25.16-2 29.456-5.712a224 224 0 0 1-25.6-.144l21.592-32.32c-9.008-2-24.16-6-42.04-8.72l-20.448-2.144a352 352 0 0 0-44.176-.288L45.88 78.691a280 280 0 0 1-27.736-9.44c4.288 4.44 12.864 9.296 24.304 13.728l-2.864 3.576A288 288 0 0 1 16 77.979c3.864 4 11.016 8.432 20.448 12.576l-9.296 11.872c11.44 2.144 29.888 7.296 50.48 15.016a336 336 0 0 1 38.464 17.584l6.576 3.864 16.872-25.312c16.72.576 29.168-1.144 34.032-5-8.296.424-18.448.136-30.176-.864zm-71.488-46.04c7.008-.144 18.304-.72 34.32.288l15.864 1.576c13.872 2 25.6 5 32.6 6.432l-18.016 26.024c-12.44-1.144-26.024-3.144-40.464-5.72a496 496 0 0 1-40.176-8.864zm-20.016 24.88c13.008 4.432 28.592 8.44 45.32 11.584 12.584 2.288 24.312 3.72 34.888 4.432l-2.568 3.72a504 504 0 0 1-35.888-5.864 544 544 0 0 1-44.328-10.72zm64.768 38.32-5.44-2.576c-7.424-4-17.44-8.576-29.736-13.152-15.872-5.72-30.16-9.576-39.04-11.152l3.008-3.72c13.728 5.296 30.744 10.16 49.192 13.728 10.72 2.144 21.016 3.72 30.456 4.576z"/></svg>