<svg xmlns="http://www.w3.org/2000/svg" viewBox="0 0 24 24"><path d="M11.508 10.695c-.5-.5-.393-1.43.25-2.037.644-.626 1.555-.715 2.056-.215.5.5.393 1.43-.25 2.038-.644.625-1.556.714-2.056.214m6.416 2.77.394-.59c1.805 0 3.145-.25 3.682-.714a28 28 0 0 1-3.2-.018l2.699-4.04c-1.126-.25-3.02-.75-5.255-1.09l-2.556-.268a44 44 0 0 0-5.522-.036L5.735 9.837a35 35 0 0 1-3.467-1.18c.536.555 1.608 1.162 3.038 1.716l-.358.447A36 36 0 0 1 2 9.748c.483.5 1.377 1.054 2.556 1.572l-1.162 1.484c1.43.268 3.736.912 6.31 1.877a42 42 0 0 1 4.808 2.198l.822.483 2.109-3.164c2.09.072 3.646-.143 4.254-.625-1.037.053-2.306.017-3.772-.108zM8.988 7.71c.876-.018 2.288-.09 4.29.036l1.983.197c1.734.25 3.2.625 4.075.804L17.084 12c-1.555-.143-3.253-.393-5.058-.715a62 62 0 0 1-5.022-1.108zm-2.502 3.11c1.626.554 3.574 1.055 5.665 1.448 1.573.286 3.039.465 4.361.554l-.321.465a63 63 0 0 1-4.486-.733 68 68 0 0 1-5.541-1.34zm8.096 4.79-.68-.322c-.928-.5-2.18-1.072-3.717-1.644-1.984-.715-3.77-1.197-4.88-1.394l.376-.465c1.716.662 3.843 1.27 6.149 1.716 1.34.268 2.627.465 3.807.572z"/></svg>