<svg xmlns="http://www.w3.org/2000/svg" viewBox="0 0 24 24"><path d="m5.158 6.677-.103.002c-.43.027-.724.213-.89.464-.193-.289-.555-.492-1.1-.462l-.012.018a.89.89 0 0 0 .083 1.04c.077.083.268.316.19.615L2.22 10.145a.32.32 0 0 0 .087.433c.287.2.862.477 1.86.477.994 0 1.57-.276 1.856-.477l.038-.033a.32.32 0 0 0 .05-.4l-1.105-1.79.008.032L5 8.337c-.06-.27.09-.483.173-.578l.02-.02a.89.89 0 0 0 .083-1.04l-.01-.018zm2.695.071a.4.4 0 0 0-.226.082c-.188.15-.623.746-.653.786-.48.681-.452.847.164 1.234.346.218.625-.063.746-.146-.058.36-.234.924-.498 1.321a5 5 0 0 1-.314-.25.21.21 0 0 0-.289.007.19.19 0 0 0-.055.143.2.2 0 0 0 .063.139c.64.585 1.482.917 2.379.92.9 0 1.746-.333 2.387-.92a.197.197 0 0 0 .01-.282.21.21 0 0 0-.29-.008q-.074.067-.153.13l-.281-.627a6 6 0 0 1-.15-.407.8.8 0 0 1 .168-.219q.09-.09.148-.178c.186-.294.08-.467.022-.583-.133-.271-.341-.183-.492-.023-.186.196-.367.282-.658.347-.244.055-.432.028-.588-.07-.216-.133-.548-.628-.548-.628-.284-.566-.632-.779-.892-.768m7.859.001c-.804.764-.033 2.425-1.495 3.13-.16.079-.294-.178-.51-.178-.61.005-1.776.543-1.821.814-.038.224.46.402 1.927.405 1.276 0 1.688-1.942 2.135-1.945.447 0 .239 1.761.19 1.945h.468c-.04-.184-.07-.736-.068-1.518 0-.781.141-.954.254-1.545.098-.512-.66-.957-1.08-1.108m3.273.063c-.846 0-1.55.656-1.608 1.5l-.095 1.354a1.114 1.114 0 0 0 1.108 1.19h2.497c.646 0 1.153-.544 1.11-1.19l-.095-1.354a1.613 1.613 0 0 0-1.608-1.5zm-.204 1.014c.131 0 .263.036.265.11v.037c0 .326.266.595.592.595s.596-.266.596-.595v-.038c0-.146.527-.146.527 0v.038a1.122 1.122 0 0 1-2.243 0v-.038c0-.073.131-.11.263-.11M9.175 9.927c.394 0 .696.194.806.553a3 3 0 0 1-.811.103 2.6 2.6 0 0 1-.822-.108c.106-.317.455-.548.827-.548M2.553 12.44a.552.552 0 1 0 0 1.102h1.06v3.224a.552.552 0 1 0 1.103 0v-3.224h1.06a.553.553 0 0 0 .553-.552.55.55 0 0 0-.553-.55zm5.007 0a.55.55 0 0 0-.553.55v3.776c0 .304.246.552.553.552h2.987a.552.552 0 0 0 0-1.105H8.11v-.784h2.12a.552.552 0 1 0 0-1.103H8.11v-.784h2.437a.55.55 0 0 0 .55-.552.55.55 0 0 0-.55-.55zm4.826 0a.55.55 0 0 0-.55.55v3.78a.552.552 0 1 0 1.102 0v-2.482l.93 1.312a.486.486 0 0 0 .791 0l.93-1.312v2.483c0 .304.246.552.552.552a.55.55 0 0 0 .55-.552V12.99a.55.55 0 0 0-.55-.55H15.8a.4.4 0 0 0-.332.17l-1.203 1.81-1.206-1.81a.4.4 0 0 0-.332-.17zm5.62 0a.55.55 0 0 0-.55.55v2.3c0 1.347.823 2.033 2.17 2.033s2.2-.678 2.198-2.065V12.99a.552.552 0 0 0-1.103 0v2.308c0 .726-.41 1.098-1.082 1.096-.674 0-1.083-.385-1.08-1.128V12.99a.55.55 0 0 0-.553-.55"/></svg>