<svg xmlns="http://www.w3.org/2000/svg" width="192" height="192" viewBox="0 0 192 192"><path d="m110.73 16-55.312.047v8.75l49.203-.016 50.141 135.48H171.7v-8.765h-10.828zM55.418 31.375v8.766h17.375L30.934 151.5H20.293v8.765h16.719l45.156-120.12h6.813l-27.22 73.391h68.61L99.62 31.381zm40.531 15.188 21.781 58.203H74.371zM59.48 120.375l-14.922 39.891h25.203V151.5H57.589l7.313-22.359h62.39l7.422 22.36h-12.078v8.765h25.172l-15.14-39.891zm-39.188 46.859V176h49.469v-8.766zm102.34 0V176h49.078v-8.766z"/></svg>