<svg xmlns="http://www.w3.org/2000/svg" width="24" height="24"><path d="M3.578 2C2.706 2 2 2.706 2 3.578v16.844C2 21.294 2.706 22 3.578 22h13.686L22 17.264V3.578C22 2.706 21.294 2 20.422 2zm5.735 6.658q.475 0 .857.15.383.15.654.401.27.252.41.588a1.82 1.82 0 0 1 .057 1.297 3.1 3.1 0 0 1-.56 1.018q-.178.224-.364.411l-.14.14-.225.224q-.12.12-.27.261l-.298.3-.756.755.01.037h2.771v.951H7.305v-.978a76 76 0 0 0 1.39-1.4l.383-.383q.178-.187.328-.336.15-.159.233-.252.177-.206.308-.365t.215-.307q.084-.15.121-.299.047-.15.047-.336a.8.8 0 0 0-.076-.328.8.8 0 0 0-.195-.28.9.9 0 0 0-.327-.204 1.1 1.1 0 0 0-.439-.084 1.04 1.04 0 0 0-.736.289q-.131.121-.215.271a1 1 0 0 0-.121.28l-.944-.383a2.04 2.04 0 0 1 .635-.941 2.2 2.2 0 0 1 .598-.356q.354-.14.803-.14zm5.17 0q.438 0 .812.14.374.131.644.374c.27.243.32.354.42.578q.15.328.149.71 0 .44-.233.784-.233.346-.56.56v.055q.205.103.383.262.185.15.326.346.14.195.215.44.084.232.084.511a1.77 1.77 0 0 1-.635 1.373q-.299.251-.71.4-.41.15-.896.15-.485 0-.896-.15a2.3 2.3 0 0 1-.709-.4 1.77 1.77 0 0 1-.635-1.373q0-.28.074-.512.085-.243.225-.44a2 2 0 0 1 .709-.607v-.054a2 2 0 0 1-.559-.56 1.37 1.37 0 0 1-.234-.784q0-.383.15-.711.15-.335.42-.578t.643-.373q.374-.14.812-.14zm0 .961q-.42 0-.71.235-.279.232-.279.652 0 .411.28.654.288.233.708.233t.702-.233a.81.81 0 0 0 .289-.654q0-.42-.29-.652a1.06 1.06 0 0 0-.7-.235m0 2.707a1.4 1.4 0 0 0-.467.074q-.215.076-.373.207a.9.9 0 0 0-.252.327.9.9 0 0 0-.094.41q0 .224.084.42a1 1 0 0 0 .252.318q.168.13.383.205.214.074.466.074t.467-.074a1.2 1.2 0 0 0 .373-.205.8.8 0 0 0 .252-.318.964.964 0 0 0-.252-1.157 1.2 1.2 0 0 0-.373-.207 1.4 1.4 0 0 0-.467-.074z"/></svg>