<svg xmlns="http://www.w3.org/2000/svg" width="24" height="24"><path d="M3.578 2C2.706 2 2 2.706 2 3.578v16.844C2 21.294 2.706 22 3.578 22h13.686L22 17.264V3.578C22 2.706 21.294 2 20.422 2zM8.92 8.658q.448 0 .822.131.373.132.643.365a1.6 1.6 0 0 1 .57 1.24q0 .27-.074.495a1.4 1.4 0 0 1-.188.402q-.121.168-.271.29-.149.12-.307.204v.057q.215.093.41.242.197.14.336.336a1.62 1.62 0 0 1 .316.98q0 .419-.167.784a1.9 1.9 0 0 1-.465.617 2.1 2.1 0 0 1-.691.39q-.402.15-.877.15a2.5 2.5 0 0 1-.672-.093 2.3 2.3 0 0 1-.635-.289 2.4 2.4 0 0 1-.524-.514 2.2 2.2 0 0 1-.353-.738l.969-.4q.13.505.449.775.317.27.766.27.223 0 .43-.075a1.2 1.2 0 0 0 .372-.205q.159-.14.252-.318a.9.9 0 0 0 .092-.41.84.84 0 0 0-.102-.41.9.9 0 0 0-.261-.319 1.3 1.3 0 0 0-.4-.205 1.5 1.5 0 0 0-.487-.074h-.55v-.961h.493q.225 0 .413-.057a1.2 1.2 0 0 0 .345-.177.8.8 0 0 0 .233-.28.9.9 0 0 0 .084-.4.71.71 0 0 0-.28-.598q-.27-.224-.691-.224-.233-.001-.41.064a.9.9 0 0 0-.29.178 1.2 1.2 0 0 0-.204.252q-.076.131-.123.271l-.952-.402q.075-.225.233-.457.159-.242.402-.438a2.13 2.13 0 0 1 1.344-.45zm5.666 0q.597 0 1.082.262.486.252.822.709.345.449.531 1.064.187.607.186 1.307 0 .7-.186 1.316-.186.607-.53 1.065a2.5 2.5 0 0 1-.823.709 2.3 2.3 0 0 1-1.082.252q-.607 0-1.092-.252a2.6 2.6 0 0 1-.822-.71 3.4 3.4 0 0 1-.531-1.064A4.7 4.7 0 0 1 11.963 12q0-.7.178-1.307.186-.615.53-1.064.347-.457.823-.71a2.3 2.3 0 0 1 1.092-.26zm0 .98a1.23 1.23 0 0 0-.664.188 1.56 1.56 0 0 0-.494.494q-.196.317-.309.746a4 4 0 0 0-.101.934q0 .495.101.934.112.428.309.746.205.317.494.504.299.177.664.177.364 0 .652-.177.3-.187.494-.504.206-.318.309-.746.113-.44.113-.934a3.7 3.7 0 0 0-.113-.934 2.4 2.4 0 0 0-.309-.746 1.44 1.44 0 0 0-.494-.494 1.2 1.2 0 0 0-.652-.187z"/></svg>