<svg xmlns="http://www.w3.org/2000/svg" width="24" height="24"><path d="M3.578 2C2.706 2 2 2.706 2 3.578v16.844C2 21.294 2.706 22 3.578 22h13.686L22 17.264V3.578C22 2.706 21.294 2 20.422 2zm6.145 6.732h.738v6.385H9.424V9.984l-1.186.514-.392-.887zm2.566 0h3.482v.944h-2.613l-.234 1.662.056.017q.205-.157.475-.27.271-.111.664-.112.402 0 .766.16c.249.1.465.24.652.428q.28.28.447.671.169.393.17.87-.001.466-.17.867a2.1 2.1 0 0 1-.464.681q-.3.29-.711.457-.402.16-.887.16a2.4 2.4 0 0 1-1.334-.412 2.27 2.27 0 0 1-.877-1.316l.934-.373q.12.495.437.813.327.308.832.308.251 0 .475-.084.224-.093.382-.242a1.18 1.18 0 0 0 .346-.85q0-.261-.094-.476a1.1 1.1 0 0 0-.242-.383 1.1 1.1 0 0 0-.383-.242 1.25 1.25 0 0 0-1.044.047 1.3 1.3 0 0 0-.42.343l-1.028-.457z"/></svg>