<svg xmlns="http://www.w3.org/2000/svg" width="24" height="24"><path d="M3.578 2C2.706 2 2 2.706 2 3.578v16.844C2 21.294 2.706 22 3.578 22h13.686L22 17.264V3.578C22 2.706 21.294 2 20.422 2zm8.654 6.648.823.561-1.448 2.025.038.028a1.2 1.2 0 0 1 .271-.102 1.68 1.68 0 0 1 1.064.121q.355.15.625.42.28.271.448.654.177.383.177.83.001.45-.185.85a2.24 2.24 0 0 1-1.186 1.149 2.2 2.2 0 0 1-.84.168 2.4 2.4 0 0 1-.933-.178 2.4 2.4 0 0 1-.709-.486 2.22 2.22 0 0 1-.607-1.521q0-.607.242-1.11a8.5 8.5 0 0 1 .617-1.047zM12 12.02q-.243 0-.457.091a1.18 1.18 0 0 0-.645.618 1.2 1.2 0 0 0-.093.466q0 .261.093.475.103.216.262.375.168.159.383.252.214.084.457.084a1.16 1.16 0 0 0 .84-.336q.168-.16.262-.375.101-.214.101-.475a1.1 1.1 0 0 0-.101-.466 1.16 1.16 0 0 0-.654-.617A1.1 1.1 0 0 0 12 12.02"/></svg>