<svg xmlns="http://www.w3.org/2000/svg" width="24" height="24"><path d="M3.578 2C2.706 2 2 2.706 2 3.578v16.844C2 21.294 2.706 22 3.578 22h13.686L22 17.264V3.578C22 2.706 21.294 2 20.422 2zM9.33 8.658q.476 0 .86.15.382.15.652.401.271.252.412.588.149.336.148.719 0 .298-.093.578a2.6 2.6 0 0 1-.233.543 3 3 0 0 1-.326.474q-.177.226-.365.412l-.139.14-.225.224q-.12.12-.271.261l-.299.3-.756.755.01.037h2.772v.951H7.324v-.978q.541-.533.998-1 .196-.195.393-.4l.383-.383q.177-.187.326-.336.15-.159.234-.252.177-.207.307-.365a2 2 0 0 0 .215-.307q.084-.15.12-.299.048-.15.048-.336a.8.8 0 0 0-.075-.328.92.92 0 0 0-.523-.484 1.1 1.1 0 0 0-.438-.084 1.04 1.04 0 0 0-.738.289q-.13.121-.215.271a1 1 0 0 0-.12.28l-.942-.383q.064-.225.223-.477a2.16 2.16 0 0 1 1.008-.82q.354-.14.802-.14zm3.51.15h3.482v.942h-2.615l-.232 1.662.056.02q.204-.16.475-.272t.664-.111q.401 0 .766.158.372.15.652.43.28.279.447.672.168.39.168.867 0 .466-.168.869a2.1 2.1 0 0 1-.467.68 2.2 2.2 0 0 1-.709.459 2.4 2.4 0 0 1-.886.158q-.335 0-.68-.104a2.4 2.4 0 0 1-.654-.306 2.3 2.3 0 0 1-.532-.543 2.3 2.3 0 0 1-.345-.774l.933-.373q.12.495.438.81.328.31.832.31.251 0 .474-.085a1.2 1.2 0 0 0 .383-.242 1.18 1.18 0 0 0 .346-.85q0-.261-.094-.476a1.1 1.1 0 0 0-.242-.383 1.1 1.1 0 0 0-.383-.242 1.25 1.25 0 0 0-1.045.047 1.3 1.3 0 0 0-.42.346l-1.027-.457z"/></svg>