<svg xmlns="http://www.w3.org/2000/svg" width="24" height="24"><path d="M3.578 2C2.706 2 2 2.706 2 3.578v16.844C2 21.294 2.706 22 3.578 22h13.686L22 17.264V3.578C22 2.706 21.294 2 20.422 2H3.578zm6.78 6.732h3.48v.944h-2.613l-.233 1.662.057.017c.137-.105.294-.194.474-.27.18-.074.403-.112.665-.112.267 0 .52.054.763.16.25.1.468.24.654.428.187.186.336.41.448.671.112.262.168.552.168.87 0 .31-.056.6-.168.867a2.079 2.079 0 0 1-.467.681c-.2.193-.435.345-.709.457-.268.106-.563.16-.887.16a2.407 2.407 0 0 1-1.334-.412 2.32 2.32 0 0 1-.533-.54 2.264 2.264 0 0 1-.344-.776l.934-.373c.08.33.226.601.437.813.218.205.494.308.83.308.168 0 .328-.028.477-.084.15-.062.277-.143.383-.242a1.175 1.175 0 0 0 .346-.85c0-.174-.032-.333-.094-.476a1.059 1.059 0 0 0-.242-.383 1.059 1.059 0 0 0-.383-.242 1.254 1.254 0 0 0-.487-.094c-.205 0-.39.047-.558.14a1.26 1.26 0 0 0-.42.344l-1.027-.457.382-3.21z"/></svg>