<svg xmlns="http://www.w3.org/2000/svg" width="24" height="24"><path d="M3.578 2C2.706 2 2 2.706 2 3.578v16.844C2 21.294 2.706 22 3.578 22h13.686L22 17.264V3.578C22 2.706 21.294 2 20.422 2zm10.307 6.658q.438 0 .812.14.374.131.645.374.27.242.42.578.149.328.148.71 0 .44-.232.784-.234.346-.56.56v.055q.204.103.382.262.186.15.326.346t.215.44q.084.232.084.511a1.77 1.77 0 0 1-.635 1.373q-.298.251-.709.4t-.896.15-.895-.15a2.3 2.3 0 0 1-.71-.4 1.77 1.77 0 0 1-.635-1.373q0-.28.076-.512.083-.243.222-.44a1.96 1.96 0 0 1 .71-.607l.001-.054a2 2 0 0 1-.56-.56 1.37 1.37 0 0 1-.235-.784q0-.383.15-.711.15-.335.42-.578.271-.243.645-.373.374-.14.81-.14zm-4.135.15h.738v6.383H9.451V10.06l-1.183.513-.393-.886L9.75 8.81zm4.135.811q-.42 0-.71.235-.279.232-.279.652 0 .411.28.654.29.233.709.233.42 0 .7-.233a.81.81 0 0 0 .29-.654q0-.42-.29-.652a1.06 1.06 0 0 0-.7-.235m0 2.707q-.252 0-.467.074-.214.076-.373.207a.9.9 0 0 0-.252.327.9.9 0 0 0-.094.41q0 .224.084.42a1 1 0 0 0 .252.318q.168.13.383.205t.467.074.467-.074a1.2 1.2 0 0 0 .373-.205.8.8 0 0 0 .252-.318.964.964 0 0 0-.252-1.157 1.2 1.2 0 0 0-.373-.207 1.4 1.4 0 0 0-.467-.074"/></svg>