<svg xmlns="http://www.w3.org/2000/svg" width="24" height="24"><path d="M3.578 2C2.706 2 2 2.706 2 3.578v16.844C2 21.294 2.706 22 3.578 22h13.686L22 17.264V3.578C22 2.706 21.294 2 20.422 2H3.578zm5.856 6.658c.317 0 .604.051.859.15.255.1.472.233.652.401.18.168.317.364.41.588a1.815 1.815 0 0 1 .057 1.297 3.06 3.06 0 0 1-.56 1.018c-.119.149-.24.287-.364.411l-.14.14-.225.224c-.08.08-.17.168-.27.261l-.298.3-.756.755.01.037h2.771v.951H7.426v-.978a75.666 75.666 0 0 0 1.39-1.4l.383-.383c.118-.125.229-.237.328-.336.1-.106.177-.19.233-.252.118-.137.221-.26.308-.365.087-.106.16-.208.215-.307.056-.1.096-.2.121-.299.031-.1.047-.211.047-.336a.765.765 0 0 0-.074-.328.79.79 0 0 0-.197-.28.912.912 0 0 0-.326-.204 1.065 1.065 0 0 0-.44-.084 1.038 1.038 0 0 0-.736.289c-.087.08-.16.172-.215.271a1.087 1.087 0 0 0-.121.28l-.944-.383a2.04 2.04 0 0 1 .635-.941c.168-.144.368-.263.598-.356.236-.094.504-.14.803-.14zm2.949.15h4.219v1.036l-3.053 5.498-.895-.477 2.809-5.039-.02-.039h-3.08l.02-.978z"/></svg>