<svg xmlns="http://www.w3.org/2000/svg" width="24" height="24"><path d="M3.578 2C2.706 2 2 2.706 2 3.578v16.844C2 21.294 2.706 22 3.578 22h13.686L22 17.264V3.578C22 2.706 21.294 2 20.422 2zM8.91 8.658q.476 0 .86.15.382.15.652.401.271.252.412.588.149.336.148.719 0 .298-.093.578a2.6 2.6 0 0 1-.233.543 3 3 0 0 1-.326.474q-.177.226-.365.412l-.139.14-.224.224q-.122.12-.272.261l-.299.3-.756.755.01.037h2.772v.951H6.904v-.978q.541-.533.998-1 .196-.195.393-.4l.383-.383q.177-.187.326-.336.15-.159.234-.252.178-.207.307-.365a2 2 0 0 0 .215-.307q.084-.15.12-.299.048-.15.048-.336a.8.8 0 0 0-.074-.328.92.92 0 0 0-.523-.484 1.1 1.1 0 0 0-.438-.084 1.04 1.04 0 0 0-.739.289q-.13.121-.215.271a1 1 0 0 0-.12.28l-.942-.383a2.04 2.04 0 0 1 .633-.941q.252-.216.597-.356a2.2 2.2 0 0 1 .803-.14zm5.592 0q.596 0 1.082.262.486.252.822.709.345.449.532 1.064.185.607.185 1.307t-.186 1.316q-.186.607-.53 1.065a2.5 2.5 0 0 1-.823.709 2.3 2.3 0 0 1-1.082.252q-.606 0-1.092-.252a2.6 2.6 0 0 1-.822-.71 3.4 3.4 0 0 1-.531-1.064A4.7 4.7 0 0 1 11.879 12q0-.7.178-1.307.186-.615.53-1.064.347-.457.823-.71a2.27 2.27 0 0 1 1.092-.26zm0 .98a1.23 1.23 0 0 0-.664.188 1.56 1.56 0 0 0-.494.494q-.196.317-.309.746a4 4 0 0 0-.101.934q0 .495.101.934.113.428.309.746.205.317.494.504.299.177.664.177.364 0 .652-.177.3-.187.494-.504.206-.318.309-.746.112-.44.111-.934 0-.504-.111-.934a2.4 2.4 0 0 0-.309-.746 1.44 1.44 0 0 0-.494-.494 1.18 1.18 0 0 0-.652-.187z"/></svg>