<svg xmlns="http://www.w3.org/2000/svg" width="24" height="24"><path d="M3.578 2C2.706 2 2 2.706 2 3.578v16.844C2 21.294 2.706 22 3.578 22h13.686L22 17.264V3.578C22 2.706 21.294 2 20.422 2zm10.565 6.648.82.561-1.445 2.025.037.028q.12-.065.27-.102a1.68 1.68 0 0 1 1.064.121 2.06 2.06 0 0 1 1.074 1.074q.176.383.176.83 0 .45-.186.85a2.24 2.24 0 0 1-1.185 1.149 2.2 2.2 0 0 1-.84.168q-.514 0-.934-.178a2.4 2.4 0 0 1-.709-.486 2.22 2.22 0 0 1-.607-1.521q0-.607.242-1.11a8.5 8.5 0 0 1 .617-1.047zm-4.407.168h.739v6.385H9.438v-5.133l-1.186.514-.39-.887zm4.172 3.204q-.243 0-.457.091a1.18 1.18 0 0 0-.644.618 1.2 1.2 0 0 0-.092.466q0 .261.092.475.103.216.261.375.168.159.383.252.214.084.457.084a1.16 1.16 0 0 0 .84-.336q.168-.16.262-.375.102-.214.103-.475a1.1 1.1 0 0 0-.103-.466 1 1 0 0 0-.262-.374 1.2 1.2 0 0 0-.39-.244 1.1 1.1 0 0 0-.45-.091"/></svg>