<svg xmlns="http://www.w3.org/2000/svg" width="24" height="24"><path d="M3.578 2C2.706 2 2 2.706 2 3.578v16.844C2 21.294 2.706 22 3.578 22h13.686L22 17.264V3.578C22 2.706 21.294 2 20.422 2zm8.365 6.732c.318 0 .605.051.86.15.255.1.472.233.652.401.18.168.319.364.412.588a1.827 1.827 0 0 1 .055 1.299 2.58 2.58 0 0 1-.233.54 3.076 3.076 0 0 1-.326.477c-.118.15-.24.286-.365.41l-.139.141-.224.223c-.081.08-.172.168-.272.262l-.299.298-.755.756.01.037h2.77v.954H9.938v-.98c.361-.356.694-.69.999-1 .13-.132.261-.264.392-.401l.383-.383a17.421 17.421 0 0 0 .56-.588c.119-.137.22-.257.307-.363.087-.106.159-.21.215-.309.056-.1.096-.2.121-.299.031-.1.047-.211.047-.336a.757.757 0 0 0-.074-.326.92.92 0 0 0-.523-.486 1.055 1.055 0 0 0-.438-.084 1.038 1.038 0 0 0-.739.289c-.087.08-.158.172-.214.271a1.087 1.087 0 0 0-.121.28l-.942-.383a2.058 2.058 0 0 1 .635-.941c.168-.144.365-.263.596-.356.236-.093.504-.14.802-.14z"/></svg>