<svg xmlns="http://www.w3.org/2000/svg" width="24" height="24"><path d="M3.578 2C2.706 2 2 2.706 2 3.578v16.844C2 21.294 2.706 22 3.578 22h13.686L22 17.264V3.578C22 2.706 21.294 2 20.422 2zm5.744 6.648q.476 0 .858.15.383.15.654.401.27.252.41.588a1.83 1.83 0 0 1 .057 1.299 3.1 3.1 0 0 1-.56 1.018q-.178.223-.364.41l-.14.14-.225.223q-.12.12-.27.262l-.299.299-.755.755.007.037h2.774v.954H7.314v-.98q.542-.534.998-1 .197-.197.393-.401l.383-.383a17 17 0 0 0 .56-.588q.178-.205.307-.363.13-.16.215-.309.085-.15.123-.299.046-.15.045-.336a.8.8 0 0 0-.074-.326.9.9 0 0 0-.521-.486 1.1 1.1 0 0 0-.44-.084 1.04 1.04 0 0 0-.739.289 1.1 1.1 0 0 0-.212.271 1.1 1.1 0 0 0-.123.28l-.942-.383a2.06 2.06 0 0 1 .635-.941q.252-.216.598-.356.354-.14.802-.14zm5.15 0q.506 0 .917.188.42.177.709.486.298.299.457.7.158.391.158.812 0 .606-.252 1.12a8 8 0 0 1-.606 1.036l-1.605 2.362-.822-.57 1.447-2.016-.037-.037q-.252.149-.625.148-.364 0-.719-.148a2.3 2.3 0 0 1-.627-.43 2.4 2.4 0 0 1-.447-.654 2.1 2.1 0 0 1-.168-.84q0-.448.178-.84.186-.401.484-.69.307-.29.709-.459.402-.168.85-.168zm.01.971q-.241 0-.457.094a1.2 1.2 0 0 0-.382.242 1.16 1.16 0 0 0-.355.842q0 .251.093.474.102.216.262.374.169.159.382.251a1.24 1.24 0 0 0 1.297-.251q.168-.159.262-.374a1.12 1.12 0 0 0 0-.94 1 1 0 0 0-.262-.376 1.1 1.1 0 0 0-.383-.242 1.1 1.1 0 0 0-.457-.094"/></svg>