<svg xmlns="http://www.w3.org/2000/svg" width="24" height="24"><path d="M3.578 2C2.706 2 2 2.706 2 3.578v16.844C2 21.294 2.706 22 3.578 22h13.686L22 17.264V3.578C22 2.706 21.294 2 20.422 2zm10.326 6.658q.598 0 1.082.262.486.252.823.709.345.449.53 1.064.188.607.188 1.307t-.187 1.316a3.4 3.4 0 0 1-.531 1.065 2.5 2.5 0 0 1-.823.709 2.3 2.3 0 0 1-1.082.252 2.3 2.3 0 0 1-1.091-.252 2.6 2.6 0 0 1-.823-.71 3.4 3.4 0 0 1-.531-1.064A4.7 4.7 0 0 1 11.281 12q0-.7.178-1.307.186-.615.531-1.064a2.5 2.5 0 0 1 .822-.71 2.3 2.3 0 0 1 1.092-.26zm-4.554.15h.736v6.383H9.05V10.06l-1.186.513-.392-.886 1.877-.877zm4.554.83a1.23 1.23 0 0 0-.662.188 1.6 1.6 0 0 0-.496.494q-.195.318-.307.746a4 4 0 0 0-.103.934q0 .495.103.934.112.428.307.746.206.317.496.504.3.177.662.177.364 0 .653-.177.299-.187.496-.504.205-.318.306-.746.113-.44.114-.934a3.7 3.7 0 0 0-.114-.934 2.4 2.4 0 0 0-.306-.746 1.45 1.45 0 0 0-.496-.494 1.2 1.2 0 0 0-.653-.187z"/></svg>