<svg xmlns="http://www.w3.org/2000/svg" width="24" height="24"><path d="M3.578 2C2.706 2 2 2.706 2 3.578v16.844C2 21.294 2.706 22 3.578 22h13.686L22 17.264V3.578C22 2.706 21.294 2 20.422 2H3.578zm6.145 6.732h.738v6.385H9.424V9.984l-1.186.514-.392-.887 1.877-.879m2.566 0h3.482v.944h-2.613l-.234 1.662.056.017c.137-.105.295-.194.475-.27.18-.074.403-.112.664-.112.268 0 .523.054.766.16.249.1.465.24.652.428.187.186.335.41.447.671.112.262.17.552.17.87 0 .31-.058.6-.17.867a2.073 2.073 0 0 1-.464.681c-.2.193-.438.345-.711.457-.268.106-.564.16-.887.16a2.419 2.419 0 0 1-1.334-.412 2.266 2.266 0 0 1-.877-1.316l.934-.373c.08.33.225.601.437.813.218.205.496.308.832.308.168 0 .325-.028.475-.084.149-.062.277-.143.382-.242a1.175 1.175 0 0 0 .346-.85c0-.174-.031-.333-.094-.476a1.059 1.059 0 0 0-.242-.383 1.059 1.059 0 0 0-.383-.242 1.245 1.245 0 0 0-1.044.047 1.26 1.26 0 0 0-.42.343l-1.028-.457.383-3.21z"/></svg>