<svg xmlns="http://www.w3.org/2000/svg" width="24" height="24"><path d="M3.578 2C2.706 2 2 2.706 2 3.578v16.844C2 21.294 2.706 22 3.578 22h13.686L22 17.264V3.578C22 2.706 21.294 2 20.422 2H3.578zm10.223 6.658c.298 0 .573.044.822.131.249.087.464.21.645.365a1.604 1.604 0 0 1 .568 1.24c0 .181-.025.345-.074.495a1.415 1.415 0 0 1-.188.402 1.5 1.5 0 0 1-.27.29 1.91 1.91 0 0 1-.308.204v.057c.143.062.28.142.41.242.13.093.243.205.336.336a1.624 1.624 0 0 1 .318.98c0 .28-.055.54-.167.784a1.885 1.885 0 0 1-.467.617 2.084 2.084 0 0 1-.692.39c-.267.1-.56.15-.877.15a2.5 2.5 0 0 1-.671-.093 2.247 2.247 0 0 1-.635-.289 2.403 2.403 0 0 1-.524-.514 2.2 2.2 0 0 1-.353-.738l.97-.4c.088.336.236.595.448.775.211.18.467.27.765.27.15 0 .293-.025.43-.075a1.2 1.2 0 0 0 .373-.205c.106-.093.19-.2.252-.318a.903.903 0 0 0-.01-.82.922.922 0 0 0-.261-.319 1.28 1.28 0 0 0-.4-.205 1.532 1.532 0 0 0-.487-.074h-.55v-.961h.495c.15 0 .286-.02.41-.057a1.21 1.21 0 0 0 .346-.177.778.778 0 0 0 .232-.28.922.922 0 0 0 .084-.4.71.71 0 0 0-.279-.598c-.18-.15-.411-.224-.691-.224-.156 0-.292.02-.41.064a.904.904 0 0 0-.29.178 1.155 1.155 0 0 0-.325.523l-.954-.402c.05-.15.129-.302.235-.457.105-.162.238-.307.4-.438a2.12 2.12 0 0 1 1.344-.45zm-3.985.15h.737v6.383H9.518V10.06l-1.186.513-.393-.886 1.877-.877z"/></svg>