<svg xmlns="http://www.w3.org/2000/svg" width="192" height="192" viewBox="0 0 192 192"><path d="M31.151 19C24.437 19 19 24.436 19 31.151v129.7c0 6.714 5.436 12.151 12.151 12.151h105.38l36.467-36.467V31.155c0-6.714-5.436-12.151-12.151-12.151zm44.16 51.267q3.657 0 6.599 1.155 2.949 1.155 5.036 3.088 2.079 1.94 3.157 4.527a14.014 14.014 0 0 1 .439 9.987 23.87 23.87 0 0 1-4.312 7.839q-1.371 1.725-2.803 3.164l-1.078 1.078-1.733 1.725q-.924.924-2.079 2.01l-2.294 2.31-5.822 5.813.077.285h21.337v7.323H59.85v-7.53a585.2 585.2 0 0 0 10.703-10.78l2.95-2.95q1.37-1.44 2.525-2.587 1.155-1.224 1.794-1.94 1.363-1.586 2.372-2.81t1.655-2.365q.647-1.155.932-2.302.362-1.155.362-2.587a6.16 6.16 0 0 0-.585-2.526 6.16 6.16 0 0 0-1.502-2.156 6.93 6.93 0 0 0-2.518-1.57 8.47 8.47 0 0 0-3.38-.647 8.008 8.008 0 0 0-5.667 2.225q-1.009.932-1.656 2.087a7.7 7.7 0 0 0-.931 2.156l-7.27-2.95a15.708 15.708 0 0 1 4.89-7.245 16.94 16.94 0 0 1 4.605-2.741q2.726-1.078 6.183-1.078zm39.809 0q3.373 0 6.252 1.078 2.88 1.009 4.96 2.88c2.078 1.87 2.463 2.726 3.233 4.45q1.155 2.526 1.147 5.467 0 3.388-1.794 6.037-1.794 2.664-4.312 4.312v.424q1.579.793 2.95 2.017 1.424 1.155 2.51 2.664 1.078 1.502 1.655 3.388.647 1.787.647 3.935a13.629 13.629 0 0 1-4.89 10.572q-2.302 1.933-5.466 3.08-3.158 1.155-6.9 1.155-3.734 0-6.899-1.155a17.71 17.71 0 0 1-5.46-3.08 13.629 13.629 0 0 1-4.889-10.572q0-2.156.57-3.942.655-1.872 1.733-3.388a15.4 15.4 0 0 1 5.459-4.674v-.416a15.4 15.4 0 0 1-4.304-4.312 10.549 10.549 0 0 1-1.802-6.037q0-2.949 1.155-5.475 1.155-2.58 3.234-4.45t4.95-2.872q2.88-1.078 6.253-1.078zm0 7.4q-3.234 0-5.467 1.81-2.148 1.786-2.148 5.02 0 3.164 2.156 5.035 2.217 1.794 5.451 1.794t5.406-1.794a6.237 6.237 0 0 0 2.225-5.035q0-3.234-2.233-5.02a8.162 8.162 0 0 0-5.39-1.81m0 20.844a10.78 10.78 0 0 0-3.596.57q-1.655.585-2.872 1.593a6.93 6.93 0 0 0-1.94 2.518 6.93 6.93 0 0 0-.724 3.157q0 1.725.647 3.234a7.7 7.7 0 0 0 1.94 2.449q1.294 1 2.95 1.578 1.647.57 3.587.57t3.596-.57a9.24 9.24 0 0 0 2.872-1.578 6.16 6.16 0 0 0 1.94-2.449 7.423 7.423 0 0 0-1.94-8.909 9.24 9.24 0 0 0-2.872-1.594 10.78 10.78 0 0 0-3.596-.57z"/></svg>