<svg xmlns="http://www.w3.org/2000/svg" width="192" height="192" viewBox="0 0 192 192"><path d="M31.151 19C24.437 19 19 24.436 19 31.151v129.7c0 6.714 5.436 12.151 12.151 12.151h105.38l36.467-36.467V31.155c0-6.714-5.436-12.151-12.151-12.151zm66.636 51.19 6.337 4.32-11.15 15.592.293.215a9.24 9.24 0 0 1 2.086-.785 12.936 12.936 0 0 1 8.193.932q2.734 1.155 4.813 3.234 2.156 2.086 3.45 5.035 1.362 2.95 1.362 6.391.008 3.465-1.424 6.545a17.248 17.248 0 0 1-9.133 8.848 16.94 16.94 0 0 1-6.468 1.293 18.48 18.48 0 0 1-7.184-1.37 18.48 18.48 0 0 1-5.459-3.742 17.094 17.094 0 0 1-4.674-11.712q0-4.674 1.864-8.548a65.45 65.45 0 0 1 4.75-8.061zm-1.786 25.964q-1.872 0-3.52.7a9.086 9.086 0 0 0-4.966 4.76 9.24 9.24 0 0 0-.716 3.587q0 2.01.716 3.658.793 1.663 2.018 2.888 1.293 1.224 2.949 1.94 1.647.647 3.519.647a8.932 8.932 0 0 0 6.468-2.588q1.293-1.231 2.017-2.887.778-1.648.778-3.657a8.47 8.47 0 0 0-.778-3.589 8.932 8.932 0 0 0-5.036-4.75 8.47 8.47 0 0 0-3.45-.709"/></svg>