<svg xmlns="http://www.w3.org/2000/svg" width="24" height="24"><path d="M3.578 2C2.706 2 2 2.706 2 3.578v16.844C2 21.294 2.706 22 3.578 22h13.686L22 17.264V3.578C22 2.706 21.294 2 20.422 2H3.578zm11.139 6.648.82.561-1.447 2.025.039.028c.08-.044.17-.077.27-.102a1.68 1.68 0 0 1 1.064.121 2.036 2.036 0 0 1 1.072 1.074c.118.256.178.532.178.83 0 .3-.061.583-.186.85a2.237 2.237 0 0 1-1.185 1.149 2.153 2.153 0 0 1-.84.168c-.342 0-.654-.06-.934-.178a2.392 2.392 0 0 1-.709-.486 2.22 2.22 0 0 1-.607-1.521c0-.405.08-.774.242-1.11a8.49 8.49 0 0 1 .617-1.047l1.606-2.362zm-5.395.02c.318 0 .603.049.858.148.255.1.474.235.654.403.18.168.317.364.41.588.1.224.149.463.149.718 0 .2-.03.392-.092.579a3.076 3.076 0 0 1-.56 1.018c-.119.148-.24.285-.364.41l-.14.14-.225.224c-.081.081-.17.169-.27.262l-.299.297-.755.758.007.037h2.774v.951H7.314v-.98a75.36 75.36 0 0 0 1.391-1.399l.383-.383c.118-.124.227-.236.326-.335.1-.106.178-.19.234-.252.119-.137.22-.26.307-.366.087-.105.159-.209.215-.308.056-.1.098-.198.123-.297.031-.1.045-.212.045-.336a.765.765 0 0 0-.074-.328.784.784 0 0 0-.196-.28.912.912 0 0 0-.326-.205 1.065 1.065 0 0 0-.44-.084 1.038 1.038 0 0 0-.738.29 1.1 1.1 0 0 0-.212.269 1.106 1.106 0 0 0-.123.281l-.942-.383c.044-.149.117-.308.223-.476.106-.168.244-.324.412-.467.168-.143.367-.26.598-.353.236-.094.504-.141.802-.141zm5.16 3.352c-.161 0-.313.03-.457.091a1.182 1.182 0 0 0-.644.618 1.158 1.158 0 0 0-.094.466c0 .175.032.332.094.475.068.143.156.27.262.375.112.106.24.19.382.252.144.056.296.084.457.084a1.16 1.16 0 0 0 .84-.336c.112-.106.2-.232.262-.375.068-.143.104-.3.104-.475 0-.168-.036-.323-.104-.466a1.16 1.16 0 0 0-.654-.617 1.107 1.107 0 0 0-.448-.092z"/></svg>