<svg xmlns="http://www.w3.org/2000/svg" width="192" height="192" viewBox="0 0 192 192"><path d="M31.151 19C24.437 19 19 24.436 19 31.151v129.7c0 6.714 5.436 12.151 12.151 12.151h105.38l36.467-36.467V31.155c0-6.714-5.436-12.151-12.151-12.151zm81.35 51.19 6.314 4.32-11.126 15.592.285.215q.924-.5 2.079-.785a12.936 12.936 0 0 1 8.193.932 15.862 15.862 0 0 1 8.27 8.27q1.355 2.949 1.355 6.39 0 3.465-1.433 6.545a17.248 17.248 0 0 1-9.124 8.848 16.94 16.94 0 0 1-6.468 1.293q-3.958 0-7.192-1.37a18.48 18.48 0 0 1-5.46-3.742 17.094 17.094 0 0 1-4.673-11.712q0-4.674 1.863-8.547a65.45 65.45 0 0 1 4.751-8.062zm-33.934 1.294h5.69v49.164h-7.985V81.124L67.14 85.08l-3.003-6.83zm32.124 24.67q-1.871 0-3.519.701a9.086 9.086 0 0 0-4.959 4.759 9.24 9.24 0 0 0-.708 3.588q0 2.01.708 3.658.793 1.663 2.01 2.887 1.294 1.224 2.95 1.94 1.647.647 3.518.647a8.932 8.932 0 0 0 6.468-2.587q1.294-1.232 2.017-2.887.786-1.648.793-3.658a8.47 8.47 0 0 0-.793-3.588 7.7 7.7 0 0 0-2.017-2.88 9.24 9.24 0 0 0-3.003-1.879 8.47 8.47 0 0 0-3.465-.7"/></svg>