<svg xmlns="http://www.w3.org/2000/svg" width="24" height="24"><path d="M3.578 2C2.706 2 2 2.706 2 3.578v16.844C2 21.294 2.706 22 3.578 22h13.686L22 17.264V3.578C22 2.706 21.294 2 20.422 2H3.578zm10.326 6.658c.399 0 .759.088 1.082.262.324.168.599.404.823.709.23.299.406.654.53 1.064.125.405.188.84.188 1.307 0 .467-.063.906-.187 1.316a3.43 3.43 0 0 1-.531 1.065 2.497 2.497 0 0 1-.823.709 2.311 2.311 0 0 1-1.082.252 2.33 2.33 0 0 1-1.091-.252 2.628 2.628 0 0 1-.823-.71 3.415 3.415 0 0 1-.531-1.064A4.74 4.74 0 0 1 11.281 12c0-.467.06-.902.178-1.307.124-.41.301-.765.531-1.064a2.49 2.49 0 0 1 .822-.71 2.266 2.266 0 0 1 1.092-.26zm-4.554.15h.736v6.383H9.05V10.06l-1.186.513-.392-.886 1.877-.877zm4.554.83a1.23 1.23 0 0 0-.662.188 1.568 1.568 0 0 0-.496.494c-.13.212-.232.46-.307.746a4.01 4.01 0 0 0-.103.934c0 .33.035.641.103.934.075.286.176.534.307.746.137.211.303.38.496.504.2.118.42.177.662.177.243 0 .46-.06.653-.177.199-.125.365-.293.496-.504.137-.212.238-.46.306-.746.075-.293.114-.604.114-.934a3.69 3.69 0 0 0-.114-.934 2.379 2.379 0 0 0-.306-.746 1.45 1.45 0 0 0-.496-.494 1.176 1.176 0 0 0-.653-.187z"/></svg>