<svg xmlns="http://www.w3.org/2000/svg" width="24" height="24"><path d="M3.578 2C2.706 2 2 2.706 2 3.578v16.844C2 21.294 2.706 22 3.578 22h13.686L22 17.264V3.578C22 2.706 21.294 2 20.422 2zm8.402 6.658c.336 0 .643.063.916.188.28.118.517.279.71.484.199.2.35.434.457.701.105.262.158.53.158.81 0 .405-.084.78-.252 1.122-.162.336-.363.68-.606 1.035l-1.605 2.361-.822-.568 1.447-2.016-.037-.037c-.168.1-.376.149-.625.149-.243 0-.483-.05-.719-.149a2.24 2.24 0 0 1-.625-.43 2.443 2.443 0 0 1-.45-.654 2.066 2.066 0 0 1-.167-.84c0-.298.06-.578.178-.84.124-.267.285-.498.484-.69a2.36 2.36 0 0 1 .71-.458 2.17 2.17 0 0 1 .848-.168m.01.97a1.12 1.12 0 0 0-.457.095c-.143.056-.27.136-.383.242a1.18 1.18 0 0 0-.261.373 1.157 1.157 0 0 0-.092.467c0 .168.03.327.092.476.068.143.156.268.261.373.112.106.24.19.383.252.143.056.295.084.457.084.156 0 .306-.028.45-.084a1.27 1.27 0 0 0 .39-.252c.112-.105.2-.23.262-.373a1.132 1.132 0 0 0 0-.943 1.01 1.01 0 0 0-.262-.373 1.059 1.059 0 0 0-.383-.242 1.133 1.133 0 0 0-.457-.094z"/></svg>