<svg xmlns="http://www.w3.org/2000/svg" width="24" height="24"><path d="M3.578 2C2.706 2 2 2.706 2 3.578v16.844C2 21.294 2.706 22 3.578 22h13.686L22 17.264V3.578C22 2.706 21.294 2 20.422 2zm10.299 6.648q.504 0 .914.188.42.177.709.486.299.299.457.7.158.391.158.812 0 .606-.252 1.12a8 8 0 0 1-.605 1.036l-1.606 2.362-.822-.57 1.447-2.016-.037-.037q-.252.149-.625.148-.363 0-.719-.148a2.2 2.2 0 0 1-.625-.43 2.4 2.4 0 0 1-.449-.654 2.1 2.1 0 0 1-.168-.84q0-.448.178-.84.186-.401.484-.69.31-.29.711-.459.402-.168.85-.168m-4.117.15h.738v6.386H9.461v-5.135l-1.186.514-.39-.887zm4.125.821q-.243 0-.457.094a1.2 1.2 0 0 0-.383.242 1.2 1.2 0 0 0-.262.375 1.2 1.2 0 0 0-.092.467q0 .251.092.474.103.216.262.374.168.159.383.251.214.084.457.084.233 0 .449-.084.224-.093.39-.251.17-.159.262-.374a1.12 1.12 0 0 0 0-.94 1 1 0 0 0-.261-.376 1.1 1.1 0 0 0-.383-.242 1.1 1.1 0 0 0-.457-.094"/></svg>