<svg xmlns="http://www.w3.org/2000/svg" width="24" height="24"><path d="M3.578 2C2.706 2 2 2.706 2 3.578v16.844C2 21.294 2.706 22 3.578 22h13.686L22 17.264V3.578C22 2.706 21.294 2 20.422 2zm10.307 6.658c.292 0 .563.047.812.14.25.088.464.212.645.374.18.162.32.354.42.578.1.218.148.456.148.71 0 .293-.077.554-.232.784-.156.23-.343.418-.56.56v.055c.136.069.264.156.382.262.124.1.233.215.326.346.094.13.165.277.215.44.056.155.084.324.084.511a1.766 1.766 0 0 1-.635 1.373c-.199.168-.435.3-.709.4-.274.1-.573.15-.896.15-.324 0-.621-.05-.895-.15a2.321 2.321 0 0 1-.71-.4 1.766 1.766 0 0 1-.635-1.373c0-.187.026-.356.076-.512.056-.162.129-.309.222-.44a1.961 1.961 0 0 1 .71-.607l.001-.054a2.003 2.003 0 0 1-.56-.56 1.366 1.366 0 0 1-.235-.784c0-.255.051-.493.15-.711.1-.224.24-.416.42-.578.181-.162.396-.286.645-.373.25-.094.518-.14.81-.14zm-4.135.15h.738v6.383H9.451V10.06l-1.183.513-.393-.886L9.75 8.81zm4.135.811c-.28 0-.516.079-.71.235-.186.155-.279.372-.279.652 0 .274.093.492.28.654.193.156.429.233.709.233.28 0 .514-.077.7-.233a.81.81 0 0 0 .29-.654c0-.28-.096-.497-.29-.652a1.06 1.06 0 0 0-.7-.235m0 2.707c-.168 0-.324.025-.467.074-.143.05-.267.12-.373.207a.938.938 0 0 0-.252.327.903.903 0 0 0-.094.41c0 .15.028.289.084.42a.97.97 0 0 0 .252.318c.112.087.24.155.383.205.143.05.299.074.467.074.168 0 .323-.024.467-.074a1.2 1.2 0 0 0 .373-.205.832.832 0 0 0 .252-.318.964.964 0 0 0-.252-1.157 1.204 1.204 0 0 0-.373-.207 1.412 1.412 0 0 0-.467-.074"/></svg>