<svg xmlns="http://www.w3.org/2000/svg" width="24" height="24"><path d="M3.578 2C2.706 2 2 2.706 2 3.578v16.844C2 21.294 2.706 22 3.578 22h13.686L22 17.264V3.578C22 2.706 21.294 2 20.422 2zm5.856 6.658q.476 0 .859.15.382.15.652.401.27.252.41.588a1.82 1.82 0 0 1 .057 1.297 3.1 3.1 0 0 1-.56 1.018q-.178.224-.364.411l-.14.14-.225.224q-.12.12-.27.261l-.298.3-.756.755.01.037h2.771v.951H7.426v-.978a76 76 0 0 0 1.39-1.4l.383-.383q.178-.187.328-.336.15-.159.233-.252.177-.206.308-.365t.215-.307q.084-.15.121-.299.047-.15.047-.336a.8.8 0 0 0-.074-.328.8.8 0 0 0-.197-.28.9.9 0 0 0-.326-.204 1.1 1.1 0 0 0-.44-.084 1.04 1.04 0 0 0-.736.289q-.131.121-.215.271a1 1 0 0 0-.121.28l-.944-.383a2.04 2.04 0 0 1 .635-.941 2.2 2.2 0 0 1 .598-.356q.354-.14.803-.14zm2.949.15h4.219v1.036l-3.053 5.498-.895-.477 2.809-5.039-.02-.039h-3.08l.02-.978z"/></svg>