<svg xmlns="http://www.w3.org/2000/svg" width="24" height="24"><path d="M3.578 2C2.706 2 2 2.706 2 3.578v16.844C2 21.294 2.706 22 3.578 22h13.686L22 17.264V3.578C22 2.706 21.294 2 20.422 2H3.578zm6.715 6.732c.317 0 .602.051.857.15.256.1.474.233.655.401.18.168.317.364.41.588.1.224.148.464.148.719 0 .199-.03.393-.092.58a3.076 3.076 0 0 1-.56 1.018c-.118.149-.24.285-.365.41l-.139.14-.225.223c-.08.08-.17.168-.27.262l-.298.298-.756.756.008.037h2.773v.954H8.285v-.98c.361-.356.693-.69.998-1 .13-.132.262-.264.393-.401l.383-.383c.118-.125.226-.236.326-.336.1-.106.178-.19.234-.252.118-.137.22-.257.307-.363.087-.106.159-.21.215-.309.056-.1.096-.2.12-.299.032-.1.048-.211.048-.336a.756.756 0 0 0-.075-.326.912.912 0 0 0-.521-.486 1.065 1.065 0 0 0-.44-.084 1.038 1.038 0 0 0-.738.289c-.087.08-.157.172-.213.271a1.095 1.095 0 0 0-.123.28l-.941-.383c.043-.15.117-.307.222-.475.106-.168.245-.323.413-.466.168-.144.367-.263.597-.356.237-.093.504-.14.803-.14zm4.713.15h.736v6.386h-1.035v-5.135l-1.186.513-.392-.886 1.877-.877z"/></svg>