<svg xmlns="http://www.w3.org/2000/svg" width="24" height="24"><path d="M3.578 2C2.706 2 2 2.706 2 3.578v16.844C2 21.294 2.706 22 3.578 22h13.686L22 17.264V3.578C22 2.706 21.294 2 20.422 2zm10.223 6.658q.448 0 .822.131t.645.365a1.6 1.6 0 0 1 .568 1.24q0 .27-.074.495a1.4 1.4 0 0 1-.188.402 1.5 1.5 0 0 1-.27.29 2 2 0 0 1-.308.204v.057q.215.092.41.242.196.14.336.336a1.62 1.62 0 0 1 .318.98q0 .419-.167.784a1.9 1.9 0 0 1-.467.617 2.1 2.1 0 0 1-.692.39q-.401.15-.877.15a2.5 2.5 0 0 1-.671-.093 2.3 2.3 0 0 1-.635-.289 2.4 2.4 0 0 1-.524-.514 2.2 2.2 0 0 1-.353-.738l.97-.4q.131.505.448.775t.765.27q.225 0 .43-.075a1.2 1.2 0 0 0 .373-.205q.159-.14.252-.318a.9.9 0 0 0-.01-.82.9.9 0 0 0-.261-.319 1.3 1.3 0 0 0-.4-.205 1.5 1.5 0 0 0-.487-.074h-.55v-.961h.495q.224 0 .41-.057a1.2 1.2 0 0 0 .346-.177.8.8 0 0 0 .232-.28.9.9 0 0 0 .084-.4.71.71 0 0 0-.279-.598q-.27-.224-.691-.224-.234-.001-.41.064a.9.9 0 0 0-.29.178 1.16 1.16 0 0 0-.325.523l-.954-.402q.076-.225.235-.457.157-.242.4-.438a2.12 2.12 0 0 1 1.344-.45zm-3.985.15h.737v6.383H9.518V10.06l-1.186.513-.393-.886 1.877-.877z"/></svg>