<svg xmlns="http://www.w3.org/2000/svg" width="24" height="24"><path d="M3.578 2C2.706 2 2 2.706 2 3.578v16.844C2 21.294 2.706 22 3.578 22h13.686L22 17.264V3.578C22 2.706 21.294 2 20.422 2zm8.365 6.732q.477 0 .86.15.382.15.652.401.271.252.412.588a1.83 1.83 0 0 1 .055 1.299 2.6 2.6 0 0 1-.233.54 3 3 0 0 1-.326.477q-.177.224-.365.41l-.139.141-.224.223q-.122.12-.272.262l-.299.298-.755.756.01.037h2.77v.954H9.938v-.98q.542-.534.999-1 .195-.197.392-.401l.383-.383a17 17 0 0 0 .56-.588q.178-.205.307-.363.13-.16.215-.309.084-.15.121-.299.047-.15.047-.336a.8.8 0 0 0-.074-.326.92.92 0 0 0-.523-.486 1.1 1.1 0 0 0-.438-.084 1.04 1.04 0 0 0-.739.289q-.13.121-.214.271a1 1 0 0 0-.121.28l-.942-.383a2.06 2.06 0 0 1 .635-.941q.25-.216.596-.356.354-.14.802-.14z"/></svg>