<svg xmlns="http://www.w3.org/2000/svg" width="24" height="24"><path d="M3.578 2C2.706 2 2 2.706 2 3.578v16.844C2 21.294 2.706 22 3.578 22h13.686L22 17.264V3.578C22 2.706 21.294 2 20.422 2zm5.735 6.658c.317 0 .602.051.857.15.255.1.474.233.654.401.18.168.317.364.41.588a1.815 1.815 0 0 1 .057 1.297 3.06 3.06 0 0 1-.56 1.018c-.119.149-.24.287-.364.411l-.14.14-.225.224c-.08.08-.17.168-.27.261l-.298.3-.756.755.01.037h2.771v.951H7.305v-.978a75.667 75.667 0 0 0 1.39-1.4l.383-.383c.118-.125.229-.237.328-.336.1-.106.177-.19.233-.252.118-.137.221-.26.308-.365.087-.106.16-.208.215-.307.056-.1.096-.2.121-.299.031-.1.047-.211.047-.336a.767.767 0 0 0-.076-.328.784.784 0 0 0-.195-.28.912.912 0 0 0-.327-.204 1.065 1.065 0 0 0-.439-.084 1.038 1.038 0 0 0-.736.289c-.087.08-.16.172-.215.271a1.087 1.087 0 0 0-.121.28l-.944-.383a2.04 2.04 0 0 1 .635-.941 2.15 2.15 0 0 1 .598-.356c.236-.094.504-.14.803-.14zm5.17 0c.292 0 .563.047.812.14.249.088.464.212.644.374s.32.354.42.578c.1.218.149.456.149.71 0 .293-.077.554-.233.784-.155.23-.342.418-.56.56v.055c.137.069.264.156.383.262.124.1.232.215.326.346.093.13.165.277.215.44.056.155.084.324.084.511a1.766 1.766 0 0 1-.635 1.373c-.2.168-.435.3-.71.4-.273.1-.572.15-.896.15-.323 0-.622-.05-.896-.15a2.31 2.31 0 0 1-.709-.4 1.766 1.766 0 0 1-.635-1.373c0-.187.025-.356.074-.512.056-.162.132-.309.225-.44a1.98 1.98 0 0 1 .709-.607v-.054a1.997 1.997 0 0 1-.559-.56 1.366 1.366 0 0 1-.234-.784c0-.255.05-.493.15-.711.1-.224.24-.416.42-.578.18-.162.394-.286.643-.373.249-.094.52-.14.812-.14zm0 .961c-.28 0-.517.079-.71.235-.186.155-.279.372-.279.652 0 .274.093.492.28.654.192.156.428.233.708.233.28 0 .515-.077.702-.233a.81.81 0 0 0 .289-.654c0-.28-.097-.497-.29-.652a1.06 1.06 0 0 0-.7-.235m0 2.707a1.43 1.43 0 0 0-.467.074c-.143.05-.268.12-.373.207a.938.938 0 0 0-.252.327.903.903 0 0 0-.094.41c0 .15.028.289.084.42a.97.97 0 0 0 .252.318c.112.087.24.155.383.205.143.05.298.074.466.074.168 0 .324-.024.467-.074a1.2 1.2 0 0 0 .373-.205.832.832 0 0 0 .252-.318.964.964 0 0 0-.252-1.157 1.204 1.204 0 0 0-.373-.207 1.412 1.412 0 0 0-.467-.074z"/></svg>