<svg xmlns="http://www.w3.org/2000/svg" width="24" height="24"><path d="M3.578 2C2.706 2 2 2.706 2 3.578v16.844C2 21.294 2.706 22 3.578 22h13.686L22 17.264V3.578C22 2.706 21.294 2 20.422 2zm5.799 6.658q.476 0 .86.15.38.15.652.401.27.252.412.588.149.336.148.719 0 .298-.094.578a2.6 2.6 0 0 1-.232.543 3 3 0 0 1-.326.474q-.177.226-.365.412l-.139.14-.225.224q-.121.12-.271.261l-.299.3-.756.755.01.037h2.771v.951H7.371v-.978q.541-.533.998-1 .196-.195.393-.4l.383-.383q.177-.187.326-.336.149-.159.232-.252.178-.206.309-.365a2 2 0 0 0 .215-.307q.084-.15.12-.299.048-.15.048-.336a.8.8 0 0 0-.075-.328.8.8 0 0 0-.197-.28.9.9 0 0 0-.326-.204 1.1 1.1 0 0 0-.438-.084 1.04 1.04 0 0 0-.738.289q-.13.121-.215.271a1 1 0 0 0-.12.28l-.944-.383a2.04 2.04 0 0 1 .635-.941q.252-.216.597-.356a2.2 2.2 0 0 1 .803-.14zm5.021 0q.45 0 .823.131t.642.365a1.6 1.6 0 0 1 .57 1.24q0 .27-.074.495a1.4 1.4 0 0 1-.187.402 1.5 1.5 0 0 1-.272.29q-.149.12-.306.204v.057q.215.092.41.242.196.14.336.336a1.62 1.62 0 0 1 .318.98q0 .419-.168.784a1.9 1.9 0 0 1-.467.617 2.1 2.1 0 0 1-.691.39q-.402.15-.877.15a2.5 2.5 0 0 1-.672-.093 2.3 2.3 0 0 1-.635-.289 2.4 2.4 0 0 1-.523-.514 2.2 2.2 0 0 1-.354-.738l.971-.4q.13.505.447.775.318.27.766.27.225 0 .43-.075a1.2 1.2 0 0 0 .373-.205q.159-.14.252-.318a.9.9 0 0 0-.01-.82.9.9 0 0 0-.262-.319 1.3 1.3 0 0 0-.4-.205 1.5 1.5 0 0 0-.486-.074H13.8v-.961h.496q.225 0 .41-.057a1.2 1.2 0 0 0 .346-.177.8.8 0 0 0 .232-.28.9.9 0 0 0 .084-.4.71.71 0 0 0-.28-.598q-.27-.224-.69-.224-.234-.001-.41.064a.9.9 0 0 0-.29.178q-.12.112-.205.252-.076.131-.123.271l-.951-.402q.076-.225.234-.457.159-.242.4-.438a2.13 2.13 0 0 1 1.344-.45z"/></svg>