<svg xmlns="http://www.w3.org/2000/svg" width="24" height="24"><path d="M3.578 2C2.706 2 2 2.706 2 3.578v16.844C2 21.294 2.706 22 3.578 22h13.686L22 17.264V3.578C22 2.706 21.294 2 20.422 2zm8.358 6.658q.447 0 .82.131.374.131.644.365a1.6 1.6 0 0 1 .568 1.24q0 .27-.073.495a1.4 1.4 0 0 1-.188.402 1.5 1.5 0 0 1-.27.29q-.15.12-.308.204v.057q.215.092.41.242.197.14.338.336a1.62 1.62 0 0 1 .316.98q0 .419-.168.784a1.9 1.9 0 0 1-.466.617 2.1 2.1 0 0 1-.692.39q-.401.15-.877.15a2.5 2.5 0 0 1-.672-.093 2.3 2.3 0 0 1-.634-.289 2.4 2.4 0 0 1-.522-.514 2.2 2.2 0 0 1-.355-.738l.97-.4q.13.505.448.775.317.27.765.27.225 0 .43-.075a1.2 1.2 0 0 0 .373-.205q.159-.14.252-.318a.9.9 0 0 0-.01-.82.9.9 0 0 0-.26-.319 1.3 1.3 0 0 0-.402-.205 1.5 1.5 0 0 0-.484-.074h-.551v-.961h.494q.224 0 .41-.057a1.2 1.2 0 0 0 .346-.177.8.8 0 0 0 .234-.28.9.9 0 0 0 .084-.4.71.71 0 0 0-.281-.598q-.27-.224-.69-.224-.233-.001-.412.064a.9.9 0 0 0-.289.178 1.16 1.16 0 0 0-.325.523l-.954-.402q.076-.225.234-.457a2 2 0 0 1 .4-.438 2.13 2.13 0 0 1 1.346-.45z"/></svg>