<svg xmlns="http://www.w3.org/2000/svg" width="24" height="24"><path d="M3.578 2C2.706 2 2 2.706 2 3.578v16.844C2 21.294 2.706 22 3.578 22h13.686L22 17.264V3.578C22 2.706 21.294 2 20.422 2zm8.402 6.658q.505 0 .916.188.42.177.71.484.297.3.457.701.158.392.158.81 0 .608-.252 1.122-.242.503-.606 1.035l-1.605 2.361-.822-.568 1.447-2.016-.037-.037q-.252.15-.625.149-.365 0-.719-.149a2.2 2.2 0 0 1-.625-.43 2.4 2.4 0 0 1-.45-.654 2.1 2.1 0 0 1-.167-.84q0-.447.178-.84.186-.401.484-.69a2.4 2.4 0 0 1 .71-.458 2.2 2.2 0 0 1 .848-.168m.01.97a1.1 1.1 0 0 0-.457.095q-.214.083-.383.242a1.2 1.2 0 0 0-.261.373 1.2 1.2 0 0 0-.092.467q0 .252.092.476.103.215.261.373.168.159.383.252.214.084.457.084.234 0 .45-.084a1.3 1.3 0 0 0 .39-.252q.168-.158.262-.373a1.13 1.13 0 0 0 0-.943 1 1 0 0 0-.262-.373 1.1 1.1 0 0 0-.383-.242 1.1 1.1 0 0 0-.457-.094z"/></svg>