<svg xmlns="http://www.w3.org/2000/svg" width="24" height="24"><path d="M3.578 2C2.706 2 2 2.706 2 3.578v16.844C2 21.294 2.706 22 3.578 22h13.686L22 17.264V3.578C22 2.706 21.294 2 20.422 2H3.578zm5.883 6.732c.317 0 .604.051.86.15.254.1.471.233.652.401.18.168.318.364.412.588a1.827 1.827 0 0 1 .055 1.299 2.58 2.58 0 0 1-.233.54 3.076 3.076 0 0 1-.326.477c-.118.15-.24.286-.365.41l-.139.141-.225.223c-.08.08-.172.168-.271.262l-.299.298-.756.756.01.037h2.771v.954H7.455v-.98c.361-.356.693-.69.998-1 .13-.132.262-.264.393-.401l.383-.383c.118-.125.226-.236.326-.336.1-.106.176-.19.232-.252.118-.137.222-.257.309-.363.087-.106.159-.21.215-.309.056-.1.096-.2.12-.299.032-.1.048-.211.048-.336a.756.756 0 0 0-.075-.326.797.797 0 0 0-.197-.281.912.912 0 0 0-.326-.205 1.055 1.055 0 0 0-.438-.084 1.038 1.038 0 0 0-.738.289c-.087.08-.159.172-.215.271a1.087 1.087 0 0 0-.12.28l-.944-.383a2.048 2.048 0 0 1 .635-.941c.168-.144.367-.263.597-.356.237-.093.504-.14.803-.14zm4.965 0c.317 0 .604.051.86.15.254.1.473.233.653.401.18.168.317.364.41.588.1.224.149.464.149.719 0 .199-.03.393-.092.58a3.076 3.076 0 0 1-.56 1.018c-.119.149-.241.285-.366.41l-.138.14-.225.223c-.08.08-.172.168-.271.262l-.297.298-.756.756.008.037h2.773v.954H12.42v-.98c.36-.356.693-.69.998-1 .13-.132.262-.264.393-.401l.382-.383c.119-.125.227-.236.327-.336.1-.106.178-.19.234-.252.118-.137.22-.257.307-.363.087-.106.158-.21.214-.309.056-.1.097-.2.121-.299.032-.1.047-.211.047-.336a.756.756 0 0 0-.074-.326.92.92 0 0 0-.523-.486 1.055 1.055 0 0 0-.438-.084 1.038 1.038 0 0 0-.738.289c-.087.08-.159.172-.215.271a1.087 1.087 0 0 0-.121.28l-.941-.383c.043-.15.116-.307.222-.475a2.161 2.161 0 0 1 1.008-.822c.236-.093.504-.14.803-.14z"/></svg>