<svg xmlns="http://www.w3.org/2000/svg" width="24" height="24"><path d="M3.578 2C2.706 2 2 2.706 2 3.578v16.844C2 21.294 2.706 22 3.578 22h13.686L22 17.264V3.578C22 2.706 21.294 2 20.422 2zm8.358 6.658c.298 0 .571.044.82.131.249.087.464.21.644.365a1.604 1.604 0 0 1 .568 1.24c0 .181-.024.345-.073.495a1.415 1.415 0 0 1-.188.402 1.5 1.5 0 0 1-.27.29c-.1.08-.202.148-.308.204v.057c.143.062.28.142.41.242.13.093.245.205.338.336a1.624 1.624 0 0 1 .316.98c0 .28-.056.54-.168.784a1.885 1.885 0 0 1-.466.617 2.084 2.084 0 0 1-.692.39c-.267.1-.56.15-.877.15a2.5 2.5 0 0 1-.672-.093 2.247 2.247 0 0 1-.634-.289 2.396 2.396 0 0 1-.522-.514 2.203 2.203 0 0 1-.355-.738l.97-.4c.087.336.236.595.448.775.211.18.467.27.765.27.15 0 .293-.025.43-.075a1.2 1.2 0 0 0 .373-.205c.106-.093.19-.2.252-.318a.903.903 0 0 0-.01-.82.917.917 0 0 0-.26-.319 1.29 1.29 0 0 0-.402-.205 1.52 1.52 0 0 0-.484-.074h-.551v-.961h.494c.15 0 .286-.02.41-.057a1.21 1.21 0 0 0 .346-.177.783.783 0 0 0 .234-.28.922.922 0 0 0 .084-.4.712.712 0 0 0-.281-.598c-.18-.15-.41-.224-.69-.224-.155 0-.293.02-.412.064a.904.904 0 0 0-.289.178 1.155 1.155 0 0 0-.325.523l-.954-.402c.05-.15.129-.302.234-.457a1.94 1.94 0 0 1 .4-.438 2.132 2.132 0 0 1 1.346-.45z"/></svg>