<svg xmlns="http://www.w3.org/2000/svg" width="24" height="24"><path d="M3.578 2C2.706 2 2 2.706 2 3.578v16.844C2 21.294 2.706 22 3.578 22h13.686L22 17.264V3.578C22 2.706 21.294 2 20.422 2zM8.91 8.658c.317 0 .604.051.86.15.255.1.471.233.652.401.18.168.319.364.412.588.1.224.148.464.148.719 0 .199-.031.391-.093.578a2.596 2.596 0 0 1-.233.543 3.06 3.06 0 0 1-.326.474c-.118.15-.24.288-.365.412l-.139.14-.224.224c-.081.08-.172.168-.272.261l-.299.3-.756.755.01.037h2.772v.951H6.904v-.978c.361-.355.693-.689.998-1 .131-.13.262-.264.393-.4l.383-.383c.118-.125.226-.237.326-.336.1-.106.178-.19.234-.252.119-.137.22-.26.307-.365a2.19 2.19 0 0 0 .215-.307c.056-.1.096-.2.12-.299.032-.1.048-.211.048-.336a.765.765 0 0 0-.074-.328.921.921 0 0 0-.523-.484 1.055 1.055 0 0 0-.438-.084 1.038 1.038 0 0 0-.739.289c-.087.08-.159.172-.215.271a1.087 1.087 0 0 0-.12.28l-.942-.383a2.04 2.04 0 0 1 .633-.941c.168-.144.367-.263.597-.356a2.16 2.16 0 0 1 .803-.14zm5.592 0c.398 0 .758.088 1.082.262.324.168.598.404.822.709.23.299.407.654.532 1.064.124.405.185.84.185 1.307 0 .467-.061.906-.186 1.316-.124.405-.3.76-.53 1.065a2.497 2.497 0 0 1-.823.709 2.311 2.311 0 0 1-1.082.252c-.404 0-.768-.084-1.092-.252a2.628 2.628 0 0 1-.822-.71 3.415 3.415 0 0 1-.531-1.064A4.74 4.74 0 0 1 11.879 12c0-.467.06-.902.178-1.307.124-.41.3-.765.53-1.064.231-.305.506-.541.823-.71a2.266 2.266 0 0 1 1.092-.26zm0 .98a1.23 1.23 0 0 0-.664.188 1.56 1.56 0 0 0-.494.494c-.13.212-.234.46-.309.746a4.013 4.013 0 0 0-.101.934c0 .33.033.641.101.934.075.286.178.534.309.746.137.211.301.38.494.504.199.118.421.177.664.177.243 0 .46-.06.652-.177.2-.125.364-.293.494-.504.137-.212.24-.46.309-.746.075-.293.111-.604.111-.934 0-.336-.036-.647-.111-.934a2.38 2.38 0 0 0-.309-.746 1.444 1.444 0 0 0-.494-.494 1.176 1.176 0 0 0-.652-.187z"/></svg>