<svg xmlns="http://www.w3.org/2000/svg" width="24" height="24"><path d="M3.578 2C2.706 2 2 2.706 2 3.578v16.844C2 21.294 2.706 22 3.578 22h13.686L22 17.264V3.578C22 2.706 21.294 2 20.422 2zm11.139 6.648.82.561-1.447 2.025.039.028q.12-.065.27-.102a1.68 1.68 0 0 1 1.064.121 2.04 2.04 0 0 1 1.072 1.074q.177.383.178.83 0 .45-.186.85a2.24 2.24 0 0 1-1.185 1.149 2.2 2.2 0 0 1-.84.168q-.513 0-.934-.178a2.4 2.4 0 0 1-.709-.486 2.22 2.22 0 0 1-.607-1.521q0-.607.242-1.11a8.5 8.5 0 0 1 .617-1.047zm-5.395.02q.476 0 .858.148.383.15.654.403.27.252.41.588.15.336.149.718 0 .3-.092.579a3.1 3.1 0 0 1-.56 1.018q-.178.222-.364.41l-.14.14-.225.224q-.12.122-.27.262l-.299.297-.755.758.007.037h2.774v.951H7.314v-.98a75 75 0 0 0 1.391-1.399l.383-.383q.177-.186.326-.335.15-.159.234-.252.178-.206.307-.366.13-.159.215-.308.085-.15.123-.297.046-.15.045-.336a.8.8 0 0 0-.074-.328.8.8 0 0 0-.196-.28.9.9 0 0 0-.326-.205 1.1 1.1 0 0 0-.44-.084 1.04 1.04 0 0 0-.738.29 1.1 1.1 0 0 0-.212.269 1.1 1.1 0 0 0-.123.281l-.942-.383q.065-.224.223-.476.16-.252.412-.467.252-.214.598-.353.355-.141.802-.141m5.16 3.352q-.241 0-.457.091a1.18 1.18 0 0 0-.644.618 1.2 1.2 0 0 0-.094.466q0 .262.094.475.103.216.262.375.168.159.382.252.216.084.457.084a1.16 1.16 0 0 0 .84-.336q.168-.16.262-.375.103-.214.104-.475-.001-.252-.104-.466a1.16 1.16 0 0 0-.654-.617 1.1 1.1 0 0 0-.448-.092"/></svg>