<svg xmlns="http://www.w3.org/2000/svg" width="24" height="24"><path d="M3.578 2C2.706 2 2 2.706 2 3.578v16.844C2 21.294 2.706 22 3.578 22h13.686L22 17.264V3.578C22 2.706 21.294 2 20.422 2H3.578zM12 8.658c.292 0 .564.047.813.14.248.088.462.212.642.374a1.706 1.706 0 0 1 .57 1.288c0 .293-.076.554-.232.784-.156.23-.343.418-.56.56v.055c.136.069.264.156.382.262.125.1.233.215.326.346.094.13.165.277.215.44.056.155.084.324.084.511a1.766 1.766 0 0 1-.635 1.373c-.199.168-.435.3-.709.4-.273.1-.572.15-.896.15-.324 0-.623-.05-.896-.15a2.31 2.31 0 0 1-.71-.4 1.766 1.766 0 0 1-.635-1.373c0-.187.025-.356.075-.512.056-.162.131-.309.225-.44a1.974 1.974 0 0 1 .708-.607v-.054a2.003 2.003 0 0 1-.56-.56 1.365 1.365 0 0 1-.232-.784c0-.255.048-.493.148-.711.1-.224.241-.416.422-.578.18-.162.394-.286.643-.373.248-.094.52-.14.812-.14zm0 .961c-.28 0-.516.079-.709.235-.187.155-.281.372-.281.652 0 .274.094.492.281.654.193.156.429.233.709.233.28 0 .513-.077.7-.233a.812.812 0 0 0 .29-.654c0-.28-.098-.497-.29-.652a1.055 1.055 0 0 0-.7-.235m0 2.707c-.168 0-.324.025-.467.074-.143.05-.267.12-.373.207a.938.938 0 0 0-.252.327.903.903 0 0 0-.094.41c0 .15.028.289.084.42a.97.97 0 0 0 .252.318c.112.087.24.155.383.205.143.05.299.074.467.074.168 0 .324-.024.467-.074a1.2 1.2 0 0 0 .373-.205.832.832 0 0 0 .252-.318.964.964 0 0 0-.252-1.157 1.204 1.204 0 0 0-.373-.207 1.412 1.412 0 0 0-.467-.074z"/></svg>