<svg xmlns="http://www.w3.org/2000/svg" width="24" height="24"><path d="M3.578 2C2.706 2 2 2.706 2 3.578v16.844C2 21.294 2.706 22 3.578 22h13.686L22 17.264V3.578C22 2.706 21.294 2 20.422 2H3.578zm10.565 6.648.82.561-1.445 2.025.037.028c.08-.044.17-.077.27-.102a1.68 1.68 0 0 1 1.064.121 2.057 2.057 0 0 1 1.074 1.074c.118.256.176.532.176.83 0 .3-.061.583-.186.85a2.237 2.237 0 0 1-1.185 1.149 2.153 2.153 0 0 1-.84.168c-.342 0-.654-.06-.934-.178a2.392 2.392 0 0 1-.709-.486 2.22 2.22 0 0 1-.607-1.521c0-.405.08-.774.242-1.11a8.49 8.49 0 0 1 .617-1.047l1.606-2.362zm-4.407.168h.739v6.385H9.438v-5.133l-1.186.514-.39-.887 1.874-.879zm4.172 3.204c-.162 0-.314.03-.457.091a1.182 1.182 0 0 0-.644.618 1.157 1.157 0 0 0-.092.466c0 .175.03.332.092.475.068.143.156.27.261.375.112.106.24.19.383.252.143.056.295.084.457.084a1.16 1.16 0 0 0 .84-.336c.112-.106.2-.232.262-.375.068-.143.103-.3.103-.475a1.07 1.07 0 0 0-.103-.466 1.01 1.01 0 0 0-.262-.374 1.152 1.152 0 0 0-.39-.244 1.116 1.116 0 0 0-.45-.091"/></svg>