<svg xmlns="http://www.w3.org/2000/svg" width="24" height="24"><path d="M3.578 2C2.706 2 2 2.706 2 3.578v16.844C2 21.294 2.706 22 3.578 22h13.686L22 17.264V3.578C22 2.706 21.294 2 20.422 2zm10.299 6.648c.336 0 .64.063.914.188.28.118.516.28.709.486.2.2.351.432.457.7.106.26.158.532.158.812 0 .404-.084.777-.252 1.12a7.954 7.954 0 0 1-.605 1.036l-1.606 2.362-.822-.57 1.447-2.016-.037-.037c-.168.1-.376.148-.625.148-.242 0-.482-.049-.719-.148a2.24 2.24 0 0 1-.625-.43 2.443 2.443 0 0 1-.449-.654 2.066 2.066 0 0 1-.168-.84c0-.299.06-.579.178-.84.124-.268.285-.497.484-.69.206-.192.444-.347.711-.459.268-.112.551-.168.85-.168m-4.117.15h.738v6.386H9.461v-5.135l-1.186.514-.39-.887zm4.125.821c-.162 0-.314.032-.457.094a1.174 1.174 0 0 0-.383.242 1.19 1.19 0 0 0-.262.375 1.157 1.157 0 0 0-.092.467c0 .168.03.325.092.474.069.144.156.268.262.374.112.105.24.19.383.251.143.056.295.084.457.084.155 0 .306-.028.449-.084.15-.062.279-.146.39-.251.113-.106.2-.23.262-.374a1.123 1.123 0 0 0 0-.94 1.018 1.018 0 0 0-.261-.376 1.059 1.059 0 0 0-.383-.242 1.133 1.133 0 0 0-.457-.094"/></svg>