<svg xmlns="http://www.w3.org/2000/svg" width="192" height="192" viewBox="0 0 192 192"><path d="M31.151 19C24.437 19 19 24.436 19 31.151v129.7c0 6.714 5.436 12.151 12.151 12.151h105.38l36.467-36.467V31.155c0-6.714-5.436-12.151-12.151-12.151zm51.767 51.267q3.45 0 6.33 1.009t4.966 2.81a12.32 12.32 0 0 1 4.373 9.548q0 2.08-.57 3.812a10.78 10.78 0 0 1-1.447 3.095 11.55 11.55 0 0 1-2.079 2.233 15.4 15.4 0 0 1-2.371 1.57v.44q1.655.708 3.156 1.863 1.51 1.078 2.588 2.587a12.474 12.474 0 0 1 2.448 7.546q0 3.227-1.286 6.037a14.63 14.63 0 0 1-3.596 4.751 16.17 16.17 0 0 1-5.328 3.003q-3.088 1.155-6.753 1.155a19.25 19.25 0 0 1-5.167-.716 17.71 17.71 0 0 1-4.889-2.225 18.48 18.48 0 0 1-4.035-3.958 16.94 16.94 0 0 1-2.718-5.683l7.47-3.08q1.008 3.889 3.449 5.968t5.89 2.079q1.733 0 3.311-.578a9.24 9.24 0 0 0 2.872-1.578q1.225-1.078 1.94-2.449a6.93 6.93 0 0 0-.076-6.314 6.93 6.93 0 0 0-2.01-2.456 10.01 10.01 0 0 0-3.08-1.579 11.55 11.55 0 0 0-3.75-.57h-4.235v-7.4h3.812q1.724 0 3.157-.438a9.24 9.24 0 0 0 2.664-1.363 6.16 6.16 0 0 0 1.786-2.156 6.93 6.93 0 0 0 .647-3.08 5.467 5.467 0 0 0-2.148-4.604q-2.08-1.725-5.321-1.725-1.794-.008-3.157.493a6.93 6.93 0 0 0-2.233 1.37 8.932 8.932 0 0 0-2.503 4.027l-7.345-3.095q.577-1.733 1.81-3.52 1.208-1.862 3.08-3.372a16.324 16.324 0 0 1 10.348-3.465zm36.875 1.155h5.667v49.149h-7.97V81.062l-9.131 3.95-3.019-6.822 14.453-6.753z"/></svg>