<svg xmlns="http://www.w3.org/2000/svg" width="24" height="24"><path d="M3.578 2C2.706 2 2 2.706 2 3.578v16.844C2 21.294 2.706 22 3.578 22h13.686L22 17.264V3.578C22 2.706 21.294 2 20.422 2zm5.557 6.732q.476 0 .86.15.381.15.651.401.27.252.41.588a1.83 1.83 0 0 1 .057 1.299 2.6 2.6 0 0 1-.232.54 3 3 0 0 1-.328.477 5 5 0 0 1-.364.41l-.14.141-.223.223q-.121.12-.271.262l-.3.298-.755.756.01.037h2.771v.954H7.13v-.98q.54-.534.998-1 .196-.197.393-.401l.38-.383q.179-.187.329-.336.149-.159.232-.252.177-.205.309-.363a2 2 0 0 0 .214-.309q.084-.15.121-.299.047-.15.047-.336a.76.76 0 0 0-.074-.326.8.8 0 0 0-.197-.281.9.9 0 0 0-.326-.205 1.1 1.1 0 0 0-.44-.084 1.03 1.03 0 0 0-.736.289q-.13.121-.215.271a1 1 0 0 0-.121.28L7.1 10.17a2.05 2.05 0 0 1 .635-.941 2.1 2.1 0 0 1 .597-.356q.354-.14.803-.14zm5.834.15h1.129v4.153h.802v.97h-.802v1.263h-1.045v-1.262h-2.989v-.82zm.027 1.54-1.764 2.613h1.82v-2.613z"/></svg>