<svg xmlns="http://www.w3.org/2000/svg" width="192" height="192" viewBox="0 0 192 192"><path d="M31.151 19C24.437 19 19 24.436 19 31.151v129.7c0 6.714 5.436 12.151 12.151 12.151h105.38l36.467-36.467V31.155c0-6.714-5.436-12.151-12.151-12.151zM75.38 70.19q3.665 0 6.607 1.155 2.949 1.155 5.035 3.088 2.08 1.94 3.157 4.527a14.091 14.091 0 0 1 .44 10.002 23.87 23.87 0 0 1-4.313 7.839q-1.37 1.717-2.803 3.157l-1.078 1.078-1.732 1.717q-.924.924-2.079 2.017l-8.116 8.116.054.285h21.36v7.346H59.918v-7.546q4.173-4.112 7.685-7.7 1.517-1.517 3.026-3.088l2.949-2.949a130.9 130.9 0 0 0 4.312-4.528q1.37-1.578 2.364-2.795 1-1.232 1.655-2.379.655-1.155.947-2.302.355-1.155.347-2.587a6.16 6.16 0 0 0-.57-2.51 6.93 6.93 0 0 0-4.012-3.743 8.47 8.47 0 0 0-3.388-.647 8.008 8.008 0 0 0-5.69 2.226 8.47 8.47 0 0 0-1.632 2.086 8.47 8.47 0 0 0-.947 2.156l-7.254-2.949a15.862 15.862 0 0 1 4.89-7.245q1.94-1.664 4.604-2.742 2.726-1.078 6.176-1.078zm39.655 0q3.896 0 7.06 1.448 3.235 1.362 5.46 3.742 2.295 2.302 3.52 5.39 1.216 3.01 1.216 6.252 0 4.666-1.94 8.624a61.6 61.6 0 0 1-4.667 7.977l-12.358 18.187-6.33-4.389 11.143-15.523-.285-.285q-1.94 1.148-4.813 1.14-2.803 0-5.536-1.14a17.71 17.71 0 0 1-4.828-3.31 18.48 18.48 0 0 1-3.442-5.036 16.17 16.17 0 0 1-1.293-6.468q0-3.45 1.37-6.468 1.432-3.088 3.727-5.313 2.364-2.233 5.46-3.535 3.095-1.293 6.544-1.293zm.077 7.477q-1.856 0-3.519.723a9.24 9.24 0 0 0-2.941 1.864 8.932 8.932 0 0 0-2.734 6.483q0 1.933.716 3.65.786 1.663 2.018 2.88 1.301 1.224 2.941 1.933a9.548 9.548 0 0 0 9.987-1.933q1.294-1.224 2.017-2.88a8.624 8.624 0 0 0 0-7.238 7.7 7.7 0 0 0-2.017-2.895 8.47 8.47 0 0 0-2.95-1.864 8.47 8.47 0 0 0-3.518-.723"/></svg>