<svg xmlns="http://www.w3.org/2000/svg" width="24" height="24"><path d="M3.578 2C2.706 2 2 2.706 2 3.578v16.844C2 21.294 2.706 22 3.578 22h13.686L22 17.264V3.578C22 2.706 21.294 2 20.422 2H3.578zM9.33 8.658c.317 0 .604.051.86.15.255.1.471.233.652.401.18.168.319.364.412.588.1.224.148.464.148.719 0 .199-.031.391-.093.578a2.596 2.596 0 0 1-.233.543 3.06 3.06 0 0 1-.326.474c-.118.15-.24.288-.365.412l-.139.14-.225.224c-.08.08-.171.168-.271.261l-.299.3-.756.755.01.037h2.772v.951H7.324v-.978c.361-.355.693-.689.998-1 .13-.13.262-.264.393-.4l.383-.383c.118-.125.226-.237.326-.336.1-.106.178-.19.234-.252.118-.137.22-.26.307-.365.087-.106.159-.208.215-.307.056-.1.096-.2.12-.299.032-.1.048-.211.048-.336a.765.765 0 0 0-.075-.328.921.921 0 0 0-.523-.484 1.055 1.055 0 0 0-.438-.084 1.038 1.038 0 0 0-.738.289c-.087.08-.159.172-.215.271a1.087 1.087 0 0 0-.12.28l-.942-.383c.043-.15.117-.309.223-.477a2.161 2.161 0 0 1 1.008-.82c.236-.094.503-.14.802-.14zm3.51.15h3.482v.942h-2.615l-.232 1.662.056.02c.137-.106.294-.197.475-.272.18-.075.403-.111.664-.111.267 0 .523.052.766.158.248.1.465.243.652.43.187.186.335.41.447.672.112.26.168.55.168.867 0 .31-.056.601-.168.869a2.07 2.07 0 0 1-.467.68c-.199.192-.435.347-.709.459a2.392 2.392 0 0 1-.886.158c-.224 0-.45-.035-.68-.104a2.413 2.413 0 0 1-.654-.306 2.322 2.322 0 0 1-.532-.543 2.256 2.256 0 0 1-.345-.774l.933-.373c.081.33.226.6.438.81.218.206.496.31.832.31.168 0 .325-.029.474-.085.15-.062.277-.142.383-.242a1.184 1.184 0 0 0 .346-.85c0-.174-.032-.333-.094-.476a1.059 1.059 0 0 0-.242-.383 1.059 1.059 0 0 0-.383-.242 1.245 1.245 0 0 0-1.045.047 1.266 1.266 0 0 0-.42.346l-1.027-.457.383-3.211z"/></svg>