<svg xmlns="http://www.w3.org/2000/svg" width="24" height="24"><path d="M3.578 2C2.706 2 2 2.706 2 3.578v16.844C2 21.294 2.706 22 3.578 22h13.686L22 17.264V3.578C22 2.706 21.294 2 20.422 2zm6.78 6.732h3.48v.944h-2.613l-.233 1.662.057.017a2.1 2.1 0 0 1 .474-.27q.271-.111.665-.112.4 0 .763.16c.25.1.468.24.654.428q.28.28.448.671.168.393.168.87 0 .466-.168.867a2.1 2.1 0 0 1-.467.681q-.299.29-.709.457a2.4 2.4 0 0 1-.887.16 2.4 2.4 0 0 1-1.334-.412 2.3 2.3 0 0 1-.533-.54 2.3 2.3 0 0 1-.344-.776l.934-.373q.12.495.437.813.326.308.83.308.253 0 .477-.084.225-.093.383-.242a1.18 1.18 0 0 0 .346-.85q0-.261-.094-.476a1.1 1.1 0 0 0-.242-.383 1.1 1.1 0 0 0-.383-.242 1.3 1.3 0 0 0-.487-.094q-.307 0-.558.14a1.3 1.3 0 0 0-.42.344l-1.027-.457z"/></svg>