<svg xmlns="http://www.w3.org/2000/svg" width="24" height="24"><path d="M3.578 2C2.706 2 2 2.706 2 3.578v16.844C2 21.294 2.706 22 3.578 22h13.686L22 17.264V3.578C22 2.706 21.294 2 20.422 2H3.578zm5.557 6.732c.317 0 .604.051.86.15.254.1.471.233.651.401.18.168.317.364.41.588a1.827 1.827 0 0 1 .057 1.299 2.58 2.58 0 0 1-.232.54 3.089 3.089 0 0 1-.328.477 4.61 4.61 0 0 1-.364.41l-.14.141-.223.223c-.08.08-.172.168-.271.262l-.3.298-.755.756.01.037h2.771v.954H7.13v-.98c.36-.356.693-.69.998-1 .13-.132.262-.264.393-.401l.38-.383c.119-.125.229-.236.329-.336.1-.106.176-.19.232-.252.118-.137.221-.257.309-.363a2.19 2.19 0 0 0 .214-.309c.056-.1.097-.2.121-.299.032-.1.047-.211.047-.336a.756.756 0 0 0-.074-.326.797.797 0 0 0-.197-.281.912.912 0 0 0-.326-.205 1.065 1.065 0 0 0-.44-.084 1.029 1.029 0 0 0-.736.289c-.087.08-.159.172-.215.271a1.087 1.087 0 0 0-.121.28L7.1 10.17a2.048 2.048 0 0 1 .635-.941 2.13 2.13 0 0 1 .597-.356c.236-.093.504-.14.803-.14zm5.834.15h1.129v4.153h.802v.97h-.802v1.263h-1.045v-1.262h-2.989v-.82l2.905-4.303zm.027 1.54-1.764 2.613h1.82v-2.613z"/></svg>