<svg xmlns="http://www.w3.org/2000/svg" width="24" height="24"><path d="M3.578 2C2.706 2 2 2.706 2 3.578v16.844C2 21.294 2.706 22 3.578 22h13.686L22 17.264V3.578C22 2.706 21.294 2 20.422 2H3.578zm8.654 6.648.823.561-1.448 2.025.038.028a1.17 1.17 0 0 1 .271-.102 1.68 1.68 0 0 1 1.064.121c.237.1.445.24.625.42.187.18.336.4.448.654.118.256.177.532.177.83 0 .3-.06.583-.185.85a2.237 2.237 0 0 1-1.186 1.149 2.153 2.153 0 0 1-.84.168 2.38 2.38 0 0 1-.933-.178 2.392 2.392 0 0 1-.709-.486 2.22 2.22 0 0 1-.607-1.521c0-.405.08-.774.242-1.11a8.49 8.49 0 0 1 .617-1.047l1.603-2.362zM12 12.02c-.162 0-.314.03-.457.091a1.182 1.182 0 0 0-.645.618 1.158 1.158 0 0 0-.093.466c0 .175.031.332.093.475.069.143.156.27.262.375.112.106.24.19.383.252.143.056.295.084.457.084a1.16 1.16 0 0 0 .84-.336c.112-.106.2-.232.262-.375.068-.143.101-.3.101-.475a1.07 1.07 0 0 0-.101-.466 1.16 1.16 0 0 0-.654-.617A1.107 1.107 0 0 0 12 12.02"/></svg>