<svg xmlns="http://www.w3.org/2000/svg" width="24" height="24"><path d="M3.578 2C2.706 2 2 2.706 2 3.578v16.844C2 21.294 2.706 22 3.578 22h13.686L22 17.264V3.578C22 2.706 21.294 2 20.422 2zm6.715 6.732q.475 0 .857.15.384.15.655.401.27.252.41.588.149.336.148.719 0 .299-.092.58a3.1 3.1 0 0 1-.56 1.018q-.177.223-.365.41l-.139.14-.225.223q-.12.12-.27.262l-.298.298-.756.756.008.037h2.773v.954H8.285v-.98q.541-.534.998-1 .196-.197.393-.401l.383-.383q.177-.187.326-.336.15-.159.234-.252.177-.205.307-.363.13-.16.215-.309.084-.15.12-.299.048-.15.048-.336a.76.76 0 0 0-.075-.326.91.91 0 0 0-.521-.486 1.1 1.1 0 0 0-.44-.084 1.04 1.04 0 0 0-.738.289q-.13.121-.213.271a1.1 1.1 0 0 0-.123.28l-.941-.383a1.9 1.9 0 0 1 .222-.475 2.14 2.14 0 0 1 1.01-.822q.355-.14.803-.14zm4.713.15h.736v6.386h-1.035v-5.135l-1.186.513-.392-.886 1.877-.877z"/></svg>