<svg xmlns="http://www.w3.org/2000/svg" width="24" height="24"><path d="M3.578 2C2.706 2 2 2.706 2 3.578v16.844C2 21.294 2.706 22 3.578 22h13.686L22 17.264V3.578C22 2.706 21.294 2 20.422 2H3.578zm5.799 6.658c.317 0 .604.051.86.15.254.1.471.233.652.401.18.168.318.364.412.588.1.224.148.464.148.719 0 .199-.031.391-.094.578a2.596 2.596 0 0 1-.232.543 3.06 3.06 0 0 1-.326.474c-.118.15-.24.288-.365.412l-.139.14-.225.224c-.08.08-.172.168-.271.261l-.299.3-.756.755.01.037h2.771v.951H7.371v-.978c.361-.355.693-.689.998-1 .13-.13.262-.264.393-.4l.383-.383c.118-.125.226-.237.326-.336.1-.106.176-.19.232-.252.118-.137.222-.26.309-.365a2.19 2.19 0 0 0 .215-.307c.056-.1.096-.2.12-.299.032-.1.048-.211.048-.336a.765.765 0 0 0-.075-.328.79.79 0 0 0-.197-.28.912.912 0 0 0-.326-.204 1.055 1.055 0 0 0-.438-.084 1.038 1.038 0 0 0-.738.289c-.087.08-.159.172-.215.271a1.087 1.087 0 0 0-.12.28l-.944-.383a2.04 2.04 0 0 1 .635-.941c.168-.144.367-.263.597-.356a2.16 2.16 0 0 1 .803-.14zm5.021 0c.3 0 .574.044.823.131.249.087.462.21.642.365a1.605 1.605 0 0 1 .57 1.24c0 .181-.024.345-.074.495a1.387 1.387 0 0 1-.187.402 1.539 1.539 0 0 1-.272.29c-.1.08-.2.148-.306.204v.057c.143.062.28.142.41.242.13.093.243.205.336.336a1.624 1.624 0 0 1 .318.98c0 .28-.056.54-.168.784a1.885 1.885 0 0 1-.467.617 2.084 2.084 0 0 1-.691.39c-.268.1-.56.15-.877.15a2.5 2.5 0 0 1-.672-.093 2.247 2.247 0 0 1-.635-.289 2.403 2.403 0 0 1-.523-.514 2.2 2.2 0 0 1-.354-.738l.971-.4c.087.336.236.595.447.775.212.18.467.27.766.27.15 0 .293-.025.43-.075a1.2 1.2 0 0 0 .373-.205c.106-.093.19-.2.252-.318a.903.903 0 0 0-.01-.82.922.922 0 0 0-.262-.319 1.28 1.28 0 0 0-.4-.205 1.532 1.532 0 0 0-.486-.074H13.8v-.961h.496c.15 0 .286-.02.41-.057a1.21 1.21 0 0 0 .346-.177.778.778 0 0 0 .232-.28.922.922 0 0 0 .084-.4.71.71 0 0 0-.28-.598c-.18-.15-.41-.224-.69-.224-.156 0-.292.02-.41.064a.904.904 0 0 0-.29.178c-.08.075-.149.158-.205.252-.05.087-.092.178-.123.271l-.951-.402c.05-.15.129-.302.234-.457.106-.162.239-.307.4-.438a2.132 2.132 0 0 1 1.344-.45z"/></svg>