<svg xmlns="http://www.w3.org/2000/svg" width="24" height="24"><path d="M3.578 2C2.706 2 2 2.706 2 3.578v16.844C2 21.294 2.706 22 3.578 22h13.686L22 17.264V3.578C22 2.706 21.294 2 20.422 2zm5.744 6.648c.318 0 .603.051.858.15.255.1.474.233.654.401.18.168.317.364.41.588a1.833 1.833 0 0 1 .057 1.299 3.076 3.076 0 0 1-.56 1.018c-.119.149-.24.285-.364.41l-.14.14-.225.223c-.081.08-.17.168-.27.262l-.299.299-.755.755.007.037h2.774v.954H7.314v-.98c.361-.356.694-.69.998-1 .131-.132.262-.264.393-.401l.383-.383a17.419 17.419 0 0 0 .56-.588c.119-.137.22-.257.307-.363.087-.106.159-.21.215-.309.056-.1.098-.2.123-.299.031-.1.045-.211.045-.336a.756.756 0 0 0-.074-.326.912.912 0 0 0-.521-.486 1.065 1.065 0 0 0-.44-.084 1.038 1.038 0 0 0-.739.289 1.1 1.1 0 0 0-.212.271 1.095 1.095 0 0 0-.123.28l-.942-.383a2.058 2.058 0 0 1 .635-.941c.168-.144.367-.263.598-.356.236-.093.504-.14.802-.14zm5.15 0c.337 0 .643.063.917.188.28.118.516.28.709.486.199.2.35.432.457.7.105.26.158.532.158.812 0 .404-.084.777-.252 1.12a7.955 7.955 0 0 1-.606 1.036l-1.605 2.362-.822-.57 1.447-2.016-.037-.037c-.168.1-.376.148-.625.148-.243 0-.482-.049-.719-.148a2.25 2.25 0 0 1-.627-.43 2.437 2.437 0 0 1-.447-.654 2.066 2.066 0 0 1-.168-.84c0-.299.06-.579.178-.84.124-.268.285-.497.484-.69.205-.192.441-.347.709-.459.268-.112.551-.168.85-.168zm.01.971c-.161 0-.313.032-.457.094a1.17 1.17 0 0 0-.382.242 1.158 1.158 0 0 0-.355.842c0 .168.03.325.093.474.068.144.156.268.262.374.112.105.24.19.382.251a1.242 1.242 0 0 0 1.297-.251c.112-.106.2-.23.262-.374a1.123 1.123 0 0 0 0-.94 1.018 1.018 0 0 0-.262-.376 1.059 1.059 0 0 0-.383-.242 1.133 1.133 0 0 0-.457-.094"/></svg>