<svg xmlns="http://www.w3.org/2000/svg" width="24" height="24"><path d="M3.578 2C2.706 2 2 2.706 2 3.578v16.844C2 21.294 2.706 22 3.578 22h13.686L22 17.264V3.578C22 2.706 21.294 2 20.422 2zM12 8.658q.439 0 .813.14.372.132.642.374a1.7 1.7 0 0 1 .57 1.288q.001.44-.232.784-.234.346-.56.56v.055q.204.103.382.262.187.15.326.346.14.195.215.44.084.232.084.511a1.77 1.77 0 0 1-.635 1.373q-.298.251-.709.4-.41.15-.896.15t-.896-.15a2.3 2.3 0 0 1-.71-.4 1.77 1.77 0 0 1-.635-1.373q0-.28.075-.512.084-.243.225-.44a2 2 0 0 1 .708-.607v-.054a2 2 0 0 1-.56-.56 1.37 1.37 0 0 1-.232-.784q-.001-.383.148-.711.15-.335.422-.578.27-.243.643-.373.373-.14.812-.14zm0 .961q-.42 0-.709.235-.28.232-.281.652 0 .411.281.654.29.233.709.233.42 0 .7-.233a.81.81 0 0 0 .29-.654q-.001-.42-.29-.652a1.06 1.06 0 0 0-.7-.235m0 2.707q-.252 0-.467.074-.214.076-.373.207a.9.9 0 0 0-.252.327.9.9 0 0 0-.094.41q0 .224.084.42a1 1 0 0 0 .252.318q.168.13.383.205t.467.074.467-.074a1.2 1.2 0 0 0 .373-.205.83.83 0 0 0 .252-.318.964.964 0 0 0-.252-1.157 1.2 1.2 0 0 0-.373-.207 1.4 1.4 0 0 0-.467-.074"/></svg>