<svg xmlns="http://www.w3.org/2000/svg" width="24" height="24"><path d="M3.578 2C2.706 2 2 2.706 2 3.578v16.844C2 21.294 2.706 22 3.578 22h13.686L22 17.264V3.578C22 2.706 21.294 2 20.422 2H3.578zM8.92 8.658c.299 0 .573.044.822.131.25.087.462.21.643.365a1.605 1.605 0 0 1 .57 1.24c0 .181-.024.345-.074.495-.044.149-.107.284-.188.402-.08.112-.172.208-.271.29-.1.08-.201.148-.307.204v.057c.143.062.28.142.41.242.131.093.243.205.336.336a1.624 1.624 0 0 1 .316.98c0 .28-.055.54-.167.784a1.88 1.88 0 0 1-.465.617 2.084 2.084 0 0 1-.691.39c-.268.1-.56.15-.877.15a2.5 2.5 0 0 1-.672-.093 2.247 2.247 0 0 1-.635-.289 2.403 2.403 0 0 1-.524-.514 2.2 2.2 0 0 1-.353-.738l.969-.4c.087.336.237.595.449.775.211.18.467.27.766.27.149 0 .292-.025.43-.075a1.2 1.2 0 0 0 .372-.205c.106-.093.19-.2.252-.318a.902.902 0 0 0 .092-.41.835.835 0 0 0-.102-.41.922.922 0 0 0-.261-.319 1.28 1.28 0 0 0-.4-.205 1.532 1.532 0 0 0-.487-.074h-.55v-.961h.493c.15 0 .288-.02.413-.057a1.21 1.21 0 0 0 .345-.177.778.778 0 0 0 .233-.28.922.922 0 0 0 .084-.4.71.71 0 0 0-.28-.598c-.18-.15-.411-.224-.691-.224-.156 0-.292.02-.41.064a.904.904 0 0 0-.29.178c-.08.075-.148.158-.204.252-.05.087-.092.178-.123.271l-.952-.402c.05-.15.127-.302.233-.457.106-.162.24-.307.402-.438a2.132 2.132 0 0 1 1.344-.45zm5.666 0c.398 0 .758.088 1.082.262.324.168.598.404.822.709.23.299.407.654.531 1.064.125.405.186.84.186 1.307 0 .467-.061.906-.186 1.316-.124.405-.3.76-.53 1.065a2.497 2.497 0 0 1-.823.709 2.311 2.311 0 0 1-1.082.252c-.405 0-.768-.084-1.092-.252a2.628 2.628 0 0 1-.822-.71 3.415 3.415 0 0 1-.531-1.064A4.74 4.74 0 0 1 11.963 12c0-.467.06-.902.178-1.307.124-.41.3-.765.53-1.064.231-.305.506-.541.823-.71a2.266 2.266 0 0 1 1.092-.26zm0 .98a1.23 1.23 0 0 0-.664.188 1.56 1.56 0 0 0-.494.494c-.13.212-.234.46-.309.746a4.013 4.013 0 0 0-.101.934c0 .33.033.641.101.934.075.286.178.534.309.746.137.211.301.38.494.504.199.118.421.177.664.177.243 0 .46-.06.652-.177.2-.125.364-.293.494-.504.137-.212.24-.46.309-.746.075-.293.113-.604.113-.934a3.69 3.69 0 0 0-.113-.934 2.38 2.38 0 0 0-.309-.746 1.444 1.444 0 0 0-.494-.494 1.176 1.176 0 0 0-.652-.187z"/></svg>