<svg xmlns="http://www.w3.org/2000/svg" width="24" height="24"><path d="M3.578 2C2.706 2 2 2.706 2 3.578v16.844C2 21.294 2.706 22 3.578 22h13.686L22 17.264V3.578C22 2.706 21.294 2 20.422 2zm5.883 6.732q.476 0 .86.15.38.15.652.401.27.252.412.588a1.83 1.83 0 0 1 .055 1.299 2.6 2.6 0 0 1-.233.54 3 3 0 0 1-.326.477q-.177.224-.365.41l-.139.141-.225.223q-.121.12-.271.262l-.299.298-.756.756.01.037h2.771v.954H7.455v-.98q.541-.534.998-1 .196-.197.393-.401l.383-.383q.177-.187.326-.336.149-.159.232-.252.178-.205.309-.363.13-.16.215-.309.084-.15.12-.299.048-.15.048-.336a.8.8 0 0 0-.075-.326.8.8 0 0 0-.197-.281.9.9 0 0 0-.326-.205 1.1 1.1 0 0 0-.438-.084 1.04 1.04 0 0 0-.738.289q-.13.121-.215.271a1 1 0 0 0-.12.28l-.944-.383a2.05 2.05 0 0 1 .635-.941q.252-.216.597-.356.355-.14.803-.14zm4.965 0q.476 0 .86.15.382.15.653.401.27.252.41.588a1.83 1.83 0 0 1 .057 1.299 3.1 3.1 0 0 1-.56 1.018 5 5 0 0 1-.366.41l-.138.14-.225.223q-.121.12-.271.262l-.297.298-.756.756.008.037h2.773v.954H12.42v-.98q.54-.534.998-1 .196-.197.393-.401l.382-.383q.178-.187.327-.336.15-.159.234-.252.177-.205.307-.363a2 2 0 0 0 .214-.309q.084-.15.121-.299.048-.15.047-.336a.8.8 0 0 0-.074-.326.92.92 0 0 0-.523-.486 1.1 1.1 0 0 0-.438-.084 1.04 1.04 0 0 0-.738.289q-.13.121-.215.271a1 1 0 0 0-.121.28l-.941-.383q.064-.224.222-.475a2.16 2.16 0 0 1 1.008-.822q.354-.14.803-.14z"/></svg>