<svg xmlns="http://www.w3.org/2000/svg" xml:space="preserve" width="24" height="24" viewBox="0 0 24 24"><path d="M11.998 19.779a1.61 1.61 0 1 1 0 3.22 1.61 1.61 0 1 1 0-3.22m-5.807 0a1.61 1.61 0 0 1 .001 3.22 1.61 1.61 0 0 1-.001-3.22m11.616 0a1.61 1.61 0 1 1 0 3.22 1.61 1.61 0 1 1 0-3.22M12 1c5.225 0 9.463 3.727 9.463 8.325 0 4.598-4.238 8.326-9.463 8.326a10.475 10.475 0 0 1-4.146-.841l-4.74 1.186 1.013-4.052c-1.003-1.321-1.588-2.911-1.588-4.619C2.538 4.727 6.774 1 12 1m-.001 3.882a2.682 2.682 0 0 0-2.683 2.681v1.072H9.21a.431.431 0 0 0-.431.431v3.782a.43.43 0 0 0 .431.431h5.579a.43.43 0 0 0 .432-.43V9.064a.432.432 0 0 0-.432-.431h-.105V7.562a2.682 2.682 0 0 0-2.685-2.68m0 1.072a1.61 1.61 0 0 1 1.611 1.608v1.072h-3.22V7.563a1.61 1.61 0 0 1 1.609-1.609"/></svg>