<svg xmlns="http://www.w3.org/2000/svg" width="24" height="24"><path d="M16.786 11.27a7.122 7.122 0 0 0-.263-.12c-.154-2.844-1.708-4.473-4.318-4.49h-.035c-1.562 0-2.86.667-3.658 1.88l1.435.984c.596-.906 1.533-1.099 2.224-1.099h.023c.86.006 1.508.256 1.928.743.305.354.51.845.61 1.464a10.98 10.98 0 0 0-2.466-.12c-2.481.144-4.077 1.59-3.97 3.601.055 1.02.563 1.898 1.431 2.471.734.485 1.68.722 2.663.669 1.298-.072 2.315-.567 3.025-1.472.54-.688.88-1.578 1.032-2.701.618.373 1.076.864 1.33 1.454.43 1.004.455 2.654-.89 3.998-1.18 1.178-2.597 1.687-4.739 1.703-2.376-.017-4.173-.78-5.341-2.264-1.095-1.392-1.66-3.4-1.68-5.971.02-2.57.585-4.58 1.68-5.97 1.168-1.486 2.965-2.248 5.341-2.265 2.393.017 4.221.783 5.434 2.275.595.732 1.044 1.652 1.34 2.725l1.681-.448c-.358-1.321-.922-2.459-1.689-3.403C17.358 3 15.084 2.02 12.154 2h-.012c-2.925.02-5.173 1.004-6.684 2.925-1.345 1.708-2.038 4.087-2.061 7.068v.014c.023 2.981.716 5.359 2.06 7.068 1.511 1.92 3.76 2.905 6.685 2.925h.012c2.6-.018 4.433-.7 5.942-2.208 1.976-1.973 1.917-4.446 1.265-5.965-.467-1.089-1.358-1.973-2.575-2.558zm-4.49 4.22c-1.087.062-2.216-.427-2.273-1.472-.041-.775.552-1.64 2.34-1.743.205-.013.406-.018.604-.018.65 0 1.256.063 1.809.184-.206 2.573-1.414 2.991-2.48 3.05z"/></svg>