<svg xmlns="http://www.w3.org/2000/svg" width="24" height="24" viewBox="0 0 24 24"><path d="M11.6 2.369V4.65c-1.844 0-3.778.755-5.235 2.074-1.579 1.429-2.482 3.39-2.482 5.669 0 2.275.904 4.222 2.487 5.64 1.457 1.305 3.392 2.052 5.232 2.052 1.853 0 3.784-.732 5.232-2.02 1.58-1.407 2.482-3.356 2.482-5.672h2.282c0 2.977-1.186 5.543-3.247 7.377-1.866 1.66-4.337 2.598-6.75 2.598-2.404 0-4.88-.957-6.754-2.635C2.79 17.891 1.6 15.33 1.6 12.394c0-2.937 1.184-5.507 3.233-7.361 1.874-1.696 4.353-2.664 6.765-2.664M17.755 4.6l2.024 1.622-7.045 8.785a1.297 1.297 0 0 1-1.83.194l-3.939-3.205 1.637-2.012 2.926 2.38z"/></svg>