<svg xmlns="http://www.w3.org/2000/svg" viewBox="0 0 24 24"><path d="M4.35 8.176A1.36 1.36 0 0 0 3 9.526v8.548c0 .738.612 1.352 1.35 1.352h1.039l1.148 1.338a.675.675 0 0 0 1.026 0l1.148-1.338h7.564c.738 0 1.35-.614 1.35-1.352V15.15a.675.675 0 0 0-.676-.675.68.68 0 0 0-.558.32l-5.21-3.316a3 3 0 0 1-.454.15.34.34 0 0 1-.407-.25.34.34 0 0 1 .145-.357L7.609 9.205a.7.7 0 0 0 .116-.355.675.675 0 0 0-.674-.674zm2.474 5.174c.492 0 .9.408.9.9s-.408.9-.9.9-.898-.408-.898-.9.406-.9.898-.9m3.15 0c.492 0 .901.408.901.9s-.409.9-.9.9a.91.91 0 0 1-.9-.9c0-.492.408-.9.9-.9m3.151 0c.492 0 .9.408.9.9s-.408.9-.9.9-.9-.408-.9-.9.408-.9.9-.9" opacity=".75"/><path d="M7.725 3a1.36 1.36 0 0 0-1.35 1.35v8.55c0 .738.612 1.35 1.35 1.35h7.564l1.148 1.34a.675.675 0 0 0 1.026 0l1.148-1.34h1.04A1.36 1.36 0 0 0 21 12.9V4.35A1.36 1.36 0 0 0 19.65 3zm7.45 2.137c.187 0 .337.152.337.338v.406h1.437a.337.337 0 1 1 0 .676h-1.437v1.75h1.238c.187 0 .338.15.338.338V10.8a.8.8 0 0 1-.2.578.87.87 0 0 1-.6.283h-1.8a.34.34 0 0 1-.338-.338v-2.68c0-.186.152-.338.338-.337h.35V5.475c0-.187.151-.339.338-.338zm-3.695.113.047.002h1.711c.186 0 .336.152.336.338v4.373a.338.338 0 1 1-.674 0V5.928h-1.373l-.03-.002a.3.3 0 0 0-.157.04.31.31 0 0 0-.129.231.3.3 0 0 1 .014.065v3.713a.337.337 0 1 1-.676 0V6.262l-.01-.141a1.02 1.02 0 0 1 .451-.736.97.97 0 0 1 .49-.135m.57 1.07a.34.34 0 0 1 .337.336v3.508q.098.134.209.258c.263.266.576.466.933.582a.338.338 0 1 1-.209.642 3 3 0 0 1-1.22-.765c-.015-.016-.025-.033-.04-.05-.032.043-.05.088-.087.128a2.7 2.7 0 0 1-1.244.67.337.337 0 0 1-.157-.656q.529-.128.912-.485a2 2 0 0 0 .229-.332v-3.5c0-.186.152-.336.338-.336zm2.774 2.66v2.008h1.436a.2.2 0 0 0 .127-.058c.026-.03.032-.045.027-.098l-.002-.031V8.98zm-2.787.96"/></svg>