<svg xmlns="http://www.w3.org/2000/svg" viewBox="0 0 24 24"><path d="M4.33 11.875c-.06.009-.112.046-.152.125a60 60 0 0 0-1.283 2.959c-.28.011-.555.02-.612.025-.15.011-.157.09-.126.177.024.067.045.122.079.21.025.063.072.078.154.075l.325-.011c-.31.826-.607 1.626-.676 1.824-.07.2-.047.238.08.336.081.064.144.109.233.17.141.094.274.12.335-.036.293-.74.587-1.497.853-2.128.688.224 1.019.966 1.016 1.782 0 .1.006.146.1.22.12.092.169.128.252.18.171.109.26-.004.295-.093.48-1.206 1.005-2.385 1.005-2.385l.978-.036a2.5 2.5 0 0 0-.643.716c-.472.793-.305 1.588.379 1.772.786.212 1.655-.31 2.095-1.096q.196-.346.247-.703c.413-.177.857-.485 1.049-.722a.32.32 0 0 0 .17.204c-.664.731-.975 1.275-1.004 1.698-.026.372.135.582.417.634.219.04.444-.007.61-.07.31-.12.695-.405 1.095-.888q-.04.138-.054.23c-.04.269-.015.604.384.692.063.014.317.052.61-.083.236-.109.476-.262.761-.63.037.384.262.674.66.76.801.174 1.619-.332 2.08-1.134.12-.206.194-.41.226-.603.282-.063.51-.162.761-.338a11.5 11.5 0 0 0-.575 1.572c-.046.177-.022.214.082.286.089.061.125.085.22.145.079.049.213.103.33-.04.12-.15.794-.995 1.498-1.657-.23.491-.357.875-.388 1.132-.025.215-.004.553.371.655a.95.95 0 0 0 .574-.05c.417-.164.673-.538 1.217-1.245.136-.176.284-.36.428-.525-.01.225.06.459.216.738.121.216.163.394.118.541-.061.203-.265.219-.322.22-.167.003-.287-.117-.319-.314-.026-.16-.047-.203-.126-.207q-.044-.003-.106.044a1 1 0 0 0-.14.138c-.108.138-.09.278-.022.394.138.237.425.324.767.318.609-.01.962-.316 1.034-.85a1 1 0 0 0-.057-.478c-.065-.192-.206-.448-.254-.551-.145-.309.068-.514.257-.67l.043-.036c.091-.072.13-.095.124-.174-.003-.048-.037-.075-.102-.136l-.087-.083c-.058-.055-.088-.066-.138-.063-.07.005-.16.06-.24.123a6 6 0 0 0-.369.322c-.396.375-.726.76-1.097 1.237-.425.546-.618.748-.765.792-.108.032-.25.003-.125-.408.156-.512.445-1.043.53-1.213.088-.178.044-.246-.079-.336a3 3 0 0 0-.237-.157c-.145-.089-.228-.043-.273-.012-.171.116-.97.872-1.618 1.652.29-.726.484-1.09.55-1.21.12-.214.062-.26-.06-.356-.09-.069-.151-.109-.248-.175-.153-.105-.235-.06-.312.014-.36.353-.681.534-1.05.633a1.2 1.2 0 0 0-.055-.272.7.7 0 0 0-.095-.187c-.123-.191-.286-.287-.522-.344-.631-.154-1.368.181-1.87.915-.44.64-.809 1.263-1.177 1.38-.028.009-.306.078-.123-.408.344-.91.644-1.557 1.045-2.409a112 112 0 0 1 2.756-.101c.104-.003.135-.074.098-.161a6 6 0 0 0-.095-.21c-.034-.075-.064-.096-.228-.095a50 50 0 0 0-2.32.117l.229-.488c.089-.193.036-.24-.08-.315-.124-.078-.15-.095-.3-.181-.161-.093-.265-.054-.347.116-.06.124-.228.48-.436.933-.414.031-.705.055-.746.059-.141.013-.141.082-.119.147.023.065.041.114.062.161.02.048.042.104.153.096.033-.002.192-.013.453-.028-.186.414-.386.867-.558 1.285-.481.825-1.159 1.474-1.461 1.545-.11.026-.337.046-.135-.47.167-.427.47-.792.958-1.333.093-.103.083-.148.064-.207s-.059-.093-.144-.103c-.372-.043-.438-.128-.49-.216-.057-.094-.054-.235-.012-.369.017-.058.036-.136-.052-.17-.11-.043-.17-.034-.223.059-.265.459-.74.875-1.234 1.124a2 2 0 0 0-.055-.205.79.79 0 0 0-.563-.522c-.185-.049-.569-.034-.664-.03l-1.597.038c.484-1.1.955-2.075.993-2.154.078-.16.036-.219-.09-.293-.135-.08-.181-.099-.395-.209-.192-.098-.24-.008-.292.102-.079.173-.612 1.34-1.122 2.574-.289.004-1.372.04-1.667.05.53-1.19 1.12-2.4 1.14-2.438.1-.213.047-.278-.091-.366a8 8 0 0 0-.359-.214.3.3 0 0 0-.184-.046zm3.855 3.356a.53.53 0 0 0-.175.295c-.07.287.097.65.514.634-.03.084-.106.278-.15.37-.27.558-.681.893-1.005.877-.383-.02-.43-.665-.122-1.291.197-.402.497-.841.919-.884zm6.973.056a.64.64 0 0 0-.13.269c-.078.433.19.596.512.614-.03.116-.068.225-.129.36-.253.563-.682.91-1.009.896-.41-.017-.462-.673-.132-1.283.44-.815.885-.856.888-.856m-9.843.048a95 95 0 0 0-.48 1.244c-.128-.746-.64-1.09-.949-1.206.45-.014 1.221-.032 1.429-.038m8.028-9.188c-2.214.041-5.088.29-5.695.353-.278.028-.23.175-.179.32.028.08.013.029.064.156.064.158.089.254.364.215.217-.03 1.226-.124 1.997-.203-.2.42-.426.874-.888 1.859-.267.57-.58 1.332-1.072 2.378-.051.11-.108.246.065.354.14.088.236.146.413.24.179.097.279.036.342-.105.15-.328 1.726-3.952 2.107-4.796.895-.064 1.81-.128 2.754-.166.131-.006.23-.075.17-.214-.058-.14-.066-.137-.123-.259-.062-.131-.133-.136-.319-.132M11.853 7.4a.56.56 0 0 0-.547.588.455.455 0 0 0 .545.423.56.56 0 0 0 .465-.581.455.455 0 0 0-.463-.43m-.76 1.3c-.08.002-.141.065-.2.185-.212.438-.752 1.546-.85 2.152-.075.458.125.66.39.719a.95.95 0 0 0 .555-.071c.282-.132.675-.463 1.204-1.2-.102.262-.21.561-.269.75-.065.215-.027.27.103.353.059.037.087.056.17.107.087.053.22.108.336-.03.155-.183.992-1.194 1.652-1.811-.151.396-.377.997-.483 1.38-.047.17-.007.227.136.32l.214.134c.05.03.19.096.315-.05.12-.14.816-1.016 1.38-1.566-.212.482-.333.854-.374 1.135-.014.095-.075.58.436.657a.8.8 0 0 0 .316-.016.77.77 0 0 0 .355-.188c.057-.053.082-.117.075-.154-.009-.048-.048-.052-.105-.056a.4.4 0 0 1-.15-.033c-.189-.096-.098-.327-.054-.467a6.4 6.4 0 0 1 .529-1.212c.118-.217.067-.276-.067-.368-.114-.078-.137-.097-.214-.147-.153-.099-.26-.06-.378.047a19 19 0 0 0-1.472 1.521c.268-.716.414-1.028.512-1.248.085-.19.063-.243-.044-.315-.074-.05-.154-.101-.282-.182-.114-.071-.206-.046-.284.025a28 28 0 0 0-1.633 1.655c.268-.625.502-1.16.585-1.336.079-.168.093-.248-.043-.345a4 4 0 0 0-.29-.188c-.177-.106-.244-.035-.313.074l-.117.188c-.767 1.277-1.39 1.983-1.639 2.065-.106.035-.157.01-.182-.013-.09-.085-.01-.329.027-.427.13-.353.386-.915.649-1.454.1-.205.069-.264-.073-.365-.09-.063-.172-.112-.279-.176a.3.3 0 0 0-.108-.046z"/></svg>