<svg xmlns="http://www.w3.org/2000/svg" viewBox="0 0 24 24"><path d="M5.25 3h13.5A2.257 2.257 0 0 1 21 5.25v13.5A2.257 2.257 0 0 1 18.75 21H5.25A2.256 2.256 0 0 1 3 18.75v-3.11c.74.436 2.582 1.519 3.028 1.773a.73.73 0 0 0 .779-.001l3.164-1.84.018-.01c1.894-1.101 3.942-2.292 4.027-2.343.153-.09.162-.364-.012-.464l-.02-.013-.602-.347a.56.56 0 0 0-.556.006c-.085.05-5.846 3.397-6.039 3.507a.74.74 0 0 1-.745 0L3 14.122v-1.53c.74.435 2.582 1.518 3.028 1.772a.73.73 0 0 0 .779 0c.142-.084 1.607-.937 3.182-1.851l.007-.005 4.02-2.337c.153-.09.162-.365-.012-.465l-.02-.012-.602-.347a.56.56 0 0 0-.556.006c-.085.05-5.846 3.397-6.039 3.506a.74.74 0 0 1-.745 0L3 11.073v-1.35c.74.435 2.582 1.517 3.028 1.772a.73.73 0 0 0 .779 0l3.182-1.851.005-.003 4.022-2.339c.153-.09.162-.365-.012-.465l-.02-.012-.602-.347a.56.56 0 0 0-.556.006c-.085.05-5.846 3.396-6.039 3.505a.74.74 0 0 1-.745 0L3 8.205V5.25A2.256 2.256 0 0 1 5.25 3"/></svg>