<svg xmlns="http://www.w3.org/2000/svg" viewBox="0 0 24 24"><path d="M11.044 20.952c-2.663-.278-5.11-1.782-6.602-4.062-1.463-2.234-1.842-5.148-1-7.696.188-.571.66-1.565.975-2.056a9.089 9.089 0 0 1 5.775-3.952c2.507-.508 5.001.03 7.12 1.538.53.378 1.495 1.332 1.89 1.87a9.55 9.55 0 0 1 1.085 1.892 9.002 9.002 0 0 1-3.393 11.064c-1.693 1.108-3.806 1.615-5.85 1.402zm.905-17.912c-.05-.05-.49.158-.776.368-.549.404-.714.878-.61 1.746.06.497.396 2.206 1.012 5.157.165.787.316 1.476.336 1.532.02.055.043-1.898.05-4.34.007-2.441.002-4.45-.012-4.463z"/></svg>