<svg xmlns="http://www.w3.org/2000/svg" viewBox="0 0 24 24"><path d="M2.188 4.293A.187.187 0 0 0 2 4.48v15.047a.187.187 0 0 0 .188.18h2.495a.187.187 0 0 0 .196-.18V4.48a.187.187 0 0 0-.196-.187zm8.193.391-1.044.424-1.304.465a.171.171 0 0 0-.09.057.196.196 0 0 0 0 .162l2.331 6.253-2.356 6.203a.18.18 0 0 0 .115.229l.391.138 1.965.7h.073a.187.187 0 0 0 .147-.104l.603-1.63.562-1.518 1.37-3.619a1.23 1.23 0 0 0 .073-.334v-.105a1.361 1.361 0 0 0-.074-.45l-.309-.822-1.11-2.968-.112-.309-1.003-2.667a.163.163 0 0 0-.115-.105.187.187 0 0 0-.113 0zm5.994.374a.187.187 0 0 0-.125.05l-1.924 1.557a.18.18 0 0 0 0 .245l4.353 5.095-4.378 5.085a.187.187 0 0 0 0 .253l1.925 1.573a.147.147 0 0 0 .08 0 .163.163 0 0 0 .171-.057l5.21-6.049a1.296 1.296 0 0 0 .188-1.4 1.28 1.28 0 0 0-.164-.246L19.837 8.98l-3.334-3.872a.187.187 0 0 0-.128-.05z"/></svg>