<svg xmlns="http://www.w3.org/2000/svg" width="192" height="192" viewBox="0 0 192 192"><path d="M17.504 34.342A1.496 1.496 0 0 0 16 35.838v120.38c.03.808.696 1.445 1.504 1.44h19.961c.833.04 1.568-.606 1.568-1.44V35.838a1.496 1.496 0 0 0-1.568-1.496zM83.05 37.47l-18.785 7.112c-1.068.268-.918 1.305-.72 1.752L82.194 96.36l-18.849 49.626a1.44 1.44 0 0 0 .92 1.833l18.849 6.704h.584a1.52 1.52 0 0 0 1.176-.832l20.281-54.138c.321-.859.518-1.758.551-3.248.034-1.489-.166-2.705-.559-3.865L84.874 38.31c-.268-.8-1.17-1.032-1.824-.84m46.954 3.392L114.61 53.318a1.44 1.44 0 0 0 0 1.96l34.825 40.762-35.025 40.68a1.496 1.496 0 0 0 0 2.025l15.4 12.584c.21.057.463.245.672.187.507.144 1.018-.224 1.337-.643l41.681-48.394a10.4 10.4 0 0 0 1.504-11.2L132.028 40.86a1.6 1.6 0 0 0-1.024-.4 1.6 1.6 0 0 0-1 .4z"/></svg>