<svg xmlns="http://www.w3.org/2000/svg" viewBox="0 0 24 24"><path d="M2.188 4.293A.187.187 0 0 0 2 4.48v15.047a.187.187 0 0 0 .188.18h2.495a.187.187 0 0 0 .196-.18V4.48a.187.187 0 0 0-.196-.187zm8.193.391-1.044.424-1.304.465a.17.17 0 0 0-.09.057.2.2 0 0 0 0 .162l2.331 6.253-2.356 6.203a.18.18 0 0 0 .115.229l.391.138 1.965.7h.073a.19.19 0 0 0 .147-.104l.603-1.63.562-1.518 1.37-3.619a1.2 1.2 0 0 0 .073-.334v-.105a1.4 1.4 0 0 0-.074-.45l-.309-.822-1.11-2.968-.112-.309-1.003-2.667a.16.16 0 0 0-.115-.105.2.2 0 0 0-.113 0m5.994.374a.2.2 0 0 0-.125.05l-1.924 1.557a.18.18 0 0 0 0 .245l4.353 5.095-4.378 5.085a.187.187 0 0 0 0 .253l1.925 1.573a.15.15 0 0 0 .08 0 .16.16 0 0 0 .171-.057l5.21-6.049a1.3 1.3 0 0 0 .188-1.4 1.3 1.3 0 0 0-.164-.246L19.837 8.98l-3.334-3.872a.2.2 0 0 0-.128-.05"/></svg>