<svg xmlns="http://www.w3.org/2000/svg" viewBox="0 0 24 24"><path d="M12 3c-4.96 0-9 4.04-9 9s4.04 9 9 9 9-4.04 9-9-4.04-9-9-9m0 .908c4.463 0 8.092 3.63 8.092 8.092 0 4.463-3.63 8.092-8.092 8.092-4.463 0-8.092-3.63-8.092-8.092 0-4.463 3.63-8.092 8.092-8.092zm0 .845A7.247 7.247 0 0 0 4.753 12c0 1.628.534 3.133 1.454 4.35L10 12.56l.26.248 5.433 5.432c.112-.062.211-.124.31-.199L10 12.037 6.356 15.68l-.51-.51L10 11.019l.26.248 6.34 6.328c.1-.075.187-.162.274-.236l-6.837-6.837-.062.012-3.804 3.791-.51-.51 4.003-4.002 4.674-4.674A7.253 7.253 0 0 0 12 4.753m3.07.683-4.562 4.55 6.874 6.862A7.218 7.218 0 0 0 19.247 12a7.25 7.25 0 0 0-4.177-6.563zm.087.423.51.51-4.14 4.14-.51-.51zm.187 1.343.51.51-3.593 3.592-.51-.51zm-5.345 6.364-3.332 3.332A7.195 7.195 0 0 0 12 19.235c1.081 0 2.1-.236 3.02-.659z"/></svg>