<svg xmlns="http://www.w3.org/2000/svg" viewBox="0 0 24 24"><path d="M17.114 2c-.068-.004-.068.154-.068.577v.579h-4.528c-4.329 0-4.538.003-4.742.058-.284.076-.385.132-.574.318-.18.177-.298.371-.35.576-.026.104-.035 1.437-.035 5.075v4.935l.282-.009.281-.009.016-8.235h9.65v.594c0 .696-.003.692.29.425a385.548 385.548 0 0 0 1.217-1.082 194.329 194.329 0 0 1 .735-.65l.257-.23.331-.297.108-.099-.152-.145c-.17-.16-.372-.34-1.31-1.16l-.832-.732a27.57 27.57 0 0 1-.365-.33c-.105-.096-.17-.157-.211-.159zm-4.893 2.207c.73 0 1.459.007 1.512.022.095.027.208.194.208.307 0 .045-.04.125-.094.187l-.095.107H10.69l-.095-.107c-.053-.062-.094-.142-.094-.187 0-.113.113-.28.208-.307.053-.015.782-.022 1.512-.022m.09 4.642c-.537 0-1.303.241-1.777.56-.163.11-.673.603-.673.65 0 .02-.017.046-.038.06-.089.056-.354.556-.472.891-.096.27-.16.664-.16.98 0 .302.084.817.164 1.004.024.056.059.14.077.188.024.06.052.083.093.076.053-.009.238-.173.845-.748a2.23 2.23 0 0 1 .178-.16c.006 0 .076-.066.157-.146.08-.08.242-.235.36-.343.308-.282.916-.845 1.066-.988.33-.312.485-.456.881-.821.235-.216.473-.439.53-.494.056-.056.136-.128.177-.16.136-.107.086-.179-.203-.295-.361-.145-.875-.254-1.206-.254zm5.058.31c-.197-.006-.279.003-.297.031-.014.022-.025 2.036-.025 4.477v4.437L6.922 18.09l-.008-.586c-.007-.492-.016-.586-.053-.586-.025 0-.117.065-.206.144-.089.08-.242.213-.34.297a6.35 6.35 0 0 0-.227.201c-.04.04-.42.376-.734.649-.178.155-.719.64-.764.684-.06.061-.41.365-.505.44-.13.102-.094.175.223.446a48.33 48.33 0 0 1 1.048.926c.165.14.557.482.61.534.027.026.13.116.227.2.098.083.281.244.408.357.126.112.247.205.267.205.028 0 .04-.146.046-.585l.008-.586 4.856-.016c4.666-.014 4.862-.017 5.008-.072a.923.923 0 0 0 .2-.1c.027-.022.062-.04.078-.04.05 0 .305-.282.4-.442.183-.307.175-.015.175-5.739V9.17zm-5.398 2.186-.15.147c-.081.08-.422.405-.756.723-.57.54-.963.915-1.288 1.227l-.138.132.056.096c.152.261.464.6.77.837a.861.861 0 0 0 .194.116.11.11 0 0 0 .04.01c.012 0 .025-.003.04-.01s.033-.016.052-.028a.884.884 0 0 0 .127-.108c.08-.08.393-.378.694-.662.61-.573.853-.804 1.204-1.14a69.633 69.633 0 0 1 1.193-1.125.459.459 0 0 0 .106-.127.075.075 0 0 0 .009-.03.034.034 0 0 0-.004-.018c-.01-.017-.041-.026-.146-.032a7.583 7.583 0 0 0-.321-.006c-.15-.002-.347-.002-.606-.002zm2.56 1.613H12.97l-.542.526c-1.266 1.227-1.32 1.283-1.312 1.342.005.035.052.073.116.096.285.102.491.152.7.17 1.054.094 1.92-.21 2.615-.914.265-.27.538-.678.65-.972.09-.236.176-.248-.667-.248zm-5.602.936h.575v.67l-.647-.002c-.468 0-.667-.012-.718-.04-.096-.053-.188-.2-.188-.3 0-.107.172-.282.305-.309.054-.01.357-.02.673-.02zm.91 0H13c.502 0 .631.009.716.049.122.058.225.19.225.287 0 .107-.114.264-.218.3-.057.02-.347.033-.715.033h-.62v-.335z"/></svg>