<svg xmlns="http://www.w3.org/2000/svg" viewBox="0 0 24 24"><path d="M13.677 4.845a53.562 53.562 0 0 0-.145 3.534l-.001 1.04.185-.11c.646-.378 2.71-1.252 3.834-1.622 1.064-.352 3.074-.803 4.126-.926L22 6.723l-.142.176c-.078.096-.423.478-.766.85-2.227 2.41-4.272 5.124-5.205 6.908l-.259.495.024.495c.034.725.235 1.096 1.014 1.877.645.648 1.303 1.12 2.34 1.678l.6.324-.371-.036-.371-.035.17.145c.121.101-.057.037-.598-.218-1.497-.702-2.999-1.25-4.239-1.548a59.962 59.962 0 0 0-1.95-.4c-1.893-.361-2.854-.613-3.417-.896-.37-.186-.768-.61-1.107-1.182-.39-.658-.728-1.002-1.213-1.241-.463-.227-1.75-.61-3.217-.956-1.824-.43-1.768-.44.484-.082.957.152 1.846.278 1.974.278.145.002.385-.066.628-.176.707-.322 1.23-.284 2.183.155.455.21.576.228.855.13.219-.075.47-.525.574-1.03.084-.408.04-.658-.334-1.92-.626-2.11-.595-2.688.2-3.81.596-.84 1.735-1.623 3.141-2.161.746-.285.722-.295.679.302"/></svg>