<svg xmlns="http://www.w3.org/2000/svg" width="192" height="192" viewBox="0 0 192 192"><path d="M123.71 115.96a39.92 39.92 0 0 1-32.352 32.344 120 120 0 0 1-16.344 1.72c-6.544.16-59.016.16-59.016.16l2.24-4.64s19.96-.16 22.712-.16a176 176 0 0 0 19.44-1.376 32.56 32.56 0 0 0 28.72-24.08l3.96-13.424a24.32 24.32 0 0 1 23.744-19.608l38.2-2.416-1.896 3.792-11.696.72a18.16 18.16 0 0 0-16.68 16.168zm47.304-64c-44.736.32-52.128 7.736-62.112 25.976h49.384zm2.24-5 2.744-5.152h-73.28c-24.776 0-37.52 8.432-45.256 23.912l-6.024 12.216h33.368c11.712-22.712 26.16-30.448 61.44-30.976zM79.126 89.984l-34.752 3.432-23.4 46.456c18.584 0 28.048-1.712 38.88-17.2a320 320 0 0 0 19.28-32.688z"/></svg>