<svg xmlns="http://www.w3.org/2000/svg" viewBox="0 0 24 24"><path d="M15.464 14.496a4.99 4.99 0 0 1-4.044 4.043 15 15 0 0 1-2.043.215c-.818.02-7.377.02-7.377.02l.28-.58s2.495-.02 2.839-.02a22 22 0 0 0 2.43-.172 4.07 4.07 0 0 0 3.59-3.01l.495-1.678a3.04 3.04 0 0 1 2.968-2.451l4.775-.302-.237.474-1.462.09a2.27 2.27 0 0 0-2.085 2.021zm5.913-8c-5.592.04-6.516.967-7.764 3.247h6.173zm.28-.625L22 5.227h-9.16c-3.097 0-4.69 1.054-5.657 2.989L6.43 9.743h4.171c1.464-2.839 3.27-3.806 7.68-3.872zM9.891 11.249l-4.344.429-2.925 5.807c2.323 0 3.506-.214 4.86-2.15a40 40 0 0 0 2.41-4.086z"/></svg>