<svg xmlns="http://www.w3.org/2000/svg" viewBox="0 0 24 24"><path d="M5.025 4.353c2.539-.13 3.914-.551 5.748-1.759.474-.312 1.063-.593 1.213-.594h.027c.15 0 .74.282 1.213.594 1.835 1.208 3.21 1.629 5.748 1.759 1.058.053 1.575.065 1.826.33.253.265.238.785.238 1.86-.005 3.5-.527 8.137-1.071 9.504-.653 1.642-1.811 2.78-3.864 3.794-.598.296-1.69.895-2.424 1.331S12.162 22 12.021 22q-.01 0-.021-.002l-.021.002c-.143 0-.925-.392-1.659-.828a44 44 0 0 0-2.424-1.33c-2.052-1.017-3.21-2.153-3.864-3.794-.543-1.367-1.065-6.004-1.069-9.506-.002-1.073-.016-1.594.237-1.86.251-.264.767-.275 1.825-.33"/></svg>