<svg xmlns="http://www.w3.org/2000/svg" viewBox="0 0 24 24"><path d="M11.493 21.938c-.583-.162-.693-.258-2.644-2.3a624.565 624.565 0 0 0-2.084-2.164c-1.628-1.685-1.67-1.732-1.853-2.08-.201-.383-.186-.935.036-1.344.348-.64.813-.93 1.486-.926.752.004.625-.104 4.033 3.432 1.445 1.5 1.535 1.568 1.85 1.404.087-.046.449-.383.805-.748a3772.79 3772.79 0 0 1 6.429-6.58c.494-.501.934-.912.978-.912.068 0 .075.161.049 1.025-.047 1.537-.303 2.58-.925 3.764-.52.99-.835 1.37-2.756 3.33-3.596 3.67-3.73 3.8-4.085 3.966a1.93 1.93 0 0 1-1.319.133m-.202-5.827a453.17 453.17 0 0 1-1.985-2.05c-1.327-1.382-1.611-1.61-2.22-1.786-.52-.15-1.194-.098-1.67.131-.47.225-.897.606-1.132 1.008-.1.171-.207.314-.238.317-.074.008-.35-.819-.486-1.455-.14-.655-.198-2.267-.109-3.006.11-.909.37-1.73.834-2.64.503-.986.9-1.553 1.531-2.193C6.967 3.27 8.32 2.559 10.115 2.175c.714-.152.89-.168 1.91-.175 1.202-.007 1.578.041 2.6.335.687.198 2.07.896 2.682 1.355.644.482 1.378 1.222 1.76 1.775.595.864 1.342 2.56 1.292 2.934-.01.08-.413.534-1.025 1.16a16116.421 16116.421 0 0 1-6.157 6.3c-.536.548-1.016.997-1.066.997s-.419-.335-.82-.745m1.315-2.768a3.518 3.518 0 0 0 2.502-2.17c.64-1.622-.128-3.521-1.734-4.288-.529-.252-.909-.332-1.545-.326-.975.01-1.772.37-2.467 1.113a3.419 3.419 0 0 0-.823 3.087c.428 1.803 2.31 2.998 4.067 2.584"/></svg>