<svg xmlns="http://www.w3.org/2000/svg" width="24" height="24" fill="none" viewBox="0 0 24 24"><path fill="#000" d="M7.45 2.974c-.986 0-1.784.798-1.784 1.784v2.26H5.13a1.783 1.783 0 1 0 0 3.568h.536v4.074a7.14 7.14 0 0 0 7.108 7.138h1.814a1.783 1.783 0 1 0 0-3.568h-1.784a3.57 3.57 0 0 1-3.57-3.57v-4.072h4.224c.986 0 1.546-.798 1.546-1.784s-.8-1.784-1.784-1.784H9.234V4.76c0-.988-.798-1.786-1.784-1.786m7.852 2.796c.986 0 1.784.8 1.784 1.784a.594.594 0 0 0 1.188 0A2.975 2.975 0 0 0 15.3 4.58a.594.594 0 1 0 .002 1.19"/><path fill="#000" d="M15.302 2.2a.594.594 0 0 0 0 1.188c2.3 0 4.164 1.864 4.164 4.164a.594.594 0 0 0 1.188 0A5.35 5.35 0 0 0 15.302 2.2"/></svg>