<svg version="1.1" viewBox="0 0 192 192" xmlns="http://www.w3.org/2000/svg"><path d="m71.469 32.079c-1.2915-0.01591-2.606 0.15476-3.9099 0.53388-6.9423 2.018-10.907 9.1564-8.8484 15.946 58.239 191.87-28.473-94.057 35.919 118.26l8e-3 -8e-3c2.0662 6.7895 9.3648 10.67 16.307 8.6521 6.9543-2.018 10.914-9.1641 8.8562-15.962l-35.927-118.24c-1.6788-5.523-6.8086-9.117-12.405-9.186z" opacity=".8"/><path d="m123.79 16.007c-4.6522 0.15272-9.0756 2.7236-11.306 7.0818-18.821 36.775-37.631 73.554-56.443 110.33-3.236 6.3312-0.61528 14.042 5.8727 17.21 6.484 3.1676 14.359 0.60021 17.603-5.7471 18.831-36.764 37.631-73.544 56.443-110.32 4.5801-8.9611-2.6552-18.873-12.169-18.56z" opacity=".6"/></svg>
