<svg xmlns="http://www.w3.org/2000/svg" viewBox="0 0 192 192"><path d="M71.469 32.079a13.39 13.39 0 0 0-3.91.534c-6.942 2.018-10.907 9.156-8.848 15.946 58.239 191.87-28.473-94.057 35.919 118.26l.008-.008c2.066 6.79 9.364 10.67 16.307 8.652 6.954-2.018 10.914-9.164 8.856-15.962L83.874 41.261c-1.679-5.523-6.809-9.117-12.405-9.186z" opacity=".8"/><path d="M123.79 16.007c-4.652.153-9.076 2.724-11.306 7.082-18.821 36.775-37.631 73.554-56.443 110.33-3.236 6.331-.615 14.042 5.873 17.21 6.484 3.167 14.359.6 17.603-5.747 18.83-36.764 37.63-73.544 56.443-110.32 4.58-8.961-2.656-18.873-12.17-18.56z" opacity=".6"/></svg>