<svg xmlns="http://www.w3.org/2000/svg" viewBox="0 0 24 24"><path d="M9.384 15.879 6.12 11.454s-.87-1.283-1.424-2.164c-.613-.958.079-2.376 1.424-2.376q.267 0 .474.058l1.147-2.03a4.5 4.5 0 0 0-1.621-.326c-1.385 0-2.907.69-3.698 2.28-.91 1.819-.119 3.256.217 3.735l5.696 8.179c.04.076.415.594 1.008.594.613 0 .95-.498 1.009-.575l1.72-2.529-1.483-2.107zm9.71-4.559-3.303 4.712-1.7-2.528 1.957-2.835c.356-.498 1.147-1.897.237-3.793-.732-1.532-2.314-2.28-3.698-2.28s-2.907.69-3.698 2.28c-.91 1.82-.118 3.256.218 3.735l1.997 2.854 1.483 2.07 2.215 3.275c.02.019.376.536.989.536.593 0 .949-.517 1.008-.575L22 11.321zm-6.507.115s-.87-1.283-1.424-2.164c-.613-.958.08-2.376 1.424-2.376 1.365 0 2.037 1.418 1.424 2.376-.554.9-1.424 2.164-1.424 2.164"/></svg>