<svg xmlns="http://www.w3.org/2000/svg" xml:space="preserve" width="24" height="24" fill="none" viewBox="0 0 24 24"><path fill="#000" stroke="#000" stroke-linecap="round" stroke-linejoin="round" stroke-width="1.48" d="M12.011 2.875c-5.022 0-9.136 4.427-9.136 9.768 3.662-2.566 6.675-8.858 12.027-5.799a6.572 6.539 0 0 1 1.86 1.667 6.115 6.085 0 0 1 1.18 2.888c.723-.504 2.337-1.697 2.488-2.602.092-.544-.397-1.215-.669-1.65a9.313 9.267 0 0 0-7.75-4.272m0 6.872a2.812 2.798 0 0 0-.562.055c-2.902.557-1.888 5.058.967 4.583 2.9-.482 2.264-4.618-.409-4.637zm9.114 1.657c-3.641 2.553-6.848 9.02-12.163 5.676a6.61 6.577 0 0 1-1.703-1.552c-.66-.852-.983-1.851-1.2-2.889-.713.494-2.356 1.71-2.489 2.613-.08.526.437 1.234.7 1.65a9.06 9.015 0 0 0 3.72 3.316c6.546 3.063 13.132-2.007 13.132-8.818z" class="cls-2"/></svg>