<svg xmlns="http://www.w3.org/2000/svg" width="192" height="192" viewBox="0 0 50.8 50.8"><defs><clipPath id="a" clipPathUnits="userSpaceOnUse"><path d="M-.014-.016v16.238c.352-.02.715.024 1.057.13.252-.107.505-.196.762-.192.053.001.106.006.159.015.446.076.628.857.703 1.515.082-.006.155.015.21.084.363.454.255 1.144.266 1.727 0 .02-.067.06-.149.1-.05.095-.097.193-.145.29.163.37-.02.922.03 1.351-.066 1.852-.075 2.608-.103 3.143.116.098.236.201.374.327.161.147-.133.416-.218.616-.121.285-.25.566-.38.846-.085.545-.195 1.242-.366 2.407a17.24 17.24 0 0 0-.164 2.156c.39.87.39.671.323 1.28-.098.887-.574 1.308-1.026 1.308-.088.353-.18.725-.287 1.178-.368 1.32-.286 2.866-1.046 3.989v12.261h11.06c-.229-.843 1.25-2.723 2.188-1.597l.244.002c-.259-.356-.183-.836.259-1.147a5.339 5.339 0 0 1-.228-.79c-.045-.21.429-.052.644-.064l.522-.025c.186-.117.397-.184.632-.22a.33.33 0 0 1 .149-.017 5.57 5.57 0 0 1 .923.015c.644-.11 1.467.016 2.214-.024.452-.027.685-.04.996-.06 1.412-.185 2.831-.318 4.249-.454 1.109-.106 2.218-.234 3.332-.266.15-.004.3-.006.45-.008 1.05-.007 2.102.056 3.153.076.647.07 1.296.113 1.94.208.599.088 1.083.21 1.139.63.58-.054 1.153-.075 1.704.025.528-.093 1.117-.276 1.335.125.17.314.157.764.015 1.157.033.217.02.431-.045.614l2.567.159 2.829.3c.219.068.828.051.656.201a30.69 30.69 0 0 1-.728.617.603.603 0 0 1 .25.222.53.53 0 0 1 .085.321h8.224V33.202c-.06.01-.12.02-.18.021l.01.04c.035.153.092.304.107.461.073.752-.042 1.117-.159 1.915-.666.133-1.344.578-2 .4-.342-.094-.255-.67-.292-1.023a21.323 21.323 0 0 1-.108-2.778c.041-1.617.612-7.548.765-8.766.089-.704.265-1.395.397-2.093l.03-.171a1.66 1.66 0 0 1 .06-.35c.12-.678.244-1.355.339-2.036.074-.537.065-2.556.5-2.81.197-.114.373-.194.531-.247V-.015H36.1c-.03.148-.066.282-.114.393.016.183.02.389.012.626-.008.244-.37.088-.686-.017-.47.136-1.081.029-1.705.014L31.333.944a1.022 1.022 0 0 1-.042.077l.021.11c.015.078-.053.076-.147.05a.753.753 0 0 1-.157.12c-.062.036-.65.036-1.39.02-.042 0-.085 0-.128-.002h-.049c-1.357-.032-3.138-.108-3.396-.118l-4.276-.15c-.45.107-.895.2-1.238-.045l-.037-.001-.31.022v.002c.188-.01.71-.044 0 .002v-.002c-.06.004-.057.003 0-.002l.001-.034h-.008c-.772.018-1.544.041-2.316.065-.295.053-.59.103-.85.026l-.208.007c-.509.085-1.049.146-1.497.069-.363.081-.81.273-.897-.02a4.056 4.056 0 0 1-.067-.25 2.44 2.44 0 0 1-.627-.035c-.164-.034.166-.066.418-.147-.29-.062-.474-.216-.365-.564a5.268 5.268 0 0 1-.228-.16ZM1.904 17.44c-.005.002-.008.01-.012.027-.016.084-.028.17-.037.255l.028.003c.003-.136.147.175.132.118-.028-.112-.081-.415-.111-.403Zm46.884 16.279c-.005-.005-.015.044-.033.129-.09.43-.063.527.037.449v-.02c-.001-.39.004-.55-.004-.558zM22.07 48.898l-1.373.043.297-.002c.356.003.71.004 1.066.004.003-.016.008-.03.01-.045z" style="fill:red;fill-opacity:1;fill-rule:nonzero;stroke:none;stroke-width:.264583"/></clipPath></defs><g clip-path="url(#a)" transform="translate(.098 .098)"><path d="M25.644 45.391c-.62-.392-.255-4.874.702-8.605.91-3.549 1.169-3.943 2.429-3.687l1.79.368c.904.187 1.39-.21 1.399-1.143.004-.4-.472-.516-2.643-.645-1.65-.098-3.33-.411-4.462-.833-2.493-.929-3.49-1.078-3.81-.57-.523.824-.247 1.072 1.57 1.41 2.582.48 2.797.721 2.62 2.932-.238 2.944-3.03 9.156-4.344 9.66-1.146.44-5.367-2.7-5.766-4.29-.332-1.325.144-3.513 1.541-7.082 1.225-3.126 1.406-3.898 1.563-6.656l.178-3.12-1.736-5.597c-2.464-7.944-2.36-9.53.623-9.53 1.98 0 2.468.65 3.19 4.253.332 1.654.926 4.097 1.321 5.428.395 1.331.806 2.926.913 3.544.106.619.325 1.206.486 1.305.161.1 1.447.236 2.857.302 2.401.114 4.085.614 4.538 1.347.102.165 1.098.836 2.213 1.49s2.489 1.67 3.054 2.257c.987 1.027 1.02 1.136.85 2.824-.098.966-.6 2.816-1.114 4.113-.514 1.296-1.117 3.58-1.34 5.076-.467 3.146-.736 3.538-3.3 4.82-1.856.927-4.38 1.226-5.322.63m-17.332-13.4c-.55-.7-1.715-1.963-2.59-2.804-1.706-1.644-1.966-2.508-1.116-3.72 1.007-1.439 4.596-.398 6.183 1.793 1.128 1.557 1.699 3.881 1.19 4.846-.482.915-.857 1.149-1.852 1.155-.6.003-1.078-.331-1.815-1.27zm29.178-2.86c-.666-.268-.413-2.045.496-3.479 1.533-2.417 4.243-5.949 4.94-6.437.868-.608 2.48-.606 3.09.004.625.625.6 1.9-.057 2.89-.78 1.178-7.255 7.227-7.704 7.2a2.945 2.945 0 0 1-.765-.177zm-6.23-6.1c-.963-1.063-.47-2.808 1.612-5.716.679-.948 1.451-2.478 1.717-3.4.715-2.487 1.523-3.898 2.61-4.562 1.177-.717 1.542-.737 2.16-.118.86.859.57 2.648-.989 6.107-.806 1.787-1.695 3.93-1.976 4.763-.282.832-.678 1.723-.88 1.98-1.169 1.484-3.333 1.964-4.255.946zm-6.415-2.005c-.829-.829-.998-2.514-.401-4.003.187-.468.434-2.894.549-5.39.153-3.339.342-4.792.714-5.5.982-1.865 2.676-1.56 3.263.59.406 1.483.176 7.748-.318 8.671-.173.323-.314 1.49-.314 2.596 0 1.818-.084 2.094-.884 2.894-1.079 1.079-1.642 1.11-2.609.142z" style="stroke-width:.302544;fill-rule:evenodd"/></g></svg>