<svg version="1.1" viewBox="0 0 24 24" xmlns="http://www.w3.org/2000/svg"><path d="m12.145 20.542c-0.26362-0.16668-0.10842-2.0724 0.29849-3.6588 0.38693-1.509 0.49705-1.6765 1.0328-1.5677l0.7611 0.15647c0.38438 0.07951 0.59102-0.08929 0.59485-0.486 0.0017-0.17008-0.20069-0.2194-1.1238-0.27425-0.70157-0.04167-1.4159-0.17476-1.8972-0.35419-1.06-0.39501-1.4839-0.45836-1.62-0.24236-0.22238 0.35036-0.10502 0.45581 0.66756 0.59952 1.0979 0.20409 1.1893 0.30657 1.114 1.2467-0.1012 1.2518-1.2883 3.8931-1.847 4.1074-0.48727 0.18708-2.282-1.148-2.4517-1.8241-0.14116-0.56338 0.061228-1.4937 0.65523-3.0112 0.52086-1.3292 0.59782-1.6574 0.66458-2.8301l0.075681-1.3266-0.73814-2.3798c-1.0477-3.3777-1.0035-4.0521 0.2649-4.0521 0.84189 0 1.0494 0.27638 1.3564 1.8084 0.14117 0.70327 0.39373 1.742 0.56168 2.308 0.16795 0.56593 0.34271 1.2441 0.3882 1.5069 0.04507 0.2632 0.13819 0.51278 0.20664 0.55488 0.06845 0.04252 0.61526 0.10035 1.2148 0.12841 1.0209 0.04847 1.7369 0.26107 1.9295 0.57274 0.04337 0.07015 0.46686 0.35546 0.94096 0.63354 0.47409 0.27808 1.0583 0.71008 1.2985 0.95966 0.41967 0.43668 0.4337 0.48302 0.36142 1.2008-0.04167 0.41074-0.25512 1.1973-0.47367 1.7488-0.21855 0.55105-0.47494 1.5222-0.56976 2.1583-0.19857 1.3377-0.31294 1.5043-1.4031 2.0494-0.78916 0.39416-1.8624 0.52129-2.2629 0.26787m-7.3695-5.6976c-0.23386-0.29764-0.72921-0.83466-1.1013-1.1922-0.72538-0.69902-0.83593-1.0664-0.47452-1.5817 0.42817-0.61186 1.9542-0.16923 2.629 0.76238 0.47962 0.66203 0.72241 1.6502 0.50598 2.0605-0.20494 0.38905-0.36439 0.48855-0.78746 0.4911-0.25512 0.0013-0.45836-0.14074-0.77173-0.54m12.406-1.2161c-0.28318-0.11395-0.1756-0.86952 0.2109-1.4793 0.65182-1.0277 1.8041-2.5295 2.1005-2.737 0.36907-0.25852 1.0545-0.25767 1.3139 0.00171 0.26575 0.26575 0.25512 0.80787-0.02424 1.2288-0.33165 0.50088-3.0848 3.0729-3.2757 3.0614a1.2756 1.2756 0 0 1-0.32527-0.07526zm-2.649-2.5937c-0.40946-0.45198-0.19984-1.1939 0.68541-2.4304 0.28871-0.40308 0.61696-1.0536 0.73006-1.4457 0.30401-1.0575 0.64757-1.6574 1.1098-1.9397 0.50046-0.30486 0.65565-0.31337 0.91842-0.050173 0.36567 0.36524 0.24236 1.1259-0.42052 2.5967-0.34271 0.75982-0.7207 1.671-0.84018 2.0252-0.1199 0.35376-0.28828 0.73261-0.37417 0.84189-0.49705 0.63099-1.4172 0.83508-1.8092 0.40223zm-2.7276-0.85252c-0.35249-0.35249-0.42434-1.0689-0.1705-1.7021 0.07952-0.19899 0.18453-1.2305 0.23343-2.2918 0.06505-1.4197 0.14542-2.0375 0.30359-2.3386 0.41754-0.79299 1.1378-0.6633 1.3874 0.25086 0.17263 0.63056 0.07484 3.2944-0.13521 3.6869-0.07356 0.13734-0.13351 0.63354-0.13351 1.1038 0 0.773-0.03572 0.89036-0.37587 1.2305-0.45878 0.45879-0.69817 0.47197-1.1093 0.06038"/></svg>
