<svg xmlns="http://www.w3.org/2000/svg" viewBox="0 0 24 24"><path d="M12.145 20.542c-.264-.167-.108-2.072.298-3.659.387-1.509.498-1.676 1.033-1.567l.761.156c.385.08.591-.09.595-.486.002-.17-.2-.22-1.124-.274-.701-.042-1.415-.175-1.897-.354-1.06-.395-1.484-.459-1.62-.243-.222.35-.105.456.668.6 1.098.204 1.19.306 1.114 1.246-.101 1.252-1.288 3.893-1.847 4.108-.487.187-2.282-1.148-2.452-1.824-.141-.564.061-1.494.655-3.012.521-1.329.598-1.657.665-2.83l.076-1.326-.739-2.38c-1.047-3.378-1.003-4.052.265-4.052.842 0 1.05.276 1.357 1.808.14.704.393 1.742.561 2.308.168.566.343 1.244.389 1.507.045.263.138.513.206.555.069.043.616.1 1.215.128 1.021.049 1.737.262 1.93.573.043.07.466.356.94.634.475.278 1.059.71 1.299.96.42.436.434.482.361 1.2-.041.411-.255 1.198-.473 1.749a11.775 11.775 0 0 0-.57 2.158c-.199 1.338-.313 1.505-1.403 2.05-.79.394-1.862.521-2.263.268m-7.37-5.698a14.236 14.236 0 0 0-1.1-1.192c-.726-.7-.837-1.067-.475-1.582.428-.612 1.954-.17 2.629.762.48.662.722 1.65.506 2.061-.205.389-.365.489-.788.491-.255.001-.458-.14-.772-.54m12.406-1.216c-.283-.114-.175-.87.211-1.48.652-1.027 1.804-2.529 2.1-2.736.37-.259 1.055-.258 1.315.001.266.266.255.808-.024 1.23-.332.5-3.085 3.072-3.276 3.06a1.276 1.276 0 0 1-.325-.075zm-2.649-2.594c-.409-.452-.2-1.194.686-2.43.289-.403.617-1.054.73-1.446.304-1.057.648-1.657 1.11-1.94.5-.304.655-.313.918-.05.366.366.243 1.126-.42 2.597-.343.76-.721 1.671-.84 2.025-.12.354-.289.733-.375.842-.497.631-1.417.835-1.809.402zm-2.727-.852c-.353-.353-.424-1.07-.17-1.702.079-.2.184-1.23.233-2.292.065-1.42.145-2.038.303-2.339.418-.793 1.138-.663 1.388.251.172.63.075 3.295-.135 3.687-.074.137-.134.634-.134 1.104 0 .773-.036.89-.376 1.23-.459.46-.698.472-1.11.06"/></svg>