<svg xmlns="http://www.w3.org/2000/svg" viewBox="0 0 24 24"><path d="M3.15 13.45c.085.219.202.406.352.56.15.156.326.275.531.357.205.083.428.124.668.124.234 0 .454-.043.658-.128a1.62 1.62 0 0 0 .893-.918c.084-.215.126-.456.126-.722V8.615h1.024v6.656H6.388v-.618a2.353 2.353 0 0 1-.804.541c-.31.127-.642.19-1 .19-.364 0-.704-.061-1.019-.185A2.391 2.391 0 0 1 2.2 13.85a2.76 2.76 0 0 1-.2-1.07V8.616h1.024v4.108c0 .266.042.508.127.727m6.016-4.836v2.425c.228-.222.491-.398.79-.528.3-.13.624-.195.975-.195a2.63 2.63 0 0 1 1.853.742c.234.228.42.497.556.808.136.31.205.64.205.989 0 .348-.069.676-.205.984a2.56 2.56 0 0 1-1.385 1.345c-.318.133-.66.2-1.024.2-.35 0-.678-.065-.98-.195a2.593 2.593 0 0 1-.794-.528v.608h-.976V8.616h.985m.112 4.897c.088.202.21.38.366.532a1.755 1.755 0 0 0 1.22.495 1.708 1.708 0 0 0 1.57-1.027c.09-.203.135-.422.135-.656 0-.235-.045-.455-.136-.661a1.745 1.745 0 0 0-.366-.537 1.645 1.645 0 0 0-.54-.357 1.727 1.727 0 0 0-.664-.128 1.726 1.726 0 0 0-1.21.485c-.155.152-.279.33-.37.537a1.617 1.617 0 0 0-.136.66c0 .235.044.454.131.657m4.822-1.637a2.58 2.58 0 0 1 .537-.803c.227-.231.497-.414.81-.547.311-.133.65-.2 1.013-.2.358 0 .69.064.995.19a2.365 2.365 0 0 1 1.307 1.327c.123.308.185.642.185 1.003v.314H14.9c.033.196.098.379.195.547a1.658 1.658 0 0 0 .863.727c.185.07.382.105.59.105.592 0 1.07-.238 1.434-.714l.711.514a2.63 2.63 0 0 1-.916.76 2.688 2.688 0 0 1-1.229.276 2.81 2.81 0 0 1-1.038-.19 2.538 2.538 0 0 1-.84-.532 2.524 2.524 0 0 1-.56-.804 2.444 2.444 0 0 1-.205-1.003c0-.342.065-.665.195-.97m1.37-.375c-.276.225-.46.524-.55.898h3.032a1.565 1.565 0 0 0-.54-.898 1.49 1.49 0 0 0-.97-.338c-.37 0-.695.113-.97.338m5.318.109c-.207.222-.31.523-.31.903v2.758h-.986v-4.85h.975v.6a1.37 1.37 0 0 1 .483-.466c.198-.114.434-.171.707-.171H22v.893h-.41a1.05 1.05 0 0 0-.8.333"/></svg>