<svg xmlns="http://www.w3.org/2000/svg" viewBox="0 0 24 24"><path d="M3.15 13.45q.127.329.352.56.224.234.531.357.308.124.668.124.351 0 .658-.128a1.62 1.62 0 0 0 .893-.918q.126-.323.126-.722V8.615h1.024v6.656H6.388v-.618a2.35 2.35 0 0 1-.804.541q-.464.19-1 .19-.546 0-1.019-.185A2.4 2.4 0 0 1 2.2 13.85a2.8 2.8 0 0 1-.2-1.07V8.616h1.024v4.108q0 .399.127.727m6.016-4.836v2.425q.342-.333.79-.528.45-.195.975-.195a2.63 2.63 0 0 1 1.853.742q.352.342.556.808.204.465.205.989 0 .522-.205.984a2.56 2.56 0 0 1-1.385 1.345q-.478.2-1.024.2-.526 0-.98-.195a2.6 2.6 0 0 1-.794-.528v.608h-.976V8.616zm.112 4.897q.132.303.366.532a1.76 1.76 0 0 0 1.22.495 1.71 1.71 0 0 0 1.57-1.027q.135-.305.135-.656t-.136-.661a1.8 1.8 0 0 0-.366-.537 1.7 1.7 0 0 0-.54-.357 1.7 1.7 0 0 0-.664-.128 1.73 1.73 0 0 0-1.21.485q-.233.227-.37.537a1.6 1.6 0 0 0-.136.66q0 .352.131.657m4.822-1.637a2.6 2.6 0 0 1 .537-.803q.34-.347.81-.547.467-.2 1.013-.2.537 0 .995.19a2.37 2.37 0 0 1 1.307 1.327q.185.462.185 1.003v.314H14.9q.05.294.195.547a1.66 1.66 0 0 0 .863.727q.278.105.59.105.888 0 1.434-.714l.711.514a2.6 2.6 0 0 1-.916.76 2.7 2.7 0 0 1-1.229.276 2.8 2.8 0 0 1-1.038-.19 2.5 2.5 0 0 1-.84-.532 2.5 2.5 0 0 1-.56-.804 2.4 2.4 0 0 1-.205-1.003q0-.513.195-.97m1.37-.375q-.415.337-.55.898h3.032a1.57 1.57 0 0 0-.54-.898 1.5 1.5 0 0 0-.97-.338q-.556 0-.97.338m5.318.109q-.31.333-.31.903v2.758h-.986v-4.85h.975v.6a1.4 1.4 0 0 1 .483-.466q.297-.171.707-.171H22v.893h-.41a1.05 1.05 0 0 0-.8.333"/></svg>