<svg xmlns="http://www.w3.org/2000/svg" viewBox="0 0 24 24"><path d="M14.18 2a4.28 4.28 0 0 0-4.17 3.337l.96.214a3.286 3.286 0 0 1 3.21-2.567 3.29 3.29 0 0 1 3.296 3.296 3.29 3.29 0 0 1-3.296 3.297v.984a4.29 4.29 0 0 0 4.28-4.28A4.29 4.29 0 0 0 14.18 2m.074 4.034a4.195 4.195 0 0 0-4.19 4.19c0 1.647.954 3.063 2.337 3.747v6.052L13.859 22h.796l1.501-1.975v-6.061a4.2 4.2 0 0 0 2.105-2.494l.01-.035v-.017a1 1 0 0 0 .038-.144v.008c.002-.017.019-.066.032-.132l.005-.023v-.015c.064-.287.098-.587.098-.887 0-.862-.261-1.664-.705-2.334l-.41.272a3.72 3.72 0 0 1 .531 2.875l-.006.028v.007c-.006.022-.017.056-.028.112l-.001.004v.004a1 1 0 0 1-.033.118l-.012.038v.001a3.7 3.7 0 0 1-1.973 2.243l-.143.066v6.2l-1.253 1.649h-.304l-1.214-1.647v-6.196l-.146-.065a3.696 3.696 0 0 1 1.507-7.074c.524 0 1.024.108 1.469.3l.194-.452a4.2 4.2 0 0 0-1.663-.34m-5.151 6.6-3.24 3.24-.324 2.269.534.535 2.27-.325 3.15-3.149-.349-.348-3.033 3.033-1.864.267-.186-.187.266-1.864 3.123-3.123z"/></svg>