<svg xmlns="http://www.w3.org/2000/svg" viewBox="0 0 192 192"><path d="m127.95 109.95-2.72-.96a10.401 10.401 0 0 1-2.536-1.096c-.552-.416-.792-.864-.72-1.448a1.84 1.84 0 0 1 .96-1.44c.552-.352 1.336-.48 2.368-.48 1.104 0 2 .24 2.616.72.616.48.856 1.096.856 1.992h4.368a5.92 5.92 0 0 0-.552-2.616 5.6 5.6 0 0 0-1.584-1.992 8 8 0 0 0-2.472-1.265 10.401 10.401 0 0 0-3.264-.488c-1.2 0-2.24.176-3.2.416a8.8 8.8 0 0 0-2.368 1.097 5.6 5.6 0 0 0-1.577 1.824 6.4 6.4 0 0 0-.656 2.304c-.064 2.464 1.44 4.296 4.6 5.568 2.305.856 4 1.512 4.857 1.816.856.32 1.512.72 1.752 1.104.24.408.304.856.24 1.44a2 2 0 0 1-1.104 1.272 5.2 5.2 0 0 1-2.608.408 4.48 4.48 0 0 1-2.96-1.096c-.649-.656-.96-1.504-.96-2.784h-4.369q0 1.808.552 3.272c.384.96.96 1.744 1.584 2.368.72.649 1.576 1.096 2.608 1.44 1.04.313 2.24.553 3.44.553s2.305-.176 3.265-.416a6.4 6.4 0 0 0 2.472-1.2 6.4 6.4 0 0 0 1.584-1.92c.416-.72.552-1.585.656-2.72 0-1.44-.32-2.545-.968-3.44-.576-.577-2.024-1.441-4.16-2.233m-18.321-.24q-.72.72-2.368.72h-4.056v-5.504h4.056c1.104 0 1.92.248 2.368.728a2.64 2.64 0 0 1 .8 2c0 .92-.24 1.576-.8 2.056m5.92 11.937-4.784-7.808a5.6 5.6 0 0 0 2.784-2.305c.656-.96.864-2.304.864-3.88a6.4 6.4 0 0 0-.56-2.856 5.6 5.6 0 0 0-1.504-2 8 8 0 0 0-2.48-1.2 12.801 12.801 0 0 0-3.2-.416h-7.937v20.385h4.368v-7.32h3.44l3.64 7.32h5.33v.072zm-33.586 0 1.336-4.48h7.393l1.344 4.472h4.776l-7.144-20.377H84.33l-7.144 20.385zm2.2-8.432 2.712-8.28h.24l2.72 8.28zm-23.2 8.424H74.77v-4.224h-9.44v-4.304h8.432v-3.817H65.33v-4.36h9.136v-3.744H60.93v20.449zm98.82-27.465H176v-4.952h-11.137v-5.017h9.937v-4.504h-9.937v-5.144h10.761v-4.368h-15.953v24.033h.104zm-15.129 0h5.153V74.62h7.016v-4.368h-19.185v4.368h7.016zm-24.137 0 1.592-5.16h8.689l1.584 5.16h5.64l-8.424-24.017h-6.289l-8.424 24.025zm2.656-9.873 3.2-9.68h.233l3.2 9.688zm-10.825-14.145h-8.184l-4.536 17.017h-.24l-4.536-17.017h-8.185v24.025h4.528V74.612h.248l5.737 19.561h4.712l5.736-19.56h.24v19.56h4.536zM76.386 94.181h5.16V70.156h-5.16zm-15.6 0h5.152V74.612h7.008v-4.36H53.77v4.36h7.016zm-20.874 0h15.993V89.23H45.072V70.116H39.92zM16 70.156v13.681c0 .96 0 1.825.072 2.545s.168 1.336.24 1.928a4.8 4.8 0 0 0 .48 1.512c.168.408.48.856.72 1.264 1.68 2.376 4.369 3.52 8.28 3.52 3.921 0 6.601-1.2 8.29-3.52a6.4 6.4 0 0 0 .72-1.264c.175-.416.32-.96.48-1.52.071-.544.175-1.2.24-1.92.063-.72.071-1.585.071-2.545v-13.68h-5.16V83.94a10.401 10.401 0 0 1-.304 3.025 4 4 0 0 1-1.44 2 4.64 4.64 0 0 1-2.856.856 4.8 4.8 0 0 1-2.848-.864 4 4 0 0 1-1.448-2 10.401 10.401 0 0 1-.304-3.017V70.18H16z"/></svg>