<svg version="1.1" viewBox="0 0 192 192" xmlns="http://www.w3.org/2000/svg"><path d="m169.92 92.035c0.20405 2.1868 0.1463 5.3669 0.1463 7.6038 0.0962 40.433-32.995 73.273-73.9 73.361-40.902 0.0885-74.143-32.61-74.232-73.035a72.742 72.742 0 0 1 21.972-52.186l-7.496-7.1033v-21.676l19.812 19.088a74.929 74.929 0 0 1 80.042 0.30415l20.413-19.392v21.679l-8.1736 7.5037a72.765 72.765 0 0 1 18.157 29.545h-16.578c-12.254-29.422-46.319-43.443-76.087-31.335-29.772 12.12-43.963 45.784-31.701 75.209 12.254 29.414 46.323 43.443 76.092 31.324 18.922-7.7 32.374-24.64 35.435-44.645h-48.71l-15.457-16.247z"/></svg>
