<svg xmlns="http://www.w3.org/2000/svg" viewBox="0 0 192 192"><path d="M169.92 92.035c.204 2.187.146 5.367.146 7.604.096 40.433-32.995 73.273-73.9 73.36-40.902.09-74.143-32.61-74.232-73.034a72.742 72.742 0 0 1 21.972-52.186l-7.496-7.104V19l19.812 19.088a74.929 74.929 0 0 1 80.042.304L156.677 19v21.679l-8.173 7.503a72.765 72.765 0 0 1 18.157 29.545h-16.578c-12.254-29.422-46.32-43.443-76.087-31.335-29.772 12.12-43.963 45.784-31.701 75.21 12.254 29.413 46.323 43.442 76.092 31.323 18.922-7.7 32.374-24.64 35.435-44.645h-48.71L89.655 92.033z"/></svg>