<svg xmlns="http://www.w3.org/2000/svg" viewBox="0 0 24 24"><path fill-rule="evenodd" d="M6.175 22a1.1 1.1 0 0 1-.398-.07.84.84 0 0 1-.301-.208 1 1 0 0 1-.195-.325 1.3 1.3 0 0 1-.069-.44v-1.494h.468v1.521q0 .125.031.229a.5.5 0 0 0 .093.18.45.45 0 0 0 .157.122.5.5 0 0 0 .214.04.5.5 0 0 0 .219-.04.45.45 0 0 0 .155-.122.5.5 0 0 0 .094-.18.8.8 0 0 0 .031-.229v-1.521h.468v1.494q0 .231-.07.425a.87.87 0 0 1-.498.54 1 1 0 0 1-.399.077m2.346-1.195h.593v.402H8.52v.589h-.402v-.589H7.53v-.402h.589v-.589h.402zm1.407 1.14v-1.836l-.42.177-.166-.385.697-.326h.343v2.37zm.993-2.481h1.574v.443h-1.106v.603h.994v.444h-.994v.991h-.468zm2.8.956a.73.73 0 0 1 .65.458.8.8 0 0 1 .063.311.8.8 0 0 1-.07.326.86.86 0 0 1-.453.427.9.9 0 0 1-.316.058.9.9 0 0 1-.35-.066.9.9 0 0 1-.27-.179.8.8 0 0 1-.174-.263.9.9 0 0 1-.058-.32q0-.24.094-.436a3 3 0 0 1 .242-.409l.575-.82.35.241-.485.686.018.021a.5.5 0 0 1 .183-.035m-.131 1.161a.42.42 0 0 0 .276-.107.38.38 0 0 0 .122-.28.4.4 0 0 0-.035-.16.37.37 0 0 0-.215-.205.414.414 0 0 0-.52.205.4.4 0 0 0-.03.16q0 .085.03.16a.4.4 0 0 0 .091.12.4.4 0 0 0 .128.08.4.4 0 0 0 .153.028m2.219.362v-.435h-1.096v-.368l1.054-1.566h.492v1.51h.298v.424h-.298v.435h-.451m0-1.694h-.029l-.564.836h.593v-.835m1.151-.787h.97a.84.84 0 0 1 .537.19.6.6 0 0 1 .163.205.56.56 0 0 1 .06.253.56.56 0 0 1-.097.333.6.6 0 0 1-.236.2v.028a.66.66 0 0 1 .304.219.56.56 0 0 1 .118.363.6.6 0 0 1-.066.288.65.65 0 0 1-.173.215.8.8 0 0 1-.26.138 1 1 0 0 1-.314.05h-1.006zm.936 1.012q.163 0 .25-.087a.3.3 0 0 0 .09-.21.28.28 0 0 0-.087-.209.32.32 0 0 0-.239-.087h-.482v.594h.468m.052 1.039q.175 0 .27-.087a.3.3 0 0 0 .094-.228.3.3 0 0 0-.097-.23q-.094-.092-.281-.092h-.506v.637zM4.623 12.378c-.052-.388.4-2.198.973-3.255.382-.703.96-1.318 1.691-1.81A7.4 7.4 0 0 1 9.76 6.267l.009-2.67a.7.7 0 0 1 1.4.005L11.16 6.06a10 10 0 0 1 2.288.113c1.76.289 3.302 1.007 4.434 1.967l1.826-1.674a.635.635 0 0 1 .857.936l-1.768 1.62c.23.295.425.623.59.97q.23.45.355.921c.42 1.356.48 2.815.409 3.72-6.172 1.795-10.714.629-13.24-.604a11 11 0 0 1-1.211-.685 7 7 0 0 1-.533-.384c-.347-.278-.531-.492-.543-.582m2.814-1.375c.395.262.972.087 1.288-.39.315-.477.25-1.076-.145-1.337-.396-.263-.972-.088-1.288.39-.316.477-.25 1.076.145 1.337m7.288 2.232c-.448.154-.963-.159-1.15-.699s.024-1.105.472-1.26.963.158 1.15.697c.189.541-.023 1.106-.472 1.262m2.797 4.408a1.94 1.94 0 1 1 3.88-.031l.006.876s-.89-.01-1.962 0c-1.071.01-1.896 0-1.896 0zM5.32 13.93c.362.239.802.492 1.317.741.548.267 1.182.527 1.896.757 2.16.697 5.06 1.117 8.602.584l.104.023-.022.205a2.63 2.63 0 0 0-.393 1.407v.84H3.059l1.267-5.244.132.028m.863.66-.029-.02.03.018m-.03-.02-.04-.026zm-.04-.027a9 9 0 0 1-.306-.214zm-.306-.214a7 7 0 0 1-.291-.228zm-.291-.228a5 5 0 0 1-.196-.17l.195.17M5.359 2a2.19 2.19 0 0 0-2.3 2.08l-.467 9.314c-.031.634.398 1.225.81 1.647l.393-2.628.042-.137.001-.003.002-.005c.062-.198.113-.362.146-.54.048-.268.123-.584.217-.918.185-.657.458-1.429.78-2.022.517-.954 1.333-1.744 2.346-2.326l.11-2.162A2.19 2.19 0 0 0 5.358 2z"/></svg>