<svg xmlns="http://www.w3.org/2000/svg" viewBox="0 0 24 24"><path fill-rule="evenodd" d="M6.175 22a1.102 1.102 0 0 1-.398-.07.839.839 0 0 1-.301-.208.955.955 0 0 1-.195-.325 1.303 1.303 0 0 1-.069-.44v-1.494h.468v1.521c0 .083.01.16.031.229a.514.514 0 0 0 .093.18.452.452 0 0 0 .157.122.53.53 0 0 0 .214.04.534.534 0 0 0 .219-.04.452.452 0 0 0 .155-.122.514.514 0 0 0 .094-.18.794.794 0 0 0 .031-.229v-1.521h.468v1.494c0 .154-.023.296-.07.425a.872.872 0 0 1-.498.54.998.998 0 0 1-.399.077m2.346-1.195h.593v.402H8.52v.589h-.402v-.589H7.53v-.402h.589v-.589h.402zm1.407 1.14v-1.836l-.42.177-.166-.385.697-.326h.343v2.37h-.454m.993-2.481h1.574v.443h-1.106v.603h.994v.444h-.994v.991h-.468zm2.8.956a.73.73 0 0 1 .65.458.767.767 0 0 1 .063.311.766.766 0 0 1-.07.326.861.861 0 0 1-.453.427.85.85 0 0 1-.316.058.892.892 0 0 1-.35-.066.923.923 0 0 1-.27-.179.842.842 0 0 1-.174-.263.877.877 0 0 1-.058-.32c0-.16.031-.305.094-.436a2.966 2.966 0 0 1 .242-.409l.575-.82.35.241-.485.686.018.021a.456.456 0 0 1 .183-.035m-.131 1.161a.416.416 0 0 0 .276-.107.377.377 0 0 0 .122-.28.367.367 0 0 0-.035-.16.367.367 0 0 0-.215-.205.414.414 0 0 0-.52.205.4.4 0 0 0-.03.16c0 .057.009.11.03.16a.424.424 0 0 0 .091.12.443.443 0 0 0 .128.08.414.414 0 0 0 .153.028m2.219.362v-.435h-1.096v-.368l1.054-1.566h.492v1.51h.298v.424h-.298v.435h-.451m0-1.694h-.029l-.564.836h.593v-.835m1.151-.787h.97a.843.843 0 0 1 .537.19.632.632 0 0 1 .163.205.557.557 0 0 1 .06.253.555.555 0 0 1-.097.333.617.617 0 0 1-.236.2v.028a.656.656 0 0 1 .304.219.56.56 0 0 1 .118.363.62.62 0 0 1-.066.288.647.647 0 0 1-.173.215.8.8 0 0 1-.26.138.99.99 0 0 1-.314.05h-1.006v-2.482m.936 1.012c.108 0 .192-.029.25-.087a.29.29 0 0 0 .09-.21.284.284 0 0 0-.087-.209.323.323 0 0 0-.239-.087h-.482v.594h.468m.052 1.039c.117 0 .207-.028.27-.087a.304.304 0 0 0 .094-.228.298.298 0 0 0-.097-.23c-.063-.061-.156-.092-.281-.092h-.506v.637h.52M4.623 12.378c-.052-.388.4-2.198.973-3.255.382-.703.96-1.318 1.691-1.81A7.41 7.41 0 0 1 9.76 6.267l.009-2.67a.7.7 0 0 1 1.4.005L11.16 6.06a9.955 9.955 0 0 1 2.288.113c1.76.289 3.302 1.007 4.434 1.967l1.826-1.674a.635.635 0 0 1 .857.936l-1.768 1.62c.23.295.425.623.59.97.153.3.273.607.355.921.42 1.356.48 2.815.409 3.72-6.172 1.795-10.714.629-13.24-.604a11.39 11.39 0 0 1-1.211-.685 7.249 7.249 0 0 1-.533-.384c-.347-.278-.531-.492-.543-.582m2.814-1.375c.395.262.972.087 1.288-.39.315-.477.25-1.076-.145-1.337-.396-.263-.972-.088-1.288.39-.316.477-.25 1.076.145 1.337m7.288 2.232c-.448.154-.963-.159-1.15-.699s.024-1.105.472-1.26c.448-.155.963.158 1.15.697.189.541-.023 1.106-.472 1.262m2.797 4.408a1.94 1.94 0 1 1 3.88-.031l.006.876s-.89-.01-1.962 0c-1.071.01-1.896 0-1.896 0zM5.32 13.93c.362.239.802.492 1.317.741.548.267 1.182.527 1.896.757 2.16.697 5.06 1.117 8.602.584l.104.023-.022.205a2.627 2.627 0 0 0-.393 1.407v.84H3.059l1.267-5.244.132.028m.863.66-.029-.02.03.018m-.03-.02a6.77 6.77 0 0 1-.04-.026l.04.027m-.04-.027a8.455 8.455 0 0 1-.306-.214l.306.214m-.306-.214a6.772 6.772 0 0 1-.291-.228zm-.291-.228a4.952 4.952 0 0 1-.196-.17l.195.17m.705-11.44a2.192 2.192 0 0 0-2.3 2.08l-.467 9.314c-.031.634.398 1.225.81 1.647l.393-2.628.042-.137.001-.003.002-.005c.062-.198.113-.362.146-.54.048-.268.123-.584.217-.918.185-.657.458-1.429.78-2.022.517-.954 1.333-1.744 2.346-2.326l.11-2.162a2.192 2.192 0 0 0-2.081-2.3z"/></svg>