<svg xmlns="http://www.w3.org/2000/svg" viewBox="0 0 24 24"><path d="M19.766 17.352a7 7 0 0 1-.087-1.065 7 7 0 0 1 .087-1.081 6.6 6.6 0 0 1 1.065-.088 7 7 0 0 1 1.082.088A7 7 0 0 1 22 16.27a7 7 0 0 1-.087 1.081 7 7 0 0 1-1.066.088 7 7 0 0 1-1.08-.087m.542-7.21-1.556.67h-.029l-1.556-.67a.053.053 0 0 1 0-.103l1.556-.67h.029l1.556.666a.053.053 0 0 1 0 .103m-2.351 1.016-1.556.67h-.03l-1.555-.67a.053.053 0 0 1 0-.103l1.556-.668h.029l1.556.67a.053.053 0 0 1 0 .103m-2.351 1.017-1.557.67h-.028l-1.556-.67a.053.053 0 0 1 0-.103l1.556-.67h.028l1.557.67a.056.056 0 0 1 0 .103m-2.352 1.015-1.556.671h-.028l-1.557-.67a.053.053 0 0 1 0-.103l1.557-.67h.028l1.556.67a.053.053 0 0 1 0 .102m-4.101-4.4-1.555-.67a.053.053 0 0 1 0-.102l1.556-.67h.027l1.556.67a.053.053 0 0 1 0 .102l-1.556.67zm-.766.346-1.556.67h-.03l-1.554-.67a.056.056 0 0 1 0-.103l1.556-.67h.029l1.556.67a.056.056 0 0 1 0 .103m-2.35 1.016-1.557.67h-.03l-1.556-.67a.053.053 0 0 1 0-.102l1.556-.671h.03l1.557.67a.053.053 0 0 1 0 .103M9.95 7l1.556-.67h.029l1.556.67a.056.056 0 0 1 0 .103l-1.556.67h-.029l-1.556-.67a.056.056 0 0 1 0-.103m11.195 3.136v-.023a.1.1 0 0 0-.005-.024.1.1 0 0 0-.01-.028l-.007-.01a.1.1 0 0 0-.049-.043L11.615 5.93a.1.1 0 0 0-.073 0l-9.456 4.074a.142.142 0 0 0 0 .26l9.387 4.045a.27.27 0 0 0 .213 0l8.949-3.858v3.773a.266.266 0 0 0 .213.266.256.256 0 0 0 .299-.253v-4.025a1 1 0 0 0 0-.078m-15.753 5.26c3.258 3.522 9.457 3.573 11.913.176a.4.4 0 0 0 .07-.228l.008-2.43c0-.255-.164-.343-.373-.244L11.7 14.932a.28.28 0 0 1-.243 0l-5.806-2.52c-.207-.098-.36-.01-.359.246l.003 2.476a.4.4 0 0 0 .097.259"/></svg>