<svg xmlns="http://www.w3.org/2000/svg" viewBox="0 0 24 24"><path d="M10.512 17.428c-3.601-.013-5.23.02-6.024 0-.584-.015-.722-.076-.827-.112-.61-.207-1.134-.697-1.439-1.347-.174-.373-.194-.455-.216-.892a3.5 3.5 0 0 1 .032-.755c.175-.84.938-1.658 1.738-1.865a2.5 2.5 0 0 1 .51-.074c.21 0 .23-.01.255-.13.113-.547.23-.847.51-1.318.774-1.3 2.105-2.073 3.563-2.073h.37l.212-.274c.543-.699 1.513-1.393 2.343-1.677 1.202-.41 2.29-.46 3.351-.149a5.47 5.47 0 0 1 3.693 3.622l.132.43h.223c.832 0 1.755.484 2.348 1.231.33.418.376.496.517.886.33.914.24 2.065-.223 2.854-.42.718-1.176 1.321-1.918 1.531-.426.12-1.859.138-9.15.112"/></svg>