<svg xmlns="http://www.w3.org/2000/svg" viewBox="0 0 24 24"><path d="M18.283 5.655c-.417 0-.848.075-1.28.235-.134.045-.268.111-.434.178-.123.067-.245.133-.356.211a6.6 6.6 0 0 0-1.145.967c-.16.17-.304.346-.43.519l-.181-.486c0-.01-.011-.01-.011-.022a.293.293 0 0 0-.378-.178l-1.69.634a.4.4 0 0 0-.1.056l-.778.789a.29.29 0 0 0-.066.31l.266.712-1.445-.945a.29.29 0 0 0-.266-.033l-1.479.545a.2.2 0 0 0-.094.053l-1.617.602a.3.3 0 0 0-.134.1l-.744.745a.29.29 0 0 0-.09.334L7.2 14.637c.044.112.067.212.089.312.01.066.022.133.022.2H7.2a.7.7 0 0 1-.434-.178c-.155-.133-.266-.333-.344-.545L5.054 10.77a.293.293 0 0 0-.378-.178l-1.7.633a.3.3 0 0 0-.1.067l-.768.767a.29.29 0 0 0-.089.333l1.334 3.58c.345.9.845 1.6 1.523 2 .5.3 1.078.422 1.745.356a4.2 4.2 0 0 0 1.956-.734c.167-.111.322-.244.456-.389l.01-.011c.068-.067.157-.145.234-.222.192-.186.383-.372.548-.556l.141.378a.293.293 0 0 0 .378.178l1.7-.634a.3.3 0 0 0 .1-.067l.79-.789a.26.26 0 0 0 .089-.2.4.4 0 0 0-.045-.155l-.3-.79 1.568 1.045a.29.29 0 0 0 .266.034l1.39-.512a.23.23 0 0 0 .11-.066l.79-.79a.2.2 0 0 0 .037-.04 3.6 3.6 0 0 0 2.13-.149 4.4 4.4 0 0 0 1.245-.722c.411-.345.823-.823 1.223-1.478.011-.023.033-.056.055-.1.034-.045.045-.078.056-.1a3.65 3.65 0 0 0 .445-1.568 4.05 4.05 0 0 0-.256-1.678c-.367-.99-1.067-1.778-1.934-2.2a3.4 3.4 0 0 0-1.52-.358m-.776 3.126q.123.002.273.043c.19.056.367.167.512.323.166.178.3.411.4.667.01.044.033.1.044.144.011.056.022.1.034.156.033.2.055.355.033.478a.34.34 0 0 1-.089.2.42.42 0 0 1-.278.089c-.144.01-.322-.034-.511-.112a1.3 1.3 0 0 1-.4-.344 2.06 2.06 0 0 1-.423-1 1.6 1.6 0 0 1-.01-.4l.021-.034a.3.3 0 0 1 .178-.178.6.6 0 0 1 .216-.032" opacity=".5"/><path fill-rule="evenodd" d="m3.576 11.725.989-.367 1.233 3.301c.412 1.09 1.279 1.312 2.001 1.045.723-.278 1.245-1.011.823-2.1l-1.234-3.302.99-.366L9.6 13.203c.489 1.3.489 2.723-1.412 3.468-.011 0-.022.011-.033.011s-.022.011-.033.011c-1.868.667-2.857-.4-3.357-1.734zm14.016-4.28c1.1-.41 2.078.245 2.49 1.346.41 1.1.1 2.234-1.001 2.645s-2.09-.245-2.5-1.345c-.412-1.09-.09-2.234 1.01-2.645zm-.345-.922c1.623-.611 3.268.29 3.879 1.923s-.044 3.39-1.656 3.99c-1.623.6-3.268-.289-3.88-1.923-.622-1.633.023-3.39 1.657-3.99m-4.28 1.69.979-.367 2.156 5.768-.856.312-4.568-3.035 1.556 4.168-.989.367L9.089 9.67l.944-.356 4.424 2.89z"/></svg>