<svg xmlns="http://www.w3.org/2000/svg" viewBox="0 0 192 192"><path d="M139.333 104.75c-3.75 7.917-8.333 15-13.75 20.833 3.75-14.166 2.084-32.5-6.25-50-4.166-9.166-10-17.5-16.666-24.583 10.416-7.917 21.25-10.417 29.583-6.667 5.417 2.5 9.583 7.084 11.667 13.75 5 12.917 2.916 30-4.584 46.667m-86.666 0c-7.5-16.667-9.584-33.75-4.584-46.667 2.084-6.666 6.25-11.25 11.667-13.75 8.333-3.75 19.167-1.25 29.583 6.667-6.666 7.083-12.5 15.417-16.666 24.583-8.334 17.5-10 35.834-6.25 50-5.417-5.833-10-12.916-13.75-20.833m51.25 35.833a19.58 19.58 0 0 1-15.834 0C72.25 133.5 68.917 105.167 81 78.917c4.167-8.334 9.167-15.417 15-21.667 5.833 6.25 10.833 13.333 15 21.667 12.083 26.25 8.75 54.583-7.083 61.666m21.666-106.666C116 33.5 105.583 37.25 96 45.167 86.417 37.25 76 33.5 66.417 33.917a52.5 52.5 0 0 1 59.166 0m27.5 21.25C144.75 31.833 122.25 16 96 16S46.833 31.833 38.917 55.167v.416c-5.417 14.584-3.334 34.167 5 52.917 11.666 25 32.916 42.5 51.666 42.5h.834c18.75 0 40-17.5 51.666-42.5 8.334-18.75 10.417-38.333 5-53.333M112.25 164.75c-5.417 1.667-10.833 2.5-15.833 2.5h-.834c-5 0-10.416-.833-15.416-2.5-2.5-.417-5.417.833-5.834 2.917-.833 2.5.417 5 2.917 5.833 6.25 1.667 12.5 2.5 18.333 2.5h.834c5.833 0 12.083-.833 18.333-2.5 2.5-.833 3.75-3.333 3.333-5.417-.833-2.5-3.75-3.75-5.833-3.333"/></svg>