<svg xmlns="http://www.w3.org/2000/svg" viewBox="0 0 24 24"><path d="M6.263 19.624a1.65 1.65 0 0 1-.786-.616c-.08-.122-.893-1.951-1.808-4.066-1.446-3.343-1.664-3.887-1.669-4.16-.005-.354.065-.64.441-.783.338-.128.414-.13.939-.135.69-.006 1.854.01 2.382 0 2.21-.043 3.159-.09 3.121 0-.13.309-.294.734-.42 1.036l-.343.826H6.237c-1.035 0-1.874.024-1.863.051l1.247 2.89c.789 1.825 1.243 2.81 1.273 2.756.025-.046 1.171-2.701 2.546-5.901s2.542-5.9 2.594-6c.14-.27.612-.754.899-.922.518-.304.782-.322 4.68-.322 3.388 0 3.62.007 3.852.113.365.165.535.438.535.857 0 .39-.122.603-.457.8-.196.116-.34.122-3.87.15-2.821.024-3.695.049-3.8.108a.74.74 0 0 0-.23.263c-.104.202-1.407 3.23-1.407 3.27 0 .014 1.035.025 2.3.025 2.123 0 2.315.01 2.508.112.635.338.62 1.347-.024 1.653-.18.086-.54.098-2.908.098H11.41l-1.553 3.62c-1.442 3.361-1.573 3.64-1.827 3.896-.441.442-1.171.6-1.767.38zm13.183-8.032c-.333-.226-.45-.435-.45-.796 0-.53.401-.932.93-.932s.932.402.932.932-.402.931-.931.931a.8.8 0 0 1-.481-.135"/></svg>