<svg xmlns="http://www.w3.org/2000/svg" width="24" height="24" fill="none" viewBox="0 0 24 24"><path d="M63.29 67.67-70 220l51.24 18.633a5.594 5.594 164.418 0 0 6.27-1.748l87.136-108.17Zm16.335.33 8.242 44.303L123.555 68Z" style="display:inline;fill:#000;fill-opacity:1;stroke:none;stroke-width:1px;stroke-linecap:butt;stroke-linejoin:miter;stroke-opacity:1" transform="translate(7.426 -.932)scale(.07752)"/><path d="m-13.97 95.496-32.06 4.008a5.365 5.365 136.168 0 0-4.628 4.442l-16.84 101.046 55.908-63.896 1.452-42.098a3.41 3.41 42.425 0 0-3.831-3.502zm1.51 70.895-43.825 50.084 38.642 14.052 3.102-3.851z" style="display:inline;fill:#000;fill-opacity:1;stroke:none;stroke-width:1px;stroke-linecap:butt;stroke-linejoin:miter;stroke-opacity:1" transform="translate(7.426 -.932)scale(.07752)"/><path d="m117.863 273.526 64.274-12.052a7.193 7.193 121.34 0 0 5.564-9.137L131.15 63.831A5.376 5.376 36.65 0 0 126 60H70l38.537 207.135a7.989 7.989 34.42 0 0 9.326 6.39z" style="display:inline;fill:#000;fill-opacity:1;stroke:none;stroke-width:8;stroke-linecap:butt;stroke-linejoin:miter;stroke-miterlimit:4;stroke-dasharray:none;stroke-opacity:1" transform="translate(7.426 -.932)scale(.07752)"/></svg>