<svg xmlns="http://www.w3.org/2000/svg" viewBox="0 0 24 24"><path d="M11.671 2h1.8v.465l.035.44c.074.55.242 1.084.497 1.578l.056.108c.235.454.53.874.88 1.246l1.837 1.96c.42.447.778.948 1.066 1.488l.043.08a6.34 6.34 0 0 1 .734 3.416l-.007.11a7.2 7.2 0 0 1-.261 1.497l-.109.38q-.225.793-.568 1.54l-.486 1.063a.9.9 0 1 1-1.637-.748l.486-1.062q.286-.626.475-1.287l.109-.38q.157-.552.195-1.122l.007-.11a4.56 4.56 0 0 0-.526-2.45l-.043-.08a5.2 5.2 0 0 0-.791-1.104l-1.837-1.96-.155-.171v11.06c.003.603-.205 1.193-.524 1.696-.493.779-1.297 1.449-2.273 1.877-.976.429-2.013.567-2.921.402-.901-.163-1.777-.656-2.18-1.576s-.174-1.898.315-2.671c.494-.78 1.297-1.45 2.273-1.878.977-.429 2.014-.568 2.921-.402q.3.054.589.157V2.536zM7.41 18.647c-.28.443-.28.78-.19.987s.34.435.855.529c.51.092 1.184.024 1.876-.28s1.198-.753 1.475-1.191c.28-.444.28-.781.189-.987-.09-.206-.338-.435-.854-.53-.51-.092-1.184-.023-1.876.28s-1.199.754-1.475 1.192"/></svg>