<svg xmlns="http://www.w3.org/2000/svg" viewBox="0 0 24 24"><path fill-rule="evenodd" d="M16.56 17.868c.986-.229 3.724-.866 4.229-4.945.58-4.671-.214-7.859-1.769-9.191-.469-.426-2.49-1.696-6.707-1.714 0 0-4.994-.328-7.418 1.867C3.545 5.218 3.09 7.198 3.04 9.616l-.006.247c-.056 2.473-.156 6.83 4.122 8.017l-.02 3.73c-.001.21.032.355.153.385.087.022.218-.023.328-.134.707-.71 2.97-3.441 2.97-3.441 3.039.198 5.455-.403 5.714-.487.061-.02.148-.04.258-.065M11.74 4.438a.283.283 0 0 1 .108-.02c1.63.01 3.026.562 4.13 1.639 1.113 1.084 1.675 2.58 1.688 4.423a.283.283 0 0 1-.48.203.282.282 0 0 1-.083-.199c-.013-1.733-.522-3.053-1.52-4.025-1.005-.979-2.231-1.467-3.739-1.478a.282.282 0 0 1-.104-.543m.515 1.455a.282.282 0 0 1 .109-.013c1.182.087 2.143.498 2.832 1.25.68.743 1.012 1.69.988 2.78a.282.282 0 0 1-.563-.014c.02-.97-.256-1.747-.84-2.385-.584-.636-1.382-.988-2.458-1.067a.281.281 0 0 1-.232-.409.282.282 0 0 1 .163-.142m.423 1.516a.282.282 0 0 1 .109-.016c.584.03 1.071.213 1.41.564.34.35.512.85.54 1.447a.282.282 0 0 1-.47.221.282.282 0 0 1-.09-.195c-.026-.507-.163-.852-.384-1.082-.222-.229-.55-.366-1.036-.391a.282.282 0 0 1-.079-.548m.76 5.555c-.214.263-.61.23-.61.23-2.897-.74-3.673-3.674-3.673-3.674s-.034-.396.23-.61l.523-.415c.26-.2.426-.686.162-1.16A12.321 12.321 0 0 0 9.41 6.3a28.018 28.018 0 0 0-.77-.96c-.26-.307-.64-.379-1.041-.17l-.009.002a4.332 4.332 0 0 0-1.066.866l-.002.004-.004.004c-.248.299-.39.592-.426.88a.564.564 0 0 0-.007.128 1.18 1.18 0 0 0 .057.375l.014.009c.125.444.438 1.184 1.118 2.418a14.411 14.411 0 0 0 1.341 2.03 10.662 10.662 0 0 0 .821.924l.02.02.093.092c.288.287.593.558.913.81a14.59 14.59 0 0 0 2.031 1.342c1.233.68 1.974.993 2.417 1.119l.01.013a1.173 1.173 0 0 0 .502.05c.288-.034.581-.176.88-.426.003-.002.003-.004.007-.005.343-.307.636-.667.866-1.067l.002-.009c.209-.4.138-.781-.169-1.04 0 0-.646-.538-.96-.77a12.21 12.21 0 0 0-1.035-.66c-.474-.264-.96-.099-1.16.162l-.415.522"/></svg>