<svg xmlns="http://www.w3.org/2000/svg" viewBox="0 0 24 24"><path d="M4.145 3.775v2.47l-2.107.037-.019.72L2 7.72h2.145V12h1.47V7.717l2.573.037.765 2.125.765 2.125 1.603-.037.724-2.073c.56-1.604 1.918-5.479 2.115-6.036.023-.064-.165-.083-.803-.083h-.834l-.99 2.892c-.545 1.59-1.01 2.915-1.034 2.944s-.329-.71-.676-1.639l-.633-1.69-3.574-.035V3.775H4.88zm14.445 1.27v1.202l-4.37.035-.215.703-.213.702 4.798.035v9.795H5.616V13.07H4.144v5.885H18.59v1.27h.937v-.53c0-.702.04-.74.773-.74.754 0 .831.072.831.77v.5H22V5.046h-.936v.521c0 .317-.032.553-.08.602-.11.109-1.27.109-1.378 0-.049-.049-.08-.285-.08-.602v-.521h-.469zm1.68 2.675c.788 0 .794.006.794.803 0 .588-.015.672-.13.733-.07.038-.37.07-.664.07-.711 0-.744-.036-.744-.803s.033-.803.745-.803zm0 2.675c.788 0 .794.006.794.803 0 .588-.015.672-.13.733-.07.038-.37.07-.664.07-.711 0-.744-.036-.744-.803s.033-.803.745-.803zm.037 2.876c.588 0 .626.009.73.167.093.143.101.256.052.753l-.059.584-.67.02c-.464.012-.695-.007-.752-.064-.11-.111-.113-1.27-.002-1.38.051-.05.307-.08.7-.08zm-.002 2.675c.563 0 .627.013.722.148.12.17.144.942.039 1.218-.064.168-.079.172-.722.172-.422 0-.686-.029-.738-.08-.109-.11-.109-1.27 0-1.378.051-.05.307-.08.699-.08"/></svg>