<svg xmlns="http://www.w3.org/2000/svg" width="192" height="192" viewBox="0 0 192 192"><path d="M29.616 96.1c0-10.115 4.277-15.928 11.984-15.928 10.953 0 12.088 11.25 12.088 15.912 0 3.627-.533 15.824-12.088 15.824-10.229 0-12.008-9.547-12.008-15.824zM16 96.1c0 15.342 9.608 25.968 25.608 25.968 15.559 0 25.672-10.103 25.672-25.984 0-16.746-11.194-26.168-25.68-26.168-14.846 0-25.6 9.833-25.6 26.16zm58.089-24.824v49.529h13.6V94.829c0-9.311 2.718-14.176 10.544-14.176 4.803 0 8.728 1.975 8.728 12.184v27.969h13.616V90.333c0-3.077-.29-5.856-.872-8.336-1.39-6.875-5.472-9.395-8.336-10.552-2.293-1.024-5.267-1.536-8.92-1.536-2.875 0-5.683.672-8.424 2.016-2.753 1.28-4.99 3.357-6.713 6.232h-.288v-6.912zm66.057 19.44c.33-4.552 2.347-7.633 5.864-9.392 1.472-.779 3.294-1.168 5.464-1.168 3.323 0 5.782.906 7.376 2.72 1.664 1.781 2.814 4.395 3.448 7.84zm0 8.624h35.769c.256-3.83-.066-7.501-.968-11.016-2.028-8.014-8.58-18.408-23.104-18.408-12.341 0-20.359 7.54-23.464 15.808-1.216 3.206-1.824 6.664-1.824 10.376 0 3.84.576 7.36 1.728 10.56 2.005 5.259 5.821 10.672 13.032 13.608 3.13 1.216 6.64 1.824 10.528 1.824 5.627 0 10.427-1.28 14.4-3.84 3.952-2.56 6.885-6.808 8.8-12.744h-11.968c-.453 1.526-1.67 2.992-3.648 4.4-1.973 1.35-4.339 2.024-7.096 2.024-3.83 0-6.77-.997-8.824-2.992-2.043-1.973-3.163-5.165-3.36-9.576z"/></svg>