<svg xmlns="http://www.w3.org/2000/svg" viewBox="0 0 24 24"><path d="M3.702 12.012q0-.373.073-.732.072-.361.237-.635.18-.277.468-.444.289-.18.72-.18.43 0 .718.18.3.17.468.444.18.274.252.635.073.359.073.73t-.073.732q-.073.346-.252.635-.17.274-.468.444-.289.167-.718.167-.431 0-.72-.17-.288-.167-.468-.441-.167-.289-.24-.635-.073-.361-.073-.732zm-1.702 0q0 .742.228 1.34.228.6.647 1.031.42.417 1.006.647.587.228 1.32.228.729 0 1.316-.228.599-.227 1.018-.647.42-.431.647-1.03.228-.6.228-1.343 0-.742-.228-1.341-.228-.611-.647-1.03-.42-.432-1.018-.66-.587-.24-1.317-.24-.732 0-1.319.24-.586.228-1.006.66-.42.419-.647 1.03Q2 11.268 2 12.009zm7.261-3.103V15.1h1.7v-3.247q0-.945.312-1.352.31-.42 1.006-.42.611 0 .849.383.242.371.242 1.14V15.1h1.702v-3.809q0-.577-.109-1.042-.097-.48-.346-.803-.253-.337-.696-.516-.43-.192-1.115-.192-.539 0-1.053.252-.516.24-.839.779h-.036v-.864zm11.026 2.43h-2.769q.013-.18.073-.408.073-.226.228-.43.17-.205.432-.336.276-.146.683-.146.623 0 .922.34.312.334.431.98zm-2.769 1.078h4.471q.048-.718-.121-1.377-.167-.66-.55-1.174-.371-.516-.958-.817-.59-.31-1.38-.31-.705 0-1.292.252-.577.252-.994.694-.422.431-.647 1.03-.228.601-.228 1.297 0 .72.216 1.32.228.598.635 1.03t.994.671q.587.228 1.316.228 1.055 0 1.8-.48.741-.48 1.1-1.593h-1.496q-.085.286-.456.55-.37.253-.887.253-.718 0-1.103-.374-.383-.37-.42-1.197z"/></svg>