<svg xmlns="http://www.w3.org/2000/svg" viewBox="0 0 24 24"><path d="M18.357 5.633A8.997 8.997 0 0 0 3 12a9 9 0 0 0 5.553 8.314 9 9 0 0 0 9.804-1.948 8.99 8.99 0 0 0 0-12.733m-.54 4.143q-2.227 3.875-4.449 7.747a1.49 1.49 0 0 1-1.224.808 1.41 1.41 0 0 1-1.408-.75c-.938-1.615-1.869-3.24-2.8-4.864a590 590 0 0 1-1.701-2.962A1.496 1.496 0 0 1 7.45 7.487a1.45 1.45 0 0 1 1.372.775q.629 1.088 1.246 2.174c.3.522.59 1.043.898 1.557a2.36 2.36 0 0 0 1.97 1.217 2.4 2.4 0 0 0 2.534-2.133c0-.098 0-.196.022-.247a2.5 2.5 0 0 0-.253-1.119 1.496 1.496 0 1 1 2.795-.93c.041.346-.036.697-.217.995"/></svg>