<svg xmlns="http://www.w3.org/2000/svg" viewBox="0 0 24 24"><path d="M18.357 5.633A8.997 8.997 0 0 0 3 12a9.002 9.002 0 0 0 5.553 8.314 8.996 8.996 0 0 0 9.804-1.948 8.99 8.99 0 0 0 0-12.733m-.54 4.143c-1.484 2.583-2.968 5.166-4.449 7.747a1.488 1.488 0 0 1-1.224.808 1.413 1.413 0 0 1-1.408-.75c-.938-1.615-1.869-3.24-2.8-4.864a590.39 590.39 0 0 1-1.701-2.962A1.496 1.496 0 0 1 7.45 7.487a1.448 1.448 0 0 1 1.372.775c.42.725.834 1.45 1.246 2.174.3.522.59 1.043.898 1.557a2.355 2.355 0 0 0 1.97 1.217 2.4 2.4 0 0 0 2.534-2.133c0-.098 0-.196.022-.247a2.536 2.536 0 0 0-.253-1.119 1.496 1.496 0 1 1 2.795-.93c.041.346-.036.697-.217.995"/></svg>