<svg xmlns="http://www.w3.org/2000/svg" width="192" height="192" viewBox="0 0 192 192"><path d="M172.33 54.92c1.12-3.704 0-6.432-5.296-6.432H149.53c-4.448 0-6.496 2.352-7.608 4.952 0 0-8.904 21.696-21.52 35.792-4.08 4.08-5.928 5.376-8.16 5.376-1.104 0-2.72-1.296-2.72-5.008V54.92c0-4.448-1.288-6.432-5-6.432H77.018c-2.784 0-4.456 2.064-4.456 4.024 0 4.216 6.304 5.192 6.96 17.064v25.776c0 5.648-1.024 6.672-3.248 6.672-5.936 0-20.368-21.792-28.936-46.728-1.68-4.848-3.36-6.808-7.832-6.808H22.002c-5 0-6 2.352-6 4.952 0 4.64 5.936 27.632 27.632 58.04 14.464 20.768 34.84 32.032 53.384 32.032 11.128 0 12.504-2.504 12.504-6.808v-15.696c0-5 1.056-6 4.576-6 2.6 0 7.048 1.296 17.44 11.312 11.864 11.864 13.816 17.192 20.496 17.192h17.504c5 0 7.504-2.504 6.056-7.44-1.576-4.912-7.24-12.048-14.76-20.512-4.08-4.824-10.2-10.008-12.056-12.608-2.592-3.336-1.856-4.824 0-7.792 0 0 21.328-30.04 23.552-40.24"/></svg>