<svg xmlns="http://www.w3.org/2000/svg" viewBox="0 0 24 24"><path fill-rule="evenodd" d="M21.541 6.804c.14-.463 0-.804-.662-.804h-2.188c-.556 0-.812.294-.951.619 0 0-1.113 2.712-2.69 4.474-.51.51-.741.672-1.02.672-.138 0-.34-.162-.34-.626V6.804c0-.556-.161-.804-.625-.804H9.627c-.348 0-.557.258-.557.503 0 .527.788.649.87 2.133v3.222c0 .706-.128.834-.406.834-.742 0-2.546-2.724-3.617-5.841-.21-.606-.42-.851-.979-.851H2.75c-.625 0-.75.294-.75.619 0 .58.742 3.454 3.454 7.255 1.808 2.596 4.355 4.004 6.673 4.004 1.391 0 1.563-.313 1.563-.851v-1.962c0-.625.132-.75.572-.75.325 0 .881.162 2.18 1.414 1.483 1.483 1.727 2.149 2.562 2.149h2.188c.625 0 .938-.313.757-.93-.197-.614-.905-1.506-1.845-2.564-.51-.603-1.275-1.251-1.507-1.576-.324-.417-.232-.603 0-.974 0 0 2.666-3.755 2.944-5.03"/></svg>