<svg xmlns="http://www.w3.org/2000/svg" viewBox="0 0 24 24"><path d="M6.469 15.893c-.158.463 0 .98.415 1.238 1.558.974 3.29 1.517 5.116 1.517 1.826 0 3.558-.543 5.116-1.517.415-.259.573-.775.416-1.238l-.49-1.436h1.651c.502 0 .943.335 1.077.819l1.474 5.308A1.117 1.117 0 0 1 20.168 22H3.832a1.117 1.117 0 0 1-1.076-1.416l1.474-5.308a1.117 1.117 0 0 1 1.077-.819h1.65zm3.793-11.139.68-1.997c.344-1.01 1.772-1.01 2.116 0l.68 1.997A3.337 3.337 0 0 1 12 5.239c-.636 0-1.23-.178-1.738-.485m6.157 7.872c-1.308.989-2.815 1.552-4.419 1.552-1.604 0-3.111-.563-4.419-1.552l1.427-4.188c.87.717 1.895 1.13 2.992 1.13s2.122-.413 2.992-1.13z"/></svg>