<svg xmlns="http://www.w3.org/2000/svg" viewBox="0 0 24 24"><path d="M18.29 9.524a.616.616 0 0 0-.436.159.49.49 0 0 0-.172.365v2.405c0 .322-.057.56-.17.707-.109.141-.283.21-.532.21-.255 0-.429-.068-.532-.209-.107-.146-.161-.385-.161-.708v-2.415a.442.442 0 0 0-.217-.388c-.193-.122-.385-.166-.618-.088a.982.982 0 0 0-.2.092.58.58 0 0 0-.164.147.345.345 0 0 0-.073.21v2.442c0 .323-.054.562-.161.708-.103.141-.277.21-.532.21s-.43-.07-.536-.21c-.11-.147-.166-.385-.166-.708v-2.405a.49.49 0 0 0-.172-.365.628.628 0 0 0-.445-.159.678.678 0 0 0-.462.157.48.48 0 0 0-.183.367v2.367c0 .298.029.58.086.837.059.263.161.494.305.687.145.195.342.348.585.457.24.107.542.162.895.162.368 0 .676-.069.916-.203a1.6 1.6 0 0 0 .505-.442c.13.18.295.329.493.442.237.134.55.202.93.202.353 0 .653-.054.89-.162.24-.108.436-.262.58-.456a1.79 1.79 0 0 0 .306-.687 3.89 3.89 0 0 0 .086-.837v-2.367c0-.137-.06-.26-.178-.366-.115-.105-.272-.158-.467-.158zm1.647 10.32c-1.474-.913-1.97-1.234-1.94-1.584 0 0 .001-.056.016-.143a.944.944 0 0 1 .51-.682.218.218 0 0 0 .031-.02c1.148-.666 1.988-1.739 2.284-3.079-.298.74-2.507 1.316-5.19 1.316-2.681 0-4.89-.575-5.188-1.316.066.301.16.588.28.86.099.561.233 1.882-.401 3.038-.559 1.019-3.318 2.407-7.412 1.61 0 0-.164-.115-.214-.02-.074.14.227.252.537.334 2.85.754 7.153.447 8.504-.666.616-.507.854-1.191.915-1.927v.001s.016-.192.257-.048c.07.042.319.204.358.388.035.26.038.581-.097.806-.193.32-.195.367.059.548.155.111.792.579 1.677 1.11.002.002.003.004.006.005.187.113.447.389.447.389.399.461 1.266 1.39 1.643 1.214.179-.082-.007-.454-.007-.454s.296.385.455.254c.122-.1-.07-.484-.07-.484s.259.225.413.142c.188-.102-.028-.691-1.51-1.592-1.482-.901-1.884-1.04-1.92-1.442l.001-.055c.012-.089.062-.276.278-.256a6.2 6.2 0 0 0 2.118-.024s.02-.003.025-.004c.042-.006.125-.003.126.1a.822.822 0 0 1-.127.378c-.217.324-.145.37.081.578.14.128.78.692 1.658 1.237l.005.004c.187.113.51.422.51.422.364.369 1.033.987 1.397.95.247-.025.046-.45.046-.45s.312.301.464.213c.171-.1-.07-.413-.07-.413s.2.106.341.07c.142-.035.178-.395-1.296-1.308zm-7.898-11.97c.24-.147 1.53-.832 3.61.027 2.14.883 3.468.116 3.632.012-.517-.85-1.132-1.59-1.813-2.089l.141-.039c.902-.26 1.131-1.025 1.18-1.679.054-.742.092-.753.253-1.421.155-.641-.018-.77-.177-.64-.086.07-.831.242-1.274.587-.714.557-1.154 1.617-1.354 2.203a4.84 4.84 0 0 0-.04.118c-.092.225-.278.224-.278.224a2.521 2.521 0 0 0-.513-.003h-.004c-.237.035-.367-.254-.394-.323-.277-.794-1.021-2.36-2.694-2.782 0 0-.304-.233-.211.16.088.377.27.757.23 1.31-.02.255-.177 1.564 1.026 2.245.114.065.215.12.307.165-.606.485-1.156 1.16-1.627 1.925z"/></svg>