<svg xmlns="http://www.w3.org/2000/svg" viewBox="0 0 24 24"><path d="M20.942 11.998c.24 1.205-.16 4.02-3.07 4.786-.15.04-.25.19-.27.347a4.422 4.422 0 0 1-1.91 3.161c-1.956 1.31-4.573.744-5.878-1.234-.104-.165-.258-.23-.471-.166a4.117 4.117 0 0 1-3.6-.47c-1.965-1.295-2.536-3.987-1.278-6.013a.435.435 0 0 0-.075-.544c-1.44-1.295-1.793-3.282-.907-5.026C4.508 4.827 6.928 4.096 8.961 5.18c.16.086.365.1.483-.039C10.481 3.905 11.738 3.006 13.749 3c3.148-.008 5.404 2.74 5.309 5.923a.362.362 0 0 0 .182.35c.273.17 1.357.993 1.701 2.725zm-4.858 4.225c.001-.357.199-.568.56-.583 1.532-.091 2.741-1.448 2.653-3.027-.027-.455-.224-1.043-.45-1.436-.11-.19-.346-.28-.53-.166a.465.465 0 0 0-.153.183c-.366.73-.956 1.404-1.592 1.9a.58.58 0 0 1-.795-.09c-.21-.249-.189-.636.059-.84 1.866-1.553 2.105-4.143.634-5.918-1.432-1.727-3.714-1.923-5.498-.589-.226.17-.658.537-.93 1.087-.14.278-.567.38-.814.194-.005-.003-.043-.042-.048-.046-1.255-1.027-2.992-.777-3.858.44-.907 1.276-.69 3.037.618 3.99.428.312.913.427 1.435.461a.54.54 0 0 1 .496.54.537.537 0 0 1-.525.55 3.885 3.885 0 0 1-1.099-.149c-.185-.049-.35.047-.438.206-.794 1.44-.304 3.271 1.096 4.088a2.836 2.836 0 0 0 2.014.332.397.397 0 0 0 .31-.437A4.313 4.313 0 0 1 10 13.93a.576.576 0 0 1 .808-.169.602.602 0 0 1 .167.822c-.837 1.325-.472 3.099.815 3.96 1.287.863 3.008.486 3.845-.839.28-.442.435-.953.449-1.481z"/></svg>