<svg xmlns="http://www.w3.org/2000/svg" width="192" height="192" viewBox="0 0 192 192"><path d="M91.304 163.92c-7.68-3.488-9.296-12.24-4.968-26.848 1.616-5.472 6.616-19.024 12.496-33.88 1.312-3.32 1.36-3.72.304-2.856-.664.56-8.992 9.36-18.496 19.584-31.976 34.368-41.84 42.48-51.72 42.488-7.904.016-12.92-5.36-12.92-13.84 0-8.96 7.2-24.28 23.68-50.44 9.088-14.4 33.184-49.12 46.696-67.264 2.08-2.8 4.808-4.16 8.312-4.16 3.976 0 7.152 1.944 8.768 5.36 1.728 3.64 1.08 6.96-2.256 11.584-30.064 41.616-41.992 59.272-54.432 80.56l-3.76 6.424 4.08-3.928c2.24-2.16 11.864-12.288 21.4-22.504 29.304-31.408 36.224-37.456 43.568-38.064 7.72-.64 12.624 4.104 13.112 12.696.424 7.488-1.648 14.616-12.328 42.4l-1.88 4.904 5.92-6.016c9.712-9.88 17.736-12.744 25.376-9.04 4.664 2.248 6.304 5.32 8.352 15.584 2.696 13.504 5.936 17.424 15.92 19.296 6.704 1.256 9.472 4.312 9.472 10.432 0 2.92-.344 3.68-2.768 6.104-2.536 2.536-3.104 2.776-6.608 2.768-8.616-.016-18.392-4.312-24.56-10.776-4.264-4.472-8.576-12.528-9.464-17.68-.288-1.664-.848-3.08-1.24-3.144-.4-.064-3.696 3.568-7.352 8.064-18 22.208-23.88 26.2-32.704 22.192"/></svg>