<svg xmlns="http://www.w3.org/2000/svg" viewBox="0 0 24 24"><path d="M11.413 20.49c-.96-.436-1.162-1.53-.621-3.356.202-.684.827-2.378 1.562-4.235.164-.415.17-.465.038-.357-.083.07-1.124 1.17-2.312 2.448-3.997 4.296-5.23 5.31-6.465 5.311-.988.002-1.615-.67-1.615-1.73 0-1.12.9-3.035 2.96-6.305 1.136-1.8 4.148-6.14 5.837-8.408.26-.35.601-.52 1.039-.52.497 0 .894.243 1.096.67.216.455.135.87-.282 1.448-3.758 5.202-5.249 7.409-6.804 10.07l-.47.803.51-.491c.28-.27 1.483-1.536 2.675-2.813 3.663-3.926 4.528-4.682 5.446-4.758.965-.08 1.578.513 1.639 1.587.053.936-.206 1.827-1.541 5.3l-.235.613.74-.752c1.214-1.235 2.217-1.593 3.172-1.13.583.281.788.665 1.044 1.948.337 1.688.742 2.178 1.99 2.412.838.157 1.184.539 1.184 1.304 0 .365-.043.46-.346.763-.317.317-.388.347-.826.346-1.077-.002-2.299-.539-3.07-1.347-.533-.559-1.072-1.566-1.183-2.21-.036-.208-.106-.385-.155-.393-.05-.008-.462.446-.919 1.008-2.25 2.776-2.985 3.275-4.088 2.774z"/></svg>