<svg xmlns="http://www.w3.org/2000/svg" viewBox="0 0 24 24"><path d="m20.669 11.694-.835 1.488v-1.488zM8.45 2.001l-.112.088-5.003 5.019-.004.007 3.785-.328c.462-.041.875-.455.923-.924l.411-3.859zm0 .003v4.188c0 .51-.414.923-.923.923H3.339l-.004.004v13.958c0 .51.414.923.923.923h9.99-.315c.014-2.336.026-4.668.037-7.004H8.194l5.77-10.292.412.23L9 14.524h5.444l-.001.238c-.011 2.414-.023 4.825-.038 7.24h4.506c.51 0 .923-.414.923-.923v-7.895l-3.493 6.229v-5.956h-4.387L16.341 5.7v5.993h3.493v-8.77a.918.918 0 0 0-.923-.92z"/></svg>