<svg xmlns="http://www.w3.org/2000/svg" viewBox="0 0 24 24"><path d="M11.815 2.333c-.698-.03-1.398 0-1.943.095A10.2 10.2 0 0 0 6.103 3.9c-.669.435-1.929 1.682-2.385 2.36-.725 1.079-1.335 2.51-1.549 3.63-.787 4.141 1.199 8.242 4.93 10.18 2.9 1.505 6.434 1.36 9.25-.38l.275-.17.805.78c.923.898 1.22 1.12 1.702 1.27.495.155.897.142 1.397-.045.963-.36 1.474-1.092 1.47-2.108-.002-.846-.172-1.147-1.282-2.283-.523-.534-.951-1.006-.951-1.047s.128-.39.284-.776c.571-1.405.668-1.934.663-3.64-.004-1.39-.024-1.607-.223-2.342-.89-3.29-3.486-5.883-6.746-6.738-.535-.141-1.231-.23-1.93-.26zm-.748 4.49q.594-.039 1.199.08c2.338.461 3.935 2.363 3.939 4.688.002 1.964-1.153 3.76-2.882 4.478-.39.162-.4.176-.924 1.283-.292.615-.555 1.134-.585 1.152s-.27-.43-.534-.996l-.48-1.031-.712-.216c-.884-.269-1.486-.629-2.092-1.252-.898-.923-1.297-1.823-1.368-3.089-.078-1.388.335-2.546 1.268-3.55.866-.934 1.987-1.47 3.171-1.547"/></svg>