<svg xmlns="http://www.w3.org/2000/svg" viewBox="0 0 24 24"><path fill-rule="evenodd" d="M9.933 20.695c.606-.315.977-.824 1.127-1.51h.356a18.469 18.469 0 0 1 1.419.027c.04 0 .11.068.123.124.398 1.402 1.91 2.061 3.218 1.415a2.257 2.257 0 0 0 1.1-2.692c-.041-.11-.015-.165.082-.233.179-.11.345-.235.495-.358 2.6-2.128 3.617-4.861 2.945-8.131-.743-3.612-3.892-6.195-7.565-6.332-2.103-.068-3.974.578-5.568 1.948-1.733 1.484-2.683 3.378-2.833 5.659-.014.295-.014.59-.014.886 0 .296 0 .59-.015.886 0 .234-.054.48-.151.687-.22.467-.66.66-1.156.714-.411.042-.565.233-.467.632a3.505 3.505 0 0 0 .316.824c.73 1.319 1.787 2.295 3.122 2.994.123.069.164.125.151.275-.056.895.275 1.622 1.031 2.103.73.467 1.514.48 2.283.082m6.603-10.52a.91.91 0 0 0 .879-.907c-.014-.493-.412-.892-.893-.892a.9.9 0 0 0-.88.906c0 .507.398.893.893.893m-5.42 0a.892.892 0 1 1 0-1.784.892.892 0 1 1 0 1.784m-.51 2.487c.688 1.29 1.76 1.936 3.384 2.018a7.35 7.35 0 0 1 .229-.043c.244-.046.547-.102.843-.203.908-.301 1.582-.933 2.008-1.798.152-.316-.042-.66-.385-.673-.233 0-.357.152-.453.343-.813 1.58-2.931 1.963-4.223.741-.233-.22-.413-.493-.592-.77-.138-.219-.317-.356-.508-.316-.316.07-.468.384-.303.701"/></svg>