<svg xmlns="http://www.w3.org/2000/svg" viewBox="0 0 24 24"><path d="M12.476 22q-.595 0-1.012-.405t-.417-1q0-.285.108-.547t.321-.453l1-.928 1 .928q.214.19.321.453.108.262.108.547 0 .595-.417 1T12.476 22M9.19 20.571l-1-1 2.81-2.81 1 1zm6.143-1.428-1.428-1.429 1.428-1.428 1.429 1.428zm-8.571 0-1.429-1.429 1.429-1.428 1.428 1.428zm.952-3.81q-2.167 0-3.702-1.535t-1.536-3.703q0-1.976 1.31-3.452t3.238-1.738q.762-1.357 2.083-2.131T12 2q2.143 0 3.726 1.369t1.917 3.417q1.643.142 2.762 1.357 1.119 1.214 1.119 2.904 0 1.786-1.25 3.036t-3.036 1.25zm0-1.904h9.524q1 0 1.69-.691t.691-1.69-.69-1.691q-.691-.69-1.691-.69h-1.429v-.953q0-1.571-1.119-2.69T12 3.904q-1.143 0-2.083.62-.94.619-1.417 1.666l-.238.572h-.595q-1.358.047-2.322 1.012t-.964 2.321q0 1.381.976 2.357t2.357.976z"/></svg>