<svg xmlns="http://www.w3.org/2000/svg" width="192" height="192" viewBox="0 0 192 192"><path d="M99.808 176q-4.76 0-8.096-3.24t-3.336-8q0-2.28.864-4.376t2.568-3.624l8-7.424 8 7.424q1.712 1.52 2.568 3.624.864 2.096.864 4.376 0 4.76-3.336 8T99.808 176M73.52 164.568l-8-8L88 134.088l8 8zm49.144-11.424-11.424-11.432 11.424-11.424 11.432 11.424zm-68.568 0-11.432-11.432 11.432-11.424 11.424 11.424zm7.616-30.48q-17.336 0-29.616-12.28T19.808 80.76q0-15.808 10.48-27.616T56.192 39.24q6.096-10.856 16.664-17.048T96 16q17.144 0 29.808 10.952t15.336 27.336q13.144 1.136 22.096 10.856 8.952 9.712 8.952 23.232 0 14.288-10 24.288t-24.288 10zm0-15.232h76.192q8 0 13.52-5.528t5.528-13.52-5.52-13.528q-5.528-5.52-13.528-5.52h-11.432v-7.624q0-12.568-8.952-21.52T96 31.232q-9.144 0-16.664 4.96Q71.816 41.144 68 49.52l-1.904 4.576h-4.76q-10.864.376-18.576 8.096T35.048 80.76q0 11.048 7.808 18.856t18.856 7.808z"/></svg>