<svg xmlns="http://www.w3.org/2000/svg" viewBox="0 0 24 24"><path d="M16.104 13.787c-.223-.112-1.318-.65-1.522-.725-.205-.074-.354-.111-.503.112-.148.223-.575.725-.705.873-.13.15-.26.167-.483.056-.223-.112-.941-.347-1.793-1.106-.662-.59-1.11-1.32-1.24-1.544-.129-.223-.013-.343.098-.454.1-.1.224-.26.335-.39.112-.13.148-.224.223-.373.075-.149.038-.278-.018-.39-.057-.112-.502-1.21-.687-1.655-.182-.435-.366-.375-.502-.383a9.6 9.6 0 0 0-.428-.007.817.817 0 0 0-.594.279c-.204.222-.78.762-.78 1.859 0 1.096.799 2.156.91 2.305.112.149 1.572 2.4 3.808 3.366.531.229.946.366 1.27.468a3.04 3.04 0 0 0 1.403.089c.429-.064 1.319-.54 1.505-1.06.186-.52.186-.967.13-1.06-.056-.093-.204-.148-.428-.26m-4.065 5.552h-.003a7.403 7.403 0 0 1-3.774-1.033l-.27-.16-2.806.736.748-2.736-.176-.28a7.395 7.395 0 0 1-1.132-3.946c0-4.087 3.327-7.413 7.416-7.413a7.36 7.36 0 0 1 5.24 2.174 7.369 7.369 0 0 1 2.17 5.245c-.002 4.088-3.327 7.413-7.413 7.413m6.31-13.723A8.861 8.861 0 0 0 12.037 3C7.12 3 3.12 7.002 3.118 11.92c0 1.571.41 3.106 1.19 4.458L3.044 21l4.729-1.24a8.912 8.912 0 0 0 4.262 1.086h.004c4.915 0 8.917-4.001 8.92-8.92a8.866 8.866 0 0 0-2.61-6.31z"/></svg>