<svg xmlns="http://www.w3.org/2000/svg" width="24" height="24" fill="none" viewBox="0 0 24 24"><path fill="#FFF1C0" fill-rule="evenodd" d="M11.996 22c-2.14-.001-3.76-.604-5.455-1.61l-3.785.992 1.01-3.689C2.66 15.93 2 14.245 2 11.995 2.002 6.484 6.489 2 12.004 2A9.995 9.995 0 0 1 22 12.004C21.997 17.516 17.507 22 11.996 22m5.654-7.405c.21.1.35.169.41.27.077.125.077.727-.174 1.43-.251.701-1.452 1.342-2.03 1.428-.518.077-1.173.11-1.893-.119a17.42 17.42 0 0 1-1.714-.633c-2.814-1.214-4.716-3.938-5.08-4.46a3.428 3.428 0 0 0-.055-.078l-.004-.004c-.161-.217-1.223-1.636-1.223-3.104 0-1.383.678-2.107.991-2.442.022-.024.043-.045.06-.065.276-.302.602-.376.802-.376l.577.01h.066c.175 0 .394-.002.61.515l.306.742c.265.645.569 1.386.621 1.49.076.15.126.326.025.526l-.043.087c-.075.154-.13.266-.26.414-.05.058-.102.122-.154.185a4.862 4.862 0 0 1-.297.342c-.15.15-.307.312-.132.612.175.302.78 1.286 1.673 2.083a7.747 7.747 0 0 0 2.217 1.4c.083.037.15.066.2.091.3.15.477.126.652-.075.175-.2.751-.877.952-1.178.201-.301.401-.25.677-.15s1.754.827 2.054.978l.166.08" clip-rule="evenodd"/></svg>