<svg xmlns="http://www.w3.org/2000/svg" width="24" height="24" fill="none" viewBox="0 0 24 24"><path fill="#FFF1C0" d="M13.19 10.713c-.64.19-1.142.187-1.99.18a46 46 0 0 0-1.11.003V8.102l.167-.008c.808-.042 2.379-.124 2.936.205.861.51.598 2.01-.004 2.414m-.932 5.284c-.815.002-1.765.002-2.168.002v-3.046c.87 0 1.741 0 2.502-.009.798.094 1.374.43 1.389 1.454.02 1.087-.801 1.598-1.723 1.6"/><path fill="#FFF1C0" fill-rule="evenodd" d="M11.996 22c-2.14-.001-3.76-.604-5.455-1.61l-3.785.992 1.01-3.689C2.66 15.93 2 14.245 2 11.995 2.002 6.484 6.489 2 12.004 2A9.995 9.995 0 0 1 22 12.004C21.997 17.516 17.507 22 11.996 22m-3.175-4c-.35 0-.503 0-.578-.053l-.009-.006c-.115-.082-.224-.16-.224-.6V15.68c.003-2.526.005-6.124 0-7.647q-.002-.215-.006-.41c-.016-.968-.026-1.57.754-1.57.361 0 .748-.013 1.146-.025 2.243-.072 4.872-.156 5.564 1.842.672 1.942-.091 3.065-.553 3.746a3.4 3.4 0 0 0-.247.397c1.994.663 2.107 5.98-2.16 5.98l-1.644.003h-.003z" clip-rule="evenodd"/></svg>