<svg xmlns="http://www.w3.org/2000/svg" viewBox="0 0 192 192"><path d="M60.7 33.78a9 9 0 0 0-6.96 3.05 8.98 8.98 0 0 0-1.73 3.02l-35.56 106.7a8.83 8.83 0 0 0 1.25 7.98 8.88 8.88 0 0 0 3.14 2.73 8.95 8.95 0 0 0 9.26-.7 8.91 8.91 0 0 0 3.23-4.4L68.9 45.47a8.89 8.89 0 0 0-8.2-11.7zm53.34 0a9 9 0 0 0-6.95 3.05 8.97 8.97 0 0 0-1.73 3.02l-35.57 106.7a8.83 8.83 0 0 0 1.23 7.98 8.95 8.95 0 0 0 7.2 3.7 8.91 8.91 0 0 0 8.45-6.07l35.57-106.68c.37-1.1.5-2.27.41-3.44a8.9 8.9 0 0 0-3.02-6.1 8.92 8.92 0 0 0-5.59-2.17zm53.32.04a8.9 8.9 0 0 0-8.66 6.03l-35.56 106.7a8.83 8.83 0 0 0 1.22 7.98 8.94 8.94 0 0 0 7.2 3.7 8.88 8.88 0 0 0 8.46-6.08l35.54-106.67a8.9 8.9 0 0 0-8.2-11.66z"/></svg>