<svg xmlns="http://www.w3.org/2000/svg" width="25" height="25" fill="none" viewBox="0 0 25 25"><path fill="#000" d="M16.115 19.094h-1.927l.51.51h-4.77l.51-.51H8.52l-3.709 3.708 1.865.052.656-.656h9.959l.656.656 1.864-.052zM8.292 21.24l.677-.677h6.687l.677.677zm.698-3.386h6.645a3.743 3.743 0 0 0 3.74-3.74V6.647a3.743 3.743 0 0 0-3.74-3.74h-.968s.093-.656-2.47-.656c-2.187 0-2.239.656-2.239.656H8.99a3.743 3.743 0 0 0-3.74 3.74v7.469a3.743 3.743 0 0 0 3.74 3.74m.25-2.448a1.19 1.19 0 0 1-1.198-1.198c0-.666.53-1.198 1.198-1.198.666 0 1.197.532 1.197 1.198a1.19 1.19 0 0 1-1.197 1.198m6.198 0h-.053a1.19 1.19 0 0 1-1.197-1.198c0-.666.53-1.198 1.197-1.198s1.198.532 1.198 1.198c0 .646-.5 1.167-1.145 1.198M11.604 3.271h1.417a.373.373 0 0 1 .385.364v.021a.39.39 0 0 1-.375.396h-1.427a.385.385 0 0 1-.333-.396c0-.198.146-.364.333-.385m-4.5 3.677c0-.281.23-.51.51-.51h9.376c.28 0 .51.229.51.51v2.781c0 .281-.23.51-.51.51v-.041H7.615a.51.51 0 0 1-.51-.469V6.948"/></svg>