<svg xmlns="http://www.w3.org/2000/svg" data-name="Layer 1" viewBox="0 0 24 24"><path d="M2 9.83a8.05 8.05 0 0 1 8.6-2.11l3.62 1.59-1.67.69a9.64 9.64 0 0 0-7.15 0 18 18 0 0 0-2 1.38Z"/><path d="m4.4 12.43 1.35 1.35a5.83 5.83 0 0 1 3.82-1.24l1.64-1.76c-2.13-.6-5.81.15-6.81 1.65m2.24 2.36a2.92 2.92 0 0 1 2.37-1 2 2 0 0 0 1.84 1c-.19.28-.2.45-.59.65L9 16l-.89.37c-.44-.53-1.04-1.07-1.47-1.58m12.94-6.41c-.53-.18-1.71-.61-2.41-.12s-.63 1.35-1 1.54c-.11.06-.07-.34-.36-.35s-.51.19-.53.51.2.55.76 1.17a2.2 2.2 0 0 0 .71.65 1.42 1.42 0 0 0 1.5-.27c.42-.43.25-.95.56-1.11.14-.08.25 0 .31-.14a.64.64 0 0 0 .06-.49c0-.14-.66 0-.77-.09s-.24-.27-.2-.31c.21-.16 1 .11 1.21 0s.45-.89.16-.99m2.23 1.8-.81.22a10 10 0 0 0-1.73.54c-.4.17-.19.06-.42.42a2.8 2.8 0 0 1-.6.77c-.28.18-.42.11-.42.26 0 .61-.05 1.51.48 1.37.87-.22.82-.36 2.44-1.6.77-.59 1.29-.92 1.3-1.49-.05-.1-.05-.54-.24-.49"/><path d="M13.06 12.31c-.52 0-1.05.15-1 .23a.4.4 0 0 0 .22.06h2.21c.17 0-.5.54-.83.7l-.25.11c-.28.1-.44.14-1.18.36a11 11 0 0 1-1.15.3 3 3 0 0 1-.93.18c-.24 0-.48 0-.58-.15s0-.41.09-.61A6.3 6.3 0 0 1 10.74 12a12.7 12.7 0 0 1 2-1.64 2.56 2.56 0 0 1 1.63-.36c.46 0 .51.29.63.48a4.36 4.36 0 0 0 1.68 1.76c.33.2.55.24.62.32.31.38.73 1.71.27 2.16-1 1-4.61 1.74-6.83 2-.5.06-1.17.27-1.55-.1a.3.3 0 0 1-.11-.22c0-.21.88-.31 1.47-.65a1.8 1.8 0 0 0 .65-.55.7.7 0 0 0 .09-.18.8.8 0 0 1 .06-.18s0-.07.05-.09a25 25 0 0 0 3.27-1.52c.17-.15.26-.19.33-.27a.3.3 0 0 0 .08-.23c0-.33-.33-.38-.75-.37"/></svg>