<svg xmlns="http://www.w3.org/2000/svg" viewBox="0 0 192 192"><path d="M96.6 103.454c-6.24 12.88-14.78 30.32-19.02 38.187-4.107 7.16-7.513 6.206-10.213.193-9.374-22.14-28.62-60.96-37.674-82.727-1.673-4.006-2.94-6.58-4.126-7.593-1.207-1-3.694-1.6-7.48-1.807-1.4-.16-2.087-.5-2.087-1.06v-3.033l.347-.3c6.16-.033 36.006 0 36.006 0l.34.3v2.893c0 .794-.5 1.174-1.5 1.174l-3.76.206c-3.233.194-4.846 1.094-4.846 2.907 0 .9.353 2.2 1.106 4.007 7.214 17.64 32.12 70.14 32.12 70.14l.907.306 16.073-32.066-3.213-7.114-11.053-21.76s-2.12-4.36-2.854-5.813c-4.853-9.62-4.746-10.12-9.646-10.78-1.38-.153-2.087-.333-2.087-.993V45.6l.4-.3h28.613l.754.246v3.007c0 .7-.507 1-1.514 1l-2.053.313c-5.28.407-4.407 2.54-.907 9.48l10.547 21.68 11.72-23.36c1.953-4.266 1.553-5.34.74-6.313-.467-.56-2.033-1.467-5.413-1.6l-1.34-.14c-.347 0-.654-.1-.967-.34a1 1 0 0 1-.447-.86v-2.847l.407-.3c8.313-.053 26.953 0 26.953 0l.394.3v2.907c0 .807-.394 1.187-1.287 1.187-4.307.2-5.213.633-6.82 2.926-.8 1.24-2.5 3.927-4.307 6.927L104.073 88l-.433.9 18.613 38.08 1.134.32 29.306-69.587c1.027-2.813.86-4.813-.426-5.967-1.314-1.146-2.307-1.82-5.714-1.966l-2.8-.107c-.406 0-.7-.093-1.013-.3-.287-.193-.48-.5-.48-.793v-2.907l.393-.3h33.074l.273.3v2.913c0 .794-.493 1.2-1.393 1.2-4.32.2-7.514 1.2-9.62 2.807-2.094 1.7-3.714 4.107-4.907 7.113 0 0-26.953 61.72-36.173 82.26-3.5 6.714-7.02 6.114-10.02-.206-3.807-7.807-11.82-25.24-17.64-38.067z"/></svg>