<svg xmlns="http://www.w3.org/2000/svg" width="192" height="192" viewBox="0 0 192 192"><path d="M77.58 141.61c-4.107 7.16-7.513 6.206-10.213.193L29.693 59.076c-1.673-4.006-2.94-6.58-4.126-7.593-1.207-1-3.694-1.6-7.48-1.807-1.4-.16-2.087-.5-2.087-1.06v-3.033l.347-.3h36.006l.34.3v2.893c0 .794-.5 1.174-1.5 1.174l-3.76.206c-3.233.194-4.846 1.094-4.846 2.907 0 .9.353 2.2 1.106 4.007l32.12 70.14.907.306L92.793 95.15l-17.12-34.687c-4.853-9.62-4.746-10.12-9.646-10.78-1.38-.153-2.087-.333-2.087-.993v-3.121l.4-.286h28.613l.754.232v3.007c0 .7-.507 1-1.514 1l-2.053.313c-5.28.407-4.407 2.54-.907 9.48l10.547 21.68 11.72-23.36c1.953-4.266 1.553-5.34.74-6.313-.467-.56-2.033-1.467-5.413-1.6l-1.34-.14c-.347 0-.654-.1-.967-.34a1 1 0 0 1-.447-.86v-2.847l.407-.252h26.953l.394.252v2.907c0 .807-.394 1.187-1.287 1.187-4.307.2-5.213.633-6.82 2.926-.8 1.24-2.5 3.927-4.307 6.927L103.64 88.869l18.613 38.08 1.134.32 29.306-69.587c1.027-2.813.86-4.813-.426-5.967-1.314-1.146-2.307-1.82-5.714-1.966l-2.8-.107c-.406 0-.7-.093-1.013-.3-.287-.193-.48-.5-.48-.793v-2.907l.393-.359h33.074l.273.359v2.913c0 .794-.493 1.2-1.393 1.2-4.32.2-7.514 1.2-9.62 2.807-2.094 1.7-3.714 4.107-4.907 7.113l-36.173 82.26c-3.5 6.714-7.02 6.114-10.02-.206l-17.526-37.815z"/></svg>