<svg xmlns="http://www.w3.org/2000/svg" viewBox="0 0 24 24"><path d="M4.584 16.659 2 7.341h1.479l1.815 7.217h.086L7.27 7.34h1.464l1.888 7.221h.086l1.811-7.22h1.484l-2.59 9.317H10l-1.961-6.98h-.073l-1.961 6.98zm10.7 0V7.341h3.412c.662 0 1.209.11 1.642.328.435.216.758.508.974.878.216.367.323.781.323 1.243 0 .387-.071.715-.213.982a1.762 1.762 0 0 1-.573.637 2.526 2.526 0 0 1-.783.345v.092c.31.015.61.115.905.3.297.181.543.44.737.778.194.337.292.747.292 1.228 0 .476-.113.904-.338 1.283-.22.376-.564.675-1.028.897-.463.218-1.057.327-1.779.327h-3.571m1.406-1.205h2.028c.674 0 1.157-.13 1.448-.392.29-.26.437-.587.437-.978 0-.294-.075-.564-.224-.81a1.593 1.593 0 0 0-.637-.587 2.041 2.041 0 0 0-.973-.218H16.69v2.985m0-4.081h1.883c.316 0 .6-.06.851-.182a1.5 1.5 0 0 0 .606-.51c.151-.22.227-.483.227-.783 0-.384-.136-.707-.406-.969-.269-.26-.683-.39-1.241-.39h-1.92z"/></svg>