<svg xmlns="http://www.w3.org/2000/svg" viewBox="0 0 24 24"><path d="M4.584 16.659 2 7.341h1.479l1.815 7.217h.086L7.27 7.34h1.464l1.888 7.221h.086l1.811-7.22h1.484l-2.59 9.317H10l-1.961-6.98h-.073l-1.961 6.98zm10.7 0V7.341h3.412q.993 0 1.642.328.651.324.974.878.324.55.323 1.243 0 .581-.213.982a1.76 1.76 0 0 1-.573.637 2.5 2.5 0 0 1-.783.345v.092q.464.023.905.3.446.271.737.778.291.506.292 1.228 0 .714-.338 1.283-.331.564-1.028.897-.695.327-1.779.327zm1.406-1.205h2.028q1.011 0 1.448-.392.436-.39.437-.978 0-.441-.224-.81a1.6 1.6 0 0 0-.637-.587 2.04 2.04 0 0 0-.973-.218H16.69zm0-4.081h1.883q.474 0 .851-.182a1.5 1.5 0 0 0 .606-.51q.227-.332.227-.783 0-.576-.406-.969-.404-.39-1.241-.39h-1.92z"/></svg>