<svg xmlns="http://www.w3.org/2000/svg" data-name="Layer 1" viewBox="0 0 24 24"><path d="M14.705 2.005A7.295 7.295 0 1 0 22 9.3a7.295 7.295 0 0 0-7.295-7.295m.087 13.103a5.894 5.894 0 1 1 5.894-5.894 5.894 5.894 0 0 1-5.894 5.894m2.273-8.443h1.703l-1.279 5.762h-1.774l-1.01-3.594-1.01 3.594h-1.774l-1.279-5.762h1.703l.605 3.142.883-3.142h1.744l.883 3.142ZM8.96 15.033a7.5 7.5 0 0 0 .838.72s-1.649 1.73-2.39 2.655c-.925 1.152-1.965 2.726-2.256 3.016a1.56 1.56 0 0 1-1.315.57 1.82 1.82 0 0 1-1.284-.553A1.82 1.82 0 0 1 2 20.157a1.56 1.56 0 0 1 .57-1.315c.291-.291 1.865-1.331 3.017-2.256.924-.742 2.655-2.39 2.655-2.39a7.5 7.5 0 0 0 .72.837"/></svg>