<svg xmlns="http://www.w3.org/2000/svg" viewBox="0 0 24 24"><path d="M21.532 22h-3.2a.23.23 0 0 1-.204-.105l-2.15-3.08-.026-.053-1.075-3.185-.128-.13-2.61-1.358-.129-.157-.384-1.958-.051-.079-.87-1.331a.26.26 0 0 1-.026-.235l.538-1.175q.076-.156.23-.157l.998-.052q.115 0 .154-.078l.742-.575c.128-.104.359-.052.435.105l2.509 5.248.026.052.332 2.115.052.13 5.042 5.64c.154.157.026.418-.205.418M7.838 20.851c.025.079.025.157-.026.209l-.486.81a.27.27 0 0 1-.23.13H2.461a.26.26 0 0 1-.23-.392l2.97-4.464.05-.079 1.357-5.953a.27.27 0 0 1 .128-.156L8.58 9.91a.2.2 0 0 0 .128-.183l.256-1.096c.051-.235.384-.287.512-.079l.077.157c.05.052.05.13.025.209l-1.69 4.96v.131l.41 2.376v.13l-1.023 2.299v.156l.563 1.88zm7.192-1.096v.104l-.153 1.906c0 .13-.128.235-.256.235H9.834a.31.31 0 0 1-.256-.13l-.793-1.515-.743-1.854v-.209l1.23-2.454c.05-.078.05-.13.025-.209l-.615-1.697c-.025-.052 0-.13.026-.183l.998-2.193c.103-.209.436-.209.512.026l.307.992.973 2.637c.026.053.077.131.154.157l2.048.705c.076.026.153.078.179.157l1.152 3.525M9.144 5.577c0-.6.384-1.123.896-1.358l-.051-.209c0-.287.333-.522.742-.522h.026a1 1 0 0 1 .394-.37.96.96 0 0 1 .527-.1l.077-.052c.282-.418.947-.705 1.74-.705.308 0 .59.052.82.105a.51.51 0 0 1 .358-.157c.154 0 .307.078.359.209A1.3 1.3 0 0 1 16.003 2c.64 0 1.152.418 1.152.94l-.025.183.076.104c.41.157.692.444.692.783 0 .366-.384.705-.87.836q-.078 0-.077.078c0 .287-.282.549-.666.575v.026c0 .574-1.05 1.044-2.355 1.044-.282 0-.538-.026-.794-.078v.026c0 .235-.307.418-.665.418h-.051l.05.182c0 .366-.46.653-1.023.653h-.18l-.102.052a.41.41 0 0 1-.384.314.41.41 0 0 1-.41-.418c0-.13.026-.209.103-.287l.026-.105c-.051-.078-.051-.13-.051-.209 0-.052-.052-.078-.077-.078-.691-.156-1.229-.757-1.229-1.462z"/></svg>