<svg xmlns="http://www.w3.org/2000/svg" viewBox="0 0 24 24"><path d="M12.021 2c-.97 0-1.79.26-2.524.712 0 0-.022.022 0 .022h.021c.95-.195 2.374.604 2.503.69.13-.086 1.575-.885 2.503-.69h.021c.022 0 0 0 0-.022C13.812 2.281 12.992 2 12.021 2M8.763 3.377a.3.3 0 0 0-.15.025c-.907.906-1.468 2.115-1.468 3.474 0 1.1.367 2.136.993 2.934 0 0 .021.022.021 0v-.022c-.367-1.143 1.532-3.926 2.503-5.091v-.043c-1.1-1.084-1.655-1.27-1.9-1.277zm6.495 0c-.234.008-.805.198-1.921 1.298v.022c.97 1.165 2.87 3.948 2.503 5.091v.022h.022c.625-.82.992-1.834.992-2.934A4.83 4.83 0 0 0 15.73 3.77a5 5 0 0 0-.322-.347l-.021-.022c-.011-.01-.051-.028-.13-.025zM12.02 5.905c-1.467 1.122-3.97 3.84-3.193 4.617.841.755 1.963 1.208 3.193 1.208s2.33-.453 3.193-1.208c.755-.777-1.726-3.495-3.193-4.617m-6.17 6.688a2 2 0 0 0-.82.15c-.259.087-.453.238-.647.41a2 2 0 0 0-.41.691 2.8 2.8 0 0 0-.13.885c0 .302.043.604.13.863.086.259.237.496.41.69.172.194.388.345.626.453s.496.152.798.152.56-.044.776-.152.41-.258.561-.474v.54h.583v-2.158h-1.77v.54h1.209a1.2 1.2 0 0 1-.389.84c-.237.216-.56.324-.905.324-.41 0-.755-.15-.993-.431-.237-.28-.367-.67-.367-1.165 0-.497.13-.885.367-1.165.238-.281.561-.432.971-.432.302 0 .56.086.777.237.215.151.345.367.41.647h.647c-.065-.431-.26-.798-.583-1.057s-.755-.388-1.251-.388m3.819.086L8.05 16.8h.65l.388-1.079h1.834l.388 1.08h.647l-1.574-4.122zm.366.604.712 1.899H9.324zm2.33-.604v4.1h.605V13.52c.086.258.193.539.301.841l.95 2.417h.518l.927-2.417c.13-.324.216-.604.302-.841v3.28h.604v-4.12h-.841l-.82 2.135c-.172.432-.302.842-.431 1.209a29 29 0 0 0-.41-1.144l-.842-2.2zm4.833 0v4.1h2.934v-.562h-2.308v-1.272h2.05v-.518h-2.05V13.24h2.33v-.56zm-3.776 5.07c-.431 0-.798.109-1.057.303-.259.215-.388.475-.388.82s.108.604.324.798.539.323.97.41l.346.064c.345.065.604.152.733.26.13.086.194.237.194.41a.59.59 0 0 1-.237.495c-.151.108-.388.173-.69.173-.367 0-.626-.086-.82-.237-.173-.151-.28-.389-.28-.69h-.626c0 .474.15.84.453 1.078.302.237.733.367 1.273.367.496 0 .906-.108 1.186-.324.28-.215.432-.518.432-.906 0-.324-.108-.583-.302-.734-.195-.194-.54-.323-1.014-.431l-.367-.065q-.518-.096-.712-.259a.51.51 0 0 1-.194-.431c0-.194.086-.324.216-.432.15-.108.366-.15.625-.15.345 0 .604.064.755.194q.227.194.26.582h.581c-.021-.388-.15-.712-.431-.95-.28-.237-.69-.344-1.23-.344zm3.668 0c-.431 0-.798.109-1.057.303-.26.215-.388.475-.388.82s.108.604.323.798.54.323.971.41l.345.064c.345.065.604.152.734.26.13.086.194.237.194.41a.59.59 0 0 1-.238.495c-.15.108-.388.173-.69.173-.366 0-.626-.086-.82-.237-.172-.151-.28-.389-.28-.69h-.626c0 .474.151.84.453 1.078.302.237.734.367 1.273.367.497 0 .906-.108 1.187-.324.28-.215.431-.518.431-.906 0-.324-.108-.583-.302-.734-.194-.194-.539-.323-1.014-.431l-.367-.065q-.517-.096-.711-.259a.51.51 0 0 1-.195-.431c0-.194.087-.324.216-.432.151-.108.367-.15.626-.15.345 0 .604.064.755.194q.226.194.259.582h.582c-.021-.388-.15-.712-.431-.95-.28-.237-.69-.344-1.23-.344zm-11.995.044v4.12h.626v-1.51h1.121c.454 0 .799-.107 1.036-.345.237-.237.367-.56.367-.95.021-.409-.108-.733-.367-.97-.237-.237-.604-.345-1.036-.345zm.626.56h1.121q.389 0 .583.195c.13.13.194.324.194.56 0 .238-.065.432-.194.562q-.195.194-.583.194h-1.12zm3.71-.56-1.618 4.12h.647l.389-1.078h1.834l.388 1.079h.647l-1.575-4.121zm.345.604.713 1.899H9.066z"/></svg>