<svg xmlns="http://www.w3.org/2000/svg" viewBox="0 0 192 192"><path d="m41.974 41.148-.07.063A76.72 76.72 0 0 0 19 96c0 16.849 5.509 33.243 15.736 46.634.105.133.266.21.42.133.14-.084.14-.252.084-.399-5.866-18.151 24.136-62.139 39.641-80.584A.28.28 0 0 0 75 61.56c0-.105-.07-.189-.14-.252-26.082-25.956-33.04-20.02-32.949-20.104m108.13-.063.07.07A76.72 76.72 0 0 1 173.001 96c0 16.856-5.509 33.25-15.736 46.641-.098.126-.266.203-.42.126-.126-.077-.14-.245-.084-.392 5.866-18.151-24.115-62.174-39.613-80.626q-.112-.098-.112-.21c0-.119.07-.203.147-.266 26.089-25.956 33.005-19.978 32.914-20.062M96.001 19c15.54 0 28.322 4.256 40.11 11.27.147.07.189.231.14.378-.07.14-.224.175-.378.133-14.903-3.22-37.562 9.66-39.704 10.941-.07.035-.098.07-.161.07-.07 0-.119-.042-.168-.07-5.684-3.262-26.628-14.238-39.816-10.864-.147.035-.308.007-.371-.14-.07-.14 0-.301.133-.378C67.574 23.256 80.524 19 96.015 19m0 61.754c.091 0 .189.07.245.119 23.044 17.521 62.482 60.83 50.442 73.08v-.014.014A76.72 76.72 0 0 1 96.022 173a76.72 76.72 0 0 1-50.694-19.047v-.014.014c-12.019-12.25 27.412-55.559 50.435-73.08.07-.049.168-.119.266-.119"/></svg>