<svg xmlns="http://www.w3.org/2000/svg" viewBox="0 0 24 24"><path d="M9.647 16.083H7.392a.082.082 0 0 1-.07-.039L5.865 13.69l-1.459 2.354a.081.081 0 0 1-.069.039H2.082a.082.082 0 0 1-.068-.127l2.708-4.025-2.675-3.886a.082.082 0 0 1 .068-.128h2.269a.081.081 0 0 1 .069.039l1.412 2.246L7.268 7.97a.11.11 0 0 1 .093-.052h2.254a.082.082 0 0 1 .067.128l-2.675 3.885 2.708 4.025a.082.082 0 0 1-.068.127zm4.349-12.087A7.983 7.983 0 0 0 8.12 6.564a.042.042 0 0 0 .03.069h.356a.08.08 0 0 0 .052-.02 7.246 7.246 0 0 1 4.772-1.78c3.997 0 7.236 3.21 7.236 7.168s-3.238 7.167-7.235 7.167a7.246 7.246 0 0 1-4.771-1.78.08.08 0 0 0-.053-.02h-.355a.042.042 0 0 0-.03.07 7.983 7.983 0 0 0 5.875 2.567 8.005 8.005 0 0 0-.001-16.01zm3.173 8.731h-6.032c.053.915.86 1.704 2.032 1.704.901 0 1.476-.359 1.824-.91a.082.082 0 0 1 .107-.03l1.526.791a.082.082 0 0 1 .03.118c-.726 1.097-1.972 1.822-3.498 1.822h-.011c-2.417 0-4.072-1.769-4.072-4.222 0-2.453 1.654-4.222 4.07-4.222s4.158 1.89 4.158 4.222a4.153 4.153 0 0 1-.047.637c-.008.042-.037.09-.086.09zm-1.895-1.653a2.068 2.068 0 0 0-2.031-1.505c-1.246 0-1.887.78-2.039 1.505z"/></svg>