<svg xmlns="http://www.w3.org/2000/svg" width="192" height="192" viewBox="0 0 192 192"><path d="M130.01 131.32c-15.248 9.352-30.24 23.16-30.24 40.728 0 2.032-1.688 3.952-3.768 3.952s-3.76-1.92-3.76-3.952c0-17.568-15-31.376-30.248-40.72-18.016-11.064-29.992-30.624-29.992-52.912 0-34.472 28.656-62.416 64-62.416s64 27.952 64 62.424c0 22.288-11.976 41.848-29.992 52.896M96.002 98.96c12.48 0 22.584-9.864 22.584-22.032S108.482 54.88 96.002 54.88 73.41 64.744 73.41 76.912s10.12 22.032 22.592 22.032"/></svg>