<svg version="1.1" viewBox="0 0 192 192" xmlns="http://www.w3.org/2000/svg"><path d="m173 90.403c-3.8907-2.3825-9.0364-4.7694-15.332-7.0433-14.186-5.3357-33.522-10.105-54.461-13.516-6.0603-1.0191-26.085-3.8591-45.308-4.8827-11.441-0.67939-20.822-0.5662-27.801 0.22646-2.1741 0.22646-4.2305 0.5662-6.0648 1.0237a77.688 77.688 0 0 1 71.515-47.025c40.954 0 74.477 31.461 77.452 71.215zm-84.763 59.389a11.677 11.677 0 0 0 23.005 3.9949l0.62506-3.6099a4.8707 4.8707 0 0 1 9.5976 1.6668l-0.63413 3.6099a21.415 21.415 0 0 1-42.192-7.3286l6.9073-39.687c-15.54-2.8942-30.537-6.4997-42.06-10.309-7.6682-2.5003-13.615-4.8873-17.737-7.2697-2.1741-1.2501-3.8907-2.5003-5.0322-3.7503-1.7167-1.8163-1.7167-3.1797-1.7167-3.6326 0.22647-1.5898 1.6034-2.8399 3.8907-3.8636 2.0609-0.90586 4.9189-1.5898 8.5786-2.0427 6.2958-0.6794 14.875-0.7972 25.632-0.22646 16.818 0.90586 34.551 3.2929 41.987 4.4252 0.80174 0.11772 1.4857 0.22646 2.0609 0.34427 1.3724 0.22646 2.6271 0.45293 3.8863 0.6794 18.652 3.1797 35.583 7.4962 48.17 12.265 6.4091 2.387 11.323 4.774 14.644 7.0432 1.6034 1.1323 2.8626 2.1605 3.5465 3.1797 1.1459 1.4766 0.91493 2.5003 0.80174 2.8399-0.22647 0.90586-1.1414 1.8162-2.8581 2.5003-1.4902 0.67939-3.6642 1.2501-6.2958 1.7031-4.9189 0.7972-11.899 1.2501-20.133 1.3633h-0.80174c-13.615 0-29.404-1.1323-42.79-2.9532h-0.0045l-4.1671-0.65673z"/></svg>
