<svg xmlns="http://www.w3.org/2000/svg" width="192" height="192" viewBox="0 0 192 192"><path d="M28.977 58.224a77.154 77.154 0 0 0 0 75.56zm11.958 91.507a77.034 77.034 0 0 0 11.95 10.018v-127.5a77.036 77.036 0 0 0-11.943 10.025zm23.908-107.88v108.29l93.786-54.146zm11.95 87.588V62.557l57.935 33.441zm20.189 43.559a77 77 0 0 0 65.373-37.73zm-34.488-7.692a77.006 77.006 0 0 0 14.645 5.351l93.085-53.746a76.995 76.995 0 0 0 2.68-15.346zm110.41-74.875a77.003 77.003 0 0 0-2.68-15.346L77.14 21.347a76.982 76.982 0 0 0-14.645 5.343zm-10.549-33.703a76.999 76.999 0 0 0-65.373-37.73z"/></svg>