<svg xmlns="http://www.w3.org/2000/svg" data-name="Layer 1" viewBox="0 0 24 24"><path d="M3.296 16.907V7.094a10.02 10.02 0 0 0 0 9.813m1.553 2.071a10 10 0 0 0 1.552 1.301V3.721A10 10 0 0 0 4.85 5.023Zm3.105-14.01v14.064l6.09-3.516L20.134 12l-6.09-3.516Zm1.552 11.375V7.657L17.03 12Zm11.112.757-8.49 4.9a10 10 0 0 0 8.49-4.9M7.649 21.001a10 10 0 0 0 1.902.695l6.046-3.491 6.043-3.489a10 10 0 0 0 .348-1.993L14.82 16.86Zm14.339-9.724a10 10 0 0 0-.348-1.993l-6.043-3.489-6.046-3.49a10 10 0 0 0-1.902.694l7.171 4.14ZM12.128 2l8.49 4.9a10 10 0 0 0-8.49-4.9"/></svg>