<svg xmlns="http://www.w3.org/2000/svg" viewBox="0 0 24 24"><path d="M9.537 20.132c-.011-1.993-.014-2.048-.136-2.493-.134-.488-.41-.894-.71-1.047a.473.473 0 0 1-.116-.08c-.028-.033-.128-1.347-.656-8.628a546.88 546.88 0 0 0-.166-2.254c-.028-.294-.178-2.42-.178-2.51v-.096l.267-.062c.146-.035.63-.143 1.073-.24 1.422-.311 1.743-.386 2.38-.556.342-.091.656-.166.698-.166.04 0 .411.085.823.188a52.76 52.76 0 0 0 1.366.322c.644.14 1.862.415 2.117.48l.149.036v.125c0 .105-.042.649-.214 2.764l-.711 8.861a178.63 178.63 0 0 1-.132 1.596c-.014.124-.017.127-.166.221-.385.243-.624.67-.752 1.338-.047.249-.05.352-.059 2.165L14.405 22H9.547zm-3.03-5.685c-.72-.16-1.043-1.007-.609-1.596.19-.257.391-.366.813-.438a2.32 2.32 0 0 1 .36-.04c.152.013.164.054.207.695l.06.854c.032.417.031.433-.035.5-.056.055-.07.057-.362.056a2.846 2.846 0 0 1-.434-.032zm10.11-.028c-.058-.074-.058-.064-.027-.485l.035-.522c.051-.817.062-.914.105-.973.057-.08.128-.083.48-.025.35.059.537.14.709.312.149.15.225.28.274.473a1.03 1.03 0 0 1-.647 1.216c-.113.042-.203.052-.508.06l-.37.009zM6.373 10.873a1.032 1.032 0 0 1-.935-.872 1.03 1.03 0 0 1 .295-.867c.18-.18.343-.25.744-.319.32-.055.342-.056.399-.02a.23.23 0 0 1 .08.093c.01.028.042.415.07.858.03.444.059.852.066.907.012.089.005.108-.059.172-.069.07-.079.072-.269.069a6.793 6.793 0 0 1-.39-.02zm10.55-.036c-.069-.072-.069-.061.008-1.178.056-.809.06-.832.172-.874.05-.02.5.042.69.094.247.068.503.286.623.53a.989.989 0 0 1-.199 1.17c-.245.244-.47.316-1 .317-.225.001-.242-.002-.295-.059zm.337-3.548c-.111-.042-.114-.082-.055-1.014.03-.479.064-.908.076-.955.036-.147.091-.158.46-.098.425.069.55.119.737.294.437.41.45 1.052.031 1.473a.963.963 0 0 1-.507.276c-.167.032-.677.048-.741.024zm-11.299-.03c-.512-.14-.85-.654-.762-1.157.06-.338.32-.67.613-.78.175-.067.709-.156.798-.134.103.026.125.12.158.656.016.267.042.667.059.89.031.425.02.507-.072.542-.068.026-.683.013-.794-.017z"/></svg>