<svg xmlns="http://www.w3.org/2000/svg" width="24" height="24" fill="none" viewBox="0 0 24 24"><path fill="#000" fill-rule="evenodd" d="M20.91 6.069c.31.31.534.697.649 1.121.66 2.659.508 6.858.012 9.62a2.514 2.514 0 0 1-1.77 1.77c-1.552.423-7.798.423-7.798.423s-6.247 0-7.799-.423a2.514 2.514 0 0 1-1.77-1.77c-.664-2.647-.482-6.85-.013-9.607a2.514 2.514 0 0 1 1.77-1.77c1.552-.424 7.799-.436 7.799-.436s6.247 0 7.799.423c.424.115.81.338 1.12.649zM15.184 12l-5.182 3.002V8.999Z" clip-rule="evenodd"/></svg>