<svg xmlns="http://www.w3.org/2000/svg" width="24" height="24" fill="none" viewBox="0 0 24 24"><path fill="#000" fill-rule="evenodd" d="m9.295 5.826.002-.018c-2.426.004-3.692.058-4.508.856l-.046.046c-.856.875-.856 2.269-.856 5.057 0 2.787 0 4.181.856 5.056l.046.046c.875.856 2.269.856 5.057.856h.07a1.86 1.86 0 0 1 .356-.274l.26-.157 8.663-5.237.132-.08.002-.001.527-.322v-.072c0-2.665-.02-4.017-.856-4.872a2.695 2.695 0 0 0-.046-.046c-.632-.618-1.535-.79-3.039-.838h-6.62m4.603 11.899c.38 0 .733 0 1.063-.002l4.833-3.136c.042-.499.055-1.08.06-1.76l-.006.004-.136.082-7.96 4.812h2.146m5.056-.856c-.477.466-1.108.679-2.035.775l2.618-1.698a2.357 2.357 0 0 1-.583.923m-7.78-7.028 2.581 1.524a.49.49 0 0 1-.001.84l-2.58 1.524a.474.474 0 0 1-.711-.42V10.26c0-.372.395-.605.71-.42" clip-rule="evenodd"/><path fill="#000" d="M10.412 4.826h2.348l-1.045-.69a.847.847 0 0 0-1.174.317l-.019.032a.89.89 0 0 0-.11.341m10.436 5.34.302.199c1.191.788 1.184 2.573-.013 3.351l-9.482 6.151a.847.847 0 0 1-1.17-.326l-.019-.034a.888.888 0 0 1 .32-1.197l.263-.16 8.663-5.237.136-.082.006-.004v.001l1.002-.61v-.521c0-.55 0-1.06-.008-1.531"/></svg>