<svg version="1.1" viewBox="0 0 192 192" xmlns="http://www.w3.org/2000/svg"><path d="m25.201 16c-2.0312 0-3.9245 1.0242-5.036 2.7243-1.111 1.6994-1.2894 3.8451-0.47468 5.7052 12.957 29.572 56.031 127.89 64.831 147.97 0.9586 2.1885 3.1205 3.602 5.5098 3.602h11.936c2.3893 0 4.5511-1.4135 5.5098-3.602 8.7997-20.084 51.875-118.4 64.832-147.97 0.81424-1.8601 0.63646-4.0058-0.47468-5.7052-1.1116-1.7001-3.0054-2.7243-5.036-2.7243h-7.7904c-1.705 0-3.2497 1.0086-3.935 2.5696-6.8575 15.618-43.051 98.056-55.138 125.59-0.68535 1.5609-2.2294 2.5696-3.935 2.5696-1.705 0-3.2485-1.0086-3.9339-2.5696-12.087-27.531-48.281-109.97-55.138-125.59-0.68535-1.5609-2.2289-2.5696-3.9339-2.5696zm30.563 0c-1.842 0-3.5444 0.9826-4.4656 2.5781-0.92127 1.5957-0.92127 3.5608 0 5.1564 9.3487 16.192 30.886 53.497 40.235 69.69 0.92127 1.5955 2.6236 2.5781 4.4656 2.5781 1.8419 0 3.5443-0.9826 4.4656-2.5781 9.3487-16.192 30.886-53.497 40.235-69.69 0.92126-1.5956 0.92126-3.5607 0-5.1564-0.92127-1.5955-2.6236-2.5781-4.4656-2.5781z"/></svg>
