<svg xmlns="http://www.w3.org/2000/svg" viewBox="0 0 24 24"><path d="M20.328 15.455c-.473-.507-1.221-1.527-1.221-1.527a3.923 3.923 0 0 0 1.727-.999c.757-.753 1.17-1.821 1.166-2.971.01-1.194-.514-2.268-1.342-2.94-.825-.681-1.888-.997-2.995-.998h-1.95a3.323 3.323 0 0 0-3.317 3.317v8.187h2.211V15.2a1.12 1.12 0 0 1 1.106-1.106h.881l2.379 2.914.167.205c.18.172.416.285.679.307v.003h.048l.046.002.045-.002h1.309l.003-1.788s-.54.15-.942-.28zm-2.465-3.571h-2.15c-.389.001-.76.158-1.106.281V9.337a1.12 1.12 0 0 1 1.106-1.106h1.95c.69 0 1.242.202 1.584.489.338.293.53.636.541 1.238-.003.647-.209 1.095-.517 1.407-.314.31-.76.515-1.408.52zM10.96 6.375H8.774L8.772 9.95c-.041 1.333-1.289 1.764-2.283 1.778-1.136-.016-2.332-.647-2.332-2.376V6.375H2v2.976c0 1.35.468 2.503 1.351 3.336.8.754 1.896 1.177 3.094 1.197h.089c.804-.014 1.987-.539 2.215-1.003v.985c0 1.305-1.66 2.156-2.106 2.38l.032.038-.032.016 1.389 1.68c.804-.469 2.918-1.406 2.929-4.356z"/></svg>