<svg xmlns="http://www.w3.org/2000/svg" width="24" height="24" fill="none" viewBox="0 0 24 24"><path fill="#000" d="M11.973 1.588c-.538-.003-1.012.312-1.012.312S6.39 4.522 3.922 6c-.2.12-.698.438-.941.759-.325.427-.318 1.366-.319 1.59-.01 3.133.002 5.502.019 8.193.001.196.034.404.274.762.207.31.393.468.568.57 2.916 1.692 5.114 2.985 7.613 4.414.184.105.566.219.863.223.277.003.583-.057.81-.188 2.716-1.573 5.18-3.004 7.833-4.554.285-.167.43-.386.526-.593.084-.182.174-.55.174-.766-.012-2.812-.028-5.461-.032-8.454-.001-.798-.15-1.043-.327-1.293-.232-.326-.538-.476-1.107-.8-2.485-1.419-6.67-3.857-6.67-3.857s-.678-.415-1.233-.418m0 4.057c.34.002.754.255.754.255s2.559 1.491 4.079 2.358c.348.199.535.29.676.49.109.152.2.302.2.79.003 1.83.012 3.45.02 5.17 0 .132-.055.357-.107.468a.77.77 0 0 1-.32.363c-1.623.948-3.13 1.822-4.79 2.784-.14.08-.327.117-.496.115a1.3 1.3 0 0 1-.528-.136c-1.528-.874-2.872-1.664-4.655-2.7a1.06 1.06 0 0 1-.347-.348c-.147-.219-.167-.345-.168-.465a475 475 0 0 1-.011-5.01c0-.137-.004-.711.194-.973.15-.196.454-.39.576-.463 1.51-.905 4.304-2.508 4.304-2.508s.29-.192.619-.19"/><path fill="#000" d="M12 6.602a1.05 1.05 0 0 0-.523.162S9.109 8.124 7.83 8.89c-.104.062-.361.227-.488.394-.168.222-.166.71-.166.828-.01 1.63-.006 2.864 0 4.265 0 .103.017.21.14.398a.9.9 0 0 0 .294.297c1.506.884 2.641 1.56 3.933 2.307.094.055.292.115.445.117a.84.84 0 0 0 .42-.097c1.406-.816 2.682-1.557 4.057-2.362a.66.66 0 0 0 .272-.307 1.2 1.2 0 0 0 .09-.4c-.002-1.463-.007-2.843-.006-4.401 0-.416-.076-.543-.167-.674-.12-.17-.278-.248-.572-.418-1.284-.741-3.445-2.016-3.445-2.016s-.35-.216-.638-.219m-1.817 2.605 2.425 1.404 2.425 1.404-2.427 1.4-2.428 1.4.003-2.804z"/></svg>