<svg xmlns="http://www.w3.org/2000/svg" viewBox="0 0 24 24"><path d="M16.206 11.413c2.944.027 5.287 2.365 5.287 5.298a5.267 5.267 0 0 1-5.3 5.289 5.27 5.27 0 0 1-5.283-5.298c.007-2.947 2.363-5.269 5.296-5.289m-1.482 8.627c.486 0 .948-.002 1.412.002.086 0 .122-.03.154-.106l2.08-5.128.28-.695c-.027-.005-.04-.01-.054-.01-.437 0-.876.003-1.313-.001-.081 0-.09.05-.108.101l-.643 1.834-.301.846c-.025-.066-.043-.106-.057-.15-.312-.844-.624-1.685-.934-2.532-.027-.077-.064-.102-.145-.1-.419.005-.838.003-1.256.003q-.047.001-.107.007l.041.113.292.747q.644 1.647 1.29 3.29c.04.104.05.192 0 .299-.093.192-.17.394-.253.59-.125.29-.25.58-.378.89M4.524 7.199c0-.647-.002-1.281 0-1.915a2.9 2.9 0 0 1 .65-1.842c.606-.76 1.402-1.206 2.355-1.378.9-.163 1.758-.014 2.569.394.708.357 1.271.873 1.629 1.595a2.7 2.7 0 0 1 .285 1.216v1.925c.15.012.292.01.43.034.813.154 1.27.634 1.4 1.446.003.019 0 .039 0 .057v2.23l-.001.04c-2.422 1.154-3.698 3.055-3.816 5.753H9.92c-1.953 0-3.906.015-5.861-.007-.8-.01-1.399-.455-1.528-1.32a2 2 0 0 1-.02-.246c0-2.116-.007-4.232.002-6.348.002-.813.46-1.406 1.251-1.58.21-.045.432-.034.65-.05zm6.071-.002c-.018-.591-.013-1.168-.058-1.74a2.34 2.34 0 0 0-.788-1.578c-.697-.636-1.686-.792-2.485-.367-.876.466-1.278 1.245-1.333 2.209-.025.455-.005.912-.005 1.37v.105zm-1.59 6.61v-.145l-.002-1.921c0-.07.015-.118.072-.163.28-.22.432-.512.478-.865.113-.855-.711-1.604-1.548-1.391-.516.13-.851.466-.96.984s.059.957.48 1.288a.18.18 0 0 1 .077.158q-.002.96-.002 1.921v.132c.477.002.932.002 1.405.002"/></svg>