<svg xmlns="http://www.w3.org/2000/svg" viewBox="0 0 24 24"><path d="m5.089 13.182-.19.875c3.085 2.173 7.428 2.173 10.512 0l-.19-.875c-3.083 1.75-7.049 1.75-10.132 0m6.572-1.644a1.44 1.44 0 0 1-.523.763 1.33 1.33 0 0 1-.784.255c-.24.021-.566-.048-.828-.107v1.126H8.63V9.728c.13-.067.243-.11.452-.206.208-.097.376-.149.616-.19.349-.043.698 0 1.046.106.524.148.916.572.981 1.102.043.319.043.68-.066.998m-.85-1.04a.612.612 0 0 0-.457-.424 1.405 1.405 0 0 0-.785.042s-.022 0-.022.021v1.549a.944.944 0 0 0 1.025.021.65.65 0 0 0 .217-.318c.088-.276.11-.594.023-.892m4.39 1.04a1.44 1.44 0 0 1-.522.764 1.33 1.33 0 0 1-.784.255c-.24.021-.566-.048-.828-.106v1.125h-.895V9.728c.131-.067.244-.11.452-.206a2.299 2.299 0 0 1 .617-.19c.349-.043.697 0 1.046.106.523.148.916.572.981 1.102.043.319.043.68-.066.998m-.85-1.04a.612.612 0 0 0-.457-.424 1.405 1.405 0 0 0-.785.042s-.022 0-.022.021v1.549a.945.945 0 0 0 1.025.021.65.65 0 0 0 .217-.318c.088-.276.11-.594.022-.892m2.22.14c.24.042.501.02.72-.107a.724.724 0 0 0 .327-.467c.042-.19.065-.36.087-.551h.828v.297a1.878 1.878 0 0 1-.197.7 1.237 1.237 0 0 1-.392.424c-.043.021-.088.064-.13.086a.95.95 0 0 1 .108.211c.219.382.437.743.676 1.125l.066.127a.263.263 0 0 1 .021.127h-.915l-.72-1.273-.479.043v1.252h-.894v-4.2h.894zM4.66 9.49c0 .043-.021.086-.042.15l-.458.763c-.284.468-.567.933-.828 1.4 0 .021-.023.043-.023.064H4.66v.764H2c0-.043.023-.085.044-.127.131-.234.262-.446.393-.658.13-.213.24-.404.37-.616.175-.296.35-.594.524-.87.021-.02.021-.042.043-.085H2.11V9.49zm-1.242-.296a.365.365 0 0 1-.327-.107.417.417 0 0 1-.13-.466.448.448 0 0 1 .37-.297.473.473 0 0 1 .436.127c.13.128.153.297.11.468a.419.419 0 0 1-.393.275c-.022.02-.044.02-.066 0m4.534.509a3.743 3.743 0 0 0-.698-.191 3.818 3.818 0 0 0-.98-.063 1.276 1.276 0 0 0-.784.36c-.196.213-.348.468-.392.743a3.155 3.155 0 0 0-.066.637c0 .276.066.53.196.764.11.19.262.36.458.466.436.234.937.319 1.416.234.35-.043.676-.149 1.025-.212V9.788c-.044-.02-.109-.063-.174-.084m-.698 2.186c-.305.105-.632.126-.937 0a.568.568 0 0 1-.327-.34 1.487 1.487 0 0 1 .022-1.018.648.648 0 0 1 .523-.382c.218-.022.458 0 .653.105.022 0 .022.022.045.022zm14.462-2.228a4.953 4.953 0 0 0-.806-.191 2.71 2.71 0 0 0-.828 0 1.34 1.34 0 0 0-1.046.912c-.11.36-.153.742-.088 1.124.044.34.218.658.502.87.065.043.152.107.218.127.174.085.392.15.588.17a2.046 2.046 0 0 0 .719 0c.349-.064.697-.148 1.025-.212V9.79a3.604 3.604 0 0 0-.283-.127m-.567 2.228c-.043.02-.065.02-.108.02a2.25 2.25 0 0 1-.545.064.688.688 0 0 1-.546-.275.734.734 0 0 1-.13-.297 1.52 1.52 0 0 1 .043-.764.647.647 0 0 1 .567-.468c.24-.042.48 0 .698.128l.021 1.59"/></svg>