<svg xmlns="http://www.w3.org/2000/svg" viewBox="0 0 24 24"><path d="M5.184 19.035c0-.364.107-1.729.205-2.611.19-1.714.506-3.4.944-5.045.178-.665.534-1.863.624-2.098.028-.074.007-.078-.255-.057-.157.013-.568.046-.913.072-.81.062-2.203.237-3.017.38-.353.06-.67.111-.707.111C2.01 9.787 2 9.603 2 8.542V7.296l.617-.233c3.505-1.328 7.22-2.061 11.102-2.191l.934-.031-.206.32-.412.643c-.646 1.007-1.87 3.306-2.37 4.454-.42.963-1.02 2.525-1.208 3.142l-.028.093.625-.102c1.864-.304 3.171-.399 5.474-.396 2.201.003 3.253.077 5.224.37l.224.032.012.84.012.84h-.803c-2.015 0-4.29.233-6.418.654-3.088.613-6.316 1.734-8.909 3.094-.35.183-.647.333-.66.333-.015 0-.026-.055-.026-.123"/></svg>