<svg xmlns="http://www.w3.org/2000/svg" width="25" height="25" fill="none" viewBox="0 0 25 25"><path fill="#000" d="M16.896 20.659 12.988 9.714a.4.4 0 0 1 0-.276l1.978-5.4a.406.406 0 0 1 .746 0l6.68 16.329a.388.388 0 0 1-.372.551h-4.865a.42.42 0 0 1-.26-.26"/><path fill="#000" d="M15.647 20.918H2.951a.39.39 0 0 1-.357-.519l4.67-12.453H5.075a.4.4 0 0 1-.357-.21L2.675 3.648a.39.39 0 0 1 .357-.567h10.977a.39.39 0 0 1 .357.519L9.891 15.535a.39.39 0 0 0 .357.518h4.037a.39.39 0 0 1 .357.26l1.378 4.102a.39.39 0 0 1-.373.503"/></svg>