<svg xmlns="http://www.w3.org/2000/svg" viewBox="0 0 24 24"><path d="M18.208 17.034a.277.277 0 0 0-.409.022c-.127.152-.26.3-.4.444a7.445 7.445 0 0 1-9.551.985.371.371 0 0 1-.05-.568l11.419-11.71a.682.682 0 0 0 .037-.931 9.381 9.381 0 0 0-.324-.347 9.578 9.578 0 0 0-13.788 0c-.186.192-.364.39-.533.593a.264.264 0 0 0 .018.355L5.8 7.049a.277.277 0 0 0 .41-.026 7.776 7.776 0 0 1 .466-.523 7.445 7.445 0 0 1 9.551-.986c.192.131.21.403.048.568L4.857 17.793a.682.682 0 0 0-.036.93c.104.118.212.234.322.348a9.578 9.578 0 0 0 13.788 0c.16-.163.312-.33.458-.502a.264.264 0 0 0-.016-.357l-1.164-1.178zM12.614 6.613 9.396 9.964a.269.269 0 0 1-.387 0l-1.18-1.22a.26.26 0 0 1-.034-.325c1.229-1.862 3.364-2.264 4.66-2.225.219.006.31.262.159.42zm2.01 7.245-3.217 3.351c-.152.158-.061.413.158.42 1.296.039 3.432-.363 4.66-2.226a.26.26 0 0 0-.033-.323l-1.182-1.222a.269.269 0 0 0-.387 0z"/></svg>