<svg xmlns="http://www.w3.org/2000/svg" viewBox="0 0 24 24"><path d="M18.208 17.034a.277.277 0 0 0-.409.022q-.19.228-.4.444a7.445 7.445 0 0 1-9.551.985.37.37 0 0 1-.05-.568l11.419-11.71a.68.68 0 0 0 .037-.931 9 9 0 0 0-.324-.347 9.58 9.58 0 0 0-13.788 0q-.28.288-.533.593a.264.264 0 0 0 .018.355L5.8 7.049a.277.277 0 0 0 .41-.026 8 8 0 0 1 .466-.523 7.445 7.445 0 0 1 9.551-.986c.192.131.21.403.048.568L4.857 17.793a.68.68 0 0 0-.036.93q.156.177.322.348a9.58 9.58 0 0 0 13.788 0q.24-.244.458-.502a.264.264 0 0 0-.016-.357l-1.164-1.178zM12.614 6.613 9.396 9.964a.27.27 0 0 1-.387 0l-1.18-1.22a.26.26 0 0 1-.034-.325c1.229-1.862 3.364-2.264 4.66-2.225.219.006.31.262.159.42zm2.01 7.245-3.217 3.351c-.152.158-.061.413.158.42 1.296.039 3.432-.363 4.66-2.226a.26.26 0 0 0-.033-.323l-1.182-1.222a.27.27 0 0 0-.387 0z"/></svg>