<svg xmlns="http://www.w3.org/2000/svg" viewBox="0 0 24 24"><path d="M5.495 21.956a3 3 0 0 1-.52-.188c-.421-.199-.867-.629-1.054-1.015-.258-.536-.242.093-.242-8.751 0-8.845-.016-8.216.242-8.752.187-.386.633-.816 1.05-1.011.18-.086.434-.172.56-.196C5.69 2.013 7.69 2 12.015 2c6.915 0 6.524-.011 7.06.258.378.188.823.633 1.003.993.258.53.242-.102.242 8.75 0 8.85.016 8.22-.242 8.752-.176.355-.66.832-1.023 1.008-.52.254-.165.242-7.076.238-3.797-.004-6.368-.02-6.485-.043zm11.314-2.532c.453-.14.829-.515.957-.96.047-.169.06-.387.047-1.138-.011-.922-.011-.93-.117-1.148a1.55 1.55 0 0 0-1.082-.817c-.285-.054-8.943-.054-9.228 0a1.55 1.55 0 0 0-1.082.82c-.105.212-.105.223-.117 1.145-.012.75 0 .97.047 1.137.129.438.504.82.941.961.227.07.403.075 4.81.075 4.457.004 4.586 0 4.824-.075m-7.977-5.782c.18-.05.386-.254.433-.43.02-.074.04-.234.04-.355v-.223l.308-.011c.238-.012.336-.035.422-.098.383-.285.383-.762 0-1.047-.086-.062-.184-.086-.422-.098l-.309-.011v-.223c0-.32-.058-.484-.23-.64-.211-.192-.414-.22-.66-.098-.278.136-.36.289-.36.656v.305l-.328.011c-.355.016-.465.067-.625.286-.113.152-.113.52 0 .672.16.218.27.27.625.285l.328.011v.305c0 .364.082.52.352.657.195.097.238.101.426.046m7.868-1.324a.61.61 0 0 0 .289-.582c-.02-.195-.113-.34-.3-.465-.126-.09-.15-.09-1.337-.09-1.035 0-1.23.008-1.344.063q-.291.139-.32.52c-.02.273.086.449.344.581.172.086.191.09 1.347.078 1.153-.011 1.176-.011 1.32-.105zm-8.9-3.68c.114-.031.254-.14.52-.399l.36-.355.363.36c.402.402.539.468.805.398.293-.078.472-.297.472-.582 0-.246-.058-.348-.418-.715L9.562 7l.34-.344c.36-.367.418-.469.418-.715 0-.285-.18-.504-.472-.582-.266-.07-.403-.004-.805.399l-.364.36-.359-.356c-.406-.399-.574-.477-.84-.407-.207.055-.312.14-.402.317-.168.324-.102.5.363.969l.36.359-.36.363c-.461.465-.531.641-.367.961.094.176.152.23.344.301.183.063.191.063.382.012zm8.9-.07a.61.61 0 0 0 .289-.583c-.02-.195-.113-.34-.3-.464-.126-.09-.15-.09-1.337-.09-1.035 0-1.23.008-1.344.062q-.291.14-.32.52c-.02.273.086.45.344.582.172.086.191.09 1.347.078 1.153-.012 1.176-.012 1.32-.105zm-.012-2.083a.61.61 0 0 0 .012-1.05c-.145-.094-.168-.094-1.32-.106-1.157-.012-1.176-.008-1.348.078-.258.133-.364.309-.344.582.02.25.12.422.312.516.11.055.305.066 1.344.066 1.196 0 1.22 0 1.344-.086"/></svg>