<svg version="1.1" viewBox="0 0 24 24" xmlns="http://www.w3.org/2000/svg"><path d="m14.258 5.1505s-0.90093-0.29403-2.028-0.46314l9.0144 8.5438 0.75542-0.89137-0.60154-0.56876-6.8171-6.4904c-0.10647-0.043378-0.213-0.086761-0.32309-0.13014zm-4.9662-0.36882s-0.34437 0.11609-0.5071 0.38361l10.681 10.177 0.76789-0.90865-10.28-9.8015c-0.22985 0.03334-0.45327 0.080336-0.66142 0.14943zm0.31807 3.1786s-0.25436 0.19723-0.66784 0.53063c0 0-0.069921 0.054225-0.19734 0.15906-0.014848 0.013261-0.031316 0.025307-0.046974 0.037358l9.0891 8.6483 0.76551-0.91102-8.9179-8.492c-0.00923 0.00964-0.01528 0.018476-0.024513 0.027715zm-2.8304 2.5771s9.64 9.1604 9.3049 8.821l0.75466-0.9094-9.149-8.6905c-0.2765 0.23217-0.58187 0.49247-0.91057 0.77885zm-2.0943 1.6491 4.2711 4.0671c0.38416-0.13817 0.87804-0.25706 1.4486-0.26672l-4.8465-4.6149c-0.28611 0.26149-0.57824 0.53345-0.87319 0.81459zm-1.972 2.0002s-0.68995 0.68647-0.71205 1.6433c-0.016073 0.43221 0.11131 0.92188 0.50229 1.4272 0 0 0.00643 0.0097 0.022101 0.02851 0.13662 0.14303 0.3054 0.27639 0.51837 0.38443 0.02853 0.01609 0.060278 0.03175 0.092425 0.04136 0.031743 0.01285 0.066703 0.02851 0.10488 0.04136 0.09202 0.03499 0.1973 0.0635 0.31142 0.0892 0.27365 0.05702 0.60717 0.08596 1.0142 0.05383 0.060278-0.0064 0.12096-0.01285 0.18445-0.01928 0.063485-0.0097 0.12738-0.01609 0.19408-0.02851 0.066703-0.0097 0.13341-0.02214 0.20333-0.03499 0.00643 0 0.00964 0 0.016074-0.0032 0.00643 0 0.012861 0 0.019292-0.0032 0.63972-0.1257 1.4213-0.38924 2.3636-0.85196l-3.9183-3.7313c-0.31182 0.31694-0.61922 0.63868-0.91618 0.96324z"/></svg>
