<svg xmlns="http://www.w3.org/2000/svg" viewBox="0 0 24 24"><path d="M14.258 5.15s-.9-.294-2.028-.463l9.014 8.544.756-.891-.602-.569-6.817-6.49a29.92 29.92 0 0 0-.323-.13zm-4.966-.368s-.345.116-.507.383l10.68 10.177.769-.908-10.28-9.802c-.23.033-.454.08-.662.15M9.61 7.96s-.254.198-.668.53c0 0-.07.055-.197.16l-.047.037 9.089 8.649.765-.911-8.918-8.492zm-2.83 2.577s9.64 9.16 9.304 8.821l.755-.909-9.149-8.69a65.73 65.73 0 0 0-.91.778m-2.095 1.65 4.271 4.067a4.516 4.516 0 0 1 1.449-.267l-4.847-4.615a57 57 0 0 0-.873.815m-1.972 2s-.69.686-.712 1.643c-.016.432.111.922.502 1.427l.023.029a1.896 1.896 0 0 0 .61.425c.032.013.067.029.105.042.092.035.197.063.312.089.273.057.607.086 1.014.054l.184-.02c.064-.01.128-.015.194-.028a5.83 5.83 0 0 0 .204-.035c.006 0 .01 0 .016-.003.006 0 .013 0 .019-.003.64-.126 1.421-.39 2.364-.852l-3.919-3.732c-.311.317-.619.64-.916.964"/></svg>