<svg xmlns="http://www.w3.org/2000/svg" width="192" height="192" font-family="Arial" font-size="15" style="stroke:none;stroke-linecap:butt;stroke-linejoin:miter;stroke-width:1;stroke-dasharray:none;fill:#000;fill-opacity:1;fill-rule:evenodd" viewBox="0 0 192 192"><path d="M109.966 37.338a23.616 23.616 0 0 0-2.797.11c-6.42.676-8.8 4.704-8.938 7.266-.138 2.562.64 8.238 7.278 9.474 6.637 1.237 15.293.965 24.259 9.84 8.965 8.877 8.958 20.113 10.278 24.833 1.32 4.72 5.593 6.407 8.27 6.186 2.677-.221 7.652-1.297 7.422-10.623-.231-9.326-2.552-21.053-14.734-33.317-10.659-10.732-23.654-13.658-31.038-13.77M96 16c43.887 0 80 36.113 80 80s-36.113 80-80 80-80-36.113-80-80 36.113-80 80-80"/></svg>