<svg xmlns="http://www.w3.org/2000/svg" viewBox="0 0 24 24"><path d="M12.547 4.348v1.895c1.676.219 3.06.947 4.081 2.259.802 1.093 1.239 2.26 1.239 3.644 0 1.53-.51 2.842-1.53 3.935s-2.26 1.749-3.79 1.895v2.404c0 .365-.219.583-.51.583s-.583-.218-.583-.583v-2.477c-1.75-.219-3.134-.948-4.154-2.332-.802-1.093-1.239-2.332-1.166-3.717.146-3.06 2.26-5.32 5.32-5.684V4.202H3.656C3.292 4.202 3 3.984 3 3.62s.22-.583.656-.583h16.688c.365 0 .656.219.656.583 0 .365-.218.583-.656.583h-7.651c-.073.146-.073.146-.146.146zm0 12.534c2.26-.218 4.373-2.259 4.154-5.028-.146-2.77-2.405-4.3-4.154-4.445v9.473zm-1.093 0V7.41c-2.186.218-4.227 2.186-4.154 4.81 0 2.696 2.04 4.517 4.154 4.663z"/></svg>