<svg xmlns="http://www.w3.org/2000/svg" viewBox="0 0 24 24"><path d="M21.414 12.639a.6.6 0 0 1-.284-.072l-3.265-1.797-.006-.002-3.185-1.795a.588.588 0 0 1-.006-1.021l3.263-1.874 3.183-1.875a.59.59 0 0 1 .886.506v7.344c0 .207-.11.4-.288.506a.6.6 0 0 1-.298.08M18.435 9.74l2.39 1.316v-5.32L18.528 7.09l-.006.004-2.37 1.361zM6.096 16.12a.587.587 0 1 1 0-1.177l5.581-.006a.587.587 0 1 1 0 1.176zm0-3.507a.587.587 0 1 1 0-1.176l5.581-.006a.587.587 0 1 1 0 1.176zm11.458 8.21H3.76c-.97 0-1.76-.79-1.76-1.761V4.939c0-.97.79-1.76 1.76-1.76h14.96a.587.587 0 1 1 0 1.176H3.76a.586.586 0 0 0-.584.584v14.123c0 .321.263.584.584.584h13.794a.586.586 0 0 0 .585-.584v-5.954a.587.587 0 1 1 1.176 0v5.954c0 .97-.79 1.761-1.76 1.761zM8.297 9.043H6.116a.587.587 0 1 1 0-1.176h2.18a.587.587 0 1 1 0 1.176"/></svg>