<svg xmlns="http://www.w3.org/2000/svg" width="192" height="192" viewBox="0 0 192 192"><path d="M69.737 82.152a18.045 18.045 0 1 1 0-36.089c9.976 0 18.045 8.068 18.045 18.053 0 9.985-8.128 18.036-18.053 18.036m0-27.063a9.018 9.018 0 1 0 0 18.036 9.018 9.018 0 1 0 0-18.036m45.21 90.754a18.053 18.053 0 0 1-18.045-18.053c0-9.968 8.068-18.036 18.053-18.036 9.968 0 18.036 8.068 18.036 18.045a18.053 18.053 0 0 1-18.045 18.045m0-27.071a9.027 9.027 0 1 0 0 18.053 9.027 9.027 0 1 0 0-18.053m-91.43-99.72a4.509 4.509 0 0 0-4.509 4.518v78.912a4.513 4.513 0 1 0 9.027 0V28.07h113.45a22.502 22.502 0 0 1 22.45 22.45 22.502 22.502 0 0 1-15.177 21.22l-116.53 40.025a19.508 19.508 0 0 0-13.22 18.464v38.21a4.499 4.499 0 0 0 4.51 4.51h105.13a44.748 44.748 0 0 0 31.418-12.894 44.149 44.149 0 0 0 12.945-31.315 44.201 44.201 0 0 0-6.845-23.615 44.149 44.149 0 0 0-18.096-16.24 4.521 4.521 0 1 0-3.979 8.12 35.08 35.08 0 0 1 14.434 12.894c3.56 5.63 5.416 12.107 5.416 18.79a35.08 35.08 0 0 1-10.353 24.897 35.08 35.08 0 0 1-24.94 10.344H28.018v-33.65c0-4.51 2.865-8.488 7.11-9.977l116.49-40.008a31.486 31.486 0 0 0 21.278-29.775 31.486 31.486 0 0 0-31.469-31.461z"/></svg>