<svg xmlns="http://www.w3.org/2000/svg" viewBox="0 0 24 24"><path d="M10.712 5.318a.585.585 0 0 1-.081-1.16 11 11 0 0 1 1.22-.098.585.585 0 1 1 .046 1.165 10 10 0 0 0-1.103.09zm1.341 5.24a.585.585 0 0 1-.585-.586v-6.41a.585.585 0 0 1 1.166 0v6.412a.585.585 0 0 1-.585.585m-1.738 3.91a.58.58 0 0 1-.554-.4 4.2 4.2 0 0 1-.214-1.342 3.9 3.9 0 0 1 .673-2.244 2.29 2.29 0 0 1 1.837-1.035c1.409 0 2.512 1.443 2.512 3.283a4.2 4.2 0 0 1-.214 1.336.585.585 0 0 1-1.107-.366 3 3 0 0 0 .154-.966c0-1.149-.616-2.117-1.345-2.117a1.17 1.17 0 0 0-.888.544 2.75 2.75 0 0 0-.456 1.57 3 3 0 0 0 .154.971.585.585 0 0 1-.553.768zm1.503-1.74a.55.55 0 0 1 .55-.55h1.13a.55.55 0 0 1 0 1.1h-1.13a.55.55 0 0 1-.55-.55M12 17.666A5.687 5.687 0 0 1 8.927 7.192a.585.585 0 0 1 .63.982 4.52 4.52 0 1 0 4.875-.006.585.585 0 1 1 .629-.983 5.688 5.688 0 0 1-3.06 10.48m-8.416-5.109A.585.585 0 0 1 3 11.971a9.03 9.03 0 0 1 4.503-7.796.585.585 0 1 1 .585 1.01 7.87 7.87 0 0 0-3.922 6.788.585.585 0 0 1-.585.586m16.473-2.453a.585.585 0 0 1-.558-.413 7.9 7.9 0 0 0-3.925-4.692.585.585 0 0 1 .53-1.04h.004a9.07 9.07 0 0 1 4.507 5.39.585.585 0 0 1-.39.729.6.6 0 0 1-.168.026m-1.62 7.878a.585.585 0 0 1-.446-.96 7.8 7.8 0 0 0 1.846-5.05q.001-.124-.005-.244a.585.585 0 1 1 1.166-.043v.007q.005.14.005.28a8.98 8.98 0 0 1-2.12 5.804.6.6 0 0 1-.447.207m-6.432 2.986a9 9 0 0 1-5.3-1.722.585.585 0 0 1 .686-.944 7.845 7.845 0 0 0 9.075.107.585.585 0 0 1 .665.96 9 9 0 0 1-5.127 1.6m-6.556-3.137a.59.59 0 0 1-.454-.217 8.9 8.9 0 0 1-1.678-3.284.585.585 0 0 1 1.127-.306 7.8 7.8 0 0 0 1.458 2.857.583.583 0 0 1-.454.95z"/></svg>