<svg xmlns="http://www.w3.org/2000/svg" viewBox="0 0 24 24"><path d="M11.885 20.886c-.423 0-.82-.164-1.12-.464L3.463 13.12a1.585 1.585 0 0 1 0-2.24l7.302-7.302c.3-.299.697-.463 1.12-.463s.82.164 1.12.463l1.606 1.606a.528.528 0 0 1-.747.747l-1.606-1.606a.54.54 0 0 0-.747 0L4.21 11.627a.528.528 0 0 0 0 .747l7.302 7.302c.2.2.547.2.747 0l7.302-7.302a.528.528 0 0 0 0-.747l-1.535-1.535a.529.529 0 0 1 0-.746l1.7-1.7-1.894-1.893-5.573 5.573a.544.544 0 0 1-.747 0l-1.25-1.25-1.926 1.925 3.517 3.518 4.647-4.647a.528.528 0 0 1 .747.747l-5.02 5.02a.528.528 0 0 1-.747 0l-4.263-4.264a.529.529 0 0 1 0-.746l2.672-2.672a.528.528 0 0 1 .747 0l1.25 1.25 5.572-5.574a.528.528 0 0 1 .746 0l2.641 2.639a.526.526 0 0 1 0 .746l-1.7 1.7 1.162 1.162a1.585 1.585 0 0 1 0 2.24l-7.302 7.302c-.3.299-.697.463-1.12.463z"/></svg>