<svg xmlns="http://www.w3.org/2000/svg" viewBox="0 0 24 24"><path d="M11.997 7.63a2.315 2.315 0 1 1 0-4.63 2.315 2.315 0 0 1 0 4.63m0-3.575a1.26 1.26 0 0 0 0 2.52 1.26 1.26 0 0 0 0-2.52M14.666 21a1.93 1.93 0 0 1-1.365-.565l-4.407-4.4a1.933 1.933 0 0 1 0-2.738l4.4-4.4a1.933 1.933 0 0 1 2.737 0l4.401 4.4c.757.758.757 1.98 0 2.738l-4.4 4.4c-.36.36-.857.565-1.366.565zm0-11.619a.858.858 0 0 0-.62.26l-4.401 4.401a.88.88 0 0 0 0 1.242l4.4 4.4a.88.88 0 0 0 1.242 0l4.4-4.4a.88.88 0 0 0 0-1.242l-4.4-4.4a.88.88 0 0 0-.621-.26zm-5.332 11.62a1.93 1.93 0 0 1-1.365-.566l-4.4-4.4a1.933 1.933 0 0 1 0-2.738l4.4-4.4a1.933 1.933 0 0 1 2.737 0l1.651 1.657a.528.528 0 0 1 0 .745.528.528 0 0 1-.745 0L9.955 9.642a.88.88 0 0 0-1.241 0l-4.401 4.4a.88.88 0 0 0 0 1.242l4.4 4.4a.88.88 0 0 0 1.242 0l1.657-1.65a.528.528 0 0 1 .745.006.532.532 0 0 1 0 .738l-1.651 1.651A1.936 1.936 0 0 1 9.334 21z"/></svg>