<svg xmlns="http://www.w3.org/2000/svg" viewBox="0 0 24 24"><path d="M8.93 10.381c-1.16 0-2.11-.943-2.11-2.109s.944-2.109 2.11-2.109 2.109.943 2.109 2.11-.95 2.108-2.11 2.108m0-3.163a1.054 1.054 0 1 0 0 2.108 1.054 1.054 0 1 0 0-2.108zm5.284 10.607a2.111 2.111 0 0 1-2.109-2.11c0-1.165.943-2.108 2.11-2.108 1.165 0 2.108.943 2.108 2.109a2.111 2.111 0 0 1-2.109 2.109zm0-3.164a1.054 1.054 0 1 0 0 2.11 1.054 1.054 0 1 0 0-2.11M3.527 3.006A.527.527 0 0 0 3 3.534v9.223a.527.527 0 1 0 1.055 0V4.06h13.26a2.629 2.629 0 0 1 2.624 2.624 2.63 2.63 0 0 1-1.774 2.48l-13.62 4.678A2.283 2.283 0 0 0 3 16v4.466c0 .292.235.527.527.527h12.287c1.383 0 2.68-.54 3.672-1.507a5.158 5.158 0 0 0 1.513-3.66c0-.98-.279-1.935-.8-2.76a5.164 5.164 0 0 0-2.115-1.898.527.527 0 1 0-.465.949 4.085 4.085 0 0 1 1.687 1.507c.416.658.633 1.415.633 2.196a4.098 4.098 0 0 1-1.21 2.91 4.097 4.097 0 0 1-2.915 1.209H4.054v-3.933c0-.527.335-.992.831-1.166L18.5 10.164a3.679 3.679 0 0 0 2.487-3.48 3.682 3.682 0 0 0-3.678-3.677z"/></svg>