<svg xmlns="http://www.w3.org/2000/svg" viewBox="0 0 24 24"><path d="M9.023 2.687a.97.97 0 0 0-.91.84l-.147 1.038-5.091.536h-.002a.973.973 0 0 0-.867 1.074l1.261 11.994v.002a.977.977 0 0 0 1.076.867l.438-.045v.902c0 .539.437.977.976.977h12.06a.98.98 0 0 0 .978-.97v-1.71l.414.059a.96.96 0 0 0 .723-.186.96.96 0 0 0 .38-.644L21.99 5.476a.97.97 0 0 0-.185-.723.96.96 0 0 0-.645-.38L9.215 2.694a1 1 0 0 0-.191-.008zm.22 1.195 11.56 1.625-1.623 11.557-.385-.055V7.833a.977.977 0 0 0-.977-.976H8.826zm-1.445 1.88-.154 1.095H5.758a.977.977 0 0 0-.977.976v9.98l-.37.04-1.22-11.605zM5.952 8.029h11.672V19.7H5.95zM8.275 9.79a.587.587 0 0 0 0 1.174h7.031a.587.587 0 0 0 0-1.174zm0 2.324a.587.587 0 0 0 0 1.174h7.031a.587.587 0 0 0 0-1.174zm0 2.326a.585.585 0 1 0 0 1.172h7.031a.585.585 0 1 0 0-1.172zm.008 2.325a.585.585 0 1 0 0 1.171h3.498a.585.585 0 1 0 0-1.171z"/></svg>