<svg xmlns="http://www.w3.org/2000/svg" viewBox="0 0 24 24"><path d="M11.997 22a.397.397 0 0 1-.393-.393v-9.609c0-.214.18-.393.393-.393s.393.18.393.393v9.609a.402.402 0 0 1-.393.393m0-9.609a.382.382 0 0 1-.338-.193.395.395 0 0 1 .145-.538l8.325-4.8a.395.395 0 0 1 .538.144.395.395 0 0 1-.144.538l-8.326 4.801a.564.564 0 0 1-.2.048m0 0a.39.39 0 0 1-.193-.055l-8.326-4.8a.402.402 0 0 1-.145-.539.402.402 0 0 1 .538-.144l8.326 4.8c.186.11.248.352.145.538a.41.41 0 0 1-.345.2zm3.325-1.924a.39.39 0 0 1-.193-.055l-3.132-1.807-3.139 1.807a.395.395 0 0 1-.538-.145.395.395 0 0 1 .145-.538l3.332-1.925a.4.4 0 0 1 .393 0l3.332 1.925c.186.11.248.352.145.538a.394.394 0 0 1-.345.2zm-3.325 5.766a.39.39 0 0 1-.193-.055l-3.332-1.917a.382.382 0 0 1-.193-.338V10.08c0-.214.18-.394.393-.394s.393.18.393.394v3.614l3.132 1.807c.186.11.248.352.145.538a.42.42 0 0 1-.345.193zm0 0a.382.382 0 0 1-.338-.193.395.395 0 0 1 .145-.538l3.131-1.807v-3.621c0-.214.18-.393.394-.393s.393.179.393.393v3.842a.397.397 0 0 1-.193.338l-3.332 1.924a.383.383 0 0 1-.2.055zm8.319-8.65a.39.39 0 0 1-.193-.055l-8.126-4.69-8.125 4.69a.395.395 0 0 1-.538-.144.395.395 0 0 1 .144-.538l8.32-4.794a.4.4 0 0 1 .392 0l8.326 4.8c.186.11.248.352.145.538a.402.402 0 0 1-.345.194zM11.997 22a.39.39 0 0 1-.193-.056l-8.326-4.8a.382.382 0 0 1-.193-.338V7.197a.39.39 0 0 1 .393-.393c.221 0 .393.172.393.393v9.388l8.126 4.69c.186.11.248.352.145.538a.43.43 0 0 1-.345.187zm0 0a.382.382 0 0 1-.338-.194.395.395 0 0 1 .145-.538l8.125-4.69V7.19a.393.393 0 1 1 .787 0v9.61a.397.397 0 0 1-.193.338l-8.326 4.807a.461.461 0 0 1-.2.056z"/></svg>