<svg xmlns="http://www.w3.org/2000/svg" width="192" height="192" viewBox="0 0 192 192"><path d="M95.97 19a19.808 19.808 0 0 0 0 39.615 19.808 19.808 0 0 0 0-39.615m0 9.023a10.779 10.779 0 0 1 0 21.554 10.779 10.779 0 0 1 0-21.554m22.807 36.573a16.536 16.536 0 0 0-11.696 4.846L95.987 80.536 84.926 69.442a16.536 16.536 0 0 0-23.408 0l-37.644 37.644a16.536 16.536 0 0 0 0 23.425l37.644 37.644A16.51 16.51 0 0 0 73.197 173v-.016a16.596 16.596 0 0 0 11.729-4.88l11.078-11.077 11.128 11.128a16.51 16.51 0 0 0 11.679 4.829c4.354 0 8.6-1.75 11.679-4.83l37.644-37.643a16.551 16.551 0 0 0 0-23.425L130.49 69.442a16.536 16.536 0 0 0-11.712-4.846zm.033 8.99v.016a7.528 7.528 0 0 1 5.314 2.222l37.644 37.644a7.528 7.528 0 0 1 0 10.61l-37.644 37.644a7.528 7.528 0 0 1-10.626 0l-37.644-37.644a7.528 7.528 0 0 1 0-10.61l37.66-37.66a7.357 7.357 0 0 1 5.296-2.222zm-46.783.133a7.528 7.528 0 0 1 6.483 2.105l11.094 11.094-20.167 20.167a16.536 16.536 0 0 0 0 23.425l20.167 20.15-11.094 11.061a7.528 7.528 0 0 1-10.626 0L30.24 124.077a7.528 7.528 0 0 1 0-10.61L67.9 75.823a7.528 7.528 0 0 1 4.127-2.105z"/></svg>