<svg xmlns="http://www.w3.org/2000/svg" width="192" height="192" viewBox="0 0 192 192"><path d="M72.183 23.269a7.76 7.76 0 0 0-7.28 6.72l-1.176 8.304-40.728 4.288h-.016a7.784 7.784 0 0 0-6.936 8.592l10.088 95.952v.016a7.816 7.816 0 0 0 8.608 6.936l3.504-.36v7.216c0 4.312 3.496 7.816 7.808 7.816h96.48a7.84 7.84 0 0 0 7.824-7.76v-13.68l3.312.472a7.68 7.68 0 0 0 5.784-1.488 7.68 7.68 0 0 0 3.04-5.152l13.424-95.56a7.76 7.76 0 0 0-1.48-5.784 7.68 7.68 0 0 0-5.16-3.04l-95.56-13.432a8 8 0 0 0-1.528-.064zm1.76 9.56 92.48 13-12.984 92.456-3.08-.44V64.437a7.816 7.816 0 0 0-7.816-7.808H70.607zm-11.56 15.04-1.232 8.76H46.063a7.816 7.816 0 0 0-7.816 7.808v79.84l-2.96.32-9.76-92.84zM47.615 66.005h93.376v93.368H47.599zm18.584 14.088a4.696 4.696 0 0 0 0 9.392h56.248a4.696 4.696 0 0 0 0-9.392zm0 18.592a4.696 4.696 0 0 0 0 9.392h56.248a4.696 4.696 0 0 0 0-9.392zm0 18.608a4.688 4.688 0 1 0 0 9.376h56.248a4.688 4.688 0 1 0 0-9.376zm.064 18.6a4.684 4.684 0 1 0 0 9.368h27.984a4.684 4.684 0 1 0 0-9.368z"/></svg>