<svg version="1.1" viewBox="0 0 192 192" xmlns="http://www.w3.org/2000/svg"><path d="m48.658 19.009c-7.5887 0.0066-15.184 2.9014-20.974 8.6645-11.579 11.526-11.579 30.329 0 41.907 5.5769 5.5769 13.013 8.6568 20.927 8.6568 7.9139 0 15.35-3.0802 20.98-8.6037 5.5769-5.6301 8.6576-13.066 8.6576-20.98s-3.0279-15.403-8.6576-20.98c-5.7628-5.7894-13.344-8.6705-20.933-8.6645zm-0.04706 8.9827c5.2582 0 10.517 2.0186 14.553 6.0552 3.9305 3.8773 6.0552 9.0828 6.0552 14.553 0 5.4708-2.1779 10.675-6.0552 14.553-3.8773 3.9305-9.0828 6.0552-14.553 6.0552-5.4708 0-10.676-2.1779-14.553-6.0552-8.0733-8.0202-8.0733-21.086 0-29.159 3.9835-3.9835 9.295-6.0022 14.553-6.0022zm94.798 16.438c-7.5887 0-15.184 2.8955-20.974 8.685-5.5769 5.5769-8.6568 13.012-8.6568 20.926 0 7.8608 3.0269 15.297 8.6568 20.927 5.7363 5.7894 13.332 8.6576 20.928 8.6576 7.5958 0 15.191-2.9216 20.98-8.6576 5.5769-5.5769 8.6576-13.013 8.6576-20.927 0-7.8608-3.081-15.296-8.6576-20.926-5.7628-5.7894-13.344-8.685-20.933-8.685zm-0.0471 8.9502c5.3114 0 10.57 2.0177 14.606 6.0012 3.9304 3.8773 6.0552 9.0828 6.0552 14.553 0 5.4708-2.1779 10.676-6.0552 14.553-8.0733 8.0202-21.14 8.0202-29.16 0-3.9305-3.8773-6.0552-9.0828-6.0552-14.553 0-5.4708 2.1779-10.676 6.0552-14.553 3.9839-3.9835 9.2959-6.0012 14.553-6.0012zm-111.38 29.956c-2.4432 0-4.4616 2.0185-4.5146 4.4618-0.10623 11.313 2.8677 22.414 8.6037 32.081 0.84982 1.4341 2.3374 2.2303 3.8777 2.2303 0.79671 0 1.5926-0.21183 2.3362-0.68985 2.1246-1.3279 2.8152-4.0904 1.5405-6.2149-4.9396-8.2326-7.4353-17.686-7.3291-27.3 0-2.4963-1.9654-4.5155-4.4618-4.5686zm106.15 28.533c-1.6056-0.0154-3.1738 0.82974-4.0136 2.3268-2.337 4.1429-5.2048 7.9662-8.6037 11.366-3.3993 3.3462-7.2237 6.2681-11.366 8.6054-2.2308 1.2216-2.9748 3.9833-1.7532 6.161 0.79672 1.434 2.3372 2.2843 3.9306 2.2843 0.79671 0 1.5409-0.21244 2.2314-0.53114 4.8333-2.7619 9.3481-6.1621 13.332-10.145 4.0366-3.9835 7.4358-8.4449 10.145-13.332 1.2216-2.1776 0.42445-4.9394-1.7532-6.161-0.68053-0.38176-1.4176-0.56665-2.1473-0.57367zm-64.138 1.9015c-7.8608 0-15.297 3.0279-20.927 8.6576-11.579 11.526-11.579 30.327 0 41.906 5.5769 5.5769 13.013 8.6576 20.927 8.6576 7.9139 0 15.35-3.081 20.928-8.6576 11.579-11.526 11.579-30.327 0-41.906-5.5769-5.5769-13.013-8.6576-20.928-8.6576zm0 8.9768c5.5239 0 10.676 2.1248 14.553 6.0552 8.0202 8.0733 8.0202 21.139 0 29.159-3.8773 3.9305-9.0828 6.0552-14.553 6.0552-5.4708 0-10.676-2.1779-14.553-6.0552-8.0202-8.0733-8.0202-21.139 0-29.159 3.8773-3.9304 9.0298-6.0552 14.553-6.0552zm43.659-78.29c-0.79671 0-1.5934-0.21246-2.2839-0.63736-8.2327-4.9396-17.74-7.4359-27.354-7.3297h-0.05305c-2.4432 0-4.4616-1.9652-4.5147-4.4616-0.05305-2.4963 1.9652-4.5678 4.4616-4.5678 11.313-0.15934 22.414 2.815 32.134 8.6046 2.1246 1.2747 2.8682 4.0366 1.5403 6.2143-0.90298 1.381-2.3902 2.1777-3.9304 2.1777z"/></svg>
