<svg xmlns="http://www.w3.org/2000/svg" xml:space="preserve" viewBox="0 0 24 24"><path d="M8.854 7.218a2.11 2.11 0 0 1-2.107-2.107 2.107 2.107 0 0 1 4.214 0 2.11 2.11 0 0 1-2.107 2.107m0-3.156a1.05 1.05 0 1 0 0 2.1 1.05 1.05 0 0 0 0-2.1m0 3.156a2.11 2.11 0 0 1-2.107-2.107 2.107 2.107 0 0 1 4.214 0 2.11 2.11 0 0 1-2.107 2.107m0-3.156a1.05 1.05 0 1 0 0 2.1 1.05 1.05 0 0 0 0-2.1m4.39 3.246a.5.5 0 0 1-.186-.035l-2.915-1.108a.53.53 0 0 1 .375-.989l2.915 1.108a.53.53 0 0 1-.188 1.024m0 0a.5.5 0 0 1-.186-.035l-2.915-1.108a.53.53 0 0 1 .375-.989l2.915 1.108a.53.53 0 0 1-.188 1.024m2.59 3.755c-1.817 0-3.297-1.48-3.297-3.298s1.48-3.297 3.297-3.297 3.298 1.48 3.298 3.297-1.478 3.298-3.298 3.298m0-5.54a2.244 2.244 0 0 0-2.242 2.242 2.244 2.244 0 0 0 2.242 2.242 2.245 2.245 0 0 0 2.242-2.241 2.245 2.245 0 0 0-2.242-2.242zm0 5.54c-1.817 0-3.297-1.48-3.297-3.298s1.48-3.297 3.297-3.297 3.298 1.48 3.298 3.297-1.478 3.298-3.298 3.298m0-5.54a2.244 2.244 0 0 0-2.242 2.242 2.244 2.244 0 0 0 2.242 2.242 2.245 2.245 0 0 0 2.242-2.241 2.245 2.245 0 0 0-2.242-2.242zm-9.3 9.492a.527.527 0 0 1-.308-.956l.934-.67v-1.71a.529.529 0 0 1 1.056 0v1.982a.53.53 0 0 1-.22.43l-1.154.828a.54.54 0 0 1-.308.096m0 0a.527.527 0 0 1-.308-.956l.934-.67v-1.71a.529.529 0 0 1 1.056 0v1.982a.53.53 0 0 1-.22.43l-1.154.828a.54.54 0 0 1-.308.096m1.152 3.333a4.66 4.66 0 0 1-3.314-1.374A4.66 4.66 0 0 1 3 13.662c0-1.252.488-2.43 1.373-3.315.886-.886 2.063-1.374 3.315-1.374s2.429.488 3.315 1.374a4.66 4.66 0 0 1 1.373 3.315 4.66 4.66 0 0 1-1.373 3.314 4.66 4.66 0 0 1-3.317 1.372zm0-8.319a3.636 3.636 0 0 0-3.632 3.632 3.636 3.636 0 0 0 3.632 3.632c2.003 0 3.634-1.63 3.634-3.632s-1.63-3.632-3.634-3.632m0 8.319a4.66 4.66 0 0 1-3.314-1.374A4.66 4.66 0 0 1 3 13.662c0-1.252.488-2.43 1.373-3.315.886-.886 2.063-1.374 3.315-1.374s2.429.488 3.315 1.374a4.66 4.66 0 0 1 1.373 3.315 4.66 4.66 0 0 1-1.373 3.314 4.66 4.66 0 0 1-3.317 1.372zm0-8.319a3.636 3.636 0 0 0-3.632 3.632 3.636 3.636 0 0 0 3.632 3.632c2.003 0 3.634-1.63 3.634-3.632s-1.63-3.632-3.634-3.632m3.371 1.72a.528.528 0 0 1-.31-.954l2.533-1.833a.527.527 0 1 1 .618.854l-2.532 1.833a.53.53 0 0 1-.309.1m0 0a.528.528 0 0 1-.31-.954l2.533-1.833a.527.527 0 1 1 .618.854l-2.532 1.833a.53.53 0 0 1-.309.1m9.21 7.224a.5.5 0 0 1-.186-.035l-2.931-1.115a.53.53 0 0 1-.34-.494v-3.101a.529.529 0 0 1 1.056 0v2.738l2.59.987a.53.53 0 0 1 .307.681.53.53 0 0 1-.496.339m0 0a.5.5 0 0 1-.186-.035l-2.931-1.115a.53.53 0 0 1-.34-.494v-3.101a.529.529 0 0 1 1.056 0v2.738l2.59.987a.53.53 0 0 1 .307.681.53.53 0 0 1-.496.339m-2.93 2.02a3.667 3.667 0 0 1-3.664-3.663c0-2.02 1.643-3.663 3.663-3.663S21 15.31 21 17.33a3.667 3.667 0 0 1-3.664 3.663m0-6.27a2.61 2.61 0 0 0-2.608 2.607 2.61 2.61 0 0 0 2.607 2.607 2.61 2.61 0 0 0 2.607-2.607 2.61 2.61 0 0 0-2.607-2.607zm0 6.27a3.667 3.667 0 0 1-3.664-3.663c0-2.02 1.643-3.663 3.663-3.663S21 15.31 21 17.33a3.667 3.667 0 0 1-3.664 3.663m0-6.27a2.61 2.61 0 0 0-2.608 2.607 2.61 2.61 0 0 0 2.607 2.607 2.61 2.61 0 0 0 2.607-2.607 2.61 2.61 0 0 0-2.607-2.607zm-2.932 2.02a.5.5 0 0 1-.186-.035l-2.829-1.076a.53.53 0 0 1 .375-.988l2.83 1.076a.53.53 0 0 1-.19 1.023m0 0a.5.5 0 0 1-.186-.035l-2.829-1.076a.53.53 0 0 1 .375-.988l2.83 1.076a.53.53 0 0 1-.19 1.023"/></svg>