<svg xmlns="http://www.w3.org/2000/svg" viewBox="0 0 24 24"><path d="M11.996 15.549A3.556 3.556 0 0 1 8.447 12a3.556 3.556 0 0 1 3.549-3.548 3.556 3.556 0 0 1 3.43 4.454.528.528 0 1 0 1.024.267c.1-.385.15-.776.15-1.179a4.58 4.58 0 0 0-1.347-3.257c-.868-.868-2.022-1.346-3.257-1.346s-2.388.478-3.257 1.346C7.871 9.606 7.4 10.772 7.4 12s.478 2.389 1.346 3.257 2.023 1.347 3.257 1.347c.416 0 .825-.056 1.222-.162a.533.533 0 0 0 .373-.651.533.533 0 0 0-.652-.372c-.31.087-.626.13-.949.13zm8.847 4.541-2.122-2.115a9.037 9.037 0 0 0 1.563-2.476A8.995 8.995 0 0 0 20.992 12a8.862 8.862 0 0 0-.708-3.499 8.952 8.952 0 0 0-1.929-2.86 8.952 8.952 0 0 0-6.359-2.636 8.914 8.914 0 0 0-3.505.707 9.09 9.09 0 0 0-2.86 1.93 8.835 8.835 0 0 0-1.923 2.86A8.862 8.862 0 0 0 3 12c0 1.216.236 2.395.708 3.5a8.952 8.952 0 0 0 1.929 2.86 8.952 8.952 0 0 0 2.86 1.929 8.862 8.862 0 0 0 3.499.707l8.475-.006a.54.54 0 0 0 .49-.33.517.517 0 0 0-.118-.57m-8.847-.149c-1.073 0-2.11-.21-3.09-.626a7.981 7.981 0 0 1-2.524-1.7 7.747 7.747 0 0 1-1.7-2.525c-.416-.98-.627-2.016-.627-3.09s.21-2.109.627-3.09a7.981 7.981 0 0 1 1.7-2.524 7.813 7.813 0 0 1 2.525-1.7c.98-.416 2.016-.627 3.089-.627s2.11.211 3.09.627a7.981 7.981 0 0 1 2.525 1.7 7.813 7.813 0 0 1 1.7 2.525c.415.98.626 2.016.626 3.09a7.908 7.908 0 0 1-1.96 5.223l-4.703-4.696h.701a.527.527 0 1 0 0-1.055h-1.973a.53.53 0 0 0-.527.62v1.874a.527.527 0 1 0 1.055 0v-.689l6.669 6.657z"/></svg>