<svg xmlns="http://www.w3.org/2000/svg" viewBox="0 0 24 24"><path d="M10.712 5.318a.585.585 0 0 1-.081-1.16 10.782 10.782 0 0 1 1.22-.098.585.585 0 1 1 .046 1.165 9.828 9.828 0 0 0-1.103.09.64.64 0 0 1-.083.004m1.341 5.24a.585.585 0 0 1-.585-.586v-6.41a.585.585 0 0 1 1.166 0v6.412a.585.585 0 0 1-.585.585m-1.738 3.91a.582.582 0 0 1-.554-.4 4.195 4.195 0 0 1-.214-1.342 3.882 3.882 0 0 1 .673-2.244 2.287 2.287 0 0 1 1.837-1.035c1.409 0 2.512 1.443 2.512 3.283a4.195 4.195 0 0 1-.214 1.336.585.585 0 0 1-1.107-.366 3.017 3.017 0 0 0 .154-.966c0-1.149-.616-2.117-1.345-2.117a1.168 1.168 0 0 0-.888.544 2.754 2.754 0 0 0-.456 1.57 3.034 3.034 0 0 0 .154.971.585.585 0 0 1-.553.768zm1.503-1.74a.55.55 0 0 1 .55-.55h1.13a.55.55 0 0 1 0 1.1h-1.13a.55.55 0 0 1-.55-.55M12 17.666A5.687 5.687 0 0 1 8.927 7.192a.585.585 0 0 1 .63.982 4.52 4.52 0 1 0 4.875-.006.585.585 0 1 1 .629-.983 5.688 5.688 0 0 1-3.06 10.48m-8.416-5.109A.585.585 0 0 1 3 11.971a9.033 9.033 0 0 1 4.503-7.796.585.585 0 1 1 .585 1.01 7.865 7.865 0 0 0-3.922 6.788.585.585 0 0 1-.585.586m16.473-2.453a.585.585 0 0 1-.558-.413 7.902 7.902 0 0 0-3.925-4.692.585.585 0 0 1 .53-1.04h.004a9.075 9.075 0 0 1 4.507 5.39.585.585 0 0 1-.39.729.603.603 0 0 1-.168.026zm-1.62 7.878a.585.585 0 0 1-.446-.96 7.81 7.81 0 0 0 1.846-5.05c0-.083 0-.164-.005-.244a.585.585 0 1 1 1.166-.043v.007c.003.093.005.186.005.28a8.975 8.975 0 0 1-2.12 5.804.585.585 0 0 1-.447.207m-6.432 2.986a8.996 8.996 0 0 1-5.3-1.722.585.585 0 0 1 .686-.944 7.845 7.845 0 0 0 9.075.107.585.585 0 0 1 .665.96 8.991 8.991 0 0 1-5.127 1.6m-6.556-3.137a.585.585 0 0 1-.454-.217 8.926 8.926 0 0 1-1.678-3.284.585.585 0 0 1 1.127-.306 7.763 7.763 0 0 0 1.458 2.857.583.583 0 0 1-.454.95z"/></svg>