<svg xmlns="http://www.w3.org/2000/svg" viewBox="0 0 24 24"><path d="M13.51 3.306a.526.526 0 1 0 0 1.055h5.556a.88.88 0 0 1 .88.879v9.707a.879.879 0 0 1-.88.879h-5.308a.526.526 0 0 0-.445.242l-2.444 3.816a.526.526 0 1 0 .889.567l2.286-3.573h5.022A1.934 1.934 0 0 0 21 14.944V5.24a1.934 1.934 0 0 0-1.934-1.933zm-8.577 0A1.934 1.934 0 0 0 3 5.24v9.705c0 1.067.866 1.933 1.933 1.933h3.94a.528.528 0 1 0 0-1.055h-3.94a.879.879 0 0 1-.879-.879V5.241a.88.88 0 0 1 .879-.88h4.994a.526.526 0 1 0 0-1.054zm3.198 5.84a.967.967 0 0 0-.967.966.967.967 0 0 0 .967.967.967.967 0 0 0 .967-.967.967.967 0 0 0-.967-.967m3.867 0a.967.967 0 0 0-.968.966.967.967 0 0 0 .968.967.967.967 0 0 0 .967-.967.967.967 0 0 0-.967-.967m3.866 0a.967.967 0 0 0-.967.966.967.967 0 0 0 .967.967.967.967 0 0 0 .967-.967.967.967 0 0 0-.967-.967z"/></svg>