<svg xmlns="http://www.w3.org/2000/svg" viewBox="0 0 24 24"><path d="m18.346 9.875-1.049.394-.139.592-.371.017-.096.815h.34l-.176 1.259c-.11.782.03 1.15.72 1.15.408 0 .76-.145.947-.247l.12-.75c-.139.07-.363.158-.514.158-.206 0-.23-.108-.188-.406l.158-1.164h.702c.025-.171.11-.73.133-.833h-.72Zm-3.15.835a3 3 0 0 0-.3.022 3 3 0 0 0-1.123.36l.217.657c.224-.125.512-.233.815-.271.448-.055.63.083.658.312a1 1 0 0 1-.004.24l-.012.048a2.9 2.9 0 0 0-.914-.03c-.431.052-.786.227-1.003.5a1.1 1.1 0 0 0-.188.861c.106.486.461.7 1 .634.375-.046.676-.225.896-.525a2 2 0 0 1-.025.253 1.5 1.5 0 0 1-.06.242h1.037a3 3 0 0 1 0-.304q.044-.573.205-1.709a2 2 0 0 0-.002-.492c-.066-.536-.523-.807-1.196-.798Zm5.447.053c-.995 0-1.756.889-1.756 1.951 0 .8.46 1.411 1.357 1.411 1 0 1.756-.89 1.756-1.958 0-.792-.448-1.404-1.357-1.404m-9.814.034c-.448 0-.933.387-1.267 1.03.085-.42.067-.897.043-.999a7.5 7.5 0 0 1-1.072.102 6 6 0 0 1-.061 1.036l-.14.954c-.055.375-.115.808-.175 1.08h1.127c.006-.165.048-.425.079-.654l.096-.655c.08-.426.419-.928.68-.928.151 0 .145.146.103.42l-.11.737c-.054.375-.114.808-.175 1.08h1.139c.007-.165.042-.426.073-.654l.097-.655c.078-.427.418-.928.678-.928.152 0 .146.14.122.33L11.793 14h1.04l.365-2.174c.08-.541.037-1.03-.563-1.03-.436 0-.908.369-1.242.985.073-.509.03-.985-.564-.985zm-4.067.006c-.98 0-1.733.878-1.733 1.927 0 .788.455 1.392 1.34 1.392.988 0 1.733-.877 1.733-1.933 0-.781-.442-1.386-1.339-1.386zm-4.271.076a13 13 0 0 1-.146.942c.273-.007.516-.013 1.176-.013L2.013 13.44 2 14.027c.37-.025.83-.033 1.358-.033.472 0 .945.007 1.248.033.054-.382.108-.636.175-.948-.23.013-.63.02-1.26.02l1.508-1.642.02-.578c-.365.02-.692.025-1.267.025-.624 0-.813-.006-1.291-.025m4.156.773c.213 0 .34.19.34.584 0 .572-.23 1.042-.521 1.042-.218 0-.345-.196-.345-.585 0-.578.236-1.041.526-1.041m13.858 0c.212 0 .34.19.34.584 0 .572-.23 1.042-.522 1.042-.218 0-.346-.196-.346-.585 0-.578.237-1.041.528-1.041m-5.58.881c.172-.002.336.02.458.049l-.01.098c-.063.367-.325.734-.707.782-.258.03-.482-.124-.507-.325a.45.45 0 0 1 .095-.342c.098-.132.28-.223.5-.25a2 2 0 0 1 .171-.012"/></svg>