<svg xmlns="http://www.w3.org/2000/svg" viewBox="0 0 192 192"><path d="m146.77 79-8.4 3.15-1.1 4.74-2.97.13-.77 6.52h2.72l-1.4 10.08c-.89 6.25.23 9.2 5.75 9.2 3.27 0 6.08-1.16 7.58-1.98l.96-6c-1.11.56-2.9 1.26-4.11 1.26-1.65 0-1.84-.86-1.5-3.24l1.26-9.32h5.61c.2-1.36.88-5.84 1.07-6.66h-5.76zm-25.2 6.68a24 24 0 0 0-2.4.18 24 24 0 0 0-8.98 2.88l1.73 5.25c1.8-1 4.1-1.86 6.52-2.17 3.59-.44 5.04.67 5.27 2.5a8 8 0 0 1-.04 1.92l-.1.38a23.2 23.2 0 0 0-7.3-.24c-3.45.42-6.3 1.82-8.03 4a8.8 8.8 0 0 0-1.5 6.9c.85 3.88 3.69 5.6 8 5.06 3-.36 5.4-1.8 7.17-4.2a16 16 0 0 1-.2 2.03 12 12 0 0 1-.48 1.93h8.3a24 24 0 0 1 0-2.43q.34-4.58 1.63-13.67a16 16 0 0 0-.01-3.94c-.53-4.28-4.19-6.45-9.57-6.38zm43.58.42c-7.96 0-14.05 7.12-14.05 15.61 0 6.4 3.68 11.29 10.85 11.29 8 0 14.05-7.12 14.05-15.66 0-6.34-3.58-11.24-10.85-11.24m-78.52.28c-3.58 0-7.46 3.1-10.13 8.24.68-3.36.53-7.18.34-8a60 60 0 0 1-8.57.82 48 48 0 0 1-.5 8.29l-1.11 7.63c-.44 3-.92 6.46-1.4 8.64h9.01c.05-1.32.39-3.4.64-5.23l.76-5.24c.64-3.41 3.36-7.43 5.44-7.43 1.21 0 1.16 1.17.83 3.36l-.88 5.9c-.43 3-.91 6.46-1.4 8.64h9.11c.06-1.32.34-3.4.58-5.23l.78-5.24c.62-3.42 3.34-7.43 5.42-7.43 1.22 0 1.17 1.12.98 2.64L94.35 112h8.32l2.92-17.4c.64-4.32.3-8.23-4.5-8.23-3.5 0-7.27 2.95-9.94 7.88.58-4.07.24-7.88-4.52-7.88zm-32.53.04c-7.84 0-13.87 7.03-13.87 15.42 0 6.3 3.64 11.14 10.72 11.14 7.9 0 13.87-7.02 13.87-15.47 0-6.25-3.54-11.09-10.71-11.09zm-34.17.61a104 104 0 0 1-1.17 7.54c2.19-.06 4.13-.1 9.41-.1l-12.06 13.05-.1 4.7c2.95-.2 6.63-.27 10.86-.27 3.77 0 7.56.06 9.98.27a97 97 0 0 1 1.4-7.59 212 212 0 0 1-10.08.16l12.06-13.13.16-4.63c-2.92.16-5.53.2-10.13.2-5 0-6.5-.05-10.33-.2m33.25 6.19c1.7 0 2.72 1.52 2.72 4.67 0 4.57-1.84 8.33-4.17 8.33-1.74 0-2.76-1.56-2.76-4.68 0-4.62 1.89-8.32 4.2-8.32m110.87 0c1.7 0 2.72 1.52 2.72 4.67 0 4.57-1.84 8.33-4.18 8.33-1.74 0-2.77-1.56-2.77-4.68 0-4.62 1.9-8.32 4.23-8.32m-44.64 7.04c1.37-.01 2.69.16 3.66.4l-.08.78c-.5 2.94-2.6 5.87-5.65 6.26-2.07.24-3.86-1-4.06-2.6a3.6 3.6 0 0 1 .76-2.74c.78-1.06 2.24-1.78 4-2a16 16 0 0 1 1.37-.1"/></svg>