<svg xmlns="http://www.w3.org/2000/svg" viewBox="0 0 24 24"><path d="M20 4.99c0 1.008-.403 1.903-1.018 2.446l-5.97 5.978c-.11.107-.254-.065-.174-.208l2.19-4.916c.06-.138-.019-.307-.145-.307H6.391C5.076 7.983 4 6.636 4 4.99S5.076 2 6.391 2H17.61C18.924 2 20 3.345 20 4.99M6.391 22H17.61c1.314 0 2.39-1.346 2.39-2.991 0-1.646-1.076-2.992-2.391-2.992H9.117c-.126 0-.206-.169-.144-.306l2.19-4.917c.079-.143-.065-.315-.176-.208l-5.969 5.977C4.403 17.106 4 18.001 4 19.009 4 20.654 5.076 22 6.391 22"/></svg>